<svg width="31" height="49" viewBox="0 0 31 49" fill="none" xmlns="http://www.w3.org/2000/svg">
<circle cx="7.53195" cy="7.53195" r="7.53195" transform="matrix(-1 0 0 1 22.6714 6.95239)" fill="#DA291C"/>
<path d="M2.20249 46.5328C0.922081 43.8213 4.47918 35.6866 12.1264 20.6229H18.4909C25.3603 34.8225 30.5796 43.52 27.9435 46.5328C25.3073 49.5456 3.48289 49.2443 2.20249 46.5328Z" fill="#DA291C"/>
<path d="M8.10729 14.6817H8.10746C9.40982 14.8641 10.8844 14.9737 12.5418 14.9941C26.3935 15.1659 31.0916 9.7622 29.9458 6.4703C29.9439 6.46467 29.9422 6.45988 29.9409 6.45585C29.9395 6.45181 29.938 6.44786 29.9366 6.44391C29.9364 6.44333 29.9362 6.44291 29.936 6.4424C29.9059 6.35878 29.872 6.27658 29.8346 6.19581C29.5637 5.61397 29.0987 5.11095 28.4602 4.73418C23.6513 1.89688 15.5757 2.0875 9.3963 3.34339C8.07905 3.61099 6.84804 3.927 5.75318 4.27243C5.45372 4.3669 5.16435 4.46355 4.88633 4.56213C4.88591 4.5623 4.8854 4.56239 4.88482 4.56256C4.78253 4.59886 4.68168 4.63534 4.58259 4.67198C2.6514 5.38662 1.24624 6.46913 0.532272 7.66854C0.224077 8.18618 0.0448093 8.7255 0.00741005 9.26633V9.2665C-0.150429 11.5481 2.21781 13.8578 8.10729 14.6817Z" fill="url(#paint0_linear_28_14826)"/>
<path d="M20.5831 8.6534C20.6277 8.63869 23.1333 8.99235 25.1819 9.39031C26.9327 9.73044 28.557 10.237 28.7633 10.5285L20.5831 8.6534Z" fill="url(#paint1_linear_28_14826)"/>
<path d="M21.1147 12.6655C21.198 12.7253 19.4957 10.7036 17.8576 9.69415C17.8576 9.69415 19.7624 11.6941 21.1147 12.6655Z" fill="url(#paint2_linear_28_14826)"/>
<path d="M9.63562 10.4731C9.63562 10.4731 7.86941 11.2001 6.36079 11.8992C4.85217 12.5983 3.45391 13.4692 3.45391 13.4201C3.45391 13.371 5.44091 11.887 6.01738 11.6048C6.59385 11.3227 9.63562 10.4731 9.63562 10.4731Z" fill="url(#paint3_linear_28_14826)"/>
<path d="M5.71352 4.90047C11.0386 2.99483 21.3988 1.62035 26.9766 4.95401C30.6837 7.16961 27.7521 13.9695 12.8013 13.7901C-0.598877 13.6296 -0.57123 7.1497 5.71352 4.90047ZM12.9117 13.2879C27.1251 13.4544 29.9522 6.85428 26.3861 4.86643C21.1218 1.9319 11.1574 3.18956 6.09501 4.95956C0.120129 7.04851 0.172237 13.1388 12.9117 13.2879Z" fill="url(#paint4_linear_28_14826)"/>
<path d="M8.61279 11.9476C8.61279 11.9476 6.38609 12.7991 5.40881 14.1414C5.40881 14.1414 7.98237 12.4409 8.61279 11.9476Z" fill="url(#paint5_linear_28_14826)"/>
<path d="M8.06839 5.51151C12.0618 4.0824 19.8314 3.05159 24.0144 5.55169C26.7946 7.21327 24.5959 12.3127 13.3838 12.1783C3.33452 12.0578 3.3552 7.19831 8.06839 5.51151ZM13.4666 11.8016C24.1259 11.9265 26.2459 6.97676 23.5717 5.48596C19.6238 3.28523 12.1511 4.22839 8.35456 5.5558C3.87376 7.12241 3.91284 11.6897 13.4666 11.8016Z" fill="url(#paint6_linear_28_14826)"/>
<path d="M24.9155 13.0446C24.9155 13.0446 22.0864 10.7036 18.8293 9.3703C18.8293 9.3703 23.859 12.4523 24.9155 13.0446Z" fill="url(#paint7_linear_28_14826)"/>
<path d="M8.194 5.56063C8.30099 6.88099 8.48001 8.1747 8.57296 8.48029C8.59809 8.56265 8.65642 8.67023 8.74895 8.79344C9.27104 9.48908 10.8833 10.6861 13.7599 10.7086C14.1675 10.7118 14.6007 10.6914 15.0595 10.6426C19.3305 10.1888 21.7595 8.40036 21.9731 7.14581C22.0107 6.92553 22.0008 6.61641 21.957 6.25241C21.8922 5.71569 21.7531 5.05964 21.5816 4.39299C21.5735 4.36164 21.5652 4.33029 21.5571 4.29894C21.557 4.29877 21.557 4.29869 21.557 4.29869C21.4941 4.05815 21.4272 3.81694 21.3583 3.58001C21.3583 3.58001 21.3583 3.57985 21.3581 3.57959C21.0775 2.61526 20.7633 1.72362 20.5473 1.24851C20.5472 1.24834 20.5472 1.24826 20.5472 1.24792C20.5015 1.14782 20.4604 1.06613 20.425 1.00629L20.4196 0.997633C20.1197 0.524289 18.028 -0.370795 13.932 0.166256C9.56066 0.739278 8.65306 1.6737 8.25267 2.47003C8.05163 2.86983 8.08617 4.22885 8.194 5.56063Z" fill="url(#paint8_linear_28_14826)"/>
<path d="M13.3317 4.55951C13.3317 4.55951 13.7912 6.1968 13.8338 7.05852C13.8938 8.27155 13.9625 10.2901 13.9625 10.2901C13.9625 10.2901 13.3067 5.47527 13.3317 4.55951Z" fill="url(#paint9_linear_28_14826)"/>
<path d="M12.7357 5.57764C12.7357 5.57764 12.9283 7.09062 12.971 7.95234C13.031 9.16529 13.0706 10.7342 13.0706 10.7342C13.0706 10.7342 12.6267 7.98772 12.7357 5.57764Z" fill="url(#paint10_linear_28_14826)"/>
<path opacity="0.6" d="M8.19408 5.56071C8.30107 6.88107 8.48009 8.17478 8.57304 8.48037C8.59817 8.56273 8.6565 8.67031 8.74903 8.79352L14.2449 10.045L20.4393 8.36304L21.957 6.25249C21.8922 5.71577 21.7531 5.05972 21.5816 4.39307C21.6324 4.68075 21.6146 5.58214 19.7439 6.4705C17.4772 7.5467 13.5888 7.99744 11.4828 7.64966C9.37677 7.30205 8.46631 6.18996 8.19408 5.56113C8.19417 5.56088 8.19408 5.56088 8.19408 5.56071Z" fill="#891F0B"/>
<path d="M9.96096 1.31502C12.1389 0.465068 17.4148 -0.379 19.7266 0.836718C20.9645 1.48773 18.7898 4.21291 13.0501 4.20484C7.86486 4.19753 7.78317 2.16497 9.96096 1.31502ZM13.1599 4.0354C18.4104 4.0428 20.3995 1.54984 19.2672 0.954466C17.1524 -0.157708 12.3345 0.554409 10.3424 1.33191C8.35022 2.10933 8.4167 4.02868 13.1599 4.0354Z" fill="url(#paint11_linear_28_14826)"/>
<path d="M11.8876 1.54991C13.107 1.07404 16.0607 0.601536 17.355 1.28214C18.0481 1.64664 16.8306 3.17232 13.6171 3.16778C10.7141 3.16375 10.6684 2.02577 11.8876 1.54991ZM13.6952 3.04726C16.5605 3.0513 17.646 1.69085 17.0281 1.36593C15.874 0.758954 13.2447 1.14758 12.1576 1.57193C11.0705 1.99619 11.1068 3.04356 13.6952 3.04726Z" fill="url(#paint12_linear_28_14826)"/>
<path d="M8.17589 8.80528C8.35137 9.17877 9.57449 10.8586 13.71 10.9515H13.7109C14.4443 10.9679 15.2696 10.9344 16.1968 10.8348C20.519 10.3707 21.8463 8.80981 22.2129 7.70033C22.2129 7.70033 22.2129 7.70033 22.2129 7.70016C22.3683 7.22976 22.351 6.84046 22.3159 6.65052C22.2524 6.30686 22.1205 5.54877 21.9356 5.01415C21.8366 4.72773 21.7222 4.50534 21.5953 4.44525C21.5953 4.44525 22.4873 6.66632 15.7838 7.69882C9.06214 8.73401 8.22178 5.88142 8.22178 5.88142C8.22178 5.88142 8.06965 5.97421 8.02225 6.16675C8.02049 6.17348 8.01897 6.18037 8.01754 6.18735C7.97611 6.39401 7.96939 8.36547 8.17589 8.80528Z" fill="url(#paint13_linear_28_14826)"/>
<defs>
<linearGradient id="paint0_linear_28_14826" x1="11.9558" y1="2.51075" x2="21.8749" y2="21.6022" gradientUnits="userSpaceOnUse">
<stop offset="1e-08" stop-color="#DA915C"/>
<stop offset="0.3931" stop-color="#EEAD63"/>
<stop offset="0.7448" stop-color="#FBBF67"/>
<stop offset="1" stop-color="#FFC569"/>
</linearGradient>
<linearGradient id="paint1_linear_28_14826" x1="20.4659" y1="8.46369" x2="28.9073" y2="10.3948" gradientUnits="userSpaceOnUse">
<stop offset="1e-08" stop-color="#C9784B"/>
<stop offset="0.3693" stop-color="#DC914C"/>
<stop offset="0.7348" stop-color="#E9A34D"/>
<stop offset="1" stop-color="#EEA94D"/>
</linearGradient>
<linearGradient id="paint2_linear_28_14826" x1="18.7902" y1="9.96232" x2="21.3804" y2="14.4836" gradientUnits="userSpaceOnUse">
<stop offset="1e-08" stop-color="#C9784B"/>
<stop offset="0.3693" stop-color="#DC914C"/>
<stop offset="0.7348" stop-color="#E9A34D"/>
<stop offset="1" stop-color="#EEA94D"/>
</linearGradient>
<linearGradient id="paint3_linear_28_14826" x1="4.59601" y1="10.3081" x2="9.79642" y2="14.6816" gradientUnits="userSpaceOnUse">
<stop offset="1e-08" stop-color="#C9784B"/>
<stop offset="0.3693" stop-color="#DC914C"/>
<stop offset="0.7348" stop-color="#E9A34D"/>
<stop offset="1" stop-color="#EEA94D"/>
</linearGradient>
<linearGradient id="paint4_linear_28_14826" x1="14.0941" y1="3.29179" x2="17.5221" y2="21.1888" gradientUnits="userSpaceOnUse">
<stop offset="1e-08" stop-color="#C9784B"/>
<stop offset="0.3693" stop-color="#DC914C"/>
<stop offset="0.7348" stop-color="#E9A34D"/>
<stop offset="1" stop-color="#EEA94D"/>
</linearGradient>
<linearGradient id="paint5_linear_28_14826" x1="5.25971" y1="11.5923" x2="9.40411" y2="15.0294" gradientUnits="userSpaceOnUse">
<stop offset="1e-08" stop-color="#C9784B"/>
<stop offset="0.3693" stop-color="#DC914C"/>
<stop offset="0.7348" stop-color="#E9A34D"/>
<stop offset="1" stop-color="#EEA94D"/>
</linearGradient>
<linearGradient id="paint6_linear_28_14826" x1="14.157" y1="3.2797" x2="17.5849" y2="21.1767" gradientUnits="userSpaceOnUse">
<stop offset="1e-08" stop-color="#C9784B"/>
<stop offset="0.3693" stop-color="#DC914C"/>
<stop offset="0.7348" stop-color="#E9A34D"/>
<stop offset="1" stop-color="#EEA94D"/>
</linearGradient>
<linearGradient id="paint7_linear_28_14826" x1="19.4276" y1="9.01151" x2="25.1053" y2="14.111" gradientUnits="userSpaceOnUse">
<stop offset="1e-08" stop-color="#C9784B"/>
<stop offset="0.3693" stop-color="#DC914C"/>
<stop offset="0.7348" stop-color="#E9A34D"/>
<stop offset="1" stop-color="#EEA94D"/>
</linearGradient>
<linearGradient id="paint8_linear_28_14826" x1="5.17938" y1="3.66316" x2="25.2307" y2="7.0406" gradientUnits="userSpaceOnUse">
<stop offset="1e-08" stop-color="#DA915C"/>
<stop offset="0.3931" stop-color="#EEAD63"/>
<stop offset="0.7448" stop-color="#FBBF67"/>
<stop offset="1" stop-color="#FFC569"/>
</linearGradient>
<linearGradient id="paint9_linear_28_14826" x1="6.89046" y1="1.82134" x2="22.9053" y2="15.1028" gradientUnits="userSpaceOnUse">
<stop offset="1e-08" stop-color="#C9784B"/>
<stop offset="0.3693" stop-color="#DC914C"/>
<stop offset="0.7348" stop-color="#E9A34D"/>
<stop offset="1" stop-color="#EEA94D"/>
</linearGradient>
<linearGradient id="paint10_linear_28_14826" x1="12.9012" y1="8.98243" x2="12.812" y2="4.77376" gradientUnits="userSpaceOnUse">
<stop offset="1e-08" stop-color="#C9784B"/>
<stop offset="0.3693" stop-color="#DC914C"/>
<stop offset="0.7348" stop-color="#E9A34D"/>
<stop offset="1" stop-color="#EEA94D"/>
</linearGradient>
<linearGradient id="paint11_linear_28_14826" x1="14.5655" y1="3.20143" x2="17.9935" y2="21.0985" gradientUnits="userSpaceOnUse">
<stop offset="1e-08" stop-color="#C9784B"/>
<stop offset="0.3693" stop-color="#DC914C"/>
<stop offset="0.7348" stop-color="#E9A34D"/>
<stop offset="1" stop-color="#EEA94D"/>
</linearGradient>
<linearGradient id="paint12_linear_28_14826" x1="14.5791" y1="3.19889" x2="18.007" y2="21.0959" gradientUnits="userSpaceOnUse">
<stop offset="1e-08" stop-color="#C9784B"/>
<stop offset="0.3693" stop-color="#DC914C"/>
<stop offset="0.7348" stop-color="#E9A34D"/>
<stop offset="1" stop-color="#EEA94D"/>
</linearGradient>
<linearGradient id="paint13_linear_28_14826" x1="7.84937" y1="8.47389" x2="22.9168" y2="7.34463" gradientUnits="userSpaceOnUse">
<stop offset="0.0506" stop-color="#830E06"/>
<stop offset="0.8171" stop-color="#D62215"/>
<stop offset="1" stop-color="#DA291C"/>
</linearGradient>
</defs>
</svg>
