<svg width="27" height="51" viewBox="0 0 27 51" fill="none" xmlns="http://www.w3.org/2000/svg">
<circle cx="7.53195" cy="7.53195" r="7.53195" transform="matrix(-1 0 0 1 20.7246 8.93286)" fill="#0032A0"/>
<path d="M0.255953 48.5133C-1.02445 45.8018 2.53265 37.6671 10.1798 22.6033H16.5443C23.4138 36.803 28.6331 45.5005 25.9969 48.5133C23.3608 51.526 1.53636 51.2248 0.255953 48.5133Z" fill="#0032A0"/>
<path d="M4.12157 5.78689C4.90132 4.99976 5.78589 4.31779 6.70141 3.69702C9.11814 2.05843 11.7845 0.959698 14.642 0.383629C17.0304 -0.0978634 20.0483 -0.397734 22.1078 1.20452C23.1989 2.05342 23.9399 3.31416 23.8208 4.72701C23.6943 6.22698 22.8983 7.77498 21.8335 8.81922C21.8295 8.82312 21.8253 8.82589 21.8212 8.82904C21.8616 9.06014 21.8409 9.31419 21.8373 9.57095C21.8885 9.614 21.9354 9.66167 21.975 9.71644C22.3095 10.1787 22.2624 10.7823 22.1215 11.307C22.1202 11.3122 22.118 11.3165 22.1162 11.3212C22.1746 11.4971 22.1679 11.7032 22.1364 11.9236C22.3864 12.1464 22.6262 12.3816 22.863 12.6164C22.9998 12.752 23.2002 12.9276 23.353 13.127C23.3636 13.1288 23.3743 13.1317 23.3851 13.1365C23.8562 13.3478 24.1815 13.6956 24.1103 14.2364C24.0438 14.742 23.6795 15.007 23.2355 15.1993C21.7529 15.8414 19.8471 15.7518 18.2694 15.674C15.8462 15.5546 13.4622 15.1397 11.1862 14.3747C11.1709 14.3832 11.153 14.3888 11.1322 14.3901C9.15175 13.6164 8.6689 13.0902 7.7032 12.9404C6.06151 13.713 5.64445 14.0906 5.64367 13.4597C5.6435 13.3202 5.68124 13.1986 5.74334 13.0902C5.71881 12.9165 5.69195 12.743 5.66435 12.5696C5.65934 12.5683 5.65445 12.5675 5.64921 12.5655C4.6515 12.1849 3.67495 11.729 2.98776 10.8828C2.25887 9.98521 2.06818 8.85926 2.55695 7.80794C2.91 7.04861 3.53971 6.37431 4.12157 5.78689Z" fill="#2B3570"/>
<path d="M21.1553 9.55833C20.5147 9.40614 19.8131 9.38401 19.1567 9.36558C17.8101 9.32786 16.4581 9.41899 15.117 9.53333C12.6261 9.7458 10.2308 10.2481 7.85367 11.0289C7.94362 11.1575 8.0032 11.3143 8.02883 11.469C8.02984 11.4749 8.02973 11.4805 8.02996 11.4861C8.03107 11.4912 8.03261 11.4961 8.03318 11.5016C8.04993 11.6565 8.03603 11.8096 7.99451 11.9495C10.7449 11.0963 13.6063 10.6971 16.4746 10.5235C17.7835 10.4442 19.1289 10.391 20.4317 10.5742C20.8709 10.636 21.3025 10.723 21.7102 10.9021C21.7999 10.9416 21.8728 10.9883 21.9323 11.0411C22.0685 10.3631 21.9412 9.74507 21.1553 9.55833Z" fill="#2B3570"/>
<path d="M23.2974 13.5492C23.224 13.1738 22.7192 12.8157 22.4577 12.5603C22.1629 12.2726 21.8596 11.9756 21.5255 11.7327C21.3142 11.5792 20.954 11.5499 20.7053 11.5078C19.5977 11.3202 18.4417 11.3574 17.3247 11.4075C15.039 11.5099 12.7437 11.8236 10.503 12.3062C9.82336 12.4526 9.85272 12.4943 10.4002 12.728C12.5274 13.6363 14.7159 14.2078 17.0413 14.4333C18.2891 14.5544 19.5499 14.5977 20.8023 14.5304C21.3435 14.5013 21.8802 14.4372 22.4092 14.318C22.7712 14.2366 23.4008 14.0773 23.2974 13.5492Z" fill="#2B3570"/>
<path d="M16.882 15.3217C18.3295 15.4734 19.7986 15.5222 21.2489 15.381C22.0084 15.307 22.8693 15.1931 23.5249 14.7719C23.7445 14.6309 23.843 14.413 23.8756 14.1652C23.9145 13.8696 23.7643 13.6614 23.5523 13.5102C23.5743 13.5998 23.5783 13.6917 23.5553 13.7848C23.34 14.6549 21.907 14.6829 21.1906 14.7473C17.1579 15.1095 13.0585 14.2759 9.41832 12.5539C9.02307 12.6505 8.6291 12.7559 8.24019 12.8766C10.9596 14.2621 13.8431 15.0032 16.882 15.3217Z" fill="#F8E66A"/>
<path d="M6.06103 13.7807C6.17348 13.4674 6.59545 13.265 6.85783 13.1363C7.64261 12.7512 8.51397 12.5282 9.358 12.3176C11.725 11.7271 14.1716 11.3781 16.6035 11.2051C17.8161 11.1188 19.0443 11.0848 20.256 11.2046C20.7693 11.2554 21.3767 11.3017 21.7941 11.6331C21.8347 11.6653 21.8737 11.6998 21.9136 11.733C21.9334 11.4032 21.8199 11.2035 21.462 11.0611C21.285 10.9906 21.098 10.9456 20.9126 10.9035C20.4152 10.7907 19.9007 10.7539 19.3926 10.7271C18.172 10.6628 16.9433 10.7287 15.7257 10.818C13.0609 11.0133 10.4059 11.4341 7.85551 12.2477C7.85113 12.2492 7.84707 12.2496 7.84277 12.2505C7.70884 12.4246 7.50934 12.5432 7.24875 12.5596C7.18612 12.5635 7.12889 12.557 7.07634 12.5423C7.06954 12.5464 7.06244 12.5502 7.05441 12.5532C6.76675 12.6627 6.49826 12.7942 6.23573 12.9539C5.84995 13.1885 5.8436 13.5362 6.06103 13.7807Z" fill="#152065"/>
<path d="M7.79003 11.518C7.7468 11.2741 7.63215 11.0031 7.34991 10.9854C7.06867 10.9678 6.90546 11.2498 6.85394 11.4857C6.79275 11.7654 6.85998 12.2213 7.18 12.3096C7.37882 12.3646 7.59327 12.2088 7.6942 12.0541C7.79633 11.8975 7.80768 11.6987 7.79003 11.518Z" fill="#2B3570"/>
<path d="M5.79138 11.8263C5.84142 12.1652 5.90026 12.5028 5.95168 12.8415C6.19343 12.6305 6.53553 12.4899 6.82727 12.3789C6.65718 12.1816 6.59068 11.8626 6.59486 11.6237C6.60178 11.2321 6.82875 10.8185 7.2412 10.7493C7.41051 10.7209 7.5552 10.7617 7.67327 10.8442C7.68598 10.8317 7.70202 10.8213 7.72239 10.8145C9.1991 10.3261 10.7129 9.90979 12.2428 9.62634C13.4014 9.41168 14.5931 9.32574 15.7662 9.2364C17.2405 9.12413 18.7425 9.03826 20.2173 9.18461C20.6121 9.22379 21.1791 9.2286 21.5944 9.41982C21.6025 8.92228 21.6044 8.57686 21.0818 8.29807C20.4437 7.95769 19.6393 7.87338 18.9337 7.80024C16.8949 7.58887 14.7912 7.7461 12.7728 8.06452C10.8861 8.36218 8.9614 8.83644 7.22856 9.65543C6.70749 9.90164 6.07874 10.2134 5.76417 10.7198C5.57501 11.0245 5.74485 11.5106 5.79138 11.8263Z" fill="#152065"/>
<path d="M5.71155 10.359C5.55835 10.1997 5.47564 9.96953 5.44625 9.74475C5.34221 9.87639 5.25121 10.0172 5.187 10.1711C5.0446 10.5125 5.205 10.7723 5.4427 10.987C5.44555 10.9194 5.45295 10.8525 5.46947 10.7874C5.5095 10.6295 5.59766 10.4873 5.71155 10.359Z" fill="#D9D9D9"/>
<path d="M2.88208 10.2798C2.90391 10.3205 2.92604 10.3612 2.94946 10.4013C3.52261 11.3848 4.59865 11.8981 5.62048 12.2935C5.59009 12.1047 5.55977 11.916 5.53182 11.7268C5.51304 11.5993 5.48587 11.4659 5.46603 11.3316C5.15881 11.1056 4.88636 10.8325 4.88533 10.4295C4.88447 10.0954 5.10543 9.78915 5.31437 9.5418C4.95895 9.433 4.60029 9.28668 4.36957 8.98218C4.03709 8.54339 3.87649 7.96475 3.76174 7.42474C3.44576 7.78356 3.15788 8.16896 2.92176 8.58474C2.61391 9.12684 2.68384 9.71376 2.88208 10.2798Z" fill="#D9D9D9"/>
<path d="M2.52196 9.10236C2.60225 8.65768 2.82147 8.2416 3.14639 7.79866C3.85325 6.83489 4.77542 6.0277 5.70159 5.28169C7.61449 3.74092 9.74263 2.61363 12.0571 1.79714C14.4791 0.942786 17.1163 0.394137 19.6797 0.849921C20.6492 1.02235 21.5948 1.38734 22.3852 1.98013C22.5581 2.10983 22.745 2.2519 22.9229 2.40774C22.6786 2.05776 22.3802 1.74019 22.049 1.4661C19.7524 -0.43431 16.1373 0.251744 13.5042 0.880464C10.6649 1.55839 7.95347 2.96071 5.65813 4.75535C4.85872 5.38036 4.1123 6.08175 3.47343 6.87138C3.20595 7.20204 2.96825 7.55615 2.76799 7.93123C2.56441 8.31256 2.49456 8.70947 2.52196 9.10236Z" fill="#D9D9D9"/>
<path d="M4.14557 7.01152C4.85666 6.27632 5.64213 5.61327 6.45987 5.00024C8.44789 3.50998 10.6862 2.44731 13.0611 1.72472C15.4123 1.00923 18.1031 0.532493 20.5058 1.30454C21.3861 1.58744 22.0625 2.03373 22.7626 2.6211C23.9076 3.58177 23.4852 5.74172 22.883 6.94847C22.5874 7.54071 22.2076 8.08915 21.7389 8.56649C21.6813 8.44829 21.5948 8.33977 21.463 8.24542C20.911 7.85024 20.1724 7.71596 19.5146 7.62591C17.2726 7.31899 14.9346 7.46212 12.7084 7.82894C10.6486 8.16832 8.40047 8.64792 6.5793 9.72052C6.3443 9.85893 6.04516 10.0345 5.81297 10.2553C5.65157 10.0886 5.5868 9.81419 5.58134 9.58689C5.65421 9.50656 5.72995 9.42918 5.8058 9.3546C6.36507 8.80505 7.0118 8.40551 7.62883 7.93147C7.64195 7.92138 7.63507 7.89829 7.61687 7.90322C7.13573 8.03373 6.69017 8.33445 6.29731 8.63153C5.98704 8.86608 5.68483 9.13037 5.42286 9.42092C4.96765 9.28452 4.53647 9.09336 4.31954 8.63302C4.17531 8.32705 4.0652 8.01167 3.97853 7.68818C3.89035 7.35878 3.91578 7.24879 4.14557 7.01152ZM14.3429 5.29124C14.6709 5.41624 15.09 5.45182 15.3854 5.6447C15.6625 5.82562 15.8275 6.11529 16.0687 6.33521C16.4309 6.6655 16.8767 6.55727 17.283 6.3904C17.2853 6.38945 17.2871 6.38804 17.2893 6.38698C17.6397 6.59879 17.9857 6.81821 18.3249 7.04768C18.6313 7.25509 18.7108 7.26869 18.9034 7.0708C19.1276 6.84032 19.3474 6.60509 19.5664 6.36976C19.8377 6.51623 20.0543 6.47947 20.338 6.31439C20.4517 6.24821 20.5219 6.0999 20.5765 5.98883C20.7105 5.71606 20.8885 5.5787 21.1509 5.44044C21.7948 5.10144 22.1523 4.39454 21.8885 3.7216C21.7862 3.46068 21.5977 3.541 21.4827 3.6202C20.8257 4.07266 19.4527 2.82728 19.1218 3.94913C19.029 3.88633 18.9314 3.8301 18.8316 3.78618C18.442 3.6142 18.3505 3.71072 18.0877 3.81214C17.8972 3.8857 17.692 3.98158 17.5185 4.09592C17.5415 3.56498 17.178 3.09698 16.6068 3.00014C15.6598 2.83951 14.5639 3.90795 13.7373 3.17768C13.5478 3.01003 13.3767 3.06024 13.3139 3.32292C13.1059 4.19289 13.4343 4.94499 14.3429 5.29124Z" fill="#EEEEEE"/>
<path d="M13.5449 3.39349C13.4492 3.76457 13.4406 4.13291 13.6488 4.48643C13.8807 4.8803 14.3838 5.06593 14.7957 5.18671C15.2014 5.30574 15.5416 5.3942 15.8363 5.71285C15.9966 5.88617 16.1189 6.0725 16.3136 6.21343C16.5838 6.4089 16.8891 6.29041 17.1571 6.17969C17.1381 5.84278 17.1132 5.50615 17.104 5.16876C17.1031 5.13767 17.1017 5.10314 17.1 5.06724C16.8778 5.13479 16.6236 5.06671 16.4849 4.85779C16.3741 4.6911 16.3489 4.51922 16.3164 4.3243C16.2414 3.87345 15.931 3.82634 15.5548 3.90591C14.8631 4.05218 13.9525 4.02093 13.5449 3.39349Z" fill="#F8E66A"/>
<path d="M16.6963 3.262C16.2027 3.10677 15.621 3.41356 15.1611 3.56283C14.72 3.70593 14.2335 3.72348 13.8344 3.52765C14.3198 3.96866 15.1799 3.79469 15.7978 3.71645C15.9757 3.69394 16.2057 3.74226 16.3088 3.90535C16.4979 4.20462 16.494 5.19961 17.0946 4.9157C17.0909 4.74073 17.1 4.55198 17.1718 4.42852C17.1854 4.40523 17.2011 4.38234 17.2183 4.3598C17.3715 3.90293 17.1857 3.41588 16.6963 3.262Z" fill="#2B3570"/>
<path d="M19.3406 6.25324C19.3607 6.23171 19.3809 6.21029 19.401 6.18871C19.4169 5.89541 19.4368 5.59967 19.4355 5.30491C19.4008 5.29768 19.3658 5.29101 19.3305 5.2851C19.3381 5.6081 19.351 5.93018 19.3406 6.25324Z" fill="#2B3570"/>
<path d="M19.0549 6.55862C19.1004 6.51035 19.1455 6.46185 19.1908 6.41346C19.1905 6.40973 19.1891 6.40683 19.1893 6.4028C19.2118 6.02231 19.1921 5.64395 19.1835 5.26404C19.1233 5.25686 19.0625 5.25099 19.001 5.24689C19.0265 5.68331 19.0484 6.12142 19.0549 6.55862Z" fill="#2B3570"/>
<path d="M18.7379 6.88767C18.7968 6.82711 18.8557 6.76663 18.9141 6.70552C18.9127 6.69976 18.9104 6.69467 18.9104 6.68797C18.9069 6.20555 18.8819 5.72151 18.8537 5.23966C18.7821 5.2375 18.7101 5.23742 18.6377 5.23866C18.6971 5.78537 18.7299 6.33761 18.7379 6.88767Z" fill="#2B3570"/>
<path d="M18.2918 6.73304C18.3925 6.79989 18.4924 6.86778 18.5919 6.93637C18.5852 6.37176 18.5521 5.8046 18.4913 5.24329C18.4045 5.24719 18.3177 5.25313 18.2311 5.26084C18.2671 5.75102 18.2886 6.24152 18.2918 6.73304Z" fill="#2B3570"/>
<path d="M17.8273 6.43226C17.9335 6.49916 18.0392 6.56692 18.1443 6.63554C18.1391 6.18149 18.1189 5.7283 18.0859 5.27539C17.9788 5.28733 17.8726 5.30143 17.7683 5.31744C17.7883 5.6894 17.8247 6.05942 17.8273 6.43226Z" fill="#2B3570"/>
<path d="M17.4004 6.1686C17.4934 6.22472 17.5862 6.28125 17.6786 6.33854C17.6712 6.00521 17.6415 5.67376 17.6229 5.34088C17.5295 5.35674 17.438 5.37364 17.3492 5.39121C17.361 5.65155 17.3847 5.91196 17.4004 6.1686Z" fill="#2B3570"/>
<path d="M18.4844 3.93585C18.1954 4.01993 17.4113 4.31849 17.3692 4.64565C17.348 4.81033 17.3418 4.977 17.3428 5.14424C18.0019 5.01713 18.7596 4.93014 19.4288 5.05418C19.4215 4.9172 19.4079 4.78067 19.3849 4.6449C19.3291 4.31451 18.818 3.96657 18.4844 3.93585Z" fill="#F0CA26"/>
<path d="M20.9711 3.9613C20.4483 3.88168 19.5193 3.32767 19.3334 4.10928C19.3994 4.16422 19.4612 4.22027 19.5171 4.27466C19.634 4.38843 19.6401 4.63587 19.6556 4.80742C19.8993 4.85768 19.8342 4.22677 19.8975 4.1326C19.9597 4.04014 20.0411 3.96336 20.1641 3.98441C20.4132 4.02694 20.6139 4.16261 20.874 4.17125C21.1261 4.17961 21.402 4.08977 21.54 3.88651C21.3777 3.9789 21.1937 3.99517 20.9711 3.9613Z" fill="#2B3570"/>
<path d="M21.6909 3.91382C21.4997 4.26478 21.0258 4.36263 20.6235 4.29192C20.4628 4.26364 20.0432 3.95242 20.0026 4.32765C19.9861 4.47977 20.0128 4.59396 19.9559 4.74108C19.8998 4.88597 19.792 4.96012 19.6696 4.95471C19.7047 5.34493 19.6713 5.74569 19.6484 6.13636C20.2257 6.47035 20.4056 5.6211 20.7863 5.34921C21.0033 5.19432 21.2353 5.13571 21.4369 4.94499C21.7137 4.68332 21.786 4.26861 21.6909 3.91382Z" fill="#F8E66A"/>
<path d="M5.46947 10.7875C5.45295 10.8527 5.44555 10.9195 5.4427 10.9871C5.3797 10.9302 5.32244 10.8701 5.27447 10.8061C5.27581 10.7925 5.27684 10.7791 5.27921 10.7648C5.31879 10.5294 5.42628 10.331 5.57026 10.1579C5.60846 10.232 5.65514 10.3004 5.71155 10.3591C5.59763 10.4874 5.50948 10.6296 5.46947 10.7875Z" fill="#152065"/>
<path d="M22.8828 6.94844C22.5873 7.54067 22.2074 8.08912 21.7387 8.56646C21.6811 8.44826 21.5946 8.33974 21.4629 8.24539C20.9109 7.85021 20.1723 7.71593 19.5145 7.62588C17.2725 7.31896 14.9345 7.46209 12.7082 7.82891C10.6485 8.16829 8.4003 8.64789 6.57913 9.72048C6.34413 9.8589 6.04499 10.0344 5.81281 10.2553C5.75522 10.1959 5.7105 10.1224 5.6758 10.0425C5.84443 9.87091 6.04083 9.71724 6.2427 9.58942C8.89174 7.91188 14.225 7.18599 16.6785 7.22179C17.4678 7.23332 19.4356 7.32417 20.6897 7.60851C21.8532 7.87237 22.4693 8.23937 23.4047 5.3385C23.3008 5.93267 23.1041 6.50494 22.8828 6.94844Z" fill="#152065"/>
<path d="M2.80303 7.86962C3.13908 7.3422 3.57039 6.88316 4.01774 6.44878C5.02343 5.47225 6.1129 4.63277 7.31157 3.90608C11.2957 1.49056 17.556 -1.00662 21.7313 1.55985C21.0954 1.20955 20.3944 0.976958 19.6798 0.849875C17.1165 0.394091 14.4793 0.94274 12.0572 1.7971C9.74278 2.61359 7.61461 3.74085 5.70173 5.28164C4.77559 6.02765 3.85341 6.83485 3.14653 7.79861C2.82161 8.24158 2.60242 8.65763 2.5221 9.10231C2.4947 8.70942 2.56455 8.31254 2.76813 7.93119C2.77934 7.91039 2.79172 7.89037 2.80303 7.86962Z" fill="#D9D9D9"/>
<path d="M4.9266 11.7776C4.81004 11.4507 4.77403 11.0053 4.9202 10.6664C5.00274 10.9447 5.22324 11.153 5.46603 11.3316C5.48587 11.4659 5.51304 11.5994 5.53182 11.7268C5.55975 11.916 5.59007 12.1048 5.62048 12.2935C5.4306 12.22 5.23891 12.1424 5.04887 12.0586C5.00289 11.967 4.96084 11.8735 4.9266 11.7776Z" fill="#152065"/>
<path d="M6.06089 13.7807C5.98198 13.692 5.99482 13.5236 6.24597 13.3309C7.01982 12.7366 10.6362 11.6009 14.8322 11.1921C17.372 10.9447 20.8131 10.6007 21.8054 11.6427C21.8016 11.6395 21.7978 11.6362 21.7939 11.6331C21.3766 11.3018 20.7692 11.2554 20.2558 11.2046C19.0442 11.0848 17.816 11.1188 16.6033 11.2051C14.1715 11.3781 11.7249 11.727 9.35786 12.3176C8.51383 12.5282 7.64247 12.7511 6.85769 13.1362C6.59531 13.265 6.17335 13.4674 6.06089 13.7807Z" fill="#152065"/>
<path d="M6.35786 12.0287C6.42411 11.7873 6.3816 11.5106 6.43909 11.2611C6.54467 10.8025 6.88304 10.5183 7.35569 10.5244C7.55338 10.5269 7.73223 10.5784 7.93199 10.5459C8.0976 10.5189 8.25802 10.4658 8.41688 10.4134C8.79015 10.2905 9.16699 10.1774 9.54432 10.0673C10.2585 9.85911 10.9864 9.70785 11.7176 9.57329C13.8342 9.18368 15.9798 8.9728 18.1322 8.98493C18.9244 8.98941 19.7214 9.02087 20.5051 9.14291C20.7337 9.17852 21.0254 9.22029 21.2848 9.31494C20.9252 9.2254 20.521 9.21478 20.2178 9.18469C18.743 9.03831 17.241 9.1242 15.7668 9.23648C14.5936 9.32584 13.4019 9.41176 12.2434 9.62642C10.7134 9.90987 9.1996 10.3262 7.72292 10.8146C7.70252 10.8213 7.68651 10.8318 7.67379 10.8443C7.55572 10.7617 7.41101 10.7209 7.24173 10.7493C6.82928 10.8185 6.60231 11.2322 6.59538 11.6237C6.5912 11.8627 6.65773 12.1816 6.82779 12.379C6.53603 12.49 6.19393 12.6306 5.9522 12.8416C5.93211 12.7091 5.91051 12.5768 5.8891 12.4445C6.10389 12.3736 6.29078 12.2731 6.35786 12.0287Z" fill="#152065"/>
<path d="M23.525 14.772C22.8694 15.1932 22.0085 15.3071 21.249 15.3811C19.7987 15.5222 18.3296 15.4735 16.8821 15.3218C13.8432 15.0033 10.9596 14.2622 8.24023 12.8767C8.43729 12.8155 8.63566 12.7584 8.83483 12.7042C9.52469 13.1891 10.3625 13.5938 11.2439 13.9274C12.6677 14.4661 14.4229 14.8253 16.1288 15.0418C18.3041 15.3178 22.4683 15.6616 23.7499 14.5416C23.6953 14.6306 23.6227 14.7092 23.525 14.772Z" fill="#F0CA26"/>
<path d="M6.45968 5.00024C8.44769 3.50998 10.686 2.44731 13.0609 1.72472C15.4121 1.00923 18.1029 0.532493 20.5056 1.30454C21.3859 1.58744 22.0623 2.03373 22.7624 2.6211C23.1854 2.97591 23.394 3.49457 23.4591 4.06817C22.923 2.40775 21.4698 1.83705 20.2971 1.48158C18.0664 0.80547 15.238 1.36006 13.0465 2.00364C10.6271 2.71412 8.87543 3.5678 3.99863 7.75831C3.99206 7.73489 3.98468 7.71173 3.97839 7.68818C3.89015 7.35875 3.91558 7.24877 4.14538 7.01149C4.85646 6.27631 5.64193 5.61327 6.45968 5.00024Z" fill="#A0A0A0"/>
<path d="M5.7646 10.72C6.07918 10.2135 6.70792 9.90176 7.229 9.65555C8.96181 8.83659 10.8865 8.36232 12.7732 8.06465C14.7917 7.74622 16.8953 7.589 18.9341 7.80036C19.6397 7.87351 20.4441 7.95783 21.0822 8.29819C21.2882 8.40813 21.4119 8.52861 21.4867 8.66446C20.5776 8.16383 19.4939 8.041 18.4661 7.99769C17.0303 7.93716 15.5852 8.01136 14.1595 8.18417C12.6178 8.37104 10.9237 8.56135 9.42946 8.9845C8.72419 9.1842 5.81287 10.2554 5.70024 11.3433C5.66534 11.1198 5.65824 10.8912 5.7646 10.72Z" fill="#2B3570"/>
<path d="M3.18956 10.7519C3.10231 10.642 3.02186 10.5255 2.94952 10.4013C2.9261 10.3613 2.90397 10.3206 2.88214 10.2799C2.6839 9.71383 2.61397 9.12691 2.92182 8.58486C3.15793 8.16906 3.44584 7.78368 3.7618 7.42487C3.79504 7.58138 3.83301 7.74098 3.87708 7.89963C3.82304 7.96233 3.76759 8.02402 3.71507 8.0877C3.07945 8.85726 2.71202 9.73491 3.18956 10.7519Z" fill="#A0A0A0"/>
<path d="M9.73933 12.7029C13.2986 14.3235 17.2758 15.099 21.1905 14.7473C21.8082 14.6918 22.9581 14.6628 23.4014 14.0982C23.1912 14.4448 22.7001 14.6624 22.2823 14.7683C21.8225 14.8848 21.3486 14.9177 20.8767 14.9412C20.097 14.9802 14.464 15.3968 9.73933 12.7029Z" fill="#A0A0A0"/>
<path d="M6.85394 11.4857C6.86542 11.4331 6.88279 11.3782 6.90546 11.3248C6.79416 12.352 7.72069 12.3773 7.7719 11.4326C7.77895 11.4612 7.78502 11.4897 7.79003 11.518C7.80768 11.6987 7.79633 11.8975 7.6942 12.054C7.59327 12.2088 7.37884 12.3645 7.18 12.3096C6.85998 12.2213 6.79275 11.7654 6.85394 11.4857Z" fill="#2B3570"/>
<path d="M10.5031 12.3062C11.2066 12.1547 11.9161 12.0219 12.6284 11.905C10.7165 12.3209 11.0489 12.9697 14.6432 13.7807C16.1726 14.1258 18.1734 14.3127 19.743 14.3051C21.542 14.2964 23.6045 14.1913 22.8719 12.9359C23.0708 13.1239 23.2553 13.3336 23.2974 13.5492C23.4007 14.0773 22.7712 14.2366 22.4093 14.3181C21.8802 14.4372 21.3436 14.5013 20.8023 14.5304C19.55 14.5978 18.2892 14.5544 17.0414 14.4334C14.7159 14.2078 12.5275 13.6363 10.4002 12.728C9.85275 12.4944 9.82339 12.4526 10.5031 12.3062Z" fill="#2B3570"/>
<path d="M17.768 5.31748C17.8034 5.31204 17.84 5.30818 17.8759 5.30322C17.9285 5.57673 17.9413 5.86653 17.9569 6.12948C17.9645 6.25808 17.9752 6.39392 17.9835 6.53266C17.9313 6.49925 17.8794 6.46538 17.827 6.4323C17.8243 6.05943 17.7879 5.68941 17.768 5.31748Z" fill="#2B3570"/>
<path d="M18.6381 5.23866C18.6737 5.23805 18.7089 5.23904 18.7444 5.23919C18.7532 5.29159 18.7589 5.34535 18.7653 5.39918C18.7959 5.65728 18.8078 5.91587 18.8141 6.17553C18.819 6.38337 18.8233 6.5909 18.8245 6.79859C18.7957 6.82825 18.7671 6.85801 18.7383 6.88765C18.7303 6.33761 18.6975 5.78537 18.6381 5.23866Z" fill="#2B3570"/>
<path d="M17.3494 5.39134C17.3755 5.38618 17.4032 5.3816 17.4297 5.37659C17.4678 5.59399 17.4783 5.81291 17.4888 6.04967C17.4914 6.10852 17.494 6.16775 17.4963 6.22714C17.4644 6.20776 17.4327 6.18799 17.4007 6.16873C17.385 5.91209 17.3612 5.65168 17.3494 5.39134Z" fill="#2B3570"/>
<path d="M18.2313 5.26087C18.2603 5.25825 18.2895 5.25717 18.3186 5.255C18.3283 5.34094 18.3328 5.42809 18.3425 5.51166C18.371 5.75687 18.3924 6.00345 18.4081 6.24982C18.4202 6.43915 18.432 6.63396 18.4335 6.82893C18.3863 6.797 18.3394 6.76455 18.292 6.73305C18.2887 6.24156 18.2673 5.75105 18.2313 5.26087Z" fill="#2B3570"/>
<path d="M8.03738 11.6836C8.32959 11.6303 8.63201 11.5129 8.91103 11.4383C9.30177 11.3339 9.69244 11.2294 10.084 11.1284C10.8355 10.9345 11.5916 10.758 12.3565 10.6257C13.9 10.3586 15.4885 10.2373 17.0522 10.1691C18.0463 10.1257 19.0519 10.116 20.0456 10.1891C20.665 10.2347 21.4706 10.2866 21.9762 10.7008C21.9703 10.8113 21.9555 10.9251 21.9322 11.041C21.8727 10.9882 21.7998 10.9415 21.71 10.902C21.3024 10.7229 20.8707 10.6359 20.4316 10.5741C19.1288 10.3909 17.7833 10.4441 16.4745 10.5234C13.6062 10.697 10.7448 11.0962 7.9944 11.9494C8.01947 11.8649 8.03315 11.7753 8.03738 11.6836Z" fill="#2B3570"/>
<path d="M20.164 3.98448C20.0409 3.96343 19.9596 4.0402 19.8974 4.13266C19.834 4.22684 19.8991 4.85775 19.6555 4.80749C19.6445 4.68567 19.6375 4.52631 19.5929 4.403C19.6318 4.31454 19.6465 4.20138 19.6709 4.12219C19.7039 4.01503 19.7756 3.8749 19.8961 3.84604C20.0386 3.81192 20.1747 3.8644 20.3055 3.91974C20.4746 3.99136 20.6442 4.05645 20.8213 4.10557C20.9063 4.12914 20.9929 4.14115 21.0789 4.15596C21.0108 4.16817 20.9416 4.17361 20.8738 4.17134C20.6138 4.16268 20.413 4.02701 20.164 3.98448Z" fill="#2B3570"/>
<path d="M16.3088 3.9054C16.2057 3.7423 15.9757 3.69399 15.7978 3.7165C15.3685 3.77083 14.8225 3.87093 14.3661 3.7793C14.4632 3.77615 14.5599 3.77129 14.6551 3.76303C15.0591 3.72803 15.4355 3.58798 15.8341 3.53663C16.1387 3.49733 16.4054 3.54807 16.6015 3.79783C16.7636 4.00433 16.8919 4.41003 17.1428 4.49207C17.098 4.6117 17.0915 4.76837 17.0946 4.91574C16.494 5.19965 16.4979 4.20466 16.3088 3.9054Z" fill="#2B3570"/>
<path d="M19.0008 5.24695C19.0281 5.24876 19.0548 5.25211 19.0819 5.25458C19.1334 5.5556 19.0957 5.90092 19.1007 6.18951C19.1024 6.29396 19.1044 6.39966 19.1044 6.5056C19.0878 6.5233 19.0713 6.54102 19.0547 6.55865C19.0482 6.12145 19.0263 5.68334 19.0008 5.24695Z" fill="#2B3570"/>
<path d="M19.3404 6.25324C19.3508 5.93018 19.3379 5.6081 19.3303 5.2851C19.3423 5.28711 19.3541 5.2897 19.366 5.29184C19.4028 5.50333 19.3833 5.72655 19.3852 5.93983C19.3858 6.02211 19.3902 6.10957 19.3921 6.19802C19.3749 6.2165 19.3575 6.23484 19.3404 6.25324Z" fill="#2B3570"/>
<path d="M19.1568 13.6672C18.3909 13.6183 17.6252 13.5852 16.8629 13.4916C16.2444 13.4158 15.6291 13.2925 15.0182 13.1701C14.5487 13.076 14.0019 12.979 13.5837 12.7289C13.3442 12.5857 13.4961 12.408 13.6944 12.3406C13.9327 12.2596 14.1964 12.2376 14.4447 12.2064C14.8387 12.1568 15.2337 12.114 15.6288 12.0733C16.9752 11.9345 18.332 11.8368 19.6865 11.8622C20.8682 11.8843 21.0314 11.7926 21.7349 12.5255C21.8781 12.6747 22.023 12.8297 22.1002 13.0244C22.2844 13.4884 21.4841 13.6016 21.2143 13.6469C20.5347 13.761 19.8403 13.7109 19.1568 13.6672Z" fill="#2B3570"/>
<path d="M19.1567 9.36558C19.8131 9.38401 20.5147 9.40614 21.1553 9.55833C21.4386 9.62561 21.6353 9.74965 21.7659 9.91166C19.2396 8.99022 12.0363 9.80817 8.18005 10.9241C10.4502 10.2034 12.7401 9.73608 15.1171 9.53333C16.4581 9.41899 17.8101 9.32786 19.1567 9.36558Z" fill="#2B3570"/>
<path d="M19.9718 5.88845C20.1839 5.84602 20.1826 5.49655 20.2075 5.33552C20.2294 5.19363 20.2906 5.08017 20.3871 4.97618C20.5702 4.77867 20.8879 4.7689 21.1339 4.72846C21.3742 4.68903 21.571 4.59599 21.6713 4.35783C21.701 4.28718 21.7132 4.21194 21.7264 4.13721C21.7464 4.43189 21.6575 4.73677 21.4373 4.94496C21.2357 5.13565 21.0037 5.19426 20.7867 5.34917C20.406 5.62107 20.226 6.47029 19.6488 6.13632C19.6551 6.02838 19.6622 5.91968 19.6684 5.81057C19.7704 5.87183 19.8751 5.90777 19.9718 5.88845Z" fill="#F0CA26"/>
<path d="M13.6488 4.48647C13.4556 4.1584 13.4503 3.81751 13.5267 3.47357C13.548 3.62329 13.5487 3.77828 13.5792 3.92591C13.63 4.17154 13.7977 4.39131 13.9969 4.53607C14.3955 4.82607 14.8673 4.71465 15.3204 4.74736C15.718 4.77599 15.9608 5.06893 16.1718 5.3727C16.3029 5.56132 16.4631 5.79646 16.7132 5.81411C16.867 5.82501 17.0039 5.74285 17.1251 5.64001C17.1353 5.81995 17.147 5.99976 17.1571 6.1797C16.8891 6.29039 16.5838 6.40891 16.3136 6.21344C16.1189 6.07251 15.9966 5.88617 15.8363 5.71286C15.5416 5.39423 15.2014 5.30575 14.7957 5.18672C14.3838 5.06596 13.8807 4.88033 13.6488 4.48647Z" fill="#F0CA26"/>
<path d="M17.3428 5.14432C17.3423 5.06828 17.3437 4.99251 17.3469 4.91685C17.6953 4.729 18.1172 4.68428 18.5049 4.69086C18.8003 4.69592 19.1303 4.72248 19.4117 4.84125C19.4192 4.91211 19.425 4.98315 19.4288 5.05425C18.7596 4.93022 18.0019 5.01721 17.3428 5.14432Z" fill="#F8E66A"/>
<path d="M7.04216 5.19234C6.07263 5.89053 5.16061 6.67088 4.27775 7.47521C4.25977 7.4916 4.23567 7.46692 4.25131 7.44874C5.02328 6.54921 5.94452 5.80328 6.90227 5.11C8.07822 4.25858 9.3581 3.43794 10.7144 2.90762C10.7239 2.90395 10.7295 2.91873 10.7212 2.92371C9.47901 3.66388 8.21848 4.34528 7.04216 5.19234Z" fill="#2B3570"/>
<path d="M14.9532 13.8811C14.2219 13.7284 13.4821 13.5553 12.7942 13.2596C12.777 13.2522 12.7899 13.2277 12.8063 13.231C13.5118 13.372 14.2006 13.5848 14.9035 13.7393C15.5667 13.8851 16.2377 13.9926 16.9096 14.0875C16.9168 14.0884 16.9146 14.0992 16.908 14.0995C16.2518 14.1298 15.594 14.0147 14.9532 13.8811Z" fill="#2B3570"/>
<path d="M12.4687 13.1654C12.4055 13.14 12.3729 13.1119 12.3366 13.056C12.3308 13.0473 12.3402 13.0391 12.3486 13.0403C12.3777 13.0446 12.4049 13.0436 12.4331 13.0527C12.4642 13.0628 12.4936 13.0777 12.5233 13.0912C12.5769 13.1157 12.6206 13.1497 12.6611 13.1915C12.6655 13.1962 12.6627 13.206 12.6554 13.2052C12.5906 13.1985 12.5298 13.1899 12.4687 13.1654Z" fill="#2B3570"/>
</svg>
