<svg width="27" height="49" viewBox="0 0 27 49" fill="none" xmlns="http://www.w3.org/2000/svg">
<circle cx="7.53195" cy="7.53195" r="7.53195" transform="matrix(-1 0 0 1 20.7249 6.61023)" fill="white"/>
<path d="M0.255953 46.1906C-1.02445 43.4791 2.53265 35.3444 10.1798 20.2807H16.5443C23.4138 34.4804 28.6331 43.1778 25.9969 46.1906C23.3608 49.2034 1.53636 48.9021 0.255953 46.1906Z" fill="white"/>
<path d="M4.40093 8.79514C4.37067 8.68963 4.34968 8.57775 4.34188 8.4573C4.30607 7.90378 4.47004 7.32815 4.59117 6.79409C4.71221 6.26041 4.79157 5.7253 5.00367 5.21678C5.08047 5.03261 5.1795 4.86599 5.29504 4.71515C5.29694 3.71639 5.89615 2.8101 6.8171 2.40029C6.86292 2.37988 6.90981 2.36194 6.95662 2.34408C7.29425 1.92032 7.73751 1.58103 8.23335 1.33368C8.23584 1.33005 8.23766 1.32631 8.24057 1.32281C9.54005 -0.266224 11.6503 -0.160023 13.5186 0.468356C13.5328 0.46366 13.5483 0.460526 13.5661 0.46076C15.4851 0.489793 17.4162 1.51586 18.7297 2.87764C20.0421 4.2381 20.6033 6.07421 20.7308 7.92337C20.7424 7.96177 20.7534 8.00035 20.7646 8.03889C21.5435 8.36813 22.2388 8.86941 22.8785 9.41703C23.4372 9.89524 23.9313 10.4474 23.7639 11.2259C23.611 11.9375 22.8556 12.4611 22.2979 12.844C21.3813 13.4734 20.376 13.9785 19.3689 14.4445C18.4926 14.8499 17.6981 15.1471 16.7198 15.1251C15.6747 15.1016 14.6184 14.7687 13.6206 14.4878C11.3743 13.8556 9.14363 13.0356 6.9676 12.1931C6.65955 12.3346 6.42002 12.2577 6.09153 12.1297C5.80372 12.0175 5.3991 11.9229 5.29838 11.5974C5.28346 11.5493 5.27875 11.4932 5.2782 11.4342C4.61654 11.1146 3.83551 10.8602 3.54519 10.1325C3.28934 9.49127 3.85885 8.98296 4.40093 8.79514Z" fill="#68182B"/>
<path d="M5.6004 4.38928C6.04673 3.99251 6.63715 3.75944 7.24885 3.68421C8.64538 3.51237 9.92733 4.08726 11.0486 4.86789C11.9768 5.51419 12.616 6.38957 13.108 7.40051C13.3607 7.91945 14.1361 7.75976 14.5311 7.53307C15.1877 7.15638 14.2648 6.05844 13.9863 5.63591C12.6732 3.64453 10.0288 2.11826 7.59007 2.46977C6.56409 2.61774 5.75081 3.39379 5.6004 4.38928Z" fill="#FAC135"/>
<path d="M7.45363 2.2035C8.27068 2.04243 9.17248 2.17967 9.93964 2.41302C10.9487 2.71998 11.9053 3.17822 12.7341 3.83358C13.7426 4.63109 14.4524 5.74462 15.0137 6.88447C15.3513 7.56957 14.4344 7.94977 13.9168 8.01269C13.5822 8.05333 13.242 7.9569 12.9966 7.72677C12.8054 7.54744 12.7172 7.23337 12.5948 7.0085C12.3953 6.64185 12.1547 6.29834 11.886 5.97943C10.388 4.20206 6.17843 2.57982 5.14796 5.6229C4.89612 6.36636 4.7378 7.22832 4.64131 8.00528C4.57002 8.57919 4.65162 9.04092 5.13733 9.38804C5.45029 9.61162 5.80847 9.79787 6.16993 9.94104C6.18444 9.59003 6.17596 9.1929 6.32563 8.89015C6.46675 8.60492 6.8686 8.73025 7.0887 8.80716C7.40446 8.91758 7.91357 8.99698 8.09752 9.31104C8.17149 9.43731 8.14692 9.61587 8.13585 9.75259C8.10939 10.082 8.07555 10.4109 8.04567 10.7401C9.45969 11.3406 11.0168 11.6641 12.5556 11.5784C13.8601 11.5057 15.1068 11.0217 16.4239 11.2593C16.5145 11.2756 16.6021 11.2969 16.6887 11.3194C17.1782 11.4468 17.3081 11.4087 17.2946 10.8813C17.266 9.76376 17.1891 8.64658 17.0317 7.54004C16.8332 6.14538 16.4558 4.99924 15.5409 3.90636C14.5002 2.66303 13.0798 1.8405 11.5501 1.34891C9.54987 0.706001 8.0011 1.66714 7.45363 2.2035Z" fill="#FAC135"/>
<path d="M18.5363 3.07435C17.504 1.96046 15.9789 1.08857 14.4372 0.823257C14.8996 1.02614 15.3332 1.25146 15.7183 1.47811C17.7474 2.67247 19.3279 4.49944 20.2671 6.65152C20.2806 6.68249 20.2929 6.714 20.3061 6.74507C20.0519 5.38564 19.5046 4.11918 18.5363 3.07435Z" fill="#FAC135"/>
<path d="M22.6852 9.61369C22.2677 9.24247 21.8068 8.90106 21.3156 8.62073C20.8776 8.37082 20.8796 8.41771 20.9829 8.88429C21.0134 9.02248 21.0418 9.16125 21.0679 9.30039C21.149 9.73323 21.0877 9.98806 20.7364 10.2688C20.1964 10.7004 19.5252 11.0067 18.8917 11.2725C18.4135 11.4731 17.9378 11.702 17.4144 11.7362C17.1065 11.7563 16.8025 11.6543 16.5135 11.5659C16.0895 11.4362 15.6278 11.451 15.191 11.4802C14.475 11.5281 13.7745 11.7089 13.0643 11.801C12.3029 11.8996 11.5349 11.8807 10.7745 11.7754C9.93825 11.6597 9.13217 11.4532 8.34828 11.1571C7.91146 10.9922 7.66863 10.882 7.33141 11.1767C7.29875 11.2052 7.26863 11.2374 7.24168 11.2739C7.06161 11.5177 7.36315 11.6612 7.64925 11.7642C8.92095 12.222 10.1987 12.6627 11.4813 13.0891C12.8291 13.5371 14.1882 14.0342 15.5949 14.2582C16.4413 14.393 17.342 14.4084 18.1736 14.1833C18.9358 13.9768 19.6305 13.515 20.3359 13.1711C21.0123 12.8413 21.6441 12.4243 22.2575 11.9906C23.5374 11.0856 23.6789 10.497 22.6852 9.61369Z" fill="#FAC135"/>
<path d="M7.10584 11.9492C8.88053 12.6341 10.6906 13.2692 12.4996 13.8561C14.2315 14.418 16.3402 15.2169 18.1572 14.6659C19.0874 14.3838 20.0086 13.8527 20.8592 13.3901C21.6121 12.9807 22.38 12.5311 22.998 11.9312C23.2948 11.6431 23.5267 11.2804 23.5269 10.8674C23.262 11.6768 22.0354 12.3602 21.493 12.7067C20.7907 13.1554 20.0313 13.5084 19.2923 13.8915C18.5287 14.2874 17.7677 14.4934 16.9071 14.5178C15.2479 14.5647 13.6414 13.9711 12.0873 13.4641C10.4161 12.9189 8.75418 12.3442 7.10227 11.7429C7.09974 11.8124 7.10158 11.8818 7.10584 11.9492Z" fill="#FBF199"/>
<path d="M5.9911 11.7893C6.25156 11.903 6.54865 12.0607 6.82869 11.9533C6.80941 11.6469 6.84521 11.3139 7.04991 11.0699C7.23555 10.8486 7.49519 10.7526 7.77064 10.7113C7.79933 10.392 7.82963 10.0728 7.85839 9.75344C7.87061 9.61813 7.90748 9.45609 7.77637 9.36146C7.65797 9.27596 7.46821 9.23855 7.33173 9.18905C7.15982 9.12679 6.62276 8.84039 6.53632 9.10262C6.43345 9.41482 6.46546 9.81308 6.43527 10.1387C6.4349 10.1426 6.43373 10.1459 6.43318 10.1495C6.4351 10.193 6.4175 10.2344 6.37573 10.2574C6.35554 10.2735 6.33012 10.2826 6.30035 10.2809C5.78267 10.3965 5.68417 10.8553 5.58768 11.3171C5.58472 11.3312 5.58312 11.3442 5.58128 11.3572C5.58079 11.3636 5.57999 11.37 5.57857 11.3764C5.55224 11.6417 5.77079 11.693 5.9911 11.7893Z" fill="#FF801D"/>
<path d="M5.47777 10.6476C5.57737 10.4236 5.71747 10.2517 5.90516 10.1382C5.32316 9.90128 4.76909 9.57838 4.50378 9.05127C4.49895 9.05345 4.17519 9.19803 4.06145 9.29985C3.63138 9.68491 3.76358 9.85052 4.22996 10.2005C4.57876 10.4622 5.05787 10.6191 5.41882 10.7937C5.43899 10.7401 5.4591 10.6896 5.47777 10.6476Z" fill="#FAC135"/>
<path d="M4.04151 10.4281C4.34267 10.7627 4.87972 10.9532 5.31352 11.1462C5.32791 11.0803 5.3453 11.0151 5.36491 10.9518C4.85747 10.6985 4.15449 10.4917 3.80932 10.0104C3.84132 10.1475 3.91614 10.2888 4.04151 10.4281Z" fill="#FBF199"/>
<path d="M12.481 0.457409C13.8913 0.733037 15.255 1.41985 16.4123 2.26562C17.5223 3.07692 18.4699 4.08351 19.2034 5.23169C19.6435 5.92059 20.4708 7.39232 20.8003 9.37506C20.8763 9.83266 20.6264 10.0323 20.2599 10.2598C19.5984 10.6704 18.8923 10.9904 18.1658 11.2679C17.9772 11.3399 17.7841 11.4187 17.5827 11.4473C17.5652 9.91556 17.4863 8.36108 17.1981 6.85444C16.9216 5.4084 16.3337 4.23239 15.26 3.19881C14.0528 2.03684 12.3276 1.02194 10.6278 0.869478C10.065 0.818951 9.46996 0.888059 8.90649 1.06378C9.88911 0.292737 11.2589 0.21852 12.481 0.457409ZM18.2797 9.7223C18.5927 10.2822 19.2831 10.5046 19.8286 10.1266C20.5388 9.63457 20.3108 8.50389 19.9759 7.86652C19.7008 7.39985 18.9653 6.53193 18.3918 7.1622C17.8274 7.78254 17.8919 9.02864 18.2797 9.7223Z" fill="#FAC135"/>
<path d="M18.4686 7.51867C18.1162 8.08578 18.2578 9.00996 18.5187 9.5815C18.6519 9.87358 18.9397 10.0362 19.2314 10.0359C18.8447 9.70751 18.7138 9.08483 18.6663 8.61569C18.6243 8.20025 18.6011 7.58542 18.9013 7.24528C18.7508 7.23211 18.6012 7.30522 18.4686 7.51867Z" fill="#FF801D"/>
<path d="M19.7365 8.00738C19.6719 7.89781 19.5842 7.76667 19.4822 7.64423C19.168 7.26673 18.8893 7.34316 18.8267 7.86248C18.795 8.12447 18.8192 8.40978 18.8327 8.61524C18.8526 8.91873 18.9277 9.30122 19.0971 9.60229C19.3369 10.0281 19.7056 10.0721 19.9303 9.58049C20.1471 9.10592 19.9497 8.41288 19.7365 8.00738Z" fill="#FF801D"/>
<path d="M4.58617 10.0917C4.89411 10.2569 5.20705 10.4125 5.52216 10.5636C5.50748 10.5915 5.49161 10.6179 5.47837 10.6476C5.45973 10.6896 5.4396 10.7401 5.41943 10.7937C5.05847 10.6191 4.57936 10.4622 4.23057 10.2005C3.85278 9.917 3.69445 9.75446 3.87646 9.49826C3.91965 9.8054 4.34023 9.95978 4.58617 10.0917Z" fill="#EE9E2B"/>
<path d="M13.9863 5.63592C14.2648 6.05845 15.1877 7.15639 14.5311 7.53308C14.1361 7.75974 13.3607 7.91945 13.108 7.40052C13.1063 7.39703 13.1046 7.39371 13.1029 7.39022C13.1902 7.44477 13.2834 7.48969 13.3897 7.51348C13.6221 7.56555 13.9033 7.52228 14.1154 7.4195C14.6816 7.14537 14.2667 6.46027 14.05 6.08913C13.5093 5.16297 12.742 4.37465 11.8881 3.73219C10.3883 2.60382 8.39642 2.33376 6.61036 2.84038C6.89826 2.6519 7.23062 2.52157 7.59007 2.46978C10.0288 2.11824 12.6732 3.64454 13.9863 5.63592Z" fill="#EE9E2B"/>
<path d="M4.87787 7.25727C4.83902 7.63754 4.81584 8.02415 4.89822 8.40027C4.98404 8.7921 5.26031 9.05303 5.58662 9.25986C5.6877 9.32394 5.79348 9.38014 5.90061 9.43393C5.92625 9.25026 5.98906 9.06001 6.03598 8.92226C6.13388 8.6349 6.39134 8.55941 6.66986 8.59119C7.00673 8.62968 7.36642 8.79252 7.68164 8.91716C7.8472 8.98253 8.05068 9.10029 8.07776 9.28186C7.87986 8.99257 7.39432 8.91411 7.08884 8.8073C6.86874 8.73036 6.46689 8.60503 6.32577 8.89028C6.1761 9.19303 6.1846 9.59017 6.17007 9.94117C5.80861 9.798 5.45043 9.61175 5.13747 9.38818C4.65176 9.04103 4.57014 8.5793 4.64145 8.00542C4.71446 7.41781 4.823 6.78175 4.98037 6.18494C4.94836 6.54279 4.91423 6.90046 4.87787 7.25727Z" fill="#EE9E2B"/>
<path d="M11.4808 13.0891C10.1982 12.6628 8.92048 12.222 7.64878 11.7642C7.37765 11.6666 7.09331 11.5324 7.21767 11.3111C8.56481 11.8569 9.95085 12.3063 11.3353 12.7467C12.7407 13.1937 14.1641 13.6126 15.6179 13.8706C16.3209 13.9953 17.041 14.0857 17.7514 13.9715C18.4242 13.8633 19.0388 13.5498 19.6249 13.2168C20.1486 12.9194 20.66 12.6009 21.1842 12.3043C21.5842 12.078 21.9753 11.8341 22.3334 11.5451C22.6949 11.2534 23.0329 10.8968 23.1948 10.4541C23.2162 10.3958 23.2307 10.3378 23.2421 10.2798C23.5171 10.8397 23.1897 11.3312 22.257 11.9907C21.6437 12.4243 21.0119 12.8413 20.3355 13.1711C19.63 13.515 18.9354 13.9768 18.1731 14.1833C17.3416 14.4085 16.4408 14.3931 15.5944 14.2582C14.1878 14.0342 12.8286 13.5372 11.4808 13.0891Z" fill="#EE9E2B"/>
<path d="M12.6665 11.1499C13.5581 11.0807 14.4313 10.884 15.327 10.8378C15.688 10.8192 16.0586 10.8075 16.4172 10.8598C16.6523 10.8942 16.8662 10.9241 16.9642 10.6507C17.0363 10.4491 17.0324 10.2198 17.0332 10.0085C17.0368 9.16213 16.9999 8.31539 16.9335 7.47178C16.9145 7.2292 16.9049 6.98183 16.8887 6.73525C16.9452 6.99481 16.9923 7.26239 17.0318 7.54015C17.1893 8.64669 17.2661 9.76387 17.2948 10.8814C17.3083 11.4088 17.1783 11.4469 16.6888 11.3195C16.6022 11.297 16.5147 11.2758 16.424 11.2594C15.107 11.0219 13.8603 11.5058 12.5558 11.5785C11.0169 11.6643 9.45982 11.3407 8.04582 10.7402C8.05698 10.6176 8.06872 10.495 8.08038 10.3723C8.72054 10.5878 9.37743 10.7539 10.039 10.888C10.9017 11.0628 11.7834 11.2183 12.6665 11.1499Z" fill="#EE9E2B"/>
<path d="M20.2667 6.65153C19.3646 4.58449 17.8697 2.81906 15.9551 1.62434C16.4833 1.83779 16.9603 2.20781 17.3994 2.55221C17.9915 3.01655 18.5443 3.53353 19.0383 4.10126C19.3514 4.46119 19.6344 4.84546 19.8848 5.25039C20.0716 5.73068 20.2097 6.2312 20.3058 6.74509C20.2926 6.71399 20.2803 6.68251 20.2667 6.65153Z" fill="#EE9E2B"/>
<path d="M20.26 10.2598C19.5985 10.6705 18.8925 10.9905 18.1659 11.268C17.9774 11.34 17.7843 11.4188 17.5828 11.4473C17.5772 10.9518 17.5638 10.4538 17.5403 9.95592C17.5705 10.1237 17.6054 10.2905 17.6517 10.4535C17.7158 10.6794 17.8201 10.9591 18.0854 10.986C18.3076 11.0086 18.5451 10.9069 18.752 10.8365C19.2221 10.6764 19.671 10.4992 20.0908 10.2298C20.3394 10.0703 20.5809 9.87594 20.6874 9.59254C20.7359 9.46309 20.751 9.3217 20.7645 9.18015C20.7766 9.24501 20.7894 9.309 20.8005 9.37509C20.8764 9.83272 20.6265 10.0323 20.26 10.2598Z" fill="#EE9E2B"/>
<path d="M18.4307 9.93423C17.9297 9.57441 17.8452 8.63282 17.8816 8.10869C17.9298 7.41488 18.3835 6.41737 19.2205 6.86849C19.9266 7.24919 20.3214 8.21108 20.2922 9.02014C20.2763 8.6058 20.1393 8.17753 19.9758 7.86658C19.7007 7.39992 18.9653 6.53199 18.3917 7.16226C17.8273 7.78257 17.8919 9.02868 18.2797 9.72234C18.323 9.7999 18.3743 9.8703 18.4307 9.93423Z" fill="#EE9E2B"/>
<path d="M13.9298 13.1055C13.5948 13.0142 12.8132 12.7219 13.309 12.3066C13.8027 11.8929 14.6571 11.8914 15.2564 11.9521C15.6287 11.9898 15.9933 12.0842 16.3506 12.1921C16.7896 12.3246 17.2491 12.3501 17.7027 12.3019C18.2984 12.2387 18.8944 12.0422 19.4657 11.8673C20.03 11.6946 20.5846 11.474 21.0687 11.1317C21.3807 10.9112 21.6193 10.5894 21.6116 10.1935C21.6078 9.99726 21.524 9.71992 21.6854 9.55749C21.9417 9.29964 22.2882 9.55304 22.4829 9.90809C22.7479 10.3914 22.39 10.9089 22.0912 11.1416C20.991 11.9985 18.2334 13.6897 16.3663 13.5452C15.5486 13.4819 14.7175 13.3202 13.9298 13.1055Z" fill="#FBE134"/>
<path d="M9.04224 0.965693C10.0129 0.288412 11.314 0.229279 12.4812 0.457448C13.8915 0.733076 15.2552 1.41989 16.4125 2.26566C17.5225 3.07695 18.4701 4.08355 19.2036 5.23173C19.4722 5.65207 19.8845 6.36511 20.2403 7.30652C18.9559 4.92698 17.707 3.37952 16.2101 2.36916C13.1551 0.307118 10.6378 0.316331 9.04224 0.965693Z" fill="#FBE134"/>
<path d="M11.5503 1.34896C13.08 1.84055 14.5003 2.66309 15.541 3.90641C15.96 4.4068 16.2652 4.91877 16.4931 5.46024C15.2102 3.41182 13.6274 2.36818 12.1123 1.90126C10.696 1.4647 9.57975 1.25013 7.80149 1.91457C8.5213 1.39523 9.87767 0.811376 11.5503 1.34896Z" fill="#FBE134"/>
<path d="M9.42603 5.03661C9.97791 5.3338 10.465 5.74153 10.8786 6.21024C13.1595 8.79495 11.3692 8.72644 9.85109 8.53801C9.17363 8.45393 8.51131 8.27185 7.86121 8.06818C7.24899 7.87637 6.62 7.63147 6.11087 7.23203C5.63136 6.85599 5.56584 6.32907 5.96965 5.55563C6.44241 4.65005 7.33997 3.91338 9.42603 5.03661Z" fill="#FBE134"/>
<path d="M8.90337 3.57338C9.75092 3.77137 10.5169 4.18759 11.1885 4.73562C11.5854 5.05953 11.9472 5.44225 12.2419 5.86149C12.3744 6.04999 12.4832 6.25363 12.5783 6.46408C12.1712 5.84665 11.6761 5.30477 11.0486 4.86784C9.92733 4.08721 8.64538 3.5123 7.24885 3.68416C6.63713 3.75939 6.04673 3.99246 5.6004 4.38924C5.6017 4.38034 5.60405 4.37175 5.6055 4.36293C5.66292 4.28507 5.72419 4.20943 5.79363 4.13814C6.03666 3.88881 6.34759 3.71784 6.67201 3.59965C7.37958 3.34197 8.1839 3.40523 8.90337 3.57338Z" fill="#FBE134"/>
<path d="M5.57872 11.3765C5.58017 11.3701 5.58095 11.3638 5.58143 11.3573C5.58327 11.3443 5.58487 11.3313 5.58784 11.3172C5.60194 11.2498 5.61622 11.1826 5.6317 11.1165C5.70517 11.3523 5.95571 11.4592 6.19208 11.53C6.69097 11.6795 6.64077 11.2087 6.76201 10.8799C6.90087 10.5034 7.38135 10.4736 7.51619 10.1092C7.61075 9.85364 7.59817 9.52226 7.50883 9.24528C7.60575 9.27527 7.7044 9.30945 7.77655 9.36154C7.90766 9.45618 7.87079 9.61822 7.85857 9.75352C7.82983 10.0728 7.79953 10.3921 7.77082 10.7114C7.49537 10.7526 7.23573 10.8487 7.05009 11.07C6.84541 11.3139 6.80959 11.6469 6.82887 11.9534C6.54881 12.0608 6.25174 11.903 5.99128 11.7893C5.77095 11.6932 5.5524 11.6418 5.57872 11.3765Z" fill="#EF6200"/>
<path d="M19.0977 9.60224C18.9283 9.30115 18.8531 8.91868 18.8333 8.61519C18.8198 8.40974 18.7956 8.12443 18.8272 7.86244C18.8682 7.52279 19.0019 7.37392 19.1772 7.41624C19.0735 7.48111 18.9927 7.58803 18.9458 7.76417C18.8446 8.1436 18.8931 8.57495 18.9904 8.94833C19.0787 9.28672 19.3958 9.63755 19.7718 9.56747C19.8584 9.55132 19.9233 9.51436 19.9738 9.46412C19.9616 9.50393 19.9479 9.54303 19.9309 9.58044C19.7062 10.072 19.3375 10.0281 19.0977 9.60224Z" fill="#EF6200"/>
<path d="M18.4687 7.51875C18.4702 7.51634 18.4717 7.5145 18.4732 7.51219C18.3754 7.75308 18.3617 8.02378 18.3764 8.28008C18.3925 8.55939 18.4837 8.83389 18.6156 9.07847C18.6685 9.17639 18.7376 9.25987 18.8097 9.34064C18.8966 9.61023 19.0287 9.86368 19.2316 10.036C18.9398 10.0363 18.6521 9.87368 18.5188 9.58161C18.2579 9.01004 18.1164 8.08586 18.4687 7.51875Z" fill="#EF6200"/>
<path d="M19.5697 8.00973C19.6693 8.17669 19.761 8.45661 19.7927 8.68994C19.8631 9.20617 19.6066 9.22105 19.4126 8.81859C19.3125 8.61115 19.2382 8.32563 19.231 8.11011C19.2183 7.72381 19.3199 7.59155 19.5697 8.00973Z" fill="#FACB1A"/>
<path d="M20.8077 13.4183C21.1269 13.1487 21.4328 12.8629 21.7233 12.5626C22.3248 12.1887 23.2949 11.5764 23.5269 10.8674C23.5267 11.2805 23.2948 11.6431 22.998 11.9312C22.38 12.5311 21.6121 12.9807 20.8592 13.3901C20.8423 13.3994 20.8248 13.409 20.8077 13.4183Z" fill="#F3AF79"/>
<path d="M4.8242 10.9333C4.52588 10.7984 4.23497 10.6432 4.04145 10.4281C3.91608 10.2889 3.84129 10.1476 3.80927 10.0104C3.9848 10.2552 4.25293 10.4289 4.54084 10.5739C4.62712 10.6995 4.72241 10.819 4.8242 10.9333Z" fill="#F3AF79"/>
<path d="M5.6501 5.43906C5.46598 5.81422 5.40953 6.23334 5.20938 6.60009C5.20114 6.61525 5.17533 6.60897 5.17622 6.5912C5.22274 5.69776 5.68692 4.70046 6.60859 4.4671C6.62054 4.4641 6.62939 4.48244 6.61736 4.48773C6.18091 4.67799 5.85776 5.01577 5.6501 5.43906Z" fill="#68182B"/>
<path d="M5.19215 6.76217C5.17899 6.80219 5.17769 6.84842 5.16859 6.88963C5.16298 6.9152 5.1615 6.94113 5.15777 6.96688C5.15367 6.99557 5.14468 6.99695 5.13197 7.02316C5.12814 7.0312 5.11416 7.03163 5.11033 7.02323C5.10382 7.00894 5.08816 6.99431 5.08806 6.97737C5.08792 6.94787 5.09217 6.9192 5.09692 6.89008C5.10628 6.83257 5.1314 6.79668 5.16118 6.7492C5.17106 6.73351 5.1983 6.7433 5.19215 6.76217Z" fill="#68182B"/>
<path d="M15.7015 4.57383C16.1625 5.23461 16.4142 6.11678 16.6075 6.88928C16.8114 7.70421 16.9423 8.54685 16.8789 9.38687C16.8773 9.40731 16.8501 9.40667 16.8477 9.38697C16.7454 8.56282 16.6627 7.737 16.4723 6.92699C16.3807 6.53788 16.2683 6.15507 16.1418 5.7759C16.0068 5.37141 15.817 4.98487 15.6913 4.57818C15.6893 4.57175 15.6981 4.5688 15.7015 4.57383Z" fill="#68182B"/>
<path d="M15.4188 4.14552C15.5186 4.21182 15.5797 4.31448 15.5839 4.43598C15.5841 4.44181 15.5764 4.44335 15.5734 4.43881C15.5138 4.34648 15.4408 4.26862 15.3975 4.16694C15.392 4.15414 15.4042 4.13588 15.4188 4.14552Z" fill="#68182B"/>
</svg>
