<svg width="490" height="198" viewBox="0 0 490 198" fill="none" xmlns="http://www.w3.org/2000/svg">
<path d="M435.588 197.024C421.69 197.024 410.85 193.356 403.068 186.018C395.285 178.68 391.394 168.451 391.394 155.332C391.394 143.436 394.229 132.763 399.899 123.313C405.569 113.751 413.407 106.302 423.414 100.966C433.42 95.518 444.649 92.7941 457.101 92.7941C467.329 92.7941 475.223 94.9065 480.782 99.1313C486.452 103.356 489.287 109.304 489.287 116.976C489.287 124.869 486.563 131.651 481.116 137.321C475.668 142.991 467.83 147.272 457.601 150.163C447.373 153.053 435.254 154.387 421.246 154.165L423.414 141.824C435.31 141.157 444.426 138.989 450.764 135.32C457.212 131.54 460.436 126.593 460.436 120.478C460.436 118.032 459.602 116.086 457.935 114.641C456.267 113.084 454.099 112.306 451.431 112.306C446.761 112.306 442.314 114.363 438.089 118.476C433.976 122.479 430.64 127.816 428.083 134.486C425.637 141.157 424.414 148.217 424.414 155.666C424.414 163.226 425.693 169.174 428.25 173.51C430.918 177.735 434.587 179.847 439.257 179.847C444.927 179.847 449.596 177.791 453.265 173.677C456.934 169.452 458.88 163.949 459.102 157.167C465.773 157.167 470.831 158.39 474.278 160.836C477.836 163.282 479.615 166.839 479.615 171.509C479.615 176.178 477.669 180.459 473.778 184.35C469.886 188.241 464.55 191.299 457.768 193.522C451.097 195.857 443.704 197.024 435.588 197.024Z" fill="white"/>
<path d="M350.575 197.024C343.904 197.024 339.068 195.079 336.066 191.188C333.175 187.296 331.73 181.237 331.73 173.01C331.73 168.563 332.619 160.78 334.398 149.662C336.177 138.433 338.679 123.98 341.903 106.302C342.348 103.189 342.848 100.188 343.404 97.2969C343.96 94.4062 344.46 91.6823 344.905 89.1252L335.566 75.7837C340.569 72.1148 345.794 69.1686 351.242 66.945C356.69 64.7214 361.86 63.6096 366.751 63.6096C371.977 63.6096 375.646 64.5546 377.758 66.4447C379.871 68.2236 380.927 71.2254 380.927 75.4502C380.927 78.3408 380.482 82.0653 379.593 86.6237C378.814 91.182 377.536 97.4081 375.757 105.302C372.755 118.421 370.365 130.15 368.586 140.49C366.918 150.718 366.084 160.836 366.084 170.842C366.084 175.956 366.473 179.681 367.252 182.015C368.141 184.35 369.475 186.629 371.254 188.853C368.252 191.521 364.861 193.522 361.081 194.856C357.412 196.302 353.91 197.024 350.575 197.024Z" fill="white"/>
<path d="M285.92 197.024C279.026 197.024 274.023 195.301 270.91 191.855C267.797 188.408 266.241 183.238 266.241 176.345C266.241 172.009 267.241 164.727 269.243 154.498C271.355 144.27 273.912 132.541 276.914 119.31L267.575 105.302C272.912 101.522 278.415 98.5198 284.085 96.2962C289.866 93.9615 295.314 92.7941 300.428 92.7941C304.987 92.7941 308.211 93.7947 310.101 95.7959C311.991 97.686 312.936 100.799 312.936 105.135C312.936 106.58 312.491 109.249 311.602 113.14C310.824 116.92 309.934 121.089 308.934 125.647C306.376 136.209 304.32 145.437 302.763 153.331C301.318 161.114 300.595 167.896 300.595 173.677C300.595 180.792 302.318 185.851 305.765 188.853C299.539 194.301 292.924 197.024 285.92 197.024Z" fill="white"/>
<path d="M157.725 197.024C150.943 197.024 145.996 195.301 142.883 191.855C139.77 188.408 138.213 183.238 138.213 176.345C138.213 171.787 139.158 164.06 141.048 153.164C142.938 142.269 145.718 127.426 149.387 108.637C150.054 105.079 150.665 101.688 151.221 98.4642C151.888 95.2401 152.5 92.127 153.056 89.1252L143.717 75.7837C148.72 72.1148 153.945 69.1686 159.393 66.945C164.841 64.7214 170.011 63.6096 174.902 63.6096C180.128 63.6096 183.797 64.5546 185.909 66.4447C188.022 68.2236 189.078 71.2254 189.078 75.4502C189.078 78.1185 188.633 81.6206 187.744 85.9566C186.965 90.1814 185.687 95.9627 183.908 103.301C181.573 113.307 179.85 120.867 178.738 125.981L180.406 126.815C186.965 115.475 194.303 106.969 202.419 101.299C210.647 95.6292 219.096 92.7941 227.768 92.7941C234.55 92.7941 239.609 94.4618 242.944 97.7972C246.279 101.021 247.947 106.08 247.947 112.973C247.947 116.753 247.558 120.7 246.78 124.814C246.001 128.927 244.834 134.431 243.278 141.324C241.499 148.773 240.165 154.888 239.275 159.668C238.497 164.338 238.108 169.007 238.108 173.677C238.108 180.57 239.275 185.629 241.61 188.853C235.717 194.301 229.603 197.024 223.265 197.024C216.483 197.024 211.536 195.301 208.423 191.855C205.31 188.408 203.753 183.238 203.753 176.345C203.753 171.787 204.254 167.117 205.254 162.337C206.255 157.556 207.7 152.108 209.59 145.993C211.036 140.879 212.092 136.877 212.759 133.986C213.426 130.984 213.76 128.316 213.76 125.981C213.76 121.312 211.869 118.977 208.089 118.977C203.865 118.977 198.917 121.423 193.247 126.315C187.577 131.095 182.685 137.71 178.571 146.16C174.569 154.498 172.568 163.671 172.568 173.677C172.568 180.57 173.735 185.629 176.07 188.853C170.177 194.301 164.063 197.024 157.725 197.024Z" fill="white"/>
<path d="M67.5412 197.025C50.5308 197.025 37.2449 192.577 27.6835 183.683C18.1221 174.789 13.3414 162.392 13.3414 146.494C13.3414 132.263 16.6212 119.477 23.1808 108.137C29.8515 96.6854 39.0238 87.7911 50.6976 81.4539C62.3714 75.0055 75.4349 71.7813 89.8882 71.7813C100.45 71.7813 108.844 73.7269 115.07 77.6182C121.296 81.3983 124.409 86.5125 124.409 92.9609C124.409 98.1863 122.575 102.522 118.906 105.969C115.237 109.304 110.567 110.972 104.897 110.972C99.4496 110.972 94.4465 109.527 89.8882 106.636C85.441 103.634 81.8833 99.3537 79.215 93.7948C73.6561 95.9072 68.5974 99.6317 64.0391 104.968C59.5919 110.305 56.0898 116.642 53.5327 123.98C50.9755 131.318 49.697 139.045 49.697 147.161C49.697 157.278 51.4203 165.172 54.8668 170.842C58.4245 176.512 63.3164 179.347 69.5424 179.347C74.4343 179.347 78.8815 178.013 82.8839 175.345C86.9975 172.565 90.2773 168.841 92.7233 164.171C95.2804 159.502 96.6701 154.332 96.8925 148.662C104.119 148.662 109.622 149.996 113.403 152.664C117.183 155.221 119.073 159.112 119.073 164.338C119.073 170.342 116.738 175.845 112.068 180.848C107.51 185.851 101.284 189.798 93.3903 192.689C85.4966 195.579 76.8802 197.025 67.5412 197.025Z" fill="white"/>
<path d="M422.246 197.024C408.349 197.024 397.509 193.356 389.726 186.018C381.944 178.68 378.052 168.451 378.052 155.332C378.052 143.436 380.888 132.763 386.558 123.313C392.228 113.751 400.066 106.302 410.072 100.966C420.078 95.518 431.307 92.7941 443.759 92.7941C453.988 92.7941 461.881 94.9065 467.44 99.1313C473.111 103.356 475.946 109.304 475.946 116.976C475.946 124.869 473.222 131.651 467.774 137.321C462.326 142.991 454.488 147.272 444.26 150.163C434.031 153.053 421.913 154.387 407.904 154.165L410.072 141.824C421.968 141.157 431.085 138.989 437.422 135.32C443.87 131.54 447.095 126.593 447.095 120.478C447.095 118.032 446.261 116.086 444.593 114.641C442.925 113.084 440.757 112.306 438.089 112.306C433.42 112.306 428.972 114.363 424.748 118.476C420.634 122.479 417.299 127.816 414.742 134.486C412.296 141.157 411.073 148.217 411.073 155.666C411.073 163.226 412.351 169.174 414.908 173.51C417.577 177.735 421.246 179.847 425.915 179.847C431.585 179.847 436.255 177.791 439.924 173.677C443.593 169.452 445.538 163.949 445.761 157.167C452.431 157.167 457.49 158.39 460.936 160.836C464.494 163.282 466.273 166.839 466.273 171.509C466.273 176.178 464.327 180.459 460.436 184.35C456.545 188.241 451.208 191.299 444.426 193.522C437.756 195.857 430.362 197.024 422.246 197.024Z" fill="#0032A0"/>
<path d="M337.233 197.024C330.563 197.024 325.726 195.079 322.725 191.188C319.834 187.296 318.389 181.237 318.389 173.01C318.389 168.563 319.278 160.78 321.057 149.662C322.836 138.433 325.337 123.98 328.561 106.302C329.006 103.189 329.506 100.188 330.062 97.2969C330.618 94.4062 331.119 91.6823 331.563 89.1252L322.224 75.7837C327.227 72.1148 332.453 69.1686 337.9 66.945C343.348 64.7214 348.518 63.6096 353.41 63.6096C358.635 63.6096 362.304 64.5546 364.417 66.4447C366.529 68.2236 367.585 71.2254 367.585 75.4502C367.585 78.3408 367.141 82.0653 366.251 86.6237C365.473 91.182 364.194 97.4081 362.415 105.302C359.414 118.421 357.023 130.15 355.244 140.49C353.577 150.718 352.743 160.836 352.743 170.842C352.743 175.956 353.132 179.681 353.91 182.015C354.8 184.35 356.134 186.629 357.913 188.853C354.911 191.521 351.52 193.522 347.74 194.856C344.071 196.302 340.569 197.024 337.233 197.024Z" fill="#0032A0"/>
<path d="M272.578 197.024C265.685 197.024 260.682 195.301 257.569 191.855C254.456 188.408 252.899 183.238 252.899 176.345C252.899 172.009 253.9 164.727 255.901 154.498C258.014 144.27 260.571 132.541 263.573 119.31L254.234 105.302C259.57 101.522 265.074 98.5199 270.744 96.2963C276.525 93.9615 281.973 92.7941 287.087 92.7941C291.645 92.7941 294.87 93.7947 296.76 95.796C298.65 97.686 299.595 100.799 299.595 105.135C299.595 106.58 299.15 109.249 298.26 113.14C297.482 116.92 296.593 121.089 295.592 125.648C293.035 136.21 290.978 145.437 289.422 153.331C287.976 161.114 287.254 167.896 287.254 173.677C287.254 180.792 288.977 185.851 292.424 188.853C286.198 194.301 279.582 197.024 272.578 197.024Z" fill="#0032A0"/>
<path d="M144.384 197.024C137.602 197.024 132.654 195.301 129.541 191.855C126.428 188.408 124.872 183.238 124.872 176.345C124.872 171.787 125.817 164.06 127.707 153.164C129.597 142.269 132.376 127.426 136.045 108.637C136.712 105.079 137.324 101.688 137.88 98.4642C138.547 95.2401 139.158 92.127 139.714 89.1252L130.375 75.7837C135.378 72.1148 140.604 69.1686 146.051 66.945C151.499 64.7214 156.669 63.6096 161.561 63.6096C166.786 63.6096 170.455 64.5546 172.568 66.4447C174.68 68.2236 175.736 71.2254 175.736 75.4502C175.736 78.1185 175.292 81.6206 174.402 85.9566C173.624 90.1814 172.345 95.9627 170.566 103.301C168.232 113.307 166.508 120.867 165.397 125.981L167.064 126.815C173.624 115.475 180.962 106.969 189.078 101.299C197.305 95.6292 205.755 92.7941 214.427 92.7941C221.208 92.7941 226.267 94.4618 229.602 97.7972C232.938 101.021 234.606 106.08 234.606 112.973C234.606 116.753 234.216 120.7 233.438 124.814C232.66 128.927 231.493 134.431 229.936 141.324C228.157 148.773 226.823 154.888 225.934 159.668C225.155 164.338 224.766 169.007 224.766 173.677C224.766 180.57 225.934 185.629 228.268 188.853C222.376 194.301 216.261 197.024 209.924 197.024C203.142 197.024 198.194 195.301 195.081 191.855C191.968 188.408 190.412 183.238 190.412 176.345C190.412 171.787 190.912 167.117 191.913 162.337C192.913 157.556 194.359 152.108 196.249 145.993C197.694 140.879 198.75 136.877 199.417 133.986C200.084 130.984 200.418 128.316 200.418 125.981C200.418 121.312 198.528 118.977 194.748 118.977C190.523 118.977 185.576 121.423 179.905 126.315C174.235 131.095 169.343 137.71 165.23 146.16C161.227 154.498 159.226 163.671 159.226 173.677C159.226 180.57 160.394 185.629 162.728 188.853C156.836 194.301 150.721 197.024 144.384 197.024Z" fill="#0032A0"/>
<path d="M54.1998 197.025C37.1894 197.025 23.9035 192.577 14.3421 183.683C4.7807 174.789 0 162.392 0 146.494C0 132.263 3.27978 119.477 9.83935 108.137C16.5101 96.6854 25.6824 87.7911 37.3562 81.4539C49.03 75.0055 62.0935 71.7813 76.5468 71.7813C87.1088 71.7813 95.5028 73.7269 101.729 77.6182C107.955 81.3983 111.068 86.5125 111.068 92.9609C111.068 98.1863 109.233 102.522 105.564 105.969C101.896 109.304 97.2261 110.972 91.5559 110.972C86.1082 110.972 81.1051 109.527 76.5468 106.636C72.0996 103.634 68.5419 99.3537 65.8736 93.7948C60.3146 95.9072 55.256 99.6317 50.6976 104.968C46.2505 110.305 42.7483 116.642 40.1912 123.98C37.6341 131.318 36.3555 139.045 36.3555 147.161C36.3555 157.278 38.0788 165.172 41.5254 170.842C45.0831 176.512 49.975 179.347 56.201 179.347C61.0929 179.347 65.54 178.013 69.5425 175.345C73.6561 172.565 76.9359 168.841 79.3818 164.171C81.9389 159.502 83.3287 154.332 83.551 148.662C90.7777 148.662 96.281 149.996 100.061 152.664C103.841 155.221 105.731 159.112 105.731 164.338C105.731 170.342 103.397 175.845 98.727 180.848C94.1686 185.851 87.9426 189.798 80.0489 192.689C72.1552 195.579 63.5388 197.025 54.1998 197.025Z" fill="#0032A0"/>
<path d="M288.462 10.601L297.513 40.9476H334.471L330.468 43.9496L304.866 63.1508L314.454 92.4467L316.05 97.3246L311.891 94.3168L286.843 76.1967L260.704 94.3353L256.548 97.2181L258.173 92.4291L268.288 62.6166L242.184 43.972L237.95 40.9476H275.149L285.282 10.5502L286.953 5.53845L288.462 10.601Z" fill="white" stroke="#0032A0" stroke-width="3.33537"/>
</svg>
