<svg width="95" height="61" viewBox="0 0 95 61" fill="none" xmlns="http://www.w3.org/2000/svg">
<path d="M93.623 0.75V59.96H0.75V0.75H93.623Z" fill="#FFC270" stroke="black" stroke-width="1.5"/>
<path d="M64.0321 51.8145C61.8007 48.8891 58.0193 47.5775 54.5295 46.9646C51.1312 46.4466 47.5588 46.1483 44.835 43.826C42.2544 41.6897 40.3262 38.6062 38.3739 35.845L27.1652 2.22298C27.0942 1.99171 26.8674 1.84795 26.6286 1.87605L1.60916 4.22873C1.33164 4.25592 1.12192 4.49448 1.13863 4.77204L2.45443 29.8996C2.46891 30.1395 2.64772 30.3379 2.88569 30.38L37.6292 36.5082C38.1489 37.4167 39.6554 39.4678 40.5691 40.663C43.1315 44.4347 47.1342 47.2835 51.7793 47.5692C54.3627 47.8375 56.898 48.4613 59.3132 49.4227C63.993 51.7809 66.7812 56.5951 69.4035 61.0002C68.0465 57.703 66.2377 54.6106 64.0318 51.813L64.0321 51.8145ZM13.8774 14.572C16.7602 11.2816 19.9341 8.25304 23.3585 5.53158L25.0027 3.92803C25.3609 3.61141 25.6814 3.28654 26.0678 2.94991L26.3349 2.92277L36.832 34.4147C30.114 28.6884 21.7348 21.2497 13.8774 14.572ZM13.0916 13.9421C13.08 13.9322 13.0684 13.9223 13.0568 13.9125C9.30259 10.7187 5.61356 7.7163 2.30324 5.22872L25.6026 3.03318L25.6037 3.03632C23.2805 4.31647 21.1217 5.87682 19.1785 7.68253C17.0156 9.63422 14.9691 11.714 13.0568 13.9125C13.0543 13.9154 13.0518 13.9183 13.0492 13.9212L13.0916 13.9421ZM2.20291 5.27331C5.18024 8.1813 8.67188 11.3703 12.3997 14.6686L12.3966 14.6697C10.5083 16.8869 8.7535 19.22 7.14368 21.651C6.50807 22.6066 5.29148 24.5764 4.70735 25.5705C4.27213 26.6124 3.8526 27.6489 3.44881 28.6802L2.20291 5.27331ZM3.4683 29.163C6.67318 24.5472 9.44189 19.5926 13.1354 15.3674C20.8799 22.1986 29.4941 29.3692 36.1451 35.2088L3.48373 29.4263L3.4683 29.163Z" fill="white"/>
<path d="M3.4683 29.163C6.67318 24.5472 9.44189 19.5926 13.1354 15.3674C20.8799 22.1986 29.4941 29.3692 36.1451 35.2088L3.48373 29.4263L3.4683 29.163Z" fill="#E71712"/>
<path d="M2.20291 5.27331C5.18024 8.1813 8.67188 11.3703 12.3997 14.6686L12.3966 14.6697C10.5083 16.8869 8.7535 19.22 7.14368 21.651C6.50807 22.6066 5.29148 24.5764 4.70735 25.5705C4.27213 26.6124 3.8526 27.6489 3.44881 28.6802L2.20291 5.27331Z" fill="#E71712"/>
<path d="M13.8774 14.572C16.7602 11.2816 19.9341 8.25304 23.3585 5.53158L25.0027 3.92803C25.3609 3.61141 25.6814 3.28654 26.0678 2.94991L26.3349 2.92277L36.832 34.4147C30.114 28.6884 21.7348 21.2497 13.8774 14.572Z" fill="white"/>
<path d="M2.30324 5.22872C5.61356 7.7163 9.30259 10.7187 13.0568 13.9125C14.9691 11.714 17.0156 9.63422 19.1785 7.68253C21.1217 5.87682 23.2805 4.31647 25.6037 3.03632L25.6026 3.03318L2.30324 5.22872Z" fill="#0032A0"/>
<path d="M79.7076 12.6638C79.1753 12.6638 78.9092 12.3528 78.9092 11.7308C78.9092 11.0255 79.124 10.1406 79.5537 9.0762C79.9833 8.01178 80.5604 6.91851 81.2849 5.79638L82.5257 5.40203C82.1602 5.95348 81.8075 6.58507 81.4677 7.29682C81.1278 8.00858 80.8489 8.74597 80.6309 9.50902C80.4129 10.2721 80.3039 10.9838 80.3039 11.6443C80.3039 11.8302 80.3103 11.9777 80.3231 12.0867C80.3424 12.2021 80.3808 12.3208 80.4385 12.4426C80.2013 12.5901 79.9576 12.6638 79.7076 12.6638ZM80.679 6.20034C80.0506 6.20034 79.5472 6.17149 79.1689 6.11378C78.797 6.04966 78.5245 5.95348 78.3514 5.82523C78.1783 5.69058 78.0917 5.51104 78.0917 5.28661C78.0917 5.1776 78.1077 5.0686 78.1398 4.95959C78.1718 4.84417 78.2103 4.74478 78.2552 4.66142C78.7233 4.8602 79.2459 5.02692 79.823 5.16157C80.4001 5.28982 80.9227 5.36676 81.3907 5.39241C81.4998 5.18722 81.6312 5.02692 81.7851 4.9115C81.9454 4.78967 82.1153 4.72875 82.2949 4.72875C82.5065 4.72875 82.6668 4.78005 82.7758 4.88264C82.8848 4.97883 82.9393 5.11989 82.9393 5.30585C82.9393 5.62004 82.7565 5.84767 82.391 5.98874C82.0256 6.12981 81.4549 6.20034 80.679 6.20034ZM83.8475 10.5863C84.9504 9.8681 85.7776 9.20765 86.329 8.60491C86.8869 7.99575 87.1658 7.42827 87.1658 6.90248C87.1658 6.48569 87.0696 6.1747 86.8773 5.96951C86.6913 5.76432 86.4092 5.66172 86.0309 5.66172C85.7872 5.66172 85.5628 5.73226 85.3576 5.87332C85.1588 6.00798 84.9953 6.19393 84.8671 6.43118C84.7452 6.66843 84.6747 6.93774 84.6555 7.23912C84.4182 7.21347 84.2355 7.13331 84.1072 6.99866C83.979 6.85759 83.9149 6.67805 83.9149 6.46004C83.9149 6.1266 84.0142 5.83164 84.213 5.57516C84.4118 5.31867 84.6907 5.11989 85.0498 4.97883C85.4153 4.83776 85.8353 4.76722 86.3098 4.76722C86.7202 4.76722 87.0825 4.84417 87.3967 4.99806C87.7109 5.14554 87.9545 5.35714 88.1277 5.63287C88.3008 5.90859 88.3873 6.22279 88.3873 6.57546C88.3873 7.01148 88.2623 7.44751 88.0122 7.88354C87.7686 8.31957 87.3774 8.78765 86.8388 9.2878C86.3066 9.78795 85.5884 10.3554 84.6843 10.9902L83.8475 10.5863ZM87.3967 11.7885C87.0312 11.7885 86.6625 11.7469 86.2906 11.6635C85.9187 11.5802 85.4121 11.4231 84.7709 11.1922L84.742 11.1826C84.5561 11.375 84.3862 11.5096 84.2323 11.5866C84.0848 11.6699 83.9245 11.7116 83.7514 11.7116C83.5782 11.7116 83.4307 11.6539 83.3089 11.5385C83.1935 11.4231 83.1358 11.282 83.1358 11.1153C83.1358 10.8395 83.248 10.6151 83.4724 10.442C83.6968 10.2689 83.979 10.1823 84.3188 10.1823C84.4855 10.1823 84.6875 10.2112 84.9248 10.2689C85.162 10.3202 85.4538 10.3971 85.8 10.4997C86.2104 10.6151 86.5342 10.7017 86.7715 10.7594C87.0087 10.8107 87.2171 10.8363 87.3967 10.8363L88.4547 10.2592C88.5444 10.4003 88.6054 10.5189 88.6374 10.6151C88.6759 10.7113 88.6951 10.8043 88.6951 10.8941C88.6951 11.0608 88.6374 11.2147 88.522 11.3557C88.4066 11.4904 88.2495 11.5962 88.0507 11.6731C87.8519 11.7501 87.6339 11.7885 87.3967 11.7885Z" fill="black"/>
</svg>
