<svg width="95" height="61" viewBox="0 0 95 61" fill="none" xmlns="http://www.w3.org/2000/svg">
<path d="M93.623 0.75V59.96H0.75V0.75H93.623Z" fill="#FFC270" stroke="black" stroke-width="1.5"/>
<path d="M79.6136 12.6638C79.0814 12.6638 78.8153 12.3528 78.8153 11.7308C78.8153 11.0255 79.0301 10.1406 79.4597 9.0762C79.8893 8.01178 80.4664 6.91851 81.191 5.79638L82.4318 5.40203C82.0663 5.95348 81.7136 6.58507 81.3738 7.29682C81.0339 8.00858 80.755 8.74597 80.537 9.50902C80.319 10.2721 80.21 10.9838 80.21 11.6443C80.21 11.8302 80.2164 11.9777 80.2292 12.0867C80.2484 12.2021 80.2869 12.3208 80.3446 12.4426C80.1074 12.5901 79.8637 12.6638 79.6136 12.6638ZM80.5851 6.20034C79.9567 6.20034 79.4533 6.17149 79.075 6.11378C78.7031 6.04966 78.4306 5.95348 78.2575 5.82523C78.0843 5.69058 77.9978 5.51104 77.9978 5.28661C77.9978 5.1776 78.0138 5.0686 78.0458 4.95959C78.0779 4.84417 78.1164 4.74478 78.1613 4.66142C78.6294 4.8602 79.1519 5.02692 79.729 5.16157C80.3061 5.28982 80.8287 5.36676 81.2968 5.39241C81.4058 5.18722 81.5373 5.02692 81.6912 4.9115C81.8515 4.78967 82.0214 4.72875 82.2009 4.72875C82.4125 4.72875 82.5728 4.78005 82.6818 4.88264C82.7909 4.97883 82.8454 5.11989 82.8454 5.30585C82.8454 5.62004 82.6626 5.84767 82.2971 5.98874C81.9316 6.12981 81.3609 6.20034 80.5851 6.20034ZM84.5904 11.5C84.0902 11.5 83.7248 11.4295 83.4939 11.2884C83.2631 11.1473 83.1477 10.9261 83.1477 10.6247C83.1477 10.426 83.2182 10.1791 83.3593 9.88413C83.5003 9.58276 83.7312 9.14994 84.0518 8.58567C84.3275 8.11117 84.5487 7.71041 84.7154 7.38339C84.8886 7.05637 85.036 6.72294 85.1579 6.38309C85.2797 6.03683 85.3406 5.72264 85.3406 5.4405C85.3406 5.28661 85.315 5.11669 85.2637 4.93074C85.3855 4.87303 85.5009 4.83135 85.6099 4.8057C85.7189 4.78005 85.8311 4.76722 85.9466 4.76722C86.466 4.76722 86.7256 5.08142 86.7256 5.70981C86.7256 6.2805 86.4948 6.9698 86.0331 7.77774C85.5779 8.57926 84.8821 9.51864 83.946 10.5959H87.1392L86.8603 11.3173C86.5653 11.3686 86.2031 11.4134 85.7734 11.4519C85.3438 11.484 84.9495 11.5 84.5904 11.5ZM87.4085 13.1351C87.1456 13.1351 86.9405 13.0485 86.793 12.8754C86.6519 12.7087 86.5814 12.4682 86.5814 12.154C86.5814 11.8398 86.6711 11.3269 86.8507 10.6151C87.0366 9.90337 87.2867 9.08261 87.6009 8.15285C87.7099 8.06949 87.8349 8.00216 87.976 7.95087C88.1171 7.89957 88.2485 7.87392 88.3704 7.87392C88.4794 7.87392 88.5563 7.89316 88.6012 7.93163C88.6461 7.96369 88.6685 8.0214 88.6685 8.10476C88.6685 8.18812 88.6493 8.31636 88.6108 8.48949C88.5723 8.66262 88.5275 8.85178 88.4762 9.05696C88.3351 9.58276 88.2197 10.0765 88.1299 10.5382C88.0466 10.9934 88.0049 11.4455 88.0049 11.8943C88.0049 12.3176 88.0818 12.6542 88.2357 12.9043C88.069 12.9876 87.9247 13.0453 87.8029 13.0774C87.6811 13.1159 87.5496 13.1351 87.4085 13.1351Z" fill="black"/>
</svg>
