<svg width="95" height="61" viewBox="0 0 95 61" fill="none" xmlns="http://www.w3.org/2000/svg">
<path d="M93.6895 0.771484V60.0254H0.771484V0.771484H93.6895Z" fill="#FFC270" stroke="black" stroke-width="1.544"/>
<path d="M79.6989 11.794C78.9679 11.794 78.3876 11.6369 77.958 11.3227C77.5348 11.0085 77.3232 10.5757 77.3232 10.0243C77.3232 9.76136 77.3841 9.50808 77.5059 9.26442C77.6277 9.01435 77.8457 8.76106 78.1599 8.50458C78.4741 8.24809 78.907 7.9916 79.4584 7.73512C79.9457 7.5171 80.324 7.29909 80.5934 7.08108C80.8627 6.85665 81.0454 6.63864 81.1416 6.42704C81.2442 6.21543 81.2955 5.99101 81.2955 5.75376C81.2955 5.47162 81.1993 5.2472 81.0069 5.08048C80.821 4.91376 80.5645 4.83041 80.2375 4.83041C79.8848 4.83041 79.5931 4.91697 79.3622 5.0901C79.1378 5.25682 79.0256 5.49407 79.0256 5.80185C79.0256 6.01986 79.0929 6.22185 79.2276 6.4078C79.3622 6.59375 79.5289 6.76368 79.7277 6.91757C79.9329 7.07146 80.2086 7.26062 80.5549 7.48504C80.9653 7.74794 81.2955 7.97878 81.5456 8.17756C81.7956 8.36992 82.0072 8.59755 82.1804 8.86045C82.3535 9.12335 82.4401 9.41831 82.4401 9.74533C82.4401 10.1429 82.3246 10.4988 82.0938 10.813C81.863 11.1207 81.5392 11.3612 81.1224 11.5343C80.7056 11.7075 80.2311 11.794 79.6989 11.794ZM79.795 10.9861C80.199 10.9861 80.5356 10.8867 80.805 10.6879C81.0743 10.4827 81.2089 10.1974 81.2089 9.8319C81.2089 9.65236 81.1448 9.47923 81.0166 9.31251C80.8883 9.14579 80.7312 8.9919 80.5453 8.85084C80.3593 8.70977 80.0996 8.52381 79.7662 8.29298C79.343 8.01084 78.9999 7.76397 78.737 7.55237C78.4805 7.34077 78.2593 7.09711 78.0734 6.82138C77.8874 6.54566 77.7944 6.24429 77.7944 5.91727C77.7944 5.54536 77.8938 5.21514 78.0926 4.92659C78.2978 4.63804 78.5863 4.41682 78.9583 4.26293C79.3302 4.10263 79.7598 4.02247 80.2471 4.02247C80.9011 4.02247 81.4173 4.17957 81.7956 4.49377C82.174 4.80796 82.3631 5.22796 82.3631 5.75376C82.3631 6.18979 82.1772 6.60978 81.8053 7.01375C81.4334 7.4113 80.9011 7.76397 80.2086 8.07176C79.6572 8.31542 79.2147 8.60717 78.8813 8.94702C78.5543 9.28686 78.3908 9.64594 78.3908 10.0243C78.3908 10.3128 78.5222 10.5469 78.7851 10.7264C79.048 10.8995 79.3847 10.9861 79.795 10.9861ZM86.2215 11.7844C85.715 11.7844 85.2725 11.6626 84.8942 11.4189C84.5159 11.1752 84.2241 10.829 84.019 10.3801C83.8202 9.93129 83.7208 9.40549 83.7208 8.80274C83.7208 8.01405 83.8747 7.31833 84.1825 6.71558C84.4903 6.11284 84.9231 5.64475 85.4809 5.31132C86.0388 4.97789 86.6768 4.81117 87.395 4.81117C87.5104 4.81117 87.645 4.8272 87.7989 4.85926C87.9528 4.88491 88.0779 4.91697 88.174 4.95544C88.2189 5.00674 88.251 5.16063 88.2702 5.41712C88.6742 5.52613 88.982 5.78582 89.1936 6.1962C89.4052 6.60016 89.511 7.12917 89.511 7.78321C89.511 8.52702 89.3635 9.2035 89.0685 9.81266C88.78 10.4218 88.3856 10.9027 87.8855 11.2554C87.3853 11.6081 86.8307 11.7844 86.2215 11.7844ZM86.3081 11.0534C86.6864 11.0534 87.0263 10.9188 87.3276 10.6494C87.629 10.3801 87.8631 10.005 88.0298 9.52411C88.2029 9.0432 88.2895 8.49817 88.2895 7.88901C88.2895 7.17085 88.1548 6.63543 87.8855 6.28276C87.6226 5.93009 87.2122 5.75376 86.6544 5.75376C86.4428 5.75376 86.1831 5.80506 85.8753 5.90765C85.5739 6.34368 85.3431 6.8278 85.1828 7.36001C85.0225 7.8858 84.9423 8.4084 84.9423 8.92778C84.9423 9.58182 85.0641 10.1012 85.3078 10.4859C85.5579 10.8643 85.8913 11.0534 86.3081 11.0534Z" fill="black"/>
</svg>
