<svg width="95" height="61" viewBox="0 0 95 61" fill="none" xmlns="http://www.w3.org/2000/svg">
<path d="M93.623 0.75V59.96H0.75V0.75H93.623Z" fill="#3BA15C" stroke="black" stroke-width="1.5"/>
<path d="M86.0387 12.9908C85.4937 12.9908 85.0929 12.9171 84.8364 12.7696C84.5799 12.6221 84.4517 12.3977 84.4517 12.0963C84.4517 11.9168 84.5286 11.7661 84.6825 11.6443C84.8428 11.5224 85.032 11.4615 85.25 11.4615C85.4424 11.4615 85.6283 11.5321 85.8079 11.6731C85.9938 11.8142 86.1477 12.0034 86.2695 12.2406C86.6414 12.2406 86.9813 12.1669 87.2891 12.0194C87.6033 11.8719 87.8501 11.6731 88.0297 11.4231C88.2156 11.1666 88.3086 10.8908 88.3086 10.5959C88.3086 10.3522 88.2445 10.115 88.1162 9.88413C87.9944 9.6533 87.7988 9.46414 87.5295 9.31666C87.2602 9.16277 86.9236 9.08582 86.5196 9.08582C86.3529 9.08582 86.1573 9.10826 85.9329 9.15315C85.8431 9.17238 85.779 9.182 85.7405 9.182C85.6828 9.182 85.6347 9.15956 85.5963 9.11467C85.5578 9.06979 85.5385 9.01849 85.5385 8.96078L86.1156 5.61363L87.1448 5.95989L86.7408 8.39331C87.2794 8.39331 87.7604 8.48308 88.1836 8.66262C88.6132 8.84216 88.9466 9.09223 89.1839 9.41284C89.4275 9.73345 89.5494 10.0957 89.5494 10.4997C89.5494 10.9742 89.3955 11.4006 89.0877 11.7789C88.7863 12.1572 88.3663 12.4522 87.8277 12.6638C87.2955 12.8818 86.6991 12.9908 86.0387 12.9908ZM87.9142 6.24844C87.132 6.24844 86.5549 6.1747 86.183 6.02722C85.8111 5.87974 85.6251 5.65531 85.6251 5.35394C85.6251 5.16157 85.6764 5.0173 85.779 4.92112C85.888 4.81852 86.0483 4.76722 86.2599 4.76722C86.4395 4.76722 86.603 4.82814 86.7504 4.94997C86.9043 5.0718 87.0294 5.23211 87.1256 5.43088C87.4846 5.41165 87.8886 5.33791 88.3375 5.20966C88.7927 5.07501 89.2352 4.90829 89.6648 4.70952C89.7097 4.77364 89.7417 4.8602 89.761 4.96921C89.7866 5.0718 89.7994 5.18081 89.7994 5.29623C89.7994 5.52065 89.7161 5.7034 89.5494 5.84447C89.389 5.98554 89.1678 6.08813 88.8857 6.15225C88.61 6.21637 88.2862 6.24844 87.9142 6.24844Z" fill="black"/>
<path d="M76.2949 42.2096C73.7655 45.6507 66.4491 49.3561 63.2876 48.7407C62.9394 48.673 62.2379 48.5547 61.2619 48.3977C59.2497 48.0737 56.0715 47.5834 52.419 47.0246C48.0596 46.3582 43.0244 45.5942 38.4914 44.8998C31.928 43.8945 26.4166 43.0352 25.5309 42.8275C23.9112 42.4476 21.9199 41.5231 20.3899 39.3707C19.787 38.5221 19.2558 37.4827 18.8469 36.2104C18.6007 35.445 18.4427 34.5702 18.3726 33.6392C18.329 33.0587 18.3197 32.4562 18.3447 31.8448C18.3955 30.5986 18.5902 29.3148 18.9294 28.1037C19.3994 26.4255 20.147 24.8857 21.1767 23.7754C21.8904 23.0058 22.7391 22.4426 23.7249 22.1824C25.5563 21.6988 39.0243 23.8914 51.4794 26.1024C56.0701 26.9178 60.5233 27.7353 64.2053 28.4227H64.2063C68.7637 29.2733 72.14 29.9241 73.1338 30.1226C73.2364 30.1432 73.337 30.1682 73.4365 30.1978C77.1932 31.3184 78.7585 38.8572 76.2949 42.2096Z" fill="white"/>
<path opacity="0.6" d="M64.2048 28.4228C64.0024 28.3956 57.6142 31.4463 54.9832 35.6515C53.0645 38.7183 52.4361 44.0983 52.4187 47.0245C48.0594 46.3581 43.0242 45.5941 38.4911 44.8997L37.4785 30.8851C37.4785 30.8851 44.8778 28.3577 51.4788 26.1025C56.0696 26.9179 60.523 27.7354 64.2048 28.4228Z" fill="white"/>
<path d="M63.7642 25.5347C63.4871 26.023 63.1459 26.4675 62.7456 26.8582C60.5206 29.0316 45.2641 43.6149 39.2231 48.7714C38.1515 49.6859 37.3698 50.3039 37.0024 50.5032C34.5634 51.8266 27.0662 52.1796 22.1889 49.5327C17.311 46.8861 15.8658 38.2018 17.5821 35.3093C19.7212 31.704 46.9383 13.2714 49.648 11.8598C50.5256 11.4024 51.6775 11.1307 52.9665 11.1186C54.1134 11.1073 55.3688 11.3026 56.6351 11.7564C57.4614 12.0524 58.2924 12.4587 59.101 12.9897C59.9604 13.5539 60.7948 14.2594 61.5711 15.1239C61.8119 15.3917 62.0372 15.6619 62.2476 15.933C62.7549 16.5865 63.1754 17.2483 63.5139 17.908C64.152 19.151 64.5003 20.388 64.59 21.5576C64.7041 23.0339 64.4071 24.4018 63.7642 25.5347Z" fill="white"/>
<path d="M74.4275 41.6915C72.0186 44.9687 65.0505 48.4977 62.0396 47.9116C61.7079 47.8471 61.0398 47.7344 60.1103 47.5849C58.1939 47.2763 55.167 46.8094 51.6884 46.2772C47.5367 45.6425 42.7412 44.915 38.424 44.2536C32.1731 43.2961 26.9242 42.4778 26.0807 42.2799C24.538 41.9182 22.6415 41.0376 21.1844 38.9878C20.6103 38.1796 20.1043 37.1897 19.7149 35.9779C19.4805 35.249 19.33 34.4159 19.2632 33.5292C19.2217 32.9763 19.2129 32.4025 19.2366 31.8202C19.285 30.6334 19.4704 29.4107 19.7935 28.2572C20.2411 26.6589 20.9531 25.1925 21.9338 24.135C22.6135 23.4021 23.4218 22.8657 24.3606 22.6179C26.1048 22.1573 38.9315 24.2456 50.7936 26.3513C55.1657 27.1278 59.4068 27.9064 62.9135 28.561H62.9145C67.2549 29.3711 70.4704 29.991 71.4169 30.1801C71.5146 30.1996 71.6104 30.2234 71.7052 30.2516C75.283 31.3189 76.7737 38.4987 74.4275 41.6915Z" fill="url(#paint0_linear_126_257)"/>
<path opacity="0.3" d="M68.4227 32.0827L65.9784 34.6617C65.9784 34.6617 47.5147 29.5749 42.6737 29.432C39.022 29.3237 25.9813 28.6042 19.793 28.2572C20.2406 26.6589 20.9526 25.1925 21.9333 24.135C26.1977 25.35 34.1239 27.437 38.7129 27.6408C45.1675 27.9271 68.4227 32.0827 68.4227 32.0827Z" fill="url(#paint1_linear_126_257)"/>
<path opacity="0.3" d="M65.4579 36.7065L61.6537 42.1883C61.6537 42.1883 50.3759 36.0824 43.2611 35.2645C37.7976 34.6363 24.9387 33.8571 19.2632 33.5291C19.2217 32.9762 19.2129 32.4024 19.2366 31.8201C26.4499 31.7387 41.0925 31.4138 43.7745 31.7959C47.295 32.2974 65.4579 36.7065 65.4579 36.7065Z" fill="url(#paint2_linear_126_257)"/>
<path opacity="0.3" d="M60.1104 47.5847C52.5954 46.3745 27.9948 42.7282 26.0808 42.2797C24.5382 41.9179 22.6417 41.0374 21.1846 38.9875C29.8538 39.6151 43.738 40.967 46.6348 41.4359C49.6662 41.9266 56.5523 45.6011 60.1104 47.5847Z" fill="url(#paint3_linear_126_257)"/>
<path opacity="0.4" d="M74.4275 41.6914C72.0186 44.9686 65.0505 48.4976 62.0396 47.9115C61.7079 47.847 61.0398 47.7344 60.1103 47.5849C58.1939 47.2763 55.167 46.8093 51.6884 46.2771C47.5367 45.6425 42.7412 44.9149 38.424 44.2535C32.1731 43.2961 26.9242 42.4777 26.0807 42.2799C24.538 41.9181 22.6415 41.0376 21.1844 38.9877C20.6103 38.1795 20.1043 37.1896 19.7149 35.9778C19.4805 35.2489 19.33 34.4158 19.2632 33.5292C19.2217 32.9762 19.2129 32.4024 19.2366 31.8201C19.285 30.6333 19.4704 29.4106 19.7935 28.2572C20.1314 27.0498 20.6207 25.9177 21.2624 24.9802C21.4312 26.5454 22.1867 27.9296 23.5179 28.1059C25.5798 28.3792 29.9348 25.2406 31.8857 23.2483C37.0352 23.9695 44.0693 25.1575 50.7934 26.3514C54.3901 26.9901 57.8982 27.6304 60.9817 28.2017C57.3744 30.6475 52.731 37.3028 54.4829 40.5593C56.5751 44.4487 67.7949 45.6068 74.4275 41.6914Z" fill="url(#paint4_linear_126_257)" fill-opacity="0.1"/>
<path opacity="0.6" d="M62.9137 28.5611C62.7209 28.5352 56.6369 31.4406 54.1311 35.4456C52.3038 38.3664 51.7053 43.4902 51.6888 46.277C47.537 45.6424 42.7415 44.9148 38.4243 44.2535L37.46 30.9061C37.46 30.9061 44.507 28.4991 50.7936 26.3513C55.1658 27.1278 59.4072 27.9064 62.9137 28.5611Z" fill="url(#paint5_linear_126_257)" fill-opacity="0.1"/>
<path d="M72.3424 42.9502C68.4805 46.2395 62.7324 47.7622 60.7076 46.7237C58.6824 45.6857 59.7456 39.5049 59.7456 39.5049L55.5439 37.7249L61.5176 36.4887C61.5176 36.4887 65.3245 31.4279 69.2627 30.9509C75.7927 30.1599 75.7625 40.0369 72.3424 42.9502Z" fill="url(#paint6_linear_126_257)"/>
<path opacity="0.4" d="M68.9032 35.441C65.5871 36.3353 63.3542 42.8477 65.5557 42.659C70.2297 42.2579 74.3848 33.9623 68.9032 35.441ZM66.5324 41.4334C65.0138 41.5638 66.8596 36.7343 69.1467 36.1175C72.9279 35.0975 69.7562 41.1567 66.5324 41.4334Z" fill="url(#paint7_linear_126_257)"/>
<path opacity="0.4" d="M70.2554 32.793C66.3211 33.5443 61.3411 39.6778 61.5482 43.4918C61.7217 46.6896 65.534 45.9004 69.406 43.5139C72.9421 41.3343 75.6543 31.762 70.2554 32.793ZM69.115 42.7712C66.026 44.3639 63.2551 44.6698 63.1101 41.9987C62.9372 38.8125 66.6516 34.4907 69.9382 33.8631C74.4482 33.0018 72.2037 41.1781 69.115 42.7712Z" fill="url(#paint8_linear_126_257)"/>
<path opacity="0.4" d="M68.76 38.0221C67.3394 38.2777 66.477 40.2984 67.6662 39.8105C68.8551 39.3229 69.6636 37.8595 68.76 38.0221Z" fill="url(#paint9_linear_126_257)"/>
<path opacity="0.4" d="M71.7052 30.2518C67.4247 29.249 64.0259 31.6136 61.0497 35.096C60.7231 35.4783 55.5439 37.7251 55.5439 37.7251L59.7456 39.5051C58.4614 41.2725 58.0596 45.6655 60.1107 47.5849C61.0403 47.7346 61.7085 47.8472 62.04 47.9115C65.051 48.4976 72.019 44.9686 74.4279 41.6915C76.7742 38.4987 75.2834 31.3188 71.7052 30.2518Z" fill="url(#paint10_linear_126_257)" fill-opacity="0.1"/>
<path opacity="0.4" d="M61.5176 36.489L62.9136 38.2205L55.5439 37.725L61.5176 36.489Z" fill="url(#paint11_linear_126_257)" fill-opacity="0.1"/>
<path d="M62.4941 25.8104C62.2302 26.2754 61.9052 26.6988 61.524 27.0709C59.4049 29.1408 44.8749 43.0297 39.1215 47.9407C38.101 48.8116 37.3565 49.4002 37.0066 49.59C34.6837 50.8504 27.5435 51.1866 22.8984 48.6658C18.2528 46.1451 16.8765 37.8744 18.511 35.1196C20.5482 31.686 46.4694 14.131 49.05 12.7866C49.8859 12.351 50.9829 12.0923 52.2105 12.0808C53.3028 12.07 54.4984 12.256 55.7045 12.6882C56.4914 12.9701 57.2829 13.357 58.0529 13.8627C58.8715 14.4001 59.666 15.072 60.4054 15.8953C60.6347 16.1504 60.8493 16.4077 61.0497 16.6659C61.5329 17.2883 61.9333 17.9185 62.2557 18.5469C62.8635 19.7306 63.1951 20.9088 63.2806 22.0227C63.3893 23.4287 63.1063 24.7314 62.4941 25.8104Z" fill="url(#paint12_linear_126_257)"/>
<path opacity="0.3" d="M55.7046 12.6881C52.4977 14.9621 45.7167 19.782 39.9141 23.9859C31.9982 29.7208 26.2195 38.6631 26.2195 38.8941C26.2195 39.125 20.52 37.89 20.721 36.0016C20.922 34.1133 32.1566 27.2198 38.1726 23.2764C42.1921 20.6418 48.4027 15.4185 52.2106 12.0805C53.3029 12.0701 54.4985 12.2561 55.7046 12.6881Z" fill="url(#paint13_linear_126_257)"/>
<path opacity="0.3" d="M61.0496 16.6659C57.6129 18.0435 52.3634 20.2056 48.1467 22.1941C41.2597 25.4414 30.2041 38.9762 30.2041 38.9762L28.0449 38.0093C28.0449 38.0093 37.1437 28.8435 41.6556 25.1322C44.6837 22.6415 52.9167 17.2259 58.0528 13.8625C58.8714 14.3999 59.666 15.0718 60.4054 15.8952C60.6347 16.1504 60.8492 16.4078 61.0496 16.6659Z" fill="url(#paint14_linear_126_257)"/>
<path opacity="0.3" d="M63.281 22.0229C59.8268 23.2102 55.4084 24.9484 52.0258 26.9879C45.6139 30.8539 34.8649 46.0553 34.8649 46.0553C34.8649 46.0553 31.61 40.7977 31.7609 40.0922C31.9115 39.3869 43.4765 30.0033 48.226 26.3695C51.1151 24.1588 57.5489 20.8611 62.2559 18.5471C62.8639 19.7309 63.1955 20.9091 63.281 22.0229Z" fill="url(#paint15_linear_126_257)"/>
<path opacity="0.3" d="M62.4946 25.8103C62.2307 26.2753 61.9057 26.6987 61.5245 27.0708C59.4054 29.1407 44.8754 43.0296 39.1221 47.9406C42.3553 43.2831 47.8703 35.4596 49.889 33.3281C51.6578 31.46 57.8174 28.153 62.4946 25.8103Z" fill="url(#paint16_linear_126_257)"/>
<path opacity="0.4" d="M63.2806 22.0232C63.1951 20.9093 62.8637 19.7311 62.2557 18.5473C61.9333 17.9188 61.5329 17.2887 61.0497 16.6664C60.8493 16.4082 60.6347 16.1507 60.4054 15.8958C59.666 15.0725 58.8715 14.4006 58.0529 13.8632C57.2829 13.3575 56.4914 12.9704 55.7045 12.6887C54.4984 12.2566 53.3026 12.0707 52.2105 12.0812C50.9829 12.0927 49.8859 12.3515 49.05 12.7871C46.4694 14.1315 20.5482 31.6863 18.511 35.1199C16.8765 37.8747 18.2528 46.1454 22.8984 48.666C27.5435 51.1869 34.6837 50.8506 37.0066 49.5903C37.3565 49.4005 38.101 48.8119 39.1215 47.941C44.8749 43.03 59.4049 29.1412 61.524 27.0712C61.9052 26.6991 62.2302 26.2755 62.4941 25.8107C63.1063 24.7315 63.3893 23.4288 63.2806 22.0232ZM52.4312 31.9947C47.7497 35.3051 39.4361 39.8806 35.1266 35.2646C30.817 30.6486 33.2529 26.2225 37.4603 22.5534C47.2428 14.0221 55.8735 12.7883 59.7146 17.2043C63.8848 21.9992 57.1127 28.6845 52.4312 31.9947Z" fill="url(#paint17_linear_126_257)" fill-opacity="0.1"/>
<path opacity="0.4" d="M19.8285 36.314C18.4574 37.0838 18.0334 43.9784 21.7658 47.3692C25.0839 50.3837 35.2669 50.1663 36.152 48.3037C37.0374 46.4411 20.9783 35.6684 19.8285 36.314Z" fill="url(#paint18_linear_126_257)" fill-opacity="0.1"/>
<path d="M36.6655 47.3331C36.4629 47.9624 36.1249 48.4541 35.6447 48.7376C33.3138 50.1131 24.9342 48.713 22.6035 46.9107C20.4565 45.2505 18.3977 39.3672 19.4787 36.8753C19.5713 36.6617 19.687 36.4729 19.8277 36.314C22.642 33.1352 29.769 34.9137 33.3623 37.9969C36.2153 40.4444 37.4459 44.9088 36.6655 47.3331Z" fill="url(#paint19_linear_126_257)"/>
<path opacity="0.4" d="M34.179 41.8331C30.8825 35.739 23.7231 35.843 21.6111 37.3522C19.3633 38.959 21.5083 46.4081 26.5044 47.4646C31.5007 48.5211 37.4752 47.9269 34.179 41.8331ZM26.0409 46.6503C22.0944 45.8158 20.7627 39.5271 22.5383 38.2577C24.2063 37.0657 29.515 36.8149 32.1186 41.6284C34.7227 46.4419 29.9873 47.4849 26.0409 46.6503Z" fill="url(#paint20_linear_126_257)"/>
<path opacity="0.4" d="M31.2731 43.6767C30.8198 41.1156 27.7442 39.1805 25.4459 39.2181C21.9928 39.2751 23.1474 43.9295 25.8667 44.9415C28.5859 45.9532 31.6651 45.8922 31.2731 43.6767ZM26.2633 44.2398C24.2929 43.5067 22.9118 40.1339 25.4134 40.0928C27.0787 40.0654 29.8515 41.4679 30.1798 43.3234C30.4639 44.9288 28.2332 44.9727 26.2633 44.2398Z" fill="url(#paint21_linear_126_257)"/>
<path opacity="0.4" d="M26.5136 41.6348C24.6935 41.841 26.4717 43.465 27.6898 43.4141C28.9076 43.3633 28.3091 41.4316 26.5136 41.6348Z" fill="url(#paint22_linear_126_257)"/>
<path opacity="0.4" d="M37.0066 49.5898C34.6837 50.8502 27.5435 51.1864 22.8984 48.6656C18.2528 46.1449 16.8765 37.8742 18.511 35.1194C22.5288 30.8786 30.6791 34.1959 33.6083 36.4887C36.5377 38.7818 40.7828 45.5273 37.0066 49.5898Z" fill="url(#paint23_linear_126_257)" fill-opacity="0.1"/>
<defs>
<linearGradient id="paint0_linear_126_257" x1="45.2232" y1="44.9805" x2="49.3675" y2="24.3642" gradientUnits="userSpaceOnUse">
<stop offset="1e-08" stop-color="#AE3353"/>
<stop offset="0.0887" stop-color="#AF3A50"/>
<stop offset="0.3713" stop-color="#B24D47"/>
<stop offset="0.6682" stop-color="#B45743"/>
<stop offset="1" stop-color="#B55B41"/>
</linearGradient>
<linearGradient id="paint1_linear_126_257" x1="19.793" y1="29.3983" x2="68.4226" y2="29.3983" gradientUnits="userSpaceOnUse">
<stop offset="1e-08" stop-color="#AE3353"/>
<stop offset="0.0887" stop-color="#AF3A50"/>
<stop offset="0.3713" stop-color="#B24D47"/>
<stop offset="0.6682" stop-color="#B45743"/>
<stop offset="1" stop-color="#B55B41"/>
</linearGradient>
<linearGradient id="paint2_linear_126_257" x1="19.2237" y1="36.901" x2="65.4579" y2="36.901" gradientUnits="userSpaceOnUse">
<stop offset="1e-08" stop-color="#AE3353"/>
<stop offset="0.0887" stop-color="#AF3A50"/>
<stop offset="0.3713" stop-color="#B24D47"/>
<stop offset="0.6682" stop-color="#B45743"/>
<stop offset="1" stop-color="#B55B41"/>
</linearGradient>
<linearGradient id="paint3_linear_126_257" x1="21.1846" y1="43.2862" x2="60.1105" y2="43.2862" gradientUnits="userSpaceOnUse">
<stop offset="1e-08" stop-color="#AE3353"/>
<stop offset="0.0887" stop-color="#AF3A50"/>
<stop offset="0.3713" stop-color="#B24D47"/>
<stop offset="0.6682" stop-color="#B45743"/>
<stop offset="1" stop-color="#B55B41"/>
</linearGradient>
<linearGradient id="paint4_linear_126_257" x1="53.3331" y1="57.7668" x2="54.6413" y2="61.9125" gradientUnits="userSpaceOnUse">
<stop stop-color="#8613D1"/>
<stop offset="0.1536" stop-color="#8816D2"/>
<stop offset="0.2867" stop-color="#8D21D4"/>
<stop offset="0.4122" stop-color="#9633D7"/>
<stop offset="0.5332" stop-color="#A34CDC"/>
<stop offset="0.6508" stop-color="#B46CE2"/>
<stop offset="0.7659" stop-color="#C894EA"/>
<stop offset="0.8791" stop-color="#E0C3F3"/>
<stop offset="0.9879" stop-color="#FCF9FE"/>
<stop offset="1" stop-color="white"/>
</linearGradient>
<linearGradient id="paint5_linear_126_257" x1="49.5072" y1="35.3335" x2="58.6073" y2="44.1479" gradientUnits="userSpaceOnUse">
<stop stop-color="#8613D1"/>
<stop offset="0.1536" stop-color="#8816D2"/>
<stop offset="0.2867" stop-color="#8D21D4"/>
<stop offset="0.4122" stop-color="#9633D7"/>
<stop offset="0.5332" stop-color="#A34CDC"/>
<stop offset="0.6508" stop-color="#B46CE2"/>
<stop offset="0.7659" stop-color="#C894EA"/>
<stop offset="0.8791" stop-color="#E0C3F3"/>
<stop offset="0.9879" stop-color="#FCF9FE"/>
<stop offset="1" stop-color="white"/>
</linearGradient>
<linearGradient id="paint6_linear_126_257" x1="61.5156" y1="46.2073" x2="67.2201" y2="33.1435" gradientUnits="userSpaceOnUse">
<stop offset="1e-08" stop-color="#EF9362"/>
<stop offset="0.1983" stop-color="#F5A75F"/>
<stop offset="0.4469" stop-color="#FBBA5D"/>
<stop offset="0.7081" stop-color="#FEC45B"/>
<stop offset="1" stop-color="#FFC85B"/>
</linearGradient>
<linearGradient id="paint7_linear_126_257" x1="64.5369" y1="39.818" x2="73.5038" y2="37.2647" gradientUnits="userSpaceOnUse">
<stop offset="1e-08" stop-color="#EF9362"/>
<stop offset="0.1983" stop-color="#F5A75F"/>
<stop offset="0.4469" stop-color="#FBBA5D"/>
<stop offset="0.7081" stop-color="#FEC45B"/>
<stop offset="1" stop-color="#FFC85B"/>
</linearGradient>
<linearGradient id="paint8_linear_126_257" x1="61.44" y1="40.8057" x2="76.7049" y2="36.459" gradientUnits="userSpaceOnUse">
<stop offset="1e-08" stop-color="#EF9362"/>
<stop offset="0.1983" stop-color="#F5A75F"/>
<stop offset="0.4469" stop-color="#FBBA5D"/>
<stop offset="0.7081" stop-color="#FEC45B"/>
<stop offset="1" stop-color="#FFC85B"/>
</linearGradient>
<linearGradient id="paint9_linear_126_257" x1="67.1017" y1="39.2203" x2="69.7335" y2="38.4709" gradientUnits="userSpaceOnUse">
<stop offset="1e-08" stop-color="#EF9362"/>
<stop offset="0.1983" stop-color="#F5A75F"/>
<stop offset="0.4469" stop-color="#FBBA5D"/>
<stop offset="0.7081" stop-color="#FEC45B"/>
<stop offset="1" stop-color="#FFC85B"/>
</linearGradient>
<linearGradient id="paint10_linear_126_257" x1="64.361" y1="29.5668" x2="67.2563" y2="49.1212" gradientUnits="userSpaceOnUse">
<stop stop-color="#8613D1"/>
<stop offset="0.0948" stop-color="#891AD2"/>
<stop offset="0.2279" stop-color="#932CD6"/>
<stop offset="0.3839" stop-color="#A24ADC"/>
<stop offset="0.5571" stop-color="#B874E4"/>
<stop offset="0.7445" stop-color="#D3AAEE"/>
<stop offset="0.941" stop-color="#F4EAFB"/>
<stop offset="1" stop-color="white"/>
</linearGradient>
<linearGradient id="paint11_linear_126_257" x1="59.2288" y1="39.0187" x2="59.2288" y2="44.4803" gradientUnits="userSpaceOnUse">
<stop stop-color="#8613D1"/>
<stop offset="0.1536" stop-color="#8816D2"/>
<stop offset="0.2867" stop-color="#8D21D4"/>
<stop offset="0.4122" stop-color="#9633D7"/>
<stop offset="0.5332" stop-color="#A34CDC"/>
<stop offset="0.6508" stop-color="#B46CE2"/>
<stop offset="0.7659" stop-color="#C894EA"/>
<stop offset="0.8791" stop-color="#E0C3F3"/>
<stop offset="0.9879" stop-color="#FCF9FE"/>
<stop offset="1" stop-color="white"/>
</linearGradient>
<linearGradient id="paint12_linear_126_257" x1="38.2001" y1="44.5641" x2="42.2886" y2="18.9061" gradientUnits="userSpaceOnUse">
<stop offset="1e-08" stop-color="#AE3353"/>
<stop offset="0.0887" stop-color="#AF3A50"/>
<stop offset="0.3713" stop-color="#B24D47"/>
<stop offset="0.6682" stop-color="#B45743"/>
<stop offset="1" stop-color="#B55B41"/>
</linearGradient>
<linearGradient id="paint13_linear_126_257" x1="20.7158" y1="25.5011" x2="55.7047" y2="25.5011" gradientUnits="userSpaceOnUse">
<stop offset="1e-08" stop-color="#AE3353"/>
<stop offset="0.0887" stop-color="#AF3A50"/>
<stop offset="0.3713" stop-color="#B24D47"/>
<stop offset="0.6682" stop-color="#B45743"/>
<stop offset="1" stop-color="#B55B41"/>
</linearGradient>
<linearGradient id="paint14_linear_126_257" x1="28.0449" y1="26.4194" x2="61.0497" y2="26.4194" gradientUnits="userSpaceOnUse">
<stop offset="1e-08" stop-color="#AE3353"/>
<stop offset="0.0887" stop-color="#AF3A50"/>
<stop offset="0.3713" stop-color="#B24D47"/>
<stop offset="0.6682" stop-color="#B45743"/>
<stop offset="1" stop-color="#B55B41"/>
</linearGradient>
<linearGradient id="paint15_linear_126_257" x1="31.756" y1="32.3012" x2="63.281" y2="32.3012" gradientUnits="userSpaceOnUse">
<stop offset="1e-08" stop-color="#AE3353"/>
<stop offset="0.0887" stop-color="#AF3A50"/>
<stop offset="0.3713" stop-color="#B24D47"/>
<stop offset="0.6682" stop-color="#B45743"/>
<stop offset="1" stop-color="#B55B41"/>
</linearGradient>
<linearGradient id="paint16_linear_126_257" x1="39.1221" y1="36.8753" x2="62.4945" y2="36.8753" gradientUnits="userSpaceOnUse">
<stop offset="1e-08" stop-color="#AE3353"/>
<stop offset="0.0887" stop-color="#AF3A50"/>
<stop offset="0.3713" stop-color="#B24D47"/>
<stop offset="0.6682" stop-color="#B45743"/>
<stop offset="1" stop-color="#B55B41"/>
</linearGradient>
<linearGradient id="paint17_linear_126_257" x1="50.4383" y1="42.94" x2="29.1749" y2="16.8031" gradientUnits="userSpaceOnUse">
<stop stop-color="#8613D1"/>
<stop offset="0.1536" stop-color="#8816D2"/>
<stop offset="0.2867" stop-color="#8D21D4"/>
<stop offset="0.4122" stop-color="#9633D7"/>
<stop offset="0.5332" stop-color="#A34CDC"/>
<stop offset="0.6508" stop-color="#B46CE2"/>
<stop offset="0.7659" stop-color="#C894EA"/>
<stop offset="0.8791" stop-color="#E0C3F3"/>
<stop offset="0.9879" stop-color="#FCF9FE"/>
<stop offset="1" stop-color="white"/>
</linearGradient>
<linearGradient id="paint18_linear_126_257" x1="27.0045" y1="53.792" x2="26.7606" y2="58.7864" gradientUnits="userSpaceOnUse">
<stop stop-color="#8613D1"/>
<stop offset="0.1536" stop-color="#8816D2"/>
<stop offset="0.2867" stop-color="#8D21D4"/>
<stop offset="0.4122" stop-color="#9633D7"/>
<stop offset="0.5332" stop-color="#A34CDC"/>
<stop offset="0.6508" stop-color="#B46CE2"/>
<stop offset="0.7659" stop-color="#C894EA"/>
<stop offset="0.8791" stop-color="#E0C3F3"/>
<stop offset="0.9879" stop-color="#FCF9FE"/>
<stop offset="1" stop-color="white"/>
</linearGradient>
<linearGradient id="paint19_linear_126_257" x1="25.5142" y1="47.722" x2="29.5517" y2="38.4756" gradientUnits="userSpaceOnUse">
<stop offset="1e-08" stop-color="#EF9362"/>
<stop offset="0.1983" stop-color="#F5A75F"/>
<stop offset="0.4469" stop-color="#FBBA5D"/>
<stop offset="0.7081" stop-color="#FEC45B"/>
<stop offset="1" stop-color="#FFC85B"/>
</linearGradient>
<linearGradient id="paint20_linear_126_257" x1="22.2882" y1="43.6852" x2="36.5552" y2="39.6227" gradientUnits="userSpaceOnUse">
<stop offset="1e-08" stop-color="#EF9362"/>
<stop offset="0.1983" stop-color="#F5A75F"/>
<stop offset="0.4469" stop-color="#FBBA5D"/>
<stop offset="0.7081" stop-color="#FEC45B"/>
<stop offset="1" stop-color="#FFC85B"/>
</linearGradient>
<linearGradient id="paint21_linear_126_257" x1="24.1375" y1="43.2659" x2="32.0667" y2="41.008" gradientUnits="userSpaceOnUse">
<stop offset="1e-08" stop-color="#EF9362"/>
<stop offset="0.1983" stop-color="#F5A75F"/>
<stop offset="0.4469" stop-color="#FBBA5D"/>
<stop offset="0.7081" stop-color="#FEC45B"/>
<stop offset="1" stop-color="#FFC85B"/>
</linearGradient>
<linearGradient id="paint22_linear_126_257" x1="26.0365" y1="42.8132" x2="28.65" y2="42.069" gradientUnits="userSpaceOnUse">
<stop offset="1e-08" stop-color="#EF9362"/>
<stop offset="0.1983" stop-color="#F5A75F"/>
<stop offset="0.4469" stop-color="#FBBA5D"/>
<stop offset="0.7081" stop-color="#FEC45B"/>
<stop offset="1" stop-color="#FFC85B"/>
</linearGradient>
<linearGradient id="paint23_linear_126_257" x1="27.7371" y1="43.3661" x2="20.9758" y2="68.8815" gradientUnits="userSpaceOnUse">
<stop stop-color="#8613D1"/>
<stop offset="0.1536" stop-color="#8816D2"/>
<stop offset="0.2867" stop-color="#8D21D4"/>
<stop offset="0.4122" stop-color="#9633D7"/>
<stop offset="0.5332" stop-color="#A34CDC"/>
<stop offset="0.6508" stop-color="#B46CE2"/>
<stop offset="0.7659" stop-color="#C894EA"/>
<stop offset="0.8791" stop-color="#E0C3F3"/>
<stop offset="0.9879" stop-color="#FCF9FE"/>
<stop offset="1" stop-color="white"/>
</linearGradient>
</defs>
</svg>
