<svg width="95" height="61" viewBox="0 0 95 61" fill="none" xmlns="http://www.w3.org/2000/svg">
<path d="M93.623 0.75V59.96H0.75V0.75H93.623Z" fill="#FFC270" stroke="black" stroke-width="1.5"/>
<path d="M80.8451 11.7405C80.1525 11.7405 79.5947 11.516 79.1715 11.0672C78.7547 10.6119 78.5463 9.95467 78.5463 9.09544C78.5463 8.16567 78.7739 7.27438 79.2292 6.42156C79.6909 5.56233 80.2519 4.86982 80.9124 4.34402C81.5792 3.81181 82.182 3.54571 82.7206 3.54571C82.9386 3.54571 83.1085 3.58739 83.2304 3.67074C83.3586 3.74769 83.4676 3.89196 83.5574 4.10357C83.0893 4.27669 82.6437 4.4915 82.2205 4.74799C81.8037 5.00447 81.3869 5.36997 80.9701 5.84447C80.5597 6.31897 80.207 6.92171 79.9121 7.6527H79.9698C80.2391 7.29362 80.5244 7.04354 80.8258 6.90248C81.1272 6.755 81.4478 6.68126 81.7876 6.68126C82.2108 6.68126 82.5731 6.77744 82.8745 6.9698C83.1823 7.16217 83.4131 7.42507 83.567 7.7585C83.7273 8.09193 83.8075 8.47346 83.8075 8.90307C83.8075 9.42887 83.6696 9.90978 83.3939 10.3458C83.1246 10.7818 82.7623 11.1249 82.307 11.375C81.8518 11.6186 81.3644 11.7405 80.8451 11.7405ZM80.9893 10.9902C81.2266 10.9902 81.467 10.9101 81.7107 10.7498C81.9544 10.5895 82.1595 10.3522 82.3263 10.038C82.493 9.71742 82.5763 9.33589 82.5763 8.89345C82.5763 8.48308 82.4737 8.14002 82.2686 7.8643C82.0634 7.58217 81.7235 7.4411 81.249 7.4411C81.031 7.4411 80.8066 7.51804 80.5757 7.67194C80.3449 7.82583 80.1525 8.05025 79.9986 8.34521C79.8448 8.64017 79.7678 8.99284 79.7678 9.40322C79.7678 9.85207 79.864 10.2304 80.0564 10.5382C80.2487 10.8395 80.5597 10.9902 80.9893 10.9902ZM86.3378 13.0004C85.7928 13.0004 85.3856 12.9267 85.1163 12.7792C84.8534 12.6317 84.722 12.4105 84.722 12.1156C84.722 11.9296 84.7957 11.7757 84.9432 11.6539C85.0971 11.5321 85.283 11.4711 85.501 11.4711C85.6934 11.4711 85.8826 11.5417 86.0685 11.6827C86.2545 11.8238 86.4084 12.0162 86.5302 12.2598C86.9149 12.2598 87.2676 12.1861 87.5882 12.0386C87.9088 11.8911 88.1621 11.6892 88.348 11.4327C88.534 11.1762 88.627 10.8941 88.627 10.5863C88.627 10.3105 88.55 10.0509 88.3961 9.80719C88.2486 9.55711 88.0691 9.40002 87.8575 9.33589C87.4343 9.61803 87.0752 9.7591 86.7803 9.7591C86.6071 9.7591 86.4597 9.7078 86.3378 9.6052C86.2224 9.4962 86.1647 9.36475 86.1647 9.21086C86.1647 8.98643 86.2609 8.80689 86.4532 8.67223C86.652 8.53758 86.9117 8.47025 87.2323 8.47025C87.7325 8.47025 88.1813 8.56002 88.5789 8.73956C88.9764 8.91269 89.2874 9.15315 89.5118 9.46093C89.7363 9.76871 89.8485 10.1182 89.8485 10.5093C89.8485 10.9838 89.6978 11.4102 89.3964 11.7885C89.0951 12.1669 88.6751 12.4618 88.1364 12.6734C87.6042 12.8914 87.0047 13.0004 86.3378 13.0004ZM87.2516 8.76842C87.7068 8.6017 88.0723 8.34842 88.348 8.00858C88.6238 7.66873 88.7616 7.30003 88.7616 6.90248C88.7616 6.48569 88.6686 6.1747 88.4827 5.96951C88.2967 5.76432 88.0146 5.66172 87.6363 5.66172C87.3798 5.66172 87.1426 5.73226 86.9245 5.87332C86.7129 6.00798 86.5366 6.19714 86.3955 6.4408C86.2609 6.67805 86.1839 6.94416 86.1647 7.23912C85.9339 7.20705 85.7511 7.1237 85.6165 6.98904C85.4882 6.85439 85.4241 6.67805 85.4241 6.46004C85.4241 6.1266 85.5267 5.83164 85.7319 5.57516C85.9371 5.31867 86.2288 5.11989 86.6071 4.97883C86.9855 4.83776 87.4215 4.76722 87.9152 4.76722C88.3128 4.76722 88.6686 4.84417 88.9828 4.99806C89.297 5.15195 89.5407 5.36676 89.7138 5.64249C89.8934 5.91821 89.9831 6.2292 89.9831 6.57546C89.9831 7.03072 89.8292 7.47637 89.5215 7.91239C89.2201 8.34201 88.7841 8.73636 88.2134 9.09544L87.2516 8.76842Z" fill="black"/>
</svg>
