<svg width="95" height="61" viewBox="0 0 95 61" fill="none" xmlns="http://www.w3.org/2000/svg">
<path d="M93.623 0.75V59.96H0.75V0.75H93.623Z" fill="#D9D9D9" stroke="black" stroke-width="1.5"/>
<path d="M79.7722 13.0004C79.2272 13.0004 78.82 12.9267 78.5507 12.7792C78.2878 12.6317 78.1564 12.4105 78.1564 12.1156C78.1564 11.9296 78.2301 11.7757 78.3776 11.6539C78.5315 11.5321 78.7174 11.4711 78.9355 11.4711C79.1278 11.4711 79.317 11.5417 79.5029 11.6827C79.6889 11.8238 79.8428 12.0162 79.9646 12.2598C80.3493 12.2598 80.702 12.1861 81.0226 12.0386C81.3432 11.8911 81.5965 11.6892 81.7825 11.4327C81.9684 11.1762 82.0614 10.8941 82.0614 10.5863C82.0614 10.3105 81.9844 10.0509 81.8305 9.80719C81.6831 9.55711 81.5035 9.40002 81.2919 9.33589C80.8687 9.61803 80.5096 9.7591 80.2147 9.7591C80.0416 9.7591 79.8941 9.7078 79.7722 9.6052C79.6568 9.4962 79.5991 9.36475 79.5991 9.21086C79.5991 8.98643 79.6953 8.80689 79.8877 8.67223C80.0864 8.53758 80.3461 8.47025 80.6667 8.47025C81.1669 8.47025 81.6157 8.56002 82.0133 8.73956C82.4108 8.91269 82.7218 9.15315 82.9463 9.46093C83.1707 9.76871 83.2829 10.1182 83.2829 10.5093C83.2829 10.9838 83.1322 11.4102 82.8308 11.7885C82.5295 12.1669 82.1095 12.4618 81.5709 12.6734C81.0386 12.8914 80.4391 13.0004 79.7722 13.0004ZM80.686 8.76842C81.1412 8.6017 81.5067 8.34842 81.7825 8.00858C82.0582 7.66873 82.196 7.30003 82.196 6.90248C82.196 6.48569 82.1031 6.1747 81.9171 5.96951C81.7312 5.76432 81.449 5.66172 81.0707 5.66172C80.8142 5.66172 80.577 5.73226 80.359 5.87332C80.1474 6.00798 79.971 6.19714 79.83 6.4408C79.6953 6.67805 79.6183 6.94416 79.5991 7.23912C79.3683 7.20705 79.1855 7.1237 79.0509 6.98904C78.9226 6.85439 78.8585 6.67805 78.8585 6.46004C78.8585 6.1266 78.9611 5.83164 79.1663 5.57516C79.3715 5.31867 79.6632 5.11989 80.0416 4.97883C80.4199 4.83776 80.8559 4.76722 81.3496 4.76722C81.7472 4.76722 82.1031 4.84417 82.4173 4.99806C82.7315 5.15195 82.9751 5.36676 83.1482 5.64249C83.3278 5.91821 83.4176 6.2292 83.4176 6.57546C83.4176 7.03072 83.2637 7.47637 82.9559 7.91239C82.6545 8.34201 82.2185 8.73636 81.6478 9.09544L80.686 8.76842ZM87.314 11.7501C86.583 11.7501 86.0027 11.593 85.5731 11.2788C85.1499 10.9646 84.9383 10.5318 84.9383 9.98032C84.9383 9.71742 84.9992 9.46414 85.121 9.22047C85.2429 8.9704 85.4609 8.71712 85.7751 8.46063C86.0893 8.20415 86.5221 7.94766 87.0735 7.69117C87.5609 7.47316 87.9392 7.25515 88.2085 7.03713C88.4778 6.81271 88.6606 6.59469 88.7567 6.38309C88.8593 6.17149 88.9106 5.94706 88.9106 5.70981C88.9106 5.42768 88.8144 5.20325 88.6221 5.03654C88.4361 4.86982 88.1796 4.78646 87.8526 4.78646C87.5 4.78646 87.2082 4.87303 86.9774 5.04615C86.7529 5.21287 86.6407 5.45012 86.6407 5.7579C86.6407 5.97592 86.7081 6.1779 86.8427 6.36385C86.9774 6.54981 87.1441 6.71973 87.3429 6.87362C87.548 7.02751 87.8238 7.21667 88.17 7.4411C88.5804 7.704 88.9106 7.93484 89.1607 8.13361C89.4108 8.32598 89.6224 8.55361 89.7955 8.81651C89.9686 9.07941 90.0552 9.37437 90.0552 9.70139C90.0552 10.0989 89.9398 10.4548 89.7089 10.769C89.4781 11.0768 89.1543 11.3173 88.7375 11.4904C88.3207 11.6635 87.8462 11.7501 87.314 11.7501ZM87.4102 10.9421C87.8141 10.9421 88.1508 10.8428 88.4201 10.644C88.6894 10.4388 88.8241 10.1534 88.8241 9.78795C88.8241 9.60841 88.7599 9.43528 88.6317 9.26857C88.5035 9.10185 88.3464 8.94796 88.1604 8.80689C87.9745 8.66582 87.7148 8.47987 87.3813 8.24903C86.9581 7.9669 86.6151 7.72003 86.3522 7.50843C86.0957 7.29682 85.8745 7.05316 85.6885 6.77744C85.5026 6.50172 85.4096 6.20034 85.4096 5.87332C85.4096 5.50142 85.509 5.17119 85.7078 4.88264C85.9129 4.5941 86.2015 4.37288 86.5734 4.21898C86.9453 4.05868 87.3749 3.97853 87.8622 3.97853C88.5163 3.97853 89.0325 4.13563 89.4108 4.44982C89.7891 4.76402 89.9783 5.18402 89.9783 5.70981C89.9783 6.14584 89.7923 6.56584 89.4204 6.9698C89.0485 7.36736 88.5163 7.72003 87.8238 8.02781C87.2723 8.27147 86.8299 8.56323 86.4964 8.90307C86.1694 9.24292 86.0059 9.602 86.0059 9.98032C86.0059 10.2689 86.1374 10.5029 86.4003 10.6824C86.6632 10.8556 86.9998 10.9421 87.4102 10.9421Z" fill="black"/>
</svg>
