<svg width="95" height="61" viewBox="0 0 95 61" fill="none" xmlns="http://www.w3.org/2000/svg">
<path d="M93.623 0.75V59.96H0.75V0.75H93.623Z" fill="#D9D9D9" stroke="black" stroke-width="1.5"/>
<path d="M79.649 11.5C79.1489 11.5 78.7834 11.4295 78.5525 11.2884C78.3217 11.1473 78.2063 10.9261 78.2063 10.6247C78.2063 10.426 78.2768 10.1791 78.4179 9.88413C78.5589 9.58276 78.7898 9.14994 79.1104 8.58567C79.3861 8.11117 79.6073 7.71041 79.774 7.38339C79.9472 7.05637 80.0947 6.72294 80.2165 6.38309C80.3383 6.03683 80.3992 5.72264 80.3992 5.4405C80.3992 5.28661 80.3736 5.11669 80.3223 4.93074C80.4441 4.87303 80.5595 4.83135 80.6685 4.8057C80.7775 4.78005 80.8898 4.76722 81.0052 4.76722C81.5246 4.76722 81.7843 5.08142 81.7843 5.70981C81.7843 6.2805 81.5534 6.9698 81.0917 7.77774C80.6365 8.57926 79.9408 9.51864 79.0046 10.5959H82.1978L81.9189 11.3173C81.624 11.3686 81.2617 11.4134 80.8321 11.4519C80.4024 11.484 80.0081 11.5 79.649 11.5ZM82.4672 13.1351C82.2043 13.1351 81.9991 13.0485 81.8516 12.8754C81.7105 12.7087 81.64 12.4682 81.64 12.154C81.64 11.8398 81.7298 11.3269 81.9093 10.6151C82.0952 9.90337 82.3453 9.08261 82.6595 8.15285C82.7685 8.06949 82.8936 8.00216 83.0346 7.95087C83.1757 7.89957 83.3071 7.87392 83.429 7.87392C83.538 7.87392 83.6149 7.89316 83.6598 7.93163C83.7047 7.96369 83.7271 8.0214 83.7271 8.10476C83.7271 8.18812 83.7079 8.31636 83.6694 8.48949C83.631 8.66262 83.5861 8.85178 83.5348 9.05696C83.3937 9.58276 83.2783 10.0765 83.1885 10.5382C83.1052 10.9934 83.0635 11.4455 83.0635 11.8943C83.0635 12.3176 83.1404 12.6542 83.2943 12.9043C83.1276 12.9876 82.9833 13.0453 82.8615 13.0774C82.7397 13.1159 82.6082 13.1351 82.4672 13.1351ZM86.1969 13.0004C85.6519 13.0004 85.2447 12.9267 84.9754 12.7792C84.7125 12.6317 84.5811 12.4105 84.5811 12.1156C84.5811 11.9296 84.6548 11.7757 84.8023 11.6539C84.9562 11.5321 85.1421 11.4711 85.3601 11.4711C85.5525 11.4711 85.7417 11.5417 85.9276 11.6827C86.1136 11.8238 86.2675 12.0162 86.3893 12.2598C86.774 12.2598 87.1267 12.1861 87.4473 12.0386C87.7679 11.8911 88.0212 11.6892 88.2071 11.4327C88.3931 11.1762 88.4861 10.8941 88.4861 10.5863C88.4861 10.3105 88.4091 10.0509 88.2552 9.80719C88.1078 9.55711 87.9282 9.40002 87.7166 9.33589C87.2934 9.61803 86.9343 9.7591 86.6394 9.7591C86.4662 9.7591 86.3188 9.7078 86.1969 9.6052C86.0815 9.4962 86.0238 9.36475 86.0238 9.21086C86.0238 8.98643 86.12 8.80689 86.3124 8.67223C86.5111 8.53758 86.7708 8.47025 87.0914 8.47025C87.5916 8.47025 88.0404 8.56002 88.438 8.73956C88.8355 8.91269 89.1465 9.15315 89.371 9.46093C89.5954 9.76871 89.7076 10.1182 89.7076 10.5093C89.7076 10.9838 89.5569 11.4102 89.2555 11.7885C88.9542 12.1669 88.5342 12.4618 87.9955 12.6734C87.4633 12.8914 86.8638 13.0004 86.1969 13.0004ZM87.1107 8.76842C87.5659 8.6017 87.9314 8.34842 88.2071 8.00858C88.4829 7.66873 88.6207 7.30003 88.6207 6.90248C88.6207 6.48569 88.5278 6.1747 88.3418 5.96951C88.1558 5.76432 87.8737 5.66172 87.4954 5.66172C87.2389 5.66172 87.0017 5.73226 86.7836 5.87332C86.572 6.00798 86.3957 6.19714 86.2546 6.4408C86.12 6.67805 86.043 6.94416 86.0238 7.23912C85.793 7.20705 85.6102 7.1237 85.4756 6.98904C85.3473 6.85439 85.2832 6.67805 85.2832 6.46004C85.2832 6.1266 85.3858 5.83164 85.591 5.57516C85.7962 5.31867 86.0879 5.11989 86.4662 4.97883C86.8446 4.83776 87.2806 4.76722 87.7743 4.76722C88.1719 4.76722 88.5278 4.84417 88.842 4.99806C89.1561 5.15195 89.3998 5.36676 89.5729 5.64249C89.7525 5.91821 89.8422 6.2292 89.8422 6.57546C89.8422 7.03072 89.6884 7.47637 89.3806 7.91239C89.0792 8.34201 88.6432 8.73636 88.0725 9.09544L87.1107 8.76842Z" fill="black"/>
</svg>
