<svg width="95" height="61" viewBox="0 0 95 61" fill="none" xmlns="http://www.w3.org/2000/svg">
<path d="M93.623 0.75V59.96H0.75V0.75H93.623Z" fill="#BBE4F1" stroke="black" stroke-width="1.5"/>
<path d="M1.5 34.613V59.1396H92.8734V54.8114L14.0037 40.384C9.70611 39.4058 3.42365 39.3019 1.5 34.613Z" fill="url(#paint0_linear_126_1370)"/>
<path d="M8.49101 30.2028L9.43858 44.639L15.6742 50.0362L17.2986 51.4423C17.2986 51.4423 19.3596 52.9662 23.8704 54.6692C26.7786 55.7696 30.7042 56.9399 35.7521 57.8263C48.0443 59.9136 60.6768 52.6422 77.4842 57.5765C93.8355 60.9429 96.2398 54.2101 88.7677 51.0303C81.5758 46.7641 56.913 49.6214 57.4108 37.5039C57.5243 34.6655 58.5636 32.7093 60.1137 31.4604C62.1093 29.8491 64.9651 29.4168 67.7991 29.7967C71.7029 30.312 75.5717 32.3687 77.1438 34.9974C80.6546 40.8793 75.9473 44.4469 75.729 44.6085L80.3489 43.4163L83.1348 36.0017L72.8208 22.1201L65.3538 15.2644L46.8434 11.7493L25.438 17.1028L21.3159 24.5174L11.8927 25.465L8.49101 30.2028Z" fill="url(#paint1_linear_126_1370)"/>
<path opacity="0.37" d="M8.49093 30.2028L9.4385 44.639L15.6741 50.0362C12.5039 43.7831 14.2156 38.7527 15.5169 34.9144C17.2723 29.7268 18.4426 38.089 19.3639 34.3293C20.2809 30.5652 23.4599 28.6439 23.0407 32.4036C22.6258 36.1677 25.0493 33.9931 27.058 29.9801C29.0623 25.9671 31.6561 25.7968 30.9007 29.8142C30.1496 33.8271 32.4901 34.8315 35.4158 28.9758C38.3458 23.1244 37.3415 33.242 39.9309 27.6396C42.5247 22.0371 50.5507 16.8539 49.7167 21.1987C48.8783 25.5479 52.7253 24.8798 53.8126 22.7052C54.8999 20.5306 56.4064 19.5263 56.2361 21.8668C56.0702 24.2117 56.1531 25.1287 57.7426 23.4563C59.3321 21.7839 61.7556 20.5306 61.4237 23.7096C61.0875 26.8841 62.1748 27.5566 64.8515 24.7139C67.3886 22.0153 70.1439 25.251 67.799 29.7967C71.7028 30.312 75.5717 32.3687 77.1437 34.9974C80.6545 40.8793 75.9472 44.4469 75.7289 44.6084L80.3488 43.4163L83.1348 36.0017L72.8207 22.1201L65.3537 15.2644L46.8434 11.7493L25.438 17.1028L21.3158 24.5174L11.8926 25.465L8.49093 30.2028Z" fill="#86FFFF"/>
<path opacity="0.37" d="M8.49093 30.2028L9.4385 44.639L15.6741 50.0362L17.2985 51.4423C17.2985 51.4423 19.3596 52.9662 23.8703 54.6692C13.6873 45.0102 26.3986 49.8703 23.3769 46.5341C20.115 42.9404 22.7918 37.3379 26.5558 41.185C30.3155 45.032 31.071 43.1063 32.3242 38.5082C33.5774 33.9101 35.3328 41.6871 37.9266 35.9188C40.5161 30.146 41.2715 38.1763 41.7737 35.0804C42.2758 31.9888 46.6207 28.3906 46.6207 32.6569C46.6207 36.9187 50.5507 35.6655 52.4764 31.5696C54.3279 27.6265 59.1312 26.3907 60.1137 31.4604C62.1093 29.8491 64.9651 29.4168 67.799 29.7967C71.7028 30.312 75.5717 32.3687 77.1437 34.9974C80.6545 40.8793 75.9472 44.4469 75.7289 44.6084L80.3488 43.4163L83.1348 36.0017L72.8207 22.1201L65.3537 15.2644L46.8434 11.7493L25.438 17.1028L21.3158 24.5174L11.8926 25.465L8.49093 30.2028Z" fill="#86FFFF"/>
<path d="M7.65749 29.727C9.57882 30.1418 7.23829 20.0243 11.0853 20.0243C14.9324 20.0243 14.5961 24.2075 18.2772 24.8756C21.954 25.5437 23.4037 10.3739 30.3161 12.0813C33.0191 12.7494 29.3424 15.1467 32.2418 15.6489C35.1413 16.151 34.4164 9.68398 37.3683 10.077C40.3245 10.4656 42.0101 -2.66059 51.9748 1.04671C56.324 2.66238 50.2369 7.06835 54.9834 8.90672C59.1667 10.5224 59.8741 4.13831 65.2975 7.56615C68.0267 9.29535 60.6164 12.3607 65.6861 14.09C70.7602 15.8192 75.3801 15.4393 76.1661 20.7797C77.3932 29.0851 81.4062 23.5089 83.917 34.7137C85.9169 43.6479 76.1356 49.2766 74.7732 46.9229C73.5461 44.8051 76.3888 44.4689 78.5067 43.8575C80.6289 43.2418 82.4105 39.731 81.1267 37.277C79.8472 34.8273 77.284 36.0194 77.1137 34.884C77.0045 34.1286 78.0351 32.5391 76.5853 33.2946C75.1356 34.0456 73.8562 35.0194 73.2667 32.5697C72.9741 31.3427 72.8256 29.024 72.2318 26.7533C72.2318 26.7489 72.2318 26.7489 72.2318 26.7489C71.6379 24.4783 70.5986 22.2644 68.5288 21.2382C64.3892 19.1902 64.267 22.3692 61.254 18.6444C58.7126 15.5004 56.8043 18.8453 55.3328 22.0635C55.062 22.6574 54.8088 23.2469 54.5642 23.7883C53.1582 26.9454 47.499 28.8056 45.0536 27.3821C44.5209 27.0721 44.1366 26.6092 43.9882 25.9629C43.1279 22.2644 44.0711 21.2382 42.2328 20.5701C40.1542 19.8147 40.7699 24.5394 37.7176 23.6617C34.6653 22.784 36.5474 19.819 33.9143 19.0243C31.2812 18.2296 32.4078 22.2818 30.1065 19.8583C27.8097 17.4348 25.1329 20.4042 24.967 25.0852C24.7967 29.7663 21.7051 30.2292 20.7837 27.9716C19.8667 25.714 18.5698 27.4258 18.6528 29.644C18.7357 31.8579 16.8144 31.7313 15.0153 29.2641C14.6398 28.7532 14.1988 28.3952 13.7403 28.2118C11.9805 27.4825 9.98928 29.2074 10.9194 34.1155C12.0897 40.3031 12.8407 42.4777 11.5045 42.6873C10.164 42.8969 8.49152 46.4775 16.0197 49.5997C23.5434 52.7219 19.3645 55.0624 35.7526 58.8265C13.5088 55.6475 8.91072 48.2067 5.73615 40.3467C2.55722 32.4867 5.73616 29.3078 7.65749 29.727ZM60.7125 8.78008C59.8348 9.07265 59.7518 10.1599 60.7562 10.1599C61.7561 10.1599 63.3063 11.1643 63.3893 9.90669C63.4722 8.65345 62.6819 8.12508 60.7125 8.78008ZM43.7393 8.23425C45.1191 6.35658 46.2457 7.23429 49.381 7.40022C52.8787 7.58799 52.2237 2.71915 49.5906 2.84142C48.3286 2.90255 42.9838 3.42655 41.2721 9.19929C40.8616 10.5792 42.3594 10.1163 43.7393 8.23425ZM29.731 14.5616C29.814 12.8891 28.897 12.614 26.9189 15.4C28.7005 13.8367 29.648 16.234 29.731 14.5616Z" fill="#ECF7F9"/>
<path d="M60.127 4.01695C62.0968 2.64756 66.022 3.64054 66.5657 2.63708C67.1093 1.63362 64.4335 0.964643 63.2628 1.5917C62.092 2.21875 61.7995 2.17684 62.0501 1.1319C62.3012 0.086515 60.503 0.00310423 59.2908 2.21875C58.0782 4.4344 56.9913 4.97805 55.946 5.22914C54.901 5.48022 56.6988 6.40028 60.127 4.01695Z" fill="#ECF7F9"/>
<path d="M71.8344 3.89149C75.5527 3.12601 78.4713 4.67182 76.9766 5.81458C76.2657 6.35823 74.0501 4.2679 70.9563 4.85304C67.8625 5.43817 70.4127 4.18405 71.8344 3.89149Z" fill="#ECF7F9"/>
<path d="M73.5052 8.11418C76.7374 8.94996 79.4002 11.7931 76.7243 11.5844C74.0484 11.3752 74.9684 11.459 77.0588 12.5878C79.1491 13.7166 82.452 17.0196 80.1106 18.3994C77.7692 19.7793 77.3094 13.8843 74.2575 12.797C71.2057 11.7101 69.9511 11.9189 69.7839 10.8739C69.6166 9.82854 73.0449 9.20148 70.4948 9.28532C67.9446 9.36873 67.1084 10.5394 66.1469 9.74512C65.1853 8.95039 68.6555 6.86007 73.5052 8.11418Z" fill="#ECF7F9"/>
<path d="M80.4464 22.956C82.6206 23.8341 83.5821 23.6669 83.0385 22.5796C82.4948 21.4927 82.5367 23.4163 80.4464 22.956Z" fill="#ECF7F9"/>
<path d="M80.3208 24.4612C83.3312 25.0882 84.1255 28.9768 85.2962 28.2239C86.4665 27.4716 84.2089 24.6703 80.3208 24.4612Z" fill="#ECF7F9"/>
<path d="M85.2956 33.7844C86.299 35.6241 86.4244 37.8398 85.5881 37.2127C84.7524 36.5856 85.2956 33.7844 85.2956 33.7844Z" fill="#ECF7F9"/>
<path d="M74.8301 31.3177C73.5354 29.8501 74.4957 28.865 73.9385 27.9454C73.3808 27.0257 75.5271 28.1406 75.2764 29.8126C75.0253 31.485 75.6664 32.2657 74.8301 31.3177Z" fill="#7DE5F6"/>
<path d="M55.3324 21.0636C56.804 17.8454 58.7122 14.5005 61.2536 17.6445C64.2666 21.3693 64.3889 18.1903 68.5285 20.2383C70.5983 21.2645 71.6376 23.4784 72.2314 25.749C70.8778 18.0681 67.7076 17.2209 67.3058 18.3301C66.8561 19.5571 61.5069 12.4744 62.0658 16.0419C62.6029 19.5091 56.3018 8.3959 55.3324 21.0636Z" fill="#A9EAFA"/>
<path d="M78.5368 32.5165C78.2861 33.0173 78.704 33.7985 79.2617 33.6033C79.8193 33.4081 78.8708 31.8475 78.5368 32.5165Z" fill="#7DE5F6"/>
<path d="M62.8034 17.354C63.168 18.4483 65.1448 18.3994 65.1029 17.7719C65.0609 17.1448 62.6361 16.8523 62.8034 17.354Z" fill="#7DE5F6"/>
<path d="M54.149 19.9042C54.5442 21.6172 50.8879 25.2974 49.8426 24.1686C48.7972 23.0399 51.9329 22.8726 52.7272 21.7438C53.5215 20.6151 53.7726 18.2736 54.149 19.9042Z" fill="#7DE5F6"/>
<path d="M47.7099 22.8726C46.5553 24.0271 47.5007 24.921 46.33 24.252C45.1593 23.583 44.4069 21.6599 45.703 22.0778C46.999 22.4962 47.5426 20.9071 48.295 21.4089C49.0478 21.911 48.2535 22.3289 47.7099 22.8726Z" fill="#7DE5F6"/>
<path opacity="0.37" d="M55.0807 31.0143C53.9485 33.0667 53.0908 35.3683 53.1411 37.7674C53.1633 38.9573 53.4188 40.1442 53.893 41.2341C54.3694 42.3244 55.0646 43.3043 55.8698 44.1628C57.4942 45.8824 59.5413 47.1182 61.6727 48.0596C63.8141 48.9985 66.0677 49.6495 68.3528 50.1015C68.3825 50.1072 68.4109 50.0879 68.417 50.0587C68.4227 50.0294 68.4034 50.001 68.3746 49.9945C66.1035 49.508 63.8704 48.8238 61.7626 47.8596C59.6649 46.8937 57.6654 45.6383 56.1117 43.9392C55.341 43.0912 54.686 42.1341 54.2463 41.0821C53.8087 40.0306 53.5838 38.8975 53.5803 37.7617C53.5677 35.4744 54.424 33.2675 55.558 31.2868C55.6336 31.1549 55.5899 30.9838 55.458 30.9082C55.3261 30.8327 55.1585 30.8785 55.0829 31.0104C55.0825 31.0113 55.0812 31.0135 55.0807 31.0143Z" fill="#86FFFF"/>
<path opacity="0.37" d="M33.4972 39.2728C33.4086 40.9994 33.7636 42.7718 34.6046 44.2932C35.4369 45.8202 36.6998 47.0725 38.1342 48.0109C39.5713 48.9568 41.1813 49.6017 42.831 50.031C44.4829 50.4654 46.1859 50.6667 47.8858 50.7126C48.7352 50.7331 49.5906 50.696 50.4303 50.6694C51.2731 50.6349 52.1172 50.6344 52.9608 50.6388C54.6485 50.6528 56.3358 50.7445 58.0156 50.9104C59.6955 51.0776 61.3697 51.3113 63.0251 51.6444C64.6774 51.9824 66.3241 52.3877 67.8965 52.9972C67.9245 53.0086 67.9564 52.9951 67.9677 52.9671C67.9791 52.9392 67.9651 52.9073 67.9376 52.8959C66.3599 52.2671 64.7124 51.8449 63.057 51.4894C61.3989 51.1388 59.7213 50.8881 58.037 50.7039C56.3524 50.5213 54.6594 50.4126 52.9647 50.382C52.1176 50.3698 51.2696 50.362 50.422 50.3882C49.5714 50.4074 48.7356 50.4358 47.8941 50.4074C46.2152 50.3462 44.5384 50.131 42.9214 49.689C41.3062 49.2524 39.7394 48.6057 38.356 47.6756C36.9744 46.7529 35.7775 45.5377 35.0002 44.0792C34.2151 42.6247 33.895 40.9492 33.9942 39.3021C34.0025 39.1649 33.8977 39.047 33.7606 39.0387C33.6234 39.0309 33.5055 39.1352 33.4972 39.2728Z" fill="#86FFFF"/>
<path opacity="0.37" d="M43.9303 33.2876C42.1177 36.2521 41.7872 40.0874 43.2042 43.2667C43.9076 44.8484 45.0914 46.2356 46.6049 47.0972C47.3573 47.5304 48.1809 47.8339 49.0258 48.0098C49.869 48.1941 50.7428 48.2234 51.5886 48.2177C54.9549 48.1827 58.3168 48.6928 61.6075 49.4259C63.2537 49.7993 64.8851 50.2425 66.4903 50.7661C68.0933 51.294 69.6788 51.8909 71.1801 52.6603C71.2067 52.6747 71.2399 52.6651 71.2543 52.6385C71.2687 52.6123 71.2578 52.5787 71.2321 52.5643C69.7304 51.7717 68.1466 51.1547 66.5444 50.6058C64.9397 50.0613 63.3083 49.5975 61.6599 49.2032C58.3639 48.4286 54.9937 47.8749 51.5869 47.8692C50.7428 47.8649 49.917 47.8282 49.1057 47.6426C48.2974 47.4653 47.5167 47.1675 46.8075 46.7487C45.3814 45.916 44.2762 44.5934 43.622 43.082C42.3024 40.0442 42.6614 36.3696 44.4102 33.585C44.4932 33.4531 44.4535 33.2789 44.3212 33.1959C44.1893 33.1129 44.015 33.1527 43.9321 33.285L43.9303 33.2876Z" fill="#86FFFF"/>
<path opacity="0.37" d="M58.3402 52.5585C56.9363 52.2983 55.5014 52.2708 54.0827 52.3454C52.6617 52.4162 51.2482 52.5646 49.8365 52.7087C47.0165 53.003 44.1869 53.2694 41.3634 53.1397C38.5456 53.0227 35.7392 52.4773 33.1541 51.3743C31.8616 50.8267 30.6249 50.1529 29.459 49.3722C28.3014 48.5774 27.218 47.6805 26.1949 46.719L26.1906 46.7146C26.0753 46.6063 25.8945 46.612 25.7862 46.7273C25.6779 46.8426 25.6836 47.0233 25.7989 47.1316L25.8015 47.1343C26.86 48.1019 27.9792 49.0036 29.1739 49.7997C30.3769 50.5826 31.6515 51.2546 32.9794 51.7957C35.6361 52.8869 38.5011 53.4004 41.3503 53.4799C44.2061 53.572 47.0449 53.2646 49.861 52.9323C51.2705 52.769 52.6788 52.6017 54.0918 52.5122C55.5031 52.4188 56.9267 52.4271 58.3196 52.6659C58.3493 52.6716 58.3777 52.6524 58.3838 52.6227C58.3895 52.5935 58.369 52.5651 58.3402 52.5585Z" fill="#86FFFF"/>
<path d="M13.7413 27.2117C14.1998 27.3951 14.6408 27.7531 15.0164 28.264C16.8154 30.7312 18.7368 30.8578 18.6538 28.6439C18.5708 26.4257 19.8677 24.7139 20.7847 26.9715C21.7061 29.2291 24.7977 28.7662 24.968 24.0851C25.1339 19.4041 27.8107 16.4347 30.1076 18.8582C32.4088 21.2817 31.2822 17.2295 33.9153 18.0242C36.5484 18.8189 34.6664 21.7839 37.7187 22.6616C40.771 23.5393 40.1553 18.8145 42.2338 19.57C44.0722 20.2381 43.129 21.2643 43.9892 24.9628C44.1377 25.6091 44.522 26.072 45.0547 26.382C43.5857 24.8096 44.3386 21.4695 43.9499 18.3168C43.2775 12.8802 39.6007 23.4563 38.7623 18.1465C37.9283 12.8366 34.8323 18.7316 33.2865 16.7273C31.7407 14.7186 30.5705 19.2774 28.3522 16.6007C26.1383 13.9239 24.8414 24.4214 23.92 21.5743C23.003 18.7316 22.3742 26.7619 21.4135 26.1768C20.4529 25.5916 18.6101 23.2904 17.9857 27.43C17.4049 31.2508 14.9378 26.7706 13.7413 27.2117Z" fill="#A9EAFA"/>
<path d="M57.6051 31.3176C56.5719 32.3805 55.7951 33.7228 55.3912 35.1834C54.9746 36.641 54.9322 38.21 55.2497 39.7016C55.5741 41.1933 56.2567 42.5963 57.1937 43.7779C58.123 44.9696 59.2945 45.9364 60.5596 46.7036C59.4417 45.7285 58.4278 44.6652 57.6064 43.4762C56.792 42.2854 56.1829 40.9614 55.8894 39.5636C55.5816 38.1702 55.5899 36.7127 55.8855 35.3066C56.1885 33.901 56.7693 32.5425 57.6051 31.3176Z" fill="#47B2FF"/>
<path d="M52.0304 34.1609C51.9081 34.3945 51.7837 34.6321 51.6701 34.8761C51.5933 35.1316 51.509 35.3888 51.4374 35.6499C51.402 35.9167 51.3632 36.1853 51.3361 36.4547L51.3365 37.2669C51.3994 38.3525 51.723 39.4026 52.1522 40.3873C52.595 41.3689 53.1544 42.296 53.8321 43.1283C54.5072 43.9562 55.2818 44.7282 56.2119 45.2535C55.8071 44.9077 55.4133 44.561 55.077 44.1545C54.8989 43.9619 54.7264 43.7654 54.5683 43.5553C54.4015 43.3532 54.2452 43.1436 54.0998 42.9252C53.502 42.0672 52.971 41.1633 52.5513 40.2105C52.126 39.2616 51.8068 38.2629 51.6693 37.235C51.5374 36.211 51.6173 35.1443 52.0304 34.1609Z" fill="#47B2FF"/>
<path d="M45.2293 34.105C44.5524 35.5469 44.0852 37.1145 43.9835 38.7398C43.8774 40.3515 44.142 42.0672 45.0433 43.4933C45.4917 44.1985 46.0773 44.8186 46.7537 45.3024C47.434 45.7806 48.1886 46.14 48.9715 46.3714C50.5383 46.8508 52.174 46.9037 53.7578 46.7591C52.1692 46.65 50.592 46.4212 49.1361 45.8876C47.686 45.3579 46.3886 44.4356 45.5978 43.1457C44.776 41.872 44.4931 40.303 44.4922 38.7581C44.5048 37.2018 44.7891 35.6359 45.2293 34.105Z" fill="#47B2FF"/>
<path d="M50.4131 53.9501C48.1472 54.1811 45.8892 54.4767 43.6356 54.6885C41.3828 54.8994 39.1226 54.9558 36.9013 54.6584C34.6774 54.3811 32.5076 53.7444 30.4054 52.9235C28.3042 52.0947 26.2562 51.1118 24.2135 50.1035C26.1296 51.3323 28.1116 52.4751 30.2103 53.396C32.3015 54.3257 34.5263 55.0108 36.8175 55.3077C39.1091 55.6012 41.4313 55.5116 43.6919 55.1946C45.9582 54.8942 48.1874 54.4309 50.4131 53.9501Z" fill="#47B2FF"/>
<path d="M26.0529 45.1426C26.7088 45.8439 27.4201 46.4888 28.159 47.1023C28.8948 47.7198 29.6746 48.284 30.4772 48.8136C31.2859 49.3341 32.1191 49.8206 32.9924 50.2271C33.4291 50.4302 33.8715 50.6197 34.3199 50.793C34.774 50.9524 35.2299 51.1057 35.6963 51.2188C35.2627 51.0118 34.8264 50.821 34.4055 50.5965C33.9793 50.3852 33.5584 50.1647 33.1466 49.928C32.3217 49.4577 31.5082 48.9695 30.7157 48.4477C29.9174 47.9342 29.141 47.3862 28.3633 46.8373C27.5883 46.284 26.8276 45.7085 26.0529 45.1426Z" fill="#47B2FF"/>
<path d="M24.7143 41.1846C25.151 42.3906 25.9292 43.4526 26.8007 44.3814C27.6854 45.3036 28.6732 46.1307 29.7871 46.7591C28.8845 45.8573 27.9767 44.994 27.1178 44.0818C26.2514 43.1749 25.4532 42.2238 24.7143 41.1846Z" fill="#47B2FF"/>
<path d="M35.585 39.5122C35.6557 40.9895 35.968 42.4724 36.6107 43.8352C36.9369 44.5116 37.3448 45.157 37.8592 45.7103C38.3714 46.2644 38.9879 46.715 39.6543 47.0377C39.0779 46.5705 38.5648 46.0535 38.1185 45.4893C37.6806 44.9182 37.3107 44.2994 37.0046 43.647C36.6911 42.9981 36.4404 42.3169 36.2103 41.6252C35.9911 40.9305 35.7898 40.2248 35.585 39.5122Z" fill="#47B2FF"/>
<path d="M51.1943 51.163C49.4787 51.1678 47.7726 51.1586 46.0775 51.0669C44.3858 50.9494 42.7012 50.7446 41.0855 50.2988C39.4703 49.8669 37.9197 49.1788 36.6175 48.1325C35.3115 47.095 34.2447 45.7496 33.4119 44.251C34.0111 45.854 34.9687 47.364 36.2896 48.5251C36.5979 48.8408 36.9786 49.0657 37.3267 49.3342C37.6943 49.5726 38.0769 49.7901 38.4607 50.0028C39.2511 50.384 40.0707 50.701 40.9126 50.9302C42.5999 51.3817 44.3369 51.5617 46.0604 51.5761C47.7853 51.5822 49.4996 51.4197 51.1943 51.163Z" fill="#47B2FF"/>
<path d="M44.2822 46.2575C43.7552 45.6423 43.2386 45.0335 42.7932 44.3772C42.3548 43.7183 41.9709 43.0288 41.6941 42.2961C41.4081 41.5668 41.2321 40.7983 41.1269 40.0141C41.0234 39.2294 41.0015 38.4241 40.9374 37.6172C40.8321 38.4172 40.7387 39.225 40.7876 40.0442C40.8256 40.8616 40.9919 41.6808 41.2867 42.4528C41.5867 43.2227 42.0094 43.9401 42.5203 44.5794C43.0281 45.2231 43.6416 45.7671 44.2822 46.2575Z" fill="#47B2FF"/>
<path d="M67.249 53.6716C66.222 53.1952 65.1596 52.7926 64.074 52.4612C62.9893 52.1275 61.8806 51.8721 60.7628 51.6712C59.6432 51.4795 58.5131 51.3476 57.3786 51.3C56.245 51.2529 55.1079 51.2607 53.9818 51.3865C54.5473 51.4188 55.1106 51.4389 55.6721 51.4909C56.2341 51.5241 56.7943 51.5765 57.3533 51.635C58.4703 51.7612 59.5838 51.9027 60.6881 52.1013C61.7946 52.2891 62.8907 52.5301 63.9858 52.7838C64.5316 52.9175 65.0779 53.0537 65.6181 53.2127C66.1678 53.3423 66.6993 53.5297 67.249 53.6716Z" fill="#47B2FF"/>
<path d="M59.0547 49.4905C58.0988 49.2639 57.1277 49.1163 56.1543 48.9984C55.181 48.8752 54.202 48.8089 53.2226 48.7604C52.2431 48.7224 51.2624 48.7032 50.2825 48.7351L48.8135 48.7975C48.3245 48.8394 47.8354 48.8704 47.3485 48.9333C47.8385 48.9691 48.3271 48.9809 48.8157 49.0115L50.2799 49.0704L53.2038 49.1962L56.126 49.3316L59.0547 49.4905Z" fill="#47B2FF"/>
<path d="M74.8857 51.6367C73.9124 51.0643 72.9046 50.5451 71.8496 50.1232C70.7985 49.6931 69.6881 49.3923 68.575 49.1848C67.4593 48.9848 66.3646 48.8023 65.2944 48.4866C65.0249 48.4146 64.7586 48.3312 64.4953 48.2368C64.2293 48.1504 63.966 48.0552 63.7062 47.9495C63.1735 47.7687 62.6639 47.5308 62.1346 47.3303C62.6198 47.619 63.1128 47.8967 63.6219 48.146C63.8748 48.274 64.135 48.387 64.3979 48.4945C64.6581 48.6093 64.9228 48.7128 65.1917 48.8062C65.7236 49.0119 66.2799 49.1468 66.8319 49.2844C67.3864 49.4067 67.9449 49.5053 68.4934 49.6136C69.5973 49.8088 70.6715 50.0887 71.7352 50.4376C72.2649 50.6167 72.7932 50.8049 73.3137 51.0167C73.8456 51.2001 74.3534 51.4433 74.8857 51.6367Z" fill="#47B2FF"/>
<path d="M71.792 53.7269C70.9562 53.2056 70.082 52.7497 69.1899 52.3309C68.2982 51.9104 67.3782 51.5523 66.4485 51.2248C65.5153 50.9074 64.5704 50.6231 63.6106 50.3995C63.1311 50.2869 62.6499 50.1834 62.1687 50.0843C61.6832 50.0013 61.2015 49.907 60.7133 49.8389C61.6456 50.1585 62.5888 50.4279 63.5215 50.7236C64.4534 51.0214 65.3852 51.3139 66.3061 51.6375C67.2306 51.9515 68.1441 52.2951 69.0598 52.6388C69.9715 52.9903 70.875 53.3667 71.792 53.7269Z" fill="#47B2FF"/>
<path d="M69.7012 56.0266C67.0781 54.7415 64.2538 53.8468 61.3525 53.3778C59.9006 53.1533 58.4299 53.0319 56.961 53.0573C55.4925 53.073 54.0275 53.2411 52.6017 53.5603C55.5195 53.4302 58.4024 53.5629 61.2504 54.0245C64.1018 54.4651 66.8934 55.2231 69.7012 56.0266Z" fill="#47B2FF"/>
<path d="M42.2744 56.1937C41.2138 56.2421 40.1614 56.2985 39.1108 56.2928C38.0606 56.2771 37.0139 56.2229 35.979 56.0784C34.9432 55.9435 33.9219 55.7173 32.9158 55.4238C31.911 55.1251 30.9294 54.7391 29.9408 54.354C30.3949 54.6287 30.8634 54.878 31.3394 55.116C31.818 55.3479 32.3119 55.5496 32.8101 55.7422C33.8109 56.1177 34.8607 56.3631 35.9205 56.5107C36.982 56.6478 38.0545 56.691 39.1186 56.6268C40.1828 56.5627 41.2378 56.4207 42.2744 56.1937Z" fill="#47B2FF"/>
<path d="M33.7041 53.3092C32.7461 52.8218 31.7679 52.4293 30.7963 52.0184L29.3361 51.4149C28.8519 51.2062 28.3641 51.014 27.8929 50.759C28.2571 51.1621 28.7239 51.4525 29.1855 51.7206C29.651 51.9882 30.1374 52.2131 30.6295 52.4214C31.6181 52.824 32.6399 53.1498 33.7041 53.3092Z" fill="#47B2FF"/>
<path d="M42.4834 52.1384C41.7502 51.9991 41.0376 51.8127 40.3324 51.6096C39.6289 51.3996 38.9333 51.1673 38.2534 50.8966C37.5709 50.6324 36.9037 50.3306 36.253 49.9948C35.6068 49.6516 34.9727 49.2796 34.3723 48.8359C35.3518 49.9787 36.7072 50.7498 38.0936 51.3031C39.4918 51.8376 40.9852 52.1917 42.4834 52.1384Z" fill="#47B2FF"/>
<path d="M46.0791 49.2539C45.3726 48.9508 44.6687 48.6823 43.9883 48.3797C43.3106 48.0736 42.6513 47.7461 42.0426 47.3456C41.4273 46.9561 40.8644 46.4933 40.3483 45.9732C39.8335 45.4501 39.3771 44.8623 38.9296 44.2366C39.13 44.9785 39.4863 45.6841 39.961 46.3068C40.4321 46.9347 41.0308 47.4662 41.688 47.8958C42.3517 48.3168 43.07 48.639 43.8119 48.8574C44.5525 49.0796 45.3114 49.2146 46.0791 49.2539Z" fill="#47B2FF"/>
<path d="M59.291 47.7067C58.0063 46.9875 56.633 46.436 55.2759 45.8985C53.9231 45.3509 52.565 44.8225 51.3389 44.0942C50.1083 43.3872 49.0324 42.4156 48.4438 41.1397C47.8477 39.8655 47.7652 38.3786 47.877 36.9202C47.687 37.6311 47.5892 38.3677 47.5748 39.1162C47.5752 39.8633 47.6927 40.6253 47.9735 41.3392C48.2438 42.0576 48.6857 42.7082 49.2097 43.2658C49.7394 43.8217 50.3616 44.2702 51.0053 44.6575C52.3091 45.4151 53.7074 45.9242 55.1025 46.3771C56.4977 46.8373 57.9046 47.2198 59.291 47.7067Z" fill="#47B2FF"/>
<path d="M49.424 36.2512C49.2231 36.8918 49.0629 37.549 49.0039 38.2276C48.9384 38.904 48.9734 39.6009 49.1419 40.2747C49.3153 40.9458 49.6292 41.5864 50.0698 42.117C50.5039 42.6536 51.0532 43.0759 51.6396 43.4003C51.1506 42.9366 50.7061 42.4501 50.3441 41.9148C49.986 41.3773 49.7183 40.7886 49.5646 40.1664C49.2367 38.9188 49.3537 37.5909 49.424 36.2512Z" fill="#47B2FF"/>
<path d="M45.369 40.2231C45.2341 40.6537 45.2712 41.1318 45.3869 41.5703C45.5013 42.0135 45.7031 42.4283 45.9476 42.8108C46.1991 43.1894 46.4996 43.5361 46.8524 43.823C47.2017 44.1095 47.6056 44.3479 48.0449 44.4457C47.6838 44.1824 47.3742 43.8894 47.0869 43.5754C46.8039 43.2588 46.5402 42.9265 46.3127 42.5707C46.0782 42.2196 45.8773 41.8475 45.7088 41.4611C45.5446 41.0716 45.4166 40.6681 45.369 40.2231Z" fill="#47B2FF"/>
<path d="M43.0557 26.2449C41.9732 27.6771 40.9924 29.1919 40.1719 30.8006C39.3549 32.4076 38.7235 34.1311 38.4449 35.9354C38.1947 37.7366 38.3523 39.6278 39.065 41.3143C39.2375 41.7356 39.4759 42.1278 39.6776 42.5339C39.9287 42.912 40.1807 43.2902 40.4444 43.657C40.7453 43.9963 41.0352 44.3425 41.3417 44.6713C41.6692 44.9814 41.9998 45.2866 42.3312 45.5879C42.0317 45.2521 41.7308 44.9202 41.4273 44.5936C41.1474 44.2452 40.8867 43.8827 40.6169 43.5303C40.3772 43.1565 40.1453 42.7775 39.9178 42.3985C39.7396 41.9933 39.5252 41.6046 39.3767 41.1898C38.7549 39.5383 38.6034 37.7384 38.8768 35.9978C39.1108 34.2468 39.7313 32.5617 40.4732 30.946C40.6444 30.5342 40.8562 30.1412 41.0592 29.7434L41.3649 29.147L41.6968 28.5645C42.1151 27.7723 42.6024 27.0213 43.0557 26.2449Z" fill="#47B2FF"/>
<path d="M33.3555 47.7625C31.8232 46.0185 30.5661 44.0325 29.8207 41.8557C29.0818 39.6785 28.8456 37.3506 29.0657 35.0668C29.2478 32.7757 29.8604 30.5316 30.6761 28.3745C31.0761 27.2907 31.5547 26.2361 32.0621 25.1956C32.325 24.6799 32.5726 24.1545 32.849 23.6449L33.6904 22.1201C32.3887 24.0449 31.2569 26.0929 30.3639 28.2509C29.474 30.4072 28.8517 32.6909 28.6312 35.0297C28.4421 37.365 28.6801 39.7632 29.5063 41.9684C29.7469 42.5042 29.9696 43.0474 30.225 43.5735C30.5237 44.0775 30.7971 44.5967 31.1158 45.0853C31.4695 45.5517 31.8049 46.0298 32.1708 46.4818L33.3555 47.7625Z" fill="#47B2FF"/>
<path d="M36.7559 29.8684C36.3537 30.5055 35.9873 31.1727 35.7127 31.8793C35.4162 32.5779 35.2079 33.3102 35.0323 34.0482C34.8651 34.7888 34.7638 35.5442 34.7258 36.3014C34.6861 37.0577 34.7158 37.8219 34.8612 38.5642C34.8856 37.8105 34.9703 37.069 35.0651 36.3324C35.1708 35.597 35.2878 34.8648 35.4585 34.1429C35.6218 33.4207 35.8065 32.7015 36.0327 31.9932C36.248 31.2815 36.5043 30.5815 36.7559 29.8684Z" fill="#47B2FF"/>
<path d="M54.7061 25.186C53.2445 26.0428 51.8634 27.0545 50.6429 28.2532C49.4407 29.4667 48.4128 30.8579 47.6124 32.3749C46.8434 33.905 46.302 35.5665 46.1483 37.2782C46.0622 38.1323 46.1033 38.9956 46.2225 39.8423C46.3814 40.6842 46.6426 41.5086 47.0687 42.2435C46.3862 40.6864 46.2557 38.9637 46.4819 37.3136C46.6989 35.6595 47.2211 34.0491 48.0002 32.5736C48.7482 31.0793 49.7547 29.7256 50.883 28.485L51.7725 27.5925C52.0599 27.2838 52.4044 27.0379 52.7162 26.755C53.3288 26.1711 54.0449 25.7196 54.7061 25.186Z" fill="#47B2FF"/>
<path d="M26.5 49.8249C24.8319 48.8577 23.3058 47.632 22.2041 46.0744C21.0954 44.5264 20.4129 42.7033 20.1408 40.8209C19.8299 38.9397 19.895 37.0092 20.1094 35.1045C20.2142 34.1503 20.3688 33.2002 20.5526 32.2548C20.7225 31.3059 20.9399 30.3658 21.1482 29.4221C20.8443 30.34 20.5853 31.2714 20.3434 32.2089C20.1159 33.1499 19.9234 34.1006 19.7762 35.0608C19.4902 36.9799 19.4243 38.9489 19.7098 40.8886C20.0238 42.816 20.7299 44.7168 21.9351 46.2731C22.5342 47.0495 23.2359 47.7412 24.0066 48.3355C24.7861 48.9197 25.6214 49.4215 26.5 49.8249Z" fill="#47B2FF"/>
<path d="M26.053 33.9377C25.6683 34.7801 25.5221 35.7185 25.5312 36.6425C25.5491 37.5695 25.7234 38.4834 26.053 39.345C26.0644 38.8817 26.0364 38.4275 26.0146 37.9778C25.9945 37.5276 25.9714 37.0817 25.9679 36.6359C25.9461 35.742 26.0046 34.8604 26.053 33.9377Z" fill="#47B2FF"/>
<path d="M33.5791 18.9426L32.2931 20.7509C31.8726 21.3591 31.4543 21.9696 31.0491 22.591C30.236 23.8307 29.5011 25.1298 28.888 26.4891C28.2832 27.8511 27.8033 29.2742 27.5116 30.7357C27.4269 31.0986 27.3741 31.4675 27.3204 31.8357C27.261 32.2029 27.2086 32.5706 27.1846 32.9422C27.1156 33.6823 27.1064 34.4251 27.1125 35.1644C27.2583 33.6906 27.4776 32.233 27.8387 30.8108C28.2024 29.3903 28.6828 28.0026 29.2862 26.6668C29.8788 25.3258 30.5927 24.0403 31.3333 22.7661C32.0765 21.4941 32.8721 20.2443 33.5791 18.9426Z" fill="#47B2FF"/>
<path d="M70.4824 26.8025C69.2427 26.203 67.9292 25.7305 66.552 25.496C65.18 25.2541 63.7324 25.3065 62.3827 25.7296C61.0334 26.1541 59.8151 26.9375 58.8273 27.9208C57.8322 28.9016 57.0292 30.0474 56.379 31.2618L56.9925 30.4321C57.2095 30.1657 57.4187 29.8946 57.6405 29.6343C58.0841 29.1147 58.5466 28.6121 59.057 28.1658C60.0697 27.2685 61.2303 26.5405 62.5119 26.1462C63.7888 25.7349 65.1608 25.6702 66.5053 25.827C66.8445 25.8471 67.1755 25.934 67.5122 25.9842C67.8506 26.0305 68.1777 26.1296 68.5087 26.2143C69.182 26.3519 69.8183 26.6104 70.4824 26.8025Z" fill="#47B2FF"/>
<path d="M59.835 24.3499C58.5402 24.5289 57.3097 25.0725 56.1993 25.7686C55.0827 26.4655 54.0867 27.3467 53.216 28.334C52.354 29.3283 51.6208 30.4444 51.1112 31.6614C50.9824 31.964 50.8863 32.2815 50.7728 32.5893C50.6719 32.902 50.6082 33.2269 50.5265 33.5443C50.468 33.8674 50.4458 34.1976 50.4047 34.5207C50.3912 34.8478 50.4073 35.1757 50.4143 35.4993C50.4545 35.1748 50.4781 34.8521 50.5195 34.5338C50.5929 34.2185 50.6462 33.9015 50.7348 33.5932C50.8374 33.2884 50.9156 32.9775 51.0335 32.6797C51.1632 32.3863 51.2737 32.0858 51.4173 31.7998C51.9824 30.6527 52.6998 29.5811 53.5452 28.6205C54.3836 27.6537 55.3412 26.7913 56.3844 26.0472C56.9067 25.6756 57.4582 25.345 58.0337 25.0586C58.3158 24.9022 58.6197 24.7953 58.914 24.6603C59.2149 24.5446 59.5267 24.459 59.835 24.3499Z" fill="#47B2FF"/>
<path d="M42.665 29.4226C42.0873 30.1789 41.5721 30.9824 41.1262 31.8291C40.6756 32.6731 40.3184 33.5718 40.0669 34.5019C39.8241 35.4338 39.6896 36.3997 39.718 37.3634C39.7223 37.604 39.7319 37.8442 39.7625 38.083C39.7892 38.3219 39.8031 38.5612 39.8542 38.7961C39.9402 39.2677 40.0634 39.7301 40.2123 40.1816C40.0773 39.2393 40.0066 38.3005 40.0538 37.3678C40.104 36.4364 40.2446 35.5132 40.4887 34.6141C40.7219 33.712 41.0568 32.8369 41.4275 31.9745C41.8031 31.1125 42.2397 30.2741 42.665 29.4226Z" fill="#47B2FF"/>
<path d="M14.1797 32.0984C14.0387 32.6783 13.8845 33.2582 13.7653 33.8451C13.688 34.438 13.5662 35.0297 13.5247 35.6288C13.45 36.8266 13.4514 38.041 13.6513 39.2331C14.0068 41.6251 15.0054 43.9124 16.4504 45.8534C17.9185 47.7835 19.797 49.369 21.8506 50.6148C23.9086 51.8632 26.1234 52.8152 28.3945 53.5601C27.3029 53.0689 26.1824 52.6558 25.1331 52.0846C24.5981 51.8231 24.0597 51.5685 23.5545 51.2532L22.7842 50.8043C22.5262 50.6572 22.2694 50.5078 22.0305 50.331C20.0415 49.0441 18.2027 47.4918 16.7988 45.5905C15.3622 43.7181 14.3994 41.502 13.9815 39.1781C13.5544 36.8515 13.6863 34.4346 14.1797 32.0984Z" fill="#47B2FF"/>
<path d="M79.6357 11.5C79.1355 11.5 78.77 11.4295 78.5392 11.2884C78.3084 11.1473 78.1929 10.9261 78.1929 10.6247C78.1929 10.426 78.2635 10.1791 78.4045 9.88413C78.5456 9.58276 78.7764 9.14994 79.0971 8.58567C79.3728 8.11117 79.594 7.71041 79.7607 7.38339C79.9338 7.05637 80.0813 6.72294 80.2032 6.38309C80.325 6.03683 80.3859 5.72264 80.3859 5.4405C80.3859 5.28661 80.3603 5.11669 80.309 4.93074C80.4308 4.87303 80.5462 4.83135 80.6552 4.8057C80.7642 4.78005 80.8764 4.76722 80.9919 4.76722C81.5112 4.76722 81.7709 5.08142 81.7709 5.70981C81.7709 6.2805 81.5401 6.9698 81.0784 7.77774C80.6232 8.57926 79.9274 9.51864 78.9913 10.5959H82.1845L81.9056 11.3173C81.6106 11.3686 81.2483 11.4134 80.8187 11.4519C80.3891 11.484 79.9948 11.5 79.6357 11.5ZM82.4538 13.1351C82.1909 13.1351 81.9857 13.0485 81.8383 12.8754C81.6972 12.7087 81.6267 12.4682 81.6267 12.154C81.6267 11.8398 81.7164 11.3269 81.896 10.6151C82.0819 9.90337 82.332 9.08261 82.6462 8.15285C82.7552 8.06949 82.8802 8.00216 83.0213 7.95087C83.1624 7.89957 83.2938 7.87392 83.4157 7.87392C83.5247 7.87392 83.6016 7.89316 83.6465 7.93163C83.6914 7.96369 83.7138 8.0214 83.7138 8.10476C83.7138 8.18812 83.6946 8.31636 83.6561 8.48949C83.6176 8.66262 83.5727 8.85178 83.5215 9.05696C83.3804 9.58276 83.265 10.0765 83.1752 10.5382C83.0918 10.9934 83.0502 11.4455 83.0502 11.8943C83.0502 12.3176 83.1271 12.6542 83.281 12.9043C83.1143 12.9876 82.97 13.0453 82.8482 13.0774C82.7263 13.1159 82.5949 13.1351 82.4538 13.1351ZM86.578 11.7405C86.3535 11.7405 86.1836 11.6571 86.0682 11.4904C85.9528 11.3173 85.8951 11.0672 85.8951 10.7402C85.8951 10.2079 85.9464 9.6052 86.0489 8.93193C86.1515 8.25224 86.3183 7.41224 86.5491 6.41195C86.2221 6.41195 85.9528 6.34782 85.7412 6.21958C85.536 6.09134 85.4109 5.9118 85.3661 5.68096C85.6738 5.59119 85.9367 5.49821 86.1547 5.40203C86.3792 5.30585 86.6228 5.18722 86.8857 5.04615C87.0717 4.94356 87.2192 4.87303 87.3282 4.83455C87.4372 4.78967 87.543 4.76722 87.6456 4.76722C87.9021 4.76722 88.0303 4.9147 88.0303 5.20966C88.0303 5.30585 88.0047 5.48218 87.9534 5.73867C87.9021 5.98874 87.8411 6.26126 87.7706 6.55622C87.5718 7.40904 87.4115 8.15926 87.2897 8.80689C87.1743 9.45452 87.1166 10.0637 87.1166 10.6344C87.1166 10.9806 87.1711 11.282 87.2801 11.5385C87.03 11.6731 86.796 11.7405 86.578 11.7405Z" fill="black"/>
<defs>
<linearGradient id="paint0_linear_126_1370" x1="70.8438" y1="57.9031" x2="1.50001" y2="46.8763" gradientUnits="userSpaceOnUse">
<stop stop-color="#03F5FB"/>
<stop offset="1" stop-color="#33B5F0"/>
</linearGradient>
<linearGradient id="paint1_linear_126_1370" x1="50.4363" y1="62.2937" x2="43.078" y2="23.3283" gradientUnits="userSpaceOnUse">
<stop stop-color="#02F5FB"/>
<stop offset="1" stop-color="#0456DE"/>
</linearGradient>
</defs>
</svg>
