<svg width="95" height="61" viewBox="0 0 95 61" fill="none" xmlns="http://www.w3.org/2000/svg">
<path d="M93.623 0.75V59.96H0.75V0.75H93.623Z" fill="#FFC270" stroke="black" stroke-width="1.5"/>
<path d="M80.1903 11.7501C79.4593 11.7501 78.879 11.593 78.4494 11.2788C78.0262 10.9646 77.8146 10.5318 77.8146 9.98032C77.8146 9.71742 77.8755 9.46414 77.9973 9.22047C78.1192 8.9704 78.3372 8.71712 78.6514 8.46063C78.9656 8.20415 79.3984 7.94766 79.9499 7.69117C80.4372 7.47316 80.8155 7.25515 81.0848 7.03713C81.3541 6.81271 81.5369 6.59469 81.633 6.38309C81.7356 6.17149 81.7869 5.94706 81.7869 5.70981C81.7869 5.42768 81.6908 5.20325 81.4984 5.03654C81.3124 4.86982 81.0559 4.78646 80.7289 4.78646C80.3763 4.78646 80.0845 4.87303 79.8537 5.04615C79.6292 5.21287 79.517 5.45012 79.517 5.7579C79.517 5.97592 79.5844 6.1779 79.719 6.36385C79.8537 6.54981 80.0204 6.71973 80.2192 6.87362C80.4244 7.02751 80.7001 7.21667 81.0463 7.4411C81.4567 7.704 81.7869 7.93484 82.037 8.13361C82.2871 8.32598 82.4987 8.55361 82.6718 8.81651C82.8449 9.07941 82.9315 9.37437 82.9315 9.70139C82.9315 10.0989 82.8161 10.4548 82.5853 10.769C82.3544 11.0768 82.0306 11.3173 81.6138 11.4904C81.197 11.6635 80.7225 11.7501 80.1903 11.7501ZM80.2865 10.9421C80.6905 10.9421 81.0271 10.8428 81.2964 10.644C81.5657 10.4388 81.7004 10.1534 81.7004 9.78795C81.7004 9.60841 81.6363 9.43528 81.508 9.26857C81.3798 9.10185 81.2227 8.94796 81.0367 8.80689C80.8508 8.66582 80.5911 8.47987 80.2576 8.24903C79.8344 7.9669 79.4914 7.72003 79.2285 7.50843C78.972 7.29682 78.7508 7.05316 78.5648 6.77744C78.3789 6.50172 78.2859 6.20034 78.2859 5.87332C78.2859 5.50142 78.3853 5.17119 78.5841 4.88264C78.7892 4.5941 79.0778 4.37288 79.4497 4.21898C79.8216 4.05868 80.2512 3.97853 80.7385 3.97853C81.3926 3.97853 81.9088 4.13563 82.2871 4.44982C82.6654 4.76402 82.8546 5.18402 82.8546 5.70981C82.8546 6.14584 82.6686 6.56584 82.2967 6.9698C81.9248 7.36736 81.3926 7.72003 80.7001 8.02781C80.1486 8.27147 79.7062 8.56323 79.3728 8.90307C79.0457 9.24292 78.8822 9.602 78.8822 9.98032C78.8822 10.2689 79.0137 10.5029 79.2766 10.6824C79.5395 10.8556 79.8761 10.9421 80.2865 10.9421ZM85.3664 12.9908C84.8214 12.9908 84.4206 12.9171 84.1641 12.7696C83.9077 12.6221 83.7794 12.3977 83.7794 12.0963C83.7794 11.9168 83.8564 11.7661 84.0103 11.6443C84.1706 11.5224 84.3597 11.4615 84.5777 11.4615C84.7701 11.4615 84.956 11.5321 85.1356 11.6731C85.3215 11.8142 85.4754 12.0034 85.5973 12.2406C85.9692 12.2406 86.309 12.1669 86.6168 12.0194C86.931 11.8719 87.1779 11.6731 87.3574 11.4231C87.5434 11.1666 87.6363 10.8908 87.6363 10.5959C87.6363 10.3522 87.5722 10.115 87.444 9.88413C87.3221 9.6533 87.1266 9.46414 86.8573 9.31666C86.5879 9.16277 86.2513 9.08582 85.8473 9.08582C85.6806 9.08582 85.4851 9.10826 85.2606 9.15315C85.1709 9.17238 85.1067 9.182 85.0683 9.182C85.0106 9.182 84.9625 9.15956 84.924 9.11467C84.8855 9.06979 84.8663 9.01849 84.8663 8.96078L85.4434 5.61363L86.4725 5.95989L86.0686 8.39331C86.6072 8.39331 87.0881 8.48308 87.5113 8.66262C87.9409 8.84216 88.2743 9.09223 88.5116 9.41284C88.7553 9.73345 88.8771 10.0957 88.8771 10.4997C88.8771 10.9742 88.7232 11.4006 88.4154 11.7789C88.114 12.1572 87.694 12.4522 87.1554 12.6638C86.6232 12.8818 86.0269 12.9908 85.3664 12.9908ZM87.242 6.24844C86.4597 6.24844 85.8826 6.1747 85.5107 6.02722C85.1388 5.87974 84.9528 5.65531 84.9528 5.35394C84.9528 5.16157 85.0041 5.0173 85.1067 4.92112C85.2157 4.81852 85.376 4.76722 85.5876 4.76722C85.7672 4.76722 85.9307 4.82814 86.0782 4.94997C86.2321 5.0718 86.3571 5.23211 86.4533 5.43088C86.8124 5.41165 87.2163 5.33791 87.6652 5.20966C88.1205 5.07501 88.5629 4.90829 88.9925 4.70952C89.0374 4.77364 89.0695 4.8602 89.0887 4.96921C89.1143 5.0718 89.1272 5.18081 89.1272 5.29623C89.1272 5.52065 89.0438 5.7034 88.8771 5.84447C88.7168 5.98554 88.4956 6.08813 88.2134 6.15225C87.9377 6.21637 87.6139 6.24844 87.242 6.24844Z" fill="black"/>
</svg>
