<svg width="95" height="61" viewBox="0 0 95 61" fill="none" xmlns="http://www.w3.org/2000/svg">
<path d="M93.623 0.75V59.96H0.75V0.75H93.623Z" fill="#ECF7F9" stroke="black" stroke-width="1.5"/>
<path d="M92.8734 53.1575C92.8734 56.7605 92.8734 59.1946 92.8734 59.1946H1.50005V53.1575V42.5775C1.50005 38.9745 1.5 36.0493 1.5 36.0493H92.8734C92.8734 36.0493 92.8734 38.9745 92.8734 42.5775V53.1575Z" fill="#3F2826"/>
<path d="M70.9405 42.0372C70.9405 44.7565 60.6289 46.9579 47.9086 46.9579C35.1883 46.9579 24.876 44.7565 24.876 42.0372C24.876 39.3216 35.1883 37.1216 47.9086 37.1216C60.6289 37.1216 70.9405 39.3216 70.9405 42.0372Z" fill="#160E0D"/>
<path d="M53.0942 42.8468L50.8097 42.5002L51.4532 39.037L48.7383 37.6712L49.1124 40.8274L42.2553 41.5533L41.5836 35.898L44.5774 35.5817L41.3901 33.979L41.3554 33.9812L41.3525 33.9603L39.1569 32.8559L41.1199 32.0065L40.6837 28.326L40.9033 28.3036L36.6066 25.1762L36.7994 26.7991L29.9417 27.525L29.27 21.8698L36.1277 21.1439L36.2635 22.285L42.2091 19.4748L41.827 18.6009L39.5584 18.8399L38.8867 13.1847L42.061 12.8488L43.044 12.1295L42.1723 10.898L38.66 11.2693L37.989 5.61548L40.4966 5.34969L41.861 2.44263L24.7061 4.25837L28.8669 39.3121C29.7279 40.0438 30.6365 40.7328 31.5855 41.3792L31.0676 37.0125L37.9254 36.2844L38.5971 41.939L33.3305 42.4965C35.6373 43.8681 38.1587 44.9934 40.8375 45.8348L53.2921 44.5167L53.0942 42.8468ZM27.473 6.72774L34.3315 6.00116L35.0025 11.6564L28.1454 12.3823L27.473 6.72774ZM28.3722 14.2991L35.23 13.5725L35.9017 19.2278L29.0446 19.9543L28.3722 14.2991ZM30.8409 35.0956L30.1699 29.4411L37.0269 28.7153L37.6979 34.3698L30.8409 35.0956Z" fill="#B09373"/>
<path d="M34.3312 6.00122L27.4727 6.72779L28.1444 12.383L35.0014 11.6572L34.3312 6.00122Z" fill="#85675D"/>
<path d="M40.4959 5.34961L37.9883 5.61541L38.6593 11.2692L42.1716 10.8987L39.5982 7.26503L40.4959 5.34961Z" fill="#85675D"/>
<path d="M35.2281 13.5725L28.3711 14.2991L29.0428 19.9543L35.8998 19.2277L35.2281 13.5725Z" fill="#85675D"/>
<path d="M42.0593 12.8496L38.8857 13.1855L39.5574 18.8407L41.826 18.6016L39.9778 14.3743L42.0593 12.8496Z" fill="#85675D"/>
<path d="M36.2641 22.2849L36.1283 21.1438L29.2705 21.8697L29.9422 27.5249L36.7993 26.799L36.6064 25.1761L34.0648 23.3243L36.2641 22.2849Z" fill="#85675D"/>
<path d="M30.1689 29.4412L30.8399 35.0957L37.697 34.3698L37.026 28.7153L30.1689 29.4412Z" fill="#85675D"/>
<path d="M39.5859 35.4221L39.617 35.4199L39.583 35.4033L39.5859 35.4221Z" fill="#85675D"/>
<path d="M40.9034 28.3035L40.6846 28.3266L41.1208 32.0064L44.1745 30.6862L40.9034 28.3035Z" fill="#85675D"/>
<path d="M37.9252 36.2844L31.0674 37.0125L31.5852 41.3792C32.1544 41.7678 32.7329 42.1419 33.3302 42.4972L38.5969 41.9397L37.9252 36.2844Z" fill="#85675D"/>
<path d="M41.583 35.8981L42.2547 41.5534L49.111 40.8275L48.7376 37.6713L44.5767 35.5825L41.583 35.8981Z" fill="#85675D"/>
<path d="M39.5983 7.26504L42.1717 10.8987L43.0435 12.1301L42.0598 12.8495L39.9783 14.3742L41.8265 18.6015L42.2086 19.4754L36.2637 22.285L34.0645 23.3243L36.6061 25.1761L40.9027 28.3035L44.1738 30.6862L41.1201 32.0065L39.1563 32.8559L41.352 33.9602L41.3895 33.9797L44.5768 35.5824L48.7377 37.6711L51.4519 39.0369L51.4751 38.9163L44.0987 34.4289L43.4646 34.07L48.3268 29.9791L40.1126 23.3243L44.2952 19.4603L41.9435 14.8068L44.527 12.1337L41.4285 7.5525L41.8872 2.3855L41.8604 2.44256L40.4961 5.34962L39.5983 7.26504Z" fill="#4F3330"/>
<path d="M62.2143 13.355L62.4353 13.3984L59.3491 15.3564L63.5461 17.6503L63.5974 17.3816L69.8846 18.574L68.8157 24.2105L62.5278 23.0173L63.484 17.9782L59.5918 20.1825L59.1744 22.3817L56.5771 21.8899L55.3349 22.5926L56.7743 23.9042L58.8118 24.2914L58.5742 25.5445L58.9447 25.8825L58.4752 26.0703L57.7436 29.9271L51.4556 28.7347L51.5329 28.3273L48.2965 29.3645L48.5219 28.1778L48.7313 27.0742L51.9778 25.9872L52.526 23.0989L52.5867 23.1105L51.4578 22.4366L53.4144 21.2904L52.8879 21.19L53.9568 15.5536L56.8205 16.0967L56.484 15.9696L59.5716 12.8567L51.712 11.3652L47.2456 34.9106L47.1062 35.6473L46.5256 38.7097L46.5032 38.8317L45.8438 42.3065L47.9563 42.7081L60.5163 45.0901C63.5729 43.8615 66.3723 42.1917 68.8309 40.1744L73.511 15.5001L62.2143 13.355ZM56.3128 37.4717L50.0256 36.2793L51.0938 30.6428L57.3817 31.8353L56.3128 37.4717ZM65.9541 39.3005L59.6662 38.1081L60.7351 32.4709L67.0223 33.664L65.9541 39.3005ZM67.3849 31.7551L61.097 30.5627L62.1659 24.927L68.4538 26.1187L67.3849 31.7551Z" fill="#B09373"/>
<path d="M59.1753 22.3802L59.5921 20.1809L56.5781 21.889L59.1753 22.3802Z" fill="#85675D"/>
<path d="M60.129 17.3504L56.8204 16.0951L53.9566 15.552L52.8877 21.1884L53.4142 21.2888L60.129 17.3504Z" fill="#85675D"/>
<path d="M63.4846 17.9775L62.5283 23.0166L68.8162 24.2098L69.8845 18.574L63.5972 17.3809L63.546 17.6503L63.8089 17.794L63.4846 17.9775Z" fill="#85675D"/>
<path d="M58.8119 24.2907L56.7744 23.9036L58.5743 25.5438L58.8119 24.2907Z" fill="#85675D"/>
<path d="M52.5864 23.109L52.5257 23.0974L51.9775 25.9857L55.4552 24.8214L52.5864 23.109Z" fill="#85675D"/>
<path d="M51.5336 28.3259L51.457 28.7333L57.7442 29.9257L58.4766 26.0696L58.0844 26.2242L51.5336 28.3259Z" fill="#85675D"/>
<path d="M62.1757 24.9299L61.1064 30.5657L67.3943 31.7586L68.4635 26.1229L62.1757 24.9299Z" fill="#85675D"/>
<path d="M51.1016 30.6426L50.0322 36.2791L56.3201 37.472L57.3894 31.8355L51.1016 30.6426Z" fill="#85675D"/>
<path d="M60.7461 32.4763L59.6768 38.1128L65.9646 39.3057L67.034 33.6693L60.7461 32.4763Z" fill="#85675D"/>
<path d="M56.8204 16.0952L60.1291 17.3505L53.4143 21.289L51.4577 22.4352L52.5866 23.109L55.4554 24.8215L51.9777 25.9858L48.7319 27.0727L48.5225 28.1771L56.7756 25.6867L57.2061 25.5149L53.1391 22.537L62.2951 17.7622L58.0237 15.2842L60.6548 13.0596L59.5715 12.8545V12.8552L56.4838 15.9681L56.8204 16.0952Z" fill="#4F3330"/>
<path d="M58.0225 15.2841L62.2939 17.7621L53.1379 22.5369L57.2049 25.5148L56.7744 25.6867L48.5212 28.177L48.2959 29.363L58.9448 25.8817L58.5743 25.5437L56.7744 23.9034L55.335 22.5911L56.5772 21.8891L59.5912 20.181L63.4841 17.9774L63.8084 17.7939L63.5455 17.6502L59.3492 15.3563L62.4347 13.3983L62.2137 13.355L60.6536 13.0596L58.0225 15.2841Z" fill="#3F2826"/>
<path d="M28.5518 40.1311C28.5518 40.1311 63.9096 44.8041 65.7622 43.8449L62.2932 45.0879C62.2932 45.0879 40.6502 47.0719 36.3528 45.8947C36.3528 45.8947 28.9035 43.0909 28.5518 40.1311Z" fill="#160E0D"/>
<path d="M40.8428 56.9957L41.0378 53.8568L43.5216 54.6267L42.5776 48.6024L46.7212 49.7284L47.7157 47.0734L49.5502 47.194L50.0443 44.2421L52.5216 43.1118L51.1255 45.0294L50.5166 48.0997L48.6503 48.429L48.1086 51.0385L45.7353 51.1721L46.3138 56.3478L42.9922 56.2012L44.0799 58.5362C44.0799 58.5362 42.569 57.8992 41.7745 57.4911C41.7745 57.4911 41.3079 57.3207 40.8428 56.9957Z" fill="#160E0D"/>
<path d="M52.5225 43.1121L51.1264 45.0296L50.5175 48.0999L48.6512 48.4293L48.1095 51.0388L45.7362 51.1724L46.3147 56.3481L42.9931 56.2014L44.0808 58.5365C44.0808 58.5365 42.5749 58.0388 42.2232 57.6539L42.2008 56.0281L42.1055 55.6894L45.2003 55.6785L44.6658 50.5274L47.4472 50.3859L48.2453 47.8638L50.0618 47.6659L50.5768 44.9336L52.5225 43.1121Z" fill="#211514"/>
<path d="M81.3802 11.7405C81.1558 11.7405 80.9859 11.6571 80.8705 11.4904C80.755 11.3173 80.6973 11.0672 80.6973 10.7402C80.6973 10.2079 80.7486 9.6052 80.8512 8.93193C80.9538 8.25224 81.1205 7.41224 81.3514 6.41195C81.0244 6.41195 80.755 6.34782 80.5434 6.21958C80.3383 6.09134 80.2132 5.9118 80.1683 5.68096C80.4761 5.59119 80.739 5.49821 80.957 5.40203C81.1815 5.30585 81.4251 5.18722 81.688 5.04615C81.874 4.94356 82.0214 4.87303 82.1305 4.83455C82.2395 4.78967 82.3453 4.76722 82.4479 4.76722C82.7043 4.76722 82.8326 4.9147 82.8326 5.20966C82.8326 5.30585 82.8069 5.48218 82.7556 5.73867C82.7043 5.98874 82.6434 6.26126 82.5729 6.55622C82.3741 7.40904 82.2138 8.15926 82.092 8.80689C81.9766 9.45452 81.9189 10.0637 81.9189 10.6344C81.9189 10.9806 81.9734 11.282 82.0824 11.5385C81.8323 11.6731 81.5982 11.7405 81.3802 11.7405ZM86.7457 11.7405C86.0532 11.7405 85.4953 11.516 85.0721 11.0672C84.6553 10.6119 84.4469 9.95467 84.4469 9.09544C84.4469 8.16567 84.6746 7.27438 85.1298 6.42156C85.5915 5.56233 86.1526 4.86982 86.813 4.34402C87.4799 3.81181 88.0826 3.54571 88.6213 3.54571C88.8393 3.54571 89.0092 3.58739 89.131 3.67074C89.2593 3.74769 89.3683 3.89196 89.4581 4.10357C88.99 4.27669 88.5443 4.4915 88.1211 4.74799C87.7043 5.00447 87.2875 5.36997 86.8707 5.84447C86.4604 6.31897 86.1077 6.92171 85.8127 7.6527H85.8705C86.1398 7.29362 86.4251 7.04354 86.7265 6.90248C87.0278 6.755 87.3485 6.68126 87.6883 6.68126C88.1115 6.68126 88.4738 6.77744 88.7752 6.9698C89.0829 7.16217 89.3138 7.42507 89.4677 7.7585C89.628 8.09193 89.7081 8.47346 89.7081 8.90307C89.7081 9.42887 89.5703 9.90978 89.2945 10.3458C89.0252 10.7818 88.6629 11.1249 88.2077 11.375C87.7524 11.6186 87.2651 11.7405 86.7457 11.7405ZM86.89 10.9902C87.1272 10.9902 87.3677 10.9101 87.6114 10.7498C87.855 10.5895 88.0602 10.3522 88.2269 10.038C88.3936 9.71742 88.477 9.33589 88.477 8.89345C88.477 8.48308 88.3744 8.14002 88.1692 7.8643C87.964 7.58217 87.6242 7.4411 87.1497 7.4411C86.9317 7.4411 86.7072 7.51804 86.4764 7.67194C86.2456 7.82583 86.0532 8.05025 85.8993 8.34521C85.7454 8.64017 85.6685 8.99284 85.6685 9.40322C85.6685 9.85207 85.7646 10.2304 85.957 10.5382C86.1494 10.8395 86.4604 10.9902 86.89 10.9902Z" fill="black"/>
</svg>
