<svg width="95" height="61" viewBox="0 0 95 61" fill="none" xmlns="http://www.w3.org/2000/svg">
<path d="M93.623 0.75V59.96H0.75V0.75H93.623Z" fill="#E1F5FB" stroke="black" stroke-width="1.5"/>
<path d="M92.8733 58.6613H1.5L7.76777 40.4527L14.03 31.0674L22.385 37.2559L28.6522 34.6427L35.9608 13.7583L46.924 3.46851L50.0576 10.6247L58.933 12.7169L62.587 23.6801L69.8956 28.3805L77.7302 47.1727L92.8733 58.6613Z" fill="white"/>
<path d="M64.4592 58.6613H1.5L7.76777 40.4527L14.03 31.0674L22.385 37.2559L28.6522 34.6427L35.9608 13.7583L46.924 3.46851L43.8796 12.5329L48.1649 22.4603L46.0245 31.0674L59.8059 36.5465L64.4592 58.6613Z" fill="#9BD6EA"/>
<path d="M28.652 34.6428L35.6796 40.7133L38.2423 51.2497L33.4472 41.2032L34.5307 52.965L29.9112 42.6736L24.0308 43.8042L22.3848 37.256L28.652 34.6428Z" fill="#BBE4F1"/>
<path d="M14.0303 31.0674L18.8205 58.6613L24.0313 43.8041L22.3853 37.2559L14.0303 31.0674Z" fill="#E6F5FA"/>
<path d="M50.0579 10.6248L43.8799 12.533L58.9333 12.717L50.0579 10.6248Z" fill="#9BD6EA"/>
<path d="M48.1648 22.4602V29.9317L57.6 26.1957L50.3718 31.0646L59.8058 36.5465L46.0244 31.0674L48.1648 22.4602Z" fill="#E6F5FA"/>
<path d="M77.7295 47.1729L69.9736 53.945L77.7295 50.5592L92.8727 58.6614L77.7295 47.1729Z" fill="#E6F5FA"/>
<path d="M69.8954 28.3806L69.9741 53.9449L64.459 58.6614L59.8057 36.5466L69.8954 28.3806Z" fill="#BBE4F1"/>
<path d="M46.0244 31.0674V33.7909L52.9151 43.5209L49.8209 34.6427L59.8058 36.5465L46.0244 31.0674Z" fill="#BBE4F1"/>
<path d="M7.76777 40.4526L12.6982 58.6612H1.5L7.76777 40.4526Z" fill="#BBE4F1"/>
<path d="M56.803 58.6612L47.9537 41.1421L49.8203 49.5569L49.5759 54.5572L43.0205 56.0275L34.5303 58.6612H56.803Z" fill="#BBE4F1"/>
<path d="M35.961 13.7584L43.8798 12.533L37.3238 15.9653L28.6523 34.6428L35.961 13.7584Z" fill="#BBE4F1"/>
<path d="M48.1652 22.4603L58.9333 12.717L43.8799 12.533L48.1652 22.4603Z" fill="#E6F5FA"/>
<path d="M77.7677 12.962C77.5496 12.962 77.3765 12.9203 77.2483 12.8369C77.1264 12.76 77.0238 12.6157 76.9405 12.4041C77.4086 12.231 77.851 12.0162 78.2678 11.7597C78.691 11.5032 79.1078 11.1377 79.5182 10.6632C79.9286 10.1823 80.2812 9.57956 80.5762 8.85498H80.5185C80.2492 9.21406 79.9638 9.46734 79.6625 9.61482C79.3611 9.75589 79.0405 9.82642 78.7006 9.82642C78.2774 9.82642 77.9119 9.73024 77.6041 9.53788C77.3028 9.34551 77.0719 9.08261 76.9116 8.74918C76.7577 8.40934 76.6808 8.02781 76.6808 7.60461C76.6808 7.0724 76.8155 6.59149 77.0848 6.16187C77.3605 5.72584 77.7228 5.386 78.1716 5.14234C78.6269 4.89226 79.1174 4.76722 79.6432 4.76722C80.3357 4.76722 80.8904 4.99486 81.3072 5.45012C81.7304 5.89897 81.942 6.55301 81.942 7.41224C81.942 8.34201 81.7111 9.23651 81.2495 10.0957C80.7942 10.9486 80.2331 11.6379 79.5663 12.1637C78.9058 12.6959 78.3063 12.962 77.7677 12.962ZM79.2393 9.06658C79.4573 9.06658 79.6817 8.98964 79.9125 8.83574C80.1434 8.68185 80.3357 8.45743 80.4896 8.16247C80.6435 7.86751 80.7205 7.51484 80.7205 7.10446C80.7205 6.65561 80.6211 6.2805 80.4223 5.97912C80.2299 5.67134 79.9221 5.51745 79.4989 5.51745C79.2617 5.51745 79.018 5.5976 78.768 5.7579C78.5243 5.91821 78.3191 6.15867 78.1524 6.47927C77.9857 6.79347 77.9023 7.17179 77.9023 7.61423C77.9023 8.02461 78.0049 8.37086 78.2101 8.653C78.4217 8.92872 78.7648 9.06658 79.2393 9.06658ZM85.814 11.7405C85.3074 11.7405 84.865 11.6186 84.4867 11.375C84.1084 11.1313 83.8166 10.785 83.6114 10.3362C83.4126 9.88734 83.3133 9.36154 83.3133 8.7588C83.3133 7.9701 83.4671 7.27438 83.7749 6.67164C84.0827 6.06889 84.5155 5.60081 85.0734 5.26737C85.6313 4.93394 86.2693 4.76722 86.9874 4.76722C87.1028 4.76722 87.2375 4.78326 87.3914 4.81532C87.5453 4.84096 87.6703 4.87303 87.7665 4.9115C87.8114 4.9628 87.8435 5.11669 87.8627 5.37317C88.2667 5.48218 88.5744 5.74187 88.786 6.15225C88.9976 6.55622 89.1034 7.08522 89.1034 7.73926C89.1034 8.48308 88.956 9.15956 88.661 9.76871C88.3725 10.3779 87.9781 10.8588 87.478 11.2115C86.9778 11.5641 86.4232 11.7405 85.814 11.7405ZM85.9006 11.0095C86.2789 11.0095 86.6187 10.8748 86.9201 10.6055C87.2215 10.3362 87.4555 9.96108 87.6222 9.48017C87.7954 8.99925 87.8819 8.45422 87.8819 7.84506C87.8819 7.1269 87.7473 6.59149 87.478 6.23882C87.2151 5.88615 86.8047 5.70981 86.2468 5.70981C86.0352 5.70981 85.7755 5.76111 85.4677 5.86371C85.1664 6.29973 84.9355 6.78385 84.7752 7.31606C84.6149 7.84186 84.5348 8.36445 84.5348 8.88384C84.5348 9.53788 84.6566 10.0573 84.9003 10.442C85.1503 10.8203 85.4838 11.0095 85.9006 11.0095Z" fill="black"/>
</svg>
