<svg width="95" height="61" viewBox="0 0 95 61" fill="none" xmlns="http://www.w3.org/2000/svg">
<path d="M93.623 0.75V59.96H0.75V0.75H93.623Z" fill="#FFC270" stroke="black" stroke-width="1.5"/>
<path d="M79.0584 12.962C78.8404 12.962 78.6673 12.9203 78.539 12.8369C78.4172 12.76 78.3146 12.6157 78.2312 12.4041C78.6993 12.231 79.1418 12.0162 79.5586 11.7597C79.9818 11.5032 80.3986 11.1377 80.8089 10.6632C81.2193 10.1823 81.572 9.57956 81.8669 8.85498H81.8092C81.5399 9.21406 81.2546 9.46734 80.9532 9.61482C80.6518 9.75589 80.3312 9.82642 79.9914 9.82642C79.5682 9.82642 79.2027 9.73024 78.8949 9.53788C78.5935 9.34551 78.3627 9.08261 78.2024 8.74918C78.0485 8.40934 77.9715 8.02781 77.9715 7.60461C77.9715 7.0724 78.1062 6.59149 78.3755 6.16187C78.6512 5.72584 79.0135 5.386 79.4624 5.14234C79.9176 4.89226 80.4082 4.76722 80.934 4.76722C81.6265 4.76722 82.1811 4.99486 82.5979 5.45012C83.0211 5.89897 83.2327 6.55301 83.2327 7.41224C83.2327 8.34201 83.0019 9.23651 82.5402 10.0957C82.085 10.9486 81.5239 11.6379 80.857 12.1637C80.1966 12.6959 79.597 12.962 79.0584 12.962ZM80.53 9.06658C80.748 9.06658 80.9724 8.98964 81.2033 8.83574C81.4341 8.68185 81.6265 8.45743 81.7804 8.16247C81.9343 7.86751 82.0112 7.51484 82.0112 7.10446C82.0112 6.65561 81.9118 6.2805 81.713 5.97912C81.5207 5.67134 81.2129 5.51745 80.7897 5.51745C80.5524 5.51745 80.3088 5.5976 80.0587 5.7579C79.815 5.91821 79.6099 6.15867 79.4431 6.47927C79.2764 6.79347 79.1931 7.17179 79.1931 7.61423C79.1931 8.02461 79.2957 8.37086 79.5008 8.653C79.7125 8.92872 80.0555 9.06658 80.53 9.06658ZM85.7582 13.0004C85.2132 13.0004 84.806 12.9267 84.5367 12.7792C84.2738 12.6317 84.1423 12.4105 84.1423 12.1156C84.1423 11.9296 84.2161 11.7757 84.3636 11.6539C84.5174 11.5321 84.7034 11.4711 84.9214 11.4711C85.1138 11.4711 85.3029 11.5417 85.4889 11.6827C85.6748 11.8238 85.8287 12.0162 85.9506 12.2598C86.3353 12.2598 86.688 12.1861 87.0086 12.0386C87.3292 11.8911 87.5825 11.6892 87.7684 11.4327C87.9544 11.1762 88.0473 10.8941 88.0473 10.5863C88.0473 10.3105 87.9704 10.0509 87.8165 9.80719C87.669 9.55711 87.4895 9.40002 87.2779 9.33589C86.8547 9.61803 86.4956 9.7591 86.2006 9.7591C86.0275 9.7591 85.88 9.7078 85.7582 9.6052C85.6428 9.4962 85.5851 9.36475 85.5851 9.21086C85.5851 8.98643 85.6813 8.80689 85.8736 8.67223C86.0724 8.53758 86.3321 8.47025 86.6527 8.47025C87.1528 8.47025 87.6017 8.56002 87.9992 8.73956C88.3968 8.91269 88.7078 9.15315 88.9322 9.46093C89.1566 9.76871 89.2689 10.1182 89.2689 10.5093C89.2689 10.9838 89.1182 11.4102 88.8168 11.7885C88.5154 12.1669 88.0954 12.4618 87.5568 12.6734C87.0246 12.8914 86.4251 13.0004 85.7582 13.0004ZM86.6719 8.76842C87.1272 8.6017 87.4927 8.34842 87.7684 8.00858C88.0441 7.66873 88.182 7.30003 88.182 6.90248C88.182 6.48569 88.089 6.1747 87.9031 5.96951C87.7171 5.76432 87.435 5.66172 87.0567 5.66172C86.8002 5.66172 86.5629 5.73226 86.3449 5.87332C86.1333 6.00798 85.957 6.19714 85.8159 6.4408C85.6813 6.67805 85.6043 6.94416 85.5851 7.23912C85.3542 7.20705 85.1715 7.1237 85.0368 6.98904C84.9086 6.85439 84.8445 6.67805 84.8445 6.46004C84.8445 6.1266 84.9471 5.83164 85.1522 5.57516C85.3574 5.31867 85.6492 5.11989 86.0275 4.97883C86.4058 4.83776 86.8419 4.76722 87.3356 4.76722C87.7331 4.76722 88.089 4.84417 88.4032 4.99806C88.7174 5.15195 88.9611 5.36676 89.1342 5.64249C89.3137 5.91821 89.4035 6.2292 89.4035 6.57546C89.4035 7.03072 89.2496 7.47637 88.9418 7.91239C88.6405 8.34201 88.2044 8.73636 87.6338 9.09544L86.6719 8.76842Z" fill="black"/>
</svg>
