<svg width="95" height="61" viewBox="0 0 95 61" fill="none" xmlns="http://www.w3.org/2000/svg">
<path d="M93.623 0.75V59.96H0.75V0.75H93.623Z" fill="#D9D9D9" stroke="black" stroke-width="1.5"/>
<path d="M78.5942 13.0004C78.0492 13.0004 77.642 12.9267 77.3727 12.7792C77.1098 12.6317 76.9783 12.4105 76.9783 12.1156C76.9783 11.9296 77.0521 11.7757 77.1996 11.6539C77.3534 11.5321 77.5394 11.4711 77.7574 11.4711C77.9498 11.4711 78.1389 11.5417 78.3249 11.6827C78.5108 11.8238 78.6647 12.0162 78.7866 12.2598C79.1713 12.2598 79.524 12.1861 79.8446 12.0386C80.1652 11.8911 80.4185 11.6892 80.6044 11.4327C80.7904 11.1762 80.8833 10.8941 80.8833 10.5863C80.8833 10.3105 80.8064 10.0509 80.6525 9.80719C80.505 9.55711 80.3255 9.40002 80.1139 9.33589C79.6907 9.61803 79.3316 9.7591 79.0366 9.7591C78.8635 9.7591 78.716 9.7078 78.5942 9.6052C78.4788 9.4962 78.4211 9.36475 78.4211 9.21086C78.4211 8.98643 78.5173 8.80689 78.7096 8.67223C78.9084 8.53758 79.1681 8.47025 79.4887 8.47025C79.9888 8.47025 80.4377 8.56002 80.8353 8.73956C81.2328 8.91269 81.5438 9.15315 81.7682 9.46093C81.9927 9.76871 82.1049 10.1182 82.1049 10.5093C82.1049 10.9838 81.9542 11.4102 81.6528 11.7885C81.3514 12.1669 80.9314 12.4618 80.3928 12.6734C79.8606 12.8914 79.2611 13.0004 78.5942 13.0004ZM79.5079 8.76842C79.9632 8.6017 80.3287 8.34842 80.6044 8.00858C80.8801 7.66873 81.018 7.30003 81.018 6.90248C81.018 6.48569 80.925 6.1747 80.7391 5.96951C80.5531 5.76432 80.271 5.66172 79.8927 5.66172C79.6362 5.66172 79.3989 5.73226 79.1809 5.87332C78.9693 6.00798 78.793 6.19714 78.6519 6.4408C78.5173 6.67805 78.4403 6.94416 78.4211 7.23912C78.1902 7.20705 78.0075 7.1237 77.8728 6.98904C77.7446 6.85439 77.6805 6.67805 77.6805 6.46004C77.6805 6.1266 77.7831 5.83164 77.9883 5.57516C78.1934 5.31867 78.4852 5.11989 78.8635 4.97883C79.2418 4.83776 79.6779 4.76722 80.1716 4.76722C80.5692 4.76722 80.925 4.84417 81.2392 4.99806C81.5534 5.15195 81.7971 5.36676 81.9702 5.64249C82.1497 5.91821 82.2395 6.2292 82.2395 6.57546C82.2395 7.03072 82.0856 7.47637 81.7778 7.91239C81.4765 8.34201 81.0404 8.73636 80.4698 9.09544L79.5079 8.76842ZM86.2514 11.7405C85.5589 11.7405 85.001 11.516 84.5778 11.0672C84.161 10.6119 83.9526 9.95467 83.9526 9.09544C83.9526 8.16567 84.1803 7.27438 84.6355 6.42156C85.0972 5.56233 85.6583 4.86982 86.3187 4.34402C86.9856 3.81181 87.5883 3.54571 88.1269 3.54571C88.345 3.54571 88.5149 3.58739 88.6367 3.67074C88.765 3.74769 88.874 3.89196 88.9637 4.10357C88.4956 4.27669 88.05 4.4915 87.6268 4.74799C87.21 5.00447 86.7932 5.36997 86.3764 5.84447C85.966 6.31897 85.6134 6.92171 85.3184 7.6527H85.3761C85.6454 7.29362 85.9308 7.04354 86.2321 6.90248C86.5335 6.755 86.8541 6.68126 87.194 6.68126C87.6172 6.68126 87.9795 6.77744 88.2808 6.9698C88.5886 7.16217 88.8195 7.42507 88.9733 7.7585C89.1337 8.09193 89.2138 8.47346 89.2138 8.90307C89.2138 9.42887 89.0759 9.90978 88.8002 10.3458C88.5309 10.7818 88.1686 11.1249 87.7134 11.375C87.2581 11.6186 86.7708 11.7405 86.2514 11.7405ZM86.3957 10.9902C86.6329 10.9902 86.8734 10.9101 87.117 10.7498C87.3607 10.5895 87.5659 10.3522 87.7326 10.038C87.8993 9.71742 87.9827 9.33589 87.9827 8.89345C87.9827 8.48308 87.8801 8.14002 87.6749 7.8643C87.4697 7.58217 87.1298 7.4411 86.6553 7.4411C86.4373 7.4411 86.2129 7.51804 85.9821 7.67194C85.7512 7.82583 85.5589 8.05025 85.405 8.34521C85.2511 8.64017 85.1741 8.99284 85.1741 9.40322C85.1741 9.85207 85.2703 10.2304 85.4627 10.5382C85.6551 10.8395 85.966 10.9902 86.3957 10.9902Z" fill="black"/>
</svg>
