<svg width="95" height="61" viewBox="0 0 95 61" fill="none" xmlns="http://www.w3.org/2000/svg">
<path d="M93.623 0.75V59.96H0.75V0.75H93.623Z" fill="#D9D9D9" stroke="black" stroke-width="1.5"/>
<path d="M49.3763 15.4821H44.9971L46.3634 4.23879C46.4202 3.77361 46.8148 3.42358 47.2838 3.42358H47.3007C47.7758 3.42358 48.1742 3.78283 48.2226 4.25568L49.3763 15.4821Z" fill="white"/>
<path d="M55.6388 37.7959H38.7344V45.1213H55.6388V37.7959Z" fill="white"/>
<path d="M50.4701 16.3833C48.3246 15.76 46.0464 15.76 43.9016 16.3833C43.7965 16.0225 43.6921 15.6617 43.5869 15.301C45.9374 14.6178 48.4337 14.6178 50.7849 15.301C50.6797 15.6617 50.5753 16.0225 50.4701 16.3833Z" fill="white"/>
<path d="M43.1905 20.7072C42.6639 20.8208 42.1412 20.9574 41.623 21.1171C41.623 19.6141 41.623 18.1118 41.623 16.6096C42.1404 16.4499 42.6639 16.3141 43.1905 16.1997C43.1905 17.7019 43.1905 19.2042 43.1905 20.7072Z" fill="white"/>
<path d="M44.7804 20.4338C44.2477 20.5021 43.7172 20.5934 43.1914 20.707C43.1914 19.204 43.1914 17.7018 43.1914 16.1988C43.718 16.0852 44.2484 15.9939 44.7804 15.9255C44.7804 17.4285 44.7804 18.9308 44.7804 20.4338Z" fill="white"/>
<path d="M46.3823 20.2972C45.8473 20.3203 45.3122 20.3656 44.7803 20.4339C44.7803 18.9309 44.7803 17.4287 44.7803 15.9264C45.313 15.8581 45.8473 15.8128 46.3823 15.7898C46.3823 17.292 46.3823 18.7942 46.3823 20.2972Z" fill="white"/>
<path d="M47.9904 20.2972C47.4546 20.2742 46.9188 20.2742 46.3838 20.2972C46.3838 18.7942 46.3838 17.292 46.3838 15.789C46.9196 15.766 47.4554 15.766 47.9904 15.789C47.9904 17.292 47.9904 18.7942 47.9904 20.2972Z" fill="white"/>
<path d="M49.592 20.4339C49.0593 20.3656 48.5251 20.3203 47.9893 20.2973C47.9893 18.7943 47.9893 17.2921 47.9893 15.7891C48.5243 15.8121 49.0593 15.8574 49.592 15.9257C49.592 17.4287 49.592 18.9309 49.592 20.4339Z" fill="white"/>
<path d="M51.1817 20.707C50.6552 20.5934 50.1247 20.502 49.5928 20.4337C49.5928 18.9307 49.5928 17.4285 49.5928 15.9263C50.1255 15.9946 50.6552 16.0852 51.1817 16.1995C51.1817 17.7018 51.1817 19.204 51.1817 20.707Z" fill="white"/>
<path d="M52.7491 21.1164C52.2317 20.9567 51.7082 20.8208 51.1816 20.7065C51.1816 19.2035 51.1816 17.7012 51.1816 16.1982C51.7082 16.3118 52.231 16.4485 52.7491 16.6081C52.7491 18.1111 52.7491 19.6141 52.7491 21.1164Z" fill="white"/>
<path d="M60.1714 26.2249C60.1714 35.0056 60.1714 43.7012 60.1714 53.9489C60.1714 55.4051 59.3048 56.6525 58.0551 57.2282C57.6007 57.4377 57.0956 57.5552 56.5652 57.5552C51.1934 57.5552 45.8216 57.5552 40.449 57.5552C38.4571 57.5352 34.1998 55.3084 34.2021 53.3479C34.2144 53.2197 34.2267 53.0907 34.239 52.9625C34.3403 51.9193 34.4416 50.8746 34.5422 49.8276C35.3044 41.8919 36.0598 33.8297 36.8136 25.6776C36.812 23.6603 38.411 21.6683 40.4068 21.3973C45.0977 20.2689 49.8585 19.7677 54.5456 19.9741H54.5463C56.546 20.252 60.1753 24.2367 60.1714 26.2249Z" fill="white"/>
<path d="M58.0551 57.2283C57.6007 57.4378 57.0956 57.5553 56.5652 57.5553C51.1934 57.5553 45.8216 57.5553 40.449 57.5553C38.4571 57.5353 34.1998 55.3085 34.2021 53.348C34.2144 53.2198 34.2267 53.0908 34.239 52.9626C34.2144 52.7945 34.2021 52.6226 34.2021 52.4468C34.2021 51.531 34.2021 50.6152 34.2021 49.6995C34.3158 49.7424 34.4286 49.7847 34.5422 49.8277C37.9259 51.1111 41.3287 52.578 44.7262 54.0971C45.5468 54.722 46.3666 55.3514 47.1864 55.9809C50.0719 55.9809 52.9581 55.9916 55.8421 56.0131C56.5797 56.4223 57.3174 56.8276 58.0551 57.2283Z" fill="white"/>
<path d="M57.5615 24.1485C57.5531 33.551 57.5439 42.9544 57.5354 52.3569C57.5339 54.375 55.9181 56.0046 53.9261 56C48.5535 55.9693 43.1779 55.9755 37.8069 56.0184C35.9915 56.0269 34.4885 54.6943 34.239 52.9626C34.2144 52.7944 34.2021 52.6225 34.2021 52.4467C34.2021 43.2054 34.2021 33.964 34.2021 24.7227C34.2029 22.7437 35.7865 20.675 37.7677 20.282C43.1127 19.2396 48.5873 19.093 53.9683 19.8414C54.1648 19.869 54.3575 19.9128 54.5448 19.9726C56.2643 20.523 57.5631 22.33 57.5615 24.1485Z" fill="white"/>
<path d="M49.344 16.7493H45.2158L46.5039 6.15056C46.5574 5.71205 46.9293 5.38208 47.3715 5.38208H47.3874C47.8353 5.38208 48.2109 5.72073 48.2564 6.16648L49.344 16.7493Z" fill="#526EC5"/>
<path d="M55.2479 37.7842H39.3125V44.6896H55.2479V37.7842Z" fill="white"/>
<path d="M50.3754 17.5988C48.3529 17.0112 46.2052 17.0112 44.1834 17.5988C44.0843 17.2587 43.9859 16.9186 43.8867 16.5785C46.1024 15.9345 48.4556 15.9345 50.6721 16.5785C50.5729 16.9186 50.4745 17.2587 50.3754 17.5988Z" fill="#708FCC"/>
<path d="M43.5137 21.6751C43.0173 21.7822 42.5246 21.911 42.0361 22.0615C42.0361 20.6447 42.0361 19.2285 42.0361 17.8124C42.5238 17.6619 43.0173 17.5338 43.5137 17.426C43.5137 18.8421 43.5137 20.2582 43.5137 21.6751Z" fill="#D70703"/>
<path d="M45.0116 21.4173C44.5094 21.4817 44.0093 21.5678 43.5137 21.6749C43.5137 20.258 43.5137 18.8419 43.5137 17.4251C44.0101 17.318 44.5101 17.2319 45.0116 17.1675C45.0116 18.5843 45.0116 20.0004 45.0116 21.4173Z" fill="#E71712"/>
<path d="M46.5229 21.2886C46.0185 21.3103 45.5142 21.353 45.0127 21.4174C45.0127 20.0006 45.0127 18.5845 45.0127 17.1683C45.5149 17.1039 46.0185 17.0613 46.5229 17.0396C46.5229 18.4557 46.5229 19.8718 46.5229 21.2886Z" fill="#D70703"/>
<path d="M48.037 21.2885C47.5319 21.2668 47.0268 21.2668 46.5225 21.2885C46.5225 19.8717 46.5225 18.4556 46.5225 17.0387C47.0275 17.017 47.5326 17.017 48.037 17.0387C48.037 18.4556 48.037 19.8717 48.037 21.2885Z" fill="#E71712"/>
<path d="M49.548 21.4174C49.0458 21.353 48.5422 21.3103 48.0371 21.2886C48.0371 19.8718 48.0371 18.4557 48.0371 17.0388C48.5415 17.0605 49.0458 17.1032 49.548 17.1676C49.548 18.5845 49.548 20.0006 49.548 21.4174Z" fill="#D70703"/>
<path d="M51.0457 21.6749C50.5493 21.5678 50.0493 21.4817 49.5479 21.4173C49.5479 20.0004 49.5479 18.5843 49.5479 17.1682C50.05 17.2326 50.5493 17.318 51.0457 17.4258C51.0457 18.8419 51.0457 20.258 51.0457 21.6749Z" fill="#E71712"/>
<path d="M52.5235 22.0608C52.0358 21.9102 51.5423 21.7822 51.0459 21.6744C51.0459 20.2575 51.0459 18.8414 51.0459 17.4246C51.5423 17.5317 52.0351 17.6605 52.5235 17.811C52.5235 19.2278 52.5235 20.6446 52.5235 22.0608Z" fill="#D70703"/>
<path d="M59.5206 26.8764C59.5206 35.1538 59.5206 43.3509 59.5206 53.0112C59.5206 54.3839 58.7037 55.5598 57.5256 56.1025C57.0973 56.3 56.6211 56.4107 56.1211 56.4107C51.0572 56.4107 45.9934 56.4107 40.9288 56.4107C39.051 56.3919 35.0379 54.2927 35.04 52.4446C35.0516 52.3237 35.0632 52.2022 35.0748 52.0813C35.1703 51.0979 35.2658 50.1131 35.3606 49.1261C36.0791 41.6454 36.7912 34.0452 37.5018 26.3605C37.5003 24.4588 39.0076 22.581 40.889 22.3256C45.311 21.2619 49.7989 20.7893 54.2173 20.984H54.218C56.103 21.2459 59.5243 25.0022 59.5206 26.8764Z" fill="#526EC5"/>
<path d="M57.5256 56.1023C57.0973 56.2999 56.6211 56.4106 56.1211 56.4106C51.0572 56.4106 45.9934 56.4106 40.9288 56.4106C39.051 56.3918 35.0379 54.2926 35.04 52.4445C35.0516 52.3236 35.0632 52.2021 35.0748 52.0812C35.0516 51.9227 35.04 51.7607 35.04 51.595C35.04 50.7317 35.04 49.8684 35.04 49.0051C35.1471 49.0456 35.2535 49.0855 35.3606 49.126C38.5503 50.3359 41.7581 51.7187 44.9608 53.1507C45.7343 53.7397 46.5072 54.3331 47.28 54.9265C50 54.9265 52.7208 54.9366 55.4395 54.9569C56.1348 55.3425 56.8302 55.7246 57.5256 56.1023Z" fill="#526EC5"/>
<path d="M57.0604 24.9189C57.0524 33.7824 57.0437 42.6467 57.0358 51.5103C57.0343 53.4126 55.5111 54.9489 53.6333 54.9445C48.5687 54.9156 43.5013 54.9214 38.4381 54.9619C36.7268 54.9699 35.31 53.7137 35.0748 52.0812C35.0516 51.9227 35.04 51.7606 35.04 51.5949C35.04 42.8833 35.04 34.1717 35.04 25.4601C35.0408 23.5947 36.5336 21.6445 38.4012 21.274C43.4398 20.2914 48.6006 20.1532 53.6731 20.8587C53.8584 20.8847 54.04 20.926 54.2166 20.9824C55.8374 21.5012 57.0618 23.2046 57.0604 24.9189Z" fill="#708FCC"/>
<path d="M37.2305 25.911C37.2305 25.7952 37.6697 25.5941 37.9193 25.5702C41.0519 25.3495 44.2749 25.2373 47.4826 25.2373C49.7823 25.2373 52.1022 25.2952 54.3794 25.4095C54.5509 25.4305 54.8671 25.5825 54.8671 25.6816L54.8389 36.8803C52.4322 36.873 49.9538 36.8701 47.4776 36.8701C44.0607 36.8701 40.6452 36.8752 37.2312 36.8846L37.2305 25.911Z" fill="#92B6C4"/>
<path d="M36.8877 37.2297V25.9109C36.8877 25.4333 37.7575 25.2401 37.8885 25.2271C43.304 24.8458 48.9352 24.79 54.3992 25.0657C54.5548 25.0838 55.2132 25.2568 55.2132 25.6823L55.1843 37.2261L54.8391 37.2246C52.4331 37.2174 49.9547 37.2145 47.4785 37.2145C44.0616 37.2145 40.6469 37.2196 37.2321 37.229L36.8877 37.2297ZM37.5759 26.0448V36.5401C43.2331 36.5242 48.9829 36.5206 54.4969 36.535L54.5236 25.8183C54.465 25.7879 54.3847 25.7568 54.3384 25.751C48.9641 25.484 43.3185 25.5354 37.9449 25.9138C37.8436 25.9225 37.6735 25.9898 37.5759 26.0448Z" fill="white"/>
<path d="M79.0075 13.0004C78.4625 13.0004 78.0553 12.9267 77.786 12.7792C77.5231 12.6317 77.3916 12.4105 77.3916 12.1156C77.3916 11.9296 77.4654 11.7757 77.6128 11.6539C77.7667 11.5321 77.9527 11.4711 78.1707 11.4711C78.3631 11.4711 78.5522 11.5417 78.7382 11.6827C78.9241 11.8238 79.078 12.0162 79.1999 12.2598C79.5846 12.2598 79.9373 12.1861 80.2579 12.0386C80.5785 11.8911 80.8317 11.6892 81.0177 11.4327C81.2037 11.1762 81.2966 10.8941 81.2966 10.5863C81.2966 10.3105 81.2197 10.0509 81.0658 9.80719C80.9183 9.55711 80.7388 9.40002 80.5272 9.33589C80.104 9.61803 79.7449 9.7591 79.4499 9.7591C79.2768 9.7591 79.1293 9.7078 79.0075 9.6052C78.8921 9.4962 78.8344 9.36475 78.8344 9.21086C78.8344 8.98643 78.9305 8.80689 79.1229 8.67223C79.3217 8.53758 79.5814 8.47025 79.902 8.47025C80.4021 8.47025 80.851 8.56002 81.2485 8.73956C81.6461 8.91269 81.9571 9.15315 82.1815 9.46093C82.4059 9.76871 82.5181 10.1182 82.5181 10.5093C82.5181 10.9838 82.3675 11.4102 82.0661 11.7885C81.7647 12.1669 81.3447 12.4618 80.8061 12.6734C80.2739 12.8914 79.6744 13.0004 79.0075 13.0004ZM79.9212 8.76842C80.3765 8.6017 80.742 8.34842 81.0177 8.00858C81.2934 7.66873 81.4313 7.30003 81.4313 6.90248C81.4313 6.48569 81.3383 6.1747 81.1524 5.96951C80.9664 5.76432 80.6843 5.66172 80.306 5.66172C80.0495 5.66172 79.8122 5.73226 79.5942 5.87332C79.3826 6.00798 79.2063 6.19714 79.0652 6.4408C78.9305 6.67805 78.8536 6.94416 78.8344 7.23912C78.6035 7.20705 78.4208 7.1237 78.2861 6.98904C78.1579 6.85439 78.0938 6.67805 78.0938 6.46004C78.0938 6.1266 78.1963 5.83164 78.4015 5.57516C78.6067 5.31867 78.8985 5.11989 79.2768 4.97883C79.6551 4.83776 80.0911 4.76722 80.5849 4.76722C80.9824 4.76722 81.3383 4.84417 81.6525 4.99806C81.9667 5.15195 82.2104 5.36676 82.3835 5.64249C82.563 5.91821 82.6528 6.2292 82.6528 6.57546C82.6528 7.03072 82.4989 7.47637 82.1911 7.91239C81.8898 8.34201 81.4537 8.73636 80.883 9.09544L79.9212 8.76842ZM85.3758 12.9908C84.8308 12.9908 84.43 12.9171 84.1735 12.7696C83.9171 12.6221 83.7888 12.3977 83.7888 12.0963C83.7888 11.9168 83.8658 11.7661 84.0196 11.6443C84.18 11.5224 84.3691 11.4615 84.5871 11.4615C84.7795 11.4615 84.9654 11.5321 85.145 11.6731C85.3309 11.8142 85.4848 12.0034 85.6067 12.2406C85.9786 12.2406 86.3184 12.1669 86.6262 12.0194C86.9404 11.8719 87.1873 11.6731 87.3668 11.4231C87.5528 11.1666 87.6457 10.8908 87.6457 10.5959C87.6457 10.3522 87.5816 10.115 87.4534 9.88413C87.3315 9.6533 87.136 9.46414 86.8666 9.31666C86.5973 9.16277 86.2607 9.08582 85.8567 9.08582C85.69 9.08582 85.4944 9.10826 85.27 9.15315C85.1802 9.17238 85.1161 9.182 85.0777 9.182C85.0199 9.182 84.9719 9.15956 84.9334 9.11467C84.8949 9.06979 84.8757 9.01849 84.8757 8.96078L85.4528 5.61363L86.4819 5.95989L86.078 8.39331C86.6166 8.39331 87.0975 8.48308 87.5207 8.66262C87.9503 8.84216 88.2837 9.09223 88.521 9.41284C88.7647 9.73345 88.8865 10.0957 88.8865 10.4997C88.8865 10.9742 88.7326 11.4006 88.4248 11.7789C88.1234 12.1572 87.7034 12.4522 87.1648 12.6638C86.6326 12.8818 86.0363 12.9908 85.3758 12.9908ZM87.2514 6.24844C86.4691 6.24844 85.892 6.1747 85.5201 6.02722C85.1482 5.87974 84.9622 5.65531 84.9622 5.35394C84.9622 5.16157 85.0135 5.0173 85.1161 4.92112C85.2251 4.81852 85.3854 4.76722 85.597 4.76722C85.7766 4.76722 85.9401 4.82814 86.0876 4.94997C86.2415 5.0718 86.3665 5.23211 86.4627 5.43088C86.8218 5.41165 87.2257 5.33791 87.6746 5.20966C88.1298 5.07501 88.5723 4.90829 89.0019 4.70952C89.0468 4.77364 89.0788 4.8602 89.0981 4.96921C89.1237 5.0718 89.1366 5.18081 89.1366 5.29623C89.1366 5.52065 89.0532 5.7034 88.8865 5.84447C88.7262 5.98554 88.505 6.08813 88.2228 6.15225C87.9471 6.21637 87.6233 6.24844 87.2514 6.24844Z" fill="black"/>
</svg>
