<svg width="95" height="61" viewBox="0 0 95 61" fill="none" xmlns="http://www.w3.org/2000/svg">
<path d="M93.623 0.75V59.96H0.75V0.75H93.623Z" fill="#ECF7F9" stroke="black" stroke-width="1.5"/>
<path d="M45.6699 26.8668L50.6231 20.0371L55.5778 12.9409L56.7842 13.7436L68.4345 31.6875L74.5941 40.1241L61.6048 46.5517L50.4906 46.1496L45.6699 26.8668Z" fill="#636E99"/>
<path opacity="0.2" d="M70.3751 39.7222L72.6444 37.4529L69.214 32.7554L67.4964 36.5084L63.6795 36.8435L59.0598 40.793L52.0977 40.0573L53.0344 41.4632L60.1992 43.6062L65.2864 40.2584L70.3751 39.7222Z" fill="#545C8A"/>
<path opacity="0.2" d="M65.6213 27.403L63.2788 29.2765L61.4038 28.6748L56.9852 31.6206L52.0975 28.4738L49.6864 29.4105L46.0066 26.4009L45.6699 26.8669L47.2363 33.1339L47.9454 33.6296L51.7624 32.8253L56.8512 35.4375L61.2027 31.1514L63.6793 30.6839L65.6213 27.403Z" fill="#545C8A"/>
<path d="M64.1496 25.0901L56.7838 13.7436L55.5774 12.9409L50.6227 20.0371L48.0713 23.5548L50.0881 22.1802L51.4939 21.577L51.896 23.7871L53.1008 25.6948L54.3056 24.0879L55.7114 22.2799L57.0175 24.7908L57.7205 23.1839L59.2276 21.9791L61.235 23.385L61.4361 22.5823L64.148 25.1929L64.1496 25.0901Z" fill="#ACB8D1"/>
<path opacity="0.5" d="M56.5828 15.5515C56.8509 16.1547 56.9179 21.0751 57.2187 22.2799C57.3824 22.933 59.8325 28.3771 60.1317 29.7128C60.3967 30.8958 62.3652 38.2164 62.4415 39.1531C62.5413 40.3688 63.4453 47.2889 63.4453 47.2889L74.5938 40.1241L68.4343 31.6875L56.7839 13.7436L55.5791 12.9409C55.5791 12.9409 55.5916 12.9768 55.615 13.0391C55.7661 13.449 56.3506 15.0294 56.5828 15.5515Z" fill="#545C8A"/>
<path d="M4.15723 43.338L12.7279 31.6876L23.3059 14.9485L27.9256 5.9773L30.4037 3.16406L40.9818 17.6277L52.6322 37.5791L59.3278 46.4178L9.78214 57.398L4.15723 43.338Z" fill="#545C8A"/>
<path opacity="0.2" d="M12.2021 32.4L16.3417 29.6117L19.6568 33.0265L28.1885 31.4742L34.4197 34.4324L40.9486 28.3056L43.9598 28.7654L45.4404 25.2632L44.9635 24.4465L43.0574 26.7002L40.5465 26.3979L33.5157 30.8164L27.2892 28.0048L23.7746 28.5066L18.6531 24.8923L16.2685 26.083L12.7274 31.6877L12.2021 32.4Z" fill="#545C8A"/>
<path d="M4.15723 43.338L8.58516 54.4071L25.7732 53.8554L47.718 48.9926L58.1418 44.8514L52.6337 37.5807L49.6444 32.4607L49.6195 32.4249C49.6195 32.4249 52.9003 40.0572 50.6918 40.5591C48.4817 41.061 46.4399 33.7637 45.8711 34.0318C45.3022 34.2998 48.4755 43.4752 45.4627 43.7776C42.45 44.0784 39.2752 32.2908 38.6393 32.3251C38.0034 32.3579 38.5395 38.0498 36.2297 38.4519C33.9199 38.854 33.7188 34.0661 33.1156 34.1331C32.5125 34.2001 32.5468 41.1966 30.5378 41.1966C28.5287 41.1966 29.2317 30.6512 28.6971 30.6185C28.1625 30.5857 24.6791 41.9681 22.3692 41.8668C20.0594 41.767 21.9001 35.6402 21.2985 35.5732C20.6953 35.5062 16.4778 47.8922 13.5321 46.9555C11.7163 46.3773 13.13 41.3649 12.7294 41.1981C12.3273 41.0314 7.97887 47.3545 6.57303 46.1497C5.16719 44.9449 11.7226 33.0608 11.7241 33.0577L4.15723 43.338Z" fill="#717FAA"/>
<path opacity="0.2" d="M8.61037 42.2673L12.7281 42.6678L18.0507 49.2965L29.7011 47.7909L32.7138 49.4975L42.8571 46.2837L50.3897 46.4848L54.2066 43.1697L56.9279 43.2476L52.6325 37.5791L51.9763 36.4553L48.3807 41.5628L39.4422 41.463L33.5165 44.6768L28.9982 43.3707L19.3568 44.7766L13.4311 40.2583L9.41304 40.358L8.07422 38.0139L8.61037 42.2673Z" fill="#545C8A"/>
<path d="M41.6253 18.7296L40.9816 17.6277L30.4035 3.16406L27.9254 5.9773L23.3058 14.9485L19.3828 21.1563L21.6661 19.2174L24.9127 17.1585L25.7169 18.9665L26.9217 18.2293L31.4073 25.059L32.6635 21.2436L34.3748 18.8387L36.563 20.5064L36.9652 17.5607L37.4343 15.2836L41.6253 18.7296Z" fill="#CAD4E8"/>
<path opacity="0.5" d="M32.0108 19.3685C32.2118 20.4736 28.998 28.2072 29.0978 29.412C29.1991 30.6168 26.5433 41.4832 26.085 43.7743C25.7733 45.3314 22.9694 52.0738 23.1424 54.0563L59.328 46.4192L52.6323 37.5805L40.982 17.6276L30.4039 3.16553C30.4039 3.16553 31.71 7.61839 31.911 8.32131C32.1105 9.02267 31.8097 18.2635 32.0108 19.3685Z" fill="#545C8A"/>
<path d="M28.2942 43.2709C28.2942 43.2709 27.4915 41.3632 25.4326 39.002C25.4326 39.002 25.4825 41.7139 25.6835 44.0736L27.7923 44.5754L28.2942 43.2709Z" fill="#35678F"/>
<path d="M27.7913 44.577L28.2932 43.2709C28.2932 43.2709 27.4905 41.3632 25.4316 39.002C25.4316 39.002 26.8546 42.2313 27.7415 44.5645L27.7913 44.577Z" fill="#265173"/>
<path d="M62.7592 44.3666C62.7592 44.3666 62.4225 42.3233 60.9699 39.5491C60.9699 39.5491 60.387 42.1987 60.0332 44.5396L61.9674 45.5184L62.7592 44.3666Z" fill="#35678F"/>
<path d="M61.9672 45.52L62.759 44.3666C62.759 44.3666 62.4223 42.3233 60.9697 39.5491C60.9697 39.5491 61.6025 43.0216 61.9205 45.4966L61.9672 45.52Z" fill="#265173"/>
<path d="M68.362 44.1343C68.362 44.1343 68.5443 41.692 67.7136 38.1665C67.7136 38.1665 66.3701 41.1231 65.3555 43.7696L67.1915 45.3079L68.362 44.1343Z" fill="#35678F"/>
<path d="M67.1911 45.308L68.3616 44.1328C68.3616 44.1328 68.5439 41.6905 67.7132 38.165C67.7132 38.165 67.467 42.3296 67.1475 45.2706L67.1911 45.308Z" fill="#265173"/>
<path d="M1.5 45.6538C1.5 45.6538 1.6285 42.9201 4.29055 43.2209C6.95261 43.5217 6.95261 45.2299 6.95261 45.2299C6.95261 45.2299 8.05764 44.9291 9.01149 45.9827C9.96534 47.0378 8.86031 49.1466 8.86031 49.1466L9.06137 50.0506C9.06137 50.0506 10.5373 49.7513 11.4912 50.3031C12.445 50.8548 12.8596 51.9084 12.8596 51.9084C12.8596 51.9084 14.931 50.9047 16.0064 53.3813C18.2165 58.47 12.6757 58.0851 12.6757 58.0851L1.5 57.242V45.6538Z" fill="#A3C4E8"/>
<path d="M14.0316 57.683C14.0316 57.683 12.9764 55.222 14.1313 53.916C15.2862 52.6099 16.0904 52.56 16.0904 52.56C16.0904 52.56 13.3286 49.5971 15.7398 47.2374C18.1493 44.8777 20.1583 47.1361 20.1583 47.1361C20.1583 47.1361 20.1583 44.7764 23.0199 43.7213C25.7942 42.6989 27.5896 43.9223 27.5896 43.9223C27.5896 43.9223 27.7907 39.8544 33.8162 39.2014C39.8417 38.5484 42.1016 43.0184 42.1016 43.0184C42.1016 43.0184 43.7085 42.3653 44.8135 43.1695C45.9186 43.9738 45.9684 44.8777 45.9684 44.8777C45.9684 44.8777 47.2745 42.4666 50.1859 43.0199C53.0974 43.5732 54.0029 45.9329 54.0029 45.9329L54.5546 50.6024L14.0316 57.683Z" fill="#B2D0F5"/>
<path d="M53.2164 44.7141C52.6289 44.047 51.6672 43.3004 50.1881 43.0199C50.1071 43.0043 50.026 42.9918 49.9481 42.9809C49.9294 43.475 49.6676 44.0906 48.815 44.7437C46.806 46.2835 45.969 44.8777 45.969 44.8777C45.969 44.8777 45.9332 44.248 45.2786 43.5716C45.634 44.5613 44.7939 45.551 43.4582 44.9447C41.9853 44.2745 42.1022 43.0199 42.1022 43.0199C42.1022 43.0199 40.4143 39.6845 36.0705 39.1982C41.1156 40.2581 42.4545 48.4266 37.7678 50.1005C32.9658 51.8149 30.723 48.425 30.723 48.425C31.7127 50.9125 27.7259 52.309 26.5865 49.7654C27.3892 54.9212 21.7425 54.8916 20.159 51.9755C20.159 51.9755 20.4941 54.3866 18.6861 54.5861C16.8782 54.7872 16.2765 53.4483 16.2765 53.4483L15.5393 53.9175L14.8691 56.9972L19.3329 56.7572L53.3863 50.8065L53.2164 44.7141Z" fill="#99B8E0"/>
<path d="M56.0133 45.6306C56.0133 45.6306 55.4616 43.02 57.6202 42.2656C59.7789 41.5128 61.5369 44.0237 61.5369 44.0237C61.5369 44.0237 61.8377 42.3155 63.5958 42.116C65.3539 41.9149 66.7597 43.7229 66.7597 43.7229C66.7597 43.7229 69.5714 38.55 74.2924 39.203C79.0133 39.8561 79.8658 42.116 79.8658 42.116C79.8658 42.116 83.4303 41.4131 85.1884 44.3261C86.9465 47.239 85.6903 49.1966 85.6903 49.1966C85.6903 49.1966 86.443 47.8407 87.9003 48.3425C89.356 48.8444 89.2563 50.1505 89.2563 50.1505C89.2563 50.1505 89.9093 48.4423 91.4165 49.2465C92.9236 50.0492 91.3666 51.3054 91.3666 51.3054C91.3666 51.3054 92.7724 51.0046 92.8722 52.2094C92.9719 53.4141 79.364 54.6704 79.364 54.6704L58.7253 50.5027L56.0133 45.6306Z" fill="#B2D0F5"/>
<path d="M91.365 51.3053C91.365 51.3053 92.9221 50.0507 91.4149 49.2465C89.9078 48.4422 89.2563 50.1504 89.2563 50.1504C89.2563 50.1504 89.3233 49.2807 88.5549 48.6869C88.8308 49.1872 88.3289 50.3001 87.0478 50.3001C85.6419 50.3001 85.6918 49.195 85.6918 49.195C86.2841 48.3284 86.4166 46.3568 85.19 44.3245C85.0419 44.0798 84.886 43.8662 84.7239 43.6792C86.2716 46.5953 84.1691 50.166 80.7542 50.3671C77.2755 50.5712 76.1346 48.4251 76.1346 48.4251C76.1346 48.4251 73.4227 51.2259 69.506 49.8309C65.555 48.4251 66.7613 43.7213 66.7613 43.7213C66.7613 43.7213 66.1425 42.9264 65.2136 42.4495C66.5914 43.6621 65.7607 45.096 63.9481 45.2767C62.2773 45.4435 61.6725 44.3603 61.5151 43.9909C61.3094 43.7104 59.6402 41.558 57.6202 42.2625C55.4616 43.0153 56.0133 45.6274 56.0133 45.6274L58.7253 50.498L79.364 54.6656C79.364 54.6656 92.9719 53.4094 92.8722 52.2046C92.7709 51.0045 91.365 51.3053 91.365 51.3053Z" fill="#99B8E0"/>
<path d="M2.97651 37.3872C2.25644 37.3919 2.23774 38.525 2.73805 38.9396C2.90481 39.0767 3.39888 39.2155 3.59371 39.1017C4.24831 38.7136 3.66696 37.3794 2.97651 37.3872Z" fill="#C1E0FF"/>
<path d="M18.6698 43.5653C18.0433 43.7071 18.2459 44.6968 18.7602 44.9618C18.9317 45.049 19.3883 45.0755 19.5364 44.9384C20.0305 44.4755 19.2699 43.4266 18.6698 43.5653Z" fill="#C1E0FF"/>
<path d="M43.3151 41.4908C43.8341 41.5719 44.4902 40.2455 43.8855 39.9852C43.3042 39.7343 42.2833 41.3272 43.3151 41.4908Z" fill="#C1E0FF"/>
<path d="M66.818 41.1901C67.337 41.2712 67.9932 39.9448 67.3884 39.6845C66.8071 39.432 65.7862 41.0265 66.818 41.1901Z" fill="#C1E0FF"/>
<path d="M81.7691 40.9954C82.2071 40.7071 81.7987 39.2825 81.1769 39.4976C80.5784 39.7033 80.8979 41.569 81.7691 40.9954Z" fill="#C1E0FF"/>
<path d="M30.0676 38.8304C30.5056 39.1188 31.6527 38.1821 31.21 37.6942C30.7845 37.2251 29.1963 38.2553 30.0676 38.8304Z" fill="#C1E0FF"/>
<path d="M16.0134 44.0486C16.0446 44.1905 16.3735 44.2606 16.5433 44.0751C16.6306 43.9785 16.7132 43.818 16.6493 43.6559C16.5823 43.4875 16.3454 43.5031 16.1568 43.6496C16.0228 43.7525 15.9339 43.9052 16.0134 44.0486Z" fill="#C1E0FF"/>
<path d="M35.7253 37.847C35.6474 37.755 35.451 37.6849 35.3637 37.794C35.2764 37.8486 35.2593 38.0434 35.3466 38.165C35.4074 38.2491 35.5492 38.3224 35.6864 38.2476C35.8282 38.1712 35.811 37.9062 35.7253 37.847Z" fill="#C1E0FF"/>
<path d="M47.5476 41.8993C47.4696 41.8073 47.2733 41.7372 47.186 41.8463C47.0987 41.9008 47.0816 42.0956 47.1688 42.2172C47.2296 42.3014 47.3715 42.3746 47.5086 42.2998C47.6504 42.2234 47.6333 41.9585 47.5476 41.8993Z" fill="#C1E0FF"/>
<path d="M52.9714 40.2923C52.8935 40.2004 52.6971 40.1302 52.6098 40.2393C52.5225 40.2939 52.5054 40.4887 52.5927 40.6103C52.6535 40.6944 52.7953 40.7677 52.9324 40.6929C53.0743 40.6165 53.0556 40.3515 52.9714 40.2923Z" fill="#C1E0FF"/>
<path d="M70.9538 38.2318C70.8759 38.1398 70.6795 38.0697 70.5922 38.1788C70.505 38.2349 70.4878 38.4282 70.5751 38.5497C70.6359 38.6339 70.7777 38.7071 70.9149 38.6323C71.0567 38.556 71.038 38.291 70.9538 38.2318Z" fill="#C1E0FF"/>
<path d="M78.0456 39.0533C77.9677 38.9613 77.7713 38.8912 77.684 39.0003C77.5967 39.0549 77.5796 39.2497 77.6669 39.3713C77.7277 39.4554 77.8695 39.5287 78.0067 39.4539C78.1485 39.3775 78.1298 39.1125 78.0456 39.0533Z" fill="#C1E0FF"/>
<path d="M86.0798 42.8033C86.0019 42.7113 85.8055 42.6412 85.7182 42.7503C85.6309 42.8049 85.6138 42.9997 85.7011 43.1213C85.7603 43.2054 85.9037 43.2787 86.0408 43.2039C86.1827 43.1275 86.1655 42.861 86.0798 42.8033Z" fill="#C1E0FF"/>
<path d="M86.0193 38.6683C85.9413 38.5763 85.7449 38.5062 85.6577 38.6153C85.5704 38.6699 85.5532 38.8647 85.6405 38.9862C85.6997 39.0704 85.8431 39.1437 85.9803 39.0688C86.1206 38.9909 86.1034 38.726 86.0193 38.6683Z" fill="#C1E0FF"/>
<path d="M83.5407 38.701C83.4628 38.6091 83.2664 38.5389 83.1792 38.648C83.0919 38.7026 83.0747 38.8974 83.162 39.019C83.2228 39.1031 83.3646 39.1764 83.5018 39.1016C83.6436 39.0252 83.6249 38.7602 83.5407 38.701Z" fill="#C1E0FF"/>
<path d="M90.3874 46.6187C90.3095 46.5268 90.1131 46.4566 90.0258 46.5657C89.9386 46.6218 89.9214 46.8151 90.0087 46.9367C90.0695 47.0208 90.2113 47.0941 90.3484 47.0193C90.4887 46.9429 90.4716 46.6764 90.3874 46.6187Z" fill="#C1E0FF"/>
<path d="M62.1775 41.0623C62.0995 40.9704 61.9031 40.9002 61.8159 41.0093C61.7286 41.0639 61.7115 41.2572 61.7987 41.3803C61.8595 41.4644 62.0013 41.5377 62.1385 41.4629C62.2803 41.3865 62.2616 41.1216 62.1775 41.0623Z" fill="#C1E0FF"/>
<path d="M65.4587 35.9735C65.3808 35.8815 65.1844 35.8114 65.0971 35.9205C65.0098 35.975 64.9927 36.1698 65.08 36.2914C65.1408 36.3756 65.2826 36.4488 65.4197 36.374C65.5616 36.2977 65.5429 36.0327 65.4587 35.9735Z" fill="#C1E0FF"/>
<path d="M32.572 34.284C32.4941 34.1921 32.2977 34.1219 32.2104 34.231C32.1231 34.2856 32.106 34.4804 32.1933 34.602C32.254 34.6861 32.3959 34.7594 32.533 34.6846C32.6733 34.6082 32.6562 34.3432 32.572 34.284Z" fill="#C1E0FF"/>
<path d="M19.2478 39.6409C19.1698 39.549 18.9735 39.4789 18.8862 39.588C18.7989 39.6425 18.7818 39.8373 18.869 39.9589C18.9283 40.0415 19.0717 40.1163 19.2088 40.0415C19.3506 39.9651 19.3319 39.6986 19.2478 39.6409Z" fill="#C1E0FF"/>
<path d="M24.5095 42.2C24.4316 42.1081 24.2352 42.0379 24.1479 42.147C24.0606 42.2016 24.0435 42.3964 24.1308 42.518C24.1915 42.6021 24.3334 42.6754 24.4705 42.6006C24.6124 42.5227 24.5952 42.2577 24.5095 42.2Z" fill="#C1E0FF"/>
<path d="M46.0691 37.6458C45.9911 37.5539 45.7948 37.4837 45.7075 37.5928C45.6202 37.6474 45.603 37.8422 45.6903 37.9638C45.7511 38.0479 45.8929 38.1212 46.0301 38.0464C46.1719 37.97 46.1548 37.7051 46.0691 37.6458Z" fill="#C1E0FF"/>
<path d="M58.7907 39.2528C58.7128 39.1608 58.5164 39.0907 58.4292 39.1998C58.3419 39.2543 58.3247 39.4491 58.412 39.5707C58.4728 39.6533 58.6146 39.7281 58.7518 39.6533C58.8936 39.577 58.8765 39.312 58.7907 39.2528Z" fill="#C1E0FF"/>
<path d="M77.07 36.9102C76.9921 36.8183 76.7957 36.7481 76.7084 36.8572C76.6212 36.9118 76.604 37.1066 76.6913 37.2282C76.7521 37.3124 76.8939 37.3856 77.0311 37.3108C77.1729 37.2344 77.1558 36.9679 77.07 36.9102Z" fill="#C1E0FF"/>
<path d="M41.945 34.8201C41.8671 34.7282 41.6707 34.6581 41.5834 34.7672C41.4962 34.8217 41.479 35.0165 41.5663 35.1381C41.6271 35.2223 41.7689 35.2955 41.9061 35.2207C42.0479 35.1443 42.0292 34.8778 41.945 34.8201Z" fill="#C1E0FF"/>
<path d="M34.0855 36.9195C34.0294 37.1845 33.819 37.3653 33.6148 37.3232C33.4106 37.2811 33.2906 37.0302 33.3452 36.7652C33.4013 36.5003 33.6117 36.3195 33.8159 36.3615C34.0216 36.4052 34.1416 36.6546 34.0855 36.9195Z" fill="#C1E0FF"/>
<path d="M20.9966 42.1424C20.9405 42.4074 20.7301 42.5882 20.526 42.5461C20.3218 42.504 20.2018 42.2531 20.2563 41.9881C20.3124 41.7232 20.5228 41.5424 20.727 41.5845C20.9312 41.6265 21.0527 41.8775 20.9966 42.1424Z" fill="#C1E0FF"/>
<path d="M40.521 39.0315C40.521 39.3027 40.3526 39.5224 40.1438 39.5224C39.9349 39.5224 39.7666 39.3027 39.7666 39.0315C39.7666 38.7603 39.9349 38.5405 40.1438 38.5405C40.3526 38.5405 40.521 38.7603 40.521 39.0315Z" fill="#C1E0FF"/>
<path d="M47.9459 40.1334C47.8897 40.3984 47.6793 40.5791 47.4752 40.5371C47.271 40.495 47.151 40.2441 47.2055 39.9791C47.2616 39.7141 47.472 39.5333 47.6762 39.5754C47.8804 39.6191 48.002 39.8684 47.9459 40.1334Z" fill="#C1E0FF"/>
<path d="M56.4032 40.7803C56.3159 41.0375 56.0853 41.1918 55.8873 41.1247C55.6894 41.0577 55.6006 40.7943 55.6878 40.5372C55.7751 40.28 56.0058 40.1257 56.2037 40.1943C56.4017 40.2613 56.4921 40.5247 56.4032 40.7803Z" fill="#C1E0FF"/>
<path d="M42.0562 38.4393C42.0156 38.6341 41.8613 38.7666 41.7117 38.7354C41.5621 38.7042 41.4733 38.5203 41.5153 38.327C41.5559 38.1322 41.7102 37.9997 41.8598 38.0309C42.0079 38.0621 42.0967 38.2444 42.0562 38.4393Z" fill="#C1E0FF"/>
<path d="M64.6199 38.8038C64.782 39.022 64.7773 39.2994 64.6106 39.4241C64.4438 39.5488 64.1757 39.4724 64.0152 39.2542C63.8531 39.036 63.8578 38.7586 64.0245 38.6355C64.1913 38.5108 64.4578 38.5856 64.6199 38.8038Z" fill="#C1E0FF"/>
<path d="M83.9694 40.565C84.2126 40.4465 84.4853 40.5011 84.5773 40.6881C84.6692 40.8752 84.5461 41.1245 84.3014 41.243C84.0583 41.3614 83.7855 41.3069 83.6936 41.1199C83.6016 40.9328 83.7247 40.6835 83.9694 40.565Z" fill="#C1E0FF"/>
<path d="M87.3097 46.5641C87.5014 46.2758 87.8365 46.1604 88.0578 46.3085C88.2791 46.4566 88.3041 46.8088 88.1124 47.0987C87.9207 47.387 87.5856 47.5024 87.3643 47.3543C87.1429 47.2062 87.118 46.8524 87.3097 46.5641Z" fill="#C1E0FF"/>
<path d="M31.2212 40.5058C30.3234 40.8378 28.171 42.5569 29.767 43.5481C31.0435 44.3415 35.0709 42.6052 34.7514 41.056C34.6298 40.4622 33.4344 39.6907 31.2212 40.5058Z" fill="#C1E0FF"/>
<path d="M42.8324 45.9016C41.8848 46.296 39.6685 48.4094 41.4468 49.703C42.8698 50.7379 47.106 48.6557 46.6696 46.6918C46.5044 45.9375 45.1671 44.9291 42.8324 45.9016Z" fill="#B2D0F5"/>
<path d="M22.7295 44.6034C22.0968 44.8496 20.5958 46.1807 21.7523 47.0005C22.6766 47.6566 25.5132 46.3505 25.256 45.1099C25.1563 44.633 24.2897 43.994 22.7295 44.6034Z" fill="#C1E0FF"/>
<path d="M71.5419 39.8886C70.6675 40.1536 68.5182 41.6981 69.9833 42.7798C71.1553 43.6464 75.0923 42.2125 74.8772 40.6695C74.7946 40.0772 73.6974 39.2371 71.5419 39.8886Z" fill="#C1E0FF"/>
<path d="M79.7892 42.5835C79.0286 42.7954 77.1459 44.089 78.3896 45.0507C79.3855 45.8191 82.8113 44.6548 82.6539 43.3191C82.5947 42.8063 81.6626 42.0613 79.7892 42.5835Z" fill="#C1E0FF"/>
<path d="M72.0578 45.8488C71.2972 46.0607 69.4144 47.3543 70.6582 48.316C71.6541 49.0844 75.0799 47.9201 74.9224 46.5844C74.8617 46.0716 73.9296 45.3251 72.0578 45.8488Z" fill="#C1E0FF"/>
<path d="M20.8238 48.4343C20.5666 48.6946 20.1302 49.6968 20.8955 49.8776C21.5064 50.0225 22.6115 48.7523 22.1953 48.1647C22.0363 47.9402 21.4565 47.7922 20.8238 48.4343Z" fill="#C1E0FF"/>
<path d="M27.3853 47.563C27.1281 47.8233 26.6917 48.8255 27.457 49.0063C28.0679 49.1512 29.173 47.881 28.7568 47.2934C28.5979 47.0705 28.0181 46.9225 27.3853 47.563Z" fill="#C1E0FF"/>
<path d="M62.7276 42.5368C62.3972 42.6942 61.6475 43.4891 62.3037 43.9192C62.8289 44.2637 64.3002 43.4439 64.1085 42.7503C64.0353 42.4838 63.5412 42.1487 62.7276 42.5368Z" fill="#C1E0FF"/>
<path d="M68.0008 43.2396C67.6703 43.3971 66.9191 44.1919 67.5768 44.6221C68.1021 44.9666 69.5734 44.1467 69.3817 43.4532C69.3084 43.1867 68.8143 42.8516 68.0008 43.2396Z" fill="#C1E0FF"/>
<path d="M77.5818 45.8893C77.2685 46.0794 76.603 46.946 77.2997 47.3076C77.8577 47.5975 79.2386 46.6343 78.9783 45.9625C78.8785 45.7054 78.3517 45.4201 77.5818 45.8893Z" fill="#C1E0FF"/>
<path d="M86.7928 48.5014C86.5917 48.5855 86.1195 49.036 86.4982 49.3134C86.8006 49.5347 87.7046 49.0921 87.611 48.6728C87.5736 48.5107 87.29 48.2956 86.7928 48.5014Z" fill="#C1E0FF"/>
<path d="M46.8607 51.6094C46.8607 51.6094 46.2014 49.6472 44.3249 47.1394C44.3249 47.1394 44.1722 49.8467 44.1971 52.2157L46.2622 52.8734L46.8607 51.6094Z" fill="#396F91"/>
<path d="M46.2625 52.8734L46.861 51.6094C46.861 51.6094 46.2017 49.6472 44.3252 47.1394C44.3252 47.1394 45.5035 50.467 46.2126 52.8578L46.2625 52.8734Z" fill="#295875"/>
<path d="M65.0937 52.9356C65.0937 52.9356 65.4881 51.3895 65.354 49.033C65.354 49.033 63.705 51.4067 62.7559 52.9902L63.9388 53.6354L65.0937 52.9356Z" fill="#35678F"/>
<path d="M63.9374 53.637L65.0939 52.9356C65.0939 52.9356 65.4882 51.3895 65.3542 49.033C65.3542 49.033 64.4518 51.7574 63.9141 53.6074L63.9374 53.637Z" fill="#265173"/>
<path d="M54.675 46.5783L54.636 51.4863L47.5694 51.4068L47.373 45.9892L50.9999 42.1785L54.675 46.5783Z" fill="#FFC174"/>
<path d="M51.0004 42.1785L47.3721 45.9892L47.4687 48.6559C49.9141 49.5272 53.0734 48.0917 53.9041 45.5045L51.0004 42.1785Z" fill="#FFDD92"/>
<g opacity="0.3">
<path d="M54.6462 50.386L47.5312 50.3689L47.539 50.5528L54.6446 50.5715L54.6462 50.386Z" fill="#9B4578"/>
<path d="M54.6691 47.1301L47.4248 47.1675L47.431 47.353L54.6675 47.3156L54.6691 47.1301Z" fill="#9B4578"/>
<path d="M54.6595 48.7838L47.4697 48.6482L47.4744 48.7698L54.6579 48.9054L54.6595 48.7838Z" fill="#9B4578"/>
<path d="M54.4377 46.2916L47.3789 46.156L47.382 46.2293L54.4985 46.3649L54.4377 46.2916Z" fill="#9B4578"/>
<path d="M53.6486 45.3472L47.938 45.3955L47.8242 45.5155L53.7499 45.4703L53.6486 45.3472Z" fill="#9B4578"/>
<path d="M52.5685 44.055L49.255 44.0129L49.1396 44.1329L52.6714 44.1782L52.5685 44.055Z" fill="#9B4578"/>
</g>
<path d="M54.1018 47.0894C54.1626 47.1876 54.0925 49.1561 54.0925 49.1561L52.7334 49.1327C52.7334 49.1327 52.749 47.0925 52.8191 47.024C52.8893 46.9554 54.041 46.9912 54.1018 47.0894Z" fill="#FFE8C2"/>
<path d="M53.9433 47.3124L53.9386 49.058L52.9131 49.0362L52.9754 47.2578L53.9433 47.3124Z" fill="#31435A"/>
<path opacity="0.4" d="M54.3061 49.284C54.3061 49.284 53.9383 49.4944 53.2603 49.4679C52.5823 49.4414 52.4717 49.2263 52.4717 49.2263L54.3061 49.284Z" fill="#9B4578"/>
<path d="M52.9755 47.2578L53.9434 47.3124L53.9403 48.1743L52.9443 48.154L52.9755 47.2578Z" fill="#4B617D"/>
<path d="M54.3061 49.284C54.3092 49.1671 54.2173 49.0689 54.1004 49.0642L52.6914 49.0206C52.5745 49.0175 52.4764 49.1094 52.4717 49.2263L54.3061 49.284Z" fill="#F8FBFF"/>
<path d="M51.7128 44.9745C51.783 45.0213 51.7362 46.0234 51.7362 46.0234L50.1979 46.011C50.1979 46.011 50.1807 44.9745 50.2587 44.9418C50.3382 44.909 51.6427 44.9277 51.7128 44.9745Z" fill="#FFE8C2"/>
<path d="M51.5591 45.1366L51.5825 45.9751L50.3809 45.9642L50.4229 45.1101L51.5591 45.1366Z" fill="#31435A"/>
<path opacity="0.4" d="M51.9862 46.1497C51.9862 46.1497 51.5748 46.3601 50.8158 46.3336C50.0567 46.3071 49.9336 46.092 49.9336 46.092L51.9862 46.1497Z" fill="#9B4578"/>
<path d="M50.4212 45.1101L51.5574 45.1366L51.5699 45.5512L50.3994 45.5403L50.4212 45.1101Z" fill="#4B617D"/>
<path d="M51.9868 46.1497C51.9915 46.0328 51.8871 45.9346 51.7562 45.9299L50.1789 45.8863C50.048 45.8832 49.9373 45.9751 49.9326 46.092L51.9868 46.1497Z" fill="#F8FBFF"/>
<path d="M49.2498 47.085C49.2997 47.1582 49.1906 49.0519 49.1906 49.0519L48.003 49.027C48.003 49.027 47.8783 47.2268 47.9609 47.1457C48.0435 47.0663 49.2015 47.0101 49.2498 47.085Z" fill="#FFE8C2"/>
<path d="M49.0861 47.2798L49.0424 49.0005L48.1571 48.9818L48.126 47.3094L49.0861 47.2798Z" fill="#31435A"/>
<path d="M49.0627 48.2071L48.1431 48.1884L48.126 47.3094L49.0861 47.2798L49.0627 48.2071Z" fill="#4B617D"/>
<path d="M49.4988 49.1782C49.4988 49.0582 49.4006 48.96 49.2806 48.96H47.8373C47.7173 48.96 47.6191 49.0582 47.6191 49.1782H49.4988Z" fill="#F8FBFF"/>
<path opacity="0.4" d="M49.4982 49.1782H47.6201C47.6201 49.1782 47.857 49.3528 48.5038 49.3637C49.1506 49.3746 49.4982 49.1782 49.4982 49.1782Z" fill="#9B4578"/>
<path opacity="0.4" d="M47.373 45.9892L47.4136 47.1316L50.9671 43.1775L54.6641 48.0325L54.675 46.5783L50.9999 42.1785L47.373 45.9892Z" fill="#9B4578"/>
<path d="M54.6757 46.5784L62.5979 46.9322L62.4888 51.4458L54.6367 51.4863L54.6757 46.5784Z" fill="#DB8352"/>
<path d="M59.6033 42.2984L63.4109 46.8136L54.5971 46.3024L50.9766 41.3555L59.6033 42.2984Z" fill="#DDE5F2"/>
<g opacity="0.3">
<path d="M54.6471 50.5715L62.5085 50.6135L62.5132 50.4281L54.6455 50.386L54.6471 50.5715Z" fill="#9B4578"/>
<path d="M62.5896 47.2236L54.6705 47.1316L54.6689 47.3171L62.585 47.409L62.5896 47.2236Z" fill="#9B4578"/>
<path d="M62.5536 48.7151L54.6578 48.7837L54.6562 48.9052L62.5504 48.8367L62.5536 48.7151Z" fill="#9B4578"/>
</g>
<path d="M54.7533 46.1856C54.479 45.9892 51.3774 41.3571 51.0236 41.3508C50.6698 41.3446 47.2549 45.5185 46.8622 45.9985C46.5707 46.3539 46.5801 46.5082 46.658 46.65C46.7313 46.7825 46.9463 46.8277 47.1661 46.6282C48.1652 45.7195 50.8085 42.3748 50.9566 42.3499C51.1249 42.3203 54.175 46.7622 54.6068 46.9835C55.0385 47.2049 62.928 47.4418 63.3909 47.3155C63.7354 47.222 63.726 46.7342 63.2974 46.6578C62.7223 46.5534 55.0291 46.3819 54.7533 46.1856Z" fill="#F8FBFF"/>
<path opacity="0.5" d="M52.2774 47.4963L52.1558 51.4582L49.7197 51.424V47.4963H52.2774Z" fill="#9B4578"/>
<path d="M52.0747 47.4963L51.9625 51.4567L49.7197 51.424V47.4963H52.0747Z" fill="#634840"/>
<path d="M51.583 49.4851C51.583 49.3853 51.6656 49.2965 51.7482 49.3059C51.8324 49.3152 51.8978 49.4196 51.8838 49.5178C51.876 49.6191 51.7887 49.6597 51.7326 49.6581C51.6469 49.6581 51.583 49.5848 51.583 49.4851Z" fill="#543B35"/>
<path d="M51.5938 49.4477C51.5938 49.3698 51.6701 49.2997 51.748 49.3075C51.826 49.3153 51.8883 49.3979 51.8759 49.4742C51.8681 49.5537 51.787 49.5865 51.734 49.5849C51.653 49.5833 51.5938 49.5257 51.5938 49.4477Z" fill="#FFC387"/>
<path d="M51.7568 47.7893L51.7194 49.1063L49.9707 49.097L49.9801 47.8283L51.7568 47.7893Z" fill="#755750"/>
<path d="M51.719 49.7686L49.9609 49.739V50.9734L51.6738 50.9843L51.719 49.7686Z" fill="#755750"/>
<path d="M58.1351 48.1836C58.0696 48.0729 56.748 48.048 56.6264 48.1664C56.5048 48.2849 56.5344 50.5651 56.5344 50.5651L58.0992 50.3874C58.0992 50.3874 58.199 48.2942 58.1351 48.1836Z" fill="#FFC174"/>
<path d="M57.9015 48.4969C57.8579 48.422 56.9726 48.4065 56.8916 48.4844C56.8105 48.5639 56.8277 50.3749 56.8277 50.3749L57.875 50.2549C57.875 50.2549 57.9452 48.5717 57.9015 48.4969Z" fill="#31435A"/>
<path d="M56.8291 49.4648C56.8353 49.0003 56.8509 48.525 56.8914 48.486C56.9725 48.4065 57.8578 48.4237 57.9014 48.4985C57.9248 48.5374 57.9154 49.0315 57.9014 49.4866L56.8291 49.4648Z" fill="#4B617D"/>
<path d="M61.2058 48.2537C61.1435 48.1399 59.8841 48.0573 59.7672 48.1696C59.6519 48.2818 59.6784 50.5666 59.6784 50.5666L61.17 50.456C61.17 50.456 61.2682 48.3675 61.2058 48.2537Z" fill="#FFC174"/>
<path d="M60.9829 48.5576C60.9408 48.4812 60.0976 48.4251 60.0197 48.5015C59.9417 48.5778 59.9573 50.3905 59.9573 50.3905L60.9564 50.3172C60.9564 50.3172 61.025 48.6339 60.9829 48.5576Z" fill="#31435A"/>
<path d="M59.96 49.4772C59.9662 49.0128 59.9818 48.5374 60.0207 48.5C60.0987 48.4236 60.9419 48.4797 60.9839 48.5561C61.0058 48.5966 60.9964 49.0907 60.9839 49.5442L59.96 49.4772Z" fill="#4B617D"/>
<g opacity="0.5">
<path d="M53.6571 42.5571C53.6571 42.5571 53.6525 42.5571 53.6493 42.5571L52.8934 42.4869C52.8498 42.4838 52.8171 42.4433 52.8217 42.3997C52.8249 42.3576 52.8607 42.3264 52.9012 42.3264C52.9012 42.3264 52.9059 42.3264 52.909 42.3264L53.6649 42.3965C53.7086 42.3997 53.7413 42.4402 53.7366 42.4838C53.7335 42.5259 53.6976 42.5571 53.6571 42.5571Z" fill="#B8C6D8"/>
<path d="M58.5105 43.0137C58.5074 43.0137 58.5059 43.0137 58.5027 43.0137L55.995 42.7784C55.9513 42.7752 55.9186 42.7347 55.9233 42.6911C55.928 42.6474 55.9685 42.6225 56.0106 42.6194L58.5183 42.8547C58.562 42.8578 58.5947 42.8984 58.59 42.942C58.5853 42.9825 58.5511 43.0137 58.5105 43.0137Z" fill="#B8C6D8"/>
<path d="M56.8096 43.6776C56.8065 43.6776 56.8033 43.6776 56.8033 43.6776L54.3938 43.4703C54.3501 43.4672 54.3174 43.4282 54.3205 43.383C54.3252 43.3378 54.3642 43.3004 54.4078 43.3098L56.8174 43.5171C56.861 43.5202 56.8937 43.5592 56.8906 43.6044C56.8859 43.6465 56.8501 43.6776 56.8096 43.6776Z" fill="#B8C6D8"/>
<path d="M57.5337 43.7447C57.5306 43.7447 57.5275 43.7447 57.5275 43.7447L57.1799 43.7135C57.1363 43.7104 57.1035 43.6714 57.1067 43.6262C57.1098 43.581 57.1534 43.5467 57.1939 43.553L57.5415 43.5842C57.5851 43.5873 57.6179 43.6262 57.6147 43.6714C57.6085 43.712 57.5742 43.7447 57.5337 43.7447Z" fill="#B8C6D8"/>
<path d="M55.829 44.6394C55.8259 44.6394 55.8228 44.6394 55.8196 44.6394L55.3645 44.5833C55.3209 44.5786 55.2897 44.5381 55.2944 44.4929C55.2991 44.4492 55.3318 44.4149 55.3848 44.4227L55.8399 44.4788C55.8836 44.4835 55.9147 44.5241 55.91 44.5692C55.9038 44.6098 55.8695 44.6394 55.829 44.6394Z" fill="#B8C6D8"/>
<path d="M60.577 45.1209H60.5708L58.8143 45.0072C58.7706 45.004 58.7363 44.9666 58.7395 44.9214C58.7426 44.8778 58.7722 44.8404 58.8252 44.8466L60.5817 44.9604C60.6253 44.962 60.6596 45.0009 60.6565 45.0461C60.655 45.0882 60.6191 45.1209 60.577 45.1209Z" fill="#B8C6D8"/>
<path d="M60.0684 45.972H60.0637L57.4422 45.8286C57.3986 45.827 57.3643 45.7881 57.3674 45.7444C57.3689 45.7008 57.4157 45.6634 57.4515 45.6696L60.0731 45.813C60.1167 45.8146 60.151 45.8535 60.1479 45.8972C60.1448 45.9393 60.1105 45.972 60.0684 45.972Z" fill="#B8C6D8"/>
</g>
<path d="M47.0967 46.7856C47.0967 46.7856 48.3529 46.9368 48.7706 47.8907C50.538 47.6881 52.1917 49.1453 52.3803 50.6603C52.3803 50.6603 53.1128 49.2763 55.6938 49.1048C58.2748 48.9318 59.0074 49.5147 59.0074 49.5147C59.757 48.3427 61.0647 47.1379 64.0992 46.887V52.7784H47.1154L47.0967 46.7856Z" fill="#99B8E0"/>
<path d="M47.9776 48.1837C47.3978 48.2928 45.9202 49.0954 46.7946 49.8248C47.4944 50.4077 50.1159 49.7734 50.0739 48.8383C50.0567 48.4782 49.4052 47.914 47.9776 48.1837Z" fill="#B2D0F5"/>
<path d="M61.4751 47.7222C60.9125 47.8937 59.5394 48.8522 60.4932 49.4819C61.2569 49.9853 63.7865 49.0673 63.6338 48.1431C63.5761 47.7877 62.8607 47.2999 61.4751 47.7222Z" fill="#B2D0F5"/>
<path d="M55.107 49.4134C54.588 49.4975 53.2569 50.0867 54.0316 50.6026C54.6519 51.0156 57.0022 50.5355 56.9742 49.8638C56.9648 49.6066 56.3866 49.2076 55.107 49.4134Z" fill="#B2D0F5"/>
<path d="M92.8729 58.6532H1.50098V50.4176C1.50098 50.4176 7.94708 50.8197 15.7948 53.2293C23.6426 55.6389 30.3692 55.8399 42.422 52.8272C54.4736 49.8144 58.0479 48.4086 66.6666 48.2076C75.2853 48.0065 85.8657 50.8182 85.8657 50.8182C85.8657 50.8182 89.4389 49.6134 92.8729 49.311V58.6532Z" fill="#C1E0FF"/>
<path d="M92.8719 49.3125C89.439 49.6133 85.8647 50.8196 85.8647 50.8196C85.8647 50.8196 75.2844 48.008 66.6656 48.209C58.0469 48.4101 54.4737 49.8159 42.421 52.8287C30.3693 55.8414 23.6427 55.6403 15.7939 53.2308C7.9461 50.8196 1.5 50.4191 1.5 50.4191V53.5331C8.85734 53.131 17.1488 55.7089 27.5193 56.111C37.8898 56.5131 57.0432 51.2779 66.1981 51.0223C75.8204 50.7542 90.9559 53.8339 90.9559 53.8339C90.9559 53.8339 88.9127 52.1772 86.9859 51.3729C86.9859 51.3729 89.8588 50.67 92.8719 51.1719V49.3125Z" fill="#D6EEFF"/>
<path d="M41.4414 58.6531H79.6526C79.6526 58.6531 71.8201 53.8138 59.3791 54.4341C47.3275 55.0372 41.4414 58.6531 41.4414 58.6531Z" fill="#D6EEFF"/>
<path d="M3.22027 55.1838C2.62872 55.2134 2.05566 55.2523 1.5 55.2975V58.6532H19.8944C19.8944 58.6532 13.4527 54.6726 3.22027 55.1838Z" fill="#D6EEFF"/>
<path d="M1.50098 58.6531V57.2472C1.50098 57.2472 11.2408 57.8504 18.9483 58.1512C26.6558 58.452 40.0395 57.7491 46.2061 57.3485C52.3728 56.9464 70.8009 58.0515 77.9484 57.8504C85.0958 57.6493 90.771 56.8467 92.8729 56.7454V58.6531H1.50098Z" fill="#99B8E0"/>
<path d="M25.5007 56.0652C25.5007 56.2304 24.2617 56.366 22.7343 56.366C21.2068 56.366 19.9678 56.232 19.9678 56.0652C19.9678 55.8984 21.2068 55.7644 22.7343 55.7644C24.2617 55.766 25.5007 55.9 25.5007 56.0652Z" fill="#85A3D6"/>
<path d="M21.7901 55.0024C21.7901 55.0024 21.762 56.201 21.9989 56.1885C22.2358 56.176 22.239 55.0445 22.239 55.0445L21.7901 55.0024Z" fill="#214C66"/>
<path d="M22.1795 48.2739C22.1795 48.2739 20.3482 51.2882 19.7793 55.0756C19.7793 55.0756 22.0829 55.8097 24.0841 55.1145C24.0841 55.1145 22.5879 50.8253 22.1795 48.2739Z" fill="#396F91"/>
<path d="M21.9234 55.4091C22.603 55.4294 23.3636 55.3655 24.0867 55.1145C24.0867 55.1145 22.5889 50.8253 22.1806 48.2739C22.1806 48.2739 21.6195 52.6956 21.9234 55.4091Z" fill="#214C66"/>
<g opacity="0.3">
<path d="M23.557 53.5187C23.4993 53.3394 23.4401 53.1509 23.3793 52.9529C22.0342 53.5046 20.8419 53.2038 20.2574 52.8875C20.206 53.0714 20.1561 53.2584 20.1094 53.4501C20.7936 53.8086 21.9392 54.1577 23.557 53.5187Z" fill="#295875"/>
<path d="M22.9693 51.5844C22.9256 51.4333 22.8835 51.2805 22.8399 51.1278C22.0809 51.3927 21.4294 51.3771 20.848 51.106C20.795 51.2462 20.7421 51.3912 20.6875 51.5392C21.1114 51.8525 22.1292 51.9959 22.9693 51.5844Z" fill="#295875"/>
</g>
<path d="M79.0451 12.962C78.8271 12.962 78.6539 12.9203 78.5257 12.8369C78.4039 12.76 78.3013 12.6157 78.2179 12.4041C78.686 12.231 79.1284 12.0162 79.5452 11.7597C79.9684 11.5032 80.3852 11.1377 80.7956 10.6632C81.206 10.1823 81.5587 9.57956 81.8536 8.85498H81.7959C81.5266 9.21406 81.2412 9.46734 80.9399 9.61482C80.6385 9.75589 80.3179 9.82642 79.9781 9.82642C79.5548 9.82642 79.1894 9.73024 78.8816 9.53788C78.5802 9.34551 78.3494 9.08261 78.1891 8.74918C78.0352 8.40934 77.9582 8.02781 77.9582 7.60461C77.9582 7.0724 78.0929 6.59149 78.3622 6.16187C78.6379 5.72584 79.0002 5.386 79.449 5.14234C79.9043 4.89226 80.3948 4.76722 80.9206 4.76722C81.6132 4.76722 82.1678 4.99486 82.5846 5.45012C83.0078 5.89897 83.2194 6.55301 83.2194 7.41224C83.2194 8.34201 82.9886 9.23651 82.5269 10.0957C82.0716 10.9486 81.5106 11.6379 80.8437 12.1637C80.1832 12.6959 79.5837 12.962 79.0451 12.962ZM80.5167 9.06658C80.7347 9.06658 80.9591 8.98964 81.19 8.83574C81.4208 8.68185 81.6132 8.45743 81.767 8.16247C81.9209 7.86751 81.9979 7.51484 81.9979 7.10446C81.9979 6.65561 81.8985 6.2805 81.6997 5.97912C81.5074 5.67134 81.1996 5.51745 80.7764 5.51745C80.5391 5.51745 80.2955 5.5976 80.0454 5.7579C79.8017 5.91821 79.5965 6.15867 79.4298 6.47927C79.2631 6.79347 79.1797 7.17179 79.1797 7.61423C79.1797 8.02461 79.2823 8.37086 79.4875 8.653C79.6991 8.92872 80.0422 9.06658 80.5167 9.06658ZM86.1392 11.7405C85.9148 11.7405 85.7449 11.6571 85.6295 11.4904C85.514 11.3173 85.4563 11.0672 85.4563 10.7402C85.4563 10.2079 85.5076 9.6052 85.6102 8.93193C85.7128 8.25224 85.8795 7.41224 86.1104 6.41195C85.7833 6.41195 85.514 6.34782 85.3024 6.21958C85.0972 6.09134 84.9722 5.9118 84.9273 5.68096C85.2351 5.59119 85.498 5.49821 85.716 5.40203C85.9404 5.30585 86.1841 5.18722 86.447 5.04615C86.633 4.94356 86.7804 4.87303 86.8894 4.83455C86.9984 4.78967 87.1042 4.76722 87.2068 4.76722C87.4633 4.76722 87.5916 4.9147 87.5916 5.20966C87.5916 5.30585 87.5659 5.48218 87.5146 5.73867C87.4633 5.98874 87.4024 6.26126 87.3319 6.55622C87.1331 7.40904 86.9728 8.15926 86.851 8.80689C86.7355 9.45452 86.6778 10.0637 86.6778 10.6344C86.6778 10.9806 86.7323 11.282 86.8413 11.5385C86.5913 11.6731 86.3572 11.7405 86.1392 11.7405Z" fill="black"/>
</svg>
