<svg width="95" height="61" viewBox="0 0 95 61" fill="none" xmlns="http://www.w3.org/2000/svg">
<path d="M93.623 0.75V59.96H0.75V0.75H93.623Z" fill="#E1F5FB" stroke="black" stroke-width="1.5"/>
<path d="M92.8733 58.6613H1.5L7.76777 40.4527L14.03 31.0674L22.385 37.2559L28.6522 34.6427L35.9608 13.7583L46.924 3.46851L50.0576 10.6247L58.933 12.7169L62.587 23.6801L69.8956 28.3805L77.7302 47.1727L92.8733 58.6613Z" fill="white"/>
<path d="M64.4592 58.6613H1.5L7.76777 40.4527L14.03 31.0674L22.385 37.2559L28.6522 34.6427L35.9608 13.7583L46.924 3.46851L43.8796 12.5329L48.1649 22.4603L46.0245 31.0674L59.8059 36.5465L64.4592 58.6613Z" fill="#9BD6EA"/>
<path d="M28.652 34.6428L35.6796 40.7133L38.2423 51.2497L33.4472 41.2032L34.5307 52.965L29.9112 42.6736L24.0308 43.8042L22.3848 37.256L28.652 34.6428Z" fill="#BBE4F1"/>
<path d="M14.0303 31.0674L18.8205 58.6613L24.0313 43.8041L22.3853 37.2559L14.0303 31.0674Z" fill="#E6F5FA"/>
<path d="M50.0579 10.6248L43.8799 12.533L58.9333 12.717L50.0579 10.6248Z" fill="#9BD6EA"/>
<path d="M48.1648 22.4602V29.9317L57.6 26.1957L50.3718 31.0646L59.8058 36.5465L46.0244 31.0674L48.1648 22.4602Z" fill="#E6F5FA"/>
<path d="M77.7295 47.1729L69.9736 53.945L77.7295 50.5592L92.8727 58.6614L77.7295 47.1729Z" fill="#E6F5FA"/>
<path d="M69.8954 28.3806L69.9741 53.9449L64.459 58.6614L59.8057 36.5466L69.8954 28.3806Z" fill="#BBE4F1"/>
<path d="M46.0244 31.0674V33.7909L52.9151 43.5209L49.8209 34.6427L59.8058 36.5465L46.0244 31.0674Z" fill="#BBE4F1"/>
<path d="M7.76777 40.4526L12.6982 58.6612H1.5L7.76777 40.4526Z" fill="#BBE4F1"/>
<path d="M56.803 58.6612L47.9537 41.1421L49.8203 49.5569L49.5759 54.5572L43.0205 56.0275L34.5303 58.6612H56.803Z" fill="#BBE4F1"/>
<path d="M35.961 13.7584L43.8798 12.533L37.3238 15.9653L28.6523 34.6428L35.961 13.7584Z" fill="#BBE4F1"/>
<path d="M48.1652 22.4603L58.9333 12.717L43.8799 12.533L48.1652 22.4603Z" fill="#E6F5FA"/>
<path d="M79.1738 13.0004C78.6288 13.0004 78.2216 12.9267 77.9523 12.7792C77.6894 12.6317 77.558 12.4105 77.558 12.1156C77.558 11.9296 77.6317 11.7757 77.7792 11.6539C77.9331 11.5321 78.119 11.4711 78.337 11.4711C78.5294 11.4711 78.7186 11.5417 78.9045 11.6827C79.0905 11.8238 79.2444 12.0162 79.3662 12.2598C79.7509 12.2598 80.1036 12.1861 80.4242 12.0386C80.7448 11.8911 80.9981 11.6892 81.184 11.4327C81.37 11.1762 81.463 10.8941 81.463 10.5863C81.463 10.3105 81.386 10.0509 81.2321 9.80719C81.0847 9.55711 80.9051 9.40002 80.6935 9.33589C80.2703 9.61803 79.9112 9.7591 79.6163 9.7591C79.4431 9.7591 79.2957 9.7078 79.1738 9.6052C79.0584 9.4962 79.0007 9.36475 79.0007 9.21086C79.0007 8.98643 79.0969 8.80689 79.2892 8.67223C79.488 8.53758 79.7477 8.47025 80.0683 8.47025C80.5685 8.47025 81.0173 8.56002 81.4149 8.73956C81.8124 8.91269 82.1234 9.15315 82.3479 9.46093C82.5723 9.76871 82.6845 10.1182 82.6845 10.5093C82.6845 10.9838 82.5338 11.4102 82.2324 11.7885C81.9311 12.1669 81.5111 12.4618 80.9724 12.6734C80.4402 12.8914 79.8407 13.0004 79.1738 13.0004ZM80.0876 8.76842C80.5428 8.6017 80.9083 8.34842 81.184 8.00858C81.4598 7.66873 81.5976 7.30003 81.5976 6.90248C81.5976 6.48569 81.5047 6.1747 81.3187 5.96951C81.1327 5.76432 80.8506 5.66172 80.4723 5.66172C80.2158 5.66172 79.9786 5.73226 79.7605 5.87332C79.5489 6.00798 79.3726 6.19714 79.2315 6.4408C79.0969 6.67805 79.0199 6.94416 79.0007 7.23912C78.7699 7.20705 78.5871 7.1237 78.4525 6.98904C78.3242 6.85439 78.2601 6.67805 78.2601 6.46004C78.2601 6.1266 78.3627 5.83164 78.5679 5.57516C78.7731 5.31867 79.0648 5.11989 79.4431 4.97883C79.8215 4.83776 80.2575 4.76722 80.7512 4.76722C81.1488 4.76722 81.5047 4.84417 81.8188 4.99806C82.133 5.15195 82.3767 5.36676 82.5498 5.64249C82.7294 5.91821 82.8191 6.2292 82.8191 6.57546C82.8191 7.03072 82.6653 7.47637 82.3575 7.91239C82.0561 8.34201 81.6201 8.73636 81.0494 9.09544L80.0876 8.76842ZM85.4267 12.962C85.2087 12.962 85.0356 12.9203 84.9074 12.8369C84.7855 12.76 84.6829 12.6157 84.5996 12.4041C85.0677 12.231 85.5101 12.0162 85.9269 11.7597C86.3501 11.5032 86.7669 11.1377 87.1773 10.6632C87.5876 10.1823 87.9403 9.57956 88.2353 8.85498H88.1776C87.9083 9.21406 87.6229 9.46734 87.3215 9.61482C87.0202 9.75589 86.6996 9.82642 86.3597 9.82642C85.9365 9.82642 85.571 9.73024 85.2632 9.53788C84.9619 9.34551 84.731 9.08261 84.5707 8.74918C84.4168 8.40934 84.3399 8.02781 84.3399 7.60461C84.3399 7.0724 84.4745 6.59149 84.7438 6.16187C85.0196 5.72584 85.3819 5.386 85.8307 5.14234C86.286 4.89226 86.7765 4.76722 87.3023 4.76722C87.9948 4.76722 88.5495 4.99486 88.9663 5.45012C89.3895 5.89897 89.6011 6.55301 89.6011 7.41224C89.6011 8.34201 89.3702 9.23651 88.9086 10.0957C88.4533 10.9486 87.8922 11.6379 87.2254 12.1637C86.5649 12.6959 85.9654 12.962 85.4267 12.962ZM86.8983 9.06658C87.1163 9.06658 87.3408 8.98964 87.5716 8.83574C87.8025 8.68185 87.9948 8.45743 88.1487 8.16247C88.3026 7.86751 88.3795 7.51484 88.3795 7.10446C88.3795 6.65561 88.2802 6.2805 88.0814 5.97912C87.889 5.67134 87.5812 5.51745 87.158 5.51745C86.9208 5.51745 86.6771 5.5976 86.427 5.7579C86.1834 5.91821 85.9782 6.15867 85.8115 6.47927C85.6448 6.79347 85.5614 7.17179 85.5614 7.61423C85.5614 8.02461 85.664 8.37086 85.8692 8.653C86.0808 8.92872 86.4238 9.06658 86.8983 9.06658Z" fill="black"/>
</svg>
