<svg width="95" height="61" viewBox="0 0 95 61" fill="none" xmlns="http://www.w3.org/2000/svg">
<path d="M93.623 0.75V59.96H0.75V0.75H93.623Z" fill="#FFC270" stroke="black" stroke-width="1.5"/>
<path d="M78.6056 12.962C78.3876 12.962 78.2144 12.9203 78.0862 12.8369C77.9644 12.76 77.8618 12.6157 77.7784 12.4041C78.2465 12.231 78.6889 12.0162 79.1057 11.7597C79.5289 11.5032 79.9457 11.1377 80.3561 10.6632C80.7665 10.1823 81.1192 9.57956 81.4141 8.85498H81.3564C81.0871 9.21406 80.8018 9.46734 80.5004 9.61482C80.199 9.75589 79.8784 9.82642 79.5386 9.82642C79.1154 9.82642 78.7499 9.73024 78.4421 9.53788C78.1407 9.34551 77.9099 9.08261 77.7496 8.74918C77.5957 8.40934 77.5187 8.02781 77.5187 7.60461C77.5187 7.0724 77.6534 6.59149 77.9227 6.16187C78.1984 5.72584 78.5607 5.386 79.0096 5.14234C79.4648 4.89226 79.9553 4.76722 80.4811 4.76722C81.1737 4.76722 81.7283 4.99486 82.1451 5.45012C82.5683 5.89897 82.7799 6.55301 82.7799 7.41224C82.7799 8.34201 82.5491 9.23651 82.0874 10.0957C81.6321 10.9486 81.0711 11.6379 80.4042 12.1637C79.7437 12.6959 79.1442 12.962 78.6056 12.962ZM80.0772 9.06658C80.2952 9.06658 80.5196 8.98964 80.7505 8.83574C80.9813 8.68185 81.1737 8.45743 81.3276 8.16247C81.4814 7.86751 81.5584 7.51484 81.5584 7.10446C81.5584 6.65561 81.459 6.2805 81.2602 5.97912C81.0679 5.67134 80.7601 5.51745 80.3369 5.51745C80.0996 5.51745 79.856 5.5976 79.6059 5.7579C79.3622 5.91821 79.157 6.15867 78.9903 6.47927C78.8236 6.79347 78.7402 7.17179 78.7402 7.61423C78.7402 8.02461 78.8428 8.37086 79.048 8.653C79.2596 8.92872 79.6027 9.06658 80.0772 9.06658ZM84.4205 10.5863C85.5234 9.8681 86.3506 9.20765 86.902 8.60491C87.4599 7.99575 87.7388 7.42827 87.7388 6.90248C87.7388 6.48569 87.6426 6.1747 87.4502 5.96951C87.2643 5.76432 86.9822 5.66172 86.6038 5.66172C86.3602 5.66172 86.1357 5.73226 85.9306 5.87332C85.7318 6.00798 85.5683 6.19393 85.44 6.43118C85.3182 6.66843 85.2477 6.93774 85.2284 7.23912C84.9912 7.21347 84.8084 7.13331 84.6802 6.99866C84.5519 6.85759 84.4878 6.67805 84.4878 6.46004C84.4878 6.1266 84.5872 5.83164 84.786 5.57516C84.9848 5.31867 85.2637 5.11989 85.6228 4.97883C85.9883 4.83776 86.4083 4.76722 86.8828 4.76722C87.2931 4.76722 87.6554 4.84417 87.9696 4.99806C88.2838 5.14554 88.5275 5.35714 88.7006 5.63287C88.8737 5.90859 88.9603 6.22279 88.9603 6.57546C88.9603 7.01148 88.8353 7.44751 88.5852 7.88354C88.3415 8.31957 87.9504 8.78765 87.4118 9.2878C86.8796 9.78795 86.1614 10.3554 85.2573 10.9902L84.4205 10.5863ZM87.9696 11.7885C87.6041 11.7885 87.2354 11.7469 86.8635 11.6635C86.4916 11.5802 85.9851 11.4231 85.3438 11.1922L85.315 11.1826C85.129 11.375 84.9591 11.5096 84.8052 11.5866C84.6577 11.6699 84.4974 11.7116 84.3243 11.7116C84.1512 11.7116 84.0037 11.6539 83.8819 11.5385C83.7665 11.4231 83.7087 11.282 83.7087 11.1153C83.7087 10.8395 83.821 10.6151 84.0454 10.442C84.2698 10.2689 84.5519 10.1823 84.8918 10.1823C85.0585 10.1823 85.2605 10.2112 85.4977 10.2689C85.735 10.3202 86.0267 10.3971 86.373 10.4997C86.7834 10.6151 87.1072 10.7017 87.3444 10.7594C87.5817 10.8107 87.7901 10.8363 87.9696 10.8363L89.0276 10.2592C89.1174 10.4003 89.1783 10.5189 89.2104 10.6151C89.2489 10.7113 89.2681 10.8043 89.2681 10.8941C89.2681 11.0608 89.2104 11.2147 89.095 11.3557C88.9795 11.4904 88.8224 11.5962 88.6237 11.6731C88.4249 11.7501 88.2069 11.7885 87.9696 11.7885Z" fill="black"/>
</svg>
