<svg width="95" height="61" viewBox="0 0 95 61" fill="none" xmlns="http://www.w3.org/2000/svg">
<path d="M93.623 0.75V59.96H0.75V0.75H93.623Z" fill="#FFC270" stroke="black" stroke-width="1.5"/>
<path d="M80.6253 12.6638C80.0931 12.6638 79.827 12.3528 79.827 11.7308C79.827 11.0255 80.0418 10.1406 80.4714 9.0762C80.901 8.01178 81.4781 6.91851 82.2027 5.79638L83.4435 5.40203C83.078 5.95348 82.7253 6.58507 82.3855 7.29682C82.0456 8.00858 81.7667 8.74597 81.5487 9.50902C81.3307 10.2721 81.2217 10.9838 81.2217 11.6443C81.2217 11.8302 81.2281 11.9777 81.2409 12.0867C81.2601 12.2021 81.2986 12.3208 81.3563 12.4426C81.1191 12.5901 80.8754 12.6638 80.6253 12.6638ZM81.5968 6.20034C80.9684 6.20034 80.465 6.17149 80.0867 6.11378C79.7148 6.04966 79.4423 5.95348 79.2691 5.82523C79.096 5.69058 79.0095 5.51104 79.0095 5.28661C79.0095 5.1776 79.0255 5.0686 79.0575 4.95959C79.0896 4.84417 79.1281 4.74478 79.173 4.66142C79.6411 4.8602 80.1636 5.02692 80.7407 5.16157C81.3178 5.28982 81.8404 5.36676 82.3085 5.39241C82.4175 5.18722 82.549 5.02692 82.7029 4.9115C82.8632 4.78967 83.0331 4.72875 83.2126 4.72875C83.4242 4.72875 83.5845 4.78005 83.6935 4.88264C83.8025 4.97883 83.8571 5.11989 83.8571 5.30585C83.8571 5.62004 83.6743 5.84767 83.3088 5.98874C82.9433 6.12981 82.3726 6.20034 81.5968 6.20034ZM86.0638 12.6638C85.5316 12.6638 85.2655 12.3528 85.2655 11.7308C85.2655 11.0255 85.4803 10.1406 85.9099 9.0762C86.3395 8.01178 86.9166 6.91851 87.6412 5.79638L88.8819 5.40203C88.5164 5.95348 88.1637 6.58507 87.8239 7.29682C87.4841 8.00858 87.2051 8.74597 86.9871 9.50902C86.7691 10.2721 86.6601 10.9838 86.6601 11.6443C86.6601 11.8302 86.6665 11.9777 86.6793 12.0867C86.6986 12.2021 86.737 12.3208 86.7948 12.4426C86.5575 12.5901 86.3138 12.6638 86.0638 12.6638ZM87.0352 6.20034C86.4068 6.20034 85.9035 6.17149 85.5251 6.11378C85.1532 6.04966 84.8807 5.95348 84.7076 5.82523C84.5345 5.69058 84.4479 5.51104 84.4479 5.28661C84.4479 5.1776 84.4639 5.0686 84.496 4.95959C84.5281 4.84417 84.5665 4.74478 84.6114 4.66142C85.0795 4.8602 85.6021 5.02692 86.1792 5.16157C86.7563 5.28982 87.2789 5.36676 87.747 5.39241C87.856 5.18722 87.9874 5.02692 88.1413 4.9115C88.3016 4.78967 88.4715 4.72875 88.6511 4.72875C88.8627 4.72875 89.023 4.78005 89.132 4.88264C89.241 4.97883 89.2955 5.11989 89.2955 5.30585C89.2955 5.62004 89.1128 5.84767 88.7473 5.98874C88.3818 6.12981 87.8111 6.20034 87.0352 6.20034Z" fill="black"/>
</svg>
