<svg width="95" height="187" viewBox="0 0 95 187" fill="none" xmlns="http://www.w3.org/2000/svg">
<path d="M93.623 0.75V59.96H0.75V0.75H93.623Z" fill="#D9D9D9" stroke="black" stroke-width="1.5"/>
<path d="M79.7142 13.7405C79.0217 13.7405 78.4638 13.516 78.0406 13.0672C77.6238 12.6119 77.4154 11.9547 77.4154 11.0954C77.4154 10.1657 77.6431 9.27438 78.0983 8.42156C78.56 7.56233 79.1211 6.86982 79.7815 6.34402C80.4484 5.81181 81.0511 5.54571 81.5898 5.54571C81.8078 5.54571 81.9777 5.58739 82.0995 5.67074C82.2278 5.74769 82.3368 5.89196 82.4265 6.10357C81.9585 6.27669 81.5128 6.4915 81.0896 6.74799C80.6728 7.00447 80.256 7.36997 79.8392 7.84447C79.4289 8.31897 79.0762 8.92171 78.7812 9.6527H78.8389C79.1083 9.29362 79.3936 9.04354 79.695 8.90248C79.9963 8.755 80.3169 8.68126 80.6568 8.68126C81.08 8.68126 81.4423 8.77744 81.7437 8.9698C82.0514 9.16217 82.2823 9.42507 82.4362 9.7585C82.5965 10.0919 82.6766 10.4735 82.6766 10.9031C82.6766 11.4289 82.5388 11.9098 82.263 12.3458C81.9937 12.7818 81.6314 13.1249 81.1762 13.375C80.7209 13.6186 80.2336 13.7405 79.7142 13.7405ZM79.8585 12.9902C80.0957 12.9902 80.3362 12.9101 80.5798 12.7498C80.8235 12.5895 81.0287 12.3522 81.1954 12.038C81.3621 11.7174 81.4455 11.3359 81.4455 10.8935C81.4455 10.4831 81.3429 10.14 81.1377 9.8643C80.9325 9.58217 80.5927 9.4411 80.1182 9.4411C79.9002 9.4411 79.6757 9.51804 79.4449 9.67194C79.2141 9.82583 79.0217 10.0503 78.8678 10.3452C78.7139 10.6402 78.637 10.9928 78.637 11.4032C78.637 11.8521 78.7331 12.2304 78.9255 12.5382C79.1179 12.8395 79.4289 12.9902 79.8585 12.9902ZM85.0916 14.962C84.8735 14.962 84.7004 14.9203 84.5722 14.8369C84.4503 14.76 84.3477 14.6157 84.2644 14.4041C84.7325 14.231 85.1749 14.0162 85.5917 13.7597C86.0149 13.5032 86.4317 13.1377 86.8421 12.6632C87.2525 12.1823 87.6051 11.5796 87.9001 10.855H87.8424C87.5731 11.2141 87.2877 11.4673 86.9863 11.6148C86.685 11.7559 86.3644 11.8264 86.0245 11.8264C85.6013 11.8264 85.2358 11.7302 84.928 11.5379C84.6267 11.3455 84.3958 11.0826 84.2355 10.7492C84.0816 10.4093 84.0047 10.0278 84.0047 9.60461C84.0047 9.0724 84.1393 8.59149 84.4087 8.16187C84.6844 7.72584 85.0467 7.386 85.4955 7.14234C85.9508 6.89226 86.4413 6.76722 86.9671 6.76722C87.6596 6.76722 88.2143 6.99486 88.6311 7.45012C89.0543 7.89897 89.2659 8.55301 89.2659 9.41224C89.2659 10.342 89.035 11.2365 88.5734 12.0957C88.1181 12.9486 87.557 13.6379 86.8902 14.1637C86.2297 14.6959 85.6302 14.962 85.0916 14.962ZM86.5631 11.0666C86.7812 11.0666 87.0056 10.9896 87.2364 10.8357C87.4673 10.6819 87.6596 10.4574 87.8135 10.1625C87.9674 9.86751 88.0444 9.51484 88.0444 9.10446C88.0444 8.65561 87.945 8.2805 87.7462 7.97912C87.5538 7.67134 87.246 7.51745 86.8228 7.51745C86.5856 7.51745 86.3419 7.5976 86.0919 7.7579C85.8482 7.91821 85.643 8.15867 85.4763 8.47927C85.3096 8.79347 85.2262 9.17179 85.2262 9.61423C85.2262 10.0246 85.3288 10.3709 85.534 10.653C85.7456 10.9287 86.0886 11.0666 86.5631 11.0666Z" fill="black"/>
<g filter="url(#filter0_d_136_3383)">
<path d="M8.92799 146.304C-13.5997 122.922 41.8178 114.24 49.7125 100.534C56.1349 89.3385 29.3067 81.9239 27.8034 70.4177C27.444 64.0214 36.8675 61.1887 39.8422 57.2823C44.2681 51.4644 41.0244 45.0309 30.1113 40.5C44.9527 41.1619 53.5359 44.1517 55.8352 49.4466C58.5852 55.7643 53.7781 61.0129 51.0022 65.3546C43.7267 76.7079 85.6995 87.0849 85.9855 100.97C86.176 110.116 70.8758 111.643 68.3558 124.607C67.5169 131.942 85.9562 141.653 88.8326 150.282C91.7089 158.911 87.5722 180.105 87.5722 180.105H3.5C3.5 180.105 20.4622 172.429 20.5967 162.973C20.7096 155.025 11.8579 149.16 8.92799 146.304Z" fill="url(#paint0_linear_136_3383)"/>
<path d="M15.8531 148.453C-6.67462 125.071 49.1677 116.389 57.0624 102.684M47.1921 59.4315C51.6181 53.6136 48.3744 47.1801 37.4612 42.6492" stroke="#9CECFD" stroke-width="0.657197"/>
<path d="M35.1225 148.934C12.5948 125.552 47.038 122.021 60.168 109.742" stroke="#9CECFD" stroke-width="0.657197"/>
<path d="M68.1259 102.683C74.5483 91.4874 47.7201 84.0728 46.2168 72.5667" stroke="#9CECFD" stroke-width="0.821496"/>
<path d="M55.2436 141.316C41.2929 125.091 85.607 103.165 77.8108 96.1484" stroke="#9CECFD" stroke-width="0.821496"/>
<path d="M51.2705 50.7188C54.0205 57.0364 49.2134 62.285 46.4375 66.6267M63.7911 125.879C62.2408 133.886 68.2734 141.12 81.8975 147.576" stroke="#9CECFD" stroke-width="0.821496"/>
<path d="M51.2705 50.7188C54.0205 57.0364 49.2134 62.285 46.4375 66.6267M63.7911 125.879C62.2408 133.886 68.2734 141.12 81.8975 147.576" stroke="#9CECFD" stroke-width="0.821496"/>
<path d="M41.2942 62.3823C33.7833 68.1049 32.6775 68.9601 45.3974 79.4845" stroke="#9CECFD" stroke-width="0.821496"/>
<path d="M21.5173 143.635C21.5173 143.635 33.5836 152.54 33.4756 160.67C33.3507 170.082 16.918 178.167 16.918 178.167" stroke="#9CECFD" stroke-width="0.653802" stroke-linecap="round"/>
<path d="M42.2136 140.873C42.2136 140.873 54.2799 149.778 54.1719 157.908C54.047 167.319 37.6143 175.404 37.6143 175.404" stroke="#9CECFD" stroke-width="0.653802" stroke-linecap="round"/>
<path d="M68.8907 159.75C68.7658 169.161 52.333 177.246 52.333 177.246" stroke="#9CECFD" stroke-width="0.653802" stroke-linecap="round"/>
<path d="M65.21 143.635C65.21 143.635 77.2762 152.54 77.1683 160.67" stroke="#9CECFD" stroke-width="0.653802" stroke-linecap="round"/>
</g>
<defs>
<filter id="filter0_d_136_3383" x="0.0835927" y="40.5" width="93.1824" height="146.438" filterUnits="userSpaceOnUse" color-interpolation-filters="sRGB">
<feFlood flood-opacity="0" result="BackgroundImageFix"/>
<feColorMatrix in="SourceAlpha" type="matrix" values="0 0 0 0 0 0 0 0 0 0 0 0 0 0 0 0 0 0 127 0" result="hardAlpha"/>
<feOffset dy="3.41641"/>
<feGaussianBlur stdDeviation="1.7082"/>
<feComposite in2="hardAlpha" operator="out"/>
<feColorMatrix type="matrix" values="0 0 0 0 0 0 0 0 0 0 0 0 0 0 0 0 0 0 0.25 0"/>
<feBlend mode="normal" in2="BackgroundImageFix" result="effect1_dropShadow_136_3383"/>
<feBlend mode="normal" in="SourceGraphic" in2="effect1_dropShadow_136_3383" result="shape"/>
</filter>
<linearGradient id="paint0_linear_136_3383" x1="46.6749" y1="40.5" x2="46.6749" y2="180.105" gradientUnits="userSpaceOnUse">
<stop stop-color="#10A2EA"/>
<stop offset="1" stop-color="#40DBEE"/>
</linearGradient>
</defs>
</svg>
