<svg width="95" height="61" viewBox="0 0 95 61" fill="none" xmlns="http://www.w3.org/2000/svg">
<path d="M93.623 0.75V59.96H0.75V0.75H93.623Z" fill="#D9D9D9" stroke="black" stroke-width="1.5"/>
<path d="M78.3583 11.5C77.8581 11.5 77.4926 11.4295 77.2618 11.2884C77.0309 11.1473 76.9155 10.9261 76.9155 10.6247C76.9155 10.426 76.9861 10.1791 77.1271 9.88413C77.2682 9.58276 77.499 9.14994 77.8196 8.58567C78.0954 8.11117 78.3166 7.71041 78.4833 7.38339C78.6564 7.05637 78.8039 6.72294 78.9257 6.38309C79.0476 6.03683 79.1085 5.72264 79.1085 5.4405C79.1085 5.28661 79.0828 5.11669 79.0315 4.93074C79.1534 4.87303 79.2688 4.83135 79.3778 4.8057C79.4868 4.78005 79.599 4.76722 79.7144 4.76722C80.2338 4.76722 80.4935 5.08142 80.4935 5.70981C80.4935 6.2805 80.2627 6.9698 79.801 7.77774C79.3457 8.57926 78.65 9.51864 77.7138 10.5959H80.9071L80.6282 11.3173C80.3332 11.3686 79.9709 11.4134 79.5413 11.4519C79.1117 11.484 78.7173 11.5 78.3583 11.5ZM81.1764 13.1351C80.9135 13.1351 80.7083 13.0485 80.5608 12.8754C80.4198 12.7087 80.3492 12.4682 80.3492 12.154C80.3492 11.8398 80.439 11.3269 80.6185 10.6151C80.8045 9.90337 81.0546 9.08261 81.3688 8.15285C81.4778 8.06949 81.6028 8.00216 81.7439 7.95087C81.8849 7.89957 82.0164 7.87392 82.1382 7.87392C82.2472 7.87392 82.3242 7.89316 82.3691 7.93163C82.414 7.96369 82.4364 8.0214 82.4364 8.10476C82.4364 8.18812 82.4172 8.31636 82.3787 8.48949C82.3402 8.66262 82.2953 8.85178 82.244 9.05696C82.103 9.58276 81.9875 10.0765 81.8978 10.5382C81.8144 10.9934 81.7727 11.4455 81.7727 11.8943C81.7727 12.3176 81.8497 12.6542 82.0036 12.9043C81.8369 12.9876 81.6926 13.0453 81.5708 13.0774C81.4489 13.1159 81.3175 13.1351 81.1764 13.1351ZM86.2527 11.7405C85.7462 11.7405 85.3037 11.6186 84.9254 11.375C84.5471 11.1313 84.2553 10.785 84.0502 10.3362C83.8514 9.88734 83.752 9.36154 83.752 8.7588C83.752 7.9701 83.9059 7.27438 84.2137 6.67164C84.5214 6.06889 84.9543 5.60081 85.5121 5.26737C86.07 4.93394 86.708 4.76722 87.4262 4.76722C87.5416 4.76722 87.6762 4.78326 87.8301 4.81532C87.984 4.84096 88.1091 4.87303 88.2052 4.9115C88.2501 4.9628 88.2822 5.11669 88.3014 5.37317C88.7054 5.48218 89.0132 5.74187 89.2248 6.15225C89.4364 6.55622 89.5422 7.08522 89.5422 7.73926C89.5422 8.48308 89.3947 9.15956 89.0997 9.76871C88.8112 10.3779 88.4168 10.8588 87.9167 11.2115C87.4165 11.5641 86.8619 11.7405 86.2527 11.7405ZM86.3393 11.0095C86.7176 11.0095 87.0575 10.8748 87.3588 10.6055C87.6602 10.3362 87.8942 9.96108 88.061 9.48017C88.2341 8.99925 88.3207 8.45422 88.3207 7.84506C88.3207 7.1269 88.186 6.59149 87.9167 6.23882C87.6538 5.88615 87.2434 5.70981 86.6856 5.70981C86.474 5.70981 86.2143 5.76111 85.9065 5.86371C85.6051 6.29973 85.3743 6.78385 85.214 7.31606C85.0537 7.84186 84.9735 8.36445 84.9735 8.88384C84.9735 9.53788 85.0953 10.0573 85.339 10.442C85.5891 10.8203 85.9225 11.0095 86.3393 11.0095Z" fill="black"/>
</svg>
