<svg width="95" height="61" viewBox="0 0 95 61" fill="none" xmlns="http://www.w3.org/2000/svg">
<path d="M93.623 0.75V59.96H0.75V0.75H93.623Z" fill="#FFC270" stroke="black" stroke-width="1.5"/>
<path d="M80.9457 11.7501C80.2147 11.7501 79.6344 11.593 79.2048 11.2788C78.7816 10.9646 78.57 10.5318 78.57 9.98032C78.57 9.71742 78.6309 9.46414 78.7527 9.22047C78.8745 8.9704 79.0926 8.71712 79.4067 8.46063C79.7209 8.20415 80.1538 7.94766 80.7052 7.69117C81.1925 7.47316 81.5709 7.25515 81.8402 7.03713C82.1095 6.81271 82.2922 6.59469 82.3884 6.38309C82.491 6.17149 82.5423 5.94706 82.5423 5.70981C82.5423 5.42768 82.4461 5.20325 82.2537 5.03654C82.0678 4.86982 81.8113 4.78646 81.4843 4.78646C81.1316 4.78646 80.8399 4.87303 80.609 5.04615C80.3846 5.21287 80.2724 5.45012 80.2724 5.7579C80.2724 5.97592 80.3397 6.1779 80.4744 6.36385C80.609 6.54981 80.7757 6.71973 80.9745 6.87362C81.1797 7.02751 81.4554 7.21667 81.8017 7.4411C82.2121 7.704 82.5423 7.93484 82.7924 8.13361C83.0424 8.32598 83.254 8.55361 83.4272 8.81651C83.6003 9.07941 83.6869 9.37437 83.6869 9.70139C83.6869 10.0989 83.5714 10.4548 83.3406 10.769C83.1098 11.0768 82.786 11.3173 82.3692 11.4904C81.9524 11.6635 81.4779 11.7501 80.9457 11.7501ZM81.0419 10.9421C81.4458 10.9421 81.7825 10.8428 82.0518 10.644C82.3211 10.4388 82.4557 10.1534 82.4557 9.78795C82.4557 9.60841 82.3916 9.43528 82.2634 9.26857C82.1351 9.10185 81.978 8.94796 81.7921 8.80689C81.6061 8.66582 81.3464 8.47987 81.013 8.24903C80.5898 7.9669 80.2467 7.72003 79.9838 7.50843C79.7274 7.29682 79.5061 7.05316 79.3202 6.77744C79.1342 6.50172 79.0413 6.20034 79.0413 5.87332C79.0413 5.50142 79.1406 5.17119 79.3394 4.88264C79.5446 4.5941 79.8332 4.37288 80.2051 4.21898C80.577 4.05868 81.0066 3.97853 81.4939 3.97853C82.1479 3.97853 82.6641 4.13563 83.0424 4.44982C83.4208 4.76402 83.6099 5.18402 83.6099 5.70981C83.6099 6.14584 83.424 6.56584 83.0521 6.9698C82.6802 7.36736 82.1479 7.72003 81.4554 8.02781C80.904 8.27147 80.4615 8.56323 80.1281 8.90307C79.8011 9.24292 79.6376 9.602 79.6376 9.98032C79.6376 10.2689 79.769 10.5029 80.0319 10.6824C80.2948 10.8556 80.6315 10.9421 81.0419 10.9421ZM86.1218 13.0004C85.5768 13.0004 85.1696 12.9267 84.9003 12.7792C84.6374 12.6317 84.5059 12.4105 84.5059 12.1156C84.5059 11.9296 84.5797 11.7757 84.7271 11.6539C84.881 11.5321 85.067 11.4711 85.285 11.4711C85.4774 11.4711 85.6665 11.5417 85.8525 11.6827C86.0384 11.8238 86.1923 12.0162 86.3142 12.2598C86.6989 12.2598 87.0516 12.1861 87.3722 12.0386C87.6928 11.8911 87.9461 11.6892 88.132 11.4327C88.318 11.1762 88.4109 10.8941 88.4109 10.5863C88.4109 10.3105 88.334 10.0509 88.1801 9.80719C88.0326 9.55711 87.8531 9.40002 87.6415 9.33589C87.2183 9.61803 86.8592 9.7591 86.5642 9.7591C86.3911 9.7591 86.2436 9.7078 86.1218 9.6052C86.0064 9.4962 85.9487 9.36475 85.9487 9.21086C85.9487 8.98643 86.0448 8.80689 86.2372 8.67223C86.436 8.53758 86.6957 8.47025 87.0163 8.47025C87.5164 8.47025 87.9653 8.56002 88.3628 8.73956C88.7604 8.91269 89.0714 9.15315 89.2958 9.46093C89.5202 9.76871 89.6325 10.1182 89.6325 10.5093C89.6325 10.9838 89.4818 11.4102 89.1804 11.7885C88.879 12.1669 88.459 12.4618 87.9204 12.6734C87.3882 12.8914 86.7887 13.0004 86.1218 13.0004ZM87.0355 8.76842C87.4908 8.6017 87.8563 8.34842 88.132 8.00858C88.4077 7.66873 88.5456 7.30003 88.5456 6.90248C88.5456 6.48569 88.4526 6.1747 88.2667 5.96951C88.0807 5.76432 87.7986 5.66172 87.4203 5.66172C87.1638 5.66172 86.9265 5.73226 86.7085 5.87332C86.4969 6.00798 86.3206 6.19714 86.1795 6.4408C86.0448 6.67805 85.9679 6.94416 85.9487 7.23912C85.7178 7.20705 85.5351 7.1237 85.4004 6.98904C85.2722 6.85439 85.2081 6.67805 85.2081 6.46004C85.2081 6.1266 85.3106 5.83164 85.5158 5.57516C85.721 5.31867 86.0128 5.11989 86.3911 4.97883C86.7694 4.83776 87.2054 4.76722 87.6992 4.76722C88.0967 4.76722 88.4526 4.84417 88.7668 4.99806C89.081 5.15195 89.3247 5.36676 89.4978 5.64249C89.6773 5.91821 89.7671 6.2292 89.7671 6.57546C89.7671 7.03072 89.6132 7.47637 89.3054 7.91239C89.0041 8.34201 88.568 8.73636 87.9973 9.09544L87.0355 8.76842Z" fill="black"/>
</svg>
