<svg width="95" height="61" viewBox="0 0 95 61" fill="none" xmlns="http://www.w3.org/2000/svg">
<path d="M93.623 0.75V59.96H0.75V0.75H93.623Z" fill="#3BA15C" stroke="black" stroke-width="1.5"/>
<path d="M30.4119 51.1902C28.4147 50.9724 26.4744 50.2715 24.8466 49.0524C20.931 46.1058 18.9378 41.9796 18.7835 38.0235C18.5848 33.0161 21.3284 28.304 26.7688 26.562C36.584 22.6309 44.5073 18.4751 52.9351 13.9745C57.5873 10.0775 59.0298 10.5585 59.0298 10.5585C67.9299 8.18183 78.9792 20.0948 73.6143 29.3637C73.3257 29.8711 73.1498 30.3741 72.7961 30.885C72.7924 30.888 72.7924 30.888 72.7888 30.891C66.8815 42.3483 45.7214 53.4093 30.4119 51.1902Z" fill="white"/>
<path d="M31.7123 49.7587C29.8909 49.5647 28.1226 48.9284 26.6408 47.817C23.0764 45.1305 21.2689 41.3594 21.1387 37.739C20.9707 33.1566 23.4863 28.8365 28.4541 27.2277C37.0746 24.944 45.1763 21.4854 52.5873 16.3595C56.5077 12.8395 57.8111 12.7032 57.8111 12.7032C65.937 10.5044 76.2375 21.1627 71.3184 29.6603C71.0537 30.1253 70.7578 30.5935 70.4337 31.062C70.4304 31.0648 70.4304 31.0648 70.4271 31.0676C63.7874 40.7219 45.5155 51.2158 31.7123 49.7587Z" fill="#FAA530"/>
<path d="M31.7123 49.7587C29.8909 49.5647 28.1226 48.9284 26.6408 47.817C23.0764 45.1305 21.2689 41.3594 21.1387 37.739C21.1387 37.739 23.167 31.6978 28.1203 29.7385C33.0363 27.7973 40.421 27.693 49.7603 20.7719C49.7603 20.7719 51.801 19.704 53.8611 17.4423C55.9159 15.1941 60.32 11.8637 65.7982 16.5504C71.2631 21.23 53.5963 27.1339 53.5963 27.1339C53.5963 27.1339 34.855 36.1991 34.5039 36.4855C34.1489 36.7751 30.1374 41.1713 30.1374 41.1713C30.1374 41.1713 26.5215 46.5324 36.4999 47.7277C46.3688 48.9066 61.4025 40.7464 70.4271 31.0676C63.7874 40.7219 45.5155 51.2158 31.7123 49.7587Z" fill="#EF6F2E"/>
<path d="M34.4557 46.3904C22.7631 47.185 20.8386 32.6304 31.2788 30.1538C39.6036 28.2915 47.6242 25.7653 54.3545 19.1902C54.5953 18.9533 54.8225 18.6925 55.04 18.4339C58.3415 14.5808 62.7583 14.5242 65.7929 16.5437C65.7957 16.5472 65.7955 16.5469 65.7982 16.5504C69.4166 18.9689 71.1024 24.3676 66.533 29.9317C56.366 40.546 43.7753 45.3019 34.4557 46.3904Z" fill="#EF1624"/>
<path d="M28.1633 45.5619C27.8251 45.3622 27.5021 45.1411 27.1949 44.8988C25.4917 43.5551 24.3733 41.6255 24.0457 39.4652C23.4734 35.6912 25.4564 31.0127 31.1624 29.6588C40.309 27.6115 47.689 24.9867 53.9975 18.8264C54.2294 18.6 54.4459 18.3472 54.6552 18.1028C58.4481 13.6731 63.6373 14.0433 66.8027 16.6984C68.5634 18.1753 69.6196 20.2439 69.7766 22.5233C69.9541 25.0983 68.9692 27.7722 66.9285 30.2561C66.9202 30.2661 66.9116 30.2758 66.9027 30.2852C62.1562 35.2395 56.6021 39.2459 50.3945 42.1933C43.8198 45.3149 38.1299 46.4725 34.5145 46.8938C34.5063 46.8947 34.4982 46.8955 34.4901 46.896C32.0843 47.06 29.9216 46.6006 28.1633 45.5619ZM65.1594 16.781C62.3657 15.1308 58.4188 15.2751 55.4298 18.766C55.2163 19.0153 54.9745 19.2978 54.71 19.5561C48.2295 25.8842 40.7013 28.5687 31.3915 30.6525C26.3195 31.8559 24.5495 35.9854 25.054 39.3123C25.5918 42.8592 28.6931 46.2636 34.4087 45.8795C45.7841 44.5503 57.6492 38.463 66.1528 29.5938C70.216 24.6365 69.0791 19.9387 66.1474 17.4797C65.839 17.2211 65.5079 16.9869 65.1594 16.781Z" fill="#4C0016"/>
<path d="M27.2526 48.8363C26.9352 48.6488 26.6296 48.4446 26.3371 48.2245C22.1104 45.0422 19.9794 40.1118 20.7759 35.3576C21.1032 33.4037 21.9273 31.597 23.1588 30.1327C24.4827 28.5587 26.2117 27.4179 28.2979 26.7418C28.3067 26.739 28.3156 26.7363 28.3246 26.734C37.4396 24.3211 45.273 20.796 52.2699 15.9582C55.8889 12.7154 57.3478 12.2659 57.7049 12.2044C59.8626 11.6279 62.2503 11.8749 64.6127 12.9194C66.8084 13.8903 68.8571 15.517 70.3807 17.4998C73.4398 21.481 73.9546 26.1226 71.7579 29.9161C68.8579 34.9673 62.604 40.4151 55.0298 44.4873C51.1947 46.5493 47.1492 48.1666 43.3306 49.1645C39.1116 50.2671 35.1856 50.6377 31.6617 50.266C30.0625 50.0973 28.5582 49.6075 27.2526 48.8363ZM26.9504 47.4099C28.2984 48.4245 29.9644 49.0616 31.7687 49.2519C38.2747 49.9381 46.577 47.8741 54.547 43.5892C61.9606 39.6033 68.0643 34.3015 70.8745 29.4068C72.858 25.9816 72.3707 21.7633 69.5721 18.1211C66.5485 14.1862 61.7665 12.161 57.943 13.1963C57.9074 13.2059 57.9037 13.2095 57.8728 13.2109C57.7435 13.2423 56.391 13.631 52.9268 16.7387C52.9109 16.753 52.8941 16.7663 52.8766 16.7785C45.7775 21.6917 37.8362 25.2696 28.5991 27.7161C24.8958 28.921 22.4114 31.7668 21.7816 35.5261C21.0483 39.9036 23.0288 44.4572 26.9504 47.4099Z" fill="#4C0016"/>
<path d="M50.5149 43.7608C44.6967 46.2517 40.1379 47.4605 36.4999 47.7277C29.6558 48.2344 26.1673 45.4126 23.6298 41.6744C26.0099 44.4593 27.7176 42.5278 30.1337 41.1745C30.1373 41.1715 30.1374 41.1713 30.1374 41.1713C30.9896 40.6972 31.9311 40.2942 33.0223 40.194C41.9265 39.8266 50.336 37.5581 57.81 31.4145C62.2453 27.9229 63.2463 24.5062 67.0467 23.1353C70.6439 21.8398 70.1869 19.7434 70.1382 19.5453C73.3885 27.6427 65.577 35.6512 50.5149 43.7608Z" fill="#FAA530"/>
<path d="M32.6143 41.8911C32.6143 41.8911 35.1983 41.9498 41.3826 40.4834C47.5062 39.0313 50.5512 38.8982 59.4206 31.6765C59.4206 31.6765 62.6108 28.4712 63.9464 26.9584C56.248 38.2577 45.9625 43.7102 32.6143 41.8911Z" fill="white"/>
<path d="M36.4999 47.7277C29.6558 48.2344 26.1673 45.4126 23.6298 41.6744C26.0099 44.4593 27.7176 42.5278 30.1337 41.1745C30.0156 41.3612 26.7006 46.5551 36.4999 47.7277Z" fill="#EF6F2E"/>
<path d="M70.4381 19.4365C70.6813 20.2508 70.4102 21.1396 69.8997 21.7912L69.7506 21.9828C69.6679 22.0704 69.5006 22.2393 69.4162 22.3246C69.1205 22.5815 68.8049 22.8069 68.4715 23.0092C68.3023 23.0958 68.0218 23.2511 67.862 23.325C67.499 23.4793 67.0394 23.6745 66.677 23.8286L66.5841 23.8679L66.4952 23.9152C66.3448 23.9982 66.1004 24.1215 65.9646 24.2031C65.8697 24.2655 65.5589 24.4645 65.4563 24.5305L65.1339 24.7765C63.5671 26.0105 62.4612 27.6407 61.0813 29.0947C59.5085 30.8142 57.669 32.2771 55.7677 33.6155C49.3388 38.1408 41.5014 40.3718 33.6945 40.6759L33.2648 40.6974L33.0507 40.7085L32.8637 40.7319C31.7866 40.8624 30.8155 41.3336 29.8773 41.8831C28.3786 42.7614 26.5166 44.1935 24.7576 43.1046C24.2014 42.779 23.7717 42.3349 23.4056 41.8677L23.8544 41.4839C24.2328 41.884 24.6455 42.2481 25.1005 42.4699C27.3594 43.6488 29.4342 39.8466 33.1959 39.6656C42.4349 39.2419 50.7217 36.7345 57.8565 30.6876C58.7268 29.9735 59.5325 29.1993 60.2977 28.3694C61.4581 27.1252 62.538 25.7089 63.8117 24.5377L64.1528 24.2435C64.2104 24.1952 64.2651 24.1441 64.3251 24.0981C64.4903 23.9744 64.7152 23.8056 64.8705 23.6898C65.0617 23.5728 65.4407 23.315 65.6517 23.2171L66.0593 23.01L66.1614 22.959C66.5017 22.8214 66.9371 22.6475 67.2801 22.519C68.218 22.1534 69.2147 21.5788 69.6576 20.6529C69.7927 20.3423 69.8728 19.9916 69.831 19.6524L69.8287 19.633L69.8282 19.6242L70.4381 19.4365Z" fill="#4C0016"/>
<path d="M57.9143 24.7995C56.1696 23.0403 53.4373 21.4131 53.2427 21.4488C53.0353 21.4867 55.2067 23.569 56.784 25.462C58.0945 27.0349 58.7562 28.4936 59.4884 28.3896C60.2748 28.2778 59.5732 26.4724 57.9143 24.7995Z" fill="url(#paint0_linear_126_895)" fill-opacity="0.5"/>
<path d="M46.4539 31.7034C44.7092 29.9441 41.9769 28.317 41.7823 28.3526C41.5749 28.3906 43.7463 30.4728 45.3236 32.3658C46.634 33.9387 47.2957 35.3975 48.0279 35.2934C48.8143 35.1817 48.1128 33.3762 46.4539 31.7034Z" fill="url(#paint1_linear_126_895)" fill-opacity="0.5"/>
<path d="M51.3223 27.2685C52.8447 29.2233 54.1101 32.1408 54.0499 32.3293C53.9858 32.5301 52.1975 30.1108 50.5211 28.3051C49.1281 26.8047 47.7657 25.9624 47.9623 25.2494C48.1734 24.4837 49.8747 25.4097 51.3223 27.2685Z" fill="url(#paint2_linear_126_895)" fill-opacity="0.5"/>
<path d="M39.2722 33.1563C40.7946 35.1111 42.06 38.0286 41.9999 38.2171C41.9358 38.418 40.1475 35.9987 38.471 34.1929C37.0781 32.6925 35.7156 31.8502 35.9122 31.1372C36.1233 30.3715 37.8246 31.2976 39.2722 33.1563Z" fill="url(#paint3_linear_126_895)" fill-opacity="0.5"/>
<path d="M77.8361 10.5863C78.939 9.8681 79.7662 9.20765 80.3176 8.60491C80.8755 7.99575 81.1544 7.42827 81.1544 6.90248C81.1544 6.48569 81.0582 6.1747 80.8659 5.96951C80.6799 5.76432 80.3978 5.66172 80.0195 5.66172C79.7758 5.66172 79.5514 5.73226 79.3462 5.87332C79.1474 6.00798 78.9839 6.19393 78.8557 6.43118C78.7338 6.66843 78.6633 6.93774 78.6441 7.23912C78.4068 7.21347 78.2241 7.13331 78.0958 6.99866C77.9676 6.85759 77.9035 6.67805 77.9035 6.46004C77.9035 6.1266 78.0028 5.83164 78.2016 5.57516C78.4004 5.31867 78.6793 5.11989 79.0384 4.97883C79.4039 4.83776 79.8239 4.76722 80.2984 4.76722C80.7088 4.76722 81.0711 4.84417 81.3853 4.99806C81.6995 5.14554 81.9431 5.35714 82.1162 5.63287C82.2894 5.90859 82.3759 6.22279 82.3759 6.57546C82.3759 7.01148 82.2509 7.44751 82.0008 7.88354C81.7572 8.31957 81.366 8.78765 80.8274 9.2878C80.2952 9.78795 79.577 10.3554 78.6729 10.9902L77.8361 10.5863ZM81.3853 11.7885C81.0198 11.7885 80.6511 11.7469 80.2792 11.6635C79.9073 11.5802 79.4007 11.4231 78.7595 11.1922L78.7306 11.1826C78.5447 11.375 78.3747 11.5096 78.2209 11.5866C78.0734 11.6699 77.9131 11.7116 77.7399 11.7116C77.5668 11.7116 77.4193 11.6539 77.2975 11.5385C77.1821 11.4231 77.1244 11.282 77.1244 11.1153C77.1244 10.8395 77.2366 10.6151 77.461 10.442C77.6854 10.2689 77.9676 10.1823 78.3074 10.1823C78.4741 10.1823 78.6761 10.2112 78.9134 10.2689C79.1506 10.3202 79.4424 10.3971 79.7886 10.4997C80.199 10.6151 80.5228 10.7017 80.7601 10.7594C80.9973 10.8107 81.2057 10.8363 81.3853 10.8363L82.4433 10.2592C82.533 10.4003 82.594 10.5189 82.626 10.6151C82.6645 10.7113 82.6837 10.8043 82.6837 10.8941C82.6837 11.0608 82.626 11.2147 82.5106 11.3557C82.3952 11.4904 82.2381 11.5962 82.0393 11.6731C81.8405 11.7501 81.6225 11.7885 81.3853 11.7885ZM84.9176 12.962C84.6995 12.962 84.5264 12.9203 84.3982 12.8369C84.2763 12.76 84.1738 12.6157 84.0904 12.4041C84.5585 12.231 85.0009 12.0162 85.4177 11.7597C85.8409 11.5032 86.2577 11.1377 86.6681 10.6632C87.0785 10.1823 87.4311 9.57956 87.7261 8.85498H87.6684C87.3991 9.21406 87.1137 9.46734 86.8124 9.61482C86.511 9.75589 86.1904 9.82642 85.8505 9.82642C85.4273 9.82642 85.0618 9.73024 84.7541 9.53788C84.4527 9.34551 84.2218 9.08261 84.0615 8.74918C83.9076 8.40934 83.8307 8.02781 83.8307 7.60461C83.8307 7.0724 83.9654 6.59149 84.2347 6.16187C84.5104 5.72584 84.8727 5.386 85.3215 5.14234C85.7768 4.89226 86.2673 4.76722 86.7931 4.76722C87.4856 4.76722 88.0403 4.99486 88.4571 5.45012C88.8803 5.89897 89.0919 6.55301 89.0919 7.41224C89.0919 8.34201 88.861 9.23651 88.3994 10.0957C87.9441 10.9486 87.383 11.6379 86.7162 12.1637C86.0557 12.6959 85.4562 12.962 84.9176 12.962ZM86.3892 9.06658C86.6072 9.06658 86.8316 8.98964 87.0624 8.83574C87.2933 8.68185 87.4856 8.45743 87.6395 8.16247C87.7934 7.86751 87.8704 7.51484 87.8704 7.10446C87.8704 6.65561 87.771 6.2805 87.5722 5.97912C87.3798 5.67134 87.0721 5.51745 86.6488 5.51745C86.4116 5.51745 86.1679 5.5976 85.9179 5.7579C85.6742 5.91821 85.469 6.15867 85.3023 6.47927C85.1356 6.79347 85.0522 7.17179 85.0522 7.61423C85.0522 8.02461 85.1548 8.37086 85.36 8.653C85.5716 8.92872 85.9147 9.06658 86.3892 9.06658Z" fill="black"/>
<defs>
<linearGradient id="paint0_linear_126_895" x1="18.7734" y1="30.8639" x2="75.0243" y2="30.8639" gradientUnits="userSpaceOnUse">
<stop stop-color="#7C0000"/>
<stop offset="1"/>
</linearGradient>
<linearGradient id="paint1_linear_126_895" x1="18.7734" y1="30.8639" x2="75.0243" y2="30.8639" gradientUnits="userSpaceOnUse">
<stop stop-color="#7C0000"/>
<stop offset="1"/>
</linearGradient>
<linearGradient id="paint2_linear_126_895" x1="40.6888" y1="38.7868" x2="37.116" y2="30.4685" gradientUnits="userSpaceOnUse">
<stop stop-color="#7C0000"/>
<stop offset="1"/>
</linearGradient>
<linearGradient id="paint3_linear_126_895" x1="40.6888" y1="38.7868" x2="37.116" y2="30.4685" gradientUnits="userSpaceOnUse">
<stop stop-color="#7C0000"/>
<stop offset="1"/>
</linearGradient>
</defs>
</svg>
