<svg width="95" height="61" viewBox="0 0 95 61" fill="none" xmlns="http://www.w3.org/2000/svg">
<path d="M93.623 0.75V59.96H0.75V0.75H93.623Z" fill="#D9D9D9" stroke="black" stroke-width="1.5"/>
<path d="M79.1962 11.5C78.696 11.5 78.3305 11.4295 78.0997 11.2884C77.8689 11.1473 77.7534 10.9261 77.7534 10.6247C77.7534 10.426 77.824 10.1791 77.965 9.88413C78.1061 9.58276 78.337 9.14994 78.6576 8.58567C78.9333 8.11117 79.1545 7.71041 79.3212 7.38339C79.4943 7.05637 79.6418 6.72294 79.7637 6.38309C79.8855 6.03683 79.9464 5.72264 79.9464 5.4405C79.9464 5.28661 79.9208 5.11669 79.8695 4.93074C79.9913 4.87303 80.1067 4.83135 80.2157 4.8057C80.3247 4.78005 80.4369 4.76722 80.5524 4.76722C81.0717 4.76722 81.3314 5.08142 81.3314 5.70981C81.3314 6.2805 81.1006 6.9698 80.6389 7.77774C80.1837 8.57926 79.4879 9.51864 78.5518 10.5959H81.745L81.4661 11.3173C81.1711 11.3686 80.8088 11.4134 80.3792 11.4519C79.9496 11.484 79.5553 11.5 79.1962 11.5ZM82.0143 13.1351C81.7514 13.1351 81.5462 13.0485 81.3988 12.8754C81.2577 12.7087 81.1872 12.4682 81.1872 12.154C81.1872 11.8398 81.2769 11.3269 81.4565 10.6151C81.6424 9.90337 81.8925 9.08261 82.2067 8.15285C82.3157 8.06949 82.4407 8.00216 82.5818 7.95087C82.7229 7.89957 82.8543 7.87392 82.9762 7.87392C83.0852 7.87392 83.1621 7.89316 83.207 7.93163C83.2519 7.96369 83.2743 8.0214 83.2743 8.10476C83.2743 8.18812 83.2551 8.31636 83.2166 8.48949C83.1781 8.66262 83.1333 8.85178 83.082 9.05696C82.9409 9.58276 82.8255 10.0765 82.7357 10.5382C82.6523 10.9934 82.6107 11.4455 82.6107 11.8943C82.6107 12.3176 82.6876 12.6542 82.8415 12.9043C82.6748 12.9876 82.5305 13.0453 82.4087 13.0774C82.2868 13.1159 82.1554 13.1351 82.0143 13.1351ZM84.8592 10.5863C85.9621 9.8681 86.7893 9.20765 87.3407 8.60491C87.8986 7.99575 88.1775 7.42827 88.1775 6.90248C88.1775 6.48569 88.0813 6.1747 87.889 5.96951C87.703 5.76432 87.4209 5.66172 87.0426 5.66172C86.7989 5.66172 86.5745 5.73226 86.3693 5.87332C86.1705 6.00798 86.007 6.19393 85.8788 6.43118C85.7569 6.66843 85.6864 6.93774 85.6672 7.23912C85.4299 7.21347 85.2472 7.13331 85.1189 6.99866C84.9907 6.85759 84.9266 6.67805 84.9266 6.46004C84.9266 6.1266 85.0259 5.83164 85.2247 5.57516C85.4235 5.31867 85.7024 5.11989 86.0615 4.97883C86.427 4.83776 86.847 4.76722 87.3215 4.76722C87.7319 4.76722 88.0942 4.84417 88.4084 4.99806C88.7226 5.14554 88.9662 5.35714 89.1394 5.63287C89.3125 5.90859 89.399 6.22279 89.399 6.57546C89.399 7.01148 89.274 7.44751 89.0239 7.88354C88.7803 8.31957 88.3891 8.78765 87.8505 9.2878C87.3183 9.78795 86.6001 10.3554 85.696 10.9902L84.8592 10.5863ZM88.4084 11.7885C88.0429 11.7885 87.6742 11.7469 87.3023 11.6635C86.9304 11.5802 86.4238 11.4231 85.7826 11.1922L85.7537 11.1826C85.5678 11.375 85.3979 11.5096 85.244 11.5866C85.0965 11.6699 84.9362 11.7116 84.763 11.7116C84.5899 11.7116 84.4424 11.6539 84.3206 11.5385C84.2052 11.4231 84.1475 11.282 84.1475 11.1153C84.1475 10.8395 84.2597 10.6151 84.4841 10.442C84.7085 10.2689 84.9907 10.1823 85.3305 10.1823C85.4972 10.1823 85.6992 10.2112 85.9365 10.2689C86.1737 10.3202 86.4655 10.3971 86.8117 10.4997C87.2221 10.6151 87.5459 10.7017 87.7832 10.7594C88.0204 10.8107 88.2288 10.8363 88.4084 10.8363L89.4664 10.2592C89.5561 10.4003 89.6171 10.5189 89.6491 10.6151C89.6876 10.7113 89.7068 10.8043 89.7068 10.8941C89.7068 11.0608 89.6491 11.2147 89.5337 11.3557C89.4183 11.4904 89.2612 11.5962 89.0624 11.6731C88.8636 11.7501 88.6456 11.7885 88.4084 11.7885Z" fill="black"/>
<path d="M49.3763 15.4821H44.9971L46.3634 4.23879C46.4202 3.77361 46.8148 3.42358 47.2838 3.42358H47.3007C47.7758 3.42358 48.1742 3.78283 48.2226 4.25568L49.3763 15.4821Z" fill="white"/>
<path d="M55.6388 37.7959H38.7344V45.1213H55.6388V37.7959Z" fill="white"/>
<path d="M50.4701 16.3833C48.3246 15.76 46.0464 15.76 43.9016 16.3833C43.7965 16.0225 43.6921 15.6617 43.5869 15.301C45.9374 14.6178 48.4337 14.6178 50.7849 15.301C50.6797 15.6617 50.5753 16.0225 50.4701 16.3833Z" fill="white"/>
<path d="M43.1905 20.7074C42.6639 20.821 42.1412 20.9576 41.623 21.1173C41.623 19.6143 41.623 18.1121 41.623 16.6099C42.1404 16.4502 42.6639 16.3143 43.1905 16.2C43.1905 17.7022 43.1905 19.2044 43.1905 20.7074Z" fill="white"/>
<path d="M44.7804 20.434C44.2477 20.5023 43.7172 20.5937 43.1914 20.7073C43.1914 19.2043 43.1914 17.7021 43.1914 16.1991C43.718 16.0854 44.2484 15.9941 44.7804 15.9258C44.7804 17.4288 44.7804 18.931 44.7804 20.434Z" fill="white"/>
<path d="M46.3823 20.2975C45.8473 20.3205 45.3122 20.3658 44.7803 20.4341C44.7803 18.9311 44.7803 17.4289 44.7803 15.9267C45.313 15.8584 45.8473 15.8131 46.3823 15.79C46.3823 17.2923 46.3823 18.7945 46.3823 20.2975Z" fill="white"/>
<path d="M47.9904 20.2975C47.4546 20.2744 46.9188 20.2744 46.3838 20.2975C46.3838 18.7945 46.3838 17.2922 46.3838 15.7892C46.9196 15.7662 47.4554 15.7662 47.9904 15.7892C47.9904 17.2922 47.9904 18.7945 47.9904 20.2975Z" fill="white"/>
<path d="M49.592 20.4342C49.0593 20.3658 48.5251 20.3206 47.9893 20.2975C47.9893 18.7945 47.9893 17.2923 47.9893 15.7893C48.5243 15.8123 49.0593 15.8576 49.592 15.9259C49.592 17.4289 49.592 18.9312 49.592 20.4342Z" fill="white"/>
<path d="M51.1817 20.7072C50.6552 20.5936 50.1247 20.5023 49.5928 20.434C49.5928 18.931 49.5928 17.4287 49.5928 15.9265C50.1255 15.9948 50.6552 16.0854 51.1817 16.1998C51.1817 17.702 51.1817 19.2042 51.1817 20.7072Z" fill="white"/>
<path d="M52.7491 21.1166C52.2317 20.9569 51.7082 20.8211 51.1816 20.7067C51.1816 19.2037 51.1816 17.7015 51.1816 16.1985C51.7082 16.3121 52.231 16.4487 52.7491 16.6084C52.7491 18.1114 52.7491 19.6144 52.7491 21.1166Z" fill="white"/>
<path d="M60.1714 26.2249C60.1714 35.0056 60.1714 43.7012 60.1714 53.9489C60.1714 55.4051 59.3048 56.6525 58.0551 57.2282C57.6007 57.4377 57.0956 57.5552 56.5652 57.5552C51.1934 57.5552 45.8216 57.5552 40.449 57.5552C38.4571 57.5352 34.1998 55.3084 34.2021 53.3479C34.2144 53.2197 34.2267 53.0907 34.239 52.9625C34.3403 51.9193 34.4416 50.8746 34.5422 49.8276C35.3044 41.8919 36.0598 33.8297 36.8136 25.6776C36.812 23.6603 38.411 21.6683 40.4068 21.3973C45.0977 20.2689 49.8585 19.7677 54.5456 19.9741H54.5463C56.546 20.252 60.1753 24.2367 60.1714 26.2249Z" fill="white"/>
<path d="M58.0551 57.2283C57.6007 57.4378 57.0956 57.5553 56.5652 57.5553C51.1934 57.5553 45.8216 57.5553 40.449 57.5553C38.4571 57.5353 34.1998 55.3085 34.2021 53.348C34.2144 53.2198 34.2267 53.0908 34.239 52.9626C34.2144 52.7945 34.2021 52.6226 34.2021 52.4468C34.2021 51.531 34.2021 50.6152 34.2021 49.6995C34.3158 49.7424 34.4286 49.7847 34.5422 49.8277C37.9259 51.1111 41.3287 52.578 44.7262 54.0971C45.5468 54.722 46.3666 55.3514 47.1864 55.9809C50.0719 55.9809 52.9581 55.9916 55.8421 56.0131C56.5797 56.4223 57.3174 56.8276 58.0551 57.2283Z" fill="white"/>
<path d="M57.5615 24.1485C57.5531 33.551 57.5439 42.9544 57.5354 52.3569C57.5339 54.375 55.9181 56.0046 53.9261 56C48.5535 55.9693 43.1779 55.9755 37.8069 56.0184C35.9915 56.0269 34.4885 54.6943 34.239 52.9626C34.2144 52.7944 34.2021 52.6225 34.2021 52.4467C34.2021 43.2054 34.2021 33.964 34.2021 24.7227C34.2029 22.7437 35.7865 20.675 37.7677 20.282C43.1127 19.2396 48.5873 19.093 53.9683 19.8414C54.1648 19.869 54.3575 19.9128 54.5448 19.9726C56.2643 20.523 57.5631 22.33 57.5615 24.1485Z" fill="white"/>
<path d="M49.344 16.7493H45.2158L46.5039 6.15056C46.5574 5.71205 46.9293 5.38208 47.3715 5.38208H47.3874C47.8353 5.38208 48.2109 5.72073 48.2564 6.16648L49.344 16.7493Z" fill="#526EC5"/>
<path d="M55.2479 37.7842H39.3125V44.6896H55.2479V37.7842Z" fill="white"/>
<path d="M50.3754 17.5988C48.3529 17.0112 46.2052 17.0112 44.1834 17.5988C44.0843 17.2587 43.9859 16.9186 43.8867 16.5785C46.1024 15.9345 48.4556 15.9345 50.6721 16.5785C50.5729 16.9186 50.4745 17.2587 50.3754 17.5988Z" fill="#708FCC"/>
<path d="M43.5137 21.6751C43.0173 21.7822 42.5246 21.911 42.0361 22.0615C42.0361 20.6447 42.0361 19.2285 42.0361 17.8124C42.5238 17.6619 43.0173 17.5338 43.5137 17.426C43.5137 18.8421 43.5137 20.2582 43.5137 21.6751Z" fill="#D70703"/>
<path d="M45.0116 21.4173C44.5094 21.4817 44.0093 21.5678 43.5137 21.6749C43.5137 20.258 43.5137 18.8419 43.5137 17.4251C44.0101 17.318 44.5101 17.2319 45.0116 17.1675C45.0116 18.5843 45.0116 20.0004 45.0116 21.4173Z" fill="#E71712"/>
<path d="M46.5229 21.2886C46.0185 21.3103 45.5142 21.353 45.0127 21.4174C45.0127 20.0006 45.0127 18.5845 45.0127 17.1683C45.5149 17.1039 46.0185 17.0613 46.5229 17.0396C46.5229 18.4557 46.5229 19.8718 46.5229 21.2886Z" fill="#D70703"/>
<path d="M48.037 21.2885C47.5319 21.2668 47.0268 21.2668 46.5225 21.2885C46.5225 19.8717 46.5225 18.4556 46.5225 17.0387C47.0275 17.017 47.5326 17.017 48.037 17.0387C48.037 18.4556 48.037 19.8717 48.037 21.2885Z" fill="#E71712"/>
<path d="M49.548 21.4174C49.0458 21.353 48.5422 21.3103 48.0371 21.2886C48.0371 19.8718 48.0371 18.4557 48.0371 17.0388C48.5415 17.0605 49.0458 17.1032 49.548 17.1676C49.548 18.5845 49.548 20.0006 49.548 21.4174Z" fill="#D70703"/>
<path d="M51.0457 21.6749C50.5493 21.5678 50.0493 21.4817 49.5479 21.4173C49.5479 20.0004 49.5479 18.5843 49.5479 17.1682C50.05 17.2326 50.5493 17.318 51.0457 17.4258C51.0457 18.8419 51.0457 20.258 51.0457 21.6749Z" fill="#E71712"/>
<path d="M52.5235 22.0608C52.0358 21.9102 51.5423 21.7822 51.0459 21.6744C51.0459 20.2575 51.0459 18.8414 51.0459 17.4246C51.5423 17.5317 52.0351 17.6605 52.5235 17.811C52.5235 19.2278 52.5235 20.6446 52.5235 22.0608Z" fill="#D70703"/>
<path d="M59.5206 26.8764C59.5206 35.1538 59.5206 43.3509 59.5206 53.0112C59.5206 54.3839 58.7037 55.5598 57.5256 56.1025C57.0973 56.3 56.6211 56.4107 56.1211 56.4107C51.0572 56.4107 45.9934 56.4107 40.9288 56.4107C39.051 56.3919 35.0379 54.2927 35.04 52.4446C35.0516 52.3237 35.0632 52.2022 35.0748 52.0813C35.1703 51.0979 35.2658 50.1131 35.3606 49.1261C36.0791 41.6454 36.7912 34.0452 37.5018 26.3605C37.5003 24.4588 39.0076 22.581 40.889 22.3256C45.311 21.2619 49.7989 20.7893 54.2173 20.984H54.218C56.103 21.2459 59.5243 25.0022 59.5206 26.8764Z" fill="#526EC5"/>
<path d="M57.5256 56.1023C57.0973 56.2999 56.6211 56.4106 56.1211 56.4106C51.0572 56.4106 45.9934 56.4106 40.9288 56.4106C39.051 56.3918 35.0379 54.2926 35.04 52.4445C35.0516 52.3236 35.0632 52.2021 35.0748 52.0812C35.0516 51.9227 35.04 51.7607 35.04 51.595C35.04 50.7317 35.04 49.8684 35.04 49.0051C35.1471 49.0456 35.2535 49.0855 35.3606 49.126C38.5503 50.3359 41.7581 51.7187 44.9608 53.1507C45.7343 53.7397 46.5072 54.3331 47.28 54.9265C50 54.9265 52.7208 54.9366 55.4395 54.9569C56.1348 55.3425 56.8302 55.7246 57.5256 56.1023Z" fill="#526EC5"/>
<path d="M57.0604 24.9189C57.0524 33.7824 57.0437 42.6467 57.0358 51.5103C57.0343 53.4126 55.5111 54.9489 53.6333 54.9445C48.5687 54.9156 43.5013 54.9214 38.4381 54.9619C36.7268 54.9699 35.31 53.7137 35.0748 52.0812C35.0516 51.9227 35.04 51.7606 35.04 51.5949C35.04 42.8833 35.04 34.1717 35.04 25.4601C35.0408 23.5947 36.5336 21.6445 38.4012 21.274C43.4398 20.2914 48.6006 20.1532 53.6731 20.8587C53.8584 20.8847 54.04 20.926 54.2166 20.9824C55.8374 21.5012 57.0618 23.2046 57.0604 24.9189Z" fill="#708FCC"/>
<path d="M37.2314 25.911C37.2314 25.7952 37.6707 25.5941 37.9203 25.5702C41.0529 25.3495 44.2758 25.2373 47.4836 25.2373C49.7833 25.2373 52.1032 25.2952 54.3804 25.4095C54.5519 25.4305 54.8681 25.5825 54.8681 25.6816L54.8399 36.8803C52.4331 36.873 49.9548 36.8701 47.4785 36.8701C44.0616 36.8701 40.6462 36.8752 37.2322 36.8846L37.2314 25.911Z" fill="#92B6C4"/>
<path d="M36.8877 37.2297V25.9109C36.8877 25.4333 37.7575 25.2401 37.8885 25.2271C43.304 24.8458 48.9352 24.79 54.3992 25.0657C54.5548 25.0838 55.2132 25.2568 55.2132 25.6823L55.1843 37.2261L54.8391 37.2246C52.4331 37.2174 49.9547 37.2145 47.4785 37.2145C44.0616 37.2145 40.6469 37.2196 37.2321 37.229L36.8877 37.2297ZM37.5759 26.0448V36.5401C43.2331 36.5242 48.9829 36.5206 54.4969 36.535L54.5236 25.8183C54.465 25.7879 54.3847 25.7568 54.3384 25.751C48.9641 25.484 43.3185 25.5354 37.9449 25.9138C37.8436 25.9225 37.6735 25.9898 37.5759 26.0448Z" fill="white"/>
</svg>
