<svg width="95" height="61" viewBox="0 0 95 61" fill="none" xmlns="http://www.w3.org/2000/svg">
<path d="M93.623 0.75V59.96H0.75V0.75H93.623Z" fill="#D9D9D9" stroke="black" stroke-width="1.5"/>
<path d="M30.447 51.4556C28.4499 51.2378 26.5096 50.5369 24.8818 49.3178C20.9662 46.3711 18.9729 42.245 18.8187 38.2889C18.62 33.2815 21.3636 28.5693 26.8039 26.8273C36.6192 22.8963 44.5425 18.7405 52.9702 14.2399C57.6225 10.3429 59.065 10.8238 59.065 10.8238C67.9651 8.44721 79.0144 20.3602 73.6494 29.6291C73.3608 30.1364 73.1849 30.6395 72.8312 31.1503C72.8276 31.1534 72.8276 31.1534 72.824 31.1564C66.9167 42.6137 45.7565 53.6747 30.447 51.4556Z" fill="white"/>
<path d="M31.7475 50.0241C29.926 49.8301 28.1578 49.1937 26.6759 48.0823C23.1115 45.3958 21.3041 41.6248 21.1738 38.0044C21.0059 33.4219 23.5214 29.1019 28.4893 27.4931C37.1097 25.2094 45.2114 21.7507 52.6225 16.6249C56.5428 13.1049 57.8462 12.9686 57.8462 12.9686C65.9722 10.7697 76.2727 21.4281 71.3536 29.9256C71.0889 30.3907 70.7929 30.8588 70.4689 31.3273C70.4656 31.3301 70.4656 31.3301 70.4623 31.3329C63.8226 40.9873 45.5506 51.4811 31.7475 50.0241Z" fill="#FAA530"/>
<path d="M31.7475 50.0241C29.926 49.8301 28.1578 49.1937 26.6759 48.0823C23.1115 45.3958 21.3041 41.6248 21.1738 38.0044C21.1738 38.0044 23.2022 31.9633 28.1555 30.004C33.0715 28.0627 40.4562 27.9584 49.7954 21.0373C49.7954 21.0373 51.8362 19.9695 53.8963 17.7078C55.9511 15.4595 60.3551 12.1291 65.8334 16.8158C71.2983 21.4955 53.6314 27.3993 53.6314 27.3993C53.6314 27.3993 34.8902 36.4645 34.5391 36.7509C34.1841 37.0405 30.1725 41.4367 30.1725 41.4367C30.1725 41.4367 26.5567 46.7979 36.535 47.9932C46.404 49.172 61.4377 41.0117 70.4623 31.3329C63.8226 40.9873 45.5506 51.4811 31.7475 50.0241Z" fill="#EF6F2E"/>
<path d="M34.4909 46.6558C22.7982 47.4503 20.8738 32.8958 31.314 30.4192C39.6387 28.5569 47.6594 26.0307 54.3896 19.4556C54.6305 19.2187 54.8577 18.9579 55.0752 18.6993C58.3767 14.8462 62.7935 14.7896 65.8281 16.8091C65.8309 16.8126 65.8306 16.8123 65.8334 16.8158C69.4518 19.2343 71.1376 24.633 66.5681 30.1971C56.4012 40.8113 43.8105 45.5673 34.4909 46.6558Z" fill="#EF1624"/>
<path d="M28.1985 45.8273C27.8602 45.6275 27.5372 45.4065 27.2301 45.1641C25.5269 43.8205 24.4085 41.8908 24.0809 39.7305C23.5086 35.9566 25.4915 31.2781 31.1976 29.9242C40.3441 27.8768 47.7242 25.252 54.0327 19.0918C54.2646 18.8654 54.481 18.6126 54.6904 18.3681C58.4833 13.9384 63.6724 14.3087 66.8379 16.9638C68.5986 18.4406 69.6548 20.5093 69.8118 22.7886C69.9893 25.3636 69.0044 28.0376 66.9636 30.5215C66.9554 30.5315 66.9468 30.5412 66.9379 30.5505C62.1914 35.5048 56.6372 39.5113 50.4296 42.4587C43.855 45.5803 38.1651 46.7378 34.5496 47.1592C34.5415 47.1601 34.5334 47.1609 34.5252 47.1614C32.1195 47.3254 29.9568 46.8659 28.1985 45.8273ZM65.1946 17.0464C62.4009 15.3961 58.454 15.5405 55.465 19.0314C55.2515 19.2807 55.0097 19.5632 54.7451 19.8215C48.2647 26.1495 40.7365 28.834 31.4267 30.9179C26.3547 32.1213 24.5846 36.2508 25.0891 39.5777C25.627 43.1245 28.7283 46.529 34.4438 46.1449C45.8193 44.8157 57.6844 38.7284 66.188 29.8592C70.2512 24.9019 69.1142 20.2041 66.1826 17.7451C65.8741 17.4864 65.5431 17.2522 65.1946 17.0464Z" fill="#4C0016"/>
<path d="M27.2877 49.1016C26.9703 48.9141 26.6647 48.71 26.3723 48.4898C22.1455 45.3075 20.0146 40.3772 20.8111 35.6229C21.1384 33.6691 21.9624 31.8623 23.194 30.3981C24.5179 28.8241 26.2469 27.6832 28.333 27.0072C28.3418 27.0043 28.3508 27.0017 28.3597 26.9993C37.4748 24.5865 45.3082 21.0613 52.3051 16.2236C55.924 12.9808 57.3829 12.5313 57.74 12.4698C59.8977 11.8933 62.2855 12.1403 64.6479 13.1848C66.8436 14.1557 68.8922 15.7823 70.4158 17.7652C73.475 21.7463 73.9898 26.388 71.7931 30.1815C68.893 35.2327 62.6392 40.6805 55.065 44.7527C51.2299 46.8147 47.1843 48.432 43.3658 49.4299C39.1467 50.5325 35.2208 50.903 31.6969 50.5314C30.0976 50.3627 28.5934 49.8728 27.2877 49.1016ZM26.9856 47.6752C28.3336 48.6899 29.9996 49.327 31.8039 49.5173C38.3099 50.2035 46.6122 48.1395 54.5821 43.8546C61.9957 39.8687 68.0995 34.5669 70.9096 29.6721C72.8931 26.2469 72.4059 22.0286 69.6073 18.3864C66.5836 14.4515 61.8017 12.4264 57.9782 13.4617C57.9426 13.4713 57.9389 13.4749 57.908 13.4763C57.7787 13.5077 56.4262 13.8964 52.962 17.0041C52.9461 17.0184 52.9293 17.0316 52.9117 17.0438C45.8127 21.9571 37.8713 25.5349 28.6343 27.9815C24.931 29.1863 22.4466 32.0322 21.8168 35.7914C21.0834 40.169 23.064 44.7226 26.9856 47.6752Z" fill="#4C0016"/>
<path d="M50.5501 44.0262C44.7319 46.5171 40.1731 47.726 36.535 47.9932C29.6909 48.4999 26.2025 45.678 23.665 41.9398C26.0451 44.7247 27.7527 42.7932 30.1689 41.4398C30.1725 41.4369 30.1725 41.4367 30.1725 41.4367C31.0248 40.9627 31.9663 40.5595 33.0574 40.4593C41.9617 40.0919 50.3711 37.8235 57.8452 31.6799C62.2805 28.1882 63.2815 24.7716 67.0818 23.4006C70.6791 22.1051 70.2221 20.0088 70.1734 19.8106C73.4237 27.9081 65.6122 35.9165 50.5501 44.0262Z" fill="#FAA530"/>
<path d="M32.6495 42.1565C32.6495 42.1565 35.2335 42.2152 41.4177 40.7488C47.5414 39.2967 50.5864 39.1635 59.4557 31.9418C59.4557 31.9418 62.646 28.7366 63.9816 27.2237C56.2832 38.523 45.9976 43.9756 32.6495 42.1565Z" fill="white"/>
<path d="M36.535 47.9932C29.6909 48.4999 26.2025 45.678 23.665 41.9398C26.0451 44.7247 27.7527 42.7932 30.1689 41.4398C30.0508 41.6266 26.7358 46.8206 36.535 47.9932Z" fill="#EF6F2E"/>
<path d="M70.4732 19.7019C70.7165 20.5162 70.4454 21.405 69.9349 22.0566L69.7858 22.2482C69.7031 22.3357 69.5357 22.5046 69.4513 22.59C69.1557 22.8469 68.8401 23.0723 68.5067 23.2746C68.3374 23.3612 68.057 23.5165 67.8972 23.5904C67.5342 23.7447 67.0745 23.9399 66.7122 24.094L66.6193 24.1332L66.5303 24.1805C66.38 24.2636 66.1356 24.3868 65.9998 24.4685C65.9049 24.5309 65.5941 24.7298 65.4915 24.7959L65.1691 25.0419C63.6023 26.2759 62.4964 27.906 61.1165 29.36C59.5437 31.0796 57.7042 32.5424 55.8028 33.8809C49.3739 38.4061 41.5366 40.6372 33.7297 40.9413L33.3 40.9628L33.0858 40.9739L32.8989 40.9972C31.8218 41.1278 30.8506 41.599 29.9125 42.1484C28.4138 43.0268 26.5517 44.4589 24.7927 43.37C24.2365 43.0443 23.8069 42.6003 23.4407 42.1331L23.8896 41.7493C24.2679 42.1493 24.6807 42.5134 25.1357 42.7353C27.3946 43.9142 29.4694 40.112 33.2311 39.931C42.4701 39.5073 50.7569 36.9999 57.8916 30.9529C58.762 30.2389 59.5676 29.4646 60.3329 28.6348C61.4933 27.3906 62.5732 25.9743 63.8469 24.8031L64.188 24.5089C64.2456 24.4605 64.3003 24.4095 64.3602 24.3635C64.5254 24.2397 64.7504 24.0709 64.9057 23.9552C65.0969 23.8381 65.4759 23.5804 65.6868 23.4825L66.0944 23.2754L66.1966 23.2244C66.5368 23.0868 66.9723 22.9128 67.3153 22.7843C68.2532 22.4188 69.2499 21.8442 69.6927 20.9183C69.8279 20.6077 69.908 20.257 69.8661 19.9178L69.8638 19.8983L69.8633 19.8895L70.4732 19.7019Z" fill="#4C0016"/>
<path d="M57.9495 25.0649C56.2048 23.3056 53.4725 21.6785 53.2779 21.7141C53.0705 21.7521 55.2419 23.8343 56.8192 25.7274C58.1296 27.3002 58.7913 28.759 59.5235 28.6549C60.3099 28.5432 59.6084 26.7377 57.9495 25.0649Z" fill="url(#paint0_linear_126_1897)" fill-opacity="0.5"/>
<path d="M46.489 31.9687C44.7444 30.2095 42.0121 28.5824 41.8174 28.618C41.61 28.6559 43.7815 30.7382 45.3587 32.6312C46.6692 34.2041 47.3309 35.6629 48.0631 35.5588C48.8495 35.4471 48.148 33.6416 46.489 31.9687Z" fill="url(#paint1_linear_126_1897)" fill-opacity="0.5"/>
<path d="M51.3575 27.5338C52.8799 29.4886 54.1453 32.4061 54.0851 32.5946C54.021 32.7955 52.2327 30.3762 50.5562 28.5704C49.1633 27.07 47.8009 26.2277 47.9975 25.5147C48.2086 24.749 49.9098 25.6751 51.3575 27.5338Z" fill="url(#paint2_linear_126_1897)" fill-opacity="0.5"/>
<path d="M39.3074 33.4217C40.8298 35.3765 42.0952 38.294 42.0351 38.4825C41.971 38.6833 40.1826 36.2641 38.5062 34.4583C37.1133 32.9579 35.7508 32.1156 35.9474 31.4026C36.1585 30.6369 37.8598 31.5629 39.3074 33.4217Z" fill="url(#paint3_linear_126_1897)" fill-opacity="0.5"/>
<path d="M80.0897 11.7405C79.3972 11.7405 78.8393 11.516 78.4161 11.0672C77.9993 10.6119 77.7909 9.95467 77.7909 9.09544C77.7909 8.16567 78.0186 7.27438 78.4738 6.42156C78.9355 5.56233 79.4966 4.86982 80.157 4.34402C80.8239 3.81181 81.4266 3.54571 81.9652 3.54571C82.1833 3.54571 82.3532 3.58739 82.475 3.67074C82.6033 3.74769 82.7123 3.89196 82.802 4.10357C82.3339 4.27669 81.8883 4.4915 81.4651 4.74799C81.0483 5.00447 80.6315 5.36997 80.2147 5.84447C79.8043 6.31897 79.4517 6.92171 79.1567 7.6527H79.2144C79.4837 7.29362 79.7691 7.04354 80.0705 6.90248C80.3718 6.755 80.6924 6.68126 81.0323 6.68126C81.4555 6.68126 81.8178 6.77744 82.1191 6.9698C82.4269 7.16217 82.6578 7.42507 82.8117 7.7585C82.972 8.09193 83.0521 8.47346 83.0521 8.90307C83.0521 9.42887 82.9143 9.90978 82.6385 10.3458C82.3692 10.7818 82.0069 11.1249 81.5517 11.375C81.0964 11.6186 80.6091 11.7405 80.0897 11.7405ZM80.234 10.9902C80.4712 10.9902 80.7117 10.9101 80.9553 10.7498C81.199 10.5895 81.4042 10.3522 81.5709 10.038C81.7376 9.71742 81.821 9.33589 81.821 8.89345C81.821 8.48308 81.7184 8.14002 81.5132 7.8643C81.308 7.58217 80.9682 7.4411 80.4937 7.4411C80.2756 7.4411 80.0512 7.51804 79.8204 7.67194C79.5895 7.82583 79.3972 8.05025 79.2433 8.34521C79.0894 8.64017 79.0124 8.99284 79.0124 9.40322C79.0124 9.85207 79.1086 10.2304 79.301 10.5382C79.4934 10.8395 79.8043 10.9902 80.234 10.9902ZM85.5825 12.9908C85.0374 12.9908 84.6367 12.9171 84.3802 12.7696C84.1237 12.6221 83.9955 12.3977 83.9955 12.0963C83.9955 11.9168 84.0724 11.7661 84.2263 11.6443C84.3866 11.5224 84.5758 11.4615 84.7938 11.4615C84.9861 11.4615 85.1721 11.5321 85.3516 11.6731C85.5376 11.8142 85.6915 12.0034 85.8133 12.2406C86.1852 12.2406 86.5251 12.1669 86.8328 12.0194C87.147 11.8719 87.3939 11.6731 87.5734 11.4231C87.7594 11.1666 87.8524 10.8908 87.8524 10.5959C87.8524 10.3522 87.7882 10.115 87.66 9.88413C87.5382 9.6533 87.3426 9.46414 87.0733 9.31666C86.804 9.16277 86.4673 9.08582 86.0634 9.08582C85.8967 9.08582 85.7011 9.10826 85.4767 9.15315C85.3869 9.17238 85.3228 9.182 85.2843 9.182C85.2266 9.182 85.1785 9.15956 85.14 9.11467C85.1015 9.06979 85.0823 9.01849 85.0823 8.96078L85.6594 5.61363L86.6886 5.95989L86.2846 8.39331C86.8232 8.39331 87.3041 8.48308 87.7273 8.66262C88.1569 8.84216 88.4904 9.09223 88.7276 9.41284C88.9713 9.73345 89.0931 10.0957 89.0931 10.4997C89.0931 10.9742 88.9392 11.4006 88.6314 11.7789C88.3301 12.1572 87.9101 12.4522 87.3715 12.6638C86.8392 12.8818 86.2429 12.9908 85.5825 12.9908ZM87.458 6.24844C86.6757 6.24844 86.0986 6.1747 85.7267 6.02722C85.3548 5.87974 85.1689 5.65531 85.1689 5.35394C85.1689 5.16157 85.2202 5.0173 85.3228 4.92112C85.4318 4.81852 85.5921 4.76722 85.8037 4.76722C85.9832 4.76722 86.1467 4.82814 86.2942 4.94997C86.4481 5.0718 86.5731 5.23211 86.6693 5.43088C87.0284 5.41165 87.4324 5.33791 87.8812 5.20966C88.3365 5.07501 88.7789 4.90829 89.2085 4.70952C89.2534 4.77364 89.2855 4.8602 89.3047 4.96921C89.3304 5.0718 89.3432 5.18081 89.3432 5.29623C89.3432 5.52065 89.2598 5.7034 89.0931 5.84447C88.9328 5.98554 88.7116 6.08813 88.4295 6.15225C88.1537 6.21637 87.8299 6.24844 87.458 6.24844Z" fill="black"/>
<defs>
<linearGradient id="paint0_linear_126_1897" x1="18.8086" y1="31.1293" x2="75.0595" y2="31.1293" gradientUnits="userSpaceOnUse">
<stop stop-color="#7C0000"/>
<stop offset="1"/>
</linearGradient>
<linearGradient id="paint1_linear_126_1897" x1="18.8086" y1="31.1293" x2="75.0595" y2="31.1293" gradientUnits="userSpaceOnUse">
<stop stop-color="#7C0000"/>
<stop offset="1"/>
</linearGradient>
<linearGradient id="paint2_linear_126_1897" x1="40.7249" y1="39.0522" x2="37.1522" y2="30.7339" gradientUnits="userSpaceOnUse">
<stop stop-color="#7C0000"/>
<stop offset="1"/>
</linearGradient>
<linearGradient id="paint3_linear_126_1897" x1="40.7249" y1="39.0522" x2="37.1522" y2="30.7339" gradientUnits="userSpaceOnUse">
<stop stop-color="#7C0000"/>
<stop offset="1"/>
</linearGradient>
</defs>
</svg>
