<svg width="95" height="61" viewBox="0 0 95 61" fill="none" xmlns="http://www.w3.org/2000/svg">
<path d="M93.623 0.75V59.96H0.75V0.75H93.623Z" fill="#3BA15C" stroke="black" stroke-width="1.5"/>
<path d="M81.7935 11.7405C81.5691 11.7405 81.3992 11.6571 81.2837 11.4904C81.1683 11.3173 81.1106 11.0672 81.1106 10.7402C81.1106 10.2079 81.1619 9.6052 81.2645 8.93193C81.3671 8.25224 81.5338 7.41224 81.7647 6.41195C81.4376 6.41195 81.1683 6.34782 80.9567 6.21958C80.7515 6.09134 80.6265 5.9118 80.5816 5.68096C80.8894 5.59119 81.1523 5.49821 81.3703 5.40203C81.5947 5.30585 81.8384 5.18722 82.1013 5.04615C82.2873 4.94356 82.4347 4.87303 82.5437 4.83455C82.6527 4.78967 82.7585 4.76722 82.8611 4.76722C83.1176 4.76722 83.2459 4.9147 83.2459 5.20966C83.2459 5.30585 83.2202 5.48218 83.1689 5.73867C83.1176 5.98874 83.0567 6.26126 82.9862 6.55622C82.7874 7.40904 82.6271 8.15926 82.5053 8.80689C82.3898 9.45452 82.3321 10.0637 82.3321 10.6344C82.3321 10.9806 82.3866 11.282 82.4956 11.5385C82.2456 11.6731 82.0115 11.7405 81.7935 11.7405ZM85.8701 12.9908C85.3251 12.9908 84.9244 12.9171 84.6679 12.7696C84.4114 12.6221 84.2831 12.3977 84.2831 12.0963C84.2831 11.9168 84.3601 11.7661 84.514 11.6443C84.6743 11.5224 84.8634 11.4615 85.0815 11.4615C85.2738 11.4615 85.4598 11.5321 85.6393 11.6731C85.8253 11.8142 85.9792 12.0034 86.101 12.2406C86.4729 12.2406 86.8127 12.1669 87.1205 12.0194C87.4347 11.8719 87.6816 11.6731 87.8611 11.4231C88.0471 11.1666 88.1401 10.8908 88.1401 10.5959C88.1401 10.3522 88.0759 10.115 87.9477 9.88413C87.8259 9.6533 87.6303 9.46414 87.361 9.31666C87.0917 9.16277 86.755 9.08582 86.3511 9.08582C86.1843 9.08582 85.9888 9.10826 85.7643 9.15315C85.6746 9.17238 85.6105 9.182 85.572 9.182C85.5143 9.182 85.4662 9.15956 85.4277 9.11467C85.3892 9.06979 85.37 9.01849 85.37 8.96078L85.9471 5.61363L86.9762 5.95989L86.5723 8.39331C87.1109 8.39331 87.5918 8.48308 88.015 8.66262C88.4446 8.84216 88.7781 9.09223 89.0153 9.41284C89.259 9.73345 89.3808 10.0957 89.3808 10.4997C89.3808 10.9742 89.2269 11.4006 88.9191 11.7789C88.6178 12.1572 88.1978 12.4522 87.6591 12.6638C87.1269 12.8818 86.5306 12.9908 85.8701 12.9908ZM87.7457 6.24844C86.9634 6.24844 86.3863 6.1747 86.0144 6.02722C85.6425 5.87974 85.4566 5.65531 85.4566 5.35394C85.4566 5.16157 85.5079 5.0173 85.6105 4.92112C85.7195 4.81852 85.8798 4.76722 86.0914 4.76722C86.2709 4.76722 86.4344 4.82814 86.5819 4.94997C86.7358 5.0718 86.8608 5.23211 86.957 5.43088C87.3161 5.41165 87.7201 5.33791 88.1689 5.20966C88.6242 5.07501 89.0666 4.90829 89.4962 4.70952C89.5411 4.77364 89.5732 4.8602 89.5924 4.96921C89.6181 5.0718 89.6309 5.18081 89.6309 5.29623C89.6309 5.52065 89.5475 5.7034 89.3808 5.84447C89.2205 5.98554 88.9993 6.08813 88.7172 6.15225C88.4414 6.21637 88.1176 6.24844 87.7457 6.24844Z" fill="black"/>
</svg>
