<svg width="95" height="61" viewBox="0 0 95 61" fill="none" xmlns="http://www.w3.org/2000/svg">
<path d="M93.623 0.75V59.96H0.75V0.75H93.623Z" fill="#ECF7F9" stroke="black" stroke-width="1.5"/>
<path d="M92.8734 52.9466C92.8734 56.5052 92.8654 59.2242 92.8654 59.2242H1.50005V52.9466V42.497C1.50005 38.9385 1.5 36.0493 1.5 36.0493H92.8734C92.8734 36.0493 92.8734 38.9385 92.8734 42.497V52.9466Z" fill="#3F2826"/>
<path d="M70.9405 42.037C70.9405 44.7563 60.6289 46.9577 47.9086 46.9577C35.1883 46.9577 24.876 44.7563 24.876 42.037C24.876 39.3213 35.1883 37.1213 47.9086 37.1213C60.6289 37.1213 70.9405 39.3213 70.9405 42.037Z" fill="#160E0D"/>
<path d="M53.0942 42.8468L50.8097 42.5002L51.4532 39.037L48.7383 37.6712L49.1124 40.8274L42.2553 41.5533L41.5836 35.898L44.5774 35.5817L41.3901 33.979L41.3554 33.9812L41.3525 33.9603L39.1569 32.8559L41.1199 32.0065L40.6837 28.326L40.9033 28.3036L36.6066 25.1762L36.7994 26.7991L29.9417 27.525L29.27 21.8698L36.1277 21.1439L36.2635 22.285L42.2091 19.4748L41.827 18.6009L39.5584 18.8399L38.8867 13.1847L42.061 12.8488L43.044 12.1295L42.1723 10.898L38.66 11.2693L37.989 5.61548L40.4966 5.34969L41.861 2.44263L24.7061 4.25837L28.8669 39.3121C29.7279 40.0438 30.6365 40.7328 31.5855 41.3792L31.0676 37.0125L37.9254 36.2844L38.5971 41.939L33.3305 42.4965C35.6373 43.8681 38.1587 44.9934 40.8375 45.8348L53.2921 44.5167L53.0942 42.8468ZM27.473 6.72774L34.3315 6.00116L35.0025 11.6564L28.1454 12.3823L27.473 6.72774ZM28.3722 14.2991L35.23 13.5725L35.9017 19.2278L29.0446 19.9543L28.3722 14.2991ZM30.8409 35.0956L30.1699 29.4411L37.0269 28.7153L37.6979 34.3698L30.8409 35.0956Z" fill="#B09373"/>
<path d="M34.3312 6.00122L27.4727 6.72779L28.1444 12.383L35.0014 11.6572L34.3312 6.00122Z" fill="#85675D"/>
<path d="M40.4959 5.34961L37.9883 5.61541L38.6593 11.2692L42.1716 10.8987L39.5982 7.26503L40.4959 5.34961Z" fill="#85675D"/>
<path d="M35.2281 13.5725L28.3711 14.2991L29.0428 19.9543L35.8998 19.2277L35.2281 13.5725Z" fill="#85675D"/>
<path d="M42.0593 12.8496L38.8857 13.1855L39.5574 18.8407L41.826 18.6016L39.9778 14.3743L42.0593 12.8496Z" fill="#85675D"/>
<path d="M36.2641 22.2849L36.1283 21.1438L29.2705 21.8697L29.9422 27.5249L36.7993 26.799L36.6064 25.1761L34.0648 23.3243L36.2641 22.2849Z" fill="#85675D"/>
<path d="M30.1689 29.4412L30.8399 35.0957L37.697 34.3698L37.026 28.7153L30.1689 29.4412Z" fill="#85675D"/>
<path d="M39.5859 35.4221L39.617 35.4199L39.583 35.4033L39.5859 35.4221Z" fill="#85675D"/>
<path d="M40.9034 28.3035L40.6846 28.3266L41.1208 32.0064L44.1745 30.6862L40.9034 28.3035Z" fill="#85675D"/>
<path d="M37.9252 36.2844L31.0674 37.0125L31.5852 41.3792C32.1544 41.7678 32.7329 42.1419 33.3302 42.4972L38.5969 41.9397L37.9252 36.2844Z" fill="#85675D"/>
<path d="M41.582 35.8981L42.2537 41.5534L49.1101 40.8275L48.7367 37.6713L44.5758 35.5825L41.582 35.8981Z" fill="#85675D"/>
<path d="M39.5983 7.26504L42.1717 10.8987L43.0435 12.1301L42.0598 12.8495L39.9783 14.3742L41.8265 18.6015L42.2086 19.4754L36.2637 22.285L34.0645 23.3243L36.6061 25.1761L40.9027 28.3035L44.1738 30.6862L41.1201 32.0065L39.1563 32.8559L41.352 33.9602L41.3895 33.9797L44.5768 35.5824L48.7377 37.6711L51.4519 39.0369L51.4751 38.9163L44.0987 34.4289L43.4646 34.07L48.3268 29.9791L40.1126 23.3243L44.2952 19.4603L41.9435 14.8068L44.527 12.1337L41.4285 7.5525L41.8872 2.3855L41.8604 2.44256L40.4961 5.34962L39.5983 7.26504Z" fill="#4F3330"/>
<path d="M62.2143 13.355L62.4353 13.3984L59.3491 15.3564L63.5461 17.6503L63.5974 17.3816L69.8846 18.574L68.8157 24.2105L62.5278 23.0173L63.484 17.9782L59.5918 20.1825L59.1744 22.3817L56.5771 21.8899L55.3349 22.5926L56.7743 23.9042L58.8118 24.2914L58.5742 25.5445L58.9447 25.8825L58.4752 26.0703L57.7436 29.9271L51.4556 28.7347L51.5329 28.3273L48.2965 29.3645L48.5219 28.1778L48.7313 27.0742L51.9778 25.9872L52.526 23.0989L52.5867 23.1105L51.4578 22.4366L53.4144 21.2904L52.8879 21.19L53.9568 15.5536L56.8205 16.0967L56.484 15.9696L59.5716 12.8567L51.712 11.3652L47.2456 34.9106L47.1062 35.6473L46.5256 38.7097L46.5032 38.8317L45.8438 42.3065L47.9563 42.7081L60.5163 45.0901C63.5729 43.8615 66.3723 42.1917 68.8309 40.1744L73.511 15.5001L62.2143 13.355ZM56.3128 37.4717L50.0256 36.2793L51.0938 30.6428L57.3817 31.8353L56.3128 37.4717ZM65.9541 39.3005L59.6662 38.1081L60.7351 32.4709L67.0223 33.664L65.9541 39.3005ZM67.3849 31.7551L61.097 30.5627L62.1659 24.927L68.4538 26.1187L67.3849 31.7551Z" fill="#B09373"/>
<path d="M59.1753 22.3804L59.5921 20.1812L56.5781 21.8893L59.1753 22.3804Z" fill="#85675D"/>
<path d="M60.129 17.3506L56.8204 16.0954L53.9566 15.5522L52.8877 21.1887L53.4142 21.2891L60.129 17.3506Z" fill="#85675D"/>
<path d="M63.4846 17.9775L62.5283 23.0166L68.8162 24.2098L69.8845 18.574L63.5972 17.3809L63.546 17.6503L63.8089 17.794L63.4846 17.9775Z" fill="#85675D"/>
<path d="M58.8129 24.2907L56.7754 23.9036L58.5752 25.5438L58.8129 24.2907Z" fill="#85675D"/>
<path d="M52.5864 23.109L52.5257 23.0974L51.9775 25.9857L55.4552 24.8214L52.5864 23.109Z" fill="#85675D"/>
<path d="M51.5336 28.3259L51.457 28.7333L57.7442 29.9257L58.4766 26.0696L58.0844 26.2242L51.5336 28.3259Z" fill="#85675D"/>
<path d="M62.1757 24.9299L61.1064 30.5657L67.3943 31.7586L68.4635 26.1229L62.1757 24.9299Z" fill="#85675D"/>
<path d="M51.1016 30.6426L50.0322 36.2791L56.3201 37.472L57.3894 31.8355L51.1016 30.6426Z" fill="#85675D"/>
<path d="M60.7461 32.4763L59.6768 38.1128L65.9646 39.3057L67.034 33.6693L60.7461 32.4763Z" fill="#85675D"/>
<path d="M56.8204 16.0952L60.1291 17.3505L53.4143 21.289L51.4577 22.4352L52.5866 23.109L55.4554 24.8215L51.9777 25.9858L48.7319 27.0727L48.5225 28.1771L56.7756 25.6867L57.2061 25.5149L53.1391 22.537L62.2951 17.7622L58.0237 15.2842L60.6548 13.0596L59.5715 12.8545V12.8552L56.4838 15.9681L56.8204 16.0952Z" fill="#4F3330"/>
<path d="M58.0234 15.2841L62.2948 17.7621L53.1389 22.5369L57.2059 25.5148L56.7754 25.6867L48.5222 28.177L48.2969 29.363L58.9458 25.8817L58.5752 25.5437L56.7754 23.9034L55.3359 22.5911L56.5782 21.8891L59.5922 20.181L63.4851 17.9774L63.8094 17.7939L63.5465 17.6502L59.3502 15.3563L62.4357 13.3983L62.2147 13.355L60.6546 13.0596L58.0234 15.2841Z" fill="#3F2826"/>
<path d="M28.5518 40.1311C28.5518 40.1311 63.9096 44.8041 65.7622 43.8449L62.2932 45.0879C62.2932 45.0879 40.6502 47.0719 36.3528 45.8947C36.3528 45.8947 28.9035 43.0909 28.5518 40.1311Z" fill="#160E0D"/>
<path d="M40.8428 56.9957L41.0378 53.8568L43.5216 54.6267L42.5776 48.6024L46.7212 49.7284L47.7157 47.0734L49.5502 47.194L50.0443 44.2421L52.5216 43.1118L51.1255 45.0294L50.5166 48.0997L48.6503 48.429L48.1086 51.0385L45.7353 51.1721L46.3138 56.3478L42.9922 56.2012L44.0799 58.5362C44.0799 58.5362 42.569 57.8992 41.7745 57.4911C41.7745 57.4911 41.3079 57.3207 40.8428 56.9957Z" fill="#160E0D"/>
<path d="M52.5225 43.1118L51.1264 45.0294L50.5175 48.0997L48.6512 48.429L48.1095 51.0385L45.7362 51.1721L46.3147 56.3478L42.9931 56.2012L44.0808 58.5362C44.0808 58.5362 42.5749 58.0386 42.2232 57.6536L42.2008 56.0278L42.1055 55.6891L45.2003 55.6783L44.6658 50.5272L47.4472 50.3856L48.2453 47.8635L50.0618 47.6656L50.5768 44.9333L52.5225 43.1118Z" fill="#211514"/>
<path d="M79.1023 11.5C78.6021 11.5 78.2366 11.4295 78.0058 11.2884C77.7749 11.1473 77.6595 10.9261 77.6595 10.6247C77.6595 10.426 77.7301 10.1791 77.8711 9.88413C78.0122 9.58276 78.243 9.14994 78.5636 8.58567C78.8394 8.11117 79.0606 7.71041 79.2273 7.38339C79.4004 7.05637 79.5479 6.72294 79.6697 6.38309C79.7916 6.03683 79.8525 5.72264 79.8525 5.4405C79.8525 5.28661 79.8268 5.11669 79.7755 4.93074C79.8974 4.87303 80.0128 4.83135 80.1218 4.8057C80.2308 4.78005 80.343 4.76722 80.4584 4.76722C80.9778 4.76722 81.2375 5.08142 81.2375 5.70981C81.2375 6.2805 81.0067 6.9698 80.545 7.77774C80.0897 8.57926 79.394 9.51864 78.4578 10.5959H81.6511L81.3722 11.3173C81.0772 11.3686 80.7149 11.4134 80.2853 11.4519C79.8557 11.484 79.4613 11.5 79.1023 11.5ZM81.9204 13.1351C81.6575 13.1351 81.4523 13.0485 81.3048 12.8754C81.1638 12.7087 81.0932 12.4682 81.0932 12.154C81.0932 11.8398 81.183 11.3269 81.3625 10.6151C81.5485 9.90337 81.7986 9.08261 82.1128 8.15285C82.2218 8.06949 82.3468 8.00216 82.4879 7.95087C82.6289 7.89957 82.7604 7.87392 82.8822 7.87392C82.9912 7.87392 83.0682 7.89316 83.1131 7.93163C83.158 7.96369 83.1804 8.0214 83.1804 8.10476C83.1804 8.18812 83.1612 8.31636 83.1227 8.48949C83.0842 8.66262 83.0393 8.85178 82.988 9.05696C82.847 9.58276 82.7315 10.0765 82.6418 10.5382C82.5584 10.9934 82.5167 11.4455 82.5167 11.8943C82.5167 12.3176 82.5937 12.6542 82.7476 12.9043C82.5809 12.9876 82.4366 13.0453 82.3148 13.0774C82.1929 13.1159 82.0615 13.1351 81.9204 13.1351ZM85.6021 11.5C85.1019 11.5 84.7364 11.4295 84.5056 11.2884C84.2748 11.1473 84.1594 10.9261 84.1594 10.6247C84.1594 10.426 84.2299 10.1791 84.371 9.88413C84.512 9.58276 84.7429 9.14994 85.0635 8.58567C85.3392 8.11117 85.5604 7.71041 85.7271 7.38339C85.9003 7.05637 86.0477 6.72294 86.1696 6.38309C86.2914 6.03683 86.3523 5.72264 86.3523 5.4405C86.3523 5.28661 86.3267 5.11669 86.2754 4.93074C86.3972 4.87303 86.5126 4.83135 86.6216 4.8057C86.7306 4.78005 86.8428 4.76722 86.9583 4.76722C87.4776 4.76722 87.7373 5.08142 87.7373 5.70981C87.7373 6.2805 87.5065 6.9698 87.0448 7.77774C86.5896 8.57926 85.8938 9.51864 84.9577 10.5959H88.1509L87.872 11.3173C87.577 11.3686 87.2147 11.4134 86.7851 11.4519C86.3555 11.484 85.9612 11.5 85.6021 11.5ZM88.4202 13.1351C88.1573 13.1351 87.9521 13.0485 87.8047 12.8754C87.6636 12.7087 87.5931 12.4682 87.5931 12.154C87.5931 11.8398 87.6828 11.3269 87.8624 10.6151C88.0483 9.90337 88.2984 9.08261 88.6126 8.15285C88.7216 8.06949 88.8466 8.00216 88.9877 7.95087C89.1288 7.89957 89.2602 7.87392 89.3821 7.87392C89.4911 7.87392 89.568 7.89316 89.6129 7.93163C89.6578 7.96369 89.6802 8.0214 89.6802 8.10476C89.6802 8.18812 89.661 8.31636 89.6225 8.48949C89.584 8.66262 89.5392 8.85178 89.4879 9.05696C89.3468 9.58276 89.2314 10.0765 89.1416 10.5382C89.0582 10.9934 89.0166 11.4455 89.0166 11.8943C89.0166 12.3176 89.0935 12.6542 89.2474 12.9043C89.0807 12.9876 88.9364 13.0453 88.8146 13.0774C88.6928 13.1159 88.5613 13.1351 88.4202 13.1351Z" fill="black"/>
</svg>
