<svg width="95" height="61" viewBox="0 0 95 61" fill="none" xmlns="http://www.w3.org/2000/svg">
<path d="M93.623 0.75V59.96H0.75V0.75H93.623Z" fill="#BBE4F1" stroke="black" stroke-width="1.5"/>
<path d="M1.50098 34.8784V59.405H92.8744V55.0767L14.0047 40.6494C9.70708 39.6712 3.42463 39.5673 1.50098 34.8784Z" fill="url(#paint0_linear_126_2461)"/>
<path d="M8.49199 30.4682L9.43955 44.9044L15.6752 50.3016L17.2996 51.7077C17.2996 51.7077 19.3606 53.2316 23.8714 54.9346C26.7796 56.035 30.7052 57.2053 35.7531 58.0917C48.0453 60.179 60.6778 52.9076 77.4852 57.8419C93.8365 61.2083 96.2408 54.4755 88.7687 51.2957C81.5767 47.0295 56.914 49.8868 57.4118 37.7693C57.5253 34.9309 58.5645 32.9747 60.1147 31.7258C62.1103 30.1145 64.9661 29.6822 67.8001 30.0621C71.7039 30.5774 75.5727 32.6341 77.1447 35.2628C80.6556 41.1447 75.9483 44.7123 75.7299 44.8738L80.3499 43.6817L83.1358 36.2671L72.8217 22.3855L65.3547 15.5298L46.8444 12.0146L25.439 17.3682L21.3169 24.7828L11.8936 25.7303L8.49199 30.4682Z" fill="url(#paint1_linear_126_2461)"/>
<path opacity="0.37" d="M8.49191 30.4682L9.43948 44.9044L15.6751 50.3016C12.5049 44.0485 14.2166 39.0181 15.5179 35.1798C17.2733 29.9922 18.4436 38.3544 19.3649 34.5947C20.2819 30.8306 23.4609 28.9093 23.0417 32.669C22.6268 36.4331 25.0503 34.2585 27.059 30.2455C29.0633 26.2325 31.6571 26.0622 30.9017 30.0796C30.1506 34.0925 32.4911 35.0968 35.4168 29.2411C38.3468 23.3898 37.3425 33.5074 39.9319 27.9049C42.5257 22.3025 50.5517 17.1193 49.7176 21.4641C48.8792 25.8133 52.7263 25.1452 53.8136 22.9706C54.9009 20.796 56.4074 19.7917 56.2371 22.1322C56.0711 24.4771 56.1541 25.3941 57.7436 23.7217C59.333 22.0493 61.7565 20.796 61.4247 23.9749C61.0884 27.1495 62.1757 27.822 64.8525 24.9793C67.3895 22.2807 70.1449 25.5164 67.8 30.0621C71.7038 30.5774 75.5727 32.6341 77.1447 35.2628C80.6555 41.1447 75.9482 44.7123 75.7299 44.8738L80.3498 43.6817L83.1357 36.2671L72.8217 22.3855L65.3547 15.5298L46.8444 12.0146L25.4389 17.3682L21.3168 24.7828L11.8935 25.7303L8.49191 30.4682Z" fill="#86FFFF"/>
<path opacity="0.37" d="M8.49191 30.4682L9.43948 44.9044L15.6751 50.3016L17.2995 51.7077C17.2995 51.7077 19.3605 53.2316 23.8713 54.9346C13.6882 45.2755 26.3996 50.1356 23.3779 46.7995C20.116 43.2057 22.7928 37.6033 26.5568 41.4503C30.3165 45.2974 31.072 43.3717 32.3252 38.7736C33.5784 34.1755 35.3338 41.9525 37.9276 36.1841C40.5171 30.4114 41.2725 38.4417 41.7747 35.3458C42.2768 32.2542 46.6217 28.656 46.6217 32.9222C46.6217 37.1841 50.5517 35.9309 52.4774 31.8349C54.3288 27.8918 59.1322 26.6561 60.1147 31.7258C62.1102 30.1145 64.966 29.6822 67.8 30.0621C71.7038 30.5773 75.5727 32.6341 77.1447 35.2628C80.6555 41.1447 75.9482 44.7123 75.7299 44.8738L80.3498 43.6817L83.1357 36.2671L72.8217 22.3855L65.3547 15.5298L46.8444 12.0146L25.4389 17.3682L21.3168 24.7828L11.8935 25.7303L8.49191 30.4682Z" fill="#86FFFF"/>
<path d="M7.65847 29.9924C9.5798 30.4072 7.23926 20.2896 11.0863 20.2896C14.9333 20.2896 14.5971 24.4729 18.2782 25.141C21.9549 25.8091 23.4047 10.6393 30.3171 12.3467C33.0201 13.0148 29.3433 15.4121 32.2428 15.9142C35.1423 16.4164 34.4174 9.94936 37.3693 10.3424C40.3255 10.731 42.011 -2.39521 51.9758 1.31209C56.325 2.92776 50.2378 7.33373 54.9844 9.1721C59.1677 10.7878 59.8751 4.40369 65.2985 7.83153C68.0277 9.56073 60.6174 12.6261 65.6871 14.3553C70.7612 16.0845 75.3811 15.7046 76.1671 21.0451C77.3942 29.3505 81.4071 23.7742 83.918 34.9791C85.9179 43.9133 76.1366 49.5419 74.7742 47.1883C73.5471 45.0705 76.3898 44.7343 78.5077 44.1229C80.6299 43.5072 82.4115 39.9964 81.1277 37.5423C79.8482 35.0926 77.285 36.2847 77.1147 35.1494C77.0055 34.394 78.0361 32.8045 76.5863 33.5599C75.1366 34.311 73.8572 35.2848 73.2677 32.8351C72.9751 31.608 72.8266 29.2893 72.2328 27.0187C72.2328 27.0143 72.2328 27.0143 72.2328 27.0143C71.6389 24.7436 70.5996 22.5297 68.5298 21.5036C64.3902 19.4556 64.268 22.6345 61.255 18.9098C58.7135 15.7658 56.8053 19.1106 55.3337 22.3289C55.063 22.9227 54.8097 23.5122 54.5652 24.0537C53.1591 27.2108 47.4999 29.071 45.0546 27.6475C44.5219 27.3374 44.1376 26.8746 43.9891 26.2283C43.1289 22.5297 44.0721 21.5036 42.2337 20.8355C40.1552 20.08 40.7709 24.8048 37.7186 23.9271C34.6663 23.0494 36.5483 20.0844 33.9152 19.2897C31.2821 18.4949 32.4087 22.5472 30.1075 20.1237C27.8106 17.7002 25.1339 20.6695 24.9679 25.3506C24.7976 30.0317 21.706 30.4945 20.7847 28.237C19.8677 25.9794 18.5708 27.6911 18.6537 29.9094C18.7367 32.1233 16.8154 31.9967 15.0163 29.5295C14.6408 29.0186 14.1997 28.6605 13.7412 28.4771C11.9815 27.7479 9.99026 29.4727 10.9204 34.3809C12.0906 40.5684 12.8417 42.7431 11.5055 42.9527C10.1649 43.1623 8.4925 46.7429 16.0206 49.8651C23.5444 52.9873 19.3655 55.3278 35.7536 59.0919C13.5098 55.9129 8.9117 48.4721 5.73713 40.6121C2.55819 32.7521 5.73713 29.5732 7.65847 29.9924ZM60.7135 9.04546C59.8358 9.33803 59.7528 10.4253 60.7572 10.4253C61.7571 10.4253 63.3073 11.4297 63.3903 10.1721C63.4732 8.91883 62.6829 8.39046 60.7135 9.04546ZM43.7402 8.49963C45.1201 6.62196 46.2467 7.49967 49.382 7.66561C52.8797 7.85337 52.2247 2.98454 49.5916 3.1068C48.3296 3.16794 42.9848 3.69193 41.2731 9.46467C40.8626 10.8445 42.3604 10.3817 43.7402 8.49963ZM29.732 14.8269C29.8149 13.1545 28.8979 12.8794 26.9198 15.6653C28.7014 14.1021 29.649 16.4994 29.732 14.8269Z" fill="#ECF7F9"/>
<path d="M60.128 4.28233C62.0978 2.91294 66.023 3.90592 66.5667 2.90246C67.1103 1.899 64.4344 1.23002 63.2637 1.85708C62.093 2.48413 61.8005 2.44222 62.0511 1.39728C62.3022 0.351896 60.504 0.268485 59.2918 2.48413C58.0792 4.69978 56.9923 5.24344 55.9469 5.49452C54.902 5.7456 56.6997 6.66566 60.128 4.28233Z" fill="#ECF7F9"/>
<path d="M71.8344 4.15687C75.5527 3.39139 78.4713 4.9372 76.9766 6.07996C76.2657 6.62361 74.0501 4.53329 70.9563 5.11842C67.8625 5.70355 70.4127 4.44943 71.8344 4.15687Z" fill="#ECF7F9"/>
<path d="M73.5061 8.37956C76.7383 9.21534 79.4011 12.0585 76.7252 11.8497C74.0493 11.6406 74.9694 11.7244 77.0597 12.8532C79.1501 13.982 82.453 17.2849 80.1116 18.6648C77.7702 20.0447 77.3104 14.1497 74.2585 13.0624C71.2066 11.9755 69.9521 12.1842 69.7849 11.1393C69.6176 10.0939 73.0459 9.46686 70.4958 9.5507C67.9456 9.63411 67.1094 10.8048 66.1479 10.0105C65.1863 9.21577 68.6565 7.12545 73.5061 8.37956Z" fill="#ECF7F9"/>
<path d="M80.4464 23.2214C82.6206 24.0995 83.5821 23.9323 83.0385 22.845C82.4948 21.7581 82.5367 23.6816 80.4464 23.2214Z" fill="#ECF7F9"/>
<path d="M80.3208 24.7266C83.3312 25.3536 84.1255 29.2421 85.2962 28.4893C86.4665 27.7369 84.2089 24.9357 80.3208 24.7266Z" fill="#ECF7F9"/>
<path d="M85.2966 34.0498C86.3 35.8895 86.4253 38.1051 85.5891 37.4781C84.7533 36.851 85.2966 34.0498 85.2966 34.0498Z" fill="#ECF7F9"/>
<path d="M74.8301 31.5831C73.5354 30.1155 74.4957 29.1304 73.9385 28.2107C73.3808 27.2911 75.5271 28.4059 75.2764 30.0779C75.0253 31.7504 75.6664 32.5311 74.8301 31.5831Z" fill="#7DE5F6"/>
<path d="M55.3334 21.329C56.805 18.1107 58.7132 14.7659 61.2546 17.9099C64.2676 21.6347 64.3899 18.4557 68.5295 20.5037C70.5993 21.5298 71.6386 23.7438 72.2324 26.0144C70.8788 18.3335 67.7086 17.4863 67.3068 18.5954C66.8571 19.8225 61.5079 12.7397 62.0668 16.3073C62.6039 19.7745 56.3028 8.66128 55.3334 21.329Z" fill="#A9EAFA"/>
<path d="M78.5378 32.7818C78.2871 33.2827 78.705 34.0639 79.2626 33.8687C79.8203 33.6735 78.8718 32.1129 78.5378 32.7818Z" fill="#7DE5F6"/>
<path d="M62.8034 17.6194C63.168 18.7137 65.1448 18.6648 65.1029 18.0373C65.0609 17.4102 62.6361 17.1176 62.8034 17.6194Z" fill="#7DE5F6"/>
<path d="M54.15 20.1695C54.5451 21.8826 50.8889 25.5628 49.8435 24.434C48.7982 23.3052 51.9339 23.138 52.7282 22.0092C53.5225 20.8804 53.7735 18.539 54.15 20.1695Z" fill="#7DE5F6"/>
<path d="M47.7109 23.138C46.5563 24.2925 47.5017 25.1864 46.331 24.5174C45.1603 23.8484 44.4079 21.9253 45.7039 22.3432C47 22.7615 47.5436 21.1725 48.296 21.6742C49.0488 22.1764 48.2545 22.5943 47.7109 23.138Z" fill="#7DE5F6"/>
<path opacity="0.37" d="M55.0807 31.2797C53.9485 33.332 53.0908 35.6337 53.1411 38.0328C53.1633 39.2227 53.4188 40.4095 53.893 41.4995C54.3694 42.5898 55.0646 43.5697 55.8698 44.4282C57.4942 46.1478 59.5413 47.3836 61.6727 48.325C63.8141 49.2638 66.0677 49.9149 68.3528 50.3669C68.3825 50.3725 68.4109 50.3533 68.417 50.3241C68.4227 50.2948 68.4034 50.2664 68.3746 50.2599C66.1035 49.7734 63.8704 49.0892 61.7626 48.125C59.6649 47.1591 57.6654 45.9037 56.1117 44.2046C55.341 43.3566 54.686 42.3994 54.2463 41.3475C53.8087 40.296 53.5838 39.1629 53.5803 38.0271C53.5677 35.7398 54.424 33.5329 55.558 31.5522C55.6336 31.4203 55.5899 31.2492 55.458 31.1736C55.3261 31.0981 55.1585 31.1439 55.0829 31.2758C55.0825 31.2767 55.0812 31.2788 55.0807 31.2797Z" fill="#86FFFF"/>
<path opacity="0.37" d="M33.4982 39.5382C33.4096 41.2648 33.7646 43.0372 34.6056 44.5585C35.4379 46.0856 36.7007 47.3379 38.1352 48.2763C39.5723 49.2221 41.1822 49.8671 42.832 50.2963C44.4839 50.7308 46.1869 50.9321 47.8868 50.978C48.7361 50.9985 49.5916 50.9614 50.4313 50.9347C51.2741 50.9002 52.1181 50.8998 52.9618 50.9042C54.6495 50.9182 56.3368 51.0098 58.0166 51.1758C59.6965 51.343 61.3707 51.5766 63.0261 51.9098C64.6784 52.2478 66.3251 52.653 67.8975 53.2626C67.9255 53.274 67.9573 53.2604 67.9687 53.2325C67.98 53.2045 67.9661 53.1727 67.9386 53.1613C66.3609 52.5325 64.7133 52.1103 63.0579 51.7548C61.3999 51.4042 59.7222 51.1535 58.038 50.9692C56.3534 50.7867 54.6604 50.678 52.9657 50.6474C52.1186 50.6352 51.2706 50.6273 50.423 50.6535C49.5724 50.6727 48.7366 50.7011 47.8951 50.6728C46.2161 50.6116 44.5393 50.3963 42.9224 49.9544C41.3071 49.5178 39.7404 48.8711 38.357 47.941C36.9754 47.0183 35.7785 45.803 35.0012 44.3446C34.2161 42.89 33.896 41.2145 33.9951 39.5674C34.0034 39.4303 33.8986 39.3124 33.7615 39.3041C33.6244 39.2963 33.5065 39.4006 33.4982 39.5382Z" fill="#86FFFF"/>
<path opacity="0.37" d="M43.9313 33.553C42.1187 36.5175 41.7882 40.3528 43.2051 43.5321C43.9086 45.1137 45.0924 46.501 46.6059 47.3626C47.3583 47.7957 48.1818 48.0992 49.0268 48.2752C49.87 48.4595 50.7438 48.4887 51.5896 48.4831C54.9558 48.4481 58.3177 48.9582 61.6085 49.6913C63.2547 50.0647 64.8861 50.5079 66.4913 51.0314C68.0943 51.5594 69.6798 52.1563 71.1811 52.9257C71.2077 52.9401 71.2409 52.9305 71.2553 52.9039C71.2697 52.8777 71.2588 52.8441 71.233 52.8296C69.7313 52.0371 68.1475 51.4201 66.5454 50.8712C64.9407 50.3267 63.3093 49.8629 61.6609 49.4686C58.3649 48.694 54.9947 48.1403 51.5878 48.1346C50.7438 48.1302 49.918 48.0936 49.1067 47.908C48.2984 47.7307 47.5177 47.4329 46.8085 47.0141C45.3824 46.1814 44.2772 44.8587 43.623 43.3474C42.3034 40.3095 42.6624 36.635 44.4112 33.8504C44.4942 33.7185 44.4544 33.5443 44.3221 33.4613C44.1903 33.3783 44.016 33.4181 43.9331 33.5504L43.9313 33.553Z" fill="#86FFFF"/>
<path opacity="0.37" d="M58.3402 52.8239C56.9363 52.5637 55.5014 52.5361 54.0827 52.6108C52.6617 52.6815 51.2482 52.83 49.8365 52.9741C47.0165 53.2684 44.1869 53.5348 41.3634 53.4051C38.5456 53.2881 35.7392 52.7427 33.1541 51.6397C31.8616 51.0921 30.6249 50.4183 29.459 49.6375C28.3014 48.8428 27.218 47.9459 26.1949 46.9844L26.1906 46.98C26.0753 46.8717 25.8945 46.8774 25.7862 46.9927C25.6779 47.1079 25.6836 47.2887 25.7989 47.397L25.8015 47.3996C26.86 48.3673 27.9792 49.269 29.1739 50.065C30.3769 50.848 31.6515 51.52 32.9794 52.061C35.6361 53.1523 38.5011 53.6658 41.3503 53.7453C44.2061 53.8374 47.0449 53.53 49.861 53.1977C51.2705 53.0344 52.6788 52.8671 54.0918 52.7776C55.5031 52.6842 56.9267 52.6925 58.3196 52.9313C58.3493 52.937 58.3777 52.9178 58.3838 52.8881C58.3895 52.8588 58.369 52.8305 58.3402 52.8239Z" fill="#86FFFF"/>
<path d="M13.7413 27.477C14.1998 27.6604 14.6408 28.0185 15.0164 28.5294C16.8154 30.9966 18.7368 31.1232 18.6538 28.9093C18.5708 26.691 19.8677 24.9793 20.7847 27.2369C21.7061 29.4944 24.7977 29.0316 24.968 24.3505C25.1339 19.6694 27.8107 16.7001 30.1076 19.1236C32.4088 21.5471 31.2822 17.4948 33.9153 18.2896C36.5484 19.0843 34.6664 22.0493 37.7187 22.927C40.771 23.8047 40.1553 19.0799 42.2338 19.8354C44.0722 20.5035 43.129 21.5296 43.9892 25.2282C44.1377 25.8745 44.522 26.3373 45.0547 26.6474C43.5857 25.0749 44.3386 21.7349 43.9499 18.5821C43.2775 13.1456 39.6007 23.7217 38.7623 18.4118C37.9283 13.102 34.8323 18.997 33.2865 16.9927C31.7407 14.984 30.5705 19.5428 28.3522 16.866C26.1383 14.1893 24.8414 24.6867 23.92 21.8397C23.003 18.997 22.3742 27.0273 21.4135 26.4421C20.4529 25.857 18.6101 23.5558 17.9857 27.6954C17.4049 31.5162 14.9378 27.036 13.7413 27.477Z" fill="#A9EAFA"/>
<path d="M57.6061 31.583C56.5729 32.6459 55.7961 33.9882 55.3922 35.4488C54.9756 36.9064 54.9332 38.4754 55.2507 39.967C55.5751 41.4587 56.2576 42.8617 57.1947 44.0433C58.1239 45.235 59.2955 46.2017 60.5605 46.969C59.4427 45.9939 58.4287 44.9306 57.6074 43.7416C56.793 42.5508 56.1838 41.2268 55.8904 39.829C55.5825 38.4356 55.5908 36.978 55.8865 35.572C56.1895 34.1663 56.7703 32.8079 57.6061 31.583Z" fill="#47B2FF"/>
<path d="M52.0314 34.4263C51.9091 34.6599 51.7847 34.8974 51.6711 35.1415C51.5943 35.397 51.51 35.6542 51.4384 35.9153C51.403 36.1821 51.3641 36.4507 51.3371 36.7201L51.3375 37.5323C51.4004 38.6178 51.724 39.668 52.1532 40.6527C52.596 41.6343 53.1554 42.5614 53.8331 43.3937C54.5081 44.2216 55.2828 44.9936 56.2129 45.5189C55.8081 45.1731 55.4142 44.8264 55.078 44.4198C54.8998 44.2273 54.7273 44.0308 54.5693 43.8207C54.4025 43.6185 54.2461 43.4089 54.1007 43.1906C53.5029 42.3326 52.9719 41.4287 52.5523 40.4759C52.127 39.527 51.8078 38.5283 51.6702 37.5004C51.5384 36.4764 51.6183 35.4096 52.0314 34.4263Z" fill="#47B2FF"/>
<path d="M45.2302 34.3704C44.5534 35.8122 44.0862 37.3799 43.9844 39.0051C43.8783 40.6169 44.1429 42.3325 45.0442 43.7587C45.4927 44.4639 46.0783 45.084 46.7547 45.5678C47.435 46.046 48.1895 46.4053 48.9725 46.6368C50.5392 47.1162 52.175 47.1691 53.7588 47.0245C52.1702 46.9154 50.593 46.6865 49.1371 46.1529C47.6869 45.6233 46.3896 44.701 45.5988 43.4111C44.777 42.1374 44.494 40.5684 44.4932 39.0235C44.5058 37.4672 44.7901 35.9013 45.2302 34.3704Z" fill="#47B2FF"/>
<path d="M50.4141 54.2155C48.1482 54.4465 45.8902 54.7421 43.6366 54.9539C41.3838 55.1648 39.1236 55.2211 36.9023 54.9238C34.6783 54.6465 32.5085 54.0098 30.4064 53.1889C28.3052 52.3601 26.2572 51.3772 24.2145 50.3689C26.1306 51.5977 28.1126 52.7404 30.2112 53.6614C32.3024 54.591 34.5272 55.2762 36.8184 55.5731C39.1101 55.8665 41.4323 55.777 43.6929 55.46C45.9592 55.1596 48.1884 54.6963 50.4141 54.2155Z" fill="#47B2FF"/>
<path d="M26.0539 45.408C26.7098 46.1092 27.4211 46.7542 28.16 47.3677C28.8957 47.9852 29.6756 48.5493 30.4782 49.079C31.2869 49.5995 32.1201 50.086 32.9934 50.4925C33.4301 50.6955 33.8724 50.8851 34.3209 51.0584C34.775 51.2178 35.2309 51.3711 35.6973 51.4842C35.2637 51.2772 34.8274 51.0864 34.4065 50.8619C33.9803 50.6506 33.5593 50.4301 33.1476 50.1934C32.3227 49.7231 31.5092 49.2349 30.7166 48.7131C29.9184 48.1996 29.142 47.6515 28.3643 47.1027C27.5892 46.5494 26.8286 45.9739 26.0539 45.408Z" fill="#47B2FF"/>
<path d="M24.7153 41.45C25.152 42.656 25.9301 43.718 26.8017 44.6468C27.6864 45.569 28.6741 46.3961 29.7881 47.0244C28.8855 46.1227 27.9777 45.2594 27.1187 44.3472C26.2524 43.4403 25.4542 42.4892 24.7153 41.45Z" fill="#47B2FF"/>
<path d="M35.586 39.7776C35.6567 41.2548 35.9689 42.7377 36.6117 44.1006C36.9379 44.777 37.3457 45.4224 37.8601 45.9756C38.3723 46.5298 38.9889 46.9804 39.6553 47.3031C39.0789 46.8359 38.5658 46.3189 38.1195 45.7547C37.6815 45.1835 37.3117 44.5648 37.0056 43.9124C36.6921 43.2635 36.4414 42.5823 36.2113 41.8906C35.9921 41.1959 35.7908 40.4902 35.586 39.7776Z" fill="#47B2FF"/>
<path d="M51.1943 51.4283C49.4787 51.4332 47.7726 51.424 46.0775 51.3323C44.3858 51.2148 42.7012 51.01 41.0855 50.5642C39.4703 50.1323 37.9197 49.4441 36.6175 48.3979C35.3115 47.3604 34.2447 46.015 33.4119 44.5164C34.0111 46.1194 34.9687 47.6294 36.2896 48.7905C36.5979 49.1062 36.9786 49.331 37.3267 49.5996C37.6943 49.838 38.0769 50.0555 38.4607 50.2681C39.2511 50.6493 40.0707 50.9664 40.9126 51.1956C42.5999 51.6471 44.3369 51.827 46.0604 51.8414C47.7853 51.8476 49.4996 51.6851 51.1943 51.4283Z" fill="#47B2FF"/>
<path d="M44.2832 46.5229C43.7561 45.9076 43.2396 45.2989 42.7942 44.6426C42.3558 43.9837 41.9719 43.2942 41.6951 42.5615C41.4091 41.8322 41.2331 41.0637 41.1278 40.2794C41.0244 39.4947 41.0025 38.6895 40.9383 37.8826C40.8331 38.6825 40.7396 39.4904 40.7886 40.3096C40.8265 41.127 40.9929 41.9462 41.2877 42.7182C41.5877 43.4881 42.0104 44.2055 42.5213 44.8448C43.0291 45.4884 43.6426 46.0325 44.2832 46.5229Z" fill="#47B2FF"/>
<path d="M67.249 53.937C66.222 53.4606 65.1596 53.058 64.074 52.7265C62.9893 52.3929 61.8806 52.1375 60.7628 51.9366C59.6432 51.7449 58.5131 51.613 57.3786 51.5654C56.245 51.5183 55.1079 51.5261 53.9818 51.6519C54.5473 51.6842 55.1106 51.7043 55.6721 51.7563C56.2341 51.7894 56.7943 51.8418 57.3533 51.9004C58.4703 52.0265 59.5838 52.168 60.6881 52.3667C61.7946 52.5545 62.8907 52.7955 63.9858 53.0492C64.5316 53.1828 65.0779 53.3191 65.6181 53.478C66.1678 53.6077 66.6993 53.7951 67.249 53.937Z" fill="#47B2FF"/>
<path d="M59.0547 49.7559C58.0988 49.5293 57.1277 49.3817 56.1543 49.2638C55.181 49.1406 54.202 49.0743 53.2226 49.0258C52.2431 48.9878 51.2624 48.9686 50.2825 49.0005L48.8135 49.0629C48.3245 49.1048 47.8354 49.1358 47.3485 49.1987C47.8385 49.2345 48.3271 49.2463 48.8157 49.2769L50.2799 49.3358L53.2038 49.4616L56.126 49.5969L59.0547 49.7559Z" fill="#47B2FF"/>
<path d="M74.8857 51.9021C73.9124 51.3296 72.9046 50.8104 71.8496 50.3886C70.7985 49.9585 69.6881 49.6576 68.575 49.4502C67.4593 49.2502 66.3646 49.0677 65.2944 48.752C65.0249 48.6799 64.7586 48.5965 64.4953 48.5022C64.2293 48.4158 63.966 48.3206 63.7062 48.2149C63.1735 48.0341 62.6639 47.7961 62.1346 47.5957C62.6198 47.8843 63.1128 48.1621 63.6219 48.4114C63.8748 48.5393 64.135 48.6524 64.3979 48.7599C64.6581 48.8747 64.9228 48.9782 65.1917 49.0716C65.7236 49.2773 66.2799 49.4122 66.8319 49.5498C67.3864 49.672 67.9449 49.7707 68.4934 49.879C69.5973 50.0742 70.6715 50.3541 71.7352 50.703C72.2649 50.8821 72.7932 51.0703 73.3137 51.282C73.8456 51.4654 74.3534 51.7087 74.8857 51.9021Z" fill="#47B2FF"/>
<path d="M71.793 53.9923C70.9572 53.4709 70.083 53.0151 69.1909 52.5963C68.2992 52.1758 67.3791 51.8177 66.4495 51.4902C65.5163 51.1728 64.5714 50.8885 63.6116 50.6649C63.1321 50.5523 62.6509 50.4488 62.1697 50.3496C61.6841 50.2667 61.2025 50.1724 60.7143 50.1042C61.6466 50.4239 62.5898 50.6933 63.5225 50.9889C64.4543 51.2867 65.3862 51.5793 66.3071 51.9029C67.2315 52.2168 68.1451 52.5605 69.0607 52.9042C69.9725 53.2557 70.876 53.6321 71.793 53.9923Z" fill="#47B2FF"/>
<path d="M69.7021 56.292C67.0791 55.0069 64.2547 54.1121 61.3535 53.6432C59.9016 53.4187 58.4309 53.2973 56.962 53.3226C55.4934 53.3384 54.0284 53.5065 52.6027 53.8257C55.5205 53.6956 58.4034 53.8283 61.2513 54.2899C64.1028 54.7305 66.8944 55.4885 69.7021 56.292Z" fill="#47B2FF"/>
<path d="M42.2754 56.4591C41.2147 56.5075 40.1624 56.5639 39.1117 56.5582C38.0616 56.5425 37.0149 56.4883 35.98 56.3438C34.9442 56.2089 33.9228 55.9827 32.9168 55.6892C31.912 55.3905 30.9304 55.0045 29.9417 54.6194C30.3959 54.894 30.8644 55.1434 31.3404 55.3814C31.819 55.6132 32.3128 55.815 32.8111 56.0075C33.8119 56.3831 34.8617 56.6285 35.9215 56.7761C36.983 56.9132 38.0554 56.9564 39.1196 56.8922C40.1838 56.828 41.2387 56.6861 42.2754 56.4591Z" fill="#47B2FF"/>
<path d="M33.7051 53.5745C32.747 53.0872 31.7689 52.6947 30.7973 52.2838L29.3371 51.6803C28.8528 51.4716 28.3651 51.2794 27.8939 51.0244C28.2581 51.4275 28.7249 51.7178 29.1865 51.986C29.6519 52.2536 30.1384 52.4785 30.6305 52.6868C31.6191 53.0894 32.6409 53.4152 33.7051 53.5745Z" fill="#47B2FF"/>
<path d="M42.4844 52.4038C41.7512 52.2645 41.0386 52.0781 40.3334 51.875C39.6299 51.665 38.9343 51.4327 38.2544 51.1619C37.5719 50.8978 36.9046 50.596 36.254 50.2602C35.6077 49.917 34.9737 49.545 34.3733 49.1013C35.3527 50.2441 36.7081 51.0152 38.0946 51.5685C39.4928 52.103 40.9862 52.4571 42.4844 52.4038Z" fill="#47B2FF"/>
<path d="M46.0801 49.5193C45.3736 49.2162 44.6696 48.9477 43.9893 48.6451C43.3116 48.3389 42.6522 48.0114 42.0435 47.611C41.4283 47.2215 40.8654 46.7587 40.3493 46.2386C39.8344 45.7155 39.3781 45.1277 38.9305 44.502C39.131 45.2439 39.4873 45.9495 39.9619 46.5722C40.4331 47.2001 41.0318 47.7315 41.689 48.1612C42.3527 48.5822 43.071 48.9044 43.8129 49.1228C44.5535 49.345 45.3124 49.48 46.0801 49.5193Z" fill="#47B2FF"/>
<path d="M59.292 47.9721C58.0073 47.2529 56.634 46.7014 55.2768 46.1639C53.924 45.6163 52.566 45.0879 51.3399 44.3596C50.1093 43.6526 49.0334 42.681 48.4448 41.4051C47.8487 40.1309 47.7662 38.644 47.878 37.1855C47.688 37.8964 47.5902 38.6331 47.5758 39.3816C47.5762 40.1287 47.6937 40.8907 47.9745 41.6046C48.2448 42.3229 48.6867 42.9736 49.2107 43.5312C49.7403 44.0871 50.3626 44.5355 51.0062 44.9229C52.3101 45.6805 53.7083 46.1896 55.1035 46.6424C56.4986 47.1027 57.9056 47.4852 59.292 47.9721Z" fill="#47B2FF"/>
<path d="M49.425 36.5166C49.2241 37.1572 49.0639 37.8144 49.0049 38.493C48.9394 39.1694 48.9743 39.8663 49.1429 40.54C49.3162 41.2112 49.6302 41.8518 50.0708 42.3823C50.5049 42.919 51.0542 43.3413 51.6406 43.6657C51.1516 43.202 50.707 42.7155 50.345 42.1802C49.987 41.6426 49.7193 41.054 49.5656 40.4318C49.2376 39.1842 49.3547 37.8563 49.425 36.5166Z" fill="#47B2FF"/>
<path d="M45.369 40.4885C45.2341 40.9191 45.2712 41.3972 45.3869 41.8356C45.5013 42.2789 45.7031 42.6937 45.9476 43.0762C46.1991 43.4548 46.4996 43.8015 46.8524 44.0884C47.2017 44.3749 47.6056 44.6133 48.0449 44.7111C47.6838 44.4478 47.3742 44.1548 47.0869 43.8408C46.8039 43.5242 46.5402 43.1919 46.3127 42.836C46.0782 42.485 45.8773 42.1129 45.7088 41.7265C45.5446 41.337 45.4166 40.9335 45.369 40.4885Z" fill="#47B2FF"/>
<path d="M43.0557 26.5103C41.9732 27.9425 40.9924 29.4573 40.1719 31.066C39.3549 32.6729 38.7235 34.3965 38.4449 36.2008C38.1947 38.002 38.3523 39.8932 39.065 41.5796C39.2375 42.001 39.4759 42.3931 39.6776 42.7992C39.9287 43.1774 40.1807 43.5555 40.4444 43.9223C40.7453 44.2616 41.0352 44.6079 41.3417 44.9367C41.6692 45.2468 41.9998 45.552 42.3312 45.8533C42.0317 45.5175 41.7308 45.1856 41.4273 44.859C41.1474 44.5105 40.8867 44.1481 40.6169 43.7957C40.3772 43.4219 40.1453 43.0429 39.9178 42.6639C39.7396 42.2586 39.5252 41.87 39.3767 41.4552C38.7549 39.8037 38.6034 38.0038 38.8768 36.2632C39.1108 34.5122 39.7313 32.8271 40.4732 31.2114C40.6444 30.7996 40.8562 30.4066 41.0592 30.0088L41.3649 29.4123L41.6968 28.8298C42.1151 28.0377 42.6024 27.2866 43.0557 26.5103Z" fill="#47B2FF"/>
<path d="M33.3565 48.0279C31.8242 46.2838 30.5671 44.2979 29.8217 42.1211C29.0828 39.9439 28.8466 37.616 29.0667 35.3322C29.2488 33.041 29.8614 30.797 30.6771 28.6399C31.0771 27.5561 31.5557 26.5015 32.0631 25.4609C32.3259 24.9452 32.5735 24.4199 32.8499 23.9103L33.6914 22.3855C32.3897 24.3103 31.2579 26.3583 30.3649 28.5163C29.475 30.6726 28.8527 32.9563 28.6322 35.2951C28.4431 37.6304 28.6811 40.0286 29.5073 42.2337C29.7479 42.7695 29.9706 43.3127 30.226 43.8389C30.5247 44.3428 30.7981 44.862 31.1168 45.3507C31.4705 45.817 31.8059 46.2952 32.1718 46.7471L33.3565 48.0279Z" fill="#47B2FF"/>
<path d="M36.7568 30.1338C36.3547 30.7709 35.9883 31.4381 35.7136 32.1446C35.4171 32.8433 35.2089 33.5756 35.0333 34.3136C34.8661 35.0541 34.7648 35.8096 34.7268 36.5668C34.687 37.3231 34.7167 38.0872 34.8621 38.8296C34.8866 38.0759 34.9713 37.3344 35.0661 36.5978C35.1717 35.8624 35.2888 35.1301 35.4595 34.4083C35.6228 33.6861 35.8075 32.9669 36.0337 32.2586C36.249 31.5468 36.5053 30.8469 36.7568 30.1338Z" fill="#47B2FF"/>
<path d="M54.707 25.4514C53.2455 26.3082 51.8643 27.3199 50.6438 28.5186C49.4417 29.7321 48.4138 31.1233 47.6134 32.6403C46.8444 34.1703 46.3029 35.8319 46.1492 37.5436C46.0632 38.3977 46.1043 39.261 46.2235 40.1077C46.3824 40.9496 46.6435 41.774 47.0697 42.5089C46.3872 40.9518 46.2567 39.2291 46.4828 37.579C46.6999 35.9249 47.2221 34.3144 48.0011 32.8389C48.7491 31.3447 49.7557 29.991 50.884 28.7504L51.7735 27.8579C52.0608 27.5492 52.4054 27.3033 52.7171 27.0204C53.3298 26.4365 54.0459 25.985 54.707 25.4514Z" fill="#47B2FF"/>
<path d="M26.501 50.0903C24.8329 49.1231 23.3068 47.8974 22.205 46.3398C21.0964 44.7918 20.4138 42.9687 20.1418 41.0863C19.8309 39.2051 19.896 37.2746 20.1104 35.3698C20.2152 34.4157 20.3697 33.4655 20.5536 32.5202C20.7234 31.5713 20.9409 30.6311 21.1492 29.6875C20.8453 30.6054 20.5863 31.5368 20.3444 32.4743C20.1169 33.4153 19.9243 34.3659 19.7772 35.3262C19.4912 37.2453 19.4252 39.2143 19.7108 41.1539C20.0248 43.0814 20.7309 44.9822 21.9361 46.5385C22.5352 47.3149 23.2369 48.0065 24.0076 48.6008C24.7871 49.1851 25.6224 49.6868 26.501 50.0903Z" fill="#47B2FF"/>
<path d="M26.054 34.2031C25.6693 35.0455 25.523 35.9839 25.5322 36.9078C25.5501 37.8349 25.7243 38.7488 26.054 39.6104C26.0654 39.1471 26.0374 38.6929 26.0156 38.2432C25.9955 37.793 25.9724 37.3471 25.9689 36.9013C25.947 36.0074 26.0056 35.1258 26.054 34.2031Z" fill="#47B2FF"/>
<path d="M33.5801 19.208L32.2941 21.0162C31.8736 21.6245 31.4553 22.235 31.05 22.8564C30.237 24.096 29.502 25.3951 28.889 26.7545C28.2842 28.1164 27.8043 29.5395 27.5126 31.0011C27.4279 31.3639 27.375 31.7329 27.3213 32.101C27.2619 32.4683 27.2095 32.8359 27.1855 33.2075C27.1165 33.9477 27.1074 34.6905 27.1135 35.4297C27.2593 33.956 27.4785 32.4984 27.8397 31.0762C28.2034 29.6557 28.6837 28.268 29.2872 26.9322C29.8798 25.5912 30.5937 24.3056 31.3343 23.0315C32.0775 21.7594 32.8731 20.5097 33.5801 19.208Z" fill="#47B2FF"/>
<path d="M70.4824 27.0679C69.2427 26.4684 67.9292 25.9959 66.552 25.7614C65.18 25.5195 63.7324 25.5719 62.3827 25.995C61.0334 26.4195 59.8151 27.2028 58.8273 28.1862C57.8322 29.167 57.0292 30.3128 56.379 31.5272L56.9925 30.6975C57.2095 30.4311 57.4187 30.1599 57.6405 29.8997C58.0841 29.3801 58.5466 28.8775 59.057 28.4312C60.0697 27.5338 61.2303 26.8059 62.5119 26.4116C63.7888 26.0003 65.1608 25.9356 66.5053 26.0924C66.8445 26.1125 67.1755 26.1994 67.5122 26.2496C67.8506 26.2959 68.1777 26.395 68.5087 26.4797C69.182 26.6173 69.8183 26.8758 70.4824 27.0679Z" fill="#47B2FF"/>
<path d="M59.8359 24.6152C58.5412 24.7943 57.3107 25.3379 56.2003 26.034C55.0837 26.7309 54.0877 27.6121 53.2169 28.5994C52.355 29.5937 51.6218 30.7098 51.1122 31.9268C50.9834 32.2294 50.8873 32.5468 50.7738 32.8547C50.6729 33.1673 50.6092 33.4922 50.5275 33.8097C50.469 34.1328 50.4467 34.4629 50.4057 34.7861C50.3921 35.1131 50.4083 35.4411 50.4153 35.7646C50.4555 35.4402 50.479 35.1175 50.5205 34.7992C50.5939 34.4839 50.6472 34.1669 50.7358 33.8586C50.8384 33.5538 50.9166 33.2429 51.0345 32.9451C51.1642 32.6516 51.2746 32.3512 51.4183 32.0652C51.9834 30.9181 52.7008 29.8465 53.5462 28.8858C54.3846 27.9191 55.3422 27.0566 56.3854 26.3126C56.9076 25.941 57.4592 25.6104 58.0347 25.3239C58.3168 25.1676 58.6207 25.0606 58.915 24.9257C59.2159 24.81 59.5277 24.7244 59.8359 24.6152Z" fill="#47B2FF"/>
<path d="M42.666 29.688C42.0883 30.4443 41.573 31.2478 41.1272 32.0945C40.6766 32.9385 40.3194 33.8372 40.0678 34.7673C39.8251 35.6991 39.6906 36.6651 39.7189 37.6288C39.7233 37.8694 39.7329 38.1095 39.7635 38.3484C39.7901 38.5873 39.8041 38.8266 39.8552 39.0615C39.9412 39.5331 40.0644 39.9955 40.2133 40.447C40.0783 39.5047 40.0076 38.5659 40.0547 37.6331C40.105 36.7017 40.2456 35.7786 40.4897 34.8795C40.7228 33.9774 41.0578 33.1023 41.4285 32.2399C41.804 31.3779 42.2407 30.5395 42.666 29.688Z" fill="#47B2FF"/>
<path d="M14.1807 32.3638C14.0396 32.9437 13.8855 33.5236 13.7663 34.1104C13.689 34.7034 13.5672 35.2951 13.5257 35.8942C13.451 37.092 13.4523 38.3064 13.6523 39.4985C14.0078 41.8905 15.0064 44.1778 16.4514 46.1188C17.9194 48.0488 19.798 49.6344 21.8516 50.8802C23.9096 52.1286 26.1244 53.0806 28.3955 53.8255C27.3038 53.3343 26.1833 52.9212 25.134 52.35C24.5991 52.0884 24.0607 51.8339 23.5555 51.5186L22.7852 51.0697C22.5271 50.9226 22.2704 50.7732 22.0315 50.5964C20.0425 49.3095 18.2037 47.7572 16.7998 45.8559C15.3632 43.9835 14.4003 41.7674 13.9824 39.4435C13.5554 37.1169 13.6873 34.6999 14.1807 32.3638Z" fill="#47B2FF"/>
<path d="M80.9323 11.7501C80.2014 11.7501 79.6211 11.593 79.1914 11.2788C78.7682 10.9646 78.5566 10.5318 78.5566 9.98032C78.5566 9.71742 78.6175 9.46414 78.7394 9.22047C78.8612 8.9704 79.0792 8.71712 79.3934 8.46063C79.7076 8.20415 80.1404 7.94766 80.6919 7.69117C81.1792 7.47316 81.5575 7.25515 81.8268 7.03713C82.0961 6.81271 82.2789 6.59469 82.3751 6.38309C82.4777 6.17149 82.529 5.94706 82.529 5.70981C82.529 5.42768 82.4328 5.20325 82.2404 5.03654C82.0545 4.86982 81.798 4.78646 81.471 4.78646C81.1183 4.78646 80.8265 4.87303 80.5957 5.04615C80.3713 5.21287 80.2591 5.45012 80.2591 5.7579C80.2591 5.97592 80.3264 6.1779 80.461 6.36385C80.5957 6.54981 80.7624 6.71973 80.9612 6.87362C81.1664 7.02751 81.4421 7.21667 81.7884 7.4411C82.1987 7.704 82.529 7.93484 82.779 8.13361C83.0291 8.32598 83.2407 8.55361 83.4138 8.81651C83.587 9.07941 83.6735 9.37437 83.6735 9.70139C83.6735 10.0989 83.5581 10.4548 83.3273 10.769C83.0964 11.0768 82.7726 11.3173 82.3558 11.4904C81.939 11.6635 81.4645 11.7501 80.9323 11.7501ZM81.0285 10.9421C81.4325 10.9421 81.7691 10.8428 82.0384 10.644C82.3077 10.4388 82.4424 10.1534 82.4424 9.78795C82.4424 9.60841 82.3783 9.43528 82.25 9.26857C82.1218 9.10185 81.9647 8.94796 81.7787 8.80689C81.5928 8.66582 81.3331 8.47987 80.9997 8.24903C80.5765 7.9669 80.2334 7.72003 79.9705 7.50843C79.714 7.29682 79.4928 7.05316 79.3069 6.77744C79.1209 6.50172 79.0279 6.20034 79.0279 5.87332C79.0279 5.50142 79.1273 5.17119 79.3261 4.88264C79.5313 4.5941 79.8198 4.37288 80.1917 4.21898C80.5636 4.05868 80.9933 3.97853 81.4806 3.97853C82.1346 3.97853 82.6508 4.13563 83.0291 4.44982C83.4074 4.76402 83.5966 5.18402 83.5966 5.70981C83.5966 6.14584 83.4106 6.56584 83.0387 6.9698C82.6668 7.36736 82.1346 7.72003 81.4421 8.02781C80.8907 8.27147 80.4482 8.56323 80.1148 8.90307C79.7878 9.24292 79.6243 9.602 79.6243 9.98032C79.6243 10.2689 79.7557 10.5029 80.0186 10.6824C80.2815 10.8556 80.6181 10.9421 81.0285 10.9421ZM86.5028 11.7405C86.2784 11.7405 86.1085 11.6571 85.993 11.4904C85.8776 11.3173 85.8199 11.0672 85.8199 10.7402C85.8199 10.2079 85.8712 9.6052 85.9738 8.93193C86.0764 8.25224 86.2431 7.41224 86.474 6.41195C86.1469 6.41195 85.8776 6.34782 85.666 6.21958C85.4608 6.09134 85.3358 5.9118 85.2909 5.68096C85.5987 5.59119 85.8616 5.49821 86.0796 5.40203C86.304 5.30585 86.5477 5.18722 86.8106 5.04615C86.9965 4.94356 87.144 4.87303 87.253 4.83455C87.362 4.78967 87.4678 4.76722 87.5704 4.76722C87.8269 4.76722 87.9552 4.9147 87.9552 5.20966C87.9552 5.30585 87.9295 5.48218 87.8782 5.73867C87.8269 5.98874 87.766 6.26126 87.6955 6.55622C87.4967 7.40904 87.3364 8.15926 87.2146 8.80689C87.0991 9.45452 87.0414 10.0637 87.0414 10.6344C87.0414 10.9806 87.0959 11.282 87.2049 11.5385C86.9549 11.6731 86.7208 11.7405 86.5028 11.7405Z" fill="black"/>
<defs>
<linearGradient id="paint0_linear_126_2461" x1="82.8457" y1="57.6685" x2="1.50098" y2="47.1417" gradientUnits="userSpaceOnUse">
<stop stop-color="#02F5FB"/>
<stop offset="1" stop-color="#33B5F0"/>
</linearGradient>
<linearGradient id="paint1_linear_126_2461" x1="50.4373" y1="62.5591" x2="43.079" y2="23.5936" gradientUnits="userSpaceOnUse">
<stop stop-color="#02F5FB"/>
<stop offset="1" stop-color="#0456DE"/>
</linearGradient>
</defs>
</svg>
