<svg width="95" height="61" viewBox="0 0 95 61" fill="none" xmlns="http://www.w3.org/2000/svg">
<path d="M93.623 0.75V59.96H0.75V0.75H93.623Z" fill="#FFC270" stroke="black" stroke-width="1.5"/>
<path d="M79.8756 11.7501C79.1447 11.7501 78.5644 11.593 78.1347 11.2788C77.7115 10.9646 77.4999 10.5318 77.4999 9.98032C77.4999 9.71742 77.5609 9.46414 77.6827 9.22047C77.8045 8.9704 78.0225 8.71712 78.3367 8.46063C78.6509 8.20415 79.0837 7.94766 79.6352 7.69117C80.1225 7.47316 80.5008 7.25515 80.7701 7.03713C81.0395 6.81271 81.2222 6.59469 81.3184 6.38309C81.421 6.17149 81.4723 5.94706 81.4723 5.70981C81.4723 5.42768 81.3761 5.20325 81.1837 5.03654C80.9978 4.86982 80.7413 4.78646 80.4143 4.78646C80.0616 4.78646 79.7698 4.87303 79.539 5.04615C79.3146 5.21287 79.2024 5.45012 79.2024 5.7579C79.2024 5.97592 79.2697 6.1779 79.4044 6.36385C79.539 6.54981 79.7057 6.71973 79.9045 6.87362C80.1097 7.02751 80.3854 7.21667 80.7317 7.4411C81.142 7.704 81.4723 7.93484 81.7224 8.13361C81.9724 8.32598 82.184 8.55361 82.3572 8.81651C82.5303 9.07941 82.6168 9.37437 82.6168 9.70139C82.6168 10.0989 82.5014 10.4548 82.2706 10.769C82.0398 11.0768 81.7159 11.3173 81.2991 11.4904C80.8824 11.6635 80.4079 11.7501 79.8756 11.7501ZM79.9718 10.9421C80.3758 10.9421 80.7124 10.8428 80.9817 10.644C81.2511 10.4388 81.3857 10.1534 81.3857 9.78795C81.3857 9.60841 81.3216 9.43528 81.1933 9.26857C81.0651 9.10185 80.908 8.94796 80.7221 8.80689C80.5361 8.66582 80.2764 8.47987 79.943 8.24903C79.5198 7.9669 79.1767 7.72003 78.9138 7.50843C78.6573 7.29682 78.4361 7.05316 78.2502 6.77744C78.0642 6.50172 77.9712 6.20034 77.9712 5.87332C77.9712 5.50142 78.0706 5.17119 78.2694 4.88264C78.4746 4.5941 78.7631 4.37288 79.135 4.21898C79.5069 4.05868 79.9366 3.97853 80.4239 3.97853C81.0779 3.97853 81.5941 4.13563 81.9724 4.44982C82.3507 4.76402 82.5399 5.18402 82.5399 5.70981C82.5399 6.14584 82.3539 6.56584 81.982 6.9698C81.6101 7.36736 81.0779 7.72003 80.3854 8.02781C79.834 8.27147 79.3915 8.56323 79.0581 8.90307C78.7311 9.24292 78.5676 9.602 78.5676 9.98032C78.5676 10.2689 78.699 10.5029 78.9619 10.6824C79.2248 10.8556 79.5615 10.9421 79.9718 10.9421ZM84.9363 12.962C84.7183 12.962 84.5452 12.9203 84.417 12.8369C84.2951 12.76 84.1925 12.6157 84.1092 12.4041C84.5773 12.231 85.0197 12.0162 85.4365 11.7597C85.8597 11.5032 86.2765 11.1377 86.6869 10.6632C87.0972 10.1823 87.4499 9.57956 87.7449 8.85498H87.6872C87.4179 9.21406 87.1325 9.46734 86.8311 9.61482C86.5298 9.75589 86.2092 9.82642 85.8693 9.82642C85.4461 9.82642 85.0806 9.73024 84.7728 9.53788C84.4715 9.34551 84.2406 9.08261 84.0803 8.74918C83.9264 8.40934 83.8495 8.02781 83.8495 7.60461C83.8495 7.0724 83.9841 6.59149 84.2535 6.16187C84.5292 5.72584 84.8915 5.386 85.3403 5.14234C85.7956 4.89226 86.2861 4.76722 86.8119 4.76722C87.5044 4.76722 88.0591 4.99486 88.4759 5.45012C88.8991 5.89897 89.1107 6.55301 89.1107 7.41224C89.1107 8.34201 88.8798 9.23651 88.4182 10.0957C87.9629 10.9486 87.4018 11.6379 86.735 12.1637C86.0745 12.6959 85.475 12.962 84.9363 12.962ZM86.4079 9.06658C86.626 9.06658 86.8504 8.98964 87.0812 8.83574C87.3121 8.68185 87.5044 8.45743 87.6583 8.16247C87.8122 7.86751 87.8892 7.51484 87.8892 7.10446C87.8892 6.65561 87.7898 6.2805 87.591 5.97912C87.3986 5.67134 87.0908 5.51745 86.6676 5.51745C86.4304 5.51745 86.1867 5.5976 85.9366 5.7579C85.693 5.91821 85.4878 6.15867 85.3211 6.47927C85.1544 6.79347 85.071 7.17179 85.071 7.61423C85.071 8.02461 85.1736 8.37086 85.3788 8.653C85.5904 8.92872 85.9334 9.06658 86.4079 9.06658Z" fill="black"/>
</svg>
