<svg width="95" height="61" viewBox="0 0 95 61" fill="none" xmlns="http://www.w3.org/2000/svg">
<path d="M93.623 0.75V59.96H0.75V0.75H93.623Z" fill="#3BA15C" stroke="black" stroke-width="1.5"/>
<path d="M76.2959 42.2096C73.7665 45.6507 66.4501 49.3561 63.2886 48.7407C62.9404 48.673 62.2389 48.5547 61.2628 48.3977C59.2507 48.0737 56.0725 47.5834 52.42 47.0246C48.0606 46.3582 43.0254 45.5942 38.4923 44.8998C31.929 43.8945 26.4176 43.0352 25.5319 42.8275C23.9121 42.4476 21.9208 41.5231 20.3908 39.3707C19.788 38.5221 19.2567 37.4827 18.8478 36.2104C18.6017 35.445 18.4437 34.5702 18.3735 33.6392C18.33 33.0587 18.3207 32.4562 18.3457 31.8448C18.3964 30.5986 18.5912 29.3148 18.9304 28.1037C19.4003 26.4255 20.148 24.8857 21.1777 23.7754C21.8913 23.0058 22.7401 22.4426 23.7259 22.1824C25.5573 21.6988 39.0252 23.8914 51.4804 26.1024C56.071 26.9178 60.5243 27.7353 64.2063 28.4227H64.2073C68.7647 29.2733 72.141 29.9241 73.1348 30.1226C73.2373 30.1432 73.338 30.1682 73.4374 30.1978C77.1942 31.3184 78.7594 38.8572 76.2959 42.2096Z" fill="white"/>
<path opacity="0.6" d="M64.2058 28.4228C64.0034 28.3956 57.6152 31.4463 54.9841 35.6515C53.0654 38.7183 52.437 44.0983 52.4197 47.0245C48.0604 46.3581 43.0251 45.5941 38.4921 44.8997L37.4795 30.8851C37.4795 30.8851 44.8788 28.3577 51.4797 26.1025C56.0706 26.9179 60.524 27.7354 64.2058 28.4228Z" fill="white"/>
<path d="M63.7652 25.5347C63.4881 26.023 63.1469 26.4675 62.7466 26.8582C60.5215 29.0316 45.2651 43.6149 39.2241 48.7714C38.1525 49.6859 37.3708 50.3039 37.0034 50.5032C34.5644 51.8266 27.0672 52.1796 22.1898 49.5327C17.312 46.8861 15.8668 38.2018 17.5831 35.3093C19.7222 31.704 46.9393 13.2714 49.649 11.8598C50.5266 11.4024 51.6785 11.1307 52.9675 11.1186C54.1144 11.1073 55.3698 11.3026 56.6361 11.7564C57.4624 12.0524 58.2934 12.4587 59.1019 12.9897C59.9614 13.5539 60.7957 14.2594 61.5721 15.1239C61.8128 15.3917 62.0381 15.6619 62.2486 15.933C62.7559 16.5865 63.1764 17.2483 63.5149 17.908C64.153 19.151 64.5013 20.388 64.591 21.5576C64.7051 23.0339 64.408 24.4018 63.7652 25.5347Z" fill="white"/>
<path d="M74.4285 41.6915C72.0195 44.9687 65.0515 48.4977 62.0405 47.9116C61.7089 47.8471 61.0408 47.7344 60.1112 47.5849C58.1949 47.2763 55.168 46.8094 51.6894 46.2772C47.5376 45.6425 42.7422 44.915 38.425 44.2536C32.1741 43.2961 26.9252 42.4778 26.0816 42.2799C24.539 41.9182 22.6425 41.0376 21.1854 38.9878C20.6112 38.1796 20.1053 37.1897 19.7158 35.9779C19.4814 35.249 19.3309 34.4159 19.2641 33.5292C19.2227 32.9763 19.2138 32.4025 19.2376 31.8202C19.2859 30.6334 19.4714 29.4107 19.7944 28.2572C20.242 26.6589 20.9541 25.1925 21.9348 24.135C22.6144 23.4021 23.4228 22.8657 24.3616 22.6179C26.1058 22.1573 38.9325 24.2456 50.7946 26.3513C55.1666 27.1278 59.4078 27.9064 62.9145 28.561H62.9155C67.2559 29.3711 70.4714 29.991 71.4179 30.1801C71.5155 30.1996 71.6114 30.2234 71.7061 30.2516C75.284 31.3189 76.7747 38.4987 74.4285 41.6915Z" fill="url(#paint0_linear_126_829)"/>
<path opacity="0.3" d="M68.4237 32.0827L65.9794 34.6617C65.9794 34.6617 47.5157 29.5749 42.6747 29.432C39.023 29.3237 25.9823 28.6042 19.7939 28.2572C20.2415 26.6589 20.9536 25.1925 21.9343 24.135C26.1986 25.35 34.1249 27.437 38.7139 27.6408C45.1685 27.9271 68.4237 32.0827 68.4237 32.0827Z" fill="url(#paint1_linear_126_829)"/>
<path opacity="0.3" d="M65.4588 36.7065L61.6547 42.1883C61.6547 42.1883 50.3769 36.0824 43.2621 35.2645C37.7986 34.6363 24.9397 33.8571 19.2641 33.5291C19.2227 32.9762 19.2138 32.4024 19.2376 31.8201C26.4508 31.7387 41.0935 31.4138 43.7755 31.7959C47.296 32.2974 65.4588 36.7065 65.4588 36.7065Z" fill="url(#paint2_linear_126_829)"/>
<path opacity="0.3" d="M60.1114 47.5847C52.5964 46.3745 27.9958 42.7282 26.0818 42.2797C24.5392 41.9179 22.6427 41.0374 21.1855 38.9875C29.8548 39.6151 43.7389 40.967 46.6357 41.4359C49.6671 41.9266 56.5532 45.6011 60.1114 47.5847Z" fill="url(#paint3_linear_126_829)"/>
<path opacity="0.4" d="M74.4285 41.6914C72.0195 44.9686 65.0515 48.4976 62.0406 47.9115C61.7089 47.847 61.0408 47.7344 60.1112 47.5849C58.1949 47.2763 55.168 46.8093 51.6894 46.2771C47.5376 45.6425 42.7422 44.9149 38.425 44.2535C32.1741 43.2961 26.9252 42.4777 26.0816 42.2799C24.539 41.9181 22.6425 41.0376 21.1854 38.9877C20.6112 38.1795 20.1053 37.1896 19.7158 35.9778C19.4814 35.2489 19.3309 34.4158 19.2641 33.5292C19.2227 32.9762 19.2138 32.4024 19.2376 31.8201C19.2859 30.6333 19.4714 29.4106 19.7944 28.2572C20.1324 27.0498 20.6217 25.9177 21.2634 24.9802C21.4322 26.5454 22.1877 27.9296 23.5189 28.1059C25.5808 28.3792 29.9357 25.2406 31.8867 23.2483C37.0362 23.9695 44.0702 25.1575 50.7944 26.3514C54.3911 26.9901 57.8992 27.6304 60.9827 28.2017C57.3754 30.6475 52.732 37.3028 54.4838 40.5593C56.576 44.4487 67.7959 45.6068 74.4285 41.6914Z" fill="url(#paint4_linear_126_829)" fill-opacity="0.1"/>
<path opacity="0.6" d="M62.9147 28.5611C62.7219 28.5352 56.6379 31.4406 54.1321 35.4456C52.3048 38.3664 51.7063 43.4902 51.6898 46.277C47.538 45.6424 42.7425 44.9148 38.4253 44.2535L37.4609 30.9061C37.4609 30.9061 44.5079 28.4991 50.7946 26.3513C55.1668 27.1278 59.4082 27.9064 62.9147 28.5611Z" fill="url(#paint5_linear_126_829)" fill-opacity="0.1"/>
<path d="M72.3434 42.9502C68.4814 46.2395 62.7334 47.7622 60.7086 46.7237C58.6834 45.6857 59.7466 39.5049 59.7466 39.5049L55.5449 37.7249L61.5185 36.4887C61.5185 36.4887 65.3255 31.4279 69.2637 30.9509C75.7937 30.1599 75.7634 40.0369 72.3434 42.9502Z" fill="url(#paint6_linear_126_829)"/>
<path opacity="0.4" d="M68.9042 35.441C65.5881 36.3353 63.3552 42.8477 65.5567 42.659C70.2307 42.2579 74.3858 33.9623 68.9042 35.441ZM66.5334 41.4334C65.0147 41.5638 66.8605 36.7343 69.1477 36.1175C72.9289 35.0975 69.7572 41.1567 66.5334 41.4334Z" fill="url(#paint7_linear_126_829)"/>
<path opacity="0.4" d="M70.2564 32.793C66.3221 33.5443 61.3421 39.6778 61.5492 43.4918C61.7227 46.6896 65.535 45.9004 69.4069 43.5139C72.9431 41.3343 75.6552 31.762 70.2564 32.793ZM69.1159 42.7712C66.027 44.3639 63.2561 44.6698 63.1111 41.9987C62.9382 38.8125 66.6526 34.4907 69.9392 33.8631C74.4492 33.0018 72.2047 41.1781 69.1159 42.7712Z" fill="url(#paint8_linear_126_829)"/>
<path opacity="0.4" d="M68.761 38.0221C67.3404 38.2777 66.478 40.2984 67.6671 39.8105C68.8561 39.3229 69.6646 37.8595 68.761 38.0221Z" fill="url(#paint9_linear_126_829)"/>
<path opacity="0.4" d="M71.7062 30.2518C67.4257 29.249 64.0269 31.6136 61.0507 35.096C60.7241 35.4783 55.5449 37.7251 55.5449 37.7251L59.7466 39.5051C58.4624 41.2725 58.0605 45.6655 60.1117 47.5849C61.0413 47.7346 61.7095 47.8472 62.041 47.9115C65.052 48.4976 72.02 44.9686 74.4289 41.6915C76.7752 38.4987 75.2844 31.3188 71.7062 30.2518Z" fill="url(#paint10_linear_126_829)" fill-opacity="0.1"/>
<path opacity="0.4" d="M61.5185 36.489L62.9146 38.2205L55.5449 37.725L61.5185 36.489Z" fill="url(#paint11_linear_126_829)" fill-opacity="0.1"/>
<path d="M62.4951 25.8104C62.2312 26.2754 61.9062 26.6988 61.525 27.0709C59.4059 29.1408 44.8759 43.0297 39.1225 47.9407C38.102 48.8116 37.3575 49.4002 37.0075 49.59C34.6847 50.8504 27.5445 51.1866 22.8994 48.6658C18.2538 46.1451 16.8774 37.8744 18.512 35.1196C20.5492 31.686 46.4704 14.131 49.051 12.7866C49.8869 12.351 50.9839 12.0923 52.2115 12.0808C53.3038 12.07 54.4994 12.256 55.7055 12.6882C56.4924 12.9701 57.2838 13.357 58.0539 13.8627C58.8724 14.4001 59.667 15.072 60.4064 15.8953C60.6357 16.1504 60.8503 16.4077 61.0507 16.6659C61.5338 17.2883 61.9343 17.9185 62.2567 18.5469C62.8645 19.7306 63.1961 20.9088 63.2816 22.0227C63.3903 23.4287 63.1073 24.7314 62.4951 25.8104Z" fill="url(#paint12_linear_126_829)"/>
<path opacity="0.3" d="M55.7055 12.6881C52.4987 14.9621 45.7177 19.782 39.915 23.9859C31.9992 29.7208 26.2205 38.6631 26.2205 38.8941C26.2205 39.125 20.521 37.89 20.722 36.0016C20.923 34.1133 32.1575 27.2198 38.1736 23.2764C42.1931 20.6418 48.4037 15.4185 52.2116 12.0805C53.3039 12.0701 54.4995 12.2561 55.7055 12.6881Z" fill="url(#paint13_linear_126_829)"/>
<path opacity="0.3" d="M61.0506 16.6659C57.6139 18.0435 52.3643 20.2056 48.1477 22.1941C41.2606 25.4414 30.2051 38.9762 30.2051 38.9762L28.0459 38.0093C28.0459 38.0093 37.1446 28.8435 41.6566 25.1322C44.6846 22.6415 52.9176 17.2259 58.0538 13.8625C58.8724 14.3999 59.667 15.0718 60.4063 15.8952C60.6356 16.1504 60.8502 16.4078 61.0506 16.6659Z" fill="url(#paint14_linear_126_829)"/>
<path opacity="0.3" d="M63.282 22.0229C59.8277 23.2102 55.4093 24.9484 52.0268 26.9879C45.6149 30.8539 34.8658 46.0553 34.8658 46.0553C34.8658 46.0553 31.611 40.7977 31.7619 40.0922C31.9124 39.3869 43.4775 30.0033 48.227 26.3695C51.1161 24.1588 57.5499 20.8611 62.2569 18.5471C62.8648 19.7309 63.1965 20.9091 63.282 22.0229Z" fill="url(#paint15_linear_126_829)"/>
<path opacity="0.3" d="M62.4956 25.8103C62.2317 26.2753 61.9067 26.6987 61.5255 27.0708C59.4064 29.1407 44.8764 43.0296 39.123 47.9406C42.3562 43.2831 47.8713 35.4596 49.89 33.3281C51.6587 31.46 57.8184 28.153 62.4956 25.8103Z" fill="url(#paint16_linear_126_829)"/>
<path opacity="0.4" d="M63.2816 22.0232C63.1961 20.9093 62.8647 19.7311 62.2567 18.5473C61.9343 17.9188 61.5338 17.2887 61.0507 16.6664C60.8503 16.4082 60.6357 16.1507 60.4064 15.8958C59.667 15.0725 58.8724 14.4006 58.0539 13.8632C57.2838 13.3575 56.4924 12.9704 55.7055 12.6887C54.4994 12.2566 53.3036 12.0707 52.2115 12.0812C50.9839 12.0927 49.8869 12.3515 49.051 12.7871C46.4704 14.1315 20.5492 31.6863 18.512 35.1199C16.8774 37.8747 18.2538 46.1454 22.8994 48.666C27.5445 51.1869 34.6847 50.8506 37.0075 49.5903C37.3575 49.4005 38.102 48.8119 39.1225 47.941C44.8759 43.03 59.4059 29.1412 61.525 27.0712C61.9062 26.6991 62.2312 26.2755 62.4951 25.8107C63.1073 24.7315 63.3903 23.4288 63.2816 22.0232ZM52.4322 31.9947C47.7507 35.3051 39.4371 39.8806 35.1276 35.2646C30.818 30.6486 33.2539 26.2225 37.4612 22.5534C47.2437 14.0221 55.8744 12.7883 59.7156 17.2043C63.8858 21.9992 57.1137 28.6845 52.4322 31.9947Z" fill="url(#paint17_linear_126_829)" fill-opacity="0.1"/>
<path opacity="0.4" d="M19.8295 36.314C18.4584 37.0838 18.0343 43.9784 21.7668 47.3692C25.0849 50.3837 35.2678 50.1663 36.153 48.3037C37.0384 46.4411 20.9793 35.6684 19.8295 36.314Z" fill="url(#paint18_linear_126_829)" fill-opacity="0.1"/>
<path d="M36.6664 47.3331C36.4639 47.9624 36.1259 48.4541 35.6457 48.7376C33.3148 50.1131 24.9352 48.713 22.6045 46.9107C20.4574 45.2505 18.3986 39.3672 19.4797 36.8753C19.5723 36.6617 19.688 36.4729 19.8287 36.314C22.643 33.1352 29.7699 34.9137 33.3633 37.9969C36.2163 40.4444 37.4469 44.9088 36.6664 47.3331Z" fill="url(#paint19_linear_126_829)"/>
<path opacity="0.4" d="M34.18 41.8331C30.8835 35.739 23.7241 35.843 21.6121 37.3522C19.3643 38.959 21.5093 46.4081 26.5054 47.4646C31.5017 48.5211 37.4762 47.9269 34.18 41.8331ZM26.0419 46.6503C22.0954 45.8158 20.7636 39.5271 22.5393 38.2577C24.2073 37.0657 29.516 36.8149 32.1196 41.6284C34.7236 46.4419 29.9883 47.4849 26.0419 46.6503Z" fill="url(#paint20_linear_126_829)"/>
<path opacity="0.4" d="M31.2741 43.6767C30.8208 41.1156 27.7451 39.1805 25.4468 39.2181C21.9938 39.2751 23.1483 43.9295 25.8677 44.9415C28.5869 45.9532 31.6661 45.8922 31.2741 43.6767ZM26.2642 44.2398C24.2939 43.5067 22.9127 40.1339 25.4144 40.0928C27.0796 40.0654 29.8525 41.4679 30.1808 43.3234C30.4649 44.9288 28.2342 44.9727 26.2642 44.2398Z" fill="url(#paint21_linear_126_829)"/>
<path opacity="0.4" d="M26.5146 41.6348C24.6945 41.841 26.4727 43.465 27.6907 43.4141C28.9086 43.3633 28.3101 41.4316 26.5146 41.6348Z" fill="url(#paint22_linear_126_829)"/>
<path opacity="0.4" d="M37.0075 49.5898C34.6847 50.8502 27.5445 51.1864 22.8994 48.6656C18.2538 46.1449 16.8774 37.8742 18.512 35.1194C22.5298 30.8786 30.6801 34.1959 33.6093 36.4887C36.5387 38.7818 40.7838 45.5273 37.0075 49.5898Z" fill="url(#paint23_linear_126_829)" fill-opacity="0.1"/>
<path d="M78.9061 10.5863C80.009 9.8681 80.8362 9.20765 81.3877 8.60491C81.9455 7.99575 82.2244 7.42827 82.2244 6.90248C82.2244 6.48569 82.1283 6.1747 81.9359 5.96951C81.7499 5.76432 81.4678 5.66172 81.0895 5.66172C80.8458 5.66172 80.6214 5.73226 80.4162 5.87332C80.2174 6.00798 80.0539 6.19393 79.9257 6.43118C79.8039 6.66843 79.7333 6.93774 79.7141 7.23912C79.4768 7.21347 79.2941 7.13331 79.1658 6.99866C79.0376 6.85759 78.9735 6.67805 78.9735 6.46004C78.9735 6.1266 79.0729 5.83164 79.2716 5.57516C79.4704 5.31867 79.7493 5.11989 80.1084 4.97883C80.4739 4.83776 80.8939 4.76722 81.3684 4.76722C81.7788 4.76722 82.1411 4.84417 82.4553 4.99806C82.7695 5.14554 83.0131 5.35714 83.1863 5.63287C83.3594 5.90859 83.446 6.22279 83.446 6.57546C83.446 7.01148 83.3209 7.44751 83.0709 7.88354C82.8272 8.31957 82.436 8.78765 81.8974 9.2878C81.3652 9.78795 80.6471 10.3554 79.7429 10.9902L78.9061 10.5863ZM82.4553 11.7885C82.0898 11.7885 81.7211 11.7469 81.3492 11.6635C80.9773 11.5802 80.4707 11.4231 79.8295 11.1922L79.8006 11.1826C79.6147 11.375 79.4448 11.5096 79.2909 11.5866C79.1434 11.6699 78.9831 11.7116 78.81 11.7116C78.6368 11.7116 78.4894 11.6539 78.3675 11.5385C78.2521 11.4231 78.1944 11.282 78.1944 11.1153C78.1944 10.8395 78.3066 10.6151 78.531 10.442C78.7555 10.2689 79.0376 10.1823 79.3774 10.1823C79.5442 10.1823 79.7461 10.2112 79.9834 10.2689C80.2206 10.3202 80.5124 10.3971 80.8587 10.4997C81.269 10.6151 81.5928 10.7017 81.8301 10.7594C82.0673 10.8107 82.2757 10.8363 82.4553 10.8363L83.5133 10.2592C83.6031 10.4003 83.664 10.5189 83.696 10.6151C83.7345 10.7113 83.7537 10.8043 83.7537 10.8941C83.7537 11.0608 83.696 11.2147 83.5806 11.3557C83.4652 11.4904 83.3081 11.5962 83.1093 11.6731C82.9105 11.7501 82.6925 11.7885 82.4553 11.7885ZM86.103 13.0004C85.558 13.0004 85.1508 12.9267 84.8815 12.7792C84.6186 12.6317 84.4871 12.4105 84.4871 12.1156C84.4871 11.9296 84.5609 11.7757 84.7084 11.6539C84.8622 11.5321 85.0482 11.4711 85.2662 11.4711C85.4586 11.4711 85.6477 11.5417 85.8337 11.6827C86.0196 11.8238 86.1735 12.0162 86.2954 12.2598C86.6801 12.2598 87.0328 12.1861 87.3534 12.0386C87.674 11.8911 87.9273 11.6892 88.1132 11.4327C88.2992 11.1762 88.3921 10.8941 88.3921 10.5863C88.3921 10.3105 88.3152 10.0509 88.1613 9.80719C88.0138 9.55711 87.8343 9.40002 87.6227 9.33589C87.1995 9.61803 86.8404 9.7591 86.5454 9.7591C86.3723 9.7591 86.2248 9.7078 86.103 9.6052C85.9876 9.4962 85.9299 9.36475 85.9299 9.21086C85.9299 8.98643 86.0261 8.80689 86.2184 8.67223C86.4172 8.53758 86.6769 8.47025 86.9975 8.47025C87.4976 8.47025 87.9465 8.56002 88.3441 8.73956C88.7416 8.91269 89.0526 9.15315 89.277 9.46093C89.5015 9.76871 89.6137 10.1182 89.6137 10.5093C89.6137 10.9838 89.463 11.4102 89.1616 11.7885C88.8602 12.1669 88.4402 12.4618 87.9016 12.6734C87.3694 12.8914 86.7699 13.0004 86.103 13.0004ZM87.0167 8.76842C87.472 8.6017 87.8375 8.34842 88.1132 8.00858C88.3889 7.66873 88.5268 7.30003 88.5268 6.90248C88.5268 6.48569 88.4338 6.1747 88.2479 5.96951C88.0619 5.76432 87.7798 5.66172 87.4015 5.66172C87.145 5.66172 86.9077 5.73226 86.6897 5.87332C86.4781 6.00798 86.3018 6.19714 86.1607 6.4408C86.0261 6.67805 85.9491 6.94416 85.9299 7.23912C85.699 7.20705 85.5163 7.1237 85.3816 6.98904C85.2534 6.85439 85.1893 6.67805 85.1893 6.46004C85.1893 6.1266 85.2919 5.83164 85.4971 5.57516C85.7022 5.31867 85.994 5.11989 86.3723 4.97883C86.7506 4.83776 87.1867 4.76722 87.6804 4.76722C88.078 4.76722 88.4338 4.84417 88.748 4.99806C89.0622 5.15195 89.3059 5.36676 89.479 5.64249C89.6585 5.91821 89.7483 6.2292 89.7483 6.57546C89.7483 7.03072 89.5944 7.47637 89.2866 7.91239C88.9853 8.34201 88.5492 8.73636 87.9786 9.09544L87.0167 8.76842Z" fill="black"/>
<defs>
<linearGradient id="paint0_linear_126_829" x1="45.2242" y1="44.9805" x2="49.3685" y2="24.3642" gradientUnits="userSpaceOnUse">
<stop offset="1e-08" stop-color="#AE3353"/>
<stop offset="0.0887" stop-color="#AF3A50"/>
<stop offset="0.3713" stop-color="#B24D47"/>
<stop offset="0.6682" stop-color="#B45743"/>
<stop offset="1" stop-color="#B55B41"/>
</linearGradient>
<linearGradient id="paint1_linear_126_829" x1="19.7939" y1="29.3983" x2="68.4236" y2="29.3983" gradientUnits="userSpaceOnUse">
<stop offset="1e-08" stop-color="#AE3353"/>
<stop offset="0.0887" stop-color="#AF3A50"/>
<stop offset="0.3713" stop-color="#B24D47"/>
<stop offset="0.6682" stop-color="#B45743"/>
<stop offset="1" stop-color="#B55B41"/>
</linearGradient>
<linearGradient id="paint2_linear_126_829" x1="19.2246" y1="36.901" x2="65.4588" y2="36.901" gradientUnits="userSpaceOnUse">
<stop offset="1e-08" stop-color="#AE3353"/>
<stop offset="0.0887" stop-color="#AF3A50"/>
<stop offset="0.3713" stop-color="#B24D47"/>
<stop offset="0.6682" stop-color="#B45743"/>
<stop offset="1" stop-color="#B55B41"/>
</linearGradient>
<linearGradient id="paint3_linear_126_829" x1="21.1855" y1="43.2862" x2="60.1115" y2="43.2862" gradientUnits="userSpaceOnUse">
<stop offset="1e-08" stop-color="#AE3353"/>
<stop offset="0.0887" stop-color="#AF3A50"/>
<stop offset="0.3713" stop-color="#B24D47"/>
<stop offset="0.6682" stop-color="#B45743"/>
<stop offset="1" stop-color="#B55B41"/>
</linearGradient>
<linearGradient id="paint4_linear_126_829" x1="53.334" y1="57.7668" x2="54.6423" y2="61.9125" gradientUnits="userSpaceOnUse">
<stop stop-color="#8613D1"/>
<stop offset="0.1536" stop-color="#8816D2"/>
<stop offset="0.2867" stop-color="#8D21D4"/>
<stop offset="0.4122" stop-color="#9633D7"/>
<stop offset="0.5332" stop-color="#A34CDC"/>
<stop offset="0.6508" stop-color="#B46CE2"/>
<stop offset="0.7659" stop-color="#C894EA"/>
<stop offset="0.8791" stop-color="#E0C3F3"/>
<stop offset="0.9879" stop-color="#FCF9FE"/>
<stop offset="1" stop-color="white"/>
</linearGradient>
<linearGradient id="paint5_linear_126_829" x1="49.5082" y1="35.3335" x2="58.6082" y2="44.1479" gradientUnits="userSpaceOnUse">
<stop stop-color="#8613D1"/>
<stop offset="0.1536" stop-color="#8816D2"/>
<stop offset="0.2867" stop-color="#8D21D4"/>
<stop offset="0.4122" stop-color="#9633D7"/>
<stop offset="0.5332" stop-color="#A34CDC"/>
<stop offset="0.6508" stop-color="#B46CE2"/>
<stop offset="0.7659" stop-color="#C894EA"/>
<stop offset="0.8791" stop-color="#E0C3F3"/>
<stop offset="0.9879" stop-color="#FCF9FE"/>
<stop offset="1" stop-color="white"/>
</linearGradient>
<linearGradient id="paint6_linear_126_829" x1="61.5166" y1="46.2073" x2="67.2211" y2="33.1435" gradientUnits="userSpaceOnUse">
<stop offset="1e-08" stop-color="#EF9362"/>
<stop offset="0.1983" stop-color="#F5A75F"/>
<stop offset="0.4469" stop-color="#FBBA5D"/>
<stop offset="0.7081" stop-color="#FEC45B"/>
<stop offset="1" stop-color="#FFC85B"/>
</linearGradient>
<linearGradient id="paint7_linear_126_829" x1="64.5378" y1="39.818" x2="73.5047" y2="37.2647" gradientUnits="userSpaceOnUse">
<stop offset="1e-08" stop-color="#EF9362"/>
<stop offset="0.1983" stop-color="#F5A75F"/>
<stop offset="0.4469" stop-color="#FBBA5D"/>
<stop offset="0.7081" stop-color="#FEC45B"/>
<stop offset="1" stop-color="#FFC85B"/>
</linearGradient>
<linearGradient id="paint8_linear_126_829" x1="61.441" y1="40.8057" x2="76.7059" y2="36.459" gradientUnits="userSpaceOnUse">
<stop offset="1e-08" stop-color="#EF9362"/>
<stop offset="0.1983" stop-color="#F5A75F"/>
<stop offset="0.4469" stop-color="#FBBA5D"/>
<stop offset="0.7081" stop-color="#FEC45B"/>
<stop offset="1" stop-color="#FFC85B"/>
</linearGradient>
<linearGradient id="paint9_linear_126_829" x1="67.1027" y1="39.2203" x2="69.7345" y2="38.4709" gradientUnits="userSpaceOnUse">
<stop offset="1e-08" stop-color="#EF9362"/>
<stop offset="0.1983" stop-color="#F5A75F"/>
<stop offset="0.4469" stop-color="#FBBA5D"/>
<stop offset="0.7081" stop-color="#FEC45B"/>
<stop offset="1" stop-color="#FFC85B"/>
</linearGradient>
<linearGradient id="paint10_linear_126_829" x1="64.362" y1="29.5668" x2="67.2573" y2="49.1212" gradientUnits="userSpaceOnUse">
<stop stop-color="#8613D1"/>
<stop offset="0.0948" stop-color="#891AD2"/>
<stop offset="0.2279" stop-color="#932CD6"/>
<stop offset="0.3839" stop-color="#A24ADC"/>
<stop offset="0.5571" stop-color="#B874E4"/>
<stop offset="0.7445" stop-color="#D3AAEE"/>
<stop offset="0.941" stop-color="#F4EAFB"/>
<stop offset="1" stop-color="white"/>
</linearGradient>
<linearGradient id="paint11_linear_126_829" x1="59.2298" y1="39.0187" x2="59.2298" y2="44.4803" gradientUnits="userSpaceOnUse">
<stop stop-color="#8613D1"/>
<stop offset="0.1536" stop-color="#8816D2"/>
<stop offset="0.2867" stop-color="#8D21D4"/>
<stop offset="0.4122" stop-color="#9633D7"/>
<stop offset="0.5332" stop-color="#A34CDC"/>
<stop offset="0.6508" stop-color="#B46CE2"/>
<stop offset="0.7659" stop-color="#C894EA"/>
<stop offset="0.8791" stop-color="#E0C3F3"/>
<stop offset="0.9879" stop-color="#FCF9FE"/>
<stop offset="1" stop-color="white"/>
</linearGradient>
<linearGradient id="paint12_linear_126_829" x1="38.2011" y1="44.5641" x2="42.2896" y2="18.9061" gradientUnits="userSpaceOnUse">
<stop offset="1e-08" stop-color="#AE3353"/>
<stop offset="0.0887" stop-color="#AF3A50"/>
<stop offset="0.3713" stop-color="#B24D47"/>
<stop offset="0.6682" stop-color="#B45743"/>
<stop offset="1" stop-color="#B55B41"/>
</linearGradient>
<linearGradient id="paint13_linear_126_829" x1="20.7168" y1="25.5011" x2="55.7056" y2="25.5011" gradientUnits="userSpaceOnUse">
<stop offset="1e-08" stop-color="#AE3353"/>
<stop offset="0.0887" stop-color="#AF3A50"/>
<stop offset="0.3713" stop-color="#B24D47"/>
<stop offset="0.6682" stop-color="#B45743"/>
<stop offset="1" stop-color="#B55B41"/>
</linearGradient>
<linearGradient id="paint14_linear_126_829" x1="28.0459" y1="26.4194" x2="61.0507" y2="26.4194" gradientUnits="userSpaceOnUse">
<stop offset="1e-08" stop-color="#AE3353"/>
<stop offset="0.0887" stop-color="#AF3A50"/>
<stop offset="0.3713" stop-color="#B24D47"/>
<stop offset="0.6682" stop-color="#B45743"/>
<stop offset="1" stop-color="#B55B41"/>
</linearGradient>
<linearGradient id="paint15_linear_126_829" x1="31.7569" y1="32.3012" x2="63.282" y2="32.3012" gradientUnits="userSpaceOnUse">
<stop offset="1e-08" stop-color="#AE3353"/>
<stop offset="0.0887" stop-color="#AF3A50"/>
<stop offset="0.3713" stop-color="#B24D47"/>
<stop offset="0.6682" stop-color="#B45743"/>
<stop offset="1" stop-color="#B55B41"/>
</linearGradient>
<linearGradient id="paint16_linear_126_829" x1="39.123" y1="36.8753" x2="62.4955" y2="36.8753" gradientUnits="userSpaceOnUse">
<stop offset="1e-08" stop-color="#AE3353"/>
<stop offset="0.0887" stop-color="#AF3A50"/>
<stop offset="0.3713" stop-color="#B24D47"/>
<stop offset="0.6682" stop-color="#B45743"/>
<stop offset="1" stop-color="#B55B41"/>
</linearGradient>
<linearGradient id="paint17_linear_126_829" x1="50.4392" y1="42.94" x2="29.1759" y2="16.8031" gradientUnits="userSpaceOnUse">
<stop stop-color="#8613D1"/>
<stop offset="0.1536" stop-color="#8816D2"/>
<stop offset="0.2867" stop-color="#8D21D4"/>
<stop offset="0.4122" stop-color="#9633D7"/>
<stop offset="0.5332" stop-color="#A34CDC"/>
<stop offset="0.6508" stop-color="#B46CE2"/>
<stop offset="0.7659" stop-color="#C894EA"/>
<stop offset="0.8791" stop-color="#E0C3F3"/>
<stop offset="0.9879" stop-color="#FCF9FE"/>
<stop offset="1" stop-color="white"/>
</linearGradient>
<linearGradient id="paint18_linear_126_829" x1="27.0055" y1="53.792" x2="26.7616" y2="58.7864" gradientUnits="userSpaceOnUse">
<stop stop-color="#8613D1"/>
<stop offset="0.1536" stop-color="#8816D2"/>
<stop offset="0.2867" stop-color="#8D21D4"/>
<stop offset="0.4122" stop-color="#9633D7"/>
<stop offset="0.5332" stop-color="#A34CDC"/>
<stop offset="0.6508" stop-color="#B46CE2"/>
<stop offset="0.7659" stop-color="#C894EA"/>
<stop offset="0.8791" stop-color="#E0C3F3"/>
<stop offset="0.9879" stop-color="#FCF9FE"/>
<stop offset="1" stop-color="white"/>
</linearGradient>
<linearGradient id="paint19_linear_126_829" x1="25.5151" y1="47.722" x2="29.5527" y2="38.4756" gradientUnits="userSpaceOnUse">
<stop offset="1e-08" stop-color="#EF9362"/>
<stop offset="0.1983" stop-color="#F5A75F"/>
<stop offset="0.4469" stop-color="#FBBA5D"/>
<stop offset="0.7081" stop-color="#FEC45B"/>
<stop offset="1" stop-color="#FFC85B"/>
</linearGradient>
<linearGradient id="paint20_linear_126_829" x1="22.2892" y1="43.6852" x2="36.5562" y2="39.6227" gradientUnits="userSpaceOnUse">
<stop offset="1e-08" stop-color="#EF9362"/>
<stop offset="0.1983" stop-color="#F5A75F"/>
<stop offset="0.4469" stop-color="#FBBA5D"/>
<stop offset="0.7081" stop-color="#FEC45B"/>
<stop offset="1" stop-color="#FFC85B"/>
</linearGradient>
<linearGradient id="paint21_linear_126_829" x1="24.1385" y1="43.2659" x2="32.0677" y2="41.008" gradientUnits="userSpaceOnUse">
<stop offset="1e-08" stop-color="#EF9362"/>
<stop offset="0.1983" stop-color="#F5A75F"/>
<stop offset="0.4469" stop-color="#FBBA5D"/>
<stop offset="0.7081" stop-color="#FEC45B"/>
<stop offset="1" stop-color="#FFC85B"/>
</linearGradient>
<linearGradient id="paint22_linear_126_829" x1="26.0375" y1="42.8132" x2="28.651" y2="42.069" gradientUnits="userSpaceOnUse">
<stop offset="1e-08" stop-color="#EF9362"/>
<stop offset="0.1983" stop-color="#F5A75F"/>
<stop offset="0.4469" stop-color="#FBBA5D"/>
<stop offset="0.7081" stop-color="#FEC45B"/>
<stop offset="1" stop-color="#FFC85B"/>
</linearGradient>
<linearGradient id="paint23_linear_126_829" x1="27.7381" y1="43.3661" x2="20.9767" y2="68.8815" gradientUnits="userSpaceOnUse">
<stop stop-color="#8613D1"/>
<stop offset="0.1536" stop-color="#8816D2"/>
<stop offset="0.2867" stop-color="#8D21D4"/>
<stop offset="0.4122" stop-color="#9633D7"/>
<stop offset="0.5332" stop-color="#A34CDC"/>
<stop offset="0.6508" stop-color="#B46CE2"/>
<stop offset="0.7659" stop-color="#C894EA"/>
<stop offset="0.8791" stop-color="#E0C3F3"/>
<stop offset="0.9879" stop-color="#FCF9FE"/>
<stop offset="1" stop-color="white"/>
</linearGradient>
</defs>
</svg>
