<svg width="95" height="61" viewBox="0 0 95 61" fill="none" xmlns="http://www.w3.org/2000/svg">
<path d="M93.623 0.75V59.96H0.75V0.75H93.623Z" fill="#3BA15C" stroke="black" stroke-width="1.5"/>
<path d="M87.0149 11.7501C86.2839 11.7501 85.7036 11.593 85.274 11.2788C84.8508 10.9646 84.6392 10.5318 84.6392 9.98032C84.6392 9.71742 84.7001 9.46414 84.8219 9.22047C84.9437 8.9704 85.1618 8.71712 85.4759 8.46063C85.7901 8.20415 86.223 7.94766 86.7744 7.69117C87.2617 7.47316 87.6401 7.25515 87.9094 7.03713C88.1787 6.81271 88.3614 6.59469 88.4576 6.38309C88.5602 6.17149 88.6115 5.94706 88.6115 5.70981C88.6115 5.42768 88.5153 5.20325 88.3229 5.03654C88.137 4.86982 87.8805 4.78646 87.5535 4.78646C87.2008 4.78646 86.9091 4.87303 86.6782 5.04615C86.4538 5.21287 86.3416 5.45012 86.3416 5.7579C86.3416 5.97592 86.4089 6.1779 86.5436 6.36385C86.6782 6.54981 86.8449 6.71973 87.0437 6.87362C87.2489 7.02751 87.5246 7.21667 87.8709 7.4411C88.2813 7.704 88.6115 7.93484 88.8616 8.13361C89.1116 8.32598 89.3232 8.55361 89.4964 8.81651C89.6695 9.07941 89.7561 9.37437 89.7561 9.70139C89.7561 10.0989 89.6406 10.4548 89.4098 10.769C89.179 11.0768 88.8552 11.3173 88.4384 11.4904C88.0216 11.6635 87.5471 11.7501 87.0149 11.7501ZM87.111 10.9421C87.515 10.9421 87.8517 10.8428 88.121 10.644C88.3903 10.4388 88.5249 10.1534 88.5249 9.78795C88.5249 9.60841 88.4608 9.43528 88.3326 9.26857C88.2043 9.10185 88.0472 8.94796 87.8613 8.80689C87.6753 8.66582 87.4156 8.47987 87.0822 8.24903C86.659 7.9669 86.3159 7.72003 86.053 7.50843C85.7966 7.29682 85.5753 7.05316 85.3894 6.77744C85.2034 6.50172 85.1105 6.20034 85.1105 5.87332C85.1105 5.50142 85.2098 5.17119 85.4086 4.88264C85.6138 4.5941 85.9024 4.37288 86.2743 4.21898C86.6462 4.05868 87.0758 3.97853 87.5631 3.97853C88.2171 3.97853 88.7333 4.13563 89.1116 4.44982C89.49 4.76402 89.6791 5.18402 89.6791 5.70981C89.6791 6.14584 89.4932 6.56584 89.1213 6.9698C88.7494 7.36736 88.2171 7.72003 87.5246 8.02781C86.9732 8.27147 86.5307 8.56323 86.1973 8.90307C85.8703 9.24292 85.7068 9.602 85.7068 9.98032C85.7068 10.2689 85.8382 10.5029 86.1011 10.6824C86.364 10.8556 86.7007 10.9421 87.111 10.9421Z" fill="black"/>
</svg>
