<svg width="95" height="61" viewBox="0 0 95 61" fill="none" xmlns="http://www.w3.org/2000/svg">
<path d="M93.623 0.75V59.96H0.75V0.75H93.623Z" fill="#E1F5FB" stroke="black" stroke-width="1.5"/>
<path d="M92.8733 58.6613H1.5L7.76777 40.4527L14.03 31.0674L22.385 37.2559L28.6522 34.6427L35.9608 13.7583L46.924 3.46851L50.0576 10.6247L58.933 12.7169L62.587 23.6801L69.8956 28.3805L77.7302 47.1727L92.8733 58.6613Z" fill="white"/>
<path d="M64.4592 58.6613H1.5L7.76777 40.4527L14.03 31.0674L22.385 37.2559L28.6522 34.6427L35.9608 13.7583L46.924 3.46851L43.8796 12.5329L48.1649 22.4603L46.0245 31.0674L59.8059 36.5465L64.4592 58.6613Z" fill="#9BD6EA"/>
<path d="M28.652 34.6428L35.6796 40.7133L38.2423 51.2497L33.4472 41.2032L34.5307 52.965L29.9112 42.6736L24.0308 43.8042L22.3848 37.256L28.652 34.6428Z" fill="#BBE4F1"/>
<path d="M14.0303 31.0674L18.8205 58.6613L24.0313 43.8041L22.3853 37.2559L14.0303 31.0674Z" fill="#E6F5FA"/>
<path d="M50.0579 10.6248L43.8799 12.533L58.9333 12.717L50.0579 10.6248Z" fill="#9BD6EA"/>
<path d="M48.1648 22.4602V29.9317L57.6 26.1957L50.3718 31.0646L59.8058 36.5465L46.0244 31.0674L48.1648 22.4602Z" fill="#E6F5FA"/>
<path d="M77.7305 47.1729L69.9746 53.945L77.7305 50.5592L92.8736 58.6614L77.7305 47.1729Z" fill="#E6F5FA"/>
<path d="M69.8964 28.3806L69.9751 53.9449L64.4599 58.6614L59.8066 36.5466L69.8964 28.3806Z" fill="#BBE4F1"/>
<path d="M46.0244 31.0674V33.7909L52.9151 43.5209L49.8209 34.6427L59.8058 36.5465L46.0244 31.0674Z" fill="#BBE4F1"/>
<path d="M7.76777 40.4526L12.6982 58.6612H1.5L7.76777 40.4526Z" fill="#BBE4F1"/>
<path d="M56.803 58.6612L47.9537 41.1421L49.8203 49.5569L49.5759 54.5572L43.0205 56.0275L34.5303 58.6612H56.803Z" fill="#BBE4F1"/>
<path d="M35.961 13.7584L43.8798 12.533L37.3238 15.9653L28.6523 34.6428L35.961 13.7584Z" fill="#BBE4F1"/>
<path d="M48.1652 22.4603L58.9333 12.717L43.8799 12.533L48.1652 22.4603Z" fill="#E6F5FA"/>
<path d="M79.4885 12.9908C78.9435 12.9908 78.5427 12.9171 78.2862 12.7696C78.0297 12.6221 77.9015 12.3977 77.9015 12.0963C77.9015 11.9168 77.9784 11.7661 78.1323 11.6443C78.2926 11.5224 78.4818 11.4615 78.6998 11.4615C78.8922 11.4615 79.0781 11.5321 79.2577 11.6731C79.4436 11.8142 79.5975 12.0034 79.7193 12.2406C80.0912 12.2406 80.4311 12.1669 80.7389 12.0194C81.0531 11.8719 81.2999 11.6731 81.4795 11.4231C81.6654 11.1666 81.7584 10.8908 81.7584 10.5959C81.7584 10.3522 81.6943 10.115 81.566 9.88413C81.4442 9.6533 81.2486 9.46414 80.9793 9.31666C80.71 9.16277 80.3734 9.08582 79.9694 9.08582C79.8027 9.08582 79.6071 9.10826 79.3827 9.15315C79.2929 9.17238 79.2288 9.182 79.1903 9.182C79.1326 9.182 79.0845 9.15956 79.046 9.11467C79.0076 9.06979 78.9883 9.01849 78.9883 8.96078L79.5654 5.61363L80.5946 5.95989L80.1906 8.39331C80.7292 8.39331 81.2102 8.48308 81.6334 8.66262C82.063 8.84216 82.3964 9.09223 82.6337 9.41284C82.8773 9.73345 82.9992 10.0957 82.9992 10.4997C82.9992 10.9742 82.8453 11.4006 82.5375 11.7789C82.2361 12.1572 81.8161 12.4522 81.2775 12.6638C80.7453 12.8818 80.1489 12.9908 79.4885 12.9908ZM81.364 6.24844C80.5818 6.24844 80.0047 6.1747 79.6328 6.02722C79.2609 5.87974 79.0749 5.65531 79.0749 5.35394C79.0749 5.16157 79.1262 5.0173 79.2288 4.92112C79.3378 4.81852 79.4981 4.76722 79.7097 4.76722C79.8892 4.76722 80.0528 4.82814 80.2002 4.94997C80.3541 5.0718 80.4792 5.23211 80.5754 5.43088C80.9344 5.41165 81.3384 5.33791 81.7873 5.20966C82.2425 5.07501 82.685 4.90829 83.1146 4.70952C83.1595 4.77364 83.1915 4.8602 83.2108 4.96921C83.2364 5.0718 83.2492 5.18081 83.2492 5.29623C83.2492 5.52065 83.1659 5.7034 82.9992 5.84447C82.8388 5.98554 82.6176 6.08813 82.3355 6.15225C82.0598 6.21637 81.736 6.24844 81.364 6.24844ZM85.4435 13.0004C84.8985 13.0004 84.4913 12.9267 84.222 12.7792C83.9591 12.6317 83.8277 12.4105 83.8277 12.1156C83.8277 11.9296 83.9014 11.7757 84.0489 11.6539C84.2028 11.5321 84.3887 11.4711 84.6068 11.4711C84.7991 11.4711 84.9883 11.5417 85.1742 11.6827C85.3602 11.8238 85.5141 12.0162 85.6359 12.2598C86.0206 12.2598 86.3733 12.1861 86.6939 12.0386C87.0145 11.8911 87.2678 11.6892 87.4538 11.4327C87.6397 11.1762 87.7327 10.8941 87.7327 10.5863C87.7327 10.3105 87.6557 10.0509 87.5018 9.80719C87.3544 9.55711 87.1748 9.40002 86.9632 9.33589C86.54 9.61803 86.1809 9.7591 85.886 9.7591C85.7128 9.7591 85.5654 9.7078 85.4435 9.6052C85.3281 9.4962 85.2704 9.36475 85.2704 9.21086C85.2704 8.98643 85.3666 8.80689 85.559 8.67223C85.7577 8.53758 86.0174 8.47025 86.338 8.47025C86.8382 8.47025 87.287 8.56002 87.6846 8.73956C88.0821 8.91269 88.3931 9.15315 88.6176 9.46093C88.842 9.76871 88.9542 10.1182 88.9542 10.5093C88.9542 10.9838 88.8035 11.4102 88.5021 11.7885C88.2008 12.1669 87.7808 12.4618 87.2422 12.6734C86.7099 12.8914 86.1104 13.0004 85.4435 13.0004ZM86.3573 8.76842C86.8125 8.6017 87.178 8.34842 87.4538 8.00858C87.7295 7.66873 87.8673 7.30003 87.8673 6.90248C87.8673 6.48569 87.7744 6.1747 87.5884 5.96951C87.4025 5.76432 87.1203 5.66172 86.742 5.66172C86.4855 5.66172 86.2483 5.73226 86.0303 5.87332C85.8186 6.00798 85.6423 6.19714 85.5012 6.4408C85.3666 6.67805 85.2896 6.94416 85.2704 7.23912C85.0396 7.20705 84.8568 7.1237 84.7222 6.98904C84.5939 6.85439 84.5298 6.67805 84.5298 6.46004C84.5298 6.1266 84.6324 5.83164 84.8376 5.57516C85.0428 5.31867 85.3345 5.11989 85.7128 4.97883C86.0912 4.83776 86.5272 4.76722 87.0209 4.76722C87.4185 4.76722 87.7744 4.84417 88.0886 4.99806C88.4028 5.15195 88.6464 5.36676 88.8195 5.64249C88.9991 5.91821 89.0889 6.2292 89.0889 6.57546C89.0889 7.03072 88.935 7.47637 88.6272 7.91239C88.3258 8.34201 87.8898 8.73636 87.3191 9.09544L86.3573 8.76842Z" fill="black"/>
</svg>
