<svg width="95" height="61" viewBox="0 0 95 61" fill="none" xmlns="http://www.w3.org/2000/svg">
<path d="M93.623 0.75V59.96H0.75V0.75H93.623Z" fill="#FFC270" stroke="black" stroke-width="1.5"/>
<path d="M78.7841 12.962C78.566 12.962 78.3929 12.9203 78.2647 12.8369C78.1428 12.76 78.0402 12.6157 77.9569 12.4041C78.425 12.231 78.8674 12.0162 79.2842 11.7597C79.7074 11.5032 80.1242 11.1377 80.5346 10.6632C80.945 10.1823 81.2976 9.57956 81.5926 8.85498H81.5349C81.2656 9.21406 80.9802 9.46734 80.6788 9.61482C80.3775 9.75589 80.0569 9.82642 79.717 9.82642C79.2938 9.82642 78.9283 9.73024 78.6205 9.53788C78.3192 9.34551 78.0883 9.08261 77.928 8.74918C77.7741 8.40934 77.6972 8.02781 77.6972 7.60461C77.6972 7.0724 77.8318 6.59149 78.1012 6.16187C78.3769 5.72584 78.7392 5.386 79.188 5.14234C79.6433 4.89226 80.1338 4.76722 80.6596 4.76722C81.3521 4.76722 81.9068 4.99486 82.3236 5.45012C82.7468 5.89897 82.9584 6.55301 82.9584 7.41224C82.9584 8.34201 82.7275 9.23651 82.2659 10.0957C81.8106 10.9486 81.2495 11.6379 80.5827 12.1637C79.9222 12.6959 79.3227 12.962 78.7841 12.962ZM80.2556 9.06658C80.4737 9.06658 80.6981 8.98964 80.9289 8.83574C81.1598 8.68185 81.3521 8.45743 81.506 8.16247C81.6599 7.86751 81.7369 7.51484 81.7369 7.10446C81.7369 6.65561 81.6375 6.2805 81.4387 5.97912C81.2463 5.67134 80.9385 5.51745 80.5153 5.51745C80.2781 5.51745 80.0344 5.5976 79.7843 5.7579C79.5407 5.91821 79.3355 6.15867 79.1688 6.47927C79.0021 6.79347 78.9187 7.17179 78.9187 7.61423C78.9187 8.02461 79.0213 8.37086 79.2265 8.653C79.4381 8.92872 79.7811 9.06658 80.2556 9.06658ZM85.4838 12.9908C84.9388 12.9908 84.538 12.9171 84.2816 12.7696C84.0251 12.6221 83.8968 12.3977 83.8968 12.0963C83.8968 11.9168 83.9738 11.7661 84.1277 11.6443C84.288 11.5224 84.4771 11.4615 84.6951 11.4615C84.8875 11.4615 85.0735 11.5321 85.253 11.6731C85.439 11.8142 85.5928 12.0034 85.7147 12.2406C86.0866 12.2406 86.4264 12.1669 86.7342 12.0194C87.0484 11.8719 87.2953 11.6731 87.4748 11.4231C87.6608 11.1666 87.7537 10.8908 87.7537 10.5959C87.7537 10.3522 87.6896 10.115 87.5614 9.88413C87.4395 9.6533 87.244 9.46414 86.9747 9.31666C86.7054 9.16277 86.3687 9.08582 85.9648 9.08582C85.798 9.08582 85.6025 9.10826 85.378 9.15315C85.2883 9.17238 85.2241 9.182 85.1857 9.182C85.128 9.182 85.0799 9.15956 85.0414 9.11467C85.0029 9.06979 84.9837 9.01849 84.9837 8.96078L85.5608 5.61363L86.5899 5.95989L86.186 8.39331C86.7246 8.39331 87.2055 8.48308 87.6287 8.66262C88.0583 8.84216 88.3918 9.09223 88.629 9.41284C88.8727 9.73345 88.9945 10.0957 88.9945 10.4997C88.9945 10.9742 88.8406 11.4006 88.5328 11.7789C88.2315 12.1572 87.8115 12.4522 87.2728 12.6638C86.7406 12.8818 86.1443 12.9908 85.4838 12.9908ZM87.3594 6.24844C86.5771 6.24844 86 6.1747 85.6281 6.02722C85.2562 5.87974 85.0703 5.65531 85.0703 5.35394C85.0703 5.16157 85.1216 5.0173 85.2241 4.92112C85.3332 4.81852 85.4935 4.76722 85.7051 4.76722C85.8846 4.76722 86.0481 4.82814 86.1956 4.94997C86.3495 5.0718 86.4745 5.23211 86.5707 5.43088C86.9298 5.41165 87.3337 5.33791 87.7826 5.20966C88.2379 5.07501 88.6803 4.90829 89.1099 4.70952C89.1548 4.77364 89.1869 4.8602 89.2061 4.96921C89.2317 5.0718 89.2446 5.18081 89.2446 5.29623C89.2446 5.52065 89.1612 5.7034 88.9945 5.84447C88.8342 5.98554 88.613 6.08813 88.3308 6.15225C88.0551 6.21637 87.7313 6.24844 87.3594 6.24844Z" fill="black"/>
</svg>
