<svg width="95" height="61" viewBox="0 0 95 61" fill="none" xmlns="http://www.w3.org/2000/svg">
<path d="M93.623 0.75V59.96H0.75V0.75H93.623Z" fill="#D9D9D9" stroke="black" stroke-width="1.5"/>
<path d="M78.579 11.5C78.0788 11.5 77.7133 11.4295 77.4825 11.2884C77.2517 11.1473 77.1362 10.9261 77.1362 10.6247C77.1362 10.426 77.2068 10.1791 77.3479 9.88413C77.4889 9.58276 77.7198 9.14994 78.0404 8.58567C78.3161 8.11117 78.5373 7.71041 78.704 7.38339C78.8772 7.05637 79.0246 6.72294 79.1465 6.38309C79.2683 6.03683 79.3292 5.72264 79.3292 5.4405C79.3292 5.28661 79.3036 5.11669 79.2523 4.93074C79.3741 4.87303 79.4895 4.83135 79.5985 4.8057C79.7075 4.78005 79.8197 4.76722 79.9352 4.76722C80.4545 4.76722 80.7142 5.08142 80.7142 5.70981C80.7142 6.2805 80.4834 6.9698 80.0217 7.77774C79.5665 8.57926 78.8707 9.51864 77.9346 10.5959H81.1278L80.8489 11.3173C80.5539 11.3686 80.1916 11.4134 79.762 11.4519C79.3324 11.484 78.9381 11.5 78.579 11.5ZM81.3971 13.1351C81.1342 13.1351 80.929 13.0485 80.7816 12.8754C80.6405 12.7087 80.57 12.4682 80.57 12.154C80.57 11.8398 80.6597 11.3269 80.8393 10.6151C81.0252 9.90337 81.2753 9.08261 81.5895 8.15285C81.6985 8.06949 81.8235 8.00216 81.9646 7.95087C82.1057 7.89957 82.2371 7.87392 82.359 7.87392C82.468 7.87392 82.5449 7.89316 82.5898 7.93163C82.6347 7.96369 82.6571 8.0214 82.6571 8.10476C82.6571 8.18812 82.6379 8.31636 82.5994 8.48949C82.5609 8.66262 82.5161 8.85178 82.4648 9.05696C82.3237 9.58276 82.2083 10.0765 82.1185 10.5382C82.0351 10.9934 81.9935 11.4455 81.9935 11.8943C81.9935 12.3176 82.0704 12.6542 82.2243 12.9043C82.0576 12.9876 81.9133 13.0453 81.7915 13.0774C81.6697 13.1159 81.5382 13.1351 81.3971 13.1351ZM85.0115 12.962C84.7935 12.962 84.6203 12.9203 84.4921 12.8369C84.3703 12.76 84.2677 12.6157 84.1843 12.4041C84.6524 12.231 85.0948 12.0162 85.5116 11.7597C85.9348 11.5032 86.3516 11.1377 86.762 10.6632C87.1724 10.1823 87.5251 9.57956 87.82 8.85498H87.7623C87.493 9.21406 87.2077 9.46734 86.9063 9.61482C86.6049 9.75589 86.2843 9.82642 85.9445 9.82642C85.5213 9.82642 85.1558 9.73024 84.848 9.53788C84.5466 9.34551 84.3158 9.08261 84.1555 8.74918C84.0016 8.40934 83.9246 8.02781 83.9246 7.60461C83.9246 7.0724 84.0593 6.59149 84.3286 6.16187C84.6043 5.72584 84.9666 5.386 85.4155 5.14234C85.8707 4.89226 86.3613 4.76722 86.8871 4.76722C87.5796 4.76722 88.1342 4.99486 88.551 5.45012C88.9742 5.89897 89.1858 6.55301 89.1858 7.41224C89.1858 8.34201 88.955 9.23651 88.4933 10.0957C88.038 10.9486 87.477 11.6379 86.8101 12.1637C86.1497 12.6959 85.5501 12.962 85.0115 12.962ZM86.4831 9.06658C86.7011 9.06658 86.9255 8.98964 87.1564 8.83574C87.3872 8.68185 87.5796 8.45743 87.7335 8.16247C87.8873 7.86751 87.9643 7.51484 87.9643 7.10446C87.9643 6.65561 87.8649 6.2805 87.6661 5.97912C87.4738 5.67134 87.166 5.51745 86.7428 5.51745C86.5055 5.51745 86.2619 5.5976 86.0118 5.7579C85.7681 5.91821 85.5629 6.15867 85.3962 6.47927C85.2295 6.79347 85.1461 7.17179 85.1461 7.61423C85.1461 8.02461 85.2487 8.37086 85.4539 8.653C85.6655 8.92872 86.0086 9.06658 86.4831 9.06658Z" fill="black"/>
</svg>
