<svg width="95" height="62" viewBox="0 0 95 62" fill="none" xmlns="http://www.w3.org/2000/svg">
<path d="M93.623 0.75V59.96H0.75V0.75H93.623Z" fill="#FFC270" stroke="black" stroke-width="1.5"/>
<path d="M78.3708 12.962C78.1528 12.962 77.9796 12.9203 77.8514 12.8369C77.7295 12.76 77.627 12.6157 77.5436 12.4041C78.0117 12.231 78.4541 12.0162 78.8709 11.7597C79.2941 11.5032 79.7109 11.1377 80.1213 10.6632C80.5317 10.1823 80.8843 9.57956 81.1793 8.85498H81.1216C80.8523 9.21406 80.5669 9.46734 80.2656 9.61482C79.9642 9.75589 79.6436 9.82642 79.3037 9.82642C78.8805 9.82642 78.515 9.73024 78.2073 9.53788C77.9059 9.34551 77.675 9.08261 77.5147 8.74918C77.3609 8.40934 77.2839 8.02781 77.2839 7.60461C77.2839 7.0724 77.4186 6.59149 77.6879 6.16187C77.9636 5.72584 78.3259 5.386 78.7747 5.14234C79.23 4.89226 79.7205 4.76722 80.2463 4.76722C80.9388 4.76722 81.4935 4.99486 81.9103 5.45012C82.3335 5.89897 82.5451 6.55301 82.5451 7.41224C82.5451 8.34201 82.3142 9.23651 81.8526 10.0957C81.3973 10.9486 80.8362 11.6379 80.1694 12.1637C79.5089 12.6959 78.9094 12.962 78.3708 12.962ZM79.8424 9.06658C80.0604 9.06658 80.2848 8.98964 80.5156 8.83574C80.7465 8.68185 80.9388 8.45743 81.0927 8.16247C81.2466 7.86751 81.3236 7.51484 81.3236 7.10446C81.3236 6.65561 81.2242 6.2805 81.0254 5.97912C80.833 5.67134 80.5253 5.51745 80.1021 5.51745C79.8648 5.51745 79.6211 5.5976 79.3711 5.7579C79.1274 5.91821 78.9222 6.15867 78.7555 6.47927C78.5888 6.79347 78.5054 7.17179 78.5054 7.61423C78.5054 8.02461 78.608 8.37086 78.8132 8.653C79.0248 8.92872 79.3679 9.06658 79.8424 9.06658ZM86.3594 11.7405C85.6669 11.7405 85.109 11.516 84.6858 11.0672C84.269 10.6119 84.0606 9.95467 84.0606 9.09544C84.0606 8.16567 84.2883 7.27438 84.7435 6.42156C85.2052 5.56233 85.7663 4.86982 86.4267 4.34402C87.0936 3.81181 87.6963 3.54571 88.235 3.54571C88.453 3.54571 88.6229 3.58739 88.7447 3.67074C88.873 3.74769 88.982 3.89196 89.0717 4.10357C88.6037 4.27669 88.158 4.4915 87.7348 4.74799C87.318 5.00447 86.9012 5.36997 86.4844 5.84447C86.0741 6.31897 85.7214 6.92171 85.4264 7.6527H85.4841C85.7534 7.29362 86.0388 7.04354 86.3402 6.90248C86.6415 6.755 86.9621 6.68126 87.302 6.68126C87.7252 6.68126 88.0875 6.77744 88.3889 6.9698C88.6966 7.16217 88.9275 7.42507 89.0814 7.7585C89.2417 8.09193 89.3218 8.47346 89.3218 8.90307C89.3218 9.42887 89.184 9.90978 88.9082 10.3458C88.6389 10.7818 88.2766 11.1249 87.8214 11.375C87.3661 11.6186 86.8788 11.7405 86.3594 11.7405ZM86.5037 10.9902C86.7409 10.9902 86.9814 10.9101 87.225 10.7498C87.4687 10.5895 87.6739 10.3522 87.8406 10.038C88.0073 9.71742 88.0907 9.33589 88.0907 8.89345C88.0907 8.48308 87.9881 8.14002 87.7829 7.8643C87.5777 7.58217 87.2379 7.4411 86.7634 7.4411C86.5454 7.4411 86.3209 7.51804 86.0901 7.67194C85.8593 7.82583 85.6669 8.05025 85.513 8.34521C85.3591 8.64017 85.2822 8.99284 85.2822 9.40322C85.2822 9.85207 85.3783 10.2304 85.5707 10.5382C85.7631 10.8395 86.0741 10.9902 86.5037 10.9902Z" fill="black"/>
<path d="M64.0683 51.928C61.8368 49.0026 58.0554 47.691 54.5656 47.0781C51.1673 46.5602 47.5949 46.2618 44.8712 43.9396C42.2906 41.8033 40.3624 38.7198 38.41 35.9585L27.2013 2.33651C27.1303 2.10523 26.9035 1.96148 26.6648 1.98958L1.64529 4.34226C1.36777 4.36944 1.15805 4.608 1.17476 4.88557L2.49057 30.0131C2.50505 30.253 2.68386 30.4514 2.92182 30.4935L37.6653 36.6217C38.185 37.5302 39.6915 39.5813 40.6052 40.7765C43.1676 44.5482 47.1703 47.397 51.8154 47.6828C54.3988 47.9511 56.9342 48.5748 59.3493 49.5362C64.0291 51.8944 66.8173 56.7086 69.4396 61.1138C68.0827 57.8165 66.2738 54.7242 64.068 51.9266L64.0683 51.928ZM13.9136 14.6855C16.7963 11.3951 19.9702 8.36656 23.3946 5.64511L25.0389 4.04156C25.3971 3.72494 25.7175 3.40007 26.1039 3.06344L26.371 3.03629L36.8682 34.5283C30.1501 28.802 21.7709 21.3632 13.9136 14.6855ZM13.1277 14.0556C13.1161 14.0457 13.1045 14.0359 13.0929 14.026C9.33872 10.8323 5.64969 7.82982 2.33937 5.34225L25.6388 3.14671L25.6398 3.14985C23.3166 4.43 21.1578 5.99034 19.2146 7.79605C17.0517 9.74774 15.0052 11.8276 13.0929 14.026C13.0904 14.0289 13.0879 14.0318 13.0854 14.0347L13.1277 14.0556ZM2.23904 5.38683C5.21638 8.29483 8.70801 11.4838 12.4358 14.7821L12.4327 14.7832C10.5445 17.0004 8.78963 19.3335 7.17981 21.7645C6.5442 22.7202 5.32761 24.6899 4.74349 25.684C4.30827 26.7259 3.88873 27.7625 3.48494 28.7937L2.23904 5.38683ZM3.50443 29.2765C6.70931 24.6608 9.47803 19.7061 13.1715 15.4809C20.916 22.3121 29.5303 29.4827 36.1812 35.3223L3.51986 29.5399L3.50443 29.2765Z" fill="white"/>
<path d="M3.50443 29.2765C6.70931 24.6608 9.47803 19.7061 13.1715 15.4809C20.916 22.3121 29.5303 29.4827 36.1812 35.3223L3.51986 29.5399L3.50443 29.2765Z" fill="#E71712"/>
<path d="M2.23904 5.38683C5.21638 8.29483 8.70801 11.4838 12.4358 14.7821L12.4327 14.7832C10.5445 17.0004 8.78963 19.3335 7.17981 21.7645C6.5442 22.7202 5.32761 24.6899 4.74349 25.684C4.30827 26.7259 3.88873 27.7625 3.48494 28.7937L2.23904 5.38683Z" fill="#E71712"/>
<path d="M13.9136 14.6855C16.7963 11.3951 19.9702 8.36656 23.3946 5.64511L25.0389 4.04156C25.3971 3.72494 25.7175 3.40007 26.1039 3.06344L26.371 3.03629L36.8682 34.5283C30.1501 28.802 21.7709 21.3632 13.9136 14.6855Z" fill="white"/>
<path d="M2.33937 5.34225C5.64969 7.82982 9.33872 10.8323 13.0929 14.026C15.0052 11.8276 17.0517 9.74774 19.2146 7.79605C21.1578 5.99034 23.3166 4.43 25.6398 3.14985L25.6388 3.14671L2.33937 5.34225Z" fill="#0032A0"/>
</svg>
