<svg width="95" height="61" viewBox="0 0 95 61" fill="none" xmlns="http://www.w3.org/2000/svg">
<path d="M93.623 0.75V59.96H0.75V0.75H93.623Z" fill="#3BA15C" stroke="black" stroke-width="1.5"/>
<path d="M85.7182 11.5C85.2181 11.5 84.8526 11.4295 84.6217 11.2884C84.3909 11.1473 84.2755 10.9261 84.2755 10.6247C84.2755 10.426 84.346 10.1791 84.4871 9.88413C84.6281 9.58276 84.859 9.14994 85.1796 8.58567C85.4553 8.11117 85.6765 7.71041 85.8432 7.38339C86.0164 7.05637 86.1639 6.72294 86.2857 6.38309C86.4075 6.03683 86.4684 5.72264 86.4684 5.4405C86.4684 5.28661 86.4428 5.11669 86.3915 4.93074C86.5133 4.87303 86.6287 4.83135 86.7377 4.8057C86.8467 4.78005 86.959 4.76722 87.0744 4.76722C87.5938 4.76722 87.8535 5.08142 87.8535 5.70981C87.8535 6.2805 87.6226 6.9698 87.1609 7.77774C86.7057 8.57926 86.01 9.51864 85.0738 10.5959H88.267L87.9881 11.3173C87.6932 11.3686 87.3309 11.4134 86.9013 11.4519C86.4716 11.484 86.0773 11.5 85.7182 11.5ZM88.5364 13.1351C88.2735 13.1351 88.0683 13.0485 87.9208 12.8754C87.7797 12.7087 87.7092 12.4682 87.7092 12.154C87.7092 11.8398 87.799 11.3269 87.9785 10.6151C88.1644 9.90337 88.4145 9.08261 88.7287 8.15285C88.8377 8.06949 88.9628 8.00216 89.1038 7.95087C89.2449 7.89957 89.3763 7.87392 89.4982 7.87392C89.6072 7.87392 89.6841 7.89316 89.729 7.93163C89.7739 7.96369 89.7963 8.0214 89.7963 8.10476C89.7963 8.18812 89.7771 8.31636 89.7386 8.48949C89.7002 8.66262 89.6553 8.85178 89.604 9.05696C89.4629 9.58276 89.3475 10.0765 89.2577 10.5382C89.1744 10.9934 89.1327 11.4455 89.1327 11.8943C89.1327 12.3176 89.2096 12.6542 89.3635 12.9043C89.1968 12.9876 89.0525 13.0453 88.9307 13.0774C88.8089 13.1159 88.6774 13.1351 88.5364 13.1351Z" fill="black"/>
</svg>
