<svg width="95" height="61" viewBox="0 0 95 61" fill="none" xmlns="http://www.w3.org/2000/svg">
<path d="M93.623 0.75V59.96H0.75V0.75H93.623Z" fill="#D9D9D9" stroke="black" stroke-width="1.5"/>
<path d="M79.1774 11.5C78.6772 11.5 78.3118 11.4295 78.0809 11.2884C77.8501 11.1473 77.7347 10.9261 77.7347 10.6247C77.7347 10.426 77.8052 10.1791 77.9463 9.88413C78.0873 9.58276 78.3182 9.14994 78.6388 8.58567C78.9145 8.11117 79.1357 7.71041 79.3024 7.38339C79.4756 7.05637 79.623 6.72294 79.7449 6.38309C79.8667 6.03683 79.9276 5.72264 79.9276 5.4405C79.9276 5.28661 79.902 5.11669 79.8507 4.93074C79.9725 4.87303 80.0879 4.83135 80.1969 4.8057C80.3059 4.78005 80.4182 4.76722 80.5336 4.76722C81.053 4.76722 81.3127 5.08142 81.3127 5.70981C81.3127 6.2805 81.0818 6.9698 80.6201 7.77774C80.1649 8.57926 79.4692 9.51864 78.533 10.5959H81.7262L81.4473 11.3173C81.1523 11.3686 80.7901 11.4134 80.3604 11.4519C79.9308 11.484 79.5365 11.5 79.1774 11.5ZM81.9955 13.1351C81.7326 13.1351 81.5275 13.0485 81.38 12.8754C81.2389 12.7087 81.1684 12.4682 81.1684 12.154C81.1684 11.8398 81.2581 11.3269 81.4377 10.6151C81.6236 9.90337 81.8737 9.08261 82.1879 8.15285C82.2969 8.06949 82.422 8.00216 82.563 7.95087C82.7041 7.89957 82.8355 7.87392 82.9574 7.87392C83.0664 7.87392 83.1433 7.89316 83.1882 7.93163C83.2331 7.96369 83.2555 8.0214 83.2555 8.10476C83.2555 8.18812 83.2363 8.31636 83.1978 8.48949C83.1594 8.66262 83.1145 8.85178 83.0632 9.05696C82.9221 9.58276 82.8067 10.0765 82.7169 10.5382C82.6336 10.9934 82.5919 11.4455 82.5919 11.8943C82.5919 12.3176 82.6688 12.6542 82.8227 12.9043C82.656 12.9876 82.5117 13.0453 82.3899 13.0774C82.2681 13.1159 82.1366 13.1351 81.9955 13.1351ZM86.8987 11.7501C86.1678 11.7501 85.5875 11.593 85.1578 11.2788C84.7346 10.9646 84.523 10.5318 84.523 9.98032C84.523 9.71742 84.584 9.46414 84.7058 9.22047C84.8276 8.9704 85.0456 8.71712 85.3598 8.46063C85.674 8.20415 86.1068 7.94766 86.6583 7.69117C87.1456 7.47316 87.5239 7.25515 87.7932 7.03713C88.0626 6.81271 88.2453 6.59469 88.3415 6.38309C88.4441 6.17149 88.4954 5.94706 88.4954 5.70981C88.4954 5.42768 88.3992 5.20325 88.2068 5.03654C88.0209 4.86982 87.7644 4.78646 87.4374 4.78646C87.0847 4.78646 86.7929 4.87303 86.5621 5.04615C86.3377 5.21287 86.2255 5.45012 86.2255 5.7579C86.2255 5.97592 86.2928 6.1779 86.4275 6.36385C86.5621 6.54981 86.7288 6.71973 86.9276 6.87362C87.1328 7.02751 87.4085 7.21667 87.7548 7.4411C88.1652 7.704 88.4954 7.93484 88.7455 8.13361C88.9955 8.32598 89.2071 8.55361 89.3803 8.81651C89.5534 9.07941 89.64 9.37437 89.64 9.70139C89.64 10.0989 89.5245 10.4548 89.2937 10.769C89.0629 11.0768 88.739 11.3173 88.3223 11.4904C87.9055 11.6635 87.431 11.7501 86.8987 11.7501ZM86.9949 10.9421C87.3989 10.9421 87.7355 10.8428 88.0048 10.644C88.2742 10.4388 88.4088 10.1534 88.4088 9.78795C88.4088 9.60841 88.3447 9.43528 88.2164 9.26857C88.0882 9.10185 87.9311 8.94796 87.7452 8.80689C87.5592 8.66582 87.2995 8.47987 86.9661 8.24903C86.5429 7.9669 86.1998 7.72003 85.9369 7.50843C85.6804 7.29682 85.4592 7.05316 85.2733 6.77744C85.0873 6.50172 84.9943 6.20034 84.9943 5.87332C84.9943 5.50142 85.0937 5.17119 85.2925 4.88264C85.4977 4.5941 85.7862 4.37288 86.1581 4.21898C86.5301 4.05868 86.9597 3.97853 87.447 3.97853C88.101 3.97853 88.6172 4.13563 88.9955 4.44982C89.3738 4.76402 89.563 5.18402 89.563 5.70981C89.563 6.14584 89.3771 6.56584 89.0051 6.9698C88.6332 7.36736 88.101 7.72003 87.4085 8.02781C86.8571 8.27147 86.4146 8.56323 86.0812 8.90307C85.7542 9.24292 85.5907 9.602 85.5907 9.98032C85.5907 10.2689 85.7221 10.5029 85.985 10.6824C86.2479 10.8556 86.5846 10.9421 86.9949 10.9421Z" fill="black"/>
</svg>
