<svg width="95" height="61" viewBox="0 0 95 61" fill="none" xmlns="http://www.w3.org/2000/svg">
<path d="M93.623 0.75V59.96H0.75V0.75H93.623Z" fill="#D9D9D9" stroke="black" stroke-width="1.5"/>
<path d="M78.9417 12.9908C78.3967 12.9908 77.9959 12.9171 77.7395 12.7696C77.483 12.6221 77.3547 12.3977 77.3547 12.0963C77.3547 11.9168 77.4317 11.7661 77.5856 11.6443C77.7459 11.5224 77.935 11.4615 78.153 11.4615C78.3454 11.4615 78.5314 11.5321 78.7109 11.6731C78.8969 11.8142 79.0507 12.0034 79.1726 12.2406C79.5445 12.2406 79.8843 12.1669 80.1921 12.0194C80.5063 11.8719 80.7532 11.6731 80.9327 11.4231C81.1187 11.1666 81.2116 10.8908 81.2116 10.5959C81.2116 10.3522 81.1475 10.115 81.0193 9.88413C80.8974 9.6533 80.7019 9.46414 80.4326 9.31666C80.1633 9.16277 79.8266 9.08582 79.4227 9.08582C79.2559 9.08582 79.0604 9.10826 78.8359 9.15315C78.7462 9.17238 78.682 9.182 78.6436 9.182C78.5859 9.182 78.5378 9.15956 78.4993 9.11467C78.4608 9.06979 78.4416 9.01849 78.4416 8.96078L79.0187 5.61363L80.0478 5.95989L79.6439 8.39331C80.1825 8.39331 80.6634 8.48308 81.0866 8.66262C81.5162 8.84216 81.8497 9.09223 82.0869 9.41284C82.3306 9.73345 82.4524 10.0957 82.4524 10.4997C82.4524 10.9742 82.2985 11.4006 81.9907 11.7789C81.6894 12.1572 81.2694 12.4522 80.7307 12.6638C80.1985 12.8818 79.6022 12.9908 78.9417 12.9908ZM80.8173 6.24844C80.035 6.24844 79.4579 6.1747 79.086 6.02722C78.7141 5.87974 78.5282 5.65531 78.5282 5.35394C78.5282 5.16157 78.5795 5.0173 78.682 4.92112C78.7911 4.81852 78.9514 4.76722 79.163 4.76722C79.3425 4.76722 79.506 4.82814 79.6535 4.94997C79.8074 5.0718 79.9324 5.23211 80.0286 5.43088C80.3877 5.41165 80.7916 5.33791 81.2405 5.20966C81.6958 5.07501 82.1382 4.90829 82.5678 4.70952C82.6127 4.77364 82.6448 4.8602 82.664 4.96921C82.6896 5.0718 82.7025 5.18081 82.7025 5.29623C82.7025 5.52065 82.6191 5.7034 82.4524 5.84447C82.2921 5.98554 82.0709 6.08813 81.7887 6.15225C81.513 6.21637 81.1892 6.24844 80.8173 6.24844ZM84.8487 11.5C84.3485 11.5 83.9831 11.4295 83.7522 11.2884C83.5214 11.1473 83.406 10.9261 83.406 10.6247C83.406 10.426 83.4765 10.1791 83.6176 9.88413C83.7586 9.58276 83.9895 9.14994 84.3101 8.58567C84.5858 8.11117 84.807 7.71041 84.9737 7.38339C85.1469 7.05637 85.2943 6.72294 85.4162 6.38309C85.538 6.03683 85.5989 5.72264 85.5989 5.4405C85.5989 5.28661 85.5733 5.11669 85.522 4.93074C85.6438 4.87303 85.7592 4.83135 85.8682 4.8057C85.9772 4.78005 86.0894 4.76722 86.2049 4.76722C86.7243 4.76722 86.9839 5.08142 86.9839 5.70981C86.9839 6.2805 86.7531 6.9698 86.2914 7.77774C85.8362 8.57926 85.1404 9.51864 84.2043 10.5959H87.3975L87.1186 11.3173C86.8236 11.3686 86.4614 11.4134 86.0317 11.4519C85.6021 11.484 85.2078 11.5 84.8487 11.5ZM87.6668 13.1351C87.4039 13.1351 87.1988 13.0485 87.0513 12.8754C86.9102 12.7087 86.8397 12.4682 86.8397 12.154C86.8397 11.8398 86.9294 11.3269 87.109 10.6151C87.2949 9.90337 87.545 9.08261 87.8592 8.15285C87.9682 8.06949 88.0933 8.00216 88.2343 7.95087C88.3754 7.89957 88.5068 7.87392 88.6287 7.87392C88.7377 7.87392 88.8146 7.89316 88.8595 7.93163C88.9044 7.96369 88.9268 8.0214 88.9268 8.10476C88.9268 8.18812 88.9076 8.31636 88.8691 8.48949C88.8307 8.66262 88.7858 8.85178 88.7345 9.05696C88.5934 9.58276 88.478 10.0765 88.3882 10.5382C88.3049 10.9934 88.2632 11.4455 88.2632 11.8943C88.2632 12.3176 88.3401 12.6542 88.494 12.9043C88.3273 12.9876 88.183 13.0453 88.0612 13.0774C87.9394 13.1159 87.8079 13.1351 87.6668 13.1351Z" fill="black"/>
</svg>
