<svg width="95" height="61" viewBox="0 0 95 61" fill="none" xmlns="http://www.w3.org/2000/svg">
<path d="M93.623 0.75V59.96H0.75V0.75H93.623Z" fill="#FFC270" stroke="black" stroke-width="1.5"/>
<path d="M79.777 11.7501C79.046 11.7501 78.4657 11.593 78.0361 11.2788C77.6129 10.9646 77.4013 10.5318 77.4013 9.98032C77.4013 9.71742 77.4622 9.46414 77.5841 9.22047C77.7059 8.9704 77.9239 8.71712 78.2381 8.46063C78.5523 8.20415 78.9851 7.94766 79.5366 7.69117C80.0239 7.47316 80.4022 7.25515 80.6715 7.03713C80.9408 6.81271 81.1236 6.59469 81.2198 6.38309C81.3224 6.17149 81.3737 5.94706 81.3737 5.70981C81.3737 5.42768 81.2775 5.20325 81.0851 5.03654C80.8992 4.86982 80.6427 4.78646 80.3156 4.78646C79.963 4.78646 79.6712 4.87303 79.4404 5.04615C79.216 5.21287 79.1037 5.45012 79.1037 5.7579C79.1037 5.97592 79.1711 6.1779 79.3057 6.36385C79.4404 6.54981 79.6071 6.71973 79.8059 6.87362C80.0111 7.02751 80.2868 7.21667 80.633 7.4411C81.0434 7.704 81.3737 7.93484 81.6237 8.13361C81.8738 8.32598 82.0854 8.55361 82.2585 8.81651C82.4317 9.07941 82.5182 9.37437 82.5182 9.70139C82.5182 10.0989 82.4028 10.4548 82.172 10.769C81.9411 11.0768 81.6173 11.3173 81.2005 11.4904C80.7837 11.6635 80.3092 11.7501 79.777 11.7501ZM79.8732 10.9421C80.2772 10.9421 80.6138 10.8428 80.8831 10.644C81.1524 10.4388 81.2871 10.1534 81.2871 9.78795C81.2871 9.60841 81.223 9.43528 81.0947 9.26857C80.9665 9.10185 80.8094 8.94796 80.6234 8.80689C80.4375 8.66582 80.1778 8.47987 79.8443 8.24903C79.4211 7.9669 79.0781 7.72003 78.8152 7.50843C78.5587 7.29682 78.3375 7.05316 78.1515 6.77744C77.9656 6.50172 77.8726 6.20034 77.8726 5.87332C77.8726 5.50142 77.972 5.17119 78.1708 4.88264C78.376 4.5941 78.6645 4.37288 79.0364 4.21898C79.4083 4.05868 79.8379 3.97853 80.3253 3.97853C80.9793 3.97853 81.4955 4.13563 81.8738 4.44982C82.2521 4.76402 82.4413 5.18402 82.4413 5.70981C82.4413 6.14584 82.2553 6.56584 81.8834 6.9698C81.5115 7.36736 80.9793 7.72003 80.2868 8.02781C79.7353 8.27147 79.2929 8.56323 78.9595 8.90307C78.6325 9.24292 78.4689 9.602 78.4689 9.98032C78.4689 10.2689 78.6004 10.5029 78.8633 10.6824C79.1262 10.8556 79.4628 10.9421 79.8732 10.9421ZM86.242 11.7405C85.5495 11.7405 84.9916 11.516 84.5684 11.0672C84.1516 10.6119 83.9432 9.95467 83.9432 9.09544C83.9432 8.16567 84.1709 7.27438 84.6261 6.42156C85.0878 5.56233 85.6489 4.86982 86.3093 4.34402C86.9762 3.81181 87.5789 3.54571 88.1175 3.54571C88.3356 3.54571 88.5055 3.58739 88.6273 3.67074C88.7556 3.74769 88.8646 3.89196 88.9543 4.10357C88.4862 4.27669 88.0406 4.4915 87.6174 4.74799C87.2006 5.00447 86.7838 5.36997 86.367 5.84447C85.9566 6.31897 85.604 6.92171 85.309 7.6527H85.3667C85.636 7.29362 85.9214 7.04354 86.2228 6.90248C86.5241 6.755 86.8447 6.68126 87.1846 6.68126C87.6078 6.68126 87.9701 6.77744 88.2714 6.9698C88.5792 7.16217 88.8101 7.42507 88.964 7.7585C89.1243 8.09193 89.2044 8.47346 89.2044 8.90307C89.2044 9.42887 89.0665 9.90978 88.7908 10.3458C88.5215 10.7818 88.1592 11.1249 87.704 11.375C87.2487 11.6186 86.7614 11.7405 86.242 11.7405ZM86.3863 10.9902C86.6235 10.9902 86.864 10.9101 87.1076 10.7498C87.3513 10.5895 87.5565 10.3522 87.7232 10.038C87.8899 9.71742 87.9733 9.33589 87.9733 8.89345C87.9733 8.48308 87.8707 8.14002 87.6655 7.8643C87.4603 7.58217 87.1205 7.4411 86.646 7.4411C86.4279 7.4411 86.2035 7.51804 85.9727 7.67194C85.7418 7.82583 85.5495 8.05025 85.3956 8.34521C85.2417 8.64017 85.1647 8.99284 85.1647 9.40322C85.1647 9.85207 85.2609 10.2304 85.4533 10.5382C85.6457 10.8395 85.9566 10.9902 86.3863 10.9902Z" fill="black"/>
<path d="M31.1873 50.6072C29.1901 50.3894 27.2498 49.6885 25.622 48.4694C21.7064 45.5228 19.7132 41.3966 19.5589 37.4405C19.3602 32.4331 22.1038 27.7209 27.5441 25.979C37.3594 22.0479 45.2827 17.8921 53.7105 13.3915C58.3627 9.49454 59.8052 9.97545 59.8052 9.97545C68.7053 7.59882 79.7546 19.5118 74.3897 28.7807C74.101 29.288 73.9252 29.7911 73.5715 30.3019C73.5678 30.305 73.5678 30.305 73.5642 30.308C67.6569 41.7653 46.4968 52.8263 31.1873 50.6072Z" fill="white"/>
<path d="M32.4878 49.1757C30.6663 48.9817 28.8981 48.3454 27.4162 47.2339C23.8518 44.5475 22.0443 40.7764 21.9141 37.156C21.7462 32.5736 24.2617 28.2535 29.2296 26.6447C37.85 24.361 45.9517 20.9024 53.3628 15.7765C57.2831 12.2565 58.5865 12.1202 58.5865 12.1202C66.7125 9.92136 77.013 20.5797 72.0939 29.0772C71.8292 29.5423 71.5332 30.0105 71.2092 30.479C71.2059 30.4818 71.2059 30.4818 71.2025 30.4846C64.5629 40.1389 46.2909 50.6328 32.4878 49.1757Z" fill="#FAA530"/>
<path d="M32.4878 49.1757C30.6663 48.9817 28.8981 48.3454 27.4162 47.2339C23.8518 44.5475 22.0443 40.7764 21.9141 37.156C21.9141 37.156 23.9425 31.1148 28.8958 29.1555C33.8118 27.2143 41.1965 27.11 50.5357 20.1889C50.5357 20.1889 52.5765 19.121 54.6366 16.8593C56.6913 14.6111 61.0954 11.2807 66.5737 15.9674C72.0386 20.6471 54.3717 26.5509 54.3717 26.5509C54.3717 26.5509 35.6305 35.6161 35.2794 35.9025C34.9244 36.1921 30.9128 40.5883 30.9128 40.5883C30.9128 40.5883 27.297 45.9495 37.2753 47.1448C47.1443 48.3236 62.178 40.1634 71.2025 30.4846C64.5629 40.1389 46.2909 50.6328 32.4878 49.1757Z" fill="#EF6F2E"/>
<path d="M35.2312 45.8074C23.5385 46.6019 21.6141 32.0474 32.0543 29.5708C40.379 27.7085 48.3997 25.1823 55.1299 18.6072C55.3708 18.3703 55.598 18.1095 55.8155 17.8509C59.1169 13.9978 63.5338 13.9412 66.5684 15.9607C66.5712 15.9642 66.5709 15.9639 66.5737 15.9674C70.1921 18.3859 71.8779 23.7846 67.3084 29.3487C57.1414 39.9629 44.5508 44.7189 35.2312 45.8074Z" fill="#EF1624"/>
<path d="M28.9387 44.9789C28.6005 44.7791 28.2775 44.5581 27.9703 44.3157C26.2672 42.9721 25.1488 41.0425 24.8212 38.8822C24.2489 35.1082 26.2318 30.4297 31.9378 29.0758C41.0844 27.0285 48.4645 24.4037 54.773 18.2434C55.0049 18.017 55.2213 17.7642 55.4306 17.5198C59.2235 13.0901 64.4127 13.4603 67.5782 16.1154C69.3389 17.5923 70.395 19.6609 70.5521 21.9403C70.7296 24.5152 69.7446 27.1892 67.7039 29.6731C67.6957 29.6831 67.6871 29.6928 67.6781 29.7021C62.9317 34.6565 57.3775 38.6629 51.1699 41.6103C44.5953 44.7319 38.9054 45.8895 35.2899 46.3108C35.2818 46.3117 35.2737 46.3125 35.2655 46.313C32.8598 46.477 30.697 46.0176 28.9387 44.9789ZM65.9349 16.198C63.1412 14.5478 59.1943 14.6921 56.2052 18.183C55.9918 18.4323 55.7499 18.7148 55.4854 18.9731C49.005 25.3011 41.4768 27.9856 32.167 30.0695C27.0949 31.2729 25.3249 35.4024 25.8294 38.7293C26.3672 42.2761 29.4686 45.6806 35.1841 45.2965C46.5596 43.9673 58.4247 37.88 66.9283 29.0108C70.9915 24.0535 69.8545 19.3557 66.9229 16.8967C66.6144 16.6381 66.2834 16.4039 65.9349 16.198Z" fill="#4C0016"/>
<path d="M28.028 48.2532C27.7106 48.0658 27.405 47.8616 27.1126 47.6415C22.8858 44.4592 20.7549 39.5288 21.5514 34.7746C21.8787 32.8207 22.7027 31.014 23.9343 29.5497C25.2581 27.9757 26.9872 26.8349 29.0733 26.1588C29.0821 26.156 29.091 26.1533 29.1 26.1509C38.2151 23.7381 46.0485 20.213 53.0453 15.3752C56.6643 12.1324 58.1232 11.6829 58.4803 11.6214C60.638 11.0449 63.0258 11.2919 65.3881 12.3364C67.5839 13.3073 69.6325 14.934 71.1561 16.9168C74.2153 20.898 74.7301 25.5396 72.5334 29.3331C69.6333 34.3843 63.3795 39.8321 55.8053 43.9043C51.9702 45.9663 47.9246 47.5836 44.106 48.5815C39.887 49.6841 35.961 50.0547 32.4371 49.683C30.8379 49.5143 29.3336 49.0245 28.028 48.2532ZM27.7259 46.8269C29.0739 47.8415 30.7399 48.4786 32.5441 48.6689C39.0501 49.3551 47.3525 47.2911 55.3224 43.0062C62.736 39.0203 68.8398 33.7185 71.6499 28.8237C73.6334 25.3986 73.1461 21.1802 70.3475 17.5381C67.3239 13.6031 62.542 11.578 58.7185 12.6133C58.6829 12.6229 58.6792 12.6265 58.6482 12.6279C58.519 12.6593 57.1665 13.048 53.7023 16.1557C53.6864 16.17 53.6696 16.1833 53.652 16.1955C46.553 21.1087 38.6116 24.6865 29.3745 27.1331C25.6713 28.338 23.1868 31.1838 22.5571 34.9431C21.8237 39.3206 23.8043 43.8742 27.7259 46.8269Z" fill="#4C0016"/>
<path d="M51.2904 43.1778C45.4722 45.6687 40.9133 46.8775 37.2753 47.1448C30.4312 47.6514 26.9428 44.8296 24.4053 41.0914C26.7854 43.8763 28.493 41.9448 30.9092 40.5914C30.9128 40.5885 30.9128 40.5883 30.9128 40.5883C31.7651 40.1143 32.7066 39.7111 33.7977 39.6109C42.702 39.2436 51.1114 36.9751 58.5855 30.8315C63.0207 27.3399 64.0218 23.9232 67.8221 22.5522C71.4194 21.2567 70.9624 19.1604 70.9137 18.9622C74.164 27.0597 66.3525 35.0681 51.2904 43.1778Z" fill="#FAA530"/>
<path d="M33.3898 41.3081C33.3898 41.3081 35.9738 41.3668 42.158 39.9004C48.2817 38.4483 51.3266 38.3151 60.196 31.0934C60.196 31.0934 63.3863 27.8882 64.7219 26.3753C57.0235 37.6746 46.7379 43.1272 33.3898 41.3081Z" fill="white"/>
<path d="M37.2753 47.1448C30.4312 47.6514 26.9428 44.8296 24.4053 41.0914C26.7854 43.8763 28.493 41.9448 30.9092 40.5914C30.7911 40.7782 27.4761 45.9722 37.2753 47.1448Z" fill="#EF6F2E"/>
<path d="M71.2135 18.8535C71.4568 19.6678 71.1857 20.5566 70.6752 21.2082L70.5261 21.3998C70.4434 21.4873 70.276 21.6562 70.1916 21.7416C69.896 21.9985 69.5804 22.2239 69.247 22.4262C69.0777 22.5128 68.7973 22.6681 68.6375 22.742C68.2745 22.8963 67.8148 23.0915 67.4525 23.2456L67.3596 23.2849L67.2706 23.3322C67.1203 23.4152 66.8759 23.5384 66.7401 23.6201C66.6452 23.6825 66.3344 23.8815 66.2318 23.9475L65.9094 24.1935C64.3426 25.4275 63.2367 27.0577 61.8568 28.5117C60.284 30.2312 58.4445 31.6941 56.5431 33.0325C50.1142 37.5578 42.2769 39.7888 34.47 40.0929L34.0403 40.1144L33.8261 40.1255L33.6392 40.1489C32.5621 40.2794 31.5909 40.7506 30.6528 41.3001C29.1541 42.1784 27.292 43.6105 25.533 42.5216C24.9768 42.1959 24.5472 41.7519 24.181 41.2847L24.6299 40.9009C25.0082 41.3009 25.421 41.6651 25.876 41.8869C28.1349 43.0658 30.2097 39.2636 33.9714 39.0826C43.2104 38.6589 51.4971 36.1515 58.6319 30.1046C59.5023 29.3905 60.3079 28.6162 61.0732 27.7864C62.2336 26.5422 63.3135 25.1259 64.5872 23.9547L64.9283 23.6605C64.9859 23.6121 65.0406 23.5611 65.1005 23.5151C65.2657 23.3914 65.4907 23.2225 65.646 23.1068C65.8372 22.9897 66.2161 22.732 66.4271 22.6341L66.8347 22.427L66.9369 22.376C67.2771 22.2384 67.7126 22.0645 68.0556 21.9359C68.9935 21.5704 69.9902 20.9958 70.433 20.0699C70.5682 19.7593 70.6483 19.4086 70.6064 19.0694L70.6041 19.0499L70.6036 19.0411L71.2135 18.8535Z" fill="#4C0016"/>
<path d="M58.6898 24.2165C56.9452 22.4572 54.2129 20.8301 54.0182 20.8657C53.8108 20.9037 55.9823 22.9859 57.5595 24.879C58.87 26.4519 59.5317 27.9106 60.2639 27.8066C61.0503 27.6948 60.3488 25.8893 58.6898 24.2165Z" fill="url(#paint0_linear_126_2613)" fill-opacity="0.5"/>
<path d="M47.2294 31.1204C45.4847 29.3611 42.7524 27.734 42.5578 27.7696C42.3504 27.8075 44.5219 29.8898 46.0991 31.7828C47.4096 33.3557 48.0713 34.8145 48.8035 34.7104C49.5899 34.5987 48.8883 32.7932 47.2294 31.1204Z" fill="url(#paint1_linear_126_2613)" fill-opacity="0.5"/>
<path d="M52.0978 26.6854C53.6202 28.6402 54.8856 31.5577 54.8255 31.7462C54.7614 31.9471 52.973 29.5278 51.2966 27.722C49.9037 26.2216 48.5412 25.3793 48.7378 24.6664C48.9489 23.9006 50.6502 24.8267 52.0978 26.6854Z" fill="url(#paint2_linear_126_2613)" fill-opacity="0.5"/>
<path d="M40.0478 32.5733C41.5702 34.5281 42.8356 37.4456 42.7754 37.6341C42.7113 37.8349 40.923 35.4157 39.2465 33.6099C37.8536 32.1095 36.4912 31.2672 36.6878 30.5542C36.8989 29.7885 38.6001 30.7145 40.0478 32.5733Z" fill="url(#paint3_linear_126_2613)" fill-opacity="0.5"/>
<defs>
<linearGradient id="paint0_linear_126_2613" x1="19.5488" y1="30.2809" x2="75.7997" y2="30.2809" gradientUnits="userSpaceOnUse">
<stop stop-color="#7C0000"/>
<stop offset="1"/>
</linearGradient>
<linearGradient id="paint1_linear_126_2613" x1="19.5488" y1="30.2809" x2="75.7997" y2="30.2809" gradientUnits="userSpaceOnUse">
<stop stop-color="#7C0000"/>
<stop offset="1"/>
</linearGradient>
<linearGradient id="paint2_linear_126_2613" x1="41.4651" y1="38.2038" x2="37.8924" y2="29.8855" gradientUnits="userSpaceOnUse">
<stop stop-color="#7C0000"/>
<stop offset="1"/>
</linearGradient>
<linearGradient id="paint3_linear_126_2613" x1="41.4651" y1="38.2038" x2="37.8924" y2="29.8855" gradientUnits="userSpaceOnUse">
<stop stop-color="#7C0000"/>
<stop offset="1"/>
</linearGradient>
</defs>
</svg>
