<svg width="95" height="61" viewBox="0 0 95 61" fill="none" xmlns="http://www.w3.org/2000/svg">
<path d="M93.623 0.75V59.96H0.75V0.75H93.623Z" fill="#E7E7E7" stroke="black" stroke-width="1.5"/>
<path d="M85.5633 11.7405C85.3388 11.7405 85.1689 11.6571 85.0535 11.4904C84.9381 11.3173 84.8804 11.0672 84.8804 10.7402C84.8804 10.2079 84.9317 9.6052 85.0343 8.93193C85.1369 8.25224 85.3036 7.41224 85.5344 6.41195C85.2074 6.41195 84.9381 6.34782 84.7265 6.21958C84.5213 6.09134 84.3962 5.9118 84.3514 5.68096C84.6591 5.59119 84.922 5.49821 85.1401 5.40203C85.3645 5.30585 85.6081 5.18722 85.871 5.04615C86.057 4.94356 86.2045 4.87303 86.3135 4.83455C86.4225 4.78967 86.5283 4.76722 86.6309 4.76722C86.8874 4.76722 87.0156 4.9147 87.0156 5.20966C87.0156 5.30585 86.99 5.48218 86.9387 5.73867C86.8874 5.98874 86.8265 6.26126 86.7559 6.55622C86.5571 7.40904 86.3968 8.15926 86.275 8.80689C86.1596 9.45452 86.1019 10.0637 86.1019 10.6344C86.1019 10.9806 86.1564 11.282 86.2654 11.5385C86.0153 11.6731 85.7813 11.7405 85.5633 11.7405Z" fill="black"/>
<path d="M13.0663 39.5667C10.7259 39.5667 8.99458 39.2702 7.87245 38.677C6.75032 38.0839 6.18925 37.2824 6.18925 36.2725C6.18925 35.8396 6.29345 35.3988 6.50185 34.95C6.71024 34.4851 6.99879 34.0923 7.36749 33.7717C8.04077 34.7175 8.81023 35.4549 9.67587 35.9839C10.5575 36.5129 11.5995 36.7774 12.8018 36.7774C13.7636 36.7774 14.5491 36.6251 15.1583 36.3206C15.7674 36.016 16.072 35.5591 16.072 34.95C16.072 34.6293 15.9357 34.3568 15.6632 34.1324C15.4067 33.8919 15.0781 33.6916 14.6774 33.5313C14.2766 33.3549 13.7075 33.1385 12.9701 32.882C11.7839 32.4652 10.798 32.0645 10.0125 31.6798C9.24305 31.295 8.56977 30.75 7.99268 30.0446C7.43161 29.3393 7.15108 28.4496 7.15108 27.3756C7.15108 26.0932 7.55184 25.0111 8.35336 24.1294C9.17091 23.2478 10.261 22.5905 11.6236 22.1577C13.0022 21.7249 14.5331 21.5085 16.2163 21.5085C17.4667 21.5085 18.5567 21.6447 19.4865 21.9172C20.4323 22.1737 21.1536 22.5424 21.6506 23.0233C22.1475 23.5042 22.396 24.0493 22.396 24.6584C22.396 25.476 22.1075 26.1172 21.5304 26.5821C20.9693 27.047 20.272 27.2794 19.4384 27.2794C18.6529 27.2794 17.9395 27.063 17.2983 26.6302C16.6571 26.1813 16.1522 25.5321 15.7835 24.6825C14.8056 24.7787 13.9961 25.0191 13.3548 25.4038C12.7136 25.7725 12.393 26.2294 12.393 26.7744C12.393 27.1111 12.5293 27.3996 12.8018 27.6401C13.0743 27.8805 13.419 28.0889 13.8358 28.2653C14.2686 28.4256 14.8537 28.626 15.5911 28.8664C16.7934 29.2511 17.7712 29.6279 18.5247 29.9966C19.2781 30.3492 19.9273 30.8622 20.4724 31.5355C21.0334 32.1927 21.314 33.0423 21.314 34.0843C21.314 35.2706 20.9052 36.2805 20.0876 37.1141C19.2861 37.9316 18.2521 38.5488 16.9857 38.9656C15.7193 39.3663 14.4129 39.5667 13.0663 39.5667ZM30.0303 39.5908C28.9723 39.5908 28.2189 39.2942 27.77 38.7011C27.3212 38.0919 27.0967 37.1461 27.0967 35.8637C27.0967 35.0301 27.225 33.8038 27.4815 32.1847C27.754 30.5496 28.2189 27.9527 28.8761 24.3939L33.9497 25.4038L33.4207 28.1691C33.036 30.1729 32.7475 31.7038 32.5551 32.7618C32.3788 33.8038 32.2906 34.5572 32.2906 35.0221C32.2906 36.577 32.531 37.7392 33.012 38.5087C32.0501 39.2301 31.0562 39.5908 30.0303 39.5908ZM35.2722 27.3034C34.7112 27.3034 34.1501 27.2634 33.5891 27.1832C33.028 27.1031 32.3467 26.9828 31.5452 26.8225C30.7757 26.6622 30.1185 26.542 29.5734 26.4619C29.0284 26.3817 28.4834 26.3336 27.9383 26.3176L24.2834 27.2554C23.9948 26.566 23.8506 25.8046 23.8506 24.971C23.8506 23.9771 24.1712 23.1997 24.8124 22.6386C25.4536 22.0615 26.3273 21.773 27.4334 21.773C27.9944 21.773 28.5555 21.813 29.1166 21.8932C29.6776 21.9733 30.3589 22.0936 31.1604 22.2539C31.9299 22.4142 32.5872 22.5344 33.1322 22.6146C33.6772 22.6947 34.2223 22.7428 34.7673 22.7588L38.4222 21.821C38.7108 22.5104 38.855 23.2718 38.855 24.1054C38.855 25.0993 38.5344 25.8848 37.8932 26.4619C37.252 27.0229 36.3783 27.3034 35.2722 27.3034ZM40.1178 39.6629C39.3804 39.6629 38.8193 39.4625 38.4346 39.0618C38.0659 38.661 37.8816 38.0759 37.8816 37.3064C37.8816 36.3125 38.2262 34.95 38.9155 33.2187C39.6209 31.4714 40.9113 28.7622 42.7869 25.0913L41.9934 23.0474C42.8911 22.5023 43.7086 22.1176 44.446 21.8932C45.1834 21.6527 45.9849 21.5325 46.8506 21.5325C47.7643 21.5325 48.4216 21.7329 48.8223 22.1336C49.5758 21.7329 50.249 21.5325 50.8422 21.5325C51.7238 21.5325 52.3651 21.813 52.7658 22.3741C53.1666 22.9352 53.367 23.8329 53.367 25.0672C53.367 26.2214 53.3589 27.071 53.3429 27.616C53.3269 29.6519 53.3349 31.287 53.367 32.5213C53.415 33.7397 53.5513 34.8778 53.7757 35.9358C54.0002 36.9938 54.3689 37.8755 54.8818 38.5808C53.9521 39.3022 52.9502 39.6629 51.8761 39.6629C51.0265 39.6629 50.3372 39.3984 49.8082 38.8694C49.2792 38.3404 48.8865 37.5148 48.63 36.3927C48.3895 35.2545 48.2773 33.7717 48.2933 31.9443C48.2933 30.5817 48.3013 29.2672 48.3174 28.0008C48.3494 26.7183 48.3895 25.6203 48.4376 24.7065H48.1491C46.562 27.2554 45.3037 29.5718 44.3739 31.6557C43.4441 33.7236 42.9792 35.2786 42.9792 36.3206C42.9792 36.7854 43.0193 37.1942 43.0995 37.5469C43.1796 37.8996 43.3079 38.2442 43.4842 38.5808C43.0353 38.9015 42.5063 39.1579 41.8972 39.3503C41.288 39.5587 40.6949 39.6629 40.1178 39.6629ZM42.2098 32.2328H50.5296L50.0487 35.0942H41.6808L42.2098 32.2328ZM65.0435 33.3149C64.3542 33.3149 63.7531 33.2587 63.2401 33.1465C62.7432 33.0183 62.2222 32.8099 61.6772 32.5213V29.6599C61.9497 29.8843 62.2703 30.0527 62.639 30.1649C63.0077 30.2611 63.3844 30.3092 63.7691 30.3092C64.5065 30.3092 65.1718 30.1729 65.7649 29.9004C66.3741 29.6118 66.847 29.2111 67.1836 28.6981C67.5363 28.1851 67.7126 27.592 67.7126 26.9187C67.7126 26.3256 67.4962 25.7966 67.0634 25.3317C66.6466 24.8668 66.0535 24.6344 65.284 24.6344C64.8031 24.6344 64.3142 24.7546 63.8172 24.9951C63.3203 25.2195 62.7833 25.5641 62.2062 26.029V23.5764C62.8153 23.1115 63.3523 22.7428 63.8172 22.4703C64.2981 22.1978 64.8512 21.9813 65.4764 21.821C66.1176 21.6447 66.863 21.5565 67.7126 21.5565C68.8187 21.5565 69.7725 21.797 70.574 22.2779C71.3916 22.7428 72.0088 23.36 72.4256 24.1294C72.8584 24.8989 73.0748 25.7164 73.0748 26.5821C73.0748 27.7363 72.7782 28.8263 72.1851 29.8523C71.592 30.8782 70.6863 31.7118 69.4679 32.353C68.2657 32.9942 66.7909 33.3149 65.0435 33.3149ZM60.2104 39.5908C59.1844 39.5908 58.439 39.3343 57.9741 38.8213C57.5093 38.3083 57.2768 37.4828 57.2768 36.3446C57.2768 35.6393 57.373 34.5813 57.5654 33.1706C57.7738 31.7599 58.1825 29.3153 58.7917 25.8367L57.5173 23.2638C59.3287 22.0936 60.9798 21.5085 62.4707 21.5085C63.705 21.5085 64.3222 22.2619 64.3222 23.7687C64.3222 24.2817 64.0657 25.8527 63.5527 28.4817C63.2 30.3252 62.9275 31.8 62.7352 32.9061C62.5588 33.9961 62.4707 34.8618 62.4707 35.503C62.4707 36.2404 62.5188 36.8335 62.6149 37.2824C62.7272 37.7312 62.9195 38.14 63.192 38.5087C62.2783 39.2301 61.2844 39.5908 60.2104 39.5908ZM70.3576 39.5667C69.6042 39.5667 68.963 39.4385 68.434 39.182C67.921 38.9415 67.4641 38.5408 67.0634 37.9797C66.6786 37.4026 66.3099 36.6171 65.9573 35.6232L64.8512 32.4973L69.5641 30.5737C70.2214 32.5294 70.9107 34.1805 71.632 35.5271C72.3694 36.8576 73.0908 37.7633 73.7962 38.2442C73.4435 38.5969 72.9225 38.9015 72.2332 39.1579C71.5439 39.4305 70.9187 39.5667 70.3576 39.5667ZM80.9394 39.5908C79.8814 39.5908 79.128 39.2942 78.6791 38.7011C78.2303 38.0919 78.0058 37.1461 78.0058 35.8637C78.0058 35.0301 78.1341 33.8038 78.3906 32.1847C78.6631 30.5496 79.128 27.9527 79.7852 24.3939L84.8588 25.4038L84.3298 28.1691C83.9451 30.1729 83.6566 31.7038 83.4642 32.7618C83.2879 33.8038 83.1997 34.5572 83.1997 35.0221C83.1997 36.577 83.4401 37.7392 83.9211 38.5087C82.9592 39.2301 81.9653 39.5908 80.9394 39.5908ZM86.1813 27.3034C85.6203 27.3034 85.0592 27.2634 84.4981 27.1832C83.9371 27.1031 83.2558 26.9828 82.4543 26.8225C81.6848 26.6622 81.0276 26.542 80.4825 26.4619C79.9375 26.3817 79.3925 26.3336 78.8474 26.3176L75.1925 27.2554C74.9039 26.566 74.7597 25.8046 74.7597 24.971C74.7597 23.9771 75.0803 23.1997 75.7215 22.6386C76.3627 22.0615 77.2364 21.773 78.3425 21.773C78.9035 21.773 79.4646 21.813 80.0257 21.8932C80.5867 21.9733 81.268 22.0936 82.0695 22.2539C82.839 22.4142 83.4962 22.5344 84.0413 22.6146C84.5863 22.6947 85.1313 22.7428 85.6764 22.7588L89.3313 21.821C89.6199 22.5104 89.7641 23.2718 89.7641 24.1054C89.7641 25.0993 89.4435 25.8848 88.8023 26.4619C88.1611 27.0229 87.2874 27.3034 86.1813 27.3034Z" fill="#710000"/>
</svg>
