<svg width="95" height="61" viewBox="0 0 95 61" fill="none" xmlns="http://www.w3.org/2000/svg">
<path d="M93.623 0.75V59.96H0.75V0.75H93.623Z" fill="#D9D9D9" stroke="black" stroke-width="1.5"/>
<path d="M79.2141 12.9908C78.6691 12.9908 78.2683 12.9171 78.0118 12.7696C77.7554 12.6221 77.6271 12.3977 77.6271 12.0963C77.6271 11.9168 77.7041 11.7661 77.858 11.6443C78.0183 11.5224 78.2074 11.4615 78.4254 11.4615C78.6178 11.4615 78.8038 11.5321 78.9833 11.6731C79.1692 11.8142 79.3231 12.0034 79.445 12.2406C79.8169 12.2406 80.1567 12.1669 80.4645 12.0194C80.7787 11.8719 81.0256 11.6731 81.2051 11.4231C81.3911 11.1666 81.484 10.8908 81.484 10.5959C81.484 10.3522 81.4199 10.115 81.2917 9.88413C81.1698 9.6533 80.9743 9.46414 80.705 9.31666C80.4356 9.16277 80.099 9.08582 79.695 9.08582C79.5283 9.08582 79.3328 9.10826 79.1083 9.15315C79.0186 9.17238 78.9544 9.182 78.916 9.182C78.8583 9.182 78.8102 9.15956 78.7717 9.11467C78.7332 9.06979 78.714 9.01849 78.714 8.96078L79.2911 5.61363L80.3202 5.95989L79.9163 8.39331C80.4549 8.39331 80.9358 8.48308 81.359 8.66262C81.7886 8.84216 82.122 9.09223 82.3593 9.41284C82.603 9.73345 82.7248 10.0957 82.7248 10.4997C82.7248 10.9742 82.5709 11.4006 82.2631 11.7789C81.9617 12.1572 81.5417 12.4522 81.0031 12.6638C80.4709 12.8818 79.8746 12.9908 79.2141 12.9908ZM81.0897 6.24844C80.3074 6.24844 79.7303 6.1747 79.3584 6.02722C78.9865 5.87974 78.8005 5.65531 78.8005 5.35394C78.8005 5.16157 78.8518 5.0173 78.9544 4.92112C79.0634 4.81852 79.2237 4.76722 79.4353 4.76722C79.6149 4.76722 79.7784 4.82814 79.9259 4.94997C80.0798 5.0718 80.2048 5.23211 80.301 5.43088C80.6601 5.41165 81.064 5.33791 81.5129 5.20966C81.9682 5.07501 82.4106 4.90829 82.8402 4.70952C82.8851 4.77364 82.9172 4.8602 82.9364 4.96921C82.962 5.0718 82.9749 5.18081 82.9749 5.29623C82.9749 5.52065 82.8915 5.7034 82.7248 5.84447C82.5645 5.98554 82.3433 6.08813 82.0611 6.15225C81.7854 6.21637 81.4616 6.24844 81.0897 6.24844ZM85.1692 12.9908C84.6241 12.9908 84.2234 12.9171 83.9669 12.7696C83.7104 12.6221 83.5822 12.3977 83.5822 12.0963C83.5822 11.9168 83.6591 11.7661 83.813 11.6443C83.9733 11.5224 84.1625 11.4615 84.3805 11.4615C84.5728 11.4615 84.7588 11.5321 84.9383 11.6731C85.1243 11.8142 85.2782 12.0034 85.4 12.2406C85.7719 12.2406 86.1118 12.1669 86.4196 12.0194C86.7337 11.8719 86.9806 11.6731 87.1602 11.4231C87.3461 11.1666 87.4391 10.8908 87.4391 10.5959C87.4391 10.3522 87.375 10.115 87.2467 9.88413C87.1249 9.6533 86.9293 9.46414 86.66 9.31666C86.3907 9.16277 86.0541 9.08582 85.6501 9.08582C85.4834 9.08582 85.2878 9.10826 85.0634 9.15315C84.9736 9.17238 84.9095 9.182 84.871 9.182C84.8133 9.182 84.7652 9.15956 84.7267 9.11467C84.6883 9.06979 84.669 9.01849 84.669 8.96078L85.2461 5.61363L86.2753 5.95989L85.8713 8.39331C86.4099 8.39331 86.8908 8.48308 87.314 8.66262C87.7437 8.84216 88.0771 9.09223 88.3143 9.41284C88.558 9.73345 88.6798 10.0957 88.6798 10.4997C88.6798 10.9742 88.5259 11.4006 88.2182 11.7789C87.9168 12.1572 87.4968 12.4522 86.9582 12.6638C86.426 12.8818 85.8296 12.9908 85.1692 12.9908ZM87.0447 6.24844C86.2625 6.24844 85.6854 6.1747 85.3135 6.02722C84.9415 5.87974 84.7556 5.65531 84.7556 5.35394C84.7556 5.16157 84.8069 5.0173 84.9095 4.92112C85.0185 4.81852 85.1788 4.76722 85.3904 4.76722C85.5699 4.76722 85.7334 4.82814 85.8809 4.94997C86.0348 5.0718 86.1599 5.23211 86.256 5.43088C86.6151 5.41165 87.0191 5.33791 87.4679 5.20966C87.9232 5.07501 88.3656 4.90829 88.7953 4.70952C88.8401 4.77364 88.8722 4.8602 88.8914 4.96921C88.9171 5.0718 88.9299 5.18081 88.9299 5.29623C88.9299 5.52065 88.8466 5.7034 88.6798 5.84447C88.5195 5.98554 88.2983 6.08813 88.0162 6.15225C87.7405 6.21637 87.4166 6.24844 87.0447 6.24844Z" fill="black"/>
</svg>
