<svg width="95" height="61" viewBox="0 0 95 61" fill="none" xmlns="http://www.w3.org/2000/svg">
<path d="M93.623 0.75V59.96H0.75V0.75H93.623Z" fill="#FFC270" stroke="black" stroke-width="1.5"/>
<path d="M79.5488 12.962C79.3308 12.962 79.1577 12.9203 79.0294 12.8369C78.9076 12.76 78.805 12.6157 78.7216 12.4041C79.1897 12.231 79.6322 12.0162 80.049 11.7597C80.4722 11.5032 80.8889 11.1377 81.2993 10.6632C81.7097 10.1823 82.0624 9.57956 82.3573 8.85498H82.2996C82.0303 9.21406 81.745 9.46734 81.4436 9.61482C81.1422 9.75589 80.8216 9.82642 80.4818 9.82642C80.0586 9.82642 79.6931 9.73024 79.3853 9.53788C79.0839 9.34551 78.8531 9.08261 78.6928 8.74918C78.5389 8.40934 78.4619 8.02781 78.4619 7.60461C78.4619 7.0724 78.5966 6.59149 78.8659 6.16187C79.1416 5.72584 79.5039 5.386 79.9528 5.14234C80.408 4.89226 80.8986 4.76722 81.4244 4.76722C82.1169 4.76722 82.6715 4.99486 83.0883 5.45012C83.5115 5.89897 83.7231 6.55301 83.7231 7.41224C83.7231 8.34201 83.4923 9.23651 83.0306 10.0957C82.5753 10.9486 82.0143 11.6379 81.3474 12.1637C80.687 12.6959 80.0874 12.962 79.5488 12.962ZM81.0204 9.06658C81.2384 9.06658 81.4628 8.98964 81.6937 8.83574C81.9245 8.68185 82.1169 8.45743 82.2708 8.16247C82.4247 7.86751 82.5016 7.51484 82.5016 7.10446C82.5016 6.65561 82.4022 6.2805 82.2034 5.97912C82.0111 5.67134 81.7033 5.51745 81.2801 5.51745C81.0428 5.51745 80.7992 5.5976 80.5491 5.7579C80.3054 5.91821 80.1003 6.15867 79.9335 6.47927C79.7668 6.79347 79.6835 7.17179 79.6835 7.61423C79.6835 8.02461 79.7861 8.37086 79.9912 8.653C80.2028 8.92872 80.5459 9.06658 81.0204 9.06658ZM87.422 11.7501C86.691 11.7501 86.1107 11.593 85.6811 11.2788C85.2579 10.9646 85.0463 10.5318 85.0463 9.98032C85.0463 9.71742 85.1072 9.46414 85.2291 9.22047C85.3509 8.9704 85.5689 8.71712 85.8831 8.46063C86.1973 8.20415 86.6301 7.94766 87.1816 7.69117C87.6689 7.47316 88.0472 7.25515 88.3165 7.03713C88.5858 6.81271 88.7686 6.59469 88.8648 6.38309C88.9674 6.17149 89.0186 5.94706 89.0186 5.70981C89.0186 5.42768 88.9225 5.20325 88.7301 5.03654C88.5441 4.86982 88.2877 4.78646 87.9606 4.78646C87.608 4.78646 87.3162 4.87303 87.0854 5.04615C86.861 5.21287 86.7487 5.45012 86.7487 5.7579C86.7487 5.97592 86.8161 6.1779 86.9507 6.36385C87.0854 6.54981 87.2521 6.71973 87.4509 6.87362C87.6561 7.02751 87.9318 7.21667 88.278 7.4411C88.6884 7.704 89.0186 7.93484 89.2687 8.13361C89.5188 8.32598 89.7304 8.55361 89.9035 8.81651C90.0767 9.07941 90.1632 9.37437 90.1632 9.70139C90.1632 10.0989 90.0478 10.4548 89.817 10.769C89.5861 11.0768 89.2623 11.3173 88.8455 11.4904C88.4287 11.6635 87.9542 11.7501 87.422 11.7501ZM87.5182 10.9421C87.9222 10.9421 88.2588 10.8428 88.5281 10.644C88.7974 10.4388 88.9321 10.1534 88.9321 9.78795C88.9321 9.60841 88.868 9.43528 88.7397 9.26857C88.6115 9.10185 88.4544 8.94796 88.2684 8.80689C88.0825 8.66582 87.8228 8.47987 87.4893 8.24903C87.0661 7.9669 86.7231 7.72003 86.4602 7.50843C86.2037 7.29682 85.9825 7.05316 85.7965 6.77744C85.6106 6.50172 85.5176 6.20034 85.5176 5.87332C85.5176 5.50142 85.617 5.17119 85.8158 4.88264C86.021 4.5941 86.3095 4.37288 86.6814 4.21898C87.0533 4.05868 87.4829 3.97853 87.9703 3.97853C88.6243 3.97853 89.1405 4.13563 89.5188 4.44982C89.8971 4.76402 90.0863 5.18402 90.0863 5.70981C90.0863 6.14584 89.9003 6.56584 89.5284 6.9698C89.1565 7.36736 88.6243 7.72003 87.9318 8.02781C87.3803 8.27147 86.9379 8.56323 86.6045 8.90307C86.2774 9.24292 86.1139 9.602 86.1139 9.98032C86.1139 10.2689 86.2454 10.5029 86.5083 10.6824C86.7712 10.8556 87.1078 10.9421 87.5182 10.9421Z" fill="black"/>
</svg>
