<svg width="95" height="61" viewBox="0 0 95 61" fill="none" xmlns="http://www.w3.org/2000/svg">
<path d="M93.623 0.75V59.96H0.75V0.75H93.623Z" fill="#3BA15C" stroke="black" stroke-width="1.5"/>
<path d="M30.5906 50.4778C28.5934 50.26 26.6531 49.5591 25.0253 48.34C21.1097 45.3934 19.1165 41.2672 18.9622 37.3111C18.7635 32.3037 21.5071 27.5915 26.9475 25.8496C36.7628 21.9185 44.686 17.7627 53.1138 13.2621C57.766 9.36515 59.2086 9.84606 59.2086 9.84606C68.1086 7.46943 79.1579 19.3824 73.793 28.6513C73.5044 29.1586 73.3285 29.6617 72.9748 30.1726C72.9711 30.1756 72.9711 30.1756 72.9675 30.1786C67.0602 41.6359 45.9001 52.6969 30.5906 50.4778Z" fill="white"/>
<path d="M31.891 49.0463C30.0695 48.8523 28.3013 48.216 26.8194 47.1046C23.255 44.4181 21.4475 40.647 21.3173 37.0266C21.1494 32.4442 23.6649 28.1242 28.6328 26.5154C37.2532 24.2316 45.3549 20.773 52.766 15.6471C56.6863 12.1271 57.9897 11.9908 57.9897 11.9908C66.1156 9.792 76.4162 20.4503 71.4971 28.9479C71.2324 29.413 70.9364 29.8811 70.6124 30.3496C70.6091 30.3524 70.609 30.3524 70.6057 30.3552C63.9661 40.0095 45.6941 50.5034 31.891 49.0463Z" fill="#FAA530"/>
<path d="M31.891 49.0463C30.0695 48.8523 28.3013 48.216 26.8194 47.1046C23.255 44.4181 21.4475 40.647 21.3173 37.0266C21.3173 37.0266 23.3457 30.9854 28.299 29.0261C33.215 27.0849 40.5997 26.9806 49.9389 20.0595C49.9389 20.0595 51.9797 18.9916 54.0398 16.73C56.0945 14.4817 60.4986 11.1513 65.9769 15.838C71.4418 20.5177 53.7749 26.4215 53.7749 26.4215C53.7749 26.4215 35.0337 35.4867 34.6826 35.7731C34.3276 36.0627 30.316 40.4589 30.316 40.4589C30.316 40.4589 26.7002 45.8201 36.6785 47.0154C46.5475 48.1942 61.5812 40.034 70.6057 30.3552C63.9661 40.0095 45.6941 50.5034 31.891 49.0463Z" fill="#EF6F2E"/>
<path d="M34.6343 45.6781C22.9417 46.4726 21.0173 31.918 31.4575 29.4414C39.7822 27.5791 47.8029 25.0529 54.5331 18.4779C54.7739 18.2409 55.0012 17.9802 55.2187 17.7215C58.5201 13.8685 62.937 13.8119 65.9716 15.8314C65.9744 15.8349 65.9741 15.8345 65.9769 15.838C69.5953 18.2565 71.2811 23.6552 66.7116 29.2193C56.5446 39.8336 43.954 44.5896 34.6343 45.6781Z" fill="#EF1624"/>
<path d="M28.3419 44.8496C28.0037 44.6498 27.6807 44.4288 27.3735 44.1864C25.6704 42.8428 24.552 40.9131 24.2244 38.7528C23.6521 34.9788 25.635 30.3003 31.341 28.9464C40.4876 26.8991 47.8677 24.2743 54.1762 18.1141C54.4081 17.8876 54.6245 17.6349 54.8338 17.3904C58.6267 12.9607 63.8159 13.3309 66.9814 15.9861C68.7421 17.4629 69.7982 19.5315 69.9553 21.8109C70.1328 24.3859 69.1478 27.0598 67.1071 29.5438C67.0989 29.5537 67.0903 29.5634 67.0813 29.5728C62.3349 34.5271 56.7807 38.5335 50.5731 41.4809C43.9985 44.6025 38.3086 45.7601 34.6931 46.1814C34.685 46.1824 34.6769 46.1831 34.6687 46.1837C32.263 46.3476 30.1002 45.8882 28.3419 44.8496ZM65.3381 16.0686C62.5444 14.4184 58.5975 14.5627 55.6084 18.0537C55.395 18.3029 55.1531 18.5854 54.8886 18.8437C48.4082 25.1718 40.88 27.8563 31.5702 29.9401C26.4981 31.1436 24.7281 35.273 25.2326 38.6C25.7704 42.1468 28.8718 45.5512 34.5873 45.1672C45.9628 43.8379 57.8279 37.7507 66.3315 28.8815C70.3947 23.9241 69.2577 19.2263 66.326 16.7674C66.0176 16.5087 65.6866 16.2745 65.3381 16.0686Z" fill="#4C0016"/>
<path d="M27.4312 48.1239C27.1138 47.9364 26.8082 47.7323 26.5157 47.5121C22.289 44.3298 20.1581 39.3994 20.9546 34.6452C21.2819 32.6913 22.1059 30.8846 23.3375 29.4203C24.6613 27.8464 26.3904 26.7055 28.4765 26.0294C28.4853 26.0266 28.4942 26.0239 28.5032 26.0216C37.6183 23.6088 45.4517 20.0836 52.4485 15.2458C56.0675 12.0031 57.5264 11.5535 57.8835 11.492C60.0412 10.9155 62.429 11.1626 64.7913 12.207C66.9871 13.1779 69.0357 14.8046 70.5593 16.7874C73.6184 20.7686 74.1333 25.4102 71.9366 29.2037C69.0365 34.255 62.7827 39.7028 55.2084 43.775C51.3734 45.8369 47.3278 47.4542 43.5092 48.4522C39.2902 49.5547 35.3642 49.9253 31.8403 49.5537C30.2411 49.3849 28.7368 48.8951 27.4312 48.1239ZM27.1291 46.6975C28.4771 47.7122 30.1431 48.3492 31.9473 48.5396C38.4533 49.2257 46.7557 47.1618 54.7256 42.8768C62.1392 38.891 68.243 33.5891 71.0531 28.6944C73.0366 25.2692 72.5493 21.0509 69.7507 17.4087C66.7271 13.4738 61.9452 11.4486 58.1217 12.4839C58.0861 12.4936 58.0824 12.4972 58.0514 12.4985C57.9222 12.5299 56.5697 12.9186 53.1055 16.0264C53.0896 16.0407 53.0728 16.0539 53.0552 16.0661C45.9562 20.9793 38.0148 24.5572 28.7777 27.0037C25.0745 28.2086 22.59 31.0545 21.9603 34.8137C21.2269 39.1912 23.2075 43.7448 27.1291 46.6975Z" fill="#4C0016"/>
<path d="M50.6936 43.0484C44.8754 45.5393 40.3165 46.7482 36.6785 47.0154C29.8344 47.5221 26.3459 44.7003 23.8085 40.962C26.1886 43.7469 27.8962 41.8154 30.3124 40.4621C30.316 40.4592 30.316 40.4589 30.316 40.4589C31.1683 39.9849 32.1098 39.5818 33.2009 39.4816C42.1052 39.1142 50.5146 36.8457 57.9887 30.7021C62.4239 27.2105 63.425 23.7939 67.2253 22.4229C70.8226 21.1274 70.3656 19.031 70.3169 18.8329C73.5672 26.9303 65.7557 34.9388 50.6936 43.0484Z" fill="#FAA530"/>
<path d="M32.793 41.1788C32.793 41.1788 35.3769 41.2375 41.5612 39.771C47.6849 38.3189 50.7298 38.1858 59.5992 30.9641C59.5992 30.9641 62.7895 27.7589 64.1251 26.246C56.4267 37.5453 46.1411 42.9979 32.793 41.1788Z" fill="white"/>
<path d="M36.6785 47.0154C29.8344 47.5221 26.3459 44.7003 23.8085 40.962C26.1886 43.7469 27.8962 41.8154 30.3124 40.4621C30.1943 40.6488 26.8793 45.8428 36.6785 47.0154Z" fill="#EF6F2E"/>
<path d="M70.6167 18.7241C70.86 19.5384 70.5889 20.4272 70.0784 21.0788L69.9293 21.2705C69.8466 21.358 69.6792 21.5269 69.5948 21.6123C69.2992 21.8691 68.9836 22.0945 68.6501 22.2968C68.4809 22.3835 68.2005 22.5388 68.0407 22.6126C67.6777 22.7669 67.218 22.9621 66.8557 23.1163L66.7628 23.1555L66.6738 23.2028C66.5234 23.2858 66.2791 23.4091 66.1433 23.4907C66.0484 23.5532 65.7376 23.7521 65.635 23.8181L65.3126 24.0641C63.7458 25.2981 62.6398 26.9283 61.26 28.3823C59.6872 30.1018 57.8477 31.5647 55.9463 32.9031C49.5174 37.4284 41.6801 39.6594 33.8732 39.9636L33.4435 39.985L33.2293 39.9961L33.0423 40.0195C31.9653 40.15 30.9941 40.6212 30.056 41.1707C28.5573 42.049 26.6952 43.4812 24.9362 42.3922C24.38 42.0666 23.9504 41.6225 23.5842 41.1553L24.0331 40.7715C24.4114 41.1716 24.8242 41.5357 25.2792 41.7575C27.5381 42.9365 29.6129 39.1343 33.3745 38.9532C42.6136 38.5295 50.9003 36.0221 58.0351 29.9752C58.9055 29.2611 59.7111 28.4869 60.4764 27.6571C61.6368 26.4129 62.7166 24.9966 63.9904 23.8253L64.3315 23.5311C64.3891 23.4828 64.4438 23.4318 64.5037 23.3857C64.6689 23.262 64.8939 23.0932 65.0492 22.9775C65.2404 22.8604 65.6193 22.6026 65.8303 22.5048L66.2379 22.2977L66.3401 22.2466C66.6803 22.109 67.1158 21.9351 67.4588 21.8066C68.3967 21.441 69.3934 20.8665 69.8362 19.9405C69.9714 19.63 70.0515 19.2792 70.0096 18.9401L70.0073 18.9206L70.0068 18.9118L70.6167 18.7241Z" fill="#4C0016"/>
<path d="M58.0931 24.0871C56.3485 22.3278 53.6162 20.7007 53.4215 20.7363C53.2141 20.7743 55.3856 22.8565 56.9628 24.7496C58.2733 26.3225 58.935 27.7812 59.6672 27.6772C60.4536 27.5654 59.7521 25.7599 58.0931 24.0871Z" fill="url(#paint0_linear_126_720)" fill-opacity="0.5"/>
<path d="M46.6327 30.9909C44.8881 29.2317 42.1557 27.6046 41.9611 27.6402C41.7537 27.6781 43.9252 29.7604 45.5024 31.6534C46.8129 33.2263 47.4746 34.6851 48.2068 34.581C48.9932 34.4693 48.2917 32.6638 46.6327 30.9909Z" fill="url(#paint1_linear_126_720)" fill-opacity="0.5"/>
<path d="M51.5011 26.5561C53.0235 28.5108 54.2889 31.4283 54.2288 31.6168C54.1647 31.8177 52.3764 29.3984 50.6999 27.5927C49.307 26.0923 47.9445 25.2499 48.1411 24.537C48.3522 23.7713 50.0535 24.6973 51.5011 26.5561Z" fill="url(#paint2_linear_126_720)" fill-opacity="0.5"/>
<path d="M39.4511 32.4439C40.9735 34.3987 42.2389 37.3162 42.1787 37.5047C42.1146 37.7055 40.3263 35.2863 38.6499 33.4805C37.2569 31.9801 35.8945 31.1378 36.0911 30.4248C36.3022 29.6591 38.0035 30.5851 39.4511 32.4439Z" fill="url(#paint3_linear_126_720)" fill-opacity="0.5"/>
<path d="M81.0898 11.7405C80.8654 11.7405 80.6955 11.6571 80.58 11.4904C80.4646 11.3173 80.4069 11.0672 80.4069 10.7402C80.4069 10.2079 80.4582 9.6052 80.5608 8.93193C80.6634 8.25224 80.8301 7.41224 81.061 6.41195C80.7339 6.41195 80.4646 6.34782 80.253 6.21958C80.0478 6.09134 79.9228 5.9118 79.8779 5.68096C80.1857 5.59119 80.4486 5.49821 80.6666 5.40203C80.891 5.30585 81.1347 5.18722 81.3976 5.04615C81.5836 4.94356 81.731 4.87303 81.84 4.83455C81.949 4.78967 82.0548 4.76722 82.1574 4.76722C82.4139 4.76722 82.5422 4.9147 82.5422 5.20966C82.5422 5.30585 82.5165 5.48218 82.4652 5.73867C82.4139 5.98874 82.353 6.26126 82.2825 6.55622C82.0837 7.40904 81.9234 8.15926 81.8016 8.80689C81.6861 9.45452 81.6284 10.0637 81.6284 10.6344C81.6284 10.9806 81.6829 11.282 81.7919 11.5385C81.5419 11.6731 81.3078 11.7405 81.0898 11.7405ZM85.58 12.6638C85.0478 12.6638 84.7817 12.3528 84.7817 11.7308C84.7817 11.0255 84.9965 10.1406 85.4261 9.0762C85.8558 8.01178 86.4329 6.91851 87.1574 5.79638L88.3982 5.40203C88.0327 5.95348 87.68 6.58507 87.3402 7.29682C87.0003 8.00858 86.7214 8.74597 86.5034 9.50902C86.2854 10.2721 86.1764 10.9838 86.1764 11.6443C86.1764 11.8302 86.1828 11.9777 86.1956 12.0867C86.2148 12.2021 86.2533 12.3208 86.311 12.4426C86.0738 12.5901 85.8301 12.6638 85.58 12.6638ZM86.5515 6.20034C85.9231 6.20034 85.4197 6.17149 85.0414 6.11378C84.6695 6.04966 84.397 5.95348 84.2239 5.82523C84.0507 5.69058 83.9642 5.51104 83.9642 5.28661C83.9642 5.1776 83.9802 5.0686 84.0123 4.95959C84.0443 4.84417 84.0828 4.74478 84.1277 4.66142C84.5958 4.8602 85.1184 5.02692 85.6955 5.16157C86.2725 5.28982 86.7951 5.36676 87.2632 5.39241C87.3722 5.18722 87.5037 5.02692 87.6576 4.9115C87.8179 4.78967 87.9878 4.72875 88.1673 4.72875C88.3789 4.72875 88.5392 4.78005 88.6483 4.88264C88.7573 4.97883 88.8118 5.11989 88.8118 5.30585C88.8118 5.62004 88.629 5.84767 88.2635 5.98874C87.898 6.12981 87.3274 6.20034 86.5515 6.20034Z" fill="black"/>
<defs>
<linearGradient id="paint0_linear_126_720" x1="18.9521" y1="30.1515" x2="75.203" y2="30.1515" gradientUnits="userSpaceOnUse">
<stop stop-color="#7C0000"/>
<stop offset="1"/>
</linearGradient>
<linearGradient id="paint1_linear_126_720" x1="18.9521" y1="30.1515" x2="75.203" y2="30.1515" gradientUnits="userSpaceOnUse">
<stop stop-color="#7C0000"/>
<stop offset="1"/>
</linearGradient>
<linearGradient id="paint2_linear_126_720" x1="40.868" y1="38.0744" x2="37.2952" y2="29.7561" gradientUnits="userSpaceOnUse">
<stop stop-color="#7C0000"/>
<stop offset="1"/>
</linearGradient>
<linearGradient id="paint3_linear_126_720" x1="40.868" y1="38.0744" x2="37.2952" y2="29.7561" gradientUnits="userSpaceOnUse">
<stop stop-color="#7C0000"/>
<stop offset="1"/>
</linearGradient>
</defs>
</svg>
