<svg width="95" height="61" viewBox="0 0 95 61" fill="none" xmlns="http://www.w3.org/2000/svg">
<path d="M93.623 0.75V59.96H0.75V0.75H93.623Z" fill="#FFC270" stroke="black" stroke-width="1.5"/>
<path d="M80.0524 12.6638C79.5201 12.6638 79.254 12.3528 79.254 11.7308C79.254 11.0255 79.4689 10.1406 79.8985 9.0762C80.3281 8.01178 80.9052 6.91851 81.6298 5.79638L82.8705 5.40203C82.505 5.95348 82.1523 6.58507 81.8125 7.29682C81.4727 8.00858 81.1937 8.74597 80.9757 9.50902C80.7577 10.2721 80.6487 10.9838 80.6487 11.6443C80.6487 11.8302 80.6551 11.9777 80.6679 12.0867C80.6872 12.2021 80.7256 12.3208 80.7833 12.4426C80.5461 12.5901 80.3024 12.6638 80.0524 12.6638ZM81.0238 6.20034C80.3954 6.20034 79.8921 6.17149 79.5137 6.11378C79.1418 6.04966 78.8693 5.95348 78.6962 5.82523C78.5231 5.69058 78.4365 5.51104 78.4365 5.28661C78.4365 5.1776 78.4525 5.0686 78.4846 4.95959C78.5166 4.84417 78.5551 4.74478 78.6 4.66142C79.0681 4.8602 79.5907 5.02692 80.1678 5.16157C80.7449 5.28982 81.2675 5.36676 81.7356 5.39241C81.8446 5.18722 81.976 5.02692 82.1299 4.9115C82.2902 4.78967 82.4601 4.72875 82.6397 4.72875C82.8513 4.72875 83.0116 4.78005 83.1206 4.88264C83.2296 4.97883 83.2841 5.11989 83.2841 5.30585C83.2841 5.62004 83.1013 5.84767 82.7359 5.98874C82.3704 6.12981 81.7997 6.20034 81.0238 6.20034ZM84.9618 12.962C84.7438 12.962 84.5707 12.9203 84.4424 12.8369C84.3206 12.76 84.218 12.6157 84.1346 12.4041C84.6027 12.231 85.0452 12.0162 85.4619 11.7597C85.8852 11.5032 86.3019 11.1377 86.7123 10.6632C87.1227 10.1823 87.4754 9.57956 87.7703 8.85498H87.7126C87.4433 9.21406 87.158 9.46734 86.8566 9.61482C86.5552 9.75589 86.2346 9.82642 85.8948 9.82642C85.4716 9.82642 85.1061 9.73024 84.7983 9.53788C84.4969 9.34551 84.2661 9.08261 84.1058 8.74918C83.9519 8.40934 83.8749 8.02781 83.8749 7.60461C83.8749 7.0724 84.0096 6.59149 84.2789 6.16187C84.5546 5.72584 84.9169 5.386 85.3658 5.14234C85.821 4.89226 86.3116 4.76722 86.8374 4.76722C87.5299 4.76722 88.0845 4.99486 88.5013 5.45012C88.9245 5.89897 89.1361 6.55301 89.1361 7.41224C89.1361 8.34201 88.9053 9.23651 88.4436 10.0957C87.9883 10.9486 87.4273 11.6379 86.7604 12.1637C86.1 12.6959 85.5004 12.962 84.9618 12.962ZM86.4334 9.06658C86.6514 9.06658 86.8758 8.98964 87.1067 8.83574C87.3375 8.68185 87.5299 8.45743 87.6838 8.16247C87.8377 7.86751 87.9146 7.51484 87.9146 7.10446C87.9146 6.65561 87.8152 6.2805 87.6164 5.97912C87.4241 5.67134 87.1163 5.51745 86.6931 5.51745C86.4558 5.51745 86.2122 5.5976 85.9621 5.7579C85.7184 5.91821 85.5132 6.15867 85.3465 6.47927C85.1798 6.79347 85.0965 7.17179 85.0965 7.61423C85.0965 8.02461 85.199 8.37086 85.4042 8.653C85.6158 8.92872 85.9589 9.06658 86.4334 9.06658Z" fill="black"/>
</svg>
