<svg width="95" height="61" viewBox="0 0 95 61" fill="none" xmlns="http://www.w3.org/2000/svg">
<path d="M93.623 0.75V59.96H0.75V0.75H93.623Z" fill="#ECF7F9" stroke="black" stroke-width="1.5"/>
<path d="M45.6846 26.8405L50.6377 20.0108L55.5925 12.9146L56.7988 13.7172L68.4492 31.6612L74.6087 40.0977L61.6195 46.5253L50.5053 46.1232L45.6846 26.8405Z" fill="#636E99"/>
<path opacity="0.2" d="M70.3898 39.6956L72.6591 37.4263L69.2286 32.7288L67.5111 36.4818L63.6941 36.8169L59.0745 40.7664L52.1123 40.0307L53.049 41.4365L60.2138 43.5796L65.301 40.2318L70.3898 39.6956Z" fill="#545C8A"/>
<path opacity="0.2" d="M65.636 27.3767L63.2934 29.2501L61.4184 28.6485L56.9999 31.5942L52.1121 28.4474L49.701 29.3841L46.0212 26.3745L45.6846 26.8405L47.2509 33.1076L47.9601 33.6032L51.7771 32.799L56.8658 35.4112L61.2174 31.1251L63.694 30.6575L65.636 27.3767Z" fill="#545C8A"/>
<path d="M64.1642 25.0637L56.7984 13.7172L55.5921 12.9146L50.6373 20.0108L48.0859 23.5285L50.1027 22.1538L51.5086 21.5506L51.9107 23.7607L53.1155 25.6684L54.3203 24.0615L55.7261 22.2536L57.0322 24.7644L57.7351 23.1575L59.2423 21.9528L61.2497 23.3586L61.4508 22.5559L64.1627 25.1666L64.1642 25.0637Z" fill="#ACB8D1"/>
<path opacity="0.5" d="M56.5975 15.5252C56.8656 16.1283 56.9326 21.0488 57.2334 22.2536C57.397 22.9066 59.8471 28.3507 60.1464 29.6864C60.4113 30.8694 62.3798 38.19 62.4562 39.1267C62.5559 40.3424 63.4599 47.2625 63.4599 47.2625L74.6084 40.0977L68.4489 31.6612L56.7985 13.7172L55.5938 12.9146C55.5938 12.9146 55.6062 12.9504 55.6296 13.0127C55.7808 13.4226 56.3653 15.003 56.5975 15.5252Z" fill="#545C8A"/>
<path d="M4.17188 43.3117L12.7425 31.6613L23.3206 14.9221L27.9402 5.95093L30.4184 3.1377L40.9965 17.6013L52.6468 37.5527L59.3425 46.3914L9.79679 57.3716L4.17188 43.3117Z" fill="#545C8A"/>
<path opacity="0.2" d="M12.2168 32.3736L16.3564 29.5853L19.6715 33.0001L28.2032 31.4478L34.4344 34.406L40.9632 28.2792L43.9744 28.739L45.4551 25.2369L44.9782 24.4202L43.072 26.6739L40.5611 26.3715L33.5304 30.7901L27.3039 27.9784L23.7893 28.4803L18.6678 24.8659L16.2831 26.0567L12.742 31.6613L12.2168 32.3736Z" fill="#545C8A"/>
<path d="M4.17188 43.3117L8.59981 54.3807L25.7878 53.829L47.7326 48.9662L58.1564 44.8251L52.6484 37.5543L49.659 32.4344L49.6341 32.3985C49.6341 32.3985 52.9149 40.0309 50.7064 40.5327C48.4963 41.0346 46.4546 33.7373 45.8857 34.0054C45.3168 34.2735 48.4901 43.4488 45.4774 43.7512C42.4646 44.052 39.2898 32.2645 38.6539 32.2988C38.018 32.3315 38.5542 38.0234 36.2443 38.4255C33.9345 38.8277 33.7335 34.0397 33.1303 34.1067C32.5271 34.1737 32.5614 41.1702 30.5524 41.1702C28.5434 41.1702 29.2463 30.6248 28.7117 30.5921C28.1771 30.5594 24.6937 41.9417 22.3839 41.8404C20.0741 41.7406 21.9148 35.6139 21.3131 35.5468C20.71 35.4798 16.4925 47.8659 13.5467 46.9291C11.731 46.3509 13.1446 41.3385 12.7441 41.1718C12.342 41.005 7.99352 47.3281 6.58768 46.1234C5.18184 44.9186 11.7372 33.0344 11.7388 33.0313L4.17188 43.3117Z" fill="#717FAA"/>
<path opacity="0.2" d="M8.62502 42.2409L12.7428 42.6415L18.0653 49.2701L29.7157 47.7645L32.7285 49.4712L42.8717 46.2574L50.4043 46.4584L54.2213 43.1433L56.9426 43.2212L52.6471 37.5527L51.991 36.429L48.3953 41.5364L39.4568 41.4367L33.5311 44.6505L29.0128 43.3444L19.3714 44.7502L13.4457 40.2319L9.42769 40.3316L8.08887 37.9875L8.62502 42.2409Z" fill="#545C8A"/>
<path d="M41.64 18.7032L40.9963 17.6013L30.4182 3.1377L27.94 5.95093L23.3204 14.9221L19.3975 21.1299L21.6808 19.1911L24.9273 17.1322L25.7315 18.9401L26.9363 18.2029L31.4219 25.0326L32.6781 21.2172L34.3894 18.8123L36.5777 20.48L36.9798 17.5343L37.4489 15.2572L41.64 18.7032Z" fill="#CAD4E8"/>
<path opacity="0.5" d="M32.0254 19.3422C32.2265 20.4472 29.0127 28.1809 29.1124 29.3856C29.2137 30.5904 26.5579 41.4569 26.0997 43.748C25.788 45.305 22.9841 52.0474 23.1571 54.0299L59.3427 46.3929L52.647 37.5542L40.9966 17.6012L30.4185 3.13916C30.4185 3.13916 31.7246 7.59202 31.9257 8.29494C32.1252 8.99631 31.8244 18.2371 32.0254 19.3422Z" fill="#545C8A"/>
<path d="M28.3088 43.2445C28.3088 43.2445 27.5062 41.3368 25.4473 38.9756C25.4473 38.9756 25.4971 41.6875 25.6982 44.0472L27.807 44.5491L28.3088 43.2445Z" fill="#35678F"/>
<path d="M27.806 44.5506L28.3078 43.2445C28.3078 43.2445 27.5052 41.3368 25.4463 38.9756C25.4463 38.9756 26.8693 42.205 27.7561 44.5382L27.806 44.5506Z" fill="#265173"/>
<path d="M62.7738 44.3403C62.7738 44.3403 62.4372 42.297 60.9846 39.5227C60.9846 39.5227 60.4016 42.1723 60.0479 44.5133L61.982 45.4921L62.7738 44.3403Z" fill="#35678F"/>
<path d="M61.9819 45.4936L62.7736 44.3403C62.7736 44.3403 62.437 42.297 60.9844 39.5227C60.9844 39.5227 61.6172 42.9952 61.9351 45.4702L61.9819 45.4936Z" fill="#265173"/>
<path d="M68.3766 44.1079C68.3766 44.1079 68.559 41.6656 67.7282 38.1401C67.7282 38.1401 66.3848 41.0968 65.3701 43.7432L67.2061 45.2816L68.3766 44.1079Z" fill="#35678F"/>
<path d="M67.2057 45.2816L68.3762 44.1065C68.3762 44.1065 68.5586 41.6642 67.7279 38.1387C67.7279 38.1387 67.4816 42.3032 67.1621 45.2442L67.2057 45.2816Z" fill="#265173"/>
<path d="M1.51465 45.6275C1.51465 45.6275 1.64315 42.8937 4.3052 43.1945C6.96726 43.4953 6.96726 45.2035 6.96726 45.2035C6.96726 45.2035 8.07229 44.9027 9.02614 45.9563C9.97999 47.0115 8.87496 49.1202 8.87496 49.1202L9.07602 50.0242C9.07602 50.0242 10.552 49.725 11.5058 50.2767C12.4597 50.8284 12.8743 51.882 12.8743 51.882C12.8743 51.882 14.9456 50.8783 16.021 53.3549C18.2311 58.4437 12.6904 58.0587 12.6904 58.0587L1.51465 57.2156V45.6275Z" fill="#A3C4E8"/>
<path d="M14.0462 57.6567C14.0462 57.6567 12.9911 55.1957 14.146 53.8896C15.3009 52.5835 16.1051 52.5336 16.1051 52.5336C16.1051 52.5336 13.3433 49.5708 15.7544 47.2111C18.164 44.8514 20.173 47.1098 20.173 47.1098C20.173 47.1098 20.173 44.7501 23.0345 43.6949C25.8088 42.6725 27.6043 43.896 27.6043 43.896C27.6043 43.896 27.8054 39.8281 33.8308 39.175C39.8563 38.522 42.1162 42.992 42.1162 42.992C42.1162 42.992 43.7231 42.3389 44.8282 43.1432C45.9332 43.9474 45.9831 44.8514 45.9831 44.8514C45.9831 44.8514 47.2892 42.4403 50.2006 42.9936C53.112 43.5469 54.0176 45.9065 54.0176 45.9065L54.5693 50.576L14.0462 57.6567Z" fill="#B2D0F5"/>
<path d="M53.2311 44.6877C52.6435 44.0206 51.6819 43.2741 50.2028 42.9935C50.1217 42.9779 50.0407 42.9655 49.9628 42.9545C49.944 43.4486 49.6822 44.0643 48.8297 44.7173C46.8207 46.2572 45.9837 44.8513 45.9837 44.8513C45.9837 44.8513 45.9479 44.2217 45.2932 43.5453C45.6486 44.5349 44.8085 45.5246 43.4728 44.9184C42 44.2482 42.1169 42.9935 42.1169 42.9935C42.1169 42.9935 40.4289 39.6582 36.0852 39.1719C41.1303 40.2317 42.4691 48.4002 37.7825 50.0741C32.9805 51.7886 30.7377 48.3987 30.7377 48.3987C31.7274 50.8862 27.7405 52.2826 26.6012 49.739C27.4039 54.8948 21.7571 54.8652 20.1736 51.9491C20.1736 51.9491 20.5087 54.3602 18.7008 54.5597C16.8928 54.7608 16.2912 53.422 16.2912 53.422L15.554 53.8911L14.8838 56.9709L19.3476 56.7308L53.401 50.7802L53.2311 44.6877Z" fill="#99B8E0"/>
<path d="M56.028 45.6042C56.028 45.6042 55.4762 42.9936 57.6349 42.2392C59.7935 41.4865 61.5516 43.9973 61.5516 43.9973C61.5516 43.9973 61.8524 42.2891 63.6105 42.0896C65.3686 41.8886 66.7744 43.6965 66.7744 43.6965C66.7744 43.6965 69.5861 38.5236 74.307 39.1766C79.0279 39.8297 79.8805 42.0896 79.8805 42.0896C79.8805 42.0896 83.445 41.3867 85.203 44.2997C86.9611 47.2127 85.7049 49.1703 85.7049 49.1703C85.7049 49.1703 86.4577 47.8143 87.915 48.3161C89.3707 48.818 89.2709 50.1241 89.2709 50.1241C89.2709 50.1241 89.924 48.4159 91.4311 49.2201C92.9383 50.0228 91.3812 51.279 91.3812 51.279C91.3812 51.279 92.7871 50.9782 92.8868 52.183C92.9866 53.3878 79.3786 54.644 79.3786 54.644L58.7399 50.4763L56.028 45.6042Z" fill="#B2D0F5"/>
<path d="M91.3797 51.279C91.3797 51.279 92.9367 50.0243 91.4296 49.2201C89.9224 48.4159 89.2709 50.1241 89.2709 50.1241C89.2709 50.1241 89.338 49.2544 88.5696 48.6606C88.8454 49.1609 88.3436 50.2737 87.0624 50.2737C85.6566 50.2737 85.7065 49.1687 85.7065 49.1687C86.2987 48.3021 86.4312 46.3305 85.2046 44.2981C85.0565 44.0534 84.9007 43.8399 84.7386 43.6528C86.2863 46.5689 84.1837 50.1396 80.7689 50.3407C77.2901 50.5449 76.1493 48.3987 76.1493 48.3987C76.1493 48.3987 73.4373 51.1995 69.5206 49.8046C65.5696 48.3987 66.7759 43.6949 66.7759 43.6949C66.7759 43.6949 66.1572 42.9 65.2283 42.4231C66.6061 43.6357 65.7753 45.0696 63.9627 45.2504C62.2919 45.4171 61.6872 44.3339 61.5298 43.9646C61.324 43.684 59.6548 41.5316 57.6349 42.2361C55.4762 42.9889 56.028 45.6011 56.028 45.6011L58.7399 50.4716L79.3786 54.6393C79.3786 54.6393 92.9866 53.3831 92.8868 52.1783C92.7855 50.9782 91.3797 51.279 91.3797 51.279Z" fill="#99B8E0"/>
<path d="M2.99116 37.3609C2.27109 37.3655 2.25239 38.4986 2.75269 38.9132C2.91946 39.0504 3.41353 39.1891 3.60835 39.0753C4.26296 38.6872 3.68161 37.3531 2.99116 37.3609Z" fill="#C1E0FF"/>
<path d="M18.6845 43.5391C18.0579 43.681 18.2605 44.6707 18.7749 44.9356C18.9463 45.0229 19.403 45.0494 19.551 44.9123C20.0451 44.4494 19.2845 43.4004 18.6845 43.5391Z" fill="#C1E0FF"/>
<path d="M43.3297 41.4645C43.8487 41.5455 44.5049 40.2192 43.9002 39.9589C43.3188 39.7079 42.2979 41.3008 43.3297 41.4645Z" fill="#C1E0FF"/>
<path d="M66.8326 41.1637C67.3517 41.2448 68.0078 39.9184 67.4031 39.6581C66.8217 39.4057 65.8009 41.0001 66.8326 41.1637Z" fill="#C1E0FF"/>
<path d="M81.7838 40.969C82.2217 40.6807 81.8134 39.2562 81.1915 39.4712C80.593 39.677 80.9125 41.5426 81.7838 40.969Z" fill="#C1E0FF"/>
<path d="M30.0822 38.8041C30.5202 39.0924 31.6673 38.1557 31.2247 37.6679C30.7992 37.1987 29.211 38.2289 30.0822 38.8041Z" fill="#C1E0FF"/>
<path d="M16.0281 44.0223C16.0592 44.1641 16.3881 44.2342 16.558 44.0488C16.6453 43.9521 16.7279 43.7916 16.664 43.6295C16.597 43.4612 16.3601 43.4768 16.1715 43.6233C16.0374 43.7261 15.9486 43.8789 16.0281 44.0223Z" fill="#C1E0FF"/>
<path d="M35.74 37.8206C35.662 37.7287 35.4657 37.6585 35.3784 37.7676C35.2911 37.8222 35.2739 38.017 35.3612 38.1386C35.422 38.2227 35.5638 38.296 35.701 38.2212C35.8428 38.1448 35.8257 37.8799 35.74 37.8206Z" fill="#C1E0FF"/>
<path d="M47.5622 41.8729C47.4843 41.7809 47.2879 41.7108 47.2006 41.8199C47.1134 41.8744 47.0962 42.0693 47.1835 42.1908C47.2443 42.275 47.3861 42.3483 47.5233 42.2734C47.6651 42.1971 47.6479 41.9321 47.5622 41.8729Z" fill="#C1E0FF"/>
<path d="M52.9861 40.2659C52.9081 40.174 52.7117 40.1039 52.6245 40.213C52.5372 40.2675 52.52 40.4623 52.6073 40.5839C52.6681 40.6681 52.8099 40.7413 52.9471 40.6665C53.0889 40.5901 53.0702 40.3252 52.9861 40.2659Z" fill="#C1E0FF"/>
<path d="M70.9685 38.2056C70.8905 38.1137 70.6942 38.0436 70.6069 38.1527C70.5196 38.2088 70.5025 38.402 70.5897 38.5236C70.6505 38.6078 70.7924 38.681 70.9295 38.6062C71.0713 38.5298 71.0526 38.2649 70.9685 38.2056Z" fill="#C1E0FF"/>
<path d="M78.0603 39.0269C77.9823 38.935 77.786 38.8648 77.6987 38.9739C77.6114 39.0285 77.5943 39.2233 77.6815 39.3449C77.7423 39.4291 77.8842 39.5023 78.0213 39.4275C78.1631 39.3511 78.1444 39.0862 78.0603 39.0269Z" fill="#C1E0FF"/>
<path d="M86.0944 42.7769C86.0165 42.685 85.8201 42.6148 85.7329 42.7239C85.6456 42.7785 85.6284 42.9733 85.7157 43.0949C85.7749 43.179 85.9183 43.2523 86.0555 43.1775C86.1973 43.1011 86.1802 42.8346 86.0944 42.7769Z" fill="#C1E0FF"/>
<path d="M86.0339 38.6419C85.956 38.55 85.7596 38.4798 85.6723 38.5889C85.585 38.6435 85.5679 38.8383 85.6552 38.9599C85.7144 39.044 85.8578 39.1173 85.9949 39.0425C86.1352 38.9646 86.1181 38.6996 86.0339 38.6419Z" fill="#C1E0FF"/>
<path d="M83.5554 38.6746C83.4775 38.5827 83.2811 38.5125 83.1938 38.6216C83.1065 38.6762 83.0894 38.871 83.1767 38.9926C83.2374 39.0768 83.3793 39.15 83.5164 39.0752C83.6583 38.9988 83.6396 38.7339 83.5554 38.6746Z" fill="#C1E0FF"/>
<path d="M90.4021 46.5924C90.3241 46.5004 90.1278 46.4303 90.0405 46.5394C89.9532 46.5955 89.9361 46.7887 90.0233 46.9103C90.0841 46.9945 90.2259 47.0677 90.3631 46.9929C90.5034 46.9166 90.4862 46.65 90.4021 46.5924Z" fill="#C1E0FF"/>
<path d="M62.1921 41.036C62.1142 40.944 61.9178 40.8739 61.8305 40.983C61.7432 41.0375 61.7261 41.2308 61.8134 41.3539C61.8742 41.4381 62.016 41.5113 62.1531 41.4365C62.295 41.3602 62.2763 41.0952 62.1921 41.036Z" fill="#C1E0FF"/>
<path d="M65.4734 35.9471C65.3954 35.8551 65.1991 35.785 65.1118 35.8941C65.0245 35.9487 65.0073 36.1435 65.0946 36.2651C65.1554 36.3492 65.2972 36.4225 65.4344 36.3477C65.5762 36.2713 65.5575 36.0063 65.4734 35.9471Z" fill="#C1E0FF"/>
<path d="M32.5866 34.2576C32.5087 34.1657 32.3123 34.0956 32.225 34.2047C32.1378 34.2592 32.1206 34.454 32.2079 34.5756C32.2687 34.6598 32.4105 34.733 32.5477 34.6582C32.6879 34.5818 32.6708 34.3169 32.5866 34.2576Z" fill="#C1E0FF"/>
<path d="M19.2624 39.6146C19.1845 39.5226 18.9881 39.4525 18.9008 39.5616C18.8135 39.6161 18.7964 39.811 18.8837 39.9325C18.9429 40.0151 19.0863 40.0899 19.2235 40.0151C19.3653 39.9388 19.3466 39.6722 19.2624 39.6146Z" fill="#C1E0FF"/>
<path d="M24.5241 42.1737C24.4462 42.0817 24.2498 42.0116 24.1625 42.1207C24.0753 42.1752 24.0581 42.37 24.1454 42.4916C24.2062 42.5758 24.348 42.649 24.4852 42.5742C24.627 42.4963 24.6099 42.2313 24.5241 42.1737Z" fill="#C1E0FF"/>
<path d="M46.0837 37.6195C46.0058 37.5275 45.8094 37.4574 45.7221 37.5665C45.6348 37.621 45.6177 37.8158 45.705 37.9374C45.7658 38.0216 45.9076 38.0948 46.0447 38.02C46.1866 37.9437 46.1694 37.6787 46.0837 37.6195Z" fill="#C1E0FF"/>
<path d="M58.8054 39.2264C58.7275 39.1344 58.5311 39.0643 58.4438 39.1734C58.3565 39.228 58.3394 39.4228 58.4267 39.5443C58.4874 39.627 58.6293 39.7018 58.7664 39.627C58.9083 39.5506 58.8911 39.2856 58.8054 39.2264Z" fill="#C1E0FF"/>
<path d="M77.0847 36.8839C77.0068 36.7919 76.8104 36.7218 76.7231 36.8309C76.6358 36.8854 76.6187 37.0803 76.706 37.2018C76.7667 37.286 76.9086 37.3592 77.0457 37.2844C77.1876 37.2081 77.1704 36.9415 77.0847 36.8839Z" fill="#C1E0FF"/>
<path d="M41.9597 34.7938C41.8818 34.7018 41.6854 34.6317 41.5981 34.7408C41.5108 34.7953 41.4937 34.9902 41.581 35.1117C41.6417 35.1959 41.7836 35.2691 41.9207 35.1943C42.0626 35.118 42.0439 34.8514 41.9597 34.7938Z" fill="#C1E0FF"/>
<path d="M34.1002 36.8932C34.0441 37.1581 33.8336 37.3389 33.6295 37.2968C33.4253 37.2547 33.3053 37.0038 33.3598 36.7389C33.4159 36.4739 33.6264 36.2931 33.8305 36.3352C34.0363 36.3788 34.1563 36.6282 34.1002 36.8932Z" fill="#C1E0FF"/>
<path d="M21.0113 42.1161C20.9552 42.381 20.7448 42.5618 20.5406 42.5197C20.3364 42.4776 20.2164 42.2267 20.271 41.9618C20.3271 41.6968 20.5375 41.516 20.7417 41.5581C20.9458 41.6002 21.0674 41.8511 21.0113 42.1161Z" fill="#C1E0FF"/>
<path d="M40.5356 39.0051C40.5356 39.2763 40.3673 39.4961 40.1584 39.4961C39.9496 39.4961 39.7812 39.2763 39.7812 39.0051C39.7812 38.7339 39.9496 38.5142 40.1584 38.5142C40.3673 38.5142 40.5356 38.7339 40.5356 39.0051Z" fill="#C1E0FF"/>
<path d="M47.9605 40.107C47.9044 40.372 47.694 40.5528 47.4898 40.5107C47.2856 40.4686 47.1656 40.2177 47.2202 39.9527C47.2763 39.6878 47.4867 39.507 47.6909 39.549C47.895 39.5927 48.0166 39.8421 47.9605 40.107Z" fill="#C1E0FF"/>
<path d="M56.4179 40.7539C56.3306 41.0111 56.0999 41.1654 55.902 41.0984C55.704 41.0314 55.6152 40.768 55.7025 40.5108C55.7898 40.2536 56.0204 40.0993 56.2184 40.1679C56.4163 40.2349 56.5067 40.4983 56.4179 40.7539Z" fill="#C1E0FF"/>
<path d="M42.0708 38.4129C42.0303 38.6077 41.876 38.7402 41.7264 38.709C41.5767 38.6779 41.4879 38.4939 41.53 38.3007C41.5705 38.1059 41.7248 37.9734 41.8744 38.0045C42.0225 38.0357 42.1113 38.2181 42.0708 38.4129Z" fill="#C1E0FF"/>
<path d="M64.6346 38.7777C64.7967 38.9959 64.792 39.2733 64.6252 39.398C64.4584 39.5227 64.1904 39.4463 64.0298 39.2281C63.8677 39.0099 63.8724 38.7325 64.0392 38.6094C64.206 38.4847 64.4725 38.5595 64.6346 38.7777Z" fill="#C1E0FF"/>
<path d="M83.9841 40.5386C84.2272 40.4202 84.5 40.4747 84.5919 40.6618C84.6839 40.8488 84.5607 41.0982 84.316 41.2166C84.0729 41.3351 83.8002 41.2805 83.7082 41.0935C83.6162 40.9065 83.7394 40.6571 83.9841 40.5386Z" fill="#C1E0FF"/>
<path d="M87.3244 46.5377C87.5161 46.2494 87.8512 46.1341 88.0725 46.2821C88.2938 46.4302 88.3187 46.7824 88.127 47.0723C87.9353 47.3607 87.6002 47.476 87.3789 47.3279C87.1576 47.1799 87.1326 46.8261 87.3244 46.5377Z" fill="#C1E0FF"/>
<path d="M31.2358 40.4794C30.3381 40.8114 28.1857 42.5305 29.7817 43.5218C31.0582 44.3151 35.0855 42.5788 34.766 41.0296C34.6445 40.4358 33.449 39.6643 31.2358 40.4794Z" fill="#C1E0FF"/>
<path d="M42.847 45.8753C41.8994 46.2696 39.6831 48.383 41.4614 49.6767C42.8844 50.7116 47.1206 48.6293 46.6842 46.6655C46.519 45.9111 45.1818 44.9027 42.847 45.8753Z" fill="#B2D0F5"/>
<path d="M22.7442 44.577C22.1114 44.8233 20.6105 46.1543 21.767 46.9741C22.6912 47.6303 25.5278 46.3242 25.2707 45.0836C25.1709 44.6066 24.3043 43.9676 22.7442 44.577Z" fill="#C1E0FF"/>
<path d="M71.5565 39.8622C70.6821 40.1272 68.5329 41.6718 69.9979 42.7534C71.17 43.62 75.1069 42.1861 74.8919 40.6431C74.8093 40.0508 73.712 39.2108 71.5565 39.8622Z" fill="#C1E0FF"/>
<path d="M79.8039 42.5571C79.0433 42.7691 77.1605 44.0627 78.4043 45.0243C79.4002 45.7927 82.8259 44.6284 82.6685 43.2927C82.6093 42.78 81.6773 42.035 79.8039 42.5571Z" fill="#C1E0FF"/>
<path d="M72.0724 45.8224C71.3118 46.0344 69.4291 47.328 70.6728 48.2896C71.6687 49.058 75.0945 47.8937 74.9371 46.558C74.8763 46.0453 73.9443 45.2987 72.0724 45.8224Z" fill="#C1E0FF"/>
<path d="M20.8384 48.4079C20.5812 48.6682 20.1448 49.6704 20.9101 49.8512C21.5211 49.9961 22.6261 48.7259 22.21 48.1383C22.051 47.9139 21.4712 47.7658 20.8384 48.4079Z" fill="#C1E0FF"/>
<path d="M27.3999 47.5367C27.1428 47.7969 26.7064 48.7991 27.4716 48.9799C28.0826 49.1249 29.1876 47.8546 28.7715 47.267C28.6125 47.0442 28.0327 46.8961 27.3999 47.5367Z" fill="#C1E0FF"/>
<path d="M62.7423 42.5104C62.4118 42.6678 61.6622 43.4627 62.3183 43.8929C62.8436 44.2373 64.3149 43.4175 64.1232 42.7239C64.0499 42.4574 63.5558 42.1223 62.7423 42.5104Z" fill="#C1E0FF"/>
<path d="M68.0154 43.2133C67.685 43.3707 66.9337 44.1656 67.5915 44.5957C68.1167 44.9402 69.588 44.1204 69.3963 43.4268C69.3231 43.1603 68.829 42.8252 68.0154 43.2133Z" fill="#C1E0FF"/>
<path d="M77.5964 45.8629C77.2832 46.0531 76.6177 46.9196 77.3143 47.2812C77.8723 47.5711 79.2532 46.6079 78.9929 45.9362C78.8932 45.679 78.3664 45.3938 77.5964 45.8629Z" fill="#C1E0FF"/>
<path d="M86.8074 48.475C86.6064 48.5592 86.1341 49.0096 86.5129 49.287C86.8152 49.5083 87.7192 49.0657 87.6257 48.6464C87.5883 48.4844 87.3046 48.2693 86.8074 48.475Z" fill="#C1E0FF"/>
<path d="M46.8753 51.583C46.8753 51.583 46.2161 49.6208 44.3395 47.113C44.3395 47.113 44.1868 49.8203 44.2117 52.1893L46.2769 52.8471L46.8753 51.583Z" fill="#396F91"/>
<path d="M46.2772 52.8471L46.8757 51.583C46.8757 51.583 46.2164 49.6208 44.3398 47.113C44.3398 47.113 45.5181 50.4406 46.2273 52.8315L46.2772 52.8471Z" fill="#295875"/>
<path d="M65.1084 52.9093C65.1084 52.9093 65.5027 51.3632 65.3687 49.0066C65.3687 49.0066 63.7197 51.3803 62.7705 52.9638L63.9535 53.6091L65.1084 52.9093Z" fill="#35678F"/>
<path d="M63.9521 53.6106L65.1086 52.9093C65.1086 52.9093 65.5029 51.3632 65.3688 49.0066C65.3688 49.0066 64.4664 51.731 63.9287 53.581L63.9521 53.6106Z" fill="#265173"/>
<path d="M54.6896 46.552L54.6507 51.4599L47.5841 51.3804L47.3877 45.9628L51.0145 42.1521L54.6896 46.552Z" fill="#FFC174"/>
<path d="M51.0151 42.1521L47.3867 45.9628L47.4834 48.6296C49.9288 49.5008 53.088 48.0654 53.9187 45.4781L51.0151 42.1521Z" fill="#FFDD92"/>
<g opacity="0.3">
<path d="M54.6608 50.3597L47.5459 50.3425L47.5537 50.5264L54.6593 50.5451L54.6608 50.3597Z" fill="#9B4578"/>
<path d="M54.6837 47.1038L47.4395 47.1412L47.4457 47.3266L54.6822 47.2892L54.6837 47.1038Z" fill="#9B4578"/>
<path d="M54.6741 48.7574L47.4844 48.6218L47.489 48.7434L54.6726 48.879L54.6741 48.7574Z" fill="#9B4578"/>
<path d="M54.4524 46.2652L47.3936 46.1296L47.3967 46.2029L54.5131 46.3385L54.4524 46.2652Z" fill="#9B4578"/>
<path d="M53.6633 45.3208L47.9526 45.3691L47.8389 45.4891L53.7646 45.4439L53.6633 45.3208Z" fill="#9B4578"/>
<path d="M52.5832 44.0287L49.2696 43.9866L49.1543 44.1066L52.686 44.1518L52.5832 44.0287Z" fill="#9B4578"/>
</g>
<path d="M54.1165 47.0633C54.1773 47.1615 54.1071 49.13 54.1071 49.13L52.748 49.1066C52.748 49.1066 52.7636 47.0664 52.8338 46.9978C52.9039 46.9293 54.0557 46.9651 54.1165 47.0633Z" fill="#FFE8C2"/>
<path d="M53.958 47.2862L53.9533 49.0318L52.9277 49.01L52.9901 47.2317L53.958 47.2862Z" fill="#31435A"/>
<path opacity="0.4" d="M54.3208 49.2579C54.3208 49.2579 53.9529 49.4683 53.275 49.4418C52.597 49.4153 52.4863 49.2002 52.4863 49.2002L54.3208 49.2579Z" fill="#9B4578"/>
<path d="M52.9902 47.2317L53.958 47.2862L53.9549 48.1481L52.959 48.1279L52.9902 47.2317Z" fill="#4B617D"/>
<path d="M54.3208 49.2579C54.3239 49.141 54.2319 49.0428 54.115 49.0381L52.7061 48.9945C52.5892 48.9913 52.491 49.0833 52.4863 49.2002L54.3208 49.2579Z" fill="#F8FBFF"/>
<path d="M51.7275 44.9481C51.7976 44.9949 51.7509 45.9971 51.7509 45.9971L50.2125 45.9846C50.2125 45.9846 50.1954 44.9481 50.2733 44.9154C50.3528 44.8827 51.6573 44.9014 51.7275 44.9481Z" fill="#FFE8C2"/>
<path d="M51.5738 45.1102L51.5972 45.9488L50.3955 45.9378L50.4376 45.0837L51.5738 45.1102Z" fill="#31435A"/>
<path opacity="0.4" d="M52.0009 46.1233C52.0009 46.1233 51.5894 46.3338 50.8304 46.3073C50.0714 46.2808 49.9482 46.0657 49.9482 46.0657L52.0009 46.1233Z" fill="#9B4578"/>
<path d="M50.4359 45.0837L51.5721 45.1102L51.5846 45.5248L50.4141 45.5139L50.4359 45.0837Z" fill="#4B617D"/>
<path d="M52.0015 46.1233C52.0062 46.0065 51.9017 45.9083 51.7708 45.9036L50.1935 45.8599C50.0626 45.8568 49.9519 45.9488 49.9473 46.0657L52.0015 46.1233Z" fill="#F8FBFF"/>
<path d="M49.2645 47.0586C49.3144 47.1318 49.2053 49.0255 49.2053 49.0255L48.0176 49.0006C48.0176 49.0006 47.8929 47.2004 47.9755 47.1194C48.0581 47.0399 49.2162 46.9838 49.2645 47.0586Z" fill="#FFE8C2"/>
<path d="M49.1007 47.2534L49.0571 48.9741L48.1718 48.9554L48.1406 47.283L49.1007 47.2534Z" fill="#31435A"/>
<path d="M49.0773 48.1808L48.1578 48.1621L48.1406 47.283L49.1007 47.2534L49.0773 48.1808Z" fill="#4B617D"/>
<path d="M49.5134 49.1518C49.5134 49.0318 49.4152 48.9336 49.2952 48.9336H47.852C47.732 48.9336 47.6338 49.0318 47.6338 49.1518H49.5134Z" fill="#F8FBFF"/>
<path opacity="0.4" d="M49.5129 49.1519H47.6348C47.6348 49.1519 47.8717 49.3264 48.5185 49.3373C49.1653 49.3482 49.5129 49.1519 49.5129 49.1519Z" fill="#9B4578"/>
<path opacity="0.4" d="M47.3877 45.9628L47.4282 47.1053L50.9818 43.1511L54.6787 48.0061L54.6896 46.552L51.0145 42.1521L47.3877 45.9628Z" fill="#9B4578"/>
<path d="M54.6903 46.552L62.6126 46.9058L62.5035 51.4194L54.6514 51.46L54.6903 46.552Z" fill="#DB8352"/>
<path d="M59.6179 42.272L63.4256 46.7872L54.6118 46.276L50.9912 41.3291L59.6179 42.272Z" fill="#DDE5F2"/>
<g opacity="0.3">
<path d="M54.6617 50.5451L62.5232 50.5872L62.5279 50.4017L54.6602 50.3596L54.6617 50.5451Z" fill="#9B4578"/>
<path d="M62.6043 47.1972L54.6852 47.1052L54.6836 47.2907L62.5996 47.3827L62.6043 47.1972Z" fill="#9B4578"/>
<path d="M62.5682 48.6887L54.6725 48.7573L54.6709 48.8789L62.5651 48.8103L62.5682 48.6887Z" fill="#9B4578"/>
</g>
<path d="M54.7679 46.1592C54.4936 45.9628 51.392 41.3307 51.0382 41.3245C50.6844 41.3182 47.2696 45.4921 46.8768 45.9722C46.5854 46.3275 46.5947 46.4818 46.6727 46.6236C46.7459 46.7561 46.961 46.8013 47.1808 46.6018C48.1798 45.6932 50.8232 42.3485 50.9712 42.3235C51.1395 42.2939 54.1897 46.7359 54.6214 46.9572C55.0531 47.1785 62.9427 47.4154 63.4056 47.2892C63.75 47.1956 63.7407 46.7078 63.3121 46.6314C62.7369 46.527 55.0438 46.3556 54.7679 46.1592Z" fill="#F8FBFF"/>
<path opacity="0.5" d="M52.292 47.47L52.1704 51.4319L49.7344 51.3976V47.47H52.292Z" fill="#9B4578"/>
<path d="M52.0894 47.47L51.9772 51.4303L49.7344 51.3976V47.47H52.0894Z" fill="#634840"/>
<path d="M51.5977 49.4587C51.5977 49.359 51.6803 49.2701 51.7629 49.2795C51.847 49.2888 51.9125 49.3933 51.8985 49.4915C51.8907 49.5928 51.8034 49.6333 51.7473 49.6317C51.6616 49.6317 51.5977 49.5585 51.5977 49.4587Z" fill="#543B35"/>
<path d="M51.6084 49.4214C51.6084 49.3434 51.6848 49.2733 51.7627 49.2811C51.8406 49.2889 51.903 49.3715 51.8905 49.4479C51.8827 49.5274 51.8017 49.5601 51.7487 49.5585C51.6676 49.557 51.6084 49.4993 51.6084 49.4214Z" fill="#FFC387"/>
<path d="M51.7715 47.7629L51.7341 49.0799L49.9854 49.0706L49.9947 47.8019L51.7715 47.7629Z" fill="#755750"/>
<path d="M51.7337 49.7425L49.9756 49.7129V50.9473L51.6885 50.9582L51.7337 49.7425Z" fill="#755750"/>
<path d="M58.1497 48.1572C58.0843 48.0466 56.7626 48.0216 56.641 48.1401C56.5195 48.2585 56.5491 50.5387 56.5491 50.5387L58.1139 50.361C58.1139 50.361 58.2136 48.2679 58.1497 48.1572Z" fill="#FFC174"/>
<path d="M57.9162 48.4705C57.8725 48.3957 56.9873 48.3801 56.9062 48.458C56.8252 48.5375 56.8423 50.3486 56.8423 50.3486L57.8897 50.2286C57.8897 50.2286 57.9598 48.5453 57.9162 48.4705Z" fill="#31435A"/>
<path d="M56.8438 49.4384C56.85 48.974 56.8656 48.4986 56.9061 48.4596C56.9871 48.3801 57.8724 48.3973 57.916 48.4721C57.9394 48.5111 57.9301 49.0051 57.916 49.4602L56.8438 49.4384Z" fill="#4B617D"/>
<path d="M61.2205 48.2273C61.1581 48.1136 59.8988 48.031 59.7819 48.1432C59.6666 48.2554 59.6931 50.5403 59.6931 50.5403L61.1846 50.4296C61.1846 50.4296 61.2828 48.3411 61.2205 48.2273Z" fill="#FFC174"/>
<path d="M60.9975 48.5312C60.9554 48.4548 60.1122 48.3987 60.0343 48.4751C59.9564 48.5515 59.972 50.3641 59.972 50.3641L60.971 50.2908C60.971 50.2908 61.0396 48.6076 60.9975 48.5312Z" fill="#31435A"/>
<path d="M59.9746 49.4509C59.9808 48.9864 59.9964 48.511 60.0354 48.4736C60.1133 48.3973 60.9565 48.4534 60.9986 48.5297C61.0204 48.5703 61.0111 49.0643 60.9986 49.5179L59.9746 49.4509Z" fill="#4B617D"/>
<g opacity="0.5">
<path d="M53.6718 42.531C53.6718 42.531 53.6671 42.531 53.664 42.531L52.9081 42.4608C52.8644 42.4577 52.8317 42.4172 52.8364 42.3735C52.8395 42.3315 52.8753 42.3003 52.9159 42.3003C52.9159 42.3003 52.9205 42.3003 52.9237 42.3003L53.6796 42.3704C53.7232 42.3735 53.7559 42.4141 53.7513 42.4577C53.7481 42.4998 53.7123 42.531 53.6718 42.531Z" fill="#B8C6D8"/>
<path d="M58.5252 42.9876C58.5221 42.9876 58.5205 42.9876 58.5174 42.9876L56.0096 42.7522C55.966 42.7491 55.9333 42.7086 55.9379 42.665C55.9426 42.6213 55.9831 42.5964 56.0252 42.5933L58.533 42.8286C58.5766 42.8317 58.6093 42.8722 58.6047 42.9159C58.6 42.9564 58.5657 42.9876 58.5252 42.9876Z" fill="#B8C6D8"/>
<path d="M56.8242 43.6515C56.8211 43.6515 56.818 43.6515 56.818 43.6515L54.4084 43.4442C54.3648 43.4411 54.332 43.4021 54.3352 43.3569C54.3398 43.3117 54.3788 43.2743 54.4224 43.2837L56.832 43.491C56.8756 43.4941 56.9084 43.533 56.9053 43.5782C56.9006 43.6203 56.8647 43.6515 56.8242 43.6515Z" fill="#B8C6D8"/>
<path d="M57.5483 43.7186C57.5452 43.7186 57.5421 43.7186 57.5421 43.7186L57.1945 43.6874C57.1509 43.6843 57.1182 43.6453 57.1213 43.6001C57.1244 43.5549 57.1681 43.5206 57.2086 43.5269L57.5561 43.558C57.5998 43.5611 57.6325 43.6001 57.6294 43.6453C57.6232 43.6858 57.5889 43.7186 57.5483 43.7186Z" fill="#B8C6D8"/>
<path d="M55.8437 44.6133C55.8405 44.6133 55.8374 44.6133 55.8343 44.6133L55.3792 44.5572C55.3356 44.5525 55.3044 44.512 55.3091 44.4668C55.3137 44.4231 55.3465 44.3888 55.3995 44.3966L55.8546 44.4527C55.8982 44.4574 55.9294 44.4979 55.9247 44.5431C55.9185 44.5836 55.8842 44.6133 55.8437 44.6133Z" fill="#B8C6D8"/>
<path d="M60.5917 45.0948H60.5854L58.8289 44.981C58.7853 44.9779 58.751 44.9405 58.7541 44.8953C58.7572 44.8517 58.7868 44.8143 58.8398 44.8205L60.5963 44.9343C60.64 44.9358 60.6743 44.9748 60.6712 45.02C60.6696 45.0621 60.6338 45.0948 60.5917 45.0948Z" fill="#B8C6D8"/>
<path d="M60.0831 45.9459H60.0784L57.4568 45.8025C57.4132 45.8009 57.3789 45.762 57.382 45.7183C57.3836 45.6747 57.4304 45.6373 57.4662 45.6435L60.0877 45.7869C60.1314 45.7885 60.1657 45.8274 60.1625 45.8711C60.1594 45.9131 60.1251 45.9459 60.0831 45.9459Z" fill="#B8C6D8"/>
</g>
<path d="M47.1113 46.7593C47.1113 46.7593 48.3675 46.9105 48.7852 47.8643C50.5527 47.6617 52.2063 49.119 52.3949 50.6339C52.3949 50.6339 53.1275 49.2499 55.7085 49.0784C58.2895 48.9054 59.022 49.4884 59.022 49.4884C59.7717 48.3163 61.0793 47.1115 64.1139 46.8606V52.752H47.13L47.1113 46.7593Z" fill="#99B8E0"/>
<path d="M47.9922 48.1573C47.4124 48.2664 45.9349 49.0691 46.8093 49.7985C47.5091 50.3814 50.1306 49.747 50.0885 48.8119C50.0714 48.4519 49.4199 47.8877 47.9922 48.1573Z" fill="#B2D0F5"/>
<path d="M61.4898 47.6961C60.9271 47.8676 59.554 48.8261 60.5079 49.4558C61.2716 49.9592 63.8012 49.0412 63.6484 48.1169C63.5908 47.7616 62.8754 47.2737 61.4898 47.6961Z" fill="#B2D0F5"/>
<path d="M55.1216 49.387C54.6026 49.4712 53.2716 50.0603 54.0462 50.5762C54.6665 50.9892 57.0169 50.5092 56.9888 49.8374C56.9795 49.5803 56.4012 49.1813 55.1216 49.387Z" fill="#B2D0F5"/>
<path d="M92.8876 58.6268H1.51562V50.3913C1.51562 50.3913 7.96173 50.7934 15.8095 53.2029C23.6572 55.6125 30.3839 55.8136 42.4366 52.8008C54.4883 49.7881 58.0625 48.3822 66.6813 48.1812C75.3 47.9801 85.8804 50.7918 85.8804 50.7918C85.8804 50.7918 89.4536 49.587 92.8876 49.2847V58.6268Z" fill="#C1E0FF"/>
<path d="M92.8866 49.2861C89.4537 49.5869 85.8794 50.7933 85.8794 50.7933C85.8794 50.7933 75.299 47.9816 66.6803 48.1827C58.0616 48.3837 54.4884 49.7896 42.4356 52.8023C30.384 55.815 23.6573 55.614 15.8085 53.2044C7.96075 50.7933 1.51465 50.3927 1.51465 50.3927V53.5068C8.87199 53.1047 17.1634 55.6825 27.5339 56.0847C37.9044 56.4868 57.0579 51.2515 66.2127 50.9959C75.8351 50.7278 90.9706 53.8076 90.9706 53.8076C90.9706 53.8076 88.9274 52.1508 87.0005 51.3466C87.0005 51.3466 89.8734 50.6436 92.8866 51.1455V49.2861Z" fill="#D6EEFF"/>
<path d="M41.4561 58.6268H79.6673C79.6673 58.6268 71.8347 53.7874 59.3938 54.4077C47.3421 55.0109 41.4561 58.6268 41.4561 58.6268Z" fill="#D6EEFF"/>
<path d="M3.23491 55.1574C2.64337 55.187 2.07031 55.226 1.51465 55.2712V58.6268H19.9091C19.9091 58.6268 13.4673 54.6462 3.23491 55.1574Z" fill="#D6EEFF"/>
<path d="M1.51562 58.6267V57.2209C1.51562 57.2209 11.2555 57.824 18.9629 58.1248C26.6704 58.4256 40.0541 57.7227 46.2208 57.3222C52.3874 56.9201 70.8156 58.0251 77.963 57.824C85.1105 57.623 90.7856 56.8203 92.8876 56.719V58.6267H1.51562Z" fill="#99B8E0"/>
<path d="M25.5154 56.0391C25.5154 56.2043 24.2763 56.3399 22.7489 56.3399C21.2215 56.3399 19.9824 56.2059 19.9824 56.0391C19.9824 55.8723 21.2215 55.7383 22.7489 55.7383C24.2763 55.7398 25.5154 55.8739 25.5154 56.0391Z" fill="#85A3D6"/>
<path d="M21.8047 54.9761C21.8047 54.9761 21.7767 56.1746 22.0136 56.1622C22.2505 56.1497 22.2536 55.0182 22.2536 55.0182L21.8047 54.9761Z" fill="#214C66"/>
<path d="M22.1942 48.2476C22.1942 48.2476 20.3628 51.2619 19.7939 55.0492C19.7939 55.0492 22.0975 55.7833 24.0987 55.0882C24.0987 55.0882 22.6025 50.799 22.1942 48.2476Z" fill="#396F91"/>
<path d="M21.9381 55.3827C22.6176 55.403 23.3782 55.3391 24.1014 55.0882C24.1014 55.0882 22.6036 50.799 22.1952 48.2476C22.1952 48.2476 21.6342 52.6692 21.9381 55.3827Z" fill="#214C66"/>
<g opacity="0.3">
<path d="M23.5716 53.4923C23.5139 53.3131 23.4547 53.1245 23.3939 52.9265C22.0489 53.4783 20.8566 53.1775 20.2721 52.8611C20.2207 53.045 20.1708 53.232 20.124 53.4237C20.8082 53.7822 21.9538 54.1313 23.5716 53.4923Z" fill="#295875"/>
<path d="M22.9839 51.5581C22.9403 51.4069 22.8982 51.2542 22.8545 51.1014C22.0955 51.3664 21.444 51.3508 20.8627 51.0796C20.8097 51.2199 20.7567 51.3648 20.7021 51.5129C21.1261 51.8261 22.1438 51.9695 22.9839 51.5581Z" fill="#295875"/>
</g>
<path d="M80.2961 11.7405C80.0717 11.7405 79.9018 11.6571 79.7864 11.4904C79.6709 11.3173 79.6132 11.0672 79.6132 10.7402C79.6132 10.2079 79.6645 9.6052 79.7671 8.93193C79.8697 8.25224 80.0364 7.41224 80.2673 6.41195C79.9402 6.41195 79.6709 6.34782 79.4593 6.21958C79.2541 6.09134 79.1291 5.9118 79.0842 5.68096C79.392 5.59119 79.6549 5.49821 79.8729 5.40203C80.0973 5.30585 80.341 5.18722 80.6039 5.04615C80.7899 4.94356 80.9373 4.87303 81.0463 4.83455C81.1554 4.78967 81.2612 4.76722 81.3637 4.76722C81.6202 4.76722 81.7485 4.9147 81.7485 5.20966C81.7485 5.30585 81.7228 5.48218 81.6715 5.73867C81.6202 5.98874 81.5593 6.26126 81.4888 6.55622C81.29 7.40904 81.1297 8.15926 81.0079 8.80689C80.8925 9.45452 80.8347 10.0637 80.8347 10.6344C80.8347 10.9806 80.8892 11.282 80.9983 11.5385C80.7482 11.6731 80.5141 11.7405 80.2961 11.7405ZM85.7193 11.7405C85.2128 11.7405 84.7703 11.6186 84.392 11.375C84.0137 11.1313 83.7219 10.785 83.5167 10.3362C83.318 9.88734 83.2186 9.36154 83.2186 8.7588C83.2186 7.9701 83.3725 7.27438 83.6802 6.67164C83.988 6.06889 84.4208 5.60081 84.9787 5.26737C85.5366 4.93394 86.1746 4.76722 86.8927 4.76722C87.0082 4.76722 87.1428 4.78326 87.2967 4.81532C87.4506 4.84096 87.5756 4.87303 87.6718 4.9115C87.7167 4.9628 87.7488 5.11669 87.768 5.37317C88.172 5.48218 88.4797 5.74187 88.6914 6.15225C88.903 6.55622 89.0088 7.08522 89.0088 7.73926C89.0088 8.48308 88.8613 9.15956 88.5663 9.76871C88.2778 10.3779 87.8834 10.8588 87.3833 11.2115C86.8831 11.5641 86.3285 11.7405 85.7193 11.7405ZM85.8059 11.0095C86.1842 11.0095 86.524 10.8748 86.8254 10.6055C87.1268 10.3362 87.3608 9.96108 87.5275 9.48017C87.7007 8.99925 87.7872 8.45422 87.7872 7.84506C87.7872 7.1269 87.6526 6.59149 87.3833 6.23882C87.1204 5.88615 86.71 5.70981 86.1521 5.70981C85.9405 5.70981 85.6808 5.76111 85.3731 5.86371C85.0717 6.29973 84.8408 6.78385 84.6805 7.31606C84.5202 7.84186 84.4401 8.36445 84.4401 8.88384C84.4401 9.53788 84.5619 10.0573 84.8056 10.442C85.0557 10.8203 85.3891 11.0095 85.8059 11.0095Z" fill="black"/>
</svg>
