<svg width="95" height="62" viewBox="0 0 95 62" fill="none" xmlns="http://www.w3.org/2000/svg">
<path d="M93.623 2.02954V61.2395H0.75V2.02954H93.623Z" fill="#D9D9D9" stroke="black" stroke-width="1.5"/>
<path d="M63.5858 49.9419C61.3544 47.0166 57.573 45.7049 54.0832 45.092C50.6849 44.5741 47.1125 44.2757 44.3888 41.9535C41.8081 39.8172 39.8799 36.7337 37.9276 33.9725L26.7189 0.350424C26.6479 0.11915 26.4211 -0.0246047 26.1823 0.00349297L1.16287 2.35617C0.885348 2.38336 0.67563 2.62192 0.692339 2.89948L2.00815 28.027C2.02263 28.2669 2.20144 28.4653 2.4394 28.5074L37.1829 34.6356C37.7026 35.5441 39.2091 37.5952 40.1228 38.7904C42.6852 42.5621 46.6879 45.4109 51.333 45.6967C53.9164 45.965 56.4517 46.5887 58.8669 47.5501C63.5467 49.9083 66.3349 54.7225 68.9572 59.1277C67.6002 55.8304 65.7914 52.7381 63.5855 49.9405L63.5858 49.9419ZM13.4311 12.6994C16.3139 9.40903 19.4878 6.38048 22.9122 3.65902L24.5564 2.05547C24.9146 1.73885 25.2351 1.41399 25.6215 1.07736L25.8886 1.05021L36.3857 32.5422C29.6677 26.8159 21.2885 19.3771 13.4311 12.6994ZM12.6453 12.0695C12.6337 12.0596 12.6221 12.0498 12.6105 12.0399C8.8563 8.84617 5.16727 5.84374 1.85695 3.35616L25.1563 1.16062L25.1574 1.16376C22.8342 2.44391 20.6754 4.00426 18.7322 5.80997C16.5693 7.76166 14.5228 9.84148 12.6105 12.0399C12.608 12.0428 12.6055 12.0457 12.603 12.0486L12.6453 12.0695ZM1.75662 3.40075C4.73395 6.30875 8.22559 9.49776 11.9534 12.796L11.9503 12.7971C10.062 15.0143 8.30721 17.3474 6.69739 19.7785C6.06178 20.7341 4.84519 22.7038 4.26106 23.698C3.82585 24.7398 3.40631 25.7764 3.00252 26.8076L1.75662 3.40075ZM3.02201 27.2905C6.22689 22.6747 8.9956 17.72 12.6891 13.4948C20.4336 20.326 29.0478 27.4966 35.6988 33.3363L3.03744 27.5538L3.02201 27.2905Z" fill="white"/>
<path d="M3.02201 27.2905C6.22689 22.6747 8.9956 17.72 12.6891 13.4948C20.4336 20.326 29.0478 27.4966 35.6988 33.3363L3.03744 27.5538L3.02201 27.2905Z" fill="#E71712"/>
<path d="M1.75662 3.40075C4.73395 6.30875 8.22559 9.49776 11.9534 12.796L11.9503 12.7971C10.062 15.0143 8.30721 17.3474 6.69739 19.7785C6.06178 20.7341 4.84519 22.7038 4.26106 23.698C3.82585 24.7398 3.40631 25.7764 3.00252 26.8076L1.75662 3.40075Z" fill="#E71712"/>
<path d="M13.4311 12.6994C16.3139 9.40903 19.4878 6.38048 22.9122 3.65902L24.5564 2.05547C24.9146 1.73885 25.2351 1.41399 25.6215 1.07736L25.8886 1.05021L36.3857 32.5422C29.6677 26.8159 21.2885 19.3771 13.4311 12.6994Z" fill="white"/>
<path d="M1.85695 3.35616C5.16727 5.84374 8.8563 8.84617 12.6105 12.0399C14.5228 9.84148 16.5693 7.76166 18.7322 5.80997C20.6754 4.00426 22.8342 2.44391 25.1574 1.16376L25.1563 1.16062L1.85695 3.35616Z" fill="#0032A0"/>
<path d="M79.9789 14.2704C79.4338 14.2704 79.0331 14.1966 78.7766 14.0491C78.5201 13.9017 78.3919 13.6772 78.3919 13.3759C78.3919 13.1963 78.4688 13.0456 78.6227 12.9238C78.783 12.802 78.9722 12.7411 79.1902 12.7411C79.3826 12.7411 79.5685 12.8116 79.748 12.9527C79.934 13.0937 80.0879 13.2829 80.2097 13.5201C80.5816 13.5201 80.9215 13.4464 81.2293 13.2989C81.5435 13.1514 81.7903 12.9527 81.9699 12.7026C82.1558 12.4461 82.2488 12.1704 82.2488 11.8754C82.2488 11.6318 82.1847 11.3945 82.0564 11.1637C81.9346 10.9328 81.739 10.7437 81.4697 10.5962C81.2004 10.4423 80.8638 10.3654 80.4598 10.3654C80.2931 10.3654 80.0975 10.3878 79.8731 10.4327C79.7833 10.4519 79.7192 10.4615 79.6807 10.4615C79.623 10.4615 79.5749 10.4391 79.5364 10.3942C79.498 10.3493 79.4787 10.298 79.4787 10.2403L80.0558 6.89317L81.085 7.23943L80.681 9.67285C81.2196 9.67285 81.7005 9.76262 82.1238 9.94216C82.5534 10.1217 82.8868 10.3718 83.1241 10.6924C83.3677 11.013 83.4895 11.3753 83.4895 11.7792C83.4895 12.2537 83.3357 12.6802 83.0279 13.0585C82.7265 13.4368 82.3065 13.7317 81.7679 13.9433C81.2357 14.1614 80.6393 14.2704 79.9789 14.2704ZM81.8544 7.52798C81.0722 7.52798 80.4951 7.45424 80.1232 7.30676C79.7513 7.15928 79.5653 6.93485 79.5653 6.63348C79.5653 6.44111 79.6166 6.29684 79.7192 6.20066C79.8282 6.09806 79.9885 6.04677 80.2001 6.04677C80.3796 6.04677 80.5432 6.10768 80.6906 6.22951C80.8445 6.35134 80.9696 6.51165 81.0657 6.71042C81.4248 6.69119 81.8288 6.61745 82.2776 6.48921C82.7329 6.35455 83.1753 6.18783 83.605 5.98906C83.6498 6.05318 83.6819 6.13974 83.7011 6.24875C83.7268 6.35134 83.7396 6.46035 83.7396 6.57577C83.7396 6.8002 83.6563 6.98294 83.4895 7.12401C83.3292 7.26508 83.108 7.36767 82.8259 7.43179C82.5502 7.49592 82.2263 7.52798 81.8544 7.52798ZM87.1074 13.0296C86.3764 13.0296 85.7961 12.8725 85.3665 12.5583C84.9433 12.2441 84.7317 11.8113 84.7317 11.2599C84.7317 10.997 84.7926 10.7437 84.9144 10.5C85.0362 10.2499 85.2542 9.99666 85.5684 9.74017C85.8826 9.48369 86.3155 9.2272 86.8669 8.97071C87.3542 8.7527 87.7325 8.53469 88.0019 8.31667C88.2712 8.09225 88.4539 7.87423 88.5501 7.66263C88.6527 7.45103 88.704 7.2266 88.704 6.98935C88.704 6.70722 88.6078 6.48279 88.4154 6.31608C88.2295 6.14936 87.973 6.066 87.646 6.066C87.2933 6.066 87.0016 6.15257 86.7707 6.3257C86.5463 6.49241 86.4341 6.72966 86.4341 7.03745C86.4341 7.25546 86.5014 7.45744 86.6361 7.6434C86.7707 7.82935 86.9374 7.99927 87.1362 8.15316C87.3414 8.30705 87.6171 8.49621 87.9634 8.72064C88.3738 8.98354 88.704 9.21438 88.9541 9.41315C89.2041 9.60552 89.4157 9.83315 89.5889 10.096C89.762 10.3589 89.8486 10.6539 89.8486 10.9809C89.8486 11.3785 89.7331 11.7344 89.5023 12.0486C89.2715 12.3563 88.9477 12.5968 88.5309 12.7699C88.1141 12.9431 87.6396 13.0296 87.1074 13.0296ZM87.2035 12.2217C87.6075 12.2217 87.9441 12.1223 88.2135 11.9235C88.4828 11.7183 88.6174 11.433 88.6174 11.0675C88.6174 10.888 88.5533 10.7148 88.4251 10.5481C88.2968 10.3814 88.1397 10.2275 87.9538 10.0864C87.7678 9.94536 87.5081 9.75941 87.1747 9.52857C86.7515 9.24644 86.4084 8.99957 86.1455 8.78797C85.889 8.57637 85.6678 8.3327 85.4819 8.05698C85.2959 7.78126 85.2029 7.47988 85.2029 7.15286C85.2029 6.78096 85.3023 6.45073 85.5011 6.16218C85.7063 5.87364 85.9948 5.65242 86.3668 5.49853C86.7387 5.33822 87.1683 5.25807 87.6556 5.25807C88.3096 5.25807 88.8258 5.41517 89.2041 5.72936C89.5825 6.04356 89.7716 6.46356 89.7716 6.98935C89.7716 7.42538 89.5857 7.84538 89.2138 8.24935C88.8418 8.6469 88.3096 8.99957 87.6171 9.30735C87.0657 9.55101 86.6232 9.84277 86.2898 10.1826C85.9628 10.5225 85.7993 10.8815 85.7993 11.2599C85.7993 11.5484 85.9307 11.7824 86.1936 11.962C86.4565 12.1351 86.7932 12.2217 87.2035 12.2217Z" fill="black"/>
</svg>
