<svg width="95" height="61" viewBox="0 0 95 61" fill="none" xmlns="http://www.w3.org/2000/svg">
<path d="M93.623 0.75V59.96H0.75V0.75H93.623Z" fill="#D9D9D9" stroke="black" stroke-width="1.5"/>
<path d="M78.8936 11.5C78.3935 11.5 78.028 11.4295 77.7972 11.2884C77.5663 11.1473 77.4509 10.9261 77.4509 10.6247C77.4509 10.426 77.5214 10.1791 77.6625 9.88413C77.8036 9.58276 78.0344 9.14994 78.355 8.58567C78.6307 8.11117 78.852 7.71041 79.0187 7.38339C79.1918 7.05637 79.3393 6.72294 79.4611 6.38309C79.583 6.03683 79.6439 5.72264 79.6439 5.4405C79.6439 5.28661 79.6182 5.11669 79.5669 4.93074C79.6888 4.87303 79.8042 4.83135 79.9132 4.8057C80.0222 4.78005 80.1344 4.76722 80.2498 4.76722C80.7692 4.76722 81.0289 5.08142 81.0289 5.70981C81.0289 6.2805 80.7981 6.9698 80.3364 7.77774C79.8811 8.57926 79.1854 9.51864 78.2492 10.5959H81.4425L81.1636 11.3173C80.8686 11.3686 80.5063 11.4134 80.0767 11.4519C79.6471 11.484 79.2527 11.5 78.8936 11.5ZM81.7118 13.1351C81.4489 13.1351 81.2437 13.0485 81.0962 12.8754C80.9552 12.7087 80.8846 12.4682 80.8846 12.154C80.8846 11.8398 80.9744 11.3269 81.1539 10.6151C81.3399 9.90337 81.59 9.08261 81.9042 8.15285C82.0132 8.06949 82.1382 8.00216 82.2793 7.95087C82.4203 7.89957 82.5518 7.87392 82.6736 7.87392C82.7826 7.87392 82.8596 7.89316 82.9045 7.93163C82.9493 7.96369 82.9718 8.0214 82.9718 8.10476C82.9718 8.18812 82.9525 8.31636 82.9141 8.48949C82.8756 8.66262 82.8307 8.85178 82.7794 9.05696C82.6384 9.58276 82.5229 10.0765 82.4332 10.5382C82.3498 10.9934 82.3081 11.4455 82.3081 11.8943C82.3081 12.3176 82.3851 12.6542 82.539 12.9043C82.3722 12.9876 82.228 13.0453 82.1061 13.0774C81.9843 13.1159 81.8529 13.1351 81.7118 13.1351ZM85.4416 12.9908C84.8965 12.9908 84.4958 12.9171 84.2393 12.7696C83.9828 12.6221 83.8546 12.3977 83.8546 12.0963C83.8546 11.9168 83.9315 11.7661 84.0854 11.6443C84.2457 11.5224 84.4349 11.4615 84.6529 11.4615C84.8452 11.4615 85.0312 11.5321 85.2107 11.6731C85.3967 11.8142 85.5506 12.0034 85.6724 12.2406C86.0443 12.2406 86.3842 12.1669 86.6919 12.0194C87.0061 11.8719 87.253 11.6731 87.4325 11.4231C87.6185 11.1666 87.7115 10.8908 87.7115 10.5959C87.7115 10.3522 87.6474 10.115 87.5191 9.88413C87.3973 9.6533 87.2017 9.46414 86.9324 9.31666C86.6631 9.16277 86.3264 9.08582 85.9225 9.08582C85.7558 9.08582 85.5602 9.10826 85.3358 9.15315C85.246 9.17238 85.1819 9.182 85.1434 9.182C85.0857 9.182 85.0376 9.15956 84.9991 9.11467C84.9607 9.06979 84.9414 9.01849 84.9414 8.96078L85.5185 5.61363L86.5477 5.95989L86.1437 8.39331C86.6823 8.39331 87.1632 8.48308 87.5864 8.66262C88.0161 8.84216 88.3495 9.09223 88.5867 9.41284C88.8304 9.73345 88.9522 10.0957 88.9522 10.4997C88.9522 10.9742 88.7983 11.4006 88.4906 11.7789C88.1892 12.1572 87.7692 12.4522 87.2306 12.6638C86.6984 12.8818 86.102 12.9908 85.4416 12.9908ZM87.3171 6.24844C86.5348 6.24844 85.9578 6.1747 85.5858 6.02722C85.2139 5.87974 85.028 5.65531 85.028 5.35394C85.028 5.16157 85.0793 5.0173 85.1819 4.92112C85.2909 4.81852 85.4512 4.76722 85.6628 4.76722C85.8423 4.76722 86.0058 4.82814 86.1533 4.94997C86.3072 5.0718 86.4323 5.23211 86.5284 5.43088C86.8875 5.41165 87.2915 5.33791 87.7403 5.20966C88.1956 5.07501 88.638 4.90829 89.0677 4.70952C89.1125 4.77364 89.1446 4.8602 89.1638 4.96921C89.1895 5.0718 89.2023 5.18081 89.2023 5.29623C89.2023 5.52065 89.1189 5.7034 88.9522 5.84447C88.7919 5.98554 88.5707 6.08813 88.2886 6.15225C88.0128 6.21637 87.689 6.24844 87.3171 6.24844Z" fill="black"/>
</svg>
