<svg width="95" height="61" viewBox="0 0 95 61" fill="none" xmlns="http://www.w3.org/2000/svg">
<path d="M93.623 0.75V59.96H0.75V0.75H93.623Z" fill="#3BA15C" stroke="black" stroke-width="1.5"/>
<path d="M86.9143 11.7405C86.2217 11.7405 85.6639 11.516 85.2407 11.0672C84.8239 10.6119 84.6155 9.95467 84.6155 9.09544C84.6155 8.16567 84.8431 7.27438 85.2984 6.42156C85.7601 5.56233 86.3211 4.86982 86.9816 4.34402C87.6484 3.81181 88.2512 3.54571 88.7898 3.54571C89.0078 3.54571 89.1777 3.58739 89.2996 3.67074C89.4278 3.74769 89.5368 3.89196 89.6266 4.10357C89.1585 4.27669 88.7129 4.4915 88.2897 4.74799C87.8729 5.00447 87.4561 5.36997 87.0393 5.84447C86.6289 6.31897 86.2762 6.92171 85.9813 7.6527H86.039C86.3083 7.29362 86.5936 7.04354 86.895 6.90248C87.1964 6.755 87.517 6.68126 87.8568 6.68126C88.28 6.68126 88.6423 6.77744 88.9437 6.9698C89.2515 7.16217 89.4823 7.42507 89.6362 7.7585C89.7965 8.09193 89.8767 8.47346 89.8767 8.90307C89.8767 9.42887 89.7388 9.90978 89.4631 10.3458C89.1938 10.7818 88.8315 11.1249 88.3762 11.375C87.921 11.6186 87.4336 11.7405 86.9143 11.7405ZM87.0585 10.9902C87.2958 10.9902 87.5362 10.9101 87.7799 10.7498C88.0236 10.5895 88.2287 10.3522 88.3955 10.038C88.5622 9.71742 88.6455 9.33589 88.6455 8.89345C88.6455 8.48308 88.5429 8.14002 88.3378 7.8643C88.1326 7.58217 87.7927 7.4411 87.3182 7.4411C87.1002 7.4411 86.8758 7.51804 86.6449 7.67194C86.4141 7.82583 86.2217 8.05025 86.0678 8.34521C85.914 8.64017 85.837 8.99284 85.837 9.40322C85.837 9.85207 85.9332 10.2304 86.1256 10.5382C86.3179 10.8395 86.6289 10.9902 87.0585 10.9902Z" fill="black"/>
</svg>
