<svg width="95" height="61" viewBox="0 0 95 61" fill="none" xmlns="http://www.w3.org/2000/svg">
<path d="M93.623 0.75V59.96H0.75V0.75H93.623Z" fill="#3BA15C" stroke="black" stroke-width="1.5"/>
<path d="M78.4091 10.5863C79.512 9.8681 80.3392 9.20765 80.8906 8.60491C81.4485 7.99575 81.7274 7.42827 81.7274 6.90248C81.7274 6.48569 81.6312 6.1747 81.4388 5.96951C81.2529 5.76432 80.9707 5.66172 80.5924 5.66172C80.3488 5.66172 80.1243 5.73226 79.9192 5.87332C79.7204 6.00798 79.5569 6.19393 79.4286 6.43118C79.3068 6.66843 79.2363 6.93774 79.217 7.23912C78.9798 7.21347 78.797 7.13331 78.6688 6.99866C78.5405 6.85759 78.4764 6.67805 78.4764 6.46004C78.4764 6.1266 78.5758 5.83164 78.7746 5.57516C78.9734 5.31867 79.2523 5.11989 79.6114 4.97883C79.9769 4.83776 80.3969 4.76722 80.8714 4.76722C81.2817 4.76722 81.644 4.84417 81.9582 4.99806C82.2724 5.14554 82.5161 5.35714 82.6892 5.63287C82.8623 5.90859 82.9489 6.22279 82.9489 6.57546C82.9489 7.01148 82.8239 7.44751 82.5738 7.88354C82.3301 8.31957 81.939 8.78765 81.4004 9.2878C80.8682 9.78795 80.15 10.3554 79.2459 10.9902L78.4091 10.5863ZM81.9582 11.7885C81.5927 11.7885 81.224 11.7469 80.8521 11.6635C80.4802 11.5802 79.9737 11.4231 79.3324 11.1922L79.3036 11.1826C79.1176 11.375 78.9477 11.5096 78.7938 11.5866C78.6463 11.6699 78.486 11.7116 78.3129 11.7116C78.1398 11.7116 77.9923 11.6539 77.8705 11.5385C77.755 11.4231 77.6973 11.282 77.6973 11.1153C77.6973 10.8395 77.8096 10.6151 78.034 10.442C78.2584 10.2689 78.5405 10.1823 78.8804 10.1823C79.0471 10.1823 79.2491 10.2112 79.4863 10.2689C79.7236 10.3202 80.0153 10.3971 80.3616 10.4997C80.772 10.6151 81.0958 10.7017 81.333 10.7594C81.5703 10.8107 81.7787 10.8363 81.9582 10.8363L83.0162 10.2592C83.106 10.4003 83.1669 10.5189 83.199 10.6151C83.2375 10.7113 83.2567 10.8043 83.2567 10.8941C83.2567 11.0608 83.199 11.2147 83.0836 11.3557C82.9681 11.4904 82.811 11.5962 82.6123 11.6731C82.4135 11.7501 82.1955 11.7885 81.9582 11.7885ZM86.0195 12.6638C85.4873 12.6638 85.2212 12.3528 85.2212 11.7308C85.2212 11.0255 85.436 10.1406 85.8656 9.0762C86.2953 8.01178 86.8723 6.91851 87.5969 5.79638L88.8377 5.40203C88.4722 5.95348 88.1195 6.58507 87.7797 7.29682C87.4398 8.00858 87.1609 8.74597 86.9429 9.50902C86.7249 10.2721 86.6159 10.9838 86.6159 11.6443C86.6159 11.8302 86.6223 11.9777 86.6351 12.0867C86.6543 12.2021 86.6928 12.3208 86.7505 12.4426C86.5133 12.5901 86.2696 12.6638 86.0195 12.6638ZM86.991 6.20034C86.3626 6.20034 85.8592 6.17149 85.4809 6.11378C85.109 6.04966 84.8365 5.95348 84.6634 5.82523C84.4902 5.69058 84.4037 5.51104 84.4037 5.28661C84.4037 5.1776 84.4197 5.0686 84.4518 4.95959C84.4838 4.84417 84.5223 4.74478 84.5672 4.66142C85.0353 4.8602 85.5579 5.02692 86.1349 5.16157C86.712 5.28982 87.2346 5.36676 87.7027 5.39241C87.8117 5.18722 87.9432 5.02692 88.0971 4.9115C88.2574 4.78967 88.4273 4.72875 88.6068 4.72875C88.8184 4.72875 88.9787 4.78005 89.0878 4.88264C89.1968 4.97883 89.2513 5.11989 89.2513 5.30585C89.2513 5.62004 89.0685 5.84767 88.703 5.98874C88.3375 6.12981 87.7668 6.20034 86.991 6.20034Z" fill="black"/>
</svg>
