<svg width="95" height="61" viewBox="0 0 95 61" fill="none" xmlns="http://www.w3.org/2000/svg">
<path d="M93.623 0.75V59.96H0.75V0.75H93.623Z" fill="#3BA15C" stroke="black" stroke-width="1.5"/>
<path d="M82.0679 11.7405C81.8434 11.7405 81.6735 11.6571 81.5581 11.4904C81.4427 11.3173 81.385 11.0672 81.385 10.7402C81.385 10.2079 81.4363 9.6052 81.5389 8.93193C81.6415 8.25224 81.8082 7.41224 82.039 6.41195C81.712 6.41195 81.4427 6.34782 81.2311 6.21958C81.0259 6.09134 80.9009 5.9118 80.856 5.68096C81.1638 5.59119 81.4267 5.49821 81.6447 5.40203C81.8691 5.30585 82.1128 5.18722 82.3757 5.04615C82.5616 4.94356 82.7091 4.87303 82.8181 4.83455C82.9271 4.78967 83.0329 4.76722 83.1355 4.76722C83.392 4.76722 83.5202 4.9147 83.5202 5.20966C83.5202 5.30585 83.4946 5.48218 83.4433 5.73867C83.392 5.98874 83.3311 6.26126 83.2605 6.55622C83.0618 7.40904 82.9015 8.15926 82.7796 8.80689C82.6642 9.45452 82.6065 10.0637 82.6065 10.6344C82.6065 10.9806 82.661 11.282 82.77 11.5385C82.5199 11.6731 82.2859 11.7405 82.0679 11.7405ZM86.1445 13.0004C85.5995 13.0004 85.1923 12.9267 84.923 12.7792C84.6601 12.6317 84.5286 12.4105 84.5286 12.1156C84.5286 11.9296 84.6024 11.7757 84.7499 11.6539C84.9038 11.5321 85.0897 11.4711 85.3077 11.4711C85.5001 11.4711 85.6892 11.5417 85.8752 11.6827C86.0612 11.8238 86.215 12.0162 86.3369 12.2598C86.7216 12.2598 87.0743 12.1861 87.3949 12.0386C87.7155 11.8911 87.9688 11.6892 88.1547 11.4327C88.3407 11.1762 88.4337 10.8941 88.4337 10.5863C88.4337 10.3105 88.3567 10.0509 88.2028 9.80719C88.0553 9.55711 87.8758 9.40002 87.6642 9.33589C87.241 9.61803 86.8819 9.7591 86.5869 9.7591C86.4138 9.7591 86.2663 9.7078 86.1445 9.6052C86.0291 9.4962 85.9714 9.36475 85.9714 9.21086C85.9714 8.98643 86.0676 8.80689 86.2599 8.67223C86.4587 8.53758 86.7184 8.47025 87.039 8.47025C87.5392 8.47025 87.988 8.56002 88.3856 8.73956C88.7831 8.91269 89.0941 9.15315 89.3185 9.46093C89.543 9.76871 89.6552 10.1182 89.6552 10.5093C89.6552 10.9838 89.5045 11.4102 89.2031 11.7885C88.9017 12.1669 88.4817 12.4618 87.9431 12.6734C87.4109 12.8914 86.8114 13.0004 86.1445 13.0004ZM87.0582 8.76842C87.5135 8.6017 87.879 8.34842 88.1547 8.00858C88.4304 7.66873 88.5683 7.30003 88.5683 6.90248C88.5683 6.48569 88.4753 6.1747 88.2894 5.96951C88.1034 5.76432 87.8213 5.66172 87.443 5.66172C87.1865 5.66172 86.9492 5.73226 86.7312 5.87332C86.5196 6.00798 86.3433 6.19714 86.2022 6.4408C86.0676 6.67805 85.9906 6.94416 85.9714 7.23912C85.7405 7.20705 85.5578 7.1237 85.4231 6.98904C85.2949 6.85439 85.2308 6.67805 85.2308 6.46004C85.2308 6.1266 85.3334 5.83164 85.5386 5.57516C85.7437 5.31867 86.0355 5.11989 86.4138 4.97883C86.7921 4.83776 87.2282 4.76722 87.7219 4.76722C88.1195 4.76722 88.4753 4.84417 88.7895 4.99806C89.1037 5.15195 89.3474 5.36676 89.5205 5.64249C89.7001 5.91821 89.7898 6.2292 89.7898 6.57546C89.7898 7.03072 89.6359 7.47637 89.3282 7.91239C89.0268 8.34201 88.5908 8.73636 88.0201 9.09544L87.0582 8.76842Z" fill="black"/>
</svg>
