<svg width="95" height="61" viewBox="0 0 95 61" fill="none" xmlns="http://www.w3.org/2000/svg">
<path d="M93.623 0.75V59.96H0.75V0.75H93.623Z" fill="#3BA15C" stroke="black" stroke-width="1.5"/>
<path d="M77.9911 13.0004C77.4461 13.0004 77.0389 12.9267 76.7696 12.7792C76.5067 12.6317 76.3752 12.4105 76.3752 12.1156C76.3752 11.9296 76.449 11.7757 76.5964 11.6539C76.7503 11.5321 76.9363 11.4711 77.1543 11.4711C77.3467 11.4711 77.5358 11.5417 77.7218 11.6827C77.9077 11.8238 78.0616 12.0162 78.1835 12.2598C78.5682 12.2598 78.9209 12.1861 79.2415 12.0386C79.5621 11.8911 79.8154 11.6892 80.0013 11.4327C80.1873 11.1762 80.2802 10.8941 80.2802 10.5863C80.2802 10.3105 80.2033 10.0509 80.0494 9.80719C79.9019 9.55711 79.7224 9.40002 79.5108 9.33589C79.0876 9.61803 78.7285 9.7591 78.4335 9.7591C78.2604 9.7591 78.1129 9.7078 77.9911 9.6052C77.8757 9.4962 77.818 9.36475 77.818 9.21086C77.818 8.98643 77.9141 8.80689 78.1065 8.67223C78.3053 8.53758 78.565 8.47025 78.8856 8.47025C79.3857 8.47025 79.8346 8.56002 80.2321 8.73956C80.6297 8.91269 80.9407 9.15315 81.1651 9.46093C81.3895 9.76871 81.5018 10.1182 81.5018 10.5093C81.5018 10.9838 81.3511 11.4102 81.0497 11.7885C80.7483 12.1669 80.3283 12.4618 79.7897 12.6734C79.2575 12.8914 78.658 13.0004 77.9911 13.0004ZM78.9048 8.76842C79.3601 8.6017 79.7256 8.34842 80.0013 8.00858C80.277 7.66873 80.4149 7.30003 80.4149 6.90248C80.4149 6.48569 80.3219 6.1747 80.136 5.96951C79.95 5.76432 79.6679 5.66172 79.2896 5.66172C79.0331 5.66172 78.7958 5.73226 78.5778 5.87332C78.3662 6.00798 78.1899 6.19714 78.0488 6.4408C77.9141 6.67805 77.8372 6.94416 77.818 7.23912C77.5871 7.20705 77.4044 7.1237 77.2697 6.98904C77.1415 6.85439 77.0774 6.67805 77.0774 6.46004C77.0774 6.1266 77.18 5.83164 77.3851 5.57516C77.5903 5.31867 77.8821 5.11989 78.2604 4.97883C78.6387 4.83776 79.0748 4.76722 79.5685 4.76722C79.966 4.76722 80.3219 4.84417 80.6361 4.99806C80.9503 5.15195 81.194 5.36676 81.3671 5.64249C81.5466 5.91821 81.6364 6.2292 81.6364 6.57546C81.6364 7.03072 81.4825 7.47637 81.1747 7.91239C80.8734 8.34201 80.4373 8.73636 79.8667 9.09544L78.9048 8.76842ZM85.706 11.7405C85.1994 11.7405 84.757 11.6186 84.3787 11.375C84.0003 11.1313 83.7086 10.785 83.5034 10.3362C83.3046 9.88734 83.2052 9.36154 83.2052 8.7588C83.2052 7.9701 83.3591 7.27438 83.6669 6.67164C83.9747 6.06889 84.4075 5.60081 84.9654 5.26737C85.5232 4.93394 86.1612 4.76722 86.8794 4.76722C86.9948 4.76722 87.1295 4.78326 87.2834 4.81532C87.4373 4.84096 87.5623 4.87303 87.6585 4.9115C87.7034 4.9628 87.7354 5.11669 87.7547 5.37317C88.1586 5.48218 88.4664 5.74187 88.678 6.15225C88.8896 6.55622 88.9954 7.08522 88.9954 7.73926C88.9954 8.48308 88.8479 9.15956 88.553 9.76871C88.2644 10.3779 87.8701 10.8588 87.3699 11.2115C86.8698 11.5641 86.3151 11.7405 85.706 11.7405ZM85.7925 11.0095C86.1709 11.0095 86.5107 10.8748 86.8121 10.6055C87.1135 10.3362 87.3475 9.96108 87.5142 9.48017C87.6873 8.99925 87.7739 8.45422 87.7739 7.84506C87.7739 7.1269 87.6393 6.59149 87.3699 6.23882C87.107 5.88615 86.6967 5.70981 86.1388 5.70981C85.9272 5.70981 85.6675 5.76111 85.3597 5.86371C85.0584 6.29973 84.8275 6.78385 84.6672 7.31606C84.5069 7.84186 84.4268 8.36445 84.4268 8.88384C84.4268 9.53788 84.5486 10.0573 84.7922 10.442C85.0423 10.8203 85.3758 11.0095 85.7925 11.0095Z" fill="black"/>
</svg>
