<svg width="95" height="61" viewBox="0 0 95 61" fill="none" xmlns="http://www.w3.org/2000/svg">
<path d="M93.623 0.75V59.96H0.75V0.75H93.623Z" fill="#D9D9D9" stroke="black" stroke-width="1.5"/>
<path d="M79.6764 11.7405C78.9839 11.7405 78.426 11.516 78.0028 11.0672C77.586 10.6119 77.3776 9.95467 77.3776 9.09544C77.3776 8.16567 77.6053 7.27438 78.0605 6.42156C78.5222 5.56233 79.0833 4.86982 79.7437 4.34402C80.4106 3.81181 81.0133 3.54571 81.552 3.54571C81.77 3.54571 81.9399 3.58739 82.0617 3.67074C82.19 3.74769 82.299 3.89196 82.3888 4.10357C81.9207 4.27669 81.475 4.4915 81.0518 4.74799C80.635 5.00447 80.2182 5.36997 79.8014 5.84447C79.3911 6.31897 79.0384 6.92171 78.7434 7.6527H78.8011C79.0705 7.29362 79.3558 7.04354 79.6572 6.90248C79.9585 6.755 80.2791 6.68126 80.619 6.68126C81.0422 6.68126 81.4045 6.77744 81.7059 6.9698C82.0136 7.16217 82.2445 7.42507 82.3984 7.7585C82.5587 8.09193 82.6388 8.47346 82.6388 8.90307C82.6388 9.42887 82.501 9.90978 82.2252 10.3458C81.9559 10.7818 81.5936 11.1249 81.1384 11.375C80.6831 11.6186 80.1958 11.7405 79.6764 11.7405ZM79.8207 10.9902C80.0579 10.9902 80.2984 10.9101 80.542 10.7498C80.7857 10.5895 80.9909 10.3522 81.1576 10.038C81.3243 9.71742 81.4077 9.33589 81.4077 8.89345C81.4077 8.48308 81.3051 8.14002 81.0999 7.8643C80.8947 7.58217 80.5549 7.4411 80.0804 7.4411C79.8624 7.4411 79.6379 7.51804 79.4071 7.67194C79.1763 7.82583 78.9839 8.05025 78.83 8.34521C78.6761 8.64017 78.5992 8.99284 78.5992 9.40322C78.5992 9.85207 78.6953 10.2304 78.8877 10.5382C79.0801 10.8395 79.3911 10.9902 79.8207 10.9902ZM86.458 11.7405C85.7655 11.7405 85.2077 11.516 84.7844 11.0672C84.3677 10.6119 84.1593 9.95467 84.1593 9.09544C84.1593 8.16567 84.3869 7.27438 84.8422 6.42156C85.3038 5.56233 85.8649 4.86982 86.5254 4.34402C87.1922 3.81181 87.795 3.54571 88.3336 3.54571C88.5516 3.54571 88.7215 3.58739 88.8433 3.67074C88.9716 3.74769 89.0806 3.89196 89.1704 4.10357C88.7023 4.27669 88.2566 4.4915 87.8334 4.74799C87.4166 5.00447 86.9999 5.36997 86.5831 5.84447C86.1727 6.31897 85.82 6.92171 85.5251 7.6527H85.5828C85.8521 7.29362 86.1374 7.04354 86.4388 6.90248C86.7402 6.755 87.0608 6.68126 87.4006 6.68126C87.8238 6.68126 88.1861 6.77744 88.4875 6.9698C88.7953 7.16217 89.0261 7.42507 89.18 7.7585C89.3403 8.09193 89.4204 8.47346 89.4204 8.90307C89.4204 9.42887 89.2826 9.90978 89.0069 10.3458C88.7375 10.7818 88.3753 11.1249 87.92 11.375C87.4647 11.6186 86.9774 11.7405 86.458 11.7405ZM86.6023 10.9902C86.8395 10.9902 87.08 10.9101 87.3237 10.7498C87.5673 10.5895 87.7725 10.3522 87.9392 10.038C88.106 9.71742 88.1893 9.33589 88.1893 8.89345C88.1893 8.48308 88.0867 8.14002 87.8815 7.8643C87.6763 7.58217 87.3365 7.4411 86.862 7.4411C86.644 7.4411 86.4196 7.51804 86.1887 7.67194C85.9579 7.82583 85.7655 8.05025 85.6116 8.34521C85.4577 8.64017 85.3808 8.99284 85.3808 9.40322C85.3808 9.85207 85.477 10.2304 85.6693 10.5382C85.8617 10.8395 86.1727 10.9902 86.6023 10.9902Z" fill="black"/>
</svg>
