<svg width="95" height="61" viewBox="0 0 95 61" fill="none" xmlns="http://www.w3.org/2000/svg">
<path d="M93.623 0.75V59.96H0.75V0.75H93.623Z" fill="#3BA15C" stroke="black" stroke-width="1.5"/>
<path d="M85.6086 12.962C85.3906 12.962 85.2175 12.9203 85.0892 12.8369C84.9674 12.76 84.8648 12.6157 84.7814 12.4041C85.2495 12.231 85.692 12.0162 86.1088 11.7597C86.532 11.5032 86.9488 11.1377 87.3591 10.6632C87.7695 10.1823 88.1222 9.57956 88.4171 8.85498H88.3594C88.0901 9.21406 87.8048 9.46734 87.5034 9.61482C87.202 9.75589 86.8814 9.82642 86.5416 9.82642C86.1184 9.82642 85.7529 9.73024 85.4451 9.53788C85.1437 9.34551 84.9129 9.08261 84.7526 8.74918C84.5987 8.40934 84.5217 8.02781 84.5217 7.60461C84.5217 7.0724 84.6564 6.59149 84.9257 6.16187C85.2014 5.72584 85.5637 5.386 86.0126 5.14234C86.4678 4.89226 86.9584 4.76722 87.4842 4.76722C88.1767 4.76722 88.7313 4.99486 89.1481 5.45012C89.5713 5.89897 89.7829 6.55301 89.7829 7.41224C89.7829 8.34201 89.5521 9.23651 89.0904 10.0957C88.6352 10.9486 88.0741 11.6379 87.4072 12.1637C86.7468 12.6959 86.1472 12.962 85.6086 12.962ZM87.0802 9.06658C87.2982 9.06658 87.5226 8.98964 87.7535 8.83574C87.9843 8.68185 88.1767 8.45743 88.3306 8.16247C88.4845 7.86751 88.5614 7.51484 88.5614 7.10446C88.5614 6.65561 88.462 6.2805 88.2632 5.97912C88.0709 5.67134 87.7631 5.51745 87.3399 5.51745C87.1026 5.51745 86.859 5.5976 86.6089 5.7579C86.3652 5.91821 86.1601 6.15867 85.9933 6.47927C85.8266 6.79347 85.7433 7.17179 85.7433 7.61423C85.7433 8.02461 85.8459 8.37086 86.0511 8.653C86.2627 8.92872 86.6057 9.06658 87.0802 9.06658Z" fill="black"/>
</svg>
