<svg width="95" height="178" viewBox="0 0 95 178" fill="none" xmlns="http://www.w3.org/2000/svg">
<path d="M93.623 0.75V59.96H0.75V0.75H93.623Z" fill="#FFC270" stroke="black" stroke-width="1.5"/>
<path d="M79.5234 12.962C79.3053 12.962 79.1322 12.9203 79.004 12.8369C78.8821 12.76 78.7795 12.6157 78.6962 12.4041C79.1643 12.231 79.6067 12.0162 80.0235 11.7597C80.4467 11.5032 80.8635 11.1377 81.2739 10.6632C81.6843 10.1823 82.0369 9.57956 82.3319 8.85498H82.2742C82.0049 9.21406 81.7195 9.46734 81.4182 9.61482C81.1168 9.75589 80.7962 9.82642 80.4563 9.82642C80.0331 9.82642 79.6676 9.73024 79.3598 9.53788C79.0585 9.34551 78.8276 9.08261 78.6673 8.74918C78.5134 8.40934 78.4365 8.02781 78.4365 7.60461C78.4365 7.0724 78.5711 6.59149 78.8405 6.16187C79.1162 5.72584 79.4785 5.386 79.9273 5.14234C80.3826 4.89226 80.8731 4.76722 81.3989 4.76722C82.0914 4.76722 82.6461 4.99486 83.0629 5.45012C83.4861 5.89897 83.6977 6.55301 83.6977 7.41224C83.6977 8.34201 83.4668 9.23651 83.0052 10.0957C82.5499 10.9486 81.9888 11.6379 81.322 12.1637C80.6615 12.6959 80.062 12.962 79.5234 12.962ZM80.9949 9.06658C81.213 9.06658 81.4374 8.98964 81.6682 8.83574C81.8991 8.68185 82.0914 8.45743 82.2453 8.16247C82.3992 7.86751 82.4762 7.51484 82.4762 7.10446C82.4762 6.65561 82.3768 6.2805 82.178 5.97912C81.9856 5.67134 81.6778 5.51745 81.2546 5.51745C81.0174 5.51745 80.7737 5.5976 80.5237 5.7579C80.28 5.91821 80.0748 6.15867 79.9081 6.47927C79.7414 6.79347 79.658 7.17179 79.658 7.61423C79.658 8.02461 79.7606 8.37086 79.9658 8.653C80.1774 8.92872 80.5204 9.06658 80.9949 9.06658ZM86.6367 12.6638C86.1045 12.6638 85.8384 12.3528 85.8384 11.7308C85.8384 11.0255 86.0532 10.1406 86.4828 9.0762C86.9125 8.01178 87.4895 6.91851 88.2141 5.79638L89.4549 5.40203C89.0894 5.95348 88.7367 6.58507 88.3969 7.29682C88.057 8.00858 87.7781 8.74597 87.5601 9.50902C87.3421 10.2721 87.2331 10.9838 87.2331 11.6443C87.2331 11.8302 87.2395 11.9777 87.2523 12.0867C87.2715 12.2021 87.31 12.3208 87.3677 12.4426C87.1305 12.5901 86.8868 12.6638 86.6367 12.6638ZM87.6082 6.20034C86.9798 6.20034 86.4764 6.17149 86.0981 6.11378C85.7262 6.04966 85.4537 5.95348 85.2806 5.82523C85.1074 5.69058 85.0209 5.51104 85.0209 5.28661C85.0209 5.1776 85.0369 5.0686 85.069 4.95959C85.101 4.84417 85.1395 4.74478 85.1844 4.66142C85.6525 4.8602 86.1751 5.02692 86.7521 5.16157C87.3292 5.28982 87.8518 5.36676 88.3199 5.39241C88.4289 5.18722 88.5604 5.02692 88.7143 4.9115C88.8746 4.78967 89.0445 4.72875 89.224 4.72875C89.4356 4.72875 89.5959 4.78005 89.7049 4.88264C89.814 4.97883 89.8685 5.11989 89.8685 5.30585C89.8685 5.62004 89.6857 5.84767 89.3202 5.98874C88.9547 6.12981 88.384 6.20034 87.6082 6.20034Z" fill="black"/>
<g filter="url(#filter0_dg_126_2937)">
<path d="M84.2172 54.8433C66.1896 74.2621 51.5152 79.3566 49.5915 92.5192C47.6679 105.682 51.9961 160.644 51.9961 160.644H43.3397C44.1961 138.158 46.2251 106.169 45.2633 92.5192C44.3015 78.8691 26.5722 75.4274 9.67578 56.7669L84.2172 54.8433Z" fill="url(#paint0_linear_126_2937)"/>
</g>
<path d="M68.7475 175.559C70.2889 175.304 71.857 175.037 73.2837 174.407C73.5686 174.281 73.8541 174.136 74.0643 173.907C75.5548 172.279 71.3519 172.116 70.6716 171.823C70.3628 171.691 69.8873 171.432 70.2044 171.027C70.3496 170.842 70.5917 170.768 70.8182 170.705C73.8444 169.854 76.8731 169.088 79.9107 168.289C80.8178 168.051 81.7554 167.934 82.634 167.591C83.0713 167.42 83.5006 167.189 83.8258 166.844C83.9075 166.758 83.9923 166.662 84.0567 166.562C84.1214 166.461 84.1392 166.338 84.1599 166.222C84.2007 165.994 84.2522 165.775 84.4503 165.634C84.814 165.376 85.2918 165.291 85.7108 165.163C86.3177 164.977 86.9189 164.775 87.529 164.598C88.8016 164.231 90.0721 163.873 91.3009 163.374C91.6546 163.23 93.2756 162.776 92.7799 162.153C92.5465 161.86 92.1074 161.72 91.7664 161.604C91.6077 161.55 91.447 161.503 91.2866 161.455C91.0606 161.387 90.8426 161.294 90.6198 161.217C89.6615 160.886 88.6788 160.653 87.6843 160.477C85.9704 160.37 84.2539 160.291 82.536 160.237C74.3259 159.981 66.151 160.426 57.9907 161.292C53.8947 161.727 49.8238 162.311 45.7333 162.778C41.7149 163.235 37.6627 163.349 33.6236 163.571C29.6645 163.788 25.7399 164.152 21.8662 164.927C18.0733 165.687 14.3476 166.693 10.685 167.832C9.84196 168.095 9.0027 168.365 8.16603 168.642C6.75604 168.912 5.35641 169.214 3.95592 169.553C3.22649 169.73 1.56004 169.806 1.50139 170.682C1.47033 171.151 1.96688 171.445 2.40764 171.622C3.20291 171.942 4.10744 172.079 4.97171 172.19C7.44781 172.51 9.97968 172.55 12.4828 172.574C13.7858 172.586 15.0891 172.582 16.3925 172.583C17.1127 172.584 17.8502 172.559 18.571 172.611C17.5724 173.076 15.586 173.762 16.1613 174.886C16.525 175.597 17.4844 176.093 18.2728 176.406C19.2636 176.799 20.3401 177.013 21.4137 177.175C26.6856 177.97 32.0201 177.854 37.3602 177.839C42.8578 177.824 48.3617 177.78 53.8499 177.419C56.5439 177.241 59.2333 176.987 61.9032 176.618C63.8997 176.342 65.8939 176.048 67.8801 175.705C68.1676 175.655 68.4572 175.607 68.7475 175.559Z" fill="#DF8E49"/>
<path opacity="0.3" d="M5.56464 170.879C6.53098 171.064 7.54735 171.012 8.5229 170.932C9.67757 170.838 10.8199 170.77 11.9809 170.755C13.8704 170.728 15.7603 170.761 17.6498 170.789C19.5104 170.816 21.3686 170.826 23.2288 170.788C24.9999 170.753 26.8254 170.677 28.5798 170.969C28.8015 171.006 29.3814 171.038 29.4849 171.31C29.5559 171.497 29.3354 171.67 29.2212 171.782C28.7322 172.261 28.1821 172.972 28.8719 173.54C29.5174 174.071 30.5199 174.196 31.3184 174.3C32.2057 174.414 33.1021 174.455 33.9963 174.466C36.9828 174.504 39.9574 174.596 42.945 174.483C46.6508 174.342 50.3486 174.02 54.0314 173.589C55.9071 173.37 57.7794 173.121 59.6486 172.852C61.1796 172.632 62.7023 172.385 64.2399 172.222C64.8687 172.155 65.5369 172.063 66.0979 171.751C66.3549 171.607 66.6508 171.385 66.7741 171.107C66.9003 170.821 66.672 170.528 66.7223 170.235C66.7985 169.789 67.3917 169.47 67.7594 169.311C67.8678 169.264 67.9785 169.223 68.0898 169.185C68.1956 169.112 68.308 169.047 68.4244 168.991C68.8218 168.797 69.2519 168.674 69.6777 168.561C70.3701 168.377 71.0736 168.234 71.7746 168.088C74.8177 167.453 77.8858 166.948 80.9334 166.337C81.4458 166.234 81.9533 166.12 82.4671 166.022C82.9104 165.938 83.5498 165.867 83.7839 165.42C83.9029 165.194 83.9104 164.928 84.0208 164.698C84.1122 164.507 84.2824 164.366 84.4452 164.238C84.7359 164.009 85.0625 163.835 85.4055 163.698C86.1881 163.386 87.0389 163.27 87.8724 163.188C88.7732 163.1 89.678 163.063 90.5779 162.966C91.3484 162.883 92.1365 162.759 92.8614 162.472C92.8893 162.372 92.8694 162.265 92.7803 162.154C92.5468 161.86 92.1078 161.72 91.7668 161.604C91.6081 161.551 91.4474 161.503 91.2869 161.455C91.0609 161.387 90.843 161.294 90.6202 161.217C89.6619 160.886 88.6791 160.654 87.6846 160.477C85.9707 160.371 84.2543 160.291 82.5363 160.237C74.3263 159.982 66.1513 160.426 57.991 161.292C53.8951 161.727 49.8241 162.312 45.7336 162.778C41.7153 163.236 37.663 163.35 33.624 163.571C29.6649 163.788 25.7403 164.152 21.8666 164.928C18.0736 165.687 14.348 166.693 10.6853 167.833C9.84231 168.095 9.00305 168.366 8.16638 168.643C6.86249 168.892 5.56723 169.171 4.27196 169.479C3.87893 170.32 4.90076 170.751 5.56464 170.879Z" fill="#752D02"/>
<path d="M30.1241 164.38C32.4188 164.031 34.7433 163.96 37.0607 163.921C39.3686 163.882 41.6814 163.877 43.9812 163.657C46.1497 163.45 48.3294 163.098 50.5136 163.261C51.5726 163.34 52.5817 163.574 53.5734 163.952C54.584 164.337 55.5621 164.809 56.5949 165.136C57.5293 165.432 58.4911 165.613 59.4609 165.691C60.5434 165.513 61.6388 165.425 62.7262 165.279C63.349 165.196 63.964 165.071 64.585 164.976C65.2034 164.882 65.8248 164.808 66.4472 164.745C67.7244 164.615 68.9975 164.52 70.2821 164.518C71.5745 164.517 72.8663 164.578 74.1553 164.668C75.3858 164.754 76.6135 164.876 77.8444 164.96C79.0074 165.039 80.2061 165.068 81.3406 164.759C81.8472 164.621 82.2592 164.395 82.6155 164.008C82.9093 163.689 83.1761 163.33 83.5732 163.131C83.9797 162.929 84.4435 162.874 84.8917 162.853C85.3265 162.833 85.7626 162.834 86.1976 162.823C87.1194 162.799 88.4083 162.816 89.2738 162.301C89.3773 162.169 89.4009 162.02 89.3137 161.852C89.1982 161.63 88.9178 161.498 88.7025 161.399C88.3957 161.258 88.0717 161.155 87.7473 161.063C86.7025 160.766 85.6516 160.498 84.6157 160.168C83.2687 159.74 81.9315 159.279 80.6675 158.64C79.4999 158.05 78.3852 157.362 77.2334 156.743C76.1276 156.149 74.9787 155.595 73.7536 155.296C72.4883 154.988 71.2292 155.019 69.9647 155.312C68.6631 155.614 67.3894 156.124 66.0493 156.229C64.9493 156.316 63.8613 156.115 62.8412 155.703C60.8312 154.893 59.1489 153.451 57.2369 152.452C56.1579 151.888 54.9796 151.415 53.7387 151.522C52.5826 151.622 51.4998 152.127 50.5231 152.727C48.2681 154.112 46.1963 155.8 44.0597 157.355C41.8939 158.932 39.6254 160.406 37.2088 161.572C37.1944 161.579 37.18 161.586 37.1657 161.592C36.5512 161.831 35.9322 162.056 35.302 162.252C34.8785 162.383 34.459 162.528 34.0366 162.664C33.9288 162.699 33.8204 162.731 33.7114 162.761C33.2712 162.858 32.8313 162.956 32.3926 163.06C31.8253 163.195 31.2707 163.363 30.7123 163.529C30.3719 163.63 30.0229 163.731 29.7132 163.909C29.6862 163.924 29.6592 163.941 29.6319 163.958C29.4473 164.113 29.3035 164.301 29.3369 164.512C29.5988 164.465 29.861 164.42 30.1241 164.38Z" fill="#812F2A"/>
<path d="M87.4764 162.846C87.0032 162.923 86.5311 163.022 86.0544 163.074C85.588 163.125 85.1108 163.152 84.6562 163.276C84.3586 163.357 83.9722 163.513 83.8569 163.829C83.8138 163.948 83.8382 164.063 83.8509 164.184C83.8787 164.453 83.8457 164.716 83.7459 164.969C83.551 165.463 83.1094 165.755 82.6295 165.936C81.9926 166.176 81.3233 166.337 80.6554 166.462C79.359 166.706 78.0396 166.794 76.7271 166.905C73.9197 167.143 71.1136 167.4 68.3002 167.558C65.4587 167.717 62.6134 167.716 59.7696 167.81C57.5106 167.884 55.0917 168.061 52.9051 167.358C52.3761 167.188 51.1751 166.59 51.9129 165.897C52.0892 165.732 52.4946 165.615 52.5489 165.348C52.6021 165.087 52.2461 164.891 52.0535 164.806C51.3356 164.485 50.4446 164.543 49.6798 164.583C48.7123 164.635 47.7482 164.702 46.7799 164.743C44.0361 164.857 41.2952 164.875 38.5555 165.074C35.9103 165.266 33.262 165.437 30.6269 165.039C30.3003 164.99 29.7057 164.955 29.5067 164.647C29.2534 164.254 29.8747 163.991 30.1453 163.884C31.0993 163.509 32.1231 163.278 33.1243 163.059C33.3658 162.978 33.6059 162.892 33.8494 162.817C34.0547 162.752 34.2605 162.69 34.465 162.624C34.6648 162.559 34.8609 162.484 35.0593 162.416C35.7458 162.178 36.4474 161.979 37.1236 161.712C37.1952 161.678 37.2674 161.645 37.3381 161.609C38.3321 161.142 39.3018 160.623 40.2486 160.057C42.5537 158.679 44.685 157.064 46.8454 155.476C47.8676 154.724 48.9023 153.985 49.9549 153.277C50.9615 152.599 52.0368 151.986 53.243 151.758C54.5888 151.505 55.8689 151.963 57.0517 152.574C58.0074 153.068 58.9059 153.656 59.8116 154.234C61.4933 155.307 63.273 156.343 65.3256 156.375C66.5329 156.394 67.6806 156.033 68.8316 155.714C70.1228 155.356 71.425 155.085 72.7685 155.271C75.353 155.628 77.5801 157.203 79.8199 158.422C82.112 159.669 84.6283 160.44 87.1498 161.079C87.7372 161.227 88.3861 161.361 88.902 161.694C89.906 162.341 87.8951 162.778 87.4764 162.846Z" fill="#DF8E49"/>
<path opacity="0.3" d="M73.6399 167.131C74.0784 166.993 74.5318 166.855 74.9317 166.624C75.1692 166.487 75.5304 166.213 75.3722 165.894C75.2055 165.558 74.675 165.437 74.3487 165.353C73.8702 165.231 73.3783 165.163 72.8884 165.106C71.6124 164.959 70.3435 164.757 69.0701 164.587C67.3447 164.358 65.6122 164.117 63.9331 163.646C62.2891 163.186 60.7848 162.434 59.2957 161.612C57.8003 160.787 56.3032 159.92 54.6612 159.417C53.1288 158.948 51.5543 159.017 49.9865 159.248C48.5055 159.466 47.0302 159.809 45.5274 159.831C44.2678 159.85 43.0559 159.582 41.9872 158.957C41.4171 159.336 40.8391 159.704 40.2497 160.056C39.3029 160.622 38.3329 161.142 37.3392 161.609C37.2685 161.644 37.1963 161.677 37.1247 161.711C36.4488 161.979 35.7472 162.177 35.0603 162.415C34.862 162.484 34.6659 162.558 34.466 162.623C34.2616 162.69 34.0558 162.752 33.8505 162.816C33.6069 162.892 33.3669 162.977 33.1254 163.058C32.1242 163.277 31.1004 163.509 30.1464 163.884C29.8756 163.99 29.2542 164.254 29.5078 164.646C29.7068 164.954 30.3011 164.99 30.628 165.039C33.2631 165.437 35.9114 165.266 38.5566 165.074C41.2966 164.875 44.0372 164.857 46.781 164.742C47.7493 164.702 48.7137 164.634 49.6809 164.583C50.4454 164.542 51.3367 164.485 52.0546 164.805C52.247 164.891 52.6032 165.087 52.55 165.348C52.4957 165.614 52.09 165.732 51.914 165.897C51.1762 166.59 52.3772 167.187 52.9062 167.357C55.0928 168.06 57.5117 167.883 59.7707 167.809C62.6145 167.716 65.4598 167.717 68.3013 167.557C70.027 167.46 71.7501 167.326 73.4723 167.182C73.5278 167.166 73.5839 167.149 73.6399 167.131Z" fill="#B86A3D"/>
<path d="M36.8803 161.946C38.7589 161.225 40.5456 160.282 42.2796 159.266C44.0354 158.238 45.7453 157.136 47.444 156.017C48.3787 155.401 49.3111 154.782 50.2475 154.169C51.1259 153.593 52.0002 152.996 52.92 152.487C53.5477 152.14 54.2377 151.859 54.9545 151.784C54.3984 151.672 53.8274 151.648 53.2438 151.758C52.0376 151.986 50.9623 152.599 49.9557 153.276C48.9031 153.985 47.8686 154.724 46.8462 155.475C44.6861 157.064 42.5544 158.679 40.2494 160.056C39.3026 160.622 38.3326 161.142 37.3389 161.609C37.2682 161.645 37.196 161.677 37.1244 161.711C36.4485 161.979 35.7469 162.177 35.06 162.415C34.8617 162.484 34.6656 162.559 34.4657 162.624C34.2613 162.69 34.0555 162.752 33.8502 162.816C33.7426 162.85 33.636 162.886 33.5293 162.922C34.673 162.704 35.7949 162.362 36.8803 161.946Z" fill="#FFC689"/>
<path d="M66.561 157.712C66.3997 157.783 66.2376 157.865 66.1016 157.979C66.3166 157.987 66.5323 157.967 66.743 157.923C67.2321 157.822 67.7016 157.613 68.1061 157.32C68.2539 157.213 68.3951 157.092 68.5219 156.958C68.109 157.144 67.6898 157.318 67.26 157.459C67.0251 157.537 66.7882 157.613 66.561 157.712Z" fill="#FFC689"/>
<path opacity="0.3" d="M88.9031 161.694C88.3873 161.362 87.7384 161.228 87.151 161.079C84.6297 160.44 82.1134 159.669 79.821 158.422C77.5813 157.203 75.3539 155.628 72.7697 155.271C71.7841 155.135 70.8206 155.245 69.8675 155.454C69.996 155.506 70.1331 155.54 70.264 155.566C70.672 155.647 71.0894 155.663 71.5009 155.72C71.8631 155.77 72.2562 155.843 72.5512 156.074C72.7835 156.256 72.9497 156.566 72.8893 156.866C72.8278 157.171 72.5727 157.409 72.3358 157.59C71.7047 158.071 70.9278 158.363 70.1892 158.636C70.0509 158.687 69.9118 158.736 69.7735 158.787C69.5742 158.861 69.3856 158.954 69.1979 159.053C68.9842 159.166 68.766 159.287 68.5831 159.446C68.4888 159.529 68.3827 159.636 68.3695 159.767C68.3583 159.879 68.4247 159.981 68.4954 160.061C68.6036 160.182 68.7361 160.282 68.8669 160.379C69.2574 160.665 69.6631 160.929 70.036 161.239C70.4451 161.579 70.8442 162.03 70.8945 162.583C70.9353 163.032 70.7111 163.444 70.4152 163.764C70.0317 164.179 69.5314 164.483 69.0288 164.732C68.7925 164.849 68.5544 164.952 68.3043 165.034C67.858 165.181 67.4023 165.301 66.9469 165.415C66.2985 165.578 65.6456 165.723 64.99 165.854C64.227 166.006 63.4599 166.14 62.6896 166.251C61.8969 166.365 61.1002 166.457 60.3009 166.51C59.566 166.558 58.8268 166.576 58.0914 166.527C57.4925 166.487 56.8826 166.409 56.3139 166.208C55.891 166.059 55.4692 165.83 55.2119 165.45C54.9215 165.022 54.9166 164.484 55.1509 164.03C55.3312 163.681 55.6089 163.384 55.8993 163.124C56.2429 162.816 56.6216 162.547 57.01 162.299C57.7622 161.818 58.5606 161.414 59.3671 161.034C59.6267 160.911 59.8852 160.781 60.1523 160.675C60.4821 160.545 60.8231 160.442 61.1618 160.338C62.0367 160.07 62.9199 159.818 63.7675 159.471C64.1424 159.317 64.5156 159.144 64.8529 158.917C65.0878 158.759 65.3328 158.558 65.4475 158.291C65.1375 158.103 64.7738 158.045 64.417 158.017C64.0424 157.986 63.6655 157.984 63.2946 157.918C63.2327 157.907 63.2578 157.826 63.3081 157.819C63.7813 157.756 64.2554 157.698 64.7284 157.631C65.62 157.505 66.5119 157.352 67.3767 157.097C68.1501 156.869 68.9181 156.553 69.561 156.058C68.8074 156.096 68.0527 156.132 67.2979 156.126C66.6519 156.278 65.9981 156.385 65.3262 156.375C63.2736 156.343 61.4938 155.306 59.8122 154.233C58.9065 153.655 58.008 153.068 57.0523 152.574C55.8697 151.963 54.5897 151.504 53.2435 151.758C53.2082 151.765 53.1734 151.773 53.1386 151.78C53.2648 151.787 53.3908 151.796 53.5164 151.806C53.9526 151.844 54.3933 151.905 54.8122 152.036C55.1205 152.132 55.4551 152.272 55.6561 152.537C55.8484 152.791 55.83 153.104 55.707 153.384C55.6156 153.591 55.4781 153.777 55.3315 153.949C55.0983 154.221 54.8306 154.453 54.5402 154.662C53.8134 155.186 52.99 155.557 52.1697 155.906C51.772 156.076 51.3721 156.24 50.9773 156.416C50.6826 156.547 50.373 156.647 50.0696 156.757C49.3721 157.01 48.6608 157.27 48.032 157.671C47.7603 157.844 47.5053 158.048 47.3147 158.311C47.1821 158.493 47.0389 158.709 47.0202 158.941C46.9909 159.301 47.3497 159.484 47.6352 159.599C48.0467 159.765 48.4817 159.867 48.8848 160.055C49.256 160.229 49.6145 160.502 49.6812 160.932C49.7652 161.477 49.3175 161.881 48.8986 162.141C48.4075 162.445 47.8555 162.641 47.3115 162.828C46.9182 162.964 46.5343 163.127 46.1468 163.279C45.6085 163.489 45.072 163.704 44.5444 163.941C43.9694 164.198 43.4021 164.479 42.8662 164.811C42.8331 164.832 42.8004 164.853 42.7676 164.874C44.1048 164.831 45.4423 164.798 46.7807 164.743C47.7491 164.702 48.7134 164.635 49.6806 164.583C50.4454 164.542 51.3364 164.485 52.0544 164.806C52.2467 164.892 52.603 165.087 52.5498 165.349C52.4954 165.615 52.0897 165.732 51.9138 165.897C51.176 166.59 52.377 167.187 52.906 167.358C55.0926 168.06 57.5114 167.884 59.7705 167.81C62.6143 167.717 65.4596 167.717 68.3011 167.558C71.1144 167.4 73.9206 167.143 76.7279 166.905C78.0404 166.794 79.3598 166.706 80.6563 166.462C81.3242 166.336 81.9935 166.176 82.6304 165.936C83.1105 165.755 83.5518 165.464 83.7468 164.969C83.8465 164.716 83.8799 164.453 83.8517 164.184C83.8391 164.063 83.8146 163.948 83.8578 163.83C83.9733 163.513 84.3595 163.357 84.6571 163.276C85.1116 163.152 85.5889 163.125 86.0552 163.074C86.532 163.022 87.0041 162.923 87.4773 162.846C87.8954 162.778 89.9063 162.341 88.9031 161.694Z" fill="#B05827"/>
<path opacity="0.3" d="M57.1168 153.008C57.4641 153.395 57.7675 153.817 58.1105 154.207C58.452 154.595 58.8244 154.96 59.2614 155.24C59.6993 155.522 60.1961 155.727 60.6832 155.906C61.1766 156.088 61.6843 156.232 62.2004 156.333C63.2194 156.534 64.2774 156.57 65.303 156.396C65.3401 156.39 65.3766 156.382 65.4134 156.375C65.3841 156.375 65.3547 156.376 65.3254 156.376C63.2728 156.343 61.4931 155.307 59.8114 154.234C58.9057 153.656 58.0073 153.068 57.0515 152.575C56.8049 152.447 56.5539 152.327 56.2988 152.218C56.5881 152.461 56.8618 152.724 57.1168 153.008Z" fill="#BF814D"/>
<path opacity="0.3" d="M74.9293 156.279C75.5104 156.661 76.0665 157.077 76.6263 157.489C77.2122 157.919 77.8192 158.322 78.4483 158.687C79.7096 159.418 81.0718 160.013 82.4861 160.376C84.0827 160.784 85.7322 160.931 87.3305 161.332C87.7776 161.445 88.2284 161.515 88.6482 161.718C88.8483 161.815 89.0361 161.947 89.1686 162.114C89.2066 161.987 89.1387 161.846 88.9027 161.694C88.3869 161.361 87.7379 161.227 87.1505 161.079C84.6293 160.44 82.1129 159.669 79.8206 158.422C77.7185 157.278 75.6277 155.82 73.2422 155.35C73.8281 155.607 74.3897 155.924 74.9293 156.279Z" fill="#BF814D"/>
<path opacity="0.3" d="M85.5301 163.092C85.1232 163.107 84.7181 163.147 84.3113 163.158C84.0028 163.166 83.694 163.176 83.3866 163.208C83.0712 163.24 82.7328 163.288 82.4462 163.433C82.3369 163.488 82.2297 163.561 82.1658 163.668C82.0574 163.851 82.1204 164.064 82.1745 164.254C82.2728 164.598 82.2829 164.908 81.9999 165.164C81.7633 165.378 81.4479 165.496 81.1457 165.583C80.8067 165.681 80.4577 165.741 80.1098 165.797C79.705 165.862 79.3094 165.955 78.9088 166.042C78.3565 166.163 77.8019 166.272 77.2459 166.372C76.1317 166.573 75.0118 166.737 73.89 166.886C72.7396 167.04 71.5864 167.17 70.4369 167.329C70.0392 167.384 69.6422 167.442 69.2451 167.501C71.7422 167.343 74.2347 167.117 76.7275 166.906C78.04 166.794 79.3594 166.706 80.6558 166.463C81.3237 166.337 81.993 166.177 82.6299 165.937C83.11 165.756 83.5514 165.464 83.7463 164.97C83.8461 164.717 83.8794 164.454 83.8513 164.185C83.8386 164.064 83.8142 163.948 83.8573 163.83C83.9729 163.513 84.359 163.357 84.6566 163.277C85.0982 163.156 85.5614 163.127 86.0151 163.079C85.8532 163.082 85.6917 163.086 85.5301 163.092Z" fill="#BF814D"/>
<path opacity="0.3" d="M52.5492 165.348C52.4948 165.615 52.0892 165.732 51.9132 165.897C51.885 165.924 51.8606 165.95 51.8382 165.976C51.8741 165.947 51.9109 165.918 51.9489 165.891C52.1524 165.748 52.3798 165.641 52.6078 165.543C52.8082 165.456 53.0095 165.372 53.2131 165.294C53.4273 165.212 53.6435 165.132 53.8499 165.031C53.9376 164.988 54.025 164.942 54.1038 164.884C54.1541 164.846 54.2119 164.799 54.2343 164.738C54.2913 164.584 54.0221 164.474 53.9229 164.431C53.6331 164.304 53.3212 164.216 53.0107 164.159C52.3666 164.04 51.7027 164.051 51.0521 164.1C50.4012 164.15 49.7551 164.244 49.1082 164.327C48.3721 164.421 47.6321 164.487 46.8932 164.553C45.7448 164.656 44.5953 164.746 43.4473 164.853C44.5579 164.82 45.6689 164.789 46.7804 164.742C47.7488 164.702 48.7131 164.635 49.6803 164.583C50.4451 164.542 51.3362 164.485 52.0541 164.805C52.2464 164.892 52.6027 165.087 52.5492 165.348Z" fill="#BF814D"/>
<path opacity="0.48" d="M46.1457 163.279C45.9815 163.343 45.8176 163.408 45.6543 163.473C45.945 163.422 46.2359 163.371 46.5232 163.303C46.9059 163.213 47.2857 163.109 47.6577 162.981C48.0361 162.852 48.4064 162.697 48.7609 162.511C49.0441 162.363 49.3296 162.194 49.5507 161.96C49.7606 161.737 49.8877 161.442 49.8331 161.132C49.7914 160.896 49.668 160.69 49.5033 160.52C49.5924 160.638 49.6562 160.775 49.6804 160.932C49.7644 161.477 49.3167 161.881 48.8978 162.141C48.4067 162.446 47.8547 162.641 47.3107 162.828C46.9171 162.964 46.5332 163.127 46.1457 163.279Z" fill="#FFFBCE"/>
<path opacity="0.48" d="M69.7732 158.787C69.5739 158.861 69.3853 158.954 69.1976 159.053C68.9839 159.166 68.7657 159.287 68.5829 159.446C68.4885 159.529 68.3825 159.636 68.3692 159.767C68.3675 159.784 68.3681 159.8 68.3695 159.817C68.4546 159.726 68.5547 159.647 68.6547 159.578C69.0923 159.276 69.6087 159.091 70.107 158.915C70.3335 158.835 70.5572 158.751 70.7809 158.662C71.2119 158.492 71.6417 158.314 72.0425 158.08C72.2427 157.963 72.435 157.832 72.6115 157.682C72.7823 157.536 72.9445 157.372 73.0497 157.171C73.1501 156.981 73.1765 156.766 73.1009 156.562C73.0322 156.376 72.8936 156.223 72.736 156.107C72.4396 155.889 72.0727 155.786 71.7142 155.729C71.5063 155.695 71.2959 155.679 71.0851 155.673C71.224 155.687 71.3629 155.701 71.5009 155.72C71.8631 155.77 72.2562 155.843 72.5512 156.074C72.7835 156.257 72.9497 156.566 72.8893 156.866C72.8278 157.172 72.5727 157.409 72.3358 157.59C71.7047 158.072 70.9278 158.363 70.1892 158.636C70.0506 158.687 69.9115 158.737 69.7732 158.787Z" fill="#FFFBCE"/>
<path opacity="0.48" d="M69.8311 164.265C70.0007 164.184 70.1675 164.097 70.3264 163.997C70.6301 163.806 70.9222 163.554 71.053 163.21C71.1533 162.946 71.1703 162.655 71.0809 162.386C70.9423 161.969 70.5976 161.656 70.2298 161.412C70.5636 161.727 70.852 162.119 70.8946 162.584C70.9354 163.032 70.7111 163.444 70.4153 163.764C70.2411 163.953 70.0424 164.117 69.8311 164.265Z" fill="#FFFBCE"/>
<path opacity="0.48" d="M48.7115 157.363C49.3708 157.092 50.0632 156.92 50.7454 156.718C51.723 156.43 52.6508 156.015 53.553 155.543C53.9665 155.327 54.3791 155.105 54.7618 154.837C55.1281 154.58 55.4915 154.27 55.7249 153.883C55.9055 153.584 55.9808 153.21 55.8195 152.885C55.8092 152.865 55.7962 152.847 55.7847 152.827C55.8204 153.01 55.7856 153.204 55.7063 153.384C55.6148 153.592 55.4774 153.778 55.3308 153.95C55.0976 154.222 54.8299 154.454 54.5395 154.663C53.8127 155.186 52.9892 155.557 52.1689 155.907C51.7713 156.076 51.3714 156.24 50.9766 156.416C50.6819 156.548 50.3722 156.648 50.0689 156.758C49.3714 157.01 48.6601 157.271 48.0313 157.671C47.9235 157.74 47.8185 157.814 47.7188 157.894C48.0241 157.674 48.3703 157.504 48.7115 157.363Z" fill="#FFFBCE"/>
<path d="M5.35016 169.814C7.95851 169.417 10.6011 169.335 13.235 169.291C15.8583 169.247 18.4874 169.241 21.1015 168.992C23.5666 168.756 26.0442 168.356 28.5269 168.541C29.7307 168.631 30.8776 168.897 32.0047 169.327C33.1536 169.765 34.2651 170.302 35.4391 170.673C36.5015 171.009 37.5943 171.215 38.6969 171.304C39.9275 171.101 41.1727 171.001 42.4085 170.836C43.1164 170.741 43.8156 170.599 44.5212 170.491C45.2241 170.384 45.9306 170.3 46.6379 170.228C48.0895 170.081 49.5369 169.972 50.9969 169.971C52.4658 169.969 53.9342 170.039 55.3994 170.141C56.7981 170.239 58.1937 170.378 59.5928 170.473C60.9148 170.562 62.2773 170.596 63.5668 170.245C64.1427 170.088 64.6111 169.831 65.0159 169.391C65.35 169.028 65.6534 168.62 66.1048 168.395C66.5668 168.164 67.0941 168.102 67.6036 168.078C68.0975 168.055 68.5938 168.056 69.088 168.043C70.1357 168.016 71.6009 168.035 72.5848 167.451C72.7027 167.3 72.7291 167.131 72.6302 166.94C72.4991 166.687 72.18 166.538 71.9353 166.425C71.5866 166.265 71.2182 166.148 70.8494 166.043C69.6616 165.706 68.4673 165.401 67.2896 165.026C65.7583 164.539 64.2385 164.016 62.8018 163.29C61.4746 162.619 60.2078 161.837 58.8984 161.133C57.6414 160.458 56.3355 159.828 54.9431 159.489C53.5046 159.138 52.0737 159.173 50.6364 159.507C49.1571 159.85 47.7091 160.429 46.1856 160.549C44.9355 160.648 43.6986 160.419 42.539 159.952C40.2544 159.031 38.3421 157.391 36.1685 156.255C34.942 155.615 33.6027 155.076 32.1922 155.198C30.8782 155.312 29.6473 155.886 28.5372 156.568C25.974 158.142 23.6187 160.06 21.1903 161.828C18.7283 163.621 16.1499 165.296 13.4029 166.622C13.3865 166.63 13.3702 166.637 13.354 166.645C12.6557 166.916 11.9518 167.172 11.2356 167.394C10.754 167.544 10.2773 167.709 9.79747 167.863C9.6747 167.903 9.55164 167.939 9.42801 167.973C8.92773 168.084 8.42774 168.195 7.9289 168.313C7.284 168.467 6.65347 168.657 6.01892 168.846C5.63192 168.961 5.23515 169.076 4.88323 169.278C4.85275 169.296 4.8217 169.315 4.79094 169.334C4.58134 169.51 4.41774 169.724 4.45569 169.963C4.75299 169.91 5.05114 169.859 5.35016 169.814Z" fill="#812F2A"/>
<path d="M70.5428 168.069C70.0048 168.157 69.4683 168.27 68.9264 168.329C68.3962 168.387 67.8536 168.417 67.337 168.558C66.9989 168.65 66.5595 168.827 66.4284 169.188C66.3793 169.322 66.4072 169.453 66.4215 169.591C66.4534 169.897 66.4155 170.195 66.3022 170.483C66.0805 171.045 65.5788 171.377 65.0331 171.582C64.3094 171.856 63.5484 172.038 62.789 172.18C61.3155 172.457 59.8155 172.557 58.3239 172.684C55.1328 172.954 51.943 173.246 48.7453 173.425C45.5153 173.606 42.281 173.606 39.0488 173.712C36.481 173.796 33.7314 173.997 31.2459 173.198C30.6444 173.005 29.2795 172.326 30.1179 171.538C30.3183 171.35 30.7792 171.217 30.841 170.914C30.9017 170.617 30.4969 170.395 30.2781 170.297C29.4621 169.933 28.4492 169.998 27.58 170.044C26.4803 170.103 25.3845 170.18 24.2836 170.226C21.1647 170.356 18.0494 170.376 14.935 170.602C11.9282 170.82 8.91788 171.015 5.92282 170.563C5.55163 170.506 4.87568 170.467 4.64969 170.116C4.3616 169.67 5.06774 169.371 5.37567 169.249C6.4599 168.823 7.62377 168.56 8.76176 168.311C9.03634 168.219 9.30919 168.122 9.58607 168.036C9.81924 167.963 10.0533 167.892 10.2859 167.817C10.513 167.743 10.7358 167.658 10.9615 167.58C11.7422 167.31 12.5394 167.084 13.308 166.78C13.3893 166.741 13.4713 166.704 13.5518 166.663C14.6817 166.132 15.7841 165.542 16.8602 164.898C19.4804 163.333 21.9033 161.497 24.3587 159.691C25.5205 158.837 26.6968 157.997 27.8931 157.192C29.0372 156.421 30.2594 155.725 31.6306 155.466C33.1604 155.178 34.6156 155.699 35.9597 156.393C37.0462 156.955 38.0672 157.623 39.0968 158.28C41.0085 159.5 43.0315 160.677 45.3647 160.714C46.7367 160.736 48.0417 160.326 49.3499 159.963C50.8174 159.556 52.2978 159.248 53.8251 159.459C56.763 159.864 59.2946 161.655 61.8405 163.041C64.446 164.458 67.3062 165.334 70.1722 166.06C70.8401 166.229 71.5776 166.382 72.1641 166.76C73.3044 167.496 71.0186 167.992 70.5428 168.069Z" fill="#FFC689"/>
<path d="M8.65069 168.617C9.69869 168.38 10.7358 168.084 11.7613 167.765C14.2438 166.992 16.5968 165.822 18.8196 164.484C21.1157 163.101 23.2908 161.523 25.4075 159.882C27.2335 158.466 29.0023 156.945 31.056 155.86C31.3582 155.701 31.6664 155.553 31.9795 155.416C31.8634 155.428 31.7469 155.444 31.6296 155.466C30.2584 155.725 29.0362 156.422 27.8922 157.192C26.6958 157.998 25.5196 158.837 24.3577 159.691C21.9023 161.497 19.4794 163.333 16.8593 164.899C15.7831 165.542 14.6805 166.133 13.5508 166.663C13.4703 166.704 13.3884 166.741 13.307 166.78C12.5385 167.084 11.7412 167.31 10.9606 167.58C10.7352 167.659 10.5121 167.743 10.2849 167.817C10.0523 167.893 9.8183 167.963 9.58512 168.036C9.30824 168.122 9.03539 168.219 8.76081 168.311C7.85226 168.51 6.92789 168.719 6.04004 169.012C6.91927 168.97 7.79562 168.811 8.65069 168.617Z" fill="#FFC689"/>
<path opacity="0.3" d="M72.164 166.76C71.5778 166.382 70.84 166.23 70.1721 166.061C67.3061 165.335 64.4459 164.459 61.8404 163.041C59.2945 161.656 56.7629 159.865 53.825 159.459C52.7046 159.304 51.6094 159.43 50.5261 159.668C50.6721 159.727 50.828 159.766 50.9769 159.795C51.4407 159.886 51.9151 159.905 52.3828 159.97C52.7946 160.026 53.2414 160.109 53.5769 160.372C53.8411 160.579 54.03 160.931 53.9613 161.272C53.8914 161.619 53.6013 161.889 53.3322 162.095C52.6149 162.642 51.7319 162.974 50.8924 163.284C50.7351 163.342 50.5772 163.398 50.4197 163.456C50.1934 163.539 49.9786 163.646 49.7653 163.758C49.5226 163.887 49.2742 164.024 49.0666 164.205C48.9594 164.299 48.8389 164.421 48.824 164.57C48.811 164.697 48.8866 164.812 48.9671 164.904C49.0899 165.042 49.2406 165.156 49.3895 165.265C49.8334 165.59 50.2946 165.891 50.7184 166.243C51.1836 166.63 51.637 167.142 51.6945 167.772C51.7411 168.282 51.4861 168.749 51.1497 169.114C50.7138 169.586 50.1451 169.931 49.5738 170.213C49.3053 170.346 49.0344 170.464 48.7504 170.558C48.2429 170.724 47.7254 170.861 47.2073 170.991C46.4701 171.175 45.728 171.34 44.983 171.489C44.1156 171.663 43.2438 171.815 42.3683 171.941C41.4673 172.071 40.5619 172.175 39.6533 172.235C38.8181 172.29 37.9777 172.311 37.1416 172.255C36.4607 172.21 35.7675 172.12 35.1215 171.892C34.6408 171.722 34.1612 171.462 33.8685 171.031C33.5384 170.544 33.5327 169.933 33.7992 169.416C34.0039 169.019 34.3199 168.682 34.65 168.387C35.0404 168.036 35.4708 167.731 35.9124 167.449C36.7675 166.903 37.6749 166.443 38.5915 166.011C38.8868 165.871 39.1806 165.723 39.4843 165.603C39.8592 165.455 40.2468 165.338 40.632 165.22C41.6265 164.915 42.6303 164.628 43.594 164.233C44.0204 164.059 44.4445 163.863 44.8278 163.605C45.0946 163.425 45.3735 163.196 45.5037 162.893C45.1515 162.679 44.7381 162.613 44.3324 162.58C43.9068 162.546 43.4779 162.543 43.0564 162.469C42.9862 162.456 43.0147 162.364 43.0716 162.356C43.6098 162.285 44.1486 162.218 44.686 162.142C45.6995 161.999 46.7133 161.825 47.6966 161.535C48.5755 161.276 49.4487 160.917 50.1793 160.354C49.3225 160.397 48.4648 160.438 47.6069 160.432C46.8726 160.604 46.1294 160.726 45.3654 160.714C43.0322 160.677 41.0093 159.5 39.0976 158.28C38.068 157.623 37.047 156.955 35.9605 156.394C34.616 155.699 33.1612 155.178 31.6313 155.466C31.5914 155.474 31.5517 155.483 31.512 155.491C31.6555 155.499 31.7987 155.509 31.9415 155.521C32.4372 155.564 32.9384 155.633 33.4145 155.782C33.765 155.891 34.1451 156.05 34.3737 156.352C34.5922 156.64 34.5715 156.996 34.4314 157.314C34.3276 157.55 34.1715 157.761 34.0045 157.956C33.7397 158.266 33.4352 158.529 33.1048 158.767C32.2785 159.362 31.3426 159.784 30.4102 160.181C29.9583 160.374 29.5037 160.56 29.0549 160.76C28.7199 160.909 28.3677 161.024 28.0233 161.148C27.2303 161.436 26.4218 161.731 25.707 162.187C25.3979 162.384 25.1081 162.616 24.8916 162.914C24.741 163.122 24.5782 163.366 24.557 163.63C24.5239 164.04 24.9313 164.247 25.2562 164.378C25.724 164.567 26.2185 164.683 26.6765 164.897C27.0983 165.094 27.506 165.405 27.5816 165.894C27.6771 166.512 27.1682 166.972 26.6921 167.268C26.134 167.614 25.5063 167.837 24.8879 168.049C24.4405 168.203 24.0044 168.389 23.5639 168.561C22.952 168.801 22.3422 169.046 21.7425 169.314C21.0889 169.607 20.444 169.926 19.8348 170.303C19.7974 170.327 19.76 170.351 19.7227 170.374C21.2425 170.326 22.7631 170.289 24.2844 170.226C25.3853 170.18 26.4813 170.103 27.5808 170.044C28.4499 169.998 29.4629 169.933 30.2788 170.297C30.4976 170.395 30.9025 170.617 30.8418 170.914C30.7803 171.217 30.3191 171.35 30.1187 171.538C29.28 172.326 30.6451 173.005 31.2466 173.198C33.7322 173.997 36.4817 173.796 39.0495 173.712C42.2821 173.606 45.5161 173.606 48.746 173.425C51.9438 173.246 55.1338 172.954 58.3247 172.684C59.8166 172.557 61.3163 172.457 62.7898 172.18C63.5491 172.037 64.3099 171.855 65.0339 171.582C65.5796 171.376 66.0813 171.045 66.303 170.483C66.4163 170.195 66.4542 169.897 66.4223 169.591C66.4079 169.453 66.3803 169.322 66.4292 169.188C66.5603 168.828 66.9996 168.651 67.3377 168.558C67.8544 168.418 68.397 168.387 68.9271 168.329C69.4688 168.27 70.0056 168.157 70.5436 168.069C71.0188 167.992 73.3046 167.496 72.164 166.76Z" fill="#B05827"/>
<path opacity="0.3" d="M36.0336 156.887C36.4284 157.326 36.7734 157.806 37.1633 158.249C37.5514 158.691 37.9749 159.105 38.4715 159.424C38.9692 159.744 39.5339 159.977 40.0873 160.181C40.6483 160.388 41.2253 160.551 41.8121 160.667C42.9705 160.895 44.1729 160.935 45.3388 160.739C45.3808 160.731 45.4222 160.722 45.4642 160.714C45.4308 160.714 45.3975 160.715 45.3641 160.715C43.0309 160.678 41.008 159.5 39.0963 158.281C38.0667 157.624 37.0457 156.955 35.9592 156.394C35.6788 156.249 35.3933 156.113 35.1035 155.989C35.4324 156.265 35.7435 156.564 36.0336 156.887Z" fill="#BF814D"/>
<path opacity="0.3" d="M56.2803 160.604C56.9408 161.038 57.5727 161.512 58.2093 161.98C58.8752 162.47 59.5652 162.927 60.2806 163.342C61.7141 164.173 63.2627 164.85 64.8705 165.262C66.6853 165.726 68.5605 165.893 70.377 166.349C70.8853 166.477 71.3977 166.557 71.8747 166.788C72.1021 166.898 72.3157 167.048 72.4661 167.238C72.5092 167.094 72.4322 166.934 72.1636 166.761C71.5774 166.383 70.8396 166.23 70.1717 166.061C67.3057 165.335 64.4455 164.459 61.84 163.041C59.4508 161.742 57.0739 160.084 54.3623 159.55C55.0285 159.841 55.6665 160.201 56.2803 160.604Z" fill="#BF814D"/>
<path opacity="0.3" d="M68.3298 168.349C67.8675 168.367 67.4069 168.412 66.9443 168.424C66.5935 168.434 66.2428 168.444 65.8934 168.481C65.5349 168.518 65.1502 168.572 64.8244 168.737C64.7005 168.8 64.5783 168.883 64.5059 169.004C64.3825 169.212 64.4541 169.455 64.5156 169.67C64.6272 170.061 64.6387 170.414 64.3173 170.705C64.0481 170.948 63.6896 171.082 63.3463 171.181C62.961 171.293 62.5643 171.36 62.1686 171.424C61.7086 171.498 61.2587 171.603 60.8035 171.702C60.1759 171.839 59.5453 171.963 58.9131 172.077C57.6469 172.305 56.3735 172.492 55.0983 172.662C53.7907 172.836 52.4799 172.984 51.1731 173.164C50.7212 173.227 50.2698 173.293 49.8184 173.361C52.6567 173.18 55.4899 172.924 58.3237 172.684C59.8156 172.557 61.3153 172.457 62.7888 172.18C63.5481 172.037 64.3089 171.855 65.0329 171.582C65.5786 171.376 66.0803 171.045 66.302 170.483C66.4153 170.195 66.4532 169.896 66.4213 169.591C66.4069 169.453 66.3793 169.322 66.4282 169.187C66.5593 168.827 66.9986 168.65 67.3368 168.558C67.8388 168.421 68.3652 168.388 68.881 168.333C68.6973 168.338 68.5136 168.342 68.3298 168.349Z" fill="#BF814D"/>
<path opacity="0.3" d="M30.8404 170.914C30.7789 171.217 30.3177 171.35 30.1173 171.538C30.0854 171.568 30.0575 171.598 30.0319 171.628C30.0728 171.594 30.1147 171.561 30.1579 171.531C30.3893 171.368 30.6478 171.246 30.9071 171.134C31.1349 171.036 31.3637 170.941 31.5952 170.852C31.8387 170.758 32.0842 170.668 32.3188 170.553C32.4186 170.504 32.5181 170.451 32.6075 170.385C32.6647 170.343 32.7303 170.289 32.7559 170.22C32.8206 170.045 32.5146 169.92 32.4019 169.871C32.0727 169.727 31.7179 169.627 31.3652 169.561C30.6328 169.426 29.8784 169.439 29.1389 169.495C28.3991 169.551 27.6648 169.658 26.9291 169.752C26.0924 169.859 25.2511 169.934 24.411 170.01C23.1057 170.127 21.7989 170.23 20.4941 170.351C21.7566 170.313 23.0194 170.278 24.2828 170.225C25.3837 170.179 26.4797 170.103 27.5791 170.044C28.4483 169.998 29.4612 169.933 30.2772 170.297C30.496 170.395 30.9008 170.617 30.8404 170.914Z" fill="#BF814D"/>
<path opacity="0.48" d="M23.5625 168.561C23.376 168.634 23.1899 168.708 23.0039 168.783C23.3343 168.724 23.6649 168.666 23.9915 168.589C24.4265 168.487 24.8581 168.368 25.281 168.223C25.7115 168.076 26.1321 167.9 26.5352 167.689C26.8569 167.52 27.1815 167.329 27.4328 167.062C27.6715 166.808 27.8158 166.474 27.754 166.122C27.7065 165.853 27.5662 165.619 27.3793 165.426C27.4805 165.56 27.553 165.715 27.5809 165.894C27.6763 166.513 27.1674 166.972 26.6913 167.268C26.1332 167.614 25.5056 167.837 24.8871 168.05C24.4395 168.203 24.003 168.389 23.5625 168.561Z" fill="#FFFBCE"/>
<path opacity="0.48" d="M50.4193 163.456C50.193 163.54 49.9782 163.646 49.7649 163.759C49.5222 163.887 49.2738 164.024 49.0662 164.205C48.959 164.299 48.8385 164.421 48.8235 164.57C48.8215 164.589 48.8221 164.608 48.8238 164.626C48.9204 164.523 49.0343 164.433 49.1481 164.355C49.6456 164.011 50.2324 163.801 50.7988 163.601C51.0564 163.51 51.3106 163.415 51.5647 163.314C52.0547 163.121 52.5431 162.918 52.9986 162.652C53.226 162.519 53.4448 162.371 53.6452 162.2C53.8393 162.034 54.0236 161.847 54.1432 161.619C54.257 161.403 54.2872 161.158 54.2013 160.926C54.123 160.716 53.9655 160.541 53.7864 160.41C53.4494 160.162 53.0322 160.045 52.6248 159.979C52.3885 159.942 52.1493 159.924 51.9097 159.917C52.0676 159.932 52.2254 159.948 52.3824 159.97C52.7941 160.027 53.241 160.11 53.5765 160.373C53.8407 160.58 54.0296 160.932 53.9609 161.273C53.891 161.62 53.6009 161.89 53.3318 162.096C52.6145 162.643 51.7315 162.975 50.8919 163.284C50.7344 163.342 50.5765 163.398 50.4193 163.456Z" fill="#FFFBCE"/>
<path opacity="0.48" d="M50.4854 169.682C50.6783 169.59 50.8677 169.491 51.0486 169.377C51.3936 169.16 51.7257 168.874 51.8743 168.483C51.9885 168.183 52.0078 167.852 51.9063 167.546C51.7487 167.072 51.3568 166.717 50.9388 166.439C51.318 166.797 51.6461 167.243 51.6944 167.771C51.7409 168.281 51.4859 168.749 51.1495 169.113C50.9514 169.328 50.7257 169.515 50.4854 169.682Z" fill="#FFFBCE"/>
<path opacity="0.48" d="M26.4788 161.837C27.2281 161.528 28.0153 161.333 28.7907 161.104C29.902 160.776 30.9566 160.304 31.9822 159.768C32.4523 159.522 32.9212 159.271 33.3559 158.965C33.7722 158.673 34.1854 158.321 34.4511 157.881C34.6564 157.541 34.742 157.116 34.5586 156.747C34.5471 156.724 34.5324 156.703 34.5192 156.681C34.56 156.889 34.5204 157.109 34.4301 157.314C34.3263 157.55 34.1702 157.761 34.0031 157.956C33.7383 158.266 33.4338 158.529 33.1035 158.767C32.2772 159.362 31.3413 159.784 30.4089 160.181C29.9569 160.374 29.5023 160.56 29.0535 160.76C28.7186 160.909 28.3663 161.024 28.0219 161.148C27.2289 161.436 26.4204 161.731 25.7057 162.187C25.5829 162.265 25.4636 162.349 25.3506 162.44C25.6976 162.19 26.0909 161.997 26.4788 161.837Z" fill="#FFFBCE"/>
<path d="M68.7475 175.559C70.2889 175.304 71.857 175.037 73.2837 174.407C73.5686 174.281 73.8541 174.136 74.0643 173.907C75.5548 172.279 71.3519 172.116 70.6716 171.823C70.3628 171.691 69.8873 171.432 70.2044 171.027C70.3496 170.842 70.5917 170.768 70.8182 170.705C73.8444 169.854 76.8731 169.088 79.9107 168.289C80.8178 168.051 81.7554 167.934 82.634 167.591C83.0713 167.42 83.5006 167.189 83.8258 166.844C83.9075 166.758 83.9923 166.662 84.0567 166.562C84.1214 166.461 84.1392 166.338 84.1599 166.222C84.2007 165.994 84.2522 165.775 84.4503 165.634C84.814 165.376 85.2918 165.291 85.7108 165.163C86.3177 164.977 86.9189 164.775 87.529 164.598C88.8016 164.231 90.0721 163.873 91.3009 163.374C91.6546 163.23 93.2756 162.776 92.7799 162.153C92.5465 161.86 92.1074 161.72 91.7664 161.604C91.6077 161.55 91.447 161.503 91.2866 161.455C91.0606 161.387 90.8426 161.294 90.6198 161.217C89.6615 160.886 88.6788 160.653 87.6843 160.477C85.9704 160.37 84.2539 160.291 82.536 160.237C74.3259 159.981 66.151 160.426 57.9907 161.292C53.8947 161.727 49.8238 162.311 45.7333 162.778C41.7149 163.235 37.6627 163.349 33.6236 163.571C29.6645 163.788 25.7399 164.152 21.8662 164.927C18.0733 165.687 14.3476 166.693 10.685 167.832C9.84196 168.095 9.0027 168.365 8.16603 168.642C6.75604 168.912 5.35641 169.214 3.95592 169.553C3.22649 169.73 1.56004 169.806 1.50139 170.682C1.47033 171.151 1.96688 171.445 2.40764 171.622C3.20291 171.942 4.10744 172.079 4.97171 172.19C7.44781 172.51 9.97968 172.55 12.4828 172.574C13.7858 172.586 15.0891 172.582 16.3925 172.583C17.1127 172.584 17.8502 172.559 18.571 172.611C17.5724 173.076 15.586 173.762 16.1613 174.886C16.525 175.597 17.4844 176.093 18.2728 176.406C19.2636 176.799 20.3401 177.013 21.4137 177.175C26.6856 177.97 32.0201 177.854 37.3602 177.839C42.8578 177.824 48.3617 177.78 53.8499 177.419C56.5439 177.241 59.2333 176.987 61.9032 176.618C63.8997 176.342 65.8939 176.048 67.8801 175.705C68.1676 175.655 68.4572 175.607 68.7475 175.559Z" fill="#DF8E49"/>
<path opacity="0.3" d="M5.56464 170.879C6.53098 171.064 7.54735 171.012 8.5229 170.932C9.67757 170.838 10.8199 170.77 11.9809 170.755C13.8704 170.728 15.7603 170.761 17.6498 170.789C19.5104 170.816 21.3686 170.826 23.2288 170.788C24.9999 170.753 26.8254 170.677 28.5798 170.969C28.8015 171.006 29.3814 171.038 29.4849 171.31C29.5559 171.497 29.3354 171.67 29.2212 171.782C28.7322 172.261 28.1821 172.972 28.8719 173.54C29.5174 174.071 30.5199 174.196 31.3184 174.3C32.2057 174.414 33.1021 174.455 33.9963 174.466C36.9828 174.504 39.9574 174.596 42.945 174.483C46.6508 174.342 50.3486 174.02 54.0314 173.589C55.9071 173.37 57.7794 173.121 59.6486 172.852C61.1796 172.632 62.7023 172.385 64.2399 172.222C64.8687 172.155 65.5369 172.063 66.0979 171.751C66.3549 171.607 66.6508 171.385 66.7741 171.107C66.9003 170.821 66.672 170.528 66.7223 170.235C66.7985 169.789 67.3917 169.47 67.7594 169.311C67.8678 169.264 67.9785 169.223 68.0898 169.185C68.1956 169.112 68.308 169.047 68.4244 168.991C68.8218 168.797 69.2519 168.674 69.6777 168.561C70.3701 168.377 71.0736 168.234 71.7746 168.088C74.8177 167.453 77.8858 166.948 80.9334 166.337C81.4458 166.234 81.9533 166.12 82.4671 166.022C82.9104 165.938 83.5498 165.867 83.7839 165.42C83.9029 165.194 83.9104 164.928 84.0208 164.698C84.1122 164.507 84.2824 164.366 84.4452 164.238C84.7359 164.009 85.0625 163.835 85.4055 163.698C86.1881 163.386 87.0389 163.27 87.8724 163.188C88.7732 163.1 89.678 163.063 90.5779 162.966C91.3484 162.883 92.1365 162.759 92.8614 162.472C92.8893 162.372 92.8694 162.265 92.7803 162.154C92.5468 161.86 92.1078 161.72 91.7668 161.604C91.6081 161.551 91.4474 161.503 91.2869 161.455C91.0609 161.387 90.843 161.294 90.6202 161.217C89.6619 160.886 88.6791 160.654 87.6846 160.477C85.9707 160.371 84.2543 160.291 82.5363 160.237C74.3263 159.982 66.1513 160.426 57.991 161.292C53.8951 161.727 49.8241 162.312 45.7336 162.778C41.7153 163.236 37.663 163.35 33.624 163.571C29.6649 163.788 25.7403 164.152 21.8666 164.928C18.0736 165.687 14.348 166.693 10.6853 167.833C9.84231 168.095 9.00305 168.366 8.16638 168.643C6.86249 168.892 5.56723 169.171 4.27196 169.479C3.87893 170.32 4.90076 170.751 5.56464 170.879Z" fill="#752D02"/>
<path d="M30.1241 164.38C32.4188 164.031 34.7433 163.96 37.0607 163.921C39.3686 163.882 41.6814 163.877 43.9812 163.657C46.1497 163.45 48.3294 163.098 50.5136 163.261C51.5726 163.34 52.5817 163.574 53.5734 163.952C54.584 164.337 55.5621 164.809 56.5949 165.136C57.5293 165.432 58.4911 165.613 59.4609 165.691C60.5434 165.513 61.6388 165.425 62.7262 165.279C63.349 165.196 63.964 165.071 64.585 164.976C65.2034 164.882 65.8248 164.808 66.4472 164.745C67.7244 164.615 68.9975 164.52 70.2821 164.518C71.5745 164.517 72.8663 164.578 74.1553 164.668C75.3858 164.754 76.6135 164.876 77.8444 164.96C79.0074 165.039 80.2061 165.068 81.3406 164.759C81.8472 164.621 82.2592 164.395 82.6155 164.008C82.9093 163.689 83.1761 163.33 83.5732 163.131C83.9797 162.929 84.4435 162.874 84.8917 162.853C85.3265 162.833 85.7626 162.834 86.1976 162.823C87.1194 162.799 88.4083 162.816 89.2738 162.301C89.3773 162.169 89.4009 162.02 89.3137 161.852C89.1982 161.63 88.9178 161.498 88.7025 161.399C88.3957 161.258 88.0717 161.155 87.7473 161.063C86.7025 160.766 85.6516 160.498 84.6157 160.168C83.2687 159.74 81.9315 159.279 80.6675 158.64C79.4999 158.05 78.3852 157.362 77.2334 156.743C76.1276 156.149 74.9787 155.595 73.7536 155.296C72.4883 154.988 71.2292 155.019 69.9647 155.312C68.6631 155.614 67.3894 156.124 66.0493 156.229C64.9493 156.316 63.8613 156.115 62.8412 155.703C60.8312 154.893 59.1489 153.451 57.2369 152.452C56.1579 151.888 54.9796 151.415 53.7387 151.522C52.5826 151.622 51.4998 152.127 50.5231 152.727C48.2681 154.112 46.1963 155.8 44.0597 157.355C41.8939 158.932 39.6254 160.406 37.2088 161.572C37.1944 161.579 37.18 161.586 37.1657 161.592C36.5512 161.831 35.9322 162.056 35.302 162.252C34.8785 162.383 34.459 162.528 34.0366 162.664C33.9288 162.699 33.8204 162.731 33.7114 162.761C33.2712 162.858 32.8313 162.956 32.3926 163.06C31.8253 163.195 31.2707 163.363 30.7123 163.529C30.3719 163.63 30.0229 163.731 29.7132 163.909C29.6862 163.924 29.6592 163.941 29.6319 163.958C29.4473 164.113 29.3035 164.301 29.3369 164.512C29.5988 164.465 29.861 164.42 30.1241 164.38Z" fill="#812F2A"/>
<path d="M87.4764 162.846C87.0032 162.923 86.5311 163.022 86.0544 163.074C85.588 163.125 85.1108 163.152 84.6562 163.276C84.3586 163.357 83.9722 163.513 83.8569 163.829C83.8138 163.948 83.8382 164.063 83.8509 164.184C83.8787 164.453 83.8457 164.716 83.7459 164.969C83.551 165.463 83.1094 165.755 82.6295 165.936C81.9926 166.176 81.3233 166.337 80.6554 166.462C79.359 166.706 78.0396 166.794 76.7271 166.905C73.9197 167.143 71.1136 167.4 68.3002 167.558C65.4587 167.717 62.6134 167.716 59.7696 167.81C57.5106 167.884 55.0917 168.061 52.9051 167.358C52.3761 167.188 51.1751 166.59 51.9129 165.897C52.0892 165.732 52.4946 165.615 52.5489 165.348C52.6021 165.087 52.2461 164.891 52.0535 164.806C51.3356 164.485 50.4446 164.543 49.6798 164.583C48.7123 164.635 47.7482 164.702 46.7799 164.743C44.0361 164.857 41.2952 164.875 38.5555 165.074C35.9103 165.266 33.262 165.437 30.6269 165.039C30.3003 164.99 29.7057 164.955 29.5067 164.647C29.2534 164.254 29.8747 163.991 30.1453 163.884C31.0993 163.509 32.1231 163.278 33.1243 163.059C33.3658 162.978 33.6059 162.892 33.8494 162.817C34.0547 162.752 34.2605 162.69 34.465 162.624C34.6648 162.559 34.8609 162.484 35.0593 162.416C35.7458 162.178 36.4474 161.979 37.1236 161.712C37.1952 161.678 37.2674 161.645 37.3381 161.609C38.3321 161.142 39.3018 160.623 40.2486 160.057C42.5537 158.679 44.685 157.064 46.8454 155.476C47.8676 154.724 48.9023 153.985 49.9549 153.277C50.9615 152.599 52.0368 151.986 53.243 151.758C54.5888 151.505 55.8689 151.963 57.0517 152.574C58.0074 153.068 58.9059 153.656 59.8116 154.234C61.4933 155.307 63.273 156.343 65.3256 156.375C66.5329 156.394 67.6806 156.033 68.8316 155.714C70.1228 155.356 71.425 155.085 72.7685 155.271C75.353 155.628 77.5801 157.203 79.8199 158.422C82.112 159.669 84.6283 160.44 87.1498 161.079C87.7372 161.227 88.3861 161.361 88.902 161.694C89.906 162.341 87.8951 162.778 87.4764 162.846Z" fill="#DF8E49"/>
<path opacity="0.3" d="M73.6399 167.131C74.0784 166.993 74.5318 166.855 74.9317 166.624C75.1692 166.487 75.5304 166.213 75.3722 165.894C75.2055 165.558 74.675 165.437 74.3487 165.353C73.8702 165.231 73.3783 165.163 72.8884 165.106C71.6124 164.959 70.3435 164.757 69.0701 164.587C67.3447 164.358 65.6122 164.117 63.9331 163.646C62.2891 163.186 60.7848 162.434 59.2957 161.612C57.8003 160.787 56.3032 159.92 54.6612 159.417C53.1288 158.948 51.5543 159.017 49.9865 159.248C48.5055 159.466 47.0302 159.809 45.5274 159.831C44.2678 159.85 43.0559 159.582 41.9872 158.957C41.4171 159.336 40.8391 159.704 40.2497 160.056C39.3029 160.622 38.3329 161.142 37.3392 161.609C37.2685 161.644 37.1963 161.677 37.1247 161.711C36.4488 161.979 35.7472 162.177 35.0603 162.415C34.862 162.484 34.6659 162.558 34.466 162.623C34.2616 162.69 34.0558 162.752 33.8505 162.816C33.6069 162.892 33.3669 162.977 33.1254 163.058C32.1242 163.277 31.1004 163.509 30.1464 163.884C29.8756 163.99 29.2542 164.254 29.5078 164.646C29.7068 164.954 30.3011 164.99 30.628 165.039C33.2631 165.437 35.9114 165.266 38.5566 165.074C41.2966 164.875 44.0372 164.857 46.781 164.742C47.7493 164.702 48.7137 164.634 49.6809 164.583C50.4454 164.542 51.3367 164.485 52.0546 164.805C52.247 164.891 52.6032 165.087 52.55 165.348C52.4957 165.614 52.09 165.732 51.914 165.897C51.1762 166.59 52.3772 167.187 52.9062 167.357C55.0928 168.06 57.5117 167.883 59.7707 167.809C62.6145 167.716 65.4598 167.717 68.3013 167.557C70.027 167.46 71.7501 167.326 73.4723 167.182C73.5278 167.166 73.5839 167.149 73.6399 167.131Z" fill="#B86A3D"/>
<path d="M36.8803 161.946C38.7589 161.225 40.5456 160.282 42.2796 159.266C44.0354 158.238 45.7453 157.136 47.444 156.017C48.3787 155.401 49.3111 154.782 50.2475 154.169C51.1259 153.593 52.0002 152.996 52.92 152.487C53.5477 152.14 54.2377 151.859 54.9545 151.784C54.3984 151.672 53.8274 151.648 53.2438 151.758C52.0376 151.986 50.9623 152.599 49.9557 153.276C48.9031 153.985 47.8686 154.724 46.8462 155.475C44.6861 157.064 42.5544 158.679 40.2494 160.056C39.3026 160.622 38.3326 161.142 37.3389 161.609C37.2682 161.645 37.196 161.677 37.1244 161.711C36.4485 161.979 35.7469 162.177 35.06 162.415C34.8617 162.484 34.6656 162.559 34.4657 162.624C34.2613 162.69 34.0555 162.752 33.8502 162.816C33.7426 162.85 33.636 162.886 33.5293 162.922C34.673 162.704 35.7949 162.362 36.8803 161.946Z" fill="#FFC689"/>
<path d="M66.561 157.712C66.3997 157.783 66.2376 157.865 66.1016 157.979C66.3166 157.987 66.5323 157.967 66.743 157.923C67.2321 157.822 67.7016 157.613 68.1061 157.32C68.2539 157.213 68.3951 157.092 68.5219 156.958C68.109 157.144 67.6898 157.318 67.26 157.459C67.0251 157.537 66.7882 157.613 66.561 157.712Z" fill="#FFC689"/>
<path opacity="0.3" d="M88.9031 161.694C88.3873 161.362 87.7384 161.228 87.151 161.079C84.6297 160.44 82.1134 159.669 79.821 158.422C77.5813 157.203 75.3539 155.628 72.7697 155.271C71.7841 155.135 70.8206 155.245 69.8675 155.454C69.996 155.506 70.1331 155.54 70.264 155.566C70.672 155.647 71.0894 155.663 71.5009 155.72C71.8631 155.77 72.2562 155.843 72.5512 156.074C72.7835 156.256 72.9497 156.566 72.8893 156.866C72.8278 157.171 72.5727 157.409 72.3358 157.59C71.7047 158.071 70.9278 158.363 70.1892 158.636C70.0509 158.687 69.9118 158.736 69.7735 158.787C69.5742 158.861 69.3856 158.954 69.1979 159.053C68.9842 159.166 68.766 159.287 68.5831 159.446C68.4888 159.529 68.3827 159.636 68.3695 159.767C68.3583 159.879 68.4247 159.981 68.4954 160.061C68.6036 160.182 68.7361 160.282 68.8669 160.379C69.2574 160.665 69.6631 160.929 70.036 161.239C70.4451 161.579 70.8442 162.03 70.8945 162.583C70.9353 163.032 70.7111 163.444 70.4152 163.764C70.0317 164.179 69.5314 164.483 69.0288 164.732C68.7925 164.849 68.5544 164.952 68.3043 165.034C67.858 165.181 67.4023 165.301 66.9469 165.415C66.2985 165.578 65.6456 165.723 64.99 165.854C64.227 166.006 63.4599 166.14 62.6896 166.251C61.8969 166.365 61.1002 166.457 60.3009 166.51C59.566 166.558 58.8268 166.576 58.0914 166.527C57.4925 166.487 56.8826 166.409 56.3139 166.208C55.891 166.059 55.4692 165.83 55.2119 165.45C54.9215 165.022 54.9166 164.484 55.1509 164.03C55.3312 163.681 55.6089 163.384 55.8993 163.124C56.2429 162.816 56.6216 162.547 57.01 162.299C57.7622 161.818 58.5606 161.414 59.3671 161.034C59.6267 160.911 59.8852 160.781 60.1523 160.675C60.4821 160.545 60.8231 160.442 61.1618 160.338C62.0367 160.07 62.9199 159.818 63.7675 159.471C64.1424 159.317 64.5156 159.144 64.8529 158.917C65.0878 158.759 65.3328 158.558 65.4475 158.291C65.1375 158.103 64.7738 158.045 64.417 158.017C64.0424 157.986 63.6655 157.984 63.2946 157.918C63.2327 157.907 63.2578 157.826 63.3081 157.819C63.7813 157.756 64.2554 157.698 64.7284 157.631C65.62 157.505 66.5119 157.352 67.3767 157.097C68.1501 156.869 68.9181 156.553 69.561 156.058C68.8074 156.096 68.0527 156.132 67.2979 156.126C66.6519 156.278 65.9981 156.385 65.3262 156.375C63.2736 156.343 61.4938 155.306 59.8122 154.233C58.9065 153.655 58.008 153.068 57.0523 152.574C55.8697 151.963 54.5897 151.504 53.2435 151.758C53.2082 151.765 53.1734 151.773 53.1386 151.78C53.2648 151.787 53.3908 151.796 53.5164 151.806C53.9526 151.844 54.3933 151.905 54.8122 152.036C55.1205 152.132 55.4551 152.272 55.6561 152.537C55.8484 152.791 55.83 153.104 55.707 153.384C55.6156 153.591 55.4781 153.777 55.3315 153.949C55.0983 154.221 54.8306 154.453 54.5402 154.662C53.8134 155.186 52.99 155.557 52.1697 155.906C51.772 156.076 51.3721 156.24 50.9773 156.416C50.6826 156.547 50.373 156.647 50.0696 156.757C49.3721 157.01 48.6608 157.27 48.032 157.671C47.7603 157.844 47.5053 158.048 47.3147 158.311C47.1821 158.493 47.0389 158.709 47.0202 158.941C46.9909 159.301 47.3497 159.484 47.6352 159.599C48.0467 159.765 48.4817 159.867 48.8848 160.055C49.256 160.229 49.6145 160.502 49.6812 160.932C49.7652 161.477 49.3175 161.881 48.8986 162.141C48.4075 162.445 47.8555 162.641 47.3115 162.828C46.9182 162.964 46.5343 163.127 46.1468 163.279C45.6085 163.489 45.072 163.704 44.5444 163.941C43.9694 164.198 43.4021 164.479 42.8662 164.811C42.8331 164.832 42.8004 164.853 42.7676 164.874C44.1048 164.831 45.4423 164.798 46.7807 164.743C47.7491 164.702 48.7134 164.635 49.6806 164.583C50.4454 164.542 51.3364 164.485 52.0544 164.806C52.2467 164.892 52.603 165.087 52.5498 165.349C52.4954 165.615 52.0897 165.732 51.9138 165.897C51.176 166.59 52.377 167.187 52.906 167.358C55.0926 168.06 57.5114 167.884 59.7705 167.81C62.6143 167.717 65.4596 167.717 68.3011 167.558C71.1144 167.4 73.9206 167.143 76.7279 166.905C78.0404 166.794 79.3598 166.706 80.6563 166.462C81.3242 166.336 81.9935 166.176 82.6304 165.936C83.1105 165.755 83.5518 165.464 83.7468 164.969C83.8465 164.716 83.8799 164.453 83.8517 164.184C83.8391 164.063 83.8146 163.948 83.8578 163.83C83.9733 163.513 84.3595 163.357 84.6571 163.276C85.1116 163.152 85.5889 163.125 86.0552 163.074C86.532 163.022 87.0041 162.923 87.4773 162.846C87.8954 162.778 89.9063 162.341 88.9031 161.694Z" fill="#B05827"/>
<path opacity="0.3" d="M57.1168 153.008C57.4641 153.395 57.7675 153.817 58.1105 154.207C58.452 154.595 58.8244 154.96 59.2614 155.24C59.6993 155.522 60.1961 155.727 60.6832 155.906C61.1766 156.088 61.6843 156.232 62.2004 156.333C63.2194 156.534 64.2774 156.57 65.303 156.396C65.3401 156.39 65.3766 156.382 65.4134 156.375C65.3841 156.375 65.3547 156.376 65.3254 156.376C63.2728 156.343 61.4931 155.307 59.8114 154.234C58.9057 153.656 58.0073 153.068 57.0515 152.575C56.8049 152.447 56.5539 152.327 56.2988 152.218C56.5881 152.461 56.8618 152.724 57.1168 153.008Z" fill="#BF814D"/>
<path opacity="0.3" d="M74.9293 156.279C75.5104 156.661 76.0665 157.077 76.6263 157.489C77.2122 157.919 77.8192 158.322 78.4483 158.687C79.7096 159.418 81.0718 160.013 82.4861 160.376C84.0827 160.784 85.7322 160.931 87.3305 161.332C87.7776 161.445 88.2284 161.515 88.6482 161.718C88.8483 161.815 89.0361 161.947 89.1686 162.114C89.2066 161.987 89.1387 161.846 88.9027 161.694C88.3869 161.361 87.7379 161.227 87.1505 161.079C84.6293 160.44 82.1129 159.669 79.8206 158.422C77.7185 157.278 75.6277 155.82 73.2422 155.35C73.8281 155.607 74.3897 155.924 74.9293 156.279Z" fill="#BF814D"/>
<path opacity="0.3" d="M85.5301 163.092C85.1232 163.107 84.7181 163.147 84.3113 163.158C84.0028 163.166 83.694 163.176 83.3866 163.208C83.0712 163.24 82.7328 163.288 82.4462 163.433C82.3369 163.488 82.2297 163.561 82.1658 163.668C82.0574 163.851 82.1204 164.064 82.1745 164.254C82.2728 164.598 82.2829 164.908 81.9999 165.164C81.7633 165.378 81.4479 165.496 81.1457 165.583C80.8067 165.681 80.4577 165.741 80.1098 165.797C79.705 165.862 79.3094 165.955 78.9088 166.042C78.3565 166.163 77.8019 166.272 77.2459 166.372C76.1317 166.573 75.0118 166.737 73.89 166.886C72.7396 167.04 71.5864 167.17 70.4369 167.329C70.0392 167.384 69.6422 167.442 69.2451 167.501C71.7422 167.343 74.2347 167.117 76.7275 166.906C78.04 166.794 79.3594 166.706 80.6558 166.463C81.3237 166.337 81.993 166.177 82.6299 165.937C83.11 165.756 83.5514 165.464 83.7463 164.97C83.8461 164.717 83.8794 164.454 83.8513 164.185C83.8386 164.064 83.8142 163.948 83.8573 163.83C83.9729 163.513 84.359 163.357 84.6566 163.277C85.0982 163.156 85.5614 163.127 86.0151 163.079C85.8532 163.082 85.6917 163.086 85.5301 163.092Z" fill="#BF814D"/>
<path opacity="0.3" d="M52.5492 165.348C52.4948 165.615 52.0892 165.732 51.9132 165.897C51.885 165.924 51.8606 165.95 51.8382 165.976C51.8741 165.947 51.9109 165.918 51.9489 165.891C52.1524 165.748 52.3798 165.641 52.6078 165.543C52.8082 165.456 53.0095 165.372 53.2131 165.294C53.4273 165.212 53.6435 165.132 53.8499 165.031C53.9376 164.988 54.025 164.942 54.1038 164.884C54.1541 164.846 54.2119 164.799 54.2343 164.738C54.2913 164.584 54.0221 164.474 53.9229 164.431C53.6331 164.304 53.3212 164.216 53.0107 164.159C52.3666 164.04 51.7027 164.051 51.0521 164.1C50.4012 164.15 49.7551 164.244 49.1082 164.327C48.3721 164.421 47.6321 164.487 46.8932 164.553C45.7448 164.656 44.5953 164.746 43.4473 164.853C44.5579 164.82 45.6689 164.789 46.7804 164.742C47.7488 164.702 48.7131 164.635 49.6803 164.583C50.4451 164.542 51.3362 164.485 52.0541 164.805C52.2464 164.892 52.6027 165.087 52.5492 165.348Z" fill="#BF814D"/>
<path opacity="0.48" d="M46.1457 163.279C45.9815 163.343 45.8176 163.408 45.6543 163.473C45.945 163.422 46.2359 163.371 46.5232 163.303C46.9059 163.213 47.2857 163.109 47.6577 162.981C48.0361 162.852 48.4064 162.697 48.7609 162.511C49.0441 162.363 49.3296 162.194 49.5507 161.96C49.7606 161.737 49.8877 161.442 49.8331 161.132C49.7914 160.896 49.668 160.69 49.5033 160.52C49.5924 160.638 49.6562 160.775 49.6804 160.932C49.7644 161.477 49.3167 161.881 48.8978 162.141C48.4067 162.446 47.8547 162.641 47.3107 162.828C46.9171 162.964 46.5332 163.127 46.1457 163.279Z" fill="#FFFBCE"/>
<path opacity="0.48" d="M69.7732 158.787C69.5739 158.861 69.3853 158.954 69.1976 159.053C68.9839 159.166 68.7657 159.287 68.5829 159.446C68.4885 159.529 68.3825 159.636 68.3692 159.767C68.3675 159.784 68.3681 159.8 68.3695 159.817C68.4546 159.726 68.5547 159.647 68.6547 159.578C69.0923 159.276 69.6087 159.091 70.107 158.915C70.3335 158.835 70.5572 158.751 70.7809 158.662C71.2119 158.492 71.6417 158.314 72.0425 158.08C72.2427 157.963 72.435 157.832 72.6115 157.682C72.7823 157.536 72.9445 157.372 73.0497 157.171C73.1501 156.981 73.1765 156.766 73.1009 156.562C73.0322 156.376 72.8936 156.223 72.736 156.107C72.4396 155.889 72.0727 155.786 71.7142 155.729C71.5063 155.695 71.2959 155.679 71.0851 155.673C71.224 155.687 71.3629 155.701 71.5009 155.72C71.8631 155.77 72.2562 155.843 72.5512 156.074C72.7835 156.257 72.9497 156.566 72.8893 156.866C72.8278 157.172 72.5727 157.409 72.3358 157.59C71.7047 158.072 70.9278 158.363 70.1892 158.636C70.0506 158.687 69.9115 158.737 69.7732 158.787Z" fill="#FFFBCE"/>
<path opacity="0.48" d="M69.8311 164.265C70.0007 164.184 70.1675 164.097 70.3264 163.997C70.6301 163.806 70.9222 163.554 71.053 163.21C71.1533 162.946 71.1703 162.655 71.0809 162.386C70.9423 161.969 70.5976 161.656 70.2298 161.412C70.5636 161.727 70.852 162.119 70.8946 162.584C70.9354 163.032 70.7111 163.444 70.4153 163.764C70.2411 163.953 70.0424 164.117 69.8311 164.265Z" fill="#FFFBCE"/>
<path opacity="0.48" d="M48.7115 157.363C49.3708 157.092 50.0632 156.92 50.7454 156.718C51.723 156.43 52.6508 156.015 53.553 155.543C53.9665 155.327 54.3791 155.105 54.7618 154.837C55.1281 154.58 55.4915 154.27 55.7249 153.883C55.9055 153.584 55.9808 153.21 55.8195 152.885C55.8092 152.865 55.7962 152.847 55.7847 152.827C55.8204 153.01 55.7856 153.204 55.7063 153.384C55.6148 153.592 55.4774 153.778 55.3308 153.95C55.0976 154.222 54.8299 154.454 54.5395 154.663C53.8127 155.186 52.9892 155.557 52.1689 155.907C51.7713 156.076 51.3714 156.24 50.9766 156.416C50.6819 156.548 50.3722 156.648 50.0689 156.758C49.3714 157.01 48.6601 157.271 48.0313 157.671C47.9235 157.74 47.8185 157.814 47.7188 157.894C48.0241 157.674 48.3703 157.504 48.7115 157.363Z" fill="#FFFBCE"/>
<path d="M5.35016 169.814C7.95851 169.417 10.6011 169.335 13.235 169.291C15.8583 169.247 18.4874 169.241 21.1015 168.992C23.5666 168.756 26.0442 168.356 28.5269 168.541C29.7307 168.631 30.8776 168.897 32.0047 169.327C33.1536 169.765 34.2651 170.302 35.4391 170.673C36.5015 171.009 37.5943 171.215 38.6969 171.304C39.9275 171.101 41.1727 171.001 42.4085 170.836C43.1164 170.741 43.8156 170.599 44.5212 170.491C45.2241 170.384 45.9306 170.3 46.6379 170.228C48.0895 170.081 49.5369 169.972 50.9969 169.971C52.4658 169.969 53.9342 170.039 55.3994 170.141C56.7981 170.239 58.1937 170.378 59.5928 170.473C60.9148 170.562 62.2773 170.596 63.5668 170.245C64.1427 170.088 64.6111 169.831 65.0159 169.391C65.35 169.028 65.6534 168.62 66.1048 168.395C66.5668 168.164 67.0941 168.102 67.6036 168.078C68.0975 168.055 68.5938 168.056 69.088 168.043C70.1357 168.016 71.6009 168.035 72.5848 167.451C72.7027 167.3 72.7291 167.131 72.6302 166.94C72.4991 166.687 72.18 166.538 71.9353 166.425C71.5866 166.265 71.2182 166.148 70.8494 166.043C69.6616 165.706 68.4673 165.401 67.2896 165.026C65.7583 164.539 64.2385 164.016 62.8018 163.29C61.4746 162.619 60.2078 161.837 58.8984 161.133C57.6414 160.458 56.3355 159.828 54.9431 159.489C53.5046 159.138 52.0737 159.173 50.6364 159.507C49.1571 159.85 47.7091 160.429 46.1856 160.549C44.9355 160.648 43.6986 160.419 42.539 159.952C40.2544 159.031 38.3421 157.391 36.1685 156.255C34.942 155.615 33.6027 155.076 32.1922 155.198C30.8782 155.312 29.6473 155.886 28.5372 156.568C25.974 158.142 23.6187 160.06 21.1903 161.828C18.7283 163.621 16.1499 165.296 13.4029 166.622C13.3865 166.63 13.3702 166.637 13.354 166.645C12.6557 166.916 11.9518 167.172 11.2356 167.394C10.754 167.544 10.2773 167.709 9.79747 167.863C9.6747 167.903 9.55164 167.939 9.42801 167.973C8.92773 168.084 8.42774 168.195 7.9289 168.313C7.284 168.467 6.65347 168.657 6.01892 168.846C5.63192 168.961 5.23515 169.076 4.88323 169.278C4.85275 169.296 4.8217 169.315 4.79094 169.334C4.58134 169.51 4.41774 169.724 4.45569 169.963C4.75299 169.91 5.05114 169.859 5.35016 169.814Z" fill="#812F2A"/>
<path d="M70.5428 168.069C70.0048 168.157 69.4683 168.27 68.9264 168.329C68.3962 168.387 67.8536 168.417 67.337 168.558C66.9989 168.65 66.5595 168.827 66.4284 169.188C66.3793 169.322 66.4072 169.453 66.4215 169.591C66.4534 169.897 66.4155 170.195 66.3022 170.483C66.0805 171.045 65.5788 171.377 65.0331 171.582C64.3094 171.856 63.5484 172.038 62.789 172.18C61.3155 172.457 59.8155 172.557 58.3239 172.684C55.1328 172.954 51.943 173.246 48.7453 173.425C45.5153 173.606 42.281 173.606 39.0488 173.712C36.481 173.796 33.7314 173.997 31.2459 173.198C30.6444 173.005 29.2795 172.326 30.1179 171.538C30.3183 171.35 30.7792 171.217 30.841 170.914C30.9017 170.617 30.4969 170.395 30.2781 170.297C29.4621 169.933 28.4492 169.998 27.58 170.044C26.4803 170.103 25.3845 170.18 24.2836 170.226C21.1647 170.356 18.0494 170.376 14.935 170.602C11.9282 170.82 8.91788 171.015 5.92282 170.563C5.55163 170.506 4.87568 170.467 4.64969 170.116C4.3616 169.67 5.06774 169.371 5.37567 169.249C6.4599 168.823 7.62377 168.56 8.76176 168.311C9.03634 168.219 9.30919 168.122 9.58607 168.036C9.81924 167.963 10.0533 167.892 10.2859 167.817C10.513 167.743 10.7358 167.658 10.9615 167.58C11.7422 167.31 12.5394 167.084 13.308 166.78C13.3893 166.741 13.4713 166.704 13.5518 166.663C14.6817 166.132 15.7841 165.542 16.8602 164.898C19.4804 163.333 21.9033 161.497 24.3587 159.691C25.5205 158.837 26.6968 157.997 27.8931 157.192C29.0372 156.421 30.2594 155.725 31.6306 155.466C33.1604 155.178 34.6156 155.699 35.9597 156.393C37.0462 156.955 38.0672 157.623 39.0968 158.28C41.0085 159.5 43.0315 160.677 45.3647 160.714C46.7367 160.736 48.0417 160.326 49.3499 159.963C50.8174 159.556 52.2978 159.248 53.8251 159.459C56.763 159.864 59.2946 161.655 61.8405 163.041C64.446 164.458 67.3062 165.334 70.1722 166.06C70.8401 166.229 71.5776 166.382 72.1641 166.76C73.3044 167.496 71.0186 167.992 70.5428 168.069Z" fill="#FFC689"/>
<path d="M8.65069 168.617C9.69869 168.38 10.7358 168.084 11.7613 167.765C14.2438 166.992 16.5968 165.822 18.8196 164.484C21.1157 163.101 23.2908 161.523 25.4075 159.882C27.2335 158.466 29.0023 156.945 31.056 155.86C31.3582 155.701 31.6664 155.553 31.9795 155.416C31.8634 155.428 31.7469 155.444 31.6296 155.466C30.2584 155.725 29.0362 156.422 27.8922 157.192C26.6958 157.998 25.5196 158.837 24.3577 159.691C21.9023 161.497 19.4794 163.333 16.8593 164.899C15.7831 165.542 14.6805 166.133 13.5508 166.663C13.4703 166.704 13.3884 166.741 13.307 166.78C12.5385 167.084 11.7412 167.31 10.9606 167.58C10.7352 167.659 10.5121 167.743 10.2849 167.817C10.0523 167.893 9.8183 167.963 9.58512 168.036C9.30824 168.122 9.03539 168.219 8.76081 168.311C7.85226 168.51 6.92789 168.719 6.04004 169.012C6.91927 168.97 7.79562 168.811 8.65069 168.617Z" fill="#FFC689"/>
<path opacity="0.3" d="M72.164 166.76C71.5778 166.382 70.84 166.23 70.1721 166.061C67.3061 165.335 64.4459 164.459 61.8404 163.041C59.2945 161.656 56.7629 159.865 53.825 159.459C52.7046 159.304 51.6094 159.43 50.5261 159.668C50.6721 159.727 50.828 159.766 50.9769 159.795C51.4407 159.886 51.9151 159.905 52.3828 159.97C52.7946 160.026 53.2414 160.109 53.5769 160.372C53.8411 160.579 54.03 160.931 53.9613 161.272C53.8914 161.619 53.6013 161.889 53.3322 162.095C52.6149 162.642 51.7319 162.974 50.8924 163.284C50.7351 163.342 50.5772 163.398 50.4197 163.456C50.1934 163.539 49.9786 163.646 49.7653 163.758C49.5226 163.887 49.2742 164.024 49.0666 164.205C48.9594 164.299 48.8389 164.421 48.824 164.57C48.811 164.697 48.8866 164.812 48.9671 164.904C49.0899 165.042 49.2406 165.156 49.3895 165.265C49.8334 165.59 50.2946 165.891 50.7184 166.243C51.1836 166.63 51.637 167.142 51.6945 167.772C51.7411 168.282 51.4861 168.749 51.1497 169.114C50.7138 169.586 50.1451 169.931 49.5738 170.213C49.3053 170.346 49.0344 170.464 48.7504 170.558C48.2429 170.724 47.7254 170.861 47.2073 170.991C46.4701 171.175 45.728 171.34 44.983 171.489C44.1156 171.663 43.2438 171.815 42.3683 171.941C41.4673 172.071 40.5619 172.175 39.6533 172.235C38.8181 172.29 37.9777 172.311 37.1416 172.255C36.4607 172.21 35.7675 172.12 35.1215 171.892C34.6408 171.722 34.1612 171.462 33.8685 171.031C33.5384 170.544 33.5327 169.933 33.7992 169.416C34.0039 169.019 34.3199 168.682 34.65 168.387C35.0404 168.036 35.4708 167.731 35.9124 167.449C36.7675 166.903 37.6749 166.443 38.5915 166.011C38.8868 165.871 39.1806 165.723 39.4843 165.603C39.8592 165.455 40.2468 165.338 40.632 165.22C41.6265 164.915 42.6303 164.628 43.594 164.233C44.0204 164.059 44.4445 163.863 44.8278 163.605C45.0946 163.425 45.3735 163.196 45.5037 162.893C45.1515 162.679 44.7381 162.613 44.3324 162.58C43.9068 162.546 43.4779 162.543 43.0564 162.469C42.9862 162.456 43.0147 162.364 43.0716 162.356C43.6098 162.285 44.1486 162.218 44.686 162.142C45.6995 161.999 46.7133 161.825 47.6966 161.535C48.5755 161.276 49.4487 160.917 50.1793 160.354C49.3225 160.397 48.4648 160.438 47.6069 160.432C46.8726 160.604 46.1294 160.726 45.3654 160.714C43.0322 160.677 41.0093 159.5 39.0976 158.28C38.068 157.623 37.047 156.955 35.9605 156.394C34.616 155.699 33.1612 155.178 31.6313 155.466C31.5914 155.474 31.5517 155.483 31.512 155.491C31.6555 155.499 31.7987 155.509 31.9415 155.521C32.4372 155.564 32.9384 155.633 33.4145 155.782C33.765 155.891 34.1451 156.05 34.3737 156.352C34.5922 156.64 34.5715 156.996 34.4314 157.314C34.3276 157.55 34.1715 157.761 34.0045 157.956C33.7397 158.266 33.4352 158.529 33.1048 158.767C32.2785 159.362 31.3426 159.784 30.4102 160.181C29.9583 160.374 29.5037 160.56 29.0549 160.76C28.7199 160.909 28.3677 161.024 28.0233 161.148C27.2303 161.436 26.4218 161.731 25.707 162.187C25.3979 162.384 25.1081 162.616 24.8916 162.914C24.741 163.122 24.5782 163.366 24.557 163.63C24.5239 164.04 24.9313 164.247 25.2562 164.378C25.724 164.567 26.2185 164.683 26.6765 164.897C27.0983 165.094 27.506 165.405 27.5816 165.894C27.6771 166.512 27.1682 166.972 26.6921 167.268C26.134 167.614 25.5063 167.837 24.8879 168.049C24.4405 168.203 24.0044 168.389 23.5639 168.561C22.952 168.801 22.3422 169.046 21.7425 169.314C21.0889 169.607 20.444 169.926 19.8348 170.303C19.7974 170.327 19.76 170.351 19.7227 170.374C21.2425 170.326 22.7631 170.289 24.2844 170.226C25.3853 170.18 26.4813 170.103 27.5808 170.044C28.4499 169.998 29.4629 169.933 30.2788 170.297C30.4976 170.395 30.9025 170.617 30.8418 170.914C30.7803 171.217 30.3191 171.35 30.1187 171.538C29.28 172.326 30.6451 173.005 31.2466 173.198C33.7322 173.997 36.4817 173.796 39.0495 173.712C42.2821 173.606 45.5161 173.606 48.746 173.425C51.9438 173.246 55.1338 172.954 58.3247 172.684C59.8166 172.557 61.3163 172.457 62.7898 172.18C63.5491 172.037 64.3099 171.855 65.0339 171.582C65.5796 171.376 66.0813 171.045 66.303 170.483C66.4163 170.195 66.4542 169.897 66.4223 169.591C66.4079 169.453 66.3803 169.322 66.4292 169.188C66.5603 168.828 66.9996 168.651 67.3377 168.558C67.8544 168.418 68.397 168.387 68.9271 168.329C69.4688 168.27 70.0056 168.157 70.5436 168.069C71.0188 167.992 73.3046 167.496 72.164 166.76Z" fill="#B05827"/>
<path opacity="0.3" d="M36.0336 156.887C36.4284 157.326 36.7734 157.806 37.1633 158.249C37.5514 158.691 37.9749 159.105 38.4715 159.424C38.9692 159.744 39.5339 159.977 40.0873 160.181C40.6483 160.388 41.2253 160.551 41.8121 160.667C42.9705 160.895 44.1729 160.935 45.3388 160.739C45.3808 160.731 45.4222 160.722 45.4642 160.714C45.4308 160.714 45.3975 160.715 45.3641 160.715C43.0309 160.678 41.008 159.5 39.0963 158.281C38.0667 157.624 37.0457 156.955 35.9592 156.394C35.6788 156.249 35.3933 156.113 35.1035 155.989C35.4324 156.265 35.7435 156.564 36.0336 156.887Z" fill="#BF814D"/>
<path opacity="0.3" d="M56.2803 160.604C56.9408 161.038 57.5727 161.512 58.2093 161.98C58.8752 162.47 59.5652 162.927 60.2806 163.342C61.7141 164.173 63.2627 164.85 64.8705 165.262C66.6853 165.726 68.5605 165.893 70.377 166.349C70.8853 166.477 71.3977 166.557 71.8747 166.788C72.1021 166.898 72.3157 167.048 72.4661 167.238C72.5092 167.094 72.4322 166.934 72.1636 166.761C71.5774 166.383 70.8396 166.23 70.1717 166.061C67.3057 165.335 64.4455 164.459 61.84 163.041C59.4508 161.742 57.0739 160.084 54.3623 159.55C55.0285 159.841 55.6665 160.201 56.2803 160.604Z" fill="#BF814D"/>
<path opacity="0.3" d="M68.3298 168.349C67.8675 168.367 67.4069 168.412 66.9443 168.424C66.5935 168.434 66.2428 168.444 65.8934 168.481C65.5349 168.518 65.1502 168.572 64.8244 168.737C64.7005 168.8 64.5783 168.883 64.5059 169.004C64.3825 169.212 64.4541 169.455 64.5156 169.67C64.6272 170.061 64.6387 170.414 64.3173 170.705C64.0481 170.948 63.6896 171.082 63.3463 171.181C62.961 171.293 62.5643 171.36 62.1686 171.424C61.7086 171.498 61.2587 171.603 60.8035 171.702C60.1759 171.839 59.5453 171.963 58.9131 172.077C57.6469 172.305 56.3735 172.492 55.0983 172.662C53.7907 172.836 52.4799 172.984 51.1731 173.164C50.7212 173.227 50.2698 173.293 49.8184 173.361C52.6567 173.18 55.4899 172.924 58.3237 172.684C59.8156 172.557 61.3153 172.457 62.7888 172.18C63.5481 172.037 64.3089 171.855 65.0329 171.582C65.5786 171.376 66.0803 171.045 66.302 170.483C66.4153 170.195 66.4532 169.896 66.4213 169.591C66.4069 169.453 66.3793 169.322 66.4282 169.187C66.5593 168.827 66.9986 168.65 67.3368 168.558C67.8388 168.421 68.3652 168.388 68.881 168.333C68.6973 168.338 68.5136 168.342 68.3298 168.349Z" fill="#BF814D"/>
<path opacity="0.3" d="M30.8404 170.914C30.7789 171.217 30.3177 171.35 30.1173 171.538C30.0854 171.568 30.0575 171.598 30.0319 171.628C30.0728 171.594 30.1147 171.561 30.1579 171.531C30.3893 171.368 30.6478 171.246 30.9071 171.134C31.1349 171.036 31.3637 170.941 31.5952 170.852C31.8387 170.758 32.0842 170.668 32.3188 170.553C32.4186 170.504 32.5181 170.451 32.6075 170.385C32.6647 170.343 32.7303 170.289 32.7559 170.22C32.8206 170.045 32.5146 169.92 32.4019 169.871C32.0727 169.727 31.7179 169.627 31.3652 169.561C30.6328 169.426 29.8784 169.439 29.1389 169.495C28.3991 169.551 27.6648 169.658 26.9291 169.752C26.0924 169.859 25.2511 169.934 24.411 170.01C23.1057 170.127 21.7989 170.23 20.4941 170.351C21.7566 170.313 23.0194 170.278 24.2828 170.225C25.3837 170.179 26.4797 170.103 27.5791 170.044C28.4483 169.998 29.4612 169.933 30.2772 170.297C30.496 170.395 30.9008 170.617 30.8404 170.914Z" fill="#BF814D"/>
<path opacity="0.48" d="M23.5625 168.561C23.376 168.634 23.1899 168.708 23.0039 168.783C23.3343 168.724 23.6649 168.666 23.9915 168.589C24.4265 168.487 24.8581 168.368 25.281 168.223C25.7115 168.076 26.1321 167.9 26.5352 167.689C26.8569 167.52 27.1815 167.329 27.4328 167.062C27.6715 166.808 27.8158 166.474 27.754 166.122C27.7065 165.853 27.5662 165.619 27.3793 165.426C27.4805 165.56 27.553 165.715 27.5809 165.894C27.6763 166.513 27.1674 166.972 26.6913 167.268C26.1332 167.614 25.5056 167.837 24.8871 168.05C24.4395 168.203 24.003 168.389 23.5625 168.561Z" fill="#FFFBCE"/>
<path opacity="0.48" d="M50.4193 163.456C50.193 163.54 49.9782 163.646 49.7649 163.759C49.5222 163.887 49.2738 164.024 49.0662 164.205C48.959 164.299 48.8385 164.421 48.8235 164.57C48.8215 164.589 48.8221 164.608 48.8238 164.626C48.9204 164.523 49.0343 164.433 49.1481 164.355C49.6456 164.011 50.2324 163.801 50.7988 163.601C51.0564 163.51 51.3106 163.415 51.5647 163.314C52.0547 163.121 52.5431 162.918 52.9986 162.652C53.226 162.519 53.4448 162.371 53.6452 162.2C53.8393 162.034 54.0236 161.847 54.1432 161.619C54.257 161.403 54.2872 161.158 54.2013 160.926C54.123 160.716 53.9655 160.541 53.7864 160.41C53.4494 160.162 53.0322 160.045 52.6248 159.979C52.3885 159.942 52.1493 159.924 51.9097 159.917C52.0676 159.932 52.2254 159.948 52.3824 159.97C52.7941 160.027 53.241 160.11 53.5765 160.373C53.8407 160.58 54.0296 160.932 53.9609 161.273C53.891 161.62 53.6009 161.89 53.3318 162.096C52.6145 162.643 51.7315 162.975 50.8919 163.284C50.7344 163.342 50.5765 163.398 50.4193 163.456Z" fill="#FFFBCE"/>
<path opacity="0.48" d="M50.4854 169.682C50.6783 169.59 50.8677 169.491 51.0486 169.377C51.3936 169.16 51.7257 168.874 51.8743 168.483C51.9885 168.183 52.0078 167.852 51.9063 167.546C51.7487 167.072 51.3568 166.717 50.9388 166.439C51.318 166.797 51.6461 167.243 51.6944 167.771C51.7409 168.281 51.4859 168.749 51.1495 169.113C50.9514 169.328 50.7257 169.515 50.4854 169.682Z" fill="#FFFBCE"/>
<path opacity="0.48" d="M26.4788 161.837C27.2281 161.528 28.0153 161.333 28.7907 161.104C29.902 160.776 30.9566 160.304 31.9822 159.768C32.4523 159.522 32.9212 159.271 33.3559 158.965C33.7722 158.673 34.1854 158.321 34.4511 157.881C34.6564 157.541 34.742 157.116 34.5586 156.747C34.5471 156.724 34.5324 156.703 34.5192 156.681C34.56 156.889 34.5204 157.109 34.4301 157.314C34.3263 157.55 34.1702 157.761 34.0031 157.956C33.7383 158.266 33.4338 158.529 33.1035 158.767C32.2772 159.362 31.3413 159.784 30.4089 160.181C29.9569 160.374 29.5023 160.56 29.0535 160.76C28.7186 160.909 28.3663 161.024 28.0219 161.148C27.2289 161.436 26.4204 161.731 25.7057 162.187C25.5829 162.265 25.4636 162.349 25.3506 162.44C25.6976 162.19 26.0909 161.997 26.4788 161.837Z" fill="#FFFBCE"/>
<path d="M67.6047 64.0868C69.0787 63.938 70.5787 63.7797 71.9695 63.2572C72.2473 63.1529 72.5269 63.0302 72.741 62.8196C74.2593 61.3274 70.298 60.8941 69.6747 60.5642C69.3918 60.4144 68.9598 60.1304 69.2868 59.7564C69.4365 59.585 69.6702 59.5289 69.8887 59.4814C72.806 58.8481 75.72 58.2976 78.6448 57.7154C79.5182 57.5415 80.4122 57.4883 81.2657 57.211C81.6905 57.073 82.1118 56.8752 82.4423 56.5598C82.5253 56.4809 82.612 56.3924 82.6795 56.2992C82.7475 56.2051 82.7726 56.0856 82.8 55.974C82.8539 55.7538 82.9173 55.5435 83.114 55.4188C83.4752 55.1899 83.9325 55.1388 84.3371 55.0406C84.9233 54.8985 85.5051 54.7403 86.0936 54.608C87.321 54.3318 88.546 54.0651 89.741 53.6581C90.0849 53.541 91.6475 53.2034 91.221 52.5627C91.0201 52.2608 90.6146 52.0955 90.3001 51.9604C90.1537 51.8976 90.005 51.8405 89.8566 51.7832C89.6476 51.7022 89.4479 51.597 89.2425 51.5072C88.359 51.1219 87.4459 50.8307 86.5178 50.5933C84.9052 50.378 83.2882 50.1881 81.6682 50.0239C73.9259 49.2392 66.1696 49.1407 58.3988 49.4545C54.4983 49.612 50.6114 49.9175 46.714 50.106C42.8854 50.291 39.0478 50.1384 35.2155 50.0913C31.459 50.045 27.7253 50.1446 24.0119 50.6496C20.376 51.1442 16.7871 51.8837 13.2487 52.7576C12.4343 52.9587 11.6228 53.1684 10.8134 53.3843C9.46262 53.556 8.11947 53.7596 6.773 53.9993C6.07171 54.1241 4.4916 54.0896 4.37714 54.9418C4.31621 55.3977 4.7657 55.7173 5.17035 55.9189C5.90047 56.2827 6.74615 56.4753 7.55549 56.6405C9.87419 57.1138 12.2644 57.3178 14.6286 57.5043C15.8593 57.6013 17.0913 57.6826 18.323 57.7686C19.0037 57.8161 19.7024 57.8403 20.3801 57.9376C19.4051 58.3265 17.4815 58.8666 17.9495 60.0021C18.2454 60.7204 19.1188 61.2666 19.8428 61.6237C20.7527 62.0726 21.7557 62.3517 22.7595 62.5797C27.6886 63.699 32.7382 63.9338 37.7862 64.2675C42.9832 64.6112 48.188 64.9267 53.3993 64.9315C55.9575 64.9339 58.5164 64.861 61.0647 64.6745C62.9702 64.5351 64.8748 64.3776 66.7751 64.1721C67.0502 64.1425 67.327 64.1148 67.6047 64.0868Z" fill="#DF8E49"/>
<path d="M12.981 55.5297C15.5894 55.1326 18.2319 55.0516 20.8659 55.0073C23.4892 54.963 26.1182 54.9575 28.7323 54.7077C31.1975 54.4719 33.675 54.072 36.1577 54.2574C37.3616 54.3474 38.5085 54.6131 39.6355 55.0429C40.7845 55.4808 41.896 56.0176 43.0699 56.3888C44.1323 56.7246 45.2252 56.9311 46.3278 57.0199C47.5584 56.8169 48.8036 56.7171 50.0393 56.5518C50.7472 56.4569 51.4465 56.3149 52.152 56.2071C52.855 56.0998 53.5614 56.0159 54.2687 55.9443C55.7204 55.7971 57.1677 55.6884 58.6278 55.687C60.0967 55.6855 61.565 55.7551 63.0302 55.8572C64.429 55.9546 65.8246 56.0938 67.2237 56.1887C68.5457 56.2784 69.9082 56.312 71.1977 55.961C71.7736 55.8043 72.242 55.5472 72.6468 55.107C72.9809 54.7439 73.2842 54.3362 73.7356 54.1108C74.1977 53.8799 74.725 53.8181 75.2344 53.7942C75.7284 53.7712 76.2246 53.7724 76.7189 53.7595C77.7666 53.7324 79.2318 53.7511 80.2157 53.1669C80.3336 53.0162 80.36 52.8469 80.2611 52.6563C80.13 52.4035 79.8109 52.2537 79.5662 52.1413C79.2174 51.9809 78.8491 51.8641 78.4802 51.7592C77.2925 51.4217 76.0981 51.1172 74.9205 50.7425C73.3892 50.2555 71.8693 49.7316 70.4326 49.0057C69.1054 48.3349 67.8387 47.5534 66.5293 46.8496C65.2723 46.1739 63.9664 45.5442 62.5739 45.2047C61.1355 44.8539 59.7045 44.8896 58.2672 45.2231C56.7879 45.5664 55.34 46.1454 53.8165 46.2653C52.5663 46.3637 51.3294 46.1351 50.1699 45.6676C47.8853 44.7467 45.973 43.107 43.7994 41.9716C42.5728 41.331 41.2336 40.7922 39.823 40.9141C38.5091 41.0276 37.2782 41.6021 36.1681 42.2841C33.6049 43.8582 31.2495 45.7763 28.8212 47.5445C26.3592 49.3369 23.7807 51.0125 21.0338 52.338C21.0174 52.3457 21.001 52.3532 20.9849 52.361C20.2865 52.6321 19.5827 52.8877 18.8665 53.1105C18.3849 53.2603 17.9082 53.4251 17.4283 53.5792C17.3056 53.6186 17.1825 53.6548 17.0589 53.6893C16.5586 53.7997 16.0586 53.911 15.5598 54.0294C14.9149 54.1827 14.2843 54.373 13.6498 54.5622C13.2628 54.6775 12.866 54.7916 12.5141 54.994C12.4836 55.0116 12.4526 55.0306 12.4218 55.0504C12.2122 55.2264 12.0486 55.44 12.0866 55.6792C12.3838 55.6257 12.682 55.5751 12.981 55.5297Z" fill="#812F2A"/>
<path d="M78.1727 53.7856C77.6347 53.873 77.0982 53.9857 76.5563 54.0449C76.0261 54.1027 75.4835 54.1335 74.9669 54.2743C74.6287 54.3663 74.1894 54.5434 74.0583 54.9037C74.0091 55.0383 74.037 55.1691 74.0514 55.3071C74.0833 55.6127 74.0454 55.9115 73.9321 56.199C73.7104 56.7614 73.2087 57.0926 72.663 57.2984C71.9393 57.5716 71.1783 57.7536 70.4189 57.8962C68.9454 58.1731 67.4454 58.2734 65.9538 58.3996C62.7626 58.6702 59.5729 58.962 56.3752 59.1414C53.1452 59.3226 49.9109 59.322 46.6787 59.4278C44.1108 59.512 41.3613 59.7127 38.8757 58.914C38.2743 58.7208 36.9094 58.0417 37.7478 57.2542C37.9482 57.0661 38.4091 56.9327 38.4709 56.6302C38.5316 56.3332 38.1268 56.1107 37.908 56.0132C37.092 55.6492 36.0791 55.7139 35.2099 55.7605C34.1102 55.8192 33.0144 55.8959 31.9135 55.9416C28.7945 56.0716 25.6793 56.0923 22.5649 56.3183C19.5581 56.5365 16.5478 56.7309 13.5527 56.2786C13.1815 56.2225 12.5056 56.1826 12.2796 55.8324C11.9915 55.3864 12.6976 55.0866 13.0056 54.9655C14.0898 54.5391 15.2536 54.2758 16.3916 54.0271C16.6662 53.9351 16.9391 53.8379 17.216 53.7516C17.4491 53.6789 17.6832 53.6082 17.9158 53.5328C18.1429 53.4592 18.3657 53.3744 18.5914 53.2962C19.372 53.0256 20.1693 52.7997 20.9379 52.4958C21.0192 52.4572 21.1012 52.4199 21.1817 52.3793C22.3116 51.8486 23.414 51.2577 24.4901 50.6145C27.1103 49.049 29.5332 47.2129 31.9886 45.4073C33.1504 44.5528 34.3267 43.7136 35.523 42.9079C36.667 42.1374 37.8893 41.4407 39.2604 41.1823C40.7903 40.8936 42.2454 41.4151 43.5896 42.1095C44.6761 42.6707 45.6971 43.3389 46.7267 43.9959C48.6384 45.2158 50.6613 46.3935 52.9945 46.43C54.3666 46.4516 55.6716 46.0419 56.9798 45.679C58.4473 45.2719 59.9277 44.9637 61.455 45.1747C64.3929 45.5804 66.9244 47.3713 69.4704 48.7566C72.0759 50.1741 74.9361 51.0504 77.8021 51.7764C78.47 51.9454 79.2074 52.0978 79.794 52.4759C80.9343 53.2117 78.6485 53.7082 78.1727 53.7856Z" fill="#FFC689"/>
<path d="M16.2825 54.3335C17.3305 54.0963 18.3676 53.8004 19.3932 53.481C21.8756 52.7079 24.2286 51.5383 26.4514 50.1999C28.7475 48.8172 30.9226 47.2387 33.0393 45.5979C34.8653 44.1821 36.6341 42.6615 38.6879 41.5764C38.99 41.4168 39.2982 41.2687 39.6114 41.1316C39.4952 41.1445 39.3788 41.1603 39.2614 41.1825C37.8903 41.4412 36.668 42.1379 35.524 42.9082C34.3277 43.7138 33.1514 44.553 31.9896 45.4075C29.5342 47.2131 27.1113 49.0492 24.4911 50.6148C23.415 51.2579 22.3123 51.8488 21.1827 52.3795C21.1022 52.4201 21.0202 52.4575 20.9389 52.496C20.1703 52.7999 19.373 53.0259 18.5924 53.2964C18.367 53.3746 18.1439 53.4595 17.9168 53.5331C17.6842 53.6087 17.4501 53.6791 17.217 53.7519C16.9401 53.8381 16.6672 53.9353 16.3926 54.0273C15.4841 54.226 14.5597 54.4353 13.6719 54.728C14.5511 54.6863 15.4275 54.527 16.2825 54.3335Z" fill="#FFC689"/>
<path opacity="0.3" d="M79.7949 52.4764C79.2086 52.0984 78.4708 51.946 77.8029 51.7769C74.937 51.0509 72.0768 50.1746 69.4713 48.7571C66.9253 47.3722 64.3937 45.5809 61.4559 45.1752C60.3354 45.0206 59.2403 45.1456 58.1569 45.3837C58.303 45.4426 58.4588 45.4817 58.6077 45.5111C59.0715 45.6022 59.5459 45.6212 60.0137 45.6856C60.4254 45.7422 60.8722 45.8253 61.2078 46.0881C61.472 46.2954 61.6609 46.647 61.5922 46.988C61.5223 47.3351 61.2322 47.6053 60.9631 47.8109C60.2457 48.3583 59.3628 48.6898 58.5232 48.9998C58.3659 49.0579 58.2081 49.1145 58.0505 49.1723C57.8243 49.2554 57.6095 49.3621 57.3961 49.4745C57.1535 49.6027 56.9051 49.7399 56.6975 49.9213C56.5902 50.015 56.4698 50.1366 56.4548 50.2861C56.4419 50.4135 56.5175 50.5285 56.598 50.6197C56.7208 50.7582 56.8714 50.8721 57.0204 50.9811C57.4643 51.3065 57.9255 51.607 58.3493 51.9595C58.8145 52.3462 59.2679 52.8586 59.3254 53.4876C59.372 53.9977 59.1169 54.4655 58.7805 54.8298C58.3447 55.3019 57.776 55.6469 57.2047 55.9295C56.9361 56.0624 56.6653 56.1802 56.3812 56.2737C55.8737 56.4404 55.3562 56.5767 54.8381 56.7067C54.1009 56.8916 53.3588 57.056 52.6139 57.2052C51.7464 57.3789 50.8747 57.531 49.9992 57.6572C49.0981 57.7872 48.1927 57.891 47.2842 57.9508C46.4489 58.006 45.6085 58.0267 44.7724 57.9712C44.0916 57.9258 43.3984 57.836 42.7523 57.6078C42.2716 57.4381 41.792 57.1782 41.4993 56.7466C41.1693 56.2599 41.1635 55.6486 41.4301 55.1322C41.6348 54.7352 41.9507 54.3985 42.2808 54.1026C42.6713 53.7524 43.1017 53.4468 43.5433 53.1648C44.3984 52.6188 45.3058 52.1587 46.2224 51.7266C46.5177 51.5874 46.8115 51.4391 47.1151 51.3189C47.49 51.1708 47.8776 51.0538 48.2629 50.9356C49.2574 50.6309 50.2611 50.3442 51.2249 49.9495C51.6513 49.7749 52.0754 49.5786 52.4586 49.3207C52.7254 49.1413 53.0043 48.9124 53.1346 48.6088C52.7824 48.3951 52.3689 48.3293 51.9632 48.2965C51.5377 48.262 51.1087 48.2594 50.6872 48.1847C50.6171 48.1723 50.6455 48.08 50.7025 48.0723C51.2407 48.0007 51.7795 47.9345 52.3169 47.8584C53.3304 47.7149 54.3442 47.5409 55.3275 47.2511C56.2064 46.9918 57.0796 46.6332 57.8102 46.0703C56.9534 46.1131 56.0957 46.1545 55.2378 46.1476C54.5034 46.3204 53.7602 46.4423 52.9963 46.4303C50.6631 46.3935 48.6401 45.2158 46.7284 43.9961C45.6988 43.3392 44.6778 42.6707 43.5913 42.1097C42.2469 41.4154 40.7921 40.8938 39.2622 41.1825C39.2222 41.19 39.1825 41.1992 39.1429 41.2075C39.2863 41.2153 39.4295 41.2248 39.5724 41.2371C40.0681 41.2805 40.5692 41.3493 41.0454 41.4976C41.3958 41.6069 41.7759 41.7664 42.0045 42.0678C42.223 42.3559 42.2023 42.7118 42.0623 43.0301C41.9585 43.2661 41.8024 43.4775 41.6353 43.6724C41.3705 43.9818 41.0661 44.2454 40.7357 44.4832C39.9094 45.0781 38.9735 45.4999 38.0411 45.8972C37.5891 46.0898 37.1346 46.2764 36.6857 46.4763C36.3508 46.6255 35.9986 46.7396 35.6541 46.8644C34.8612 47.1519 34.0527 47.4475 33.3379 47.9029C33.0288 48.0999 32.739 48.3319 32.5225 48.63C32.3718 48.8376 32.2091 49.0823 32.1878 49.346C32.1548 49.756 32.5622 49.9635 32.8871 50.0944C33.3549 50.283 33.8494 50.3991 34.3074 50.6131C34.7292 50.81 35.1369 51.1208 35.2125 51.6099C35.308 52.2283 34.7991 52.6881 34.3229 52.9836C33.7649 53.3301 33.1372 53.5526 32.5188 53.7654C32.0714 53.9192 31.6352 54.1049 31.1947 54.2775C30.5829 54.517 29.9731 54.7616 29.3733 55.0302C28.7198 55.3232 28.0749 55.6417 27.4656 56.0195C27.4283 56.0428 27.3909 56.0667 27.3535 56.0905C28.8733 56.0425 30.394 56.0051 31.9153 55.9416C33.0162 55.8956 34.1122 55.8191 35.2116 55.7605C36.0808 55.7142 37.0937 55.6492 37.9097 56.0132C38.1285 56.1107 38.5333 56.3332 38.4727 56.6302C38.4111 56.9327 37.9499 57.0661 37.7495 57.2541C36.9109 58.0416 38.276 58.7207 38.8775 58.9139C41.3631 59.7127 44.1126 59.512 46.6804 59.4277C49.9129 59.3219 53.1469 59.3225 56.3769 59.1414C59.5747 58.962 62.7647 58.6701 65.9555 58.3996C67.4475 58.2731 68.9471 58.173 70.4207 57.8961C71.18 57.7535 71.9408 57.5712 72.6647 57.2984C73.2104 57.0925 73.7122 56.7613 73.9338 56.1989C74.0471 55.9114 74.0851 55.6127 74.0532 55.3071C74.0388 55.1693 74.0112 55.0382 74.06 54.9037C74.1912 54.5437 74.6305 54.3666 74.9686 54.2743C75.4853 54.1337 76.0278 54.1026 76.558 54.0449C77.0997 53.9856 77.6365 53.8732 78.1744 53.7855C78.6497 53.7082 80.9354 53.2116 79.7949 52.4764Z" fill="#B05827"/>
<path opacity="0.3" d="M43.6645 42.6027C44.0593 43.0421 44.4043 43.5219 44.7941 43.9653C45.1823 44.4069 45.6058 44.8215 46.1023 45.1404C46.6 45.4601 47.1647 45.6936 47.7182 45.8974C48.2791 46.1041 48.8562 46.2674 49.443 46.3827C50.6014 46.6107 51.8038 46.6516 52.9697 46.4546C53.0117 46.4474 53.0531 46.4376 53.095 46.4302C53.0617 46.4302 53.0283 46.4313 52.995 46.4307C50.6618 46.3939 48.6388 45.2163 46.7271 43.9966C45.6975 43.3397 44.6766 42.6712 43.59 42.1102C43.3097 41.9653 43.0242 41.829 42.7344 41.7048C43.0633 41.9811 43.3744 42.2799 43.6645 42.6027Z" fill="#BF814D"/>
<path opacity="0.3" d="M63.9112 46.3205C64.5716 46.7543 65.2036 47.2279 65.8401 47.696C66.506 48.1856 67.1961 48.643 67.9114 49.0579C69.345 49.8891 70.8935 50.566 72.5013 50.9777C74.3161 51.4423 76.1913 51.6088 78.0079 52.0654C78.5162 52.193 79.0285 52.2727 79.5055 52.5041C79.733 52.6145 79.9466 52.7637 80.0969 52.9541C80.1401 52.8097 80.063 52.6499 79.7945 52.4768C79.2082 52.0987 78.4705 51.9463 77.8026 51.7773C74.9366 51.0513 72.0764 50.1749 69.4709 48.7575C67.0816 47.4576 64.7047 45.8004 61.9932 45.2659C62.6593 45.5574 63.2973 45.9174 63.9112 46.3205Z" fill="#BF814D"/>
<path opacity="0.3" d="M75.9607 54.0654C75.4984 54.0826 75.0378 54.1281 74.5752 54.1404C74.2244 54.1496 73.8736 54.1605 73.5243 54.1971C73.1657 54.2344 72.7811 54.2882 72.4553 54.4529C72.3314 54.5156 72.2092 54.5987 72.1367 54.7203C72.0134 54.9282 72.085 55.1709 72.1465 55.3859C72.2581 55.777 72.2696 56.13 71.9481 56.4207C71.679 56.6642 71.3205 56.7979 70.9772 56.8974C70.5919 57.009 70.1951 57.0763 69.7995 57.1398C69.3395 57.2137 68.8895 57.3189 68.4344 57.4184C67.8067 57.5555 67.1762 57.6795 66.5439 57.7933C65.2777 58.0213 64.0043 58.2082 62.7292 58.3778C61.4216 58.5518 60.1108 58.7001 58.804 58.8804C58.352 58.9428 57.9006 59.0089 57.4492 59.0768C60.2876 58.8965 63.1208 58.6401 65.9545 58.3997C67.4465 58.2732 68.9462 58.1731 70.4197 57.896C71.179 57.7534 71.9398 57.5714 72.6637 57.2982C73.2095 57.0924 73.7112 56.7611 73.9328 56.1987C74.0461 55.9112 74.0841 55.6125 74.0522 55.3069C74.0378 55.1692 74.0102 55.038 74.0591 54.9035C74.1902 54.5435 74.6295 54.3664 74.9676 54.2741C75.4696 54.1373 75.9961 54.1042 76.5119 54.0496C76.3281 54.0536 76.1444 54.0585 75.9607 54.0654Z" fill="#BF814D"/>
<path opacity="0.3" d="M38.4713 56.6303C38.4098 56.9327 37.9486 57.0661 37.7482 57.2542C37.7163 57.2841 37.6884 57.314 37.6628 57.3436C37.7036 57.31 37.7456 57.2775 37.7887 57.247C38.0202 57.0837 38.2787 56.9621 38.538 56.8505C38.7657 56.7525 38.9946 56.6573 39.226 56.5682C39.4696 56.4744 39.7151 56.3836 39.9497 56.2689C40.0495 56.2203 40.149 56.1674 40.2384 56.1015C40.2956 56.0596 40.3611 56.0055 40.3867 55.9365C40.4514 55.7614 40.1455 55.6363 40.0328 55.5872C39.7036 55.4431 39.3488 55.3428 38.996 55.2775C38.2637 55.1424 37.5093 55.155 36.7698 55.2111C36.03 55.2672 35.2957 55.3744 34.5599 55.4684C33.7232 55.5751 32.882 55.6504 32.0418 55.7257C30.7365 55.8428 29.4298 55.9457 28.125 56.0667C29.3875 56.0291 30.6503 55.994 31.9136 55.9414C33.0145 55.8954 34.1105 55.8189 35.21 55.7602C36.0792 55.714 37.0921 55.649 37.908 56.013C38.1268 56.1107 38.5317 56.333 38.4713 56.6303Z" fill="#BF814D"/>
<path opacity="0.48" d="M31.1934 54.2773C31.0068 54.3503 30.8208 54.4242 30.6348 54.4986C30.9651 54.44 31.2958 54.3822 31.6224 54.3054C32.0574 54.2028 32.489 54.0843 32.9119 53.9394C33.3423 53.7919 33.7629 53.6165 34.166 53.4052C34.4878 53.2362 34.8124 53.0447 35.0637 52.7779C35.3023 52.5246 35.4466 52.1896 35.3848 51.8377C35.3374 51.5691 35.1971 51.3348 35.0102 51.1416C35.1114 51.2762 35.1839 51.4311 35.2117 51.6103C35.3072 52.2287 34.7983 52.6884 34.3222 52.984C33.7641 53.3305 33.1364 53.553 32.518 53.7658C32.0703 53.9193 31.6339 54.105 31.1934 54.2773Z" fill="#FFFBCE"/>
<path opacity="0.48" d="M58.0501 49.1725C57.8238 49.2556 57.6091 49.3622 57.3957 49.4747C57.1531 49.6029 56.9047 49.74 56.6971 49.9215C56.5898 50.0152 56.4694 50.1368 56.4544 50.2863C56.4524 50.3053 56.453 50.324 56.4547 50.3424C56.5513 50.2386 56.6651 50.1492 56.779 50.071C57.2764 49.7274 57.8632 49.5172 58.4296 49.3174C58.6873 49.2265 58.9414 49.1308 59.1956 49.0304C59.6855 48.8372 60.174 48.6345 60.6294 48.3683C60.8569 48.2355 61.0757 48.0871 61.2761 47.916C61.4701 47.7504 61.6544 47.5635 61.774 47.3355C61.8879 47.1187 61.9181 46.8744 61.8321 46.6423C61.7539 46.4319 61.5964 46.2571 61.4172 46.1257C61.0803 45.8784 60.6631 45.7608 60.2557 45.6955C60.0193 45.6576 59.7801 45.6398 59.5406 45.6326C59.6985 45.6484 59.8563 45.6645 60.0133 45.6863C60.425 45.743 60.8718 45.8261 61.2073 46.0889C61.4716 46.2962 61.6605 46.6478 61.5917 46.9888C61.5219 47.3358 61.2318 47.6061 60.9627 47.8117C60.2453 48.3591 59.3623 48.6906 58.5228 49.0005C58.3652 49.0578 58.2074 49.1144 58.0501 49.1725Z" fill="#FFFBCE"/>
<path opacity="0.48" d="M58.1162 55.3985C58.3091 55.3062 58.4986 55.207 58.6795 55.0935C59.0245 54.8764 59.3566 54.59 59.5052 54.1993C59.6193 53.8994 59.6386 53.5685 59.5371 53.2625C59.3796 52.7879 58.9877 52.4328 58.5696 52.155C58.9489 52.5136 59.2769 52.9592 59.3252 53.4874C59.3718 53.9974 59.1168 54.4652 58.7804 54.8295C58.5823 55.0437 58.3566 55.2306 58.1162 55.3985Z" fill="#FFFBCE"/>
<path opacity="0.48" d="M34.1097 47.5533C34.8589 47.2445 35.6462 47.049 36.4216 46.8201C37.5328 46.492 38.5874 46.0202 39.613 45.4843C40.0831 45.2385 40.5521 44.9869 40.9868 44.6815C41.4031 44.3894 41.8163 44.0372 42.0819 43.597C42.2872 43.2572 42.3729 42.8319 42.1895 42.4633C42.178 42.4401 42.1633 42.4194 42.1501 42.3972C42.1909 42.6051 42.1512 42.8253 42.0609 43.03C41.9571 43.2661 41.801 43.4774 41.634 43.6724C41.3692 43.9817 41.0647 44.2454 40.7343 44.4832C39.908 45.078 38.9721 45.4998 38.0397 45.8972C37.5878 46.0898 37.1332 46.2764 36.6844 46.4762C36.3494 46.6254 35.9972 46.7396 35.6528 46.8644C34.8598 47.1519 34.0513 47.4475 33.3365 47.9029C33.2138 47.9811 33.0944 48.065 32.9814 48.1562C33.3285 47.9063 33.7218 47.7131 34.1097 47.5533Z" fill="#FFFBCE"/>
<defs>
<filter id="filter0_dg_126_2937" x="5.82848" y="50.996" width="82.2356" height="117.343" filterUnits="userSpaceOnUse" color-interpolation-filters="sRGB">
<feFlood flood-opacity="0" result="BackgroundImageFix"/>
<feColorMatrix in="SourceAlpha" type="matrix" values="0 0 0 0 0 0 0 0 0 0 0 0 0 0 0 0 0 0 127 0" result="hardAlpha"/>
<feOffset dy="3.8473"/>
<feGaussianBlur stdDeviation="1.92365"/>
<feComposite in2="hardAlpha" operator="out"/>
<feColorMatrix type="matrix" values="0 0 0 0 0 0 0 0 0 0 0 0 0 0 0 0 0 0 0.25 0"/>
<feBlend mode="normal" in2="BackgroundImageFix" result="effect1_dropShadow_126_2937"/>
<feBlend mode="normal" in="SourceGraphic" in2="effect1_dropShadow_126_2937" result="shape"/>
<feTurbulence type="fractalNoise" baseFrequency="2.0793805122375488 2.0793805122375488" numOctaves="3" seed="5760" />
<feDisplacementMap in="shape" scale="7.6945996284484863" xChannelSelector="R" yChannelSelector="G" result="displacedImage" width="100%" height="100%" />
<feMerge result="effect2_texture_126_2937">
<feMergeNode in="displacedImage"/>
</feMerge>
</filter>
<linearGradient id="paint0_linear_126_2937" x1="47.187" y1="44.7441" x2="47.187" y2="151.507" gradientUnits="userSpaceOnUse">
<stop stop-color="#DF8E49"/>
<stop offset="1" stop-color="#E7A56C"/>
</linearGradient>
</defs>
</svg>
