<svg width="95" height="61" viewBox="0 0 95 61" fill="none" xmlns="http://www.w3.org/2000/svg">
<path d="M93.623 0.75V59.96H0.75V0.75H93.623Z" fill="#ECF7F9" stroke="black" stroke-width="1.5"/>
<path d="M45.6699 26.8671L50.6231 20.0374L55.5778 12.9412L56.7842 13.7438L68.4345 31.6878L74.5941 40.1244L61.6048 46.5519L50.4906 46.1498L45.6699 26.8671Z" fill="#636E99"/>
<path opacity="0.2" d="M70.3751 39.7222L72.6444 37.4529L69.214 32.7554L67.4964 36.5084L63.6795 36.8435L59.0598 40.793L52.0977 40.0573L53.0344 41.4632L60.1992 43.6062L65.2864 40.2584L70.3751 39.7222Z" fill="#545C8A"/>
<path opacity="0.2" d="M65.6213 27.403L63.2788 29.2765L61.4038 28.6748L56.9852 31.6206L52.0975 28.4738L49.6864 29.4105L46.0066 26.4009L45.6699 26.8669L47.2363 33.1339L47.9454 33.6296L51.7624 32.8253L56.8512 35.4375L61.2027 31.1514L63.6793 30.6839L65.6213 27.403Z" fill="#545C8A"/>
<path d="M64.1496 25.0903L56.7838 13.7438L55.5774 12.9412L50.6227 20.0374L48.0713 23.5551L50.0881 22.1804L51.4939 21.5773L51.896 23.7873L53.1008 25.695L54.3056 24.0881L55.7114 22.2802L57.0175 24.791L57.7205 23.1842L59.2276 21.9794L61.235 23.3852L61.4361 22.5825L64.148 25.1932L64.1496 25.0903Z" fill="#ACB8D1"/>
<path opacity="0.5" d="M56.5828 15.5518C56.8509 16.155 56.9179 21.0754 57.2187 22.2802C57.3824 22.9332 59.8325 28.3773 60.1317 29.713C60.3967 30.896 62.3652 38.2167 62.4415 39.1534C62.5413 40.3691 63.4453 47.2891 63.4453 47.2891L74.5938 40.1244L68.4343 31.6878L56.7839 13.7438L55.5791 12.9412C55.5791 12.9412 55.5916 12.977 55.615 13.0394C55.7661 13.4493 56.3506 15.0297 56.5828 15.5518Z" fill="#545C8A"/>
<path d="M4.15723 43.338L12.7279 31.6876L23.3059 14.9485L27.9256 5.9773L30.4037 3.16406L40.9818 17.6277L52.6322 37.5791L59.3278 46.4178L9.78214 57.398L4.15723 43.338Z" fill="#545C8A"/>
<path opacity="0.2" d="M12.2021 32.4L16.3417 29.6117L19.6568 33.0265L28.1885 31.4742L34.4197 34.4324L40.9486 28.3056L43.9598 28.7654L45.4404 25.2632L44.9635 24.4465L43.0574 26.7002L40.5465 26.3979L33.5157 30.8164L27.2892 28.0048L23.7746 28.5066L18.6531 24.8923L16.2685 26.083L12.7274 31.6877L12.2021 32.4Z" fill="#545C8A"/>
<path d="M4.15723 43.338L8.58516 54.4071L25.7732 53.8554L47.718 48.9926L58.1418 44.8514L52.6337 37.5807L49.6444 32.4607L49.6195 32.4249C49.6195 32.4249 52.9003 40.0572 50.6918 40.5591C48.4817 41.061 46.4399 33.7637 45.8711 34.0318C45.3022 34.2998 48.4755 43.4752 45.4627 43.7776C42.45 44.0784 39.2752 32.2908 38.6393 32.3251C38.0034 32.3579 38.5395 38.0498 36.2297 38.4519C33.9199 38.854 33.7188 34.0661 33.1156 34.1331C32.5125 34.2001 32.5468 41.1966 30.5378 41.1966C28.5287 41.1966 29.2317 30.6512 28.6971 30.6185C28.1625 30.5857 24.6791 41.9681 22.3692 41.8668C20.0594 41.767 21.9001 35.6402 21.2985 35.5732C20.6953 35.5062 16.4778 47.8922 13.5321 46.9555C11.7163 46.3773 13.13 41.3649 12.7294 41.1981C12.3273 41.0314 7.97887 47.3545 6.57303 46.1497C5.16719 44.9449 11.7226 33.0608 11.7241 33.0577L4.15723 43.338Z" fill="#717FAA"/>
<path opacity="0.2" d="M8.61037 42.2673L12.7281 42.6678L18.0507 49.2965L29.7011 47.7909L32.7138 49.4975L42.8571 46.2837L50.3897 46.4848L54.2066 43.1697L56.9279 43.2476L52.6325 37.5791L51.9763 36.4553L48.3807 41.5628L39.4422 41.463L33.5165 44.6768L28.9982 43.3707L19.3568 44.7766L13.4311 40.2583L9.41304 40.358L8.07422 38.0139L8.61037 42.2673Z" fill="#545C8A"/>
<path d="M41.6253 18.7296L40.9816 17.6277L30.4035 3.16406L27.9254 5.9773L23.3058 14.9485L19.3828 21.1563L21.6661 19.2174L24.9127 17.1585L25.7169 18.9665L26.9217 18.2293L31.4073 25.059L32.6635 21.2436L34.3748 18.8387L36.563 20.5064L36.9652 17.5607L37.4343 15.2836L41.6253 18.7296Z" fill="#CAD4E8"/>
<path opacity="0.5" d="M32.0108 19.3685C32.2118 20.4736 28.998 28.2072 29.0978 29.412C29.1991 30.6168 26.5433 41.4832 26.085 43.7743C25.7733 45.3314 22.9694 52.0738 23.1424 54.0563L59.328 46.4192L52.6323 37.5805L40.982 17.6276L30.4039 3.16553C30.4039 3.16553 31.71 7.61839 31.911 8.32131C32.1105 9.02267 31.8097 18.2635 32.0108 19.3685Z" fill="#545C8A"/>
<path d="M28.2942 43.2709C28.2942 43.2709 27.4915 41.3632 25.4326 39.002C25.4326 39.002 25.4825 41.7139 25.6835 44.0736L27.7923 44.5754L28.2942 43.2709Z" fill="#35678F"/>
<path d="M27.7913 44.577L28.2932 43.2709C28.2932 43.2709 27.4905 41.3632 25.4316 39.002C25.4316 39.002 26.8546 42.2313 27.7415 44.5645L27.7913 44.577Z" fill="#265173"/>
<path d="M62.7592 44.3666C62.7592 44.3666 62.4225 42.3233 60.9699 39.5491C60.9699 39.5491 60.387 42.1987 60.0332 44.5396L61.9674 45.5184L62.7592 44.3666Z" fill="#35678F"/>
<path d="M61.9672 45.52L62.759 44.3666C62.759 44.3666 62.4223 42.3233 60.9697 39.5491C60.9697 39.5491 61.6025 43.0216 61.9205 45.4966L61.9672 45.52Z" fill="#265173"/>
<path d="M68.362 44.1343C68.362 44.1343 68.5443 41.692 67.7136 38.1665C67.7136 38.1665 66.3701 41.1231 65.3555 43.7696L67.1915 45.3079L68.362 44.1343Z" fill="#35678F"/>
<path d="M67.1911 45.308L68.3616 44.1328C68.3616 44.1328 68.5439 41.6905 67.7132 38.165C67.7132 38.165 67.467 42.3296 67.1475 45.2706L67.1911 45.308Z" fill="#265173"/>
<path d="M1.5 45.6541C1.5 45.6541 1.6285 42.9203 4.29055 43.2211C6.95261 43.5219 6.95261 45.2301 6.95261 45.2301C6.95261 45.2301 8.05764 44.9293 9.01149 45.9829C9.96534 47.0381 8.86031 49.1468 8.86031 49.1468L9.06137 50.0508C9.06137 50.0508 10.5373 49.7516 11.4912 50.3033C12.445 50.855 12.8596 51.9086 12.8596 51.9086C12.8596 51.9086 14.931 50.9049 16.0064 53.3815C18.2165 58.4703 12.6757 58.0853 12.6757 58.0853L1.5 57.2423V45.6541Z" fill="#A3C4E8"/>
<path d="M14.0316 57.6833C14.0316 57.6833 12.9764 55.2223 14.1313 53.9162C15.2862 52.6101 16.0904 52.5602 16.0904 52.5602C16.0904 52.5602 13.3286 49.5974 15.7398 47.2377C18.1493 44.878 20.1583 47.1364 20.1583 47.1364C20.1583 47.1364 20.1583 44.7767 23.0199 43.7215C25.7942 42.6991 27.5896 43.9226 27.5896 43.9226C27.5896 43.9226 27.7907 39.8547 33.8162 39.2016C39.8417 38.5486 42.1016 43.0186 42.1016 43.0186C42.1016 43.0186 43.7085 42.3656 44.8135 43.1698C45.9186 43.974 45.9684 44.878 45.9684 44.878C45.9684 44.878 47.2745 42.4669 50.1859 43.0202C53.0974 43.5735 54.0029 45.9332 54.0029 45.9332L54.5546 50.6027L14.0316 57.6833Z" fill="#B2D0F5"/>
<path d="M53.2164 44.7143C52.6289 44.0472 51.6672 43.3007 50.1881 43.0201C50.1071 43.0045 50.026 42.9921 49.9481 42.9812C49.9294 43.4752 49.6676 44.0909 48.815 44.7439C46.806 46.2838 45.969 44.8779 45.969 44.8779C45.969 44.8779 45.9332 44.2483 45.2786 43.5719C45.634 44.5616 44.7939 45.5513 43.4582 44.945C41.9853 44.2748 42.1022 43.0201 42.1022 43.0201C42.1022 43.0201 40.4143 39.6848 36.0705 39.1985C41.1156 40.2583 42.4545 48.4268 37.7678 50.1008C32.9658 51.8152 30.723 48.4253 30.723 48.4253C31.7127 50.9128 27.7259 52.3093 26.5865 49.7657C27.3892 54.9214 21.7425 54.8918 20.159 51.9757C20.159 51.9757 20.4941 54.3868 18.6861 54.5863C16.8782 54.7874 16.2765 53.4486 16.2765 53.4486L15.5393 53.9177L14.8691 56.9975L19.3329 56.7574L53.3863 50.8068L53.2164 44.7143Z" fill="#99B8E0"/>
<path d="M56.0133 45.6306C56.0133 45.6306 55.4616 43.02 57.6202 42.2656C59.7789 41.5128 61.5369 44.0237 61.5369 44.0237C61.5369 44.0237 61.8377 42.3155 63.5958 42.116C65.3539 41.9149 66.7597 43.7229 66.7597 43.7229C66.7597 43.7229 69.5714 38.55 74.2924 39.203C79.0133 39.8561 79.8658 42.116 79.8658 42.116C79.8658 42.116 83.4303 41.4131 85.1884 44.3261C86.9465 47.239 85.6903 49.1966 85.6903 49.1966C85.6903 49.1966 86.443 47.8407 87.9003 48.3425C89.356 48.8444 89.2563 50.1505 89.2563 50.1505C89.2563 50.1505 89.9093 48.4423 91.4165 49.2465C92.9236 50.0492 91.3666 51.3054 91.3666 51.3054C91.3666 51.3054 92.7724 51.0046 92.8722 52.2094C92.9719 53.4141 79.364 54.6704 79.364 54.6704L58.7253 50.5027L56.0133 45.6306Z" fill="#B2D0F5"/>
<path d="M91.365 51.3056C91.365 51.3056 92.9221 50.0509 91.4149 49.2467C89.9078 48.4425 89.2563 50.1507 89.2563 50.1507C89.2563 50.1507 89.3233 49.281 88.5549 48.6872C88.8308 49.1875 88.3289 50.3003 87.0478 50.3003C85.6419 50.3003 85.6918 49.1953 85.6918 49.1953C86.2841 48.3287 86.4166 46.3571 85.19 44.3247C85.0419 44.08 84.886 43.8665 84.7239 43.6795C86.2716 46.5956 84.1691 50.1663 80.7542 50.3673C77.2755 50.5715 76.1346 48.4253 76.1346 48.4253C76.1346 48.4253 73.4227 51.2261 69.506 49.8312C65.555 48.4253 66.7613 43.7215 66.7613 43.7215C66.7613 43.7215 66.1425 42.9267 65.2136 42.4497C66.5914 43.6623 65.7607 45.0962 63.9481 45.277C62.2773 45.4438 61.6725 44.3605 61.5151 43.9912C61.3094 43.7106 59.6402 41.5582 57.6202 42.2627C55.4616 43.0155 56.0133 45.6277 56.0133 45.6277L58.7253 50.4982L79.364 54.6659C79.364 54.6659 92.9719 53.4097 92.8722 52.2049C92.7709 51.0048 91.365 51.3056 91.365 51.3056Z" fill="#99B8E0"/>
<path d="M2.97651 37.3875C2.25644 37.3922 2.23774 38.5253 2.73805 38.9398C2.90481 39.077 3.39888 39.2157 3.59371 39.1019C4.24831 38.7138 3.66696 37.3797 2.97651 37.3875Z" fill="#C1E0FF"/>
<path d="M18.6698 43.5658C18.0433 43.7076 18.2459 44.6973 18.7602 44.9622C18.9317 45.0495 19.3883 45.076 19.5364 44.9389C20.0305 44.476 19.2699 43.427 18.6698 43.5658Z" fill="#C1E0FF"/>
<path d="M43.3151 41.4911C43.8341 41.5721 44.4902 40.2458 43.8855 39.9855C43.3042 39.7346 42.2833 41.3274 43.3151 41.4911Z" fill="#C1E0FF"/>
<path d="M66.818 41.1904C67.337 41.2714 67.9932 39.945 67.3884 39.6848C66.8071 39.4323 65.7862 41.0267 66.818 41.1904Z" fill="#C1E0FF"/>
<path d="M81.7691 40.9956C82.2071 40.7073 81.7987 39.2828 81.1769 39.4978C80.5784 39.7036 80.8979 41.5692 81.7691 40.9956Z" fill="#C1E0FF"/>
<path d="M30.0676 38.8307C30.5056 39.119 31.6527 38.1823 31.21 37.6945C30.7845 37.2253 29.1963 38.2556 30.0676 38.8307Z" fill="#C1E0FF"/>
<path d="M16.0134 44.0489C16.0446 44.1907 16.3735 44.2608 16.5433 44.0754C16.6306 43.9787 16.7132 43.8182 16.6493 43.6561C16.5823 43.4878 16.3454 43.5034 16.1568 43.6499C16.0228 43.7528 15.9339 43.9055 16.0134 44.0489Z" fill="#C1E0FF"/>
<path d="M35.7253 37.8472C35.6474 37.7553 35.451 37.6852 35.3637 37.7943C35.2764 37.8488 35.2593 38.0436 35.3466 38.1652C35.4074 38.2494 35.5492 38.3226 35.6864 38.2478C35.8282 38.1714 35.811 37.9065 35.7253 37.8472Z" fill="#C1E0FF"/>
<path d="M47.5476 41.8995C47.4696 41.8075 47.2733 41.7374 47.186 41.8465C47.0987 41.9011 47.0816 42.0959 47.1688 42.2174C47.2296 42.3016 47.3715 42.3749 47.5086 42.3C47.6504 42.2237 47.6333 41.9587 47.5476 41.8995Z" fill="#C1E0FF"/>
<path d="M52.9714 40.2926C52.8935 40.2006 52.6971 40.1305 52.6098 40.2396C52.5225 40.2941 52.5054 40.4889 52.5927 40.6105C52.6535 40.6947 52.7953 40.7679 52.9324 40.6931C53.0743 40.6167 53.0556 40.3518 52.9714 40.2926Z" fill="#C1E0FF"/>
<path d="M70.9538 38.232C70.8759 38.1401 70.6795 38.0699 70.5922 38.179C70.505 38.2351 70.4878 38.4284 70.5751 38.55C70.6359 38.6341 70.7777 38.7074 70.9149 38.6326C71.0567 38.5562 71.038 38.2912 70.9538 38.232Z" fill="#C1E0FF"/>
<path d="M78.0456 39.0535C77.9677 38.9616 77.7713 38.8915 77.684 39.0006C77.5967 39.0551 77.5796 39.2499 77.6669 39.3715C77.7277 39.4557 77.8695 39.5289 78.0067 39.4541C78.1485 39.3777 78.1298 39.1128 78.0456 39.0535Z" fill="#C1E0FF"/>
<path d="M86.0798 42.8035C86.0019 42.7116 85.8055 42.6415 85.7182 42.7506C85.6309 42.8051 85.6138 42.9999 85.7011 43.1215C85.7603 43.2057 85.9037 43.2789 86.0408 43.2041C86.1827 43.1277 86.1655 42.8612 86.0798 42.8035Z" fill="#C1E0FF"/>
<path d="M86.0193 38.6685C85.9413 38.5766 85.7449 38.5064 85.6577 38.6155C85.5704 38.6701 85.5532 38.8649 85.6405 38.9865C85.6997 39.0706 85.8431 39.1439 85.9803 39.0691C86.1206 38.9912 86.1034 38.7262 86.0193 38.6685Z" fill="#C1E0FF"/>
<path d="M83.5407 38.7013C83.4628 38.6093 83.2664 38.5392 83.1792 38.6483C83.0919 38.7028 83.0747 38.8976 83.162 39.0192C83.2228 39.1034 83.3646 39.1766 83.5018 39.1018C83.6436 39.0254 83.6249 38.7605 83.5407 38.7013Z" fill="#C1E0FF"/>
<path d="M90.3874 46.619C90.3095 46.527 90.1131 46.4569 90.0258 46.566C89.9386 46.6221 89.9214 46.8154 90.0087 46.9369C90.0695 47.0211 90.2113 47.0943 90.3484 47.0195C90.4887 46.9432 90.4716 46.6766 90.3874 46.619Z" fill="#C1E0FF"/>
<path d="M62.1775 41.0626C62.0995 40.9706 61.9031 40.9005 61.8159 41.0096C61.7286 41.0641 61.7115 41.2574 61.7987 41.3805C61.8595 41.4647 62.0013 41.5379 62.1385 41.4631C62.2803 41.3868 62.2616 41.1218 62.1775 41.0626Z" fill="#C1E0FF"/>
<path d="M65.4587 35.9737C65.3808 35.8818 65.1844 35.8116 65.0971 35.9207C65.0098 35.9753 64.9927 36.1701 65.08 36.2917C65.1408 36.3758 65.2826 36.4491 65.4197 36.3743C65.5616 36.2979 65.5429 36.0329 65.4587 35.9737Z" fill="#C1E0FF"/>
<path d="M32.572 34.2843C32.4941 34.1923 32.2977 34.1222 32.2104 34.2313C32.1231 34.2858 32.106 34.4806 32.1933 34.6022C32.254 34.6864 32.3959 34.7596 32.533 34.6848C32.6733 34.6084 32.6562 34.3435 32.572 34.2843Z" fill="#C1E0FF"/>
<path d="M19.2478 39.6412C19.1698 39.5492 18.9735 39.4791 18.8862 39.5882C18.7989 39.6428 18.7818 39.8376 18.869 39.9591C18.9283 40.0417 19.0717 40.1166 19.2088 40.0417C19.3506 39.9654 19.3319 39.6989 19.2478 39.6412Z" fill="#C1E0FF"/>
<path d="M24.5095 42.2003C24.4316 42.1083 24.2352 42.0382 24.1479 42.1473C24.0606 42.2018 24.0435 42.3967 24.1308 42.5182C24.1915 42.6024 24.3334 42.6756 24.4705 42.6008C24.6124 42.5229 24.5952 42.2579 24.5095 42.2003Z" fill="#C1E0FF"/>
<path d="M46.0691 37.6461C45.9911 37.5541 45.7948 37.484 45.7075 37.5931C45.6202 37.6476 45.603 37.8425 45.6903 37.964C45.7511 38.0482 45.8929 38.1214 46.0301 38.0466C46.1719 37.9703 46.1548 37.7053 46.0691 37.6461Z" fill="#C1E0FF"/>
<path d="M58.7907 39.253C58.7128 39.1611 58.5164 39.0909 58.4292 39.2C58.3419 39.2546 58.3247 39.4494 58.412 39.571C58.4728 39.6536 58.6146 39.7284 58.7518 39.6536C58.8936 39.5772 58.8765 39.3122 58.7907 39.253Z" fill="#C1E0FF"/>
<path d="M77.07 36.9105C76.9921 36.8185 76.7957 36.7484 76.7084 36.8575C76.6212 36.912 76.604 37.1069 76.6913 37.2284C76.7521 37.3126 76.8939 37.3858 77.0311 37.311C77.1729 37.2347 77.1558 36.9681 77.07 36.9105Z" fill="#C1E0FF"/>
<path d="M41.945 34.8204C41.8671 34.7284 41.6707 34.6583 41.5834 34.7674C41.4962 34.822 41.479 35.0168 41.5663 35.1383C41.6271 35.2225 41.7689 35.2958 41.9061 35.2209C42.0479 35.1446 42.0292 34.8781 41.945 34.8204Z" fill="#C1E0FF"/>
<path d="M34.0855 36.9198C34.0294 37.1847 33.819 37.3655 33.6148 37.3234C33.4106 37.2814 33.2906 37.0304 33.3452 36.7655C33.4013 36.5005 33.6117 36.3197 33.8159 36.3618C34.0216 36.4054 34.1416 36.6548 34.0855 36.9198Z" fill="#C1E0FF"/>
<path d="M20.9966 42.1427C20.9405 42.4076 20.7301 42.5884 20.526 42.5463C20.3218 42.5043 20.2018 42.2533 20.2563 41.9884C20.3124 41.7234 20.5228 41.5426 20.727 41.5847C20.9312 41.6268 21.0527 41.8777 20.9966 42.1427Z" fill="#C1E0FF"/>
<path d="M40.521 39.0317C40.521 39.3029 40.3526 39.5227 40.1438 39.5227C39.9349 39.5227 39.7666 39.3029 39.7666 39.0317C39.7666 38.7605 39.9349 38.5408 40.1438 38.5408C40.3526 38.5408 40.521 38.7605 40.521 39.0317Z" fill="#C1E0FF"/>
<path d="M47.9459 40.1336C47.8897 40.3986 47.6793 40.5794 47.4752 40.5373C47.271 40.4952 47.151 40.2443 47.2055 39.9793C47.2616 39.7144 47.472 39.5336 47.6762 39.5757C47.8804 39.6193 48.002 39.8687 47.9459 40.1336Z" fill="#C1E0FF"/>
<path d="M56.4032 40.7805C56.3159 41.0377 56.0853 41.192 55.8873 41.125C55.6894 41.058 55.6006 40.7946 55.6878 40.5374C55.7751 40.2802 56.0058 40.1259 56.2037 40.1945C56.4017 40.2615 56.4921 40.5249 56.4032 40.7805Z" fill="#C1E0FF"/>
<path d="M42.0562 38.4395C42.0156 38.6343 41.8613 38.7668 41.7117 38.7356C41.5621 38.7045 41.4733 38.5205 41.5153 38.3273C41.5559 38.1325 41.7102 38 41.8598 38.0312C42.0079 38.0623 42.0967 38.2447 42.0562 38.4395Z" fill="#C1E0FF"/>
<path d="M64.6199 38.804C64.782 39.0222 64.7773 39.2997 64.6106 39.4244C64.4438 39.549 64.1757 39.4727 64.0152 39.2545C63.8531 39.0363 63.8578 38.7589 64.0245 38.6357C64.1913 38.511 64.4578 38.5858 64.6199 38.804Z" fill="#C1E0FF"/>
<path d="M83.9694 40.5652C84.2126 40.4468 84.4853 40.5013 84.5773 40.6884C84.6692 40.8754 84.5461 41.1248 84.3014 41.2432C84.0583 41.3617 83.7855 41.3071 83.6936 41.1201C83.6016 40.9331 83.7247 40.6837 83.9694 40.5652Z" fill="#C1E0FF"/>
<path d="M87.3097 46.5643C87.5014 46.276 87.8365 46.1607 88.0578 46.3087C88.2791 46.4568 88.3041 46.809 88.1124 47.0989C87.9207 47.3873 87.5856 47.5026 87.3643 47.3545C87.1429 47.2065 87.118 46.8527 87.3097 46.5643Z" fill="#C1E0FF"/>
<path d="M31.2212 40.506C30.3234 40.838 28.171 42.5571 29.767 43.5484C31.0435 44.3417 35.0709 42.6055 34.7514 41.0562C34.6298 40.4624 33.4344 39.6909 31.2212 40.506Z" fill="#C1E0FF"/>
<path d="M42.8324 45.9019C41.8848 46.2962 39.6685 48.4096 41.4468 49.7033C42.8698 50.7382 47.106 48.6559 46.6696 46.6921C46.5044 45.9377 45.1671 44.9293 42.8324 45.9019Z" fill="#B2D0F5"/>
<path d="M22.7295 44.6036C22.0968 44.8499 20.5958 46.1809 21.7523 47.0007C22.6766 47.6569 25.5132 46.3508 25.256 45.1102C25.1563 44.6332 24.2897 43.9942 22.7295 44.6036Z" fill="#C1E0FF"/>
<path d="M71.5419 39.8889C70.6675 40.1538 68.5182 41.6984 69.9833 42.78C71.1553 43.6466 75.0923 42.2127 74.8772 40.6697C74.7946 40.0774 73.6974 39.2374 71.5419 39.8889Z" fill="#C1E0FF"/>
<path d="M79.7892 42.5837C79.0286 42.7957 77.1459 44.0893 78.3896 45.0509C79.3855 45.8193 82.8113 44.6551 82.6539 43.3194C82.5947 42.8066 81.6626 42.0616 79.7892 42.5837Z" fill="#C1E0FF"/>
<path d="M72.0578 45.849C71.2972 46.061 69.4144 47.3546 70.6582 48.3162C71.6541 49.0846 75.0799 47.9204 74.9224 46.5847C74.8617 46.0719 73.9296 45.3253 72.0578 45.849Z" fill="#C1E0FF"/>
<path d="M20.8238 48.4346C20.5666 48.6948 20.1302 49.697 20.8955 49.8778C21.5064 50.0227 22.6115 48.7525 22.1953 48.1649C22.0363 47.9405 21.4565 47.7924 20.8238 48.4346Z" fill="#C1E0FF"/>
<path d="M27.3853 47.5633C27.1281 47.8236 26.6917 48.8257 27.457 49.0065C28.0679 49.1515 29.173 47.8812 28.7568 47.2936C28.5979 47.0708 28.0181 46.9227 27.3853 47.5633Z" fill="#C1E0FF"/>
<path d="M62.7276 42.537C62.3972 42.6944 61.6475 43.4893 62.3037 43.9195C62.8289 44.2639 64.3002 43.4441 64.1085 42.7505C64.0353 42.484 63.5412 42.1489 62.7276 42.537Z" fill="#C1E0FF"/>
<path d="M68.0008 43.2399C67.6703 43.3973 66.9191 44.1922 67.5768 44.6223C68.1021 44.9668 69.5734 44.147 69.3817 43.4534C69.3084 43.1869 68.8143 42.8518 68.0008 43.2399Z" fill="#C1E0FF"/>
<path d="M77.5818 45.8895C77.2685 46.0797 76.603 46.9462 77.2997 47.3078C77.8577 47.5977 79.2386 46.6345 78.9783 45.9628C78.8785 45.7056 78.3517 45.4204 77.5818 45.8895Z" fill="#C1E0FF"/>
<path d="M86.7928 48.5016C86.5917 48.5858 86.1195 49.0362 86.4982 49.3136C86.8006 49.535 87.7046 49.0923 87.611 48.6731C87.5736 48.511 87.29 48.2959 86.7928 48.5016Z" fill="#C1E0FF"/>
<path d="M46.8607 51.6094C46.8607 51.6094 46.2014 49.6472 44.3249 47.1394C44.3249 47.1394 44.1722 49.8467 44.1971 52.2157L46.2622 52.8734L46.8607 51.6094Z" fill="#396F91"/>
<path d="M46.2625 52.8734L46.861 51.6094C46.861 51.6094 46.2017 49.6472 44.3252 47.1394C44.3252 47.1394 45.5035 50.467 46.2126 52.8578L46.2625 52.8734Z" fill="#295875"/>
<path d="M65.0937 52.9356C65.0937 52.9356 65.4881 51.3895 65.354 49.033C65.354 49.033 63.705 51.4067 62.7559 52.9902L63.9388 53.6354L65.0937 52.9356Z" fill="#35678F"/>
<path d="M63.9374 53.637L65.0939 52.9356C65.0939 52.9356 65.4882 51.3895 65.3542 49.033C65.3542 49.033 64.4518 51.7574 63.9141 53.6074L63.9374 53.637Z" fill="#265173"/>
<path d="M54.675 46.5783L54.636 51.4863L47.5694 51.4068L47.373 45.9892L50.9999 42.1785L54.675 46.5783Z" fill="#FFC174"/>
<path d="M51.0004 42.1785L47.3721 45.9892L47.4687 48.6559C49.9141 49.5272 53.0734 48.0917 53.9041 45.5045L51.0004 42.1785Z" fill="#FFDD92"/>
<g opacity="0.3">
<path d="M54.6462 50.386L47.5312 50.3689L47.539 50.5528L54.6446 50.5715L54.6462 50.386Z" fill="#9B4578"/>
<path d="M54.6691 47.1301L47.4248 47.1675L47.431 47.353L54.6675 47.3156L54.6691 47.1301Z" fill="#9B4578"/>
<path d="M54.6595 48.7838L47.4697 48.6482L47.4744 48.7698L54.6579 48.9054L54.6595 48.7838Z" fill="#9B4578"/>
<path d="M54.4377 46.2916L47.3789 46.156L47.382 46.2293L54.4985 46.3649L54.4377 46.2916Z" fill="#9B4578"/>
<path d="M53.6486 45.3472L47.938 45.3955L47.8242 45.5155L53.7499 45.4703L53.6486 45.3472Z" fill="#9B4578"/>
<path d="M52.5685 44.055L49.255 44.0129L49.1396 44.1329L52.6714 44.1782L52.5685 44.055Z" fill="#9B4578"/>
</g>
<path d="M54.1018 47.0897C54.1626 47.1879 54.0925 49.1563 54.0925 49.1563L52.7334 49.133C52.7334 49.133 52.749 47.0928 52.8191 47.0242C52.8893 46.9556 54.041 46.9915 54.1018 47.0897Z" fill="#FFE8C2"/>
<path d="M53.9433 47.3124L53.9386 49.058L52.9131 49.0362L52.9754 47.2578L53.9433 47.3124Z" fill="#31435A"/>
<path opacity="0.4" d="M54.3061 49.284C54.3061 49.284 53.9383 49.4944 53.2603 49.4679C52.5823 49.4414 52.4717 49.2263 52.4717 49.2263L54.3061 49.284Z" fill="#9B4578"/>
<path d="M52.9755 47.2578L53.9434 47.3124L53.9403 48.1743L52.9443 48.154L52.9755 47.2578Z" fill="#4B617D"/>
<path d="M54.3061 49.2842C54.3092 49.1673 54.2173 49.0691 54.1004 49.0645L52.6914 49.0208C52.5745 49.0177 52.4764 49.1097 52.4717 49.2266L54.3061 49.2842Z" fill="#F8FBFF"/>
<path d="M51.7128 44.9745C51.783 45.0213 51.7362 46.0234 51.7362 46.0234L50.1979 46.011C50.1979 46.011 50.1807 44.9745 50.2587 44.9418C50.3382 44.909 51.6427 44.9277 51.7128 44.9745Z" fill="#FFE8C2"/>
<path d="M51.5591 45.1366L51.5825 45.9751L50.3809 45.9642L50.4229 45.1101L51.5591 45.1366Z" fill="#31435A"/>
<path opacity="0.4" d="M51.9862 46.1497C51.9862 46.1497 51.5748 46.3601 50.8158 46.3336C50.0567 46.3071 49.9336 46.092 49.9336 46.092L51.9862 46.1497Z" fill="#9B4578"/>
<path d="M50.4212 45.1101L51.5574 45.1366L51.5699 45.5512L50.3994 45.5403L50.4212 45.1101Z" fill="#4B617D"/>
<path d="M51.9868 46.1497C51.9915 46.0328 51.8871 45.9346 51.7562 45.9299L50.1789 45.8863C50.048 45.8832 49.9373 45.9751 49.9326 46.092L51.9868 46.1497Z" fill="#F8FBFF"/>
<path d="M49.2498 47.085C49.2997 47.1582 49.1906 49.0519 49.1906 49.0519L48.003 49.027C48.003 49.027 47.8783 47.2268 47.9609 47.1457C48.0435 47.0663 49.2015 47.0101 49.2498 47.085Z" fill="#FFE8C2"/>
<path d="M49.0861 47.2798L49.0424 49.0005L48.1571 48.9818L48.126 47.3094L49.0861 47.2798Z" fill="#31435A"/>
<path d="M49.0627 48.2071L48.1431 48.1884L48.126 47.3094L49.0861 47.2798L49.0627 48.2071Z" fill="#4B617D"/>
<path d="M49.4988 49.1782C49.4988 49.0582 49.4006 48.96 49.2806 48.96H47.8373C47.7173 48.96 47.6191 49.0582 47.6191 49.1782H49.4988Z" fill="#F8FBFF"/>
<path opacity="0.4" d="M49.4982 49.1782H47.6201C47.6201 49.1782 47.857 49.3528 48.5038 49.3637C49.1506 49.3746 49.4982 49.1782 49.4982 49.1782Z" fill="#9B4578"/>
<path opacity="0.4" d="M47.373 45.9892L47.4136 47.1316L50.9671 43.1775L54.6641 48.0325L54.675 46.5783L50.9999 42.1785L47.373 45.9892Z" fill="#9B4578"/>
<path d="M54.6757 46.5784L62.5979 46.9322L62.4888 51.4458L54.6367 51.4863L54.6757 46.5784Z" fill="#DB8352"/>
<path d="M59.6033 42.2984L63.4109 46.8136L54.5971 46.3024L50.9766 41.3555L59.6033 42.2984Z" fill="#DDE5F2"/>
<g opacity="0.3">
<path d="M54.6471 50.5715L62.5085 50.6135L62.5132 50.4281L54.6455 50.386L54.6471 50.5715Z" fill="#9B4578"/>
<path d="M62.5896 47.2236L54.6705 47.1316L54.6689 47.3171L62.585 47.409L62.5896 47.2236Z" fill="#9B4578"/>
<path d="M62.5536 48.7151L54.6578 48.7837L54.6562 48.9052L62.5504 48.8367L62.5536 48.7151Z" fill="#9B4578"/>
</g>
<path d="M54.7533 46.1856C54.479 45.9892 51.3774 41.3571 51.0236 41.3508C50.6698 41.3446 47.2549 45.5185 46.8622 45.9985C46.5707 46.3539 46.5801 46.5082 46.658 46.65C46.7313 46.7825 46.9463 46.8277 47.1661 46.6282C48.1652 45.7195 50.8085 42.3748 50.9566 42.3499C51.1249 42.3203 54.175 46.7622 54.6068 46.9835C55.0385 47.2049 62.928 47.4418 63.3909 47.3155C63.7354 47.222 63.726 46.7342 63.2974 46.6578C62.7223 46.5534 55.0291 46.3819 54.7533 46.1856Z" fill="#F8FBFF"/>
<path opacity="0.5" d="M52.2774 47.4963L52.1558 51.4582L49.7197 51.424V47.4963H52.2774Z" fill="#9B4578"/>
<path d="M52.0747 47.4963L51.9625 51.4567L49.7197 51.424V47.4963H52.0747Z" fill="#634840"/>
<path d="M51.583 49.4851C51.583 49.3853 51.6656 49.2965 51.7482 49.3059C51.8324 49.3152 51.8978 49.4196 51.8838 49.5178C51.876 49.6191 51.7887 49.6597 51.7326 49.6581C51.6469 49.6581 51.583 49.5848 51.583 49.4851Z" fill="#543B35"/>
<path d="M51.5938 49.4477C51.5938 49.3698 51.6701 49.2997 51.748 49.3075C51.826 49.3153 51.8883 49.3979 51.8759 49.4742C51.8681 49.5537 51.787 49.5865 51.734 49.5849C51.653 49.5833 51.5938 49.5257 51.5938 49.4477Z" fill="#FFC387"/>
<path d="M51.7568 47.7893L51.7194 49.1063L49.9707 49.097L49.9801 47.8283L51.7568 47.7893Z" fill="#755750"/>
<path d="M51.719 49.7689L49.9609 49.7393V50.9737L51.6738 50.9846L51.719 49.7689Z" fill="#755750"/>
<path d="M58.1351 48.1836C58.0696 48.0729 56.748 48.048 56.6264 48.1664C56.5048 48.2849 56.5344 50.5651 56.5344 50.5651L58.0992 50.3874C58.0992 50.3874 58.199 48.2942 58.1351 48.1836Z" fill="#FFC174"/>
<path d="M57.9015 48.4969C57.8579 48.422 56.9726 48.4065 56.8916 48.4844C56.8105 48.5639 56.8277 50.3749 56.8277 50.3749L57.875 50.2549C57.875 50.2549 57.9452 48.5717 57.9015 48.4969Z" fill="#31435A"/>
<path d="M56.8291 49.4648C56.8353 49.0003 56.8509 48.525 56.8914 48.486C56.9725 48.4065 57.8578 48.4237 57.9014 48.4985C57.9248 48.5374 57.9154 49.0315 57.9014 49.4866L56.8291 49.4648Z" fill="#4B617D"/>
<path d="M61.2058 48.2537C61.1435 48.1399 59.8841 48.0573 59.7672 48.1696C59.6519 48.2818 59.6784 50.5666 59.6784 50.5666L61.17 50.456C61.17 50.456 61.2682 48.3675 61.2058 48.2537Z" fill="#FFC174"/>
<path d="M60.9829 48.5576C60.9408 48.4812 60.0976 48.4251 60.0197 48.5015C59.9417 48.5778 59.9573 50.3905 59.9573 50.3905L60.9564 50.3172C60.9564 50.3172 61.025 48.6339 60.9829 48.5576Z" fill="#31435A"/>
<path d="M59.96 49.4772C59.9662 49.0128 59.9818 48.5374 60.0207 48.5C60.0987 48.4236 60.9419 48.4797 60.9839 48.5561C61.0058 48.5966 60.9964 49.0907 60.9839 49.5442L59.96 49.4772Z" fill="#4B617D"/>
<g opacity="0.5">
<path d="M53.6571 42.5573C53.6571 42.5573 53.6525 42.5573 53.6493 42.5573L52.8934 42.4872C52.8498 42.4841 52.8171 42.4435 52.8217 42.3999C52.8249 42.3578 52.8607 42.3267 52.9012 42.3267C52.9012 42.3267 52.9059 42.3267 52.909 42.3267L53.6649 42.3968C53.7086 42.3999 53.7413 42.4404 53.7366 42.4841C53.7335 42.5262 53.6976 42.5573 53.6571 42.5573Z" fill="#B8C6D8"/>
<path d="M58.5105 43.0139C58.5074 43.0139 58.5059 43.0139 58.5027 43.0139L55.995 42.7786C55.9513 42.7755 55.9186 42.735 55.9233 42.6913C55.928 42.6477 55.9685 42.6227 56.0106 42.6196L58.5183 42.855C58.562 42.8581 58.5947 42.8986 58.59 42.9423C58.5853 42.9828 58.5511 43.0139 58.5105 43.0139Z" fill="#B8C6D8"/>
<path d="M56.8096 43.6779C56.8065 43.6779 56.8033 43.6779 56.8033 43.6779L54.3938 43.4706C54.3501 43.4675 54.3174 43.4285 54.3205 43.3833C54.3252 43.3381 54.3642 43.3007 54.4078 43.31L56.8174 43.5173C56.861 43.5205 56.8937 43.5594 56.8906 43.6046C56.8859 43.6467 56.8501 43.6779 56.8096 43.6779Z" fill="#B8C6D8"/>
<path d="M57.5337 43.7449C57.5306 43.7449 57.5275 43.7449 57.5275 43.7449L57.1799 43.7138C57.1363 43.7106 57.1035 43.6717 57.1067 43.6265C57.1098 43.5813 57.1534 43.547 57.1939 43.5532L57.5415 43.5844C57.5851 43.5875 57.6179 43.6265 57.6147 43.6717C57.6085 43.7122 57.5742 43.7449 57.5337 43.7449Z" fill="#B8C6D8"/>
<path d="M55.829 44.6396C55.8259 44.6396 55.8228 44.6396 55.8196 44.6396L55.3645 44.5835C55.3209 44.5788 55.2897 44.5383 55.2944 44.4931C55.2991 44.4495 55.3318 44.4152 55.3848 44.423L55.8399 44.4791C55.8836 44.4838 55.9147 44.5243 55.91 44.5695C55.9038 44.61 55.8695 44.6396 55.829 44.6396Z" fill="#B8C6D8"/>
<path d="M60.577 45.1212H60.5708L58.8143 45.0074C58.7706 45.0043 58.7363 44.9669 58.7395 44.9217C58.7426 44.878 58.7722 44.8406 58.8252 44.8469L60.5817 44.9607C60.6253 44.9622 60.6596 45.0012 60.6565 45.0464C60.655 45.0885 60.6191 45.1212 60.577 45.1212Z" fill="#B8C6D8"/>
<path d="M60.0684 45.9722H60.0637L57.4422 45.8288C57.3986 45.8273 57.3643 45.7883 57.3674 45.7447C57.3689 45.701 57.4157 45.6636 57.4515 45.6699L60.0731 45.8133C60.1167 45.8148 60.151 45.8538 60.1479 45.8974C60.1448 45.9395 60.1105 45.9722 60.0684 45.9722Z" fill="#B8C6D8"/>
</g>
<path d="M47.0967 46.7856C47.0967 46.7856 48.3529 46.9368 48.7706 47.8907C50.538 47.6881 52.1917 49.1453 52.3803 50.6603C52.3803 50.6603 53.1128 49.2763 55.6938 49.1048C58.2748 48.9318 59.0074 49.5147 59.0074 49.5147C59.757 48.3427 61.0647 47.1379 64.0992 46.887V52.7784H47.1154L47.0967 46.7856Z" fill="#99B8E0"/>
<path d="M47.9776 48.1837C47.3978 48.2928 45.9202 49.0954 46.7946 49.8248C47.4944 50.4077 50.1159 49.7734 50.0739 48.8383C50.0567 48.4782 49.4052 47.914 47.9776 48.1837Z" fill="#B2D0F5"/>
<path d="M61.4751 47.7225C60.9125 47.8939 59.5394 48.8525 60.4932 49.4821C61.2569 49.9855 63.7865 49.0675 63.6338 48.1433C63.5761 47.7879 62.8607 47.3001 61.4751 47.7225Z" fill="#B2D0F5"/>
<path d="M55.107 49.4134C54.588 49.4975 53.2569 50.0867 54.0316 50.6026C54.6519 51.0156 57.0022 50.5355 56.9742 49.8638C56.9648 49.6066 56.3866 49.2076 55.107 49.4134Z" fill="#B2D0F5"/>
<path d="M92.8729 58.6532H1.50098V50.4176C1.50098 50.4176 7.94708 50.8197 15.7948 53.2293C23.6426 55.6389 30.3692 55.8399 42.422 52.8272C54.4736 49.8144 58.0479 48.4086 66.6666 48.2076C75.2853 48.0065 85.8657 50.8182 85.8657 50.8182C85.8657 50.8182 89.4389 49.6134 92.8729 49.311V58.6532Z" fill="#C1E0FF"/>
<path d="M92.8719 49.3125C89.439 49.6133 85.8647 50.8196 85.8647 50.8196C85.8647 50.8196 75.2844 48.008 66.6656 48.209C58.0469 48.4101 54.4737 49.8159 42.421 52.8287C30.3693 55.8414 23.6427 55.6403 15.7939 53.2308C7.9461 50.8196 1.5 50.4191 1.5 50.4191V53.5331C8.85734 53.131 17.1488 55.7089 27.5193 56.111C37.8898 56.5131 57.0432 51.2779 66.1981 51.0223C75.8204 50.7542 90.9559 53.8339 90.9559 53.8339C90.9559 53.8339 88.9127 52.1772 86.9859 51.3729C86.9859 51.3729 89.8588 50.67 92.8719 51.1719V49.3125Z" fill="#D6EEFF"/>
<path d="M41.4414 58.6531H79.6526C79.6526 58.6531 71.8201 53.8138 59.3791 54.4341C47.3275 55.0372 41.4414 58.6531 41.4414 58.6531Z" fill="#D6EEFF"/>
<path d="M3.22027 55.1838C2.62872 55.2134 2.05566 55.2523 1.5 55.2975V58.6532H19.8944C19.8944 58.6532 13.4527 54.6726 3.22027 55.1838Z" fill="#D6EEFF"/>
<path d="M1.50098 58.6531V57.2472C1.50098 57.2472 11.2408 57.8504 18.9483 58.1512C26.6558 58.452 40.0395 57.7491 46.2061 57.3485C52.3728 56.9464 70.8009 58.0515 77.9484 57.8504C85.0958 57.6493 90.771 56.8467 92.8729 56.7454V58.6531H1.50098Z" fill="#99B8E0"/>
<path d="M25.5007 56.0655C25.5007 56.2307 24.2617 56.3663 22.7343 56.3663C21.2068 56.3663 19.9678 56.2322 19.9678 56.0655C19.9678 55.8987 21.2068 55.7646 22.7343 55.7646C24.2617 55.7662 25.5007 55.9002 25.5007 56.0655Z" fill="#85A3D6"/>
<path d="M21.7901 55.0024C21.7901 55.0024 21.762 56.201 21.9989 56.1885C22.2358 56.176 22.239 55.0445 22.239 55.0445L21.7901 55.0024Z" fill="#214C66"/>
<path d="M22.1795 48.2739C22.1795 48.2739 20.3482 51.2882 19.7793 55.0756C19.7793 55.0756 22.0829 55.8097 24.0841 55.1145C24.0841 55.1145 22.5879 50.8253 22.1795 48.2739Z" fill="#396F91"/>
<path d="M21.9234 55.4091C22.603 55.4294 23.3636 55.3655 24.0867 55.1145C24.0867 55.1145 22.5889 50.8253 22.1806 48.2739C22.1806 48.2739 21.6195 52.6956 21.9234 55.4091Z" fill="#214C66"/>
<g opacity="0.3">
<path d="M23.557 53.5187C23.4993 53.3394 23.4401 53.1509 23.3793 52.9529C22.0342 53.5046 20.8419 53.2038 20.2574 52.8875C20.206 53.0714 20.1561 53.2584 20.1094 53.4501C20.7936 53.8086 21.9392 54.1577 23.557 53.5187Z" fill="#295875"/>
<path d="M22.9693 51.5844C22.9256 51.4333 22.8835 51.2805 22.8399 51.1278C22.0809 51.3927 21.4294 51.3771 20.848 51.106C20.795 51.2462 20.7421 51.3912 20.6875 51.5392C21.1114 51.8525 22.1292 51.9959 22.9693 51.5844Z" fill="#295875"/>
</g>
<path d="M79.2685 13.0004C78.7235 13.0004 78.3163 12.9267 78.047 12.7792C77.7841 12.6317 77.6527 12.4105 77.6527 12.1156C77.6527 11.9296 77.7264 11.7757 77.8739 11.6539C78.0278 11.5321 78.2137 11.4711 78.4317 11.4711C78.6241 11.4711 78.8133 11.5417 78.9992 11.6827C79.1852 11.8238 79.3391 12.0162 79.4609 12.2598C79.8456 12.2598 80.1983 12.1861 80.5189 12.0386C80.8395 11.8911 81.0928 11.6892 81.2787 11.4327C81.4647 11.1762 81.5577 10.8941 81.5577 10.5863C81.5577 10.3105 81.4807 10.0509 81.3268 9.80719C81.1793 9.55711 80.9998 9.40002 80.7882 9.33589C80.365 9.61803 80.0059 9.7591 79.711 9.7591C79.5378 9.7591 79.3903 9.7078 79.2685 9.6052C79.1531 9.4962 79.0954 9.36475 79.0954 9.21086C79.0954 8.98643 79.1916 8.80689 79.3839 8.67223C79.5827 8.53758 79.8424 8.47025 80.163 8.47025C80.6632 8.47025 81.112 8.56002 81.5096 8.73956C81.9071 8.91269 82.2181 9.15315 82.4425 9.46093C82.667 9.76871 82.7792 10.1182 82.7792 10.5093C82.7792 10.9838 82.6285 11.4102 82.3271 11.7885C82.0258 12.1669 81.6058 12.4618 81.0671 12.6734C80.5349 12.8914 79.9354 13.0004 79.2685 13.0004ZM80.1823 8.76842C80.6375 8.6017 81.003 8.34842 81.2787 8.00858C81.5545 7.66873 81.6923 7.30003 81.6923 6.90248C81.6923 6.48569 81.5993 6.1747 81.4134 5.96951C81.2274 5.76432 80.9453 5.66172 80.567 5.66172C80.3105 5.66172 80.0732 5.73226 79.8552 5.87332C79.6436 6.00798 79.4673 6.19714 79.3262 6.4408C79.1916 6.67805 79.1146 6.94416 79.0954 7.23912C78.8646 7.20705 78.6818 7.1237 78.5471 6.98904C78.4189 6.85439 78.3548 6.67805 78.3548 6.46004C78.3548 6.1266 78.4574 5.83164 78.6626 5.57516C78.8678 5.31867 79.1595 5.11989 79.5378 4.97883C79.9161 4.83776 80.3522 4.76722 80.8459 4.76722C81.2435 4.76722 81.5993 4.84417 81.9135 4.99806C82.2277 5.15195 82.4714 5.36676 82.6445 5.64249C82.8241 5.91821 82.9138 6.2292 82.9138 6.57546C82.9138 7.03072 82.7599 7.47637 82.4522 7.91239C82.1508 8.34201 81.7148 8.73636 81.1441 9.09544L80.1823 8.76842ZM86.0312 11.7405C85.8068 11.7405 85.6369 11.6571 85.5214 11.4904C85.406 11.3173 85.3483 11.0672 85.3483 10.7402C85.3483 10.2079 85.3996 9.6052 85.5022 8.93193C85.6048 8.25224 85.7715 7.41224 86.0023 6.41195C85.6753 6.41195 85.406 6.34782 85.1944 6.21958C84.9892 6.09134 84.8642 5.9118 84.8193 5.68096C85.1271 5.59119 85.39 5.49821 85.608 5.40203C85.8324 5.30585 86.0761 5.18722 86.339 5.04615C86.5249 4.94356 86.6724 4.87303 86.7814 4.83455C86.8904 4.78967 86.9962 4.76722 87.0988 4.76722C87.3553 4.76722 87.4836 4.9147 87.4836 5.20966C87.4836 5.30585 87.4579 5.48218 87.4066 5.73867C87.3553 5.98874 87.2944 6.26126 87.2239 6.55622C87.0251 7.40904 86.8648 8.15926 86.743 8.80689C86.6275 9.45452 86.5698 10.0637 86.5698 10.6344C86.5698 10.9806 86.6243 11.282 86.7333 11.5385C86.4833 11.6731 86.2492 11.7405 86.0312 11.7405Z" fill="black"/>
</svg>
