<svg width="95" height="61" viewBox="0 0 95 61" fill="none" xmlns="http://www.w3.org/2000/svg">
<path d="M93.623 0.75V59.96H0.75V0.75H93.623Z" fill="#BBE4F1" stroke="black" stroke-width="1.5"/>
<path d="M1.5 37.115V59.1946H92.8438V55.1946L13.3155 42.5683C9.25441 41.6439 3.31776 41.5458 1.5 37.115Z" fill="url(#paint0_linear_126_739)"/>
<path d="M8.10581 32.9475L9.00123 46.5891L14.8936 51.6893L16.4286 53.0179C16.4286 53.0179 18.3761 54.458 22.6387 56.0673C25.3868 57.1071 29.0963 58.2129 33.8663 59.0506C47.8435 59.6945 81.8437 58.6945 88.8436 59.1945C95.8435 59.6945 92.8435 56.1945 85.3435 54.1945C77.8435 52.1945 53.8624 51.2972 54.3328 39.8467C54.4401 37.1646 55.4222 35.3161 56.887 34.1359C58.7727 32.6133 61.4713 32.2048 64.1493 32.5638C67.8383 33.0507 71.4941 34.9942 72.9796 37.4782C76.2972 43.0364 71.849 46.4076 71.6427 46.5603L76.0083 45.4338L78.6409 38.4273L68.8946 25.3098L61.8386 18.8314L44.3471 15.5098L24.12 20.5686L20.2248 27.5751L11.3202 28.4705L8.10581 32.9475Z" fill="url(#paint1_linear_126_739)"/>
<path opacity="0.37" d="M8.10645 32.9475L9.00186 46.5891L14.8942 51.6893C11.8985 45.7804 13.516 41.0269 14.7457 37.3998C16.4045 32.4978 17.5103 40.3997 18.381 36.8469C19.2475 33.29 22.2514 31.4745 21.8553 35.0272C21.4633 38.5841 23.7534 36.5292 25.6515 32.7371C27.5455 28.945 29.9965 28.7841 29.2827 32.5803C28.573 36.3724 30.7847 37.3214 33.5493 31.7881C36.318 26.2588 35.369 35.8195 37.8159 30.5254C40.2669 25.2313 47.8511 20.3334 47.0629 24.4391C46.2707 28.5489 49.906 27.9176 50.9334 25.8627C51.9609 23.8078 53.3845 22.8587 53.2235 25.0704C53.0667 27.2862 53.1451 28.1528 54.6471 26.5724C56.1491 24.992 58.4392 23.8078 58.1256 26.8117C57.8079 29.8116 58.8353 30.447 61.3647 27.7608C63.7621 25.2107 66.3658 28.2683 64.15 32.5638C67.8389 33.0507 71.4948 34.9942 72.9803 37.4782C76.2979 43.0364 71.8497 46.4076 71.6434 46.5603L76.009 45.4338L78.6416 38.4273L68.8953 25.3098L61.8393 18.8314L44.3478 15.5098L24.1207 20.5686L20.2254 27.5751L11.3209 28.4705L8.10645 32.9475Z" fill="#86FFFF"/>
<path opacity="0.37" d="M8.10645 32.9475L9.00186 46.5891L14.8942 51.6892L16.4292 53.0179C16.4292 53.0179 18.3768 54.458 22.6393 56.0673C13.0168 46.9399 25.0285 51.5324 22.173 48.3799C19.0907 44.984 21.6201 39.6899 25.177 43.3252C28.7298 46.9605 29.4436 45.1408 30.6279 40.7958C31.8121 36.4508 33.4709 43.7997 35.9219 38.3489C38.3688 32.8939 39.0827 40.4822 39.5572 37.5566C40.0317 34.6352 44.1374 31.2351 44.1374 35.2665C44.1374 39.2938 47.8511 38.1096 49.6708 34.2391C51.4203 30.513 55.9593 29.3453 56.8877 34.1359C58.7734 32.6133 61.472 32.2048 64.15 32.5638C67.8389 33.0507 71.4948 34.9942 72.9803 37.4782C76.2979 43.0364 71.8497 46.4076 71.6434 46.5602L76.009 45.4338L78.6416 38.4273L68.8953 25.3098L61.8393 18.8314L44.3478 15.5098L24.1207 20.5686L20.2254 27.5751L11.3209 28.4705L8.10645 32.9475Z" fill="#86FFFF"/>
<path d="M7.31813 31.5529C9.13371 31.9449 6.922 22.3842 10.5573 22.3842C14.1926 22.3842 13.8748 26.3372 17.3533 26.9686C20.8277 27.5999 22.1976 13.2651 28.7296 14.8785C31.2837 15.5098 27.8094 17.7751 30.5493 18.2497C33.2891 18.7242 32.6042 12.6131 35.3935 12.9845C38.1871 13.3517 39.7798 0.948039 49.1961 4.45128C53.3059 5.97801 47.5538 10.1415 52.0391 11.8786C55.9921 13.4054 56.6605 7.3727 61.7854 10.6119C64.3644 12.2459 57.362 15.1425 62.1527 16.7766C66.9474 18.4106 71.3131 18.0516 72.0558 23.0981C73.2153 30.9463 77.0074 25.677 79.38 36.2651C81.2699 44.7076 72.0269 50.0264 70.7395 47.8023C69.58 45.801 72.2663 45.4833 74.2675 44.9056C76.2729 44.3238 77.9564 41.0063 76.7433 38.6873C75.5343 36.3724 73.1121 37.4989 72.9512 36.4261C72.8481 35.7122 73.8219 34.2102 72.4519 34.9241C71.082 35.6338 69.873 36.554 69.3159 34.2391C69.0395 33.0796 68.8992 30.8885 68.338 28.7429C68.338 28.7387 68.338 28.7387 68.338 28.7387C67.7768 26.5931 66.7948 24.501 64.8389 23.5313C60.9272 21.5961 60.8116 24.6001 57.9645 21.0803C55.5629 18.1094 53.7598 21.2701 52.3692 24.3112C52.1134 24.8724 51.874 25.4294 51.643 25.9411C50.3143 28.9244 44.9666 30.6822 42.6558 29.3371C42.1524 29.0441 41.7893 28.6067 41.649 27.996C40.8361 24.501 41.7274 23.5313 39.9903 22.9C38.0261 22.1862 38.6079 26.6508 35.7237 25.8214C32.8394 24.9921 34.6178 22.1903 32.1296 21.4393C29.6415 20.6883 30.7061 24.5175 28.5315 22.2274C26.361 19.9373 23.8316 22.7432 23.6748 27.1666C23.5139 31.59 20.5925 32.0274 19.7218 29.8941C18.8553 27.7608 17.6298 29.3783 17.7082 31.4745C17.7866 33.5665 15.971 33.4469 14.271 31.1155C13.9161 30.6327 13.4993 30.2944 13.0661 30.121C11.4032 29.432 9.52158 31.0619 10.4005 35.6998C11.5063 41.5468 12.2161 43.6017 10.9534 43.7998C9.68663 43.9978 8.10626 47.3814 15.22 50.3317C22.3296 53.282 18.3808 55.4937 33.8668 59.0506C12.8474 56.0467 8.50238 49.0154 5.50255 41.5881C2.4986 34.1607 5.50256 31.1568 7.31813 31.5529ZM57.4528 11.759C56.6234 12.0354 56.545 13.0629 57.4941 13.0629C58.439 13.0629 59.9038 14.0119 59.9822 12.8236C60.0606 11.6393 59.3138 11.14 57.4528 11.759ZM41.4138 11.2432C42.7177 9.46887 43.7823 10.2983 46.745 10.4551C50.0502 10.6325 49.4313 6.03166 46.9431 6.1472C45.7506 6.20496 40.7 6.70012 39.0825 12.1551C38.6946 13.459 40.1099 13.0216 41.4138 11.2432ZM28.1766 17.2222C28.255 15.6418 27.3885 15.3819 25.5193 18.0145C27.2028 16.5372 28.0982 18.8026 28.1766 17.2222Z" fill="#ECF7F9"/>
<path d="M56.8995 8.20291C58.7609 6.9089 62.47 7.84722 62.9837 6.89899C63.4974 5.95077 60.9688 5.31861 59.8626 5.91115C58.7563 6.50369 58.4799 6.46408 58.7167 5.47666C58.954 4.48882 57.2548 4.41 56.1093 6.50369C54.9634 8.59738 53.9364 9.11111 52.9485 9.34837C51.9611 9.58563 53.6599 10.455 56.8995 8.20291Z" fill="#ECF7F9"/>
<path d="M67.9627 8.08456C71.4763 7.36122 74.2343 8.82194 72.8219 9.9018C72.1501 10.4155 70.0564 8.44026 67.1329 8.99319C64.2094 9.54611 66.6192 8.36103 67.9627 8.08456Z" fill="#ECF7F9"/>
<path d="M69.542 12.0746C72.5963 12.8643 75.1125 15.551 72.5839 15.3537C70.0553 15.1561 70.9247 15.2353 72.9 16.302C74.8752 17.3686 77.9964 20.4898 75.7839 21.7937C73.5713 23.0976 73.1368 17.5271 70.253 16.4996C67.3691 15.4726 66.1836 15.6698 66.0255 14.6824C65.8675 13.6946 69.1071 13.102 66.6973 13.1812C64.2875 13.2601 63.4974 14.3663 62.5887 13.6157C61.6801 12.8647 64.9593 10.8895 69.542 12.0746Z" fill="#ECF7F9"/>
<path d="M76.1002 26.0995C78.1547 26.9293 79.0633 26.7713 78.5496 25.7438C78.0359 24.7168 78.0755 26.5345 76.1002 26.0995Z" fill="#ECF7F9"/>
<path d="M75.9818 27.522C78.8265 28.1145 79.5771 31.789 80.6834 31.0776C81.7892 30.3667 79.6559 27.7196 75.9818 27.522Z" fill="#ECF7F9"/>
<path d="M80.6829 36.332C81.6311 38.0704 81.7496 40.1641 80.9594 39.5716C80.1696 38.9791 80.6829 36.332 80.6829 36.332Z" fill="#ECF7F9"/>
<path d="M70.7933 34.0011C69.5699 32.6142 70.4773 31.6833 69.9507 30.8143C69.4238 29.9453 71.4519 30.9988 71.215 32.5787C70.9778 34.1591 71.5835 34.8969 70.7933 34.0011Z" fill="#7DE5F6"/>
<path d="M52.3691 24.3111C53.7596 21.27 55.5628 18.1093 57.9643 21.0802C60.8115 24.6 60.927 21.596 64.8388 23.5312C66.7947 24.5009 67.7767 26.593 68.3379 28.7387C67.0587 21.4805 64.063 20.68 63.6834 21.728C63.2584 22.8875 58.2037 16.1947 58.7318 19.5659C59.2394 22.8422 53.2851 12.3407 52.3691 24.3111Z" fill="#A9EAFA"/>
<path d="M74.2961 35.1336C74.0593 35.6069 74.4542 36.3451 74.9811 36.1606C75.508 35.9762 74.6118 34.5014 74.2961 35.1336Z" fill="#7DE5F6"/>
<path d="M59.429 20.8058C59.7736 21.8399 61.6415 21.7936 61.6019 21.2007C61.5623 20.6082 59.271 20.3317 59.429 20.8058Z" fill="#7DE5F6"/>
<path d="M51.2512 23.2157C51.6246 24.8344 48.1697 28.3121 47.1818 27.2454C46.194 26.1788 49.1571 26.0207 49.9077 24.9541C50.6582 23.8874 50.8955 21.6749 51.2512 23.2157Z" fill="#7DE5F6"/>
<path d="M45.1663 26.0207C44.0753 27.1117 44.9687 27.9563 43.8624 27.3242C42.7561 26.692 42.0452 24.8748 43.2699 25.2697C44.4945 25.665 45.0083 24.1634 45.7192 24.6375C46.4306 25.1121 45.68 25.507 45.1663 26.0207Z" fill="#7DE5F6"/>
<path opacity="0.37" d="M52.1303 33.7143C51.0603 35.6536 50.2499 37.8286 50.2974 40.0956C50.3184 41.22 50.5598 42.3415 51.0079 43.3715C51.4581 44.4018 52.115 45.3277 52.8759 46.139C54.4109 47.7639 56.3453 48.9317 58.3594 49.8213C60.3829 50.7085 62.5125 51.3237 64.6718 51.7508C64.6999 51.7561 64.7267 51.738 64.7325 51.7103C64.7378 51.6827 64.7197 51.6559 64.6924 51.6497C62.5463 51.19 60.4361 50.5434 58.4444 49.6323C56.4621 48.7196 54.5727 47.5333 53.1045 45.9277C52.3762 45.1264 51.7573 44.2219 51.3418 43.2279C50.9283 42.2343 50.7158 41.1635 50.7125 40.0902C50.7005 37.9289 51.5097 35.8434 52.5813 33.9717C52.6527 33.8471 52.6114 33.6854 52.4868 33.614C52.3622 33.5426 52.2037 33.5859 52.1324 33.7105C52.1319 33.7114 52.1307 33.7134 52.1303 33.7143Z" fill="#86FFFF"/>
<path opacity="0.37" d="M31.7357 41.5182C31.6519 43.1497 31.9874 44.8246 32.7821 46.2622C33.5686 47.7052 34.7619 48.8886 36.1174 49.7754C37.4754 50.6691 38.9967 51.2786 40.5557 51.6842C42.1166 52.0948 43.7259 52.285 45.3323 52.3283C46.1348 52.3477 46.9432 52.3126 47.7367 52.2874C48.533 52.2548 49.3307 52.2544 50.1279 52.2586C51.7227 52.2718 53.3171 52.3584 54.9045 52.5152C56.4919 52.6733 58.0739 52.894 59.6382 53.2089C61.1996 53.5282 62.7556 53.9112 64.2415 54.4872C64.2679 54.4979 64.298 54.4851 64.3088 54.4587C64.3195 54.4323 64.3063 54.4022 64.2803 54.3915C62.7894 53.7973 61.2326 53.3983 59.6683 53.0624C58.1016 52.731 56.5162 52.4942 54.9247 52.32C53.3328 52.1476 51.733 52.0448 50.1316 52.0159C49.3311 52.0044 48.5297 51.997 47.7288 52.0217C46.925 52.0399 46.1352 52.0667 45.3401 52.0399C43.7535 51.9821 42.169 51.7787 40.6411 51.3611C39.1147 50.9485 37.6342 50.3374 36.327 49.4585C35.0214 48.5866 33.8904 47.4382 33.1559 46.06C32.414 44.6856 32.1116 43.1023 32.2052 41.5458C32.2131 41.4163 32.114 41.3049 31.9845 41.297C31.8549 41.2896 31.7435 41.3882 31.7357 41.5182Z" fill="#86FFFF"/>
<path opacity="0.37" d="M41.5949 35.8624C39.882 38.6638 39.5697 42.2879 40.9087 45.2923C41.5734 46.7869 42.692 48.0978 44.1222 48.9119C44.8332 49.3212 45.6114 49.608 46.4099 49.7743C47.2066 49.9484 48.0323 49.9761 48.8316 49.9707C52.0126 49.9377 55.1894 50.4197 58.299 51.1125C59.8546 51.4653 61.3962 51.8841 62.913 52.3788C64.4278 52.8777 65.9261 53.4418 67.3447 54.1688C67.3699 54.1824 67.4012 54.1734 67.4148 54.1482C67.4285 54.1234 67.4181 54.0917 67.3938 54.0781C65.9748 53.3291 64.4781 52.7461 62.9642 52.2274C61.4478 51.7128 59.9062 51.2746 58.3485 50.902C55.234 50.17 52.0493 49.6468 48.8299 49.6414C48.0323 49.6373 47.252 49.6027 46.4854 49.4273C45.7216 49.2598 44.9838 48.9783 44.3137 48.5826C42.966 47.7957 41.9217 46.5459 41.3035 45.1178C40.0566 42.2471 40.3958 38.7748 42.0483 36.1434C42.1267 36.0188 42.0892 35.8542 41.9642 35.7758C41.8396 35.6974 41.6749 35.7349 41.5965 35.86L41.5949 35.8624Z" fill="#86FFFF"/>
<path opacity="0.37" d="M55.2108 54.0727C53.8842 53.8267 52.5283 53.8007 51.1876 53.8713C49.8449 53.9381 48.5092 54.0784 47.1752 54.2146C44.5104 54.4927 41.8366 54.7444 39.1685 54.6219C36.5058 54.5113 33.8538 53.9959 31.411 52.9536C30.1897 52.4362 29.0211 51.7995 27.9194 51.0617C26.8255 50.3107 25.8017 49.4632 24.8349 48.5545L24.8308 48.5504C24.7219 48.4481 24.5511 48.4535 24.4487 48.5624C24.3464 48.6713 24.3518 48.8422 24.4607 48.9445L24.4632 48.947C25.4634 49.8614 26.521 50.7134 27.6499 51.4657C28.7867 52.2055 29.9912 52.8405 31.246 53.3518C33.7564 54.383 36.4637 54.8682 39.1561 54.9433C41.8547 55.0304 44.5372 54.7399 47.1983 54.4259C48.5303 54.2716 49.861 54.1135 51.1963 54.0289C52.5299 53.9406 53.8751 53.9485 55.1914 54.1742C55.2194 54.1795 55.2463 54.1614 55.252 54.1333C55.2574 54.1057 55.238 54.0789 55.2108 54.0727Z" fill="#86FFFF"/>
<path d="M13.0665 30.121C13.4997 30.2943 13.9165 30.6326 14.2714 31.1154C15.9714 33.4468 17.787 33.5664 17.7086 31.4744C17.6302 29.3782 18.8557 27.7607 19.7222 29.894C20.5929 32.0273 23.5143 31.5899 23.6752 27.1665C23.832 22.7431 26.3614 19.9372 28.5319 22.2273C30.7065 24.5174 29.6419 20.6882 32.13 21.4392C34.6182 22.1902 32.8398 24.992 35.7241 25.8213C38.6083 26.6507 38.0265 22.1861 39.9907 22.8999C41.7278 23.5312 40.8365 24.5009 41.6494 27.9959C41.7897 28.6066 42.1528 29.044 42.6562 29.337C41.2682 27.8511 41.9795 24.6949 41.6123 21.7157C40.9768 16.5784 37.5025 26.5723 36.7102 21.5547C35.9221 16.5372 32.9966 22.1077 31.5358 20.2137C30.0751 18.3156 28.9693 22.6235 26.8731 20.094C24.7811 17.5646 23.5556 27.4843 22.6849 24.7939C21.8184 22.1077 21.2242 29.6959 20.3164 29.143C19.4086 28.5901 17.6673 26.4155 17.0773 30.3273C16.5285 33.9378 14.1971 29.7042 13.0665 30.121Z" fill="#A9EAFA"/>
<path d="M54.5167 34.001C53.5404 35.0053 52.8064 36.2737 52.4247 37.654C52.031 39.0314 51.991 40.514 52.291 41.9235C52.5976 43.333 53.2425 44.6588 54.128 45.7754C55.0061 46.9015 56.1132 47.815 57.3086 48.54C56.2523 47.6186 55.2941 46.6139 54.518 45.4903C53.7484 44.365 53.1728 43.1139 52.8955 41.7931C52.6046 40.4764 52.6124 39.099 52.8918 37.7704C53.1782 36.4421 53.727 35.1584 54.5167 34.001Z" fill="#47B2FF"/>
<path d="M49.2488 36.6877C49.1333 36.9085 49.0157 37.133 48.9084 37.3636C48.8358 37.605 48.7562 37.8481 48.6885 38.0948C48.6551 38.3469 48.6183 38.6007 48.5928 38.8553L48.5932 39.6228C48.6526 40.6486 48.9583 41.641 49.364 42.5715C49.7824 43.499 50.311 44.3751 50.9514 45.1615C51.5893 45.9439 52.3213 46.6734 53.2002 47.1698C52.8177 46.843 52.4455 46.5154 52.1278 46.1312C51.9594 45.9493 51.7964 45.7636 51.6471 45.5651C51.4894 45.374 51.3417 45.176 51.2043 44.9697C50.6394 44.1588 50.1376 43.3047 49.7411 42.4043C49.3392 41.5077 49.0376 40.564 48.9076 39.5927C48.783 38.6251 48.8585 37.617 49.2488 36.6877Z" fill="#47B2FF"/>
<path d="M42.8218 36.6348C42.1822 37.9973 41.7407 39.4786 41.6445 41.0144C41.5443 42.5375 41.7943 44.1587 42.646 45.5063C43.0698 46.1727 43.6231 46.7587 44.2623 47.2159C44.9051 47.6677 45.6182 48.0073 46.358 48.226C47.8385 48.6791 49.3842 48.729 50.8809 48.5924C49.3797 48.4892 47.8893 48.273 46.5136 47.7688C45.1432 47.2683 43.9173 46.3968 43.17 45.1779C42.3935 43.9742 42.1261 42.4917 42.1252 41.0318C42.1372 39.5611 42.4058 38.0814 42.8218 36.6348Z" fill="#47B2FF"/>
<path d="M47.7207 55.3878C45.5796 55.6061 43.4458 55.8854 41.3163 56.0856C39.1875 56.2849 37.0517 56.3381 34.9527 56.0571C32.8511 55.7951 30.8008 55.1935 28.8144 54.4177C26.8288 53.6345 24.8935 52.7057 22.9633 51.7529C24.7739 52.9141 26.6468 53.9939 28.6299 54.8642C30.606 55.7427 32.7084 56.3901 34.8734 56.6707C37.0389 56.948 39.2333 56.8634 41.3695 56.5638C43.511 56.2799 45.6175 55.8421 47.7207 55.3878Z" fill="#47B2FF"/>
<path d="M24.7009 47.0649C25.3207 47.7276 25.9929 48.3371 26.6911 48.9168C27.3863 49.5003 28.1233 50.0334 28.8817 50.5339C29.6459 51.0258 30.4332 51.4854 31.2585 51.8696C31.6711 52.0615 32.0891 52.2406 32.5129 52.4044C32.942 52.555 33.3728 52.6998 33.8135 52.8067C33.4037 52.6111 32.9915 52.4308 32.5937 52.2187C32.191 52.019 31.7932 51.8106 31.4041 51.587C30.6247 51.1426 29.8559 50.6812 29.107 50.1881C28.3527 49.7029 27.6191 49.185 26.8842 48.6664C26.1517 48.1436 25.4329 47.5997 24.7009 47.0649Z" fill="#47B2FF"/>
<path d="M23.4369 43.3247C23.8496 44.4644 24.5849 45.4679 25.4085 46.3456C26.2445 47.217 27.1778 47.9986 28.2305 48.5924C27.3776 47.7403 26.5197 46.9245 25.7081 46.0625C24.8894 45.2055 24.1351 44.3068 23.4369 43.3247Z" fill="#47B2FF"/>
<path d="M33.7084 41.7444C33.7752 43.1403 34.0703 44.5416 34.6777 45.8294C34.9859 46.4686 35.3713 47.0785 35.8574 47.6013C36.3414 48.1249 36.924 48.5507 37.5537 48.8557C37.009 48.4142 36.5242 47.9256 36.1025 47.3925C35.6886 46.8528 35.3391 46.2681 35.0499 45.6516C34.7536 45.0384 34.5167 44.3947 34.2993 43.7411C34.0922 43.0846 33.9019 42.4178 33.7084 41.7444Z" fill="#47B2FF"/>
<path d="M48.459 52.7537C46.8378 52.7582 45.2256 52.7496 43.6238 52.6629C42.0252 52.5519 40.4333 52.3584 38.9066 51.9371C37.3802 51.529 35.915 50.8787 34.6845 49.89C33.4504 48.9096 32.4423 47.6383 31.6554 46.2222C32.2215 47.7369 33.1264 49.1638 34.3747 50.261C34.666 50.5593 35.0258 50.7718 35.3546 51.0256C35.7021 51.2509 36.0635 51.4564 36.4262 51.6573C37.1731 52.0176 37.9476 52.3171 38.7432 52.5338C40.3376 52.9604 41.979 53.1304 43.6077 53.1441C45.2376 53.1498 46.8576 52.9963 48.459 52.7537Z" fill="#47B2FF"/>
<path d="M41.9268 48.1184C41.4287 47.537 40.9406 46.9617 40.5197 46.3416C40.1054 45.7189 39.7427 45.0673 39.4811 44.375C39.2108 43.6859 39.0445 42.9596 38.9451 42.2186C38.8473 41.4771 38.8267 40.7162 38.766 39.9536C38.6666 40.7096 38.5783 41.4729 38.6245 42.247C38.6604 43.0195 38.8176 43.7936 39.0961 44.5231C39.3796 45.2506 39.779 45.9285 40.2618 46.5326C40.7417 47.1408 41.3214 47.655 41.9268 48.1184Z" fill="#47B2FF"/>
<path d="M63.6289 55.1243C62.6584 54.6741 61.6545 54.2937 60.6287 53.9805C59.6037 53.6652 58.556 53.4238 57.4997 53.234C56.4417 53.0529 55.3738 52.9283 54.3018 52.8833C53.2306 52.8387 52.1561 52.8462 51.0919 52.965C51.6263 52.9955 52.1586 53.0145 52.6892 53.0636C53.2203 53.095 53.7497 53.1445 54.2779 53.1998C55.3334 53.319 56.3856 53.4527 57.4291 53.6405C58.4747 53.8179 59.5104 54.0457 60.5453 54.2854C61.0611 54.4117 61.5773 54.5404 62.0877 54.6906C62.6072 54.8132 63.1094 54.9902 63.6289 55.1243Z" fill="#47B2FF"/>
<path d="M55.8857 51.1734C54.9825 50.9592 54.0648 50.8198 53.145 50.7083C52.2253 50.592 51.3002 50.5293 50.3746 50.4835C49.4491 50.4476 48.5223 50.4294 47.5964 50.4595L46.2083 50.5185C45.7462 50.5582 45.284 50.5874 44.8239 50.6469C45.2869 50.6807 45.7486 50.6918 46.2104 50.7207L47.5939 50.7764L50.3569 50.8953L53.1182 51.0232L55.8857 51.1734Z" fill="#47B2FF"/>
<path d="M70.8457 53.2017C69.9259 52.6607 68.9736 52.1701 67.9767 51.7715C66.9835 51.3651 65.9342 51.0808 64.8824 50.8848C63.8281 50.6958 62.7936 50.5233 61.7823 50.225C61.5277 50.1569 61.276 50.0781 61.0271 49.9889C60.7759 49.9072 60.527 49.8173 60.2815 49.7174C59.7781 49.5466 59.2966 49.3217 58.7965 49.1323C59.2549 49.4051 59.7208 49.6675 60.2019 49.9031C60.4408 50.024 60.6867 50.1309 60.9351 50.2324C61.1811 50.3409 61.4311 50.4387 61.6853 50.527C62.1879 50.7214 62.7136 50.8489 63.2351 50.9788C63.7592 51.0944 64.2869 51.1876 64.8052 51.29C65.8483 51.4744 66.8634 51.7389 67.8686 52.0686C68.3691 52.2378 68.8684 52.4156 69.3602 52.6157C69.8628 52.7891 70.3427 53.0189 70.8457 53.2017Z" fill="#47B2FF"/>
<path d="M67.9229 55.1767C67.1331 54.6841 66.307 54.2533 65.464 53.8576C64.6214 53.4602 63.752 53.1218 62.8735 52.8124C61.9917 52.5124 61.0988 52.2438 60.1918 52.0325C59.7387 51.926 59.284 51.8282 58.8293 51.7346C58.3704 51.6562 57.9153 51.5671 57.454 51.5027C58.335 51.8047 59.2262 52.0593 60.1076 52.3387C60.9882 52.6201 61.8687 52.8965 62.739 53.2023C63.6125 53.499 64.4757 53.8237 65.341 54.1485C66.2026 54.4806 67.0563 54.8363 67.9229 55.1767Z" fill="#47B2FF"/>
<path d="M65.9473 57.3498C63.4686 56.1354 60.7997 55.2899 58.0582 54.8468C56.6862 54.6347 55.2964 54.52 53.9083 54.5439C52.5207 54.5588 51.1363 54.7176 49.789 55.0193C52.5462 54.8963 55.2704 55.0217 57.9616 55.4579C60.6561 55.8742 63.294 56.5905 65.9473 57.3498Z" fill="#47B2FF"/>
<path d="M40.0303 57.5077C39.028 57.5535 38.0336 57.6067 37.0408 57.6014C36.0484 57.5865 35.0593 57.5353 34.0814 57.3988C33.1026 57.2713 32.1375 57.0575 31.1868 56.7802C30.2373 56.498 29.3097 56.1332 28.3755 55.7693C28.8046 56.0288 29.2474 56.2644 29.6972 56.4893C30.1494 56.7084 30.6161 56.8991 31.0869 57.081C32.0327 57.4359 33.0246 57.6678 34.0261 57.8073C35.0292 57.9368 36.0426 57.9777 37.0482 57.917C38.0538 57.8564 39.0507 57.7223 40.0303 57.5077Z" fill="#47B2FF"/>
<path d="M31.9316 54.7818C31.0263 54.3213 30.102 53.9504 29.1839 53.5621L27.8041 52.9918C27.3465 52.7946 26.8856 52.613 26.4403 52.3721C26.7845 52.7529 27.2256 53.0273 27.6617 53.2807C28.1016 53.5336 28.5613 53.7461 29.0263 53.943C29.9605 54.3234 30.9261 54.6312 31.9316 54.7818Z" fill="#47B2FF"/>
<path d="M40.2275 53.6757C39.5347 53.544 38.8613 53.3678 38.1949 53.176C37.5302 52.9775 36.8729 52.758 36.2304 52.5021C35.5854 52.2525 34.9549 51.9674 34.3401 51.6501C33.7294 51.3257 33.1303 50.9742 32.5629 50.5549C33.4885 51.6348 34.7693 52.3635 36.0794 52.8863C37.4006 53.3914 38.8118 53.726 40.2275 53.6757Z" fill="#47B2FF"/>
<path d="M43.625 50.9499C42.9574 50.6635 42.2922 50.4097 41.6493 50.1238C41.0089 49.8345 40.3858 49.5251 39.8106 49.1467C39.2292 48.7786 38.6974 48.3412 38.2096 47.8498C37.7231 47.3555 37.2919 46.8 36.869 46.2087C37.0584 46.9098 37.3951 47.5766 37.8436 48.165C38.2889 48.7584 38.8546 49.2606 39.4756 49.6666C40.1028 50.0644 40.7816 50.3689 41.4826 50.5752C42.1824 50.7852 42.8996 50.9127 43.625 50.9499Z" fill="#47B2FF"/>
<path d="M56.1094 49.488C54.8954 48.8084 53.5977 48.2872 52.3152 47.7793C51.0369 47.2618 49.7536 46.7626 48.5949 46.0743C47.4322 45.4062 46.4154 44.4881 45.8592 43.2824C45.296 42.0784 45.218 40.6734 45.3236 39.2952C45.1441 39.9669 45.0517 40.663 45.0381 41.3703C45.0385 42.0763 45.1495 42.7964 45.4148 43.471C45.6702 44.1498 46.0878 44.7646 46.583 45.2915C47.0835 45.8168 47.6715 46.2406 48.2797 46.6066C49.5118 47.3225 50.8331 47.8036 52.1514 48.2315C53.4698 48.6664 54.7993 49.0279 56.1094 49.488Z" fill="#47B2FF"/>
<path d="M46.7862 38.6628C46.5964 39.2682 46.4449 39.8892 46.3892 40.5304C46.3273 41.1696 46.3604 41.8281 46.5196 42.4648C46.6834 43.099 46.9801 43.7044 47.3965 44.2057C47.8066 44.7128 48.3257 45.1119 48.8799 45.4184C48.4177 44.9802 47.9977 44.5206 47.6556 44.0147C47.3172 43.5067 47.0643 42.9505 46.9191 42.3625C46.6092 41.1836 46.7198 39.9288 46.7862 38.6628Z" fill="#47B2FF"/>
<path d="M42.9538 42.4163C42.8263 42.8231 42.8614 43.2749 42.9707 43.6892C43.0788 44.108 43.2695 44.5 43.5006 44.8615C43.7382 45.2193 44.0221 45.5469 44.3555 45.818C44.6856 46.0887 45.0673 46.314 45.4824 46.4064C45.1412 46.1576 44.8486 45.8807 44.5771 45.584C44.3097 45.2849 44.0605 44.9708 43.8455 44.6346C43.6239 44.3028 43.4341 43.9512 43.2748 43.5861C43.1197 43.218 42.9988 42.8367 42.9538 42.4163Z" fill="#47B2FF"/>
<path d="M40.7676 29.2075C39.7447 30.5609 38.8179 31.9924 38.0426 33.5125C37.2705 35.031 36.6739 36.6596 36.4106 38.3646C36.1742 40.0667 36.3231 41.8538 36.9965 43.4474C37.1595 43.8456 37.3848 44.2162 37.5755 44.5999C37.8127 44.9572 38.0508 45.3146 38.3 45.6612C38.5843 45.9818 38.8583 46.309 39.148 46.6197C39.4575 46.9127 39.7698 47.2011 40.083 47.4858C39.8 47.1685 39.5157 46.8549 39.2289 46.5463C38.9644 46.217 38.718 45.8745 38.463 45.5415C38.2365 45.1883 38.0174 44.8301 37.8024 44.472C37.6341 44.0891 37.4315 43.7218 37.2912 43.3298C36.7036 41.7692 36.5604 40.0684 36.8187 38.4236C37.0399 36.769 37.6262 35.1766 38.3273 33.6499C38.489 33.2608 38.6892 32.8894 38.881 32.5135L39.1699 31.9499L39.4835 31.3994C39.8788 30.6509 40.3393 29.9412 40.7676 29.2075Z" fill="#47B2FF"/>
<path d="M31.6015 49.5407C30.1536 47.8927 28.9656 46.016 28.2612 43.9591C27.5631 41.9017 27.3398 39.702 27.5478 37.5439C27.7199 35.3788 28.2988 33.2583 29.0696 31.2199C29.4475 30.1958 29.8998 29.1993 30.3793 28.216C30.6277 27.7287 30.8616 27.2323 31.1228 26.7507L31.918 25.3098C30.6879 27.1287 29.6184 29.0639 28.7745 31.1031C27.9336 33.1407 27.3456 35.2988 27.1372 37.5088C26.9586 39.7156 27.1834 41.9818 27.9641 44.0655C28.1915 44.5718 28.4019 45.0851 28.6433 45.5824C28.9256 46.0585 29.1839 46.5492 29.4851 47.0109C29.8193 47.4516 30.1362 47.9034 30.482 48.3305L31.6015 49.5407Z" fill="#47B2FF"/>
<path d="M34.8154 32.6313C34.4354 33.2334 34.0892 33.8639 33.8297 34.5315C33.5495 35.1917 33.3527 35.8837 33.1868 36.581C33.0287 37.2809 32.933 37.9947 32.8971 38.7102C32.8596 39.4249 32.8876 40.147 33.025 40.8485C33.0481 40.1363 33.1282 39.4356 33.2177 38.7395C33.3176 38.0447 33.4282 37.3527 33.5895 36.6706C33.7438 35.9881 33.9184 35.3085 34.1321 34.6392C34.3355 33.9666 34.5778 33.3052 34.8154 32.6313Z" fill="#47B2FF"/>
<path d="M51.7773 28.2068C50.3963 29.0164 49.0911 29.9724 47.9378 31.1051C46.8018 32.2518 45.8305 33.5664 45.0742 34.9999C44.3475 36.4458 43.8358 38.0158 43.6906 39.6334C43.6093 40.4405 43.6481 41.2562 43.7607 42.0563C43.9109 42.8519 44.1577 43.6309 44.5604 44.3254C43.9155 42.8539 43.7921 41.2261 44.0059 39.6668C44.2109 38.1037 44.7044 36.582 45.4406 35.1877C46.1474 33.7757 47.0985 32.4965 48.1648 31.3242L49.0053 30.4808C49.2768 30.1891 49.6024 29.9567 49.897 29.6894C50.4759 29.1377 51.1526 28.711 51.7773 28.2068Z" fill="#47B2FF"/>
<path d="M25.124 51.4895C23.5478 50.5755 22.1056 49.4173 21.0646 47.9454C20.0169 46.4826 19.372 44.7599 19.1149 42.981C18.8211 41.2034 18.8826 39.3792 19.0852 37.5793C19.1842 36.6777 19.3303 35.7798 19.504 34.8865C19.6645 33.9898 19.87 33.1014 20.0668 32.2097C19.7796 33.0771 19.5349 33.9572 19.3063 34.8431C19.0914 35.7323 18.9094 36.6306 18.7703 37.538C18.5001 39.3515 18.4378 41.2121 18.7076 43.045C19.0043 44.8663 19.6715 46.6625 20.8104 48.1331C21.3765 48.8668 22.0396 49.5204 22.7679 50.082C23.5045 50.6341 24.2938 51.1082 25.124 51.4895Z" fill="#47B2FF"/>
<path d="M24.7016 36.4768C24.3381 37.2728 24.1999 38.1595 24.2085 39.0326C24.2254 39.9087 24.3901 40.7723 24.7016 41.5864C24.7124 41.1486 24.6859 40.7195 24.6653 40.2945C24.6463 39.869 24.6245 39.4477 24.6212 39.0264C24.6005 38.1818 24.6558 37.3487 24.7016 36.4768Z" fill="#47B2FF"/>
<path d="M31.8135 22.3069L30.5983 24.0156C30.2009 24.5904 29.8056 25.1672 29.4227 25.7544C28.6544 26.9259 27.9599 28.1534 27.3806 29.438C26.8091 30.725 26.3556 32.0697 26.08 33.4508C25.9999 33.7937 25.95 34.1424 25.8992 34.4902C25.8431 34.8372 25.7936 35.1847 25.7709 35.5358C25.7057 36.2352 25.697 36.9371 25.7028 37.6357C25.8406 36.2431 26.0478 34.8657 26.389 33.5218C26.7328 32.1795 27.1866 30.8681 27.7569 29.6059C28.3168 28.3387 28.9915 27.1239 29.6913 25.9199C30.3936 24.7179 31.1454 23.5369 31.8135 22.3069Z" fill="#47B2FF"/>
<path d="M66.6846 29.7344C65.5131 29.1679 64.2719 28.7214 62.9705 28.4998C61.674 28.2712 60.3061 28.3207 59.0307 28.7206C57.7556 29.1216 56.6044 29.8619 55.671 30.7911C54.7306 31.7179 53.9718 32.8007 53.3574 33.9482L53.9372 33.1642C54.1422 32.9125 54.3399 32.6562 54.5495 32.4103C54.9687 31.9193 55.4057 31.4443 55.8881 31.0226C56.845 30.1747 57.9417 29.4868 59.1528 29.1142C60.3593 28.7255 61.6558 28.6644 62.9263 28.8126C63.2469 28.8316 63.5597 28.9137 63.8779 28.9611C64.1976 29.0049 64.5067 29.0985 64.8195 29.1786C65.4558 29.3086 66.057 29.5528 66.6846 29.7344Z" fill="#47B2FF"/>
<path d="M56.624 27.4167C55.4006 27.5859 54.2378 28.0996 53.1885 28.7574C52.1334 29.4159 51.1921 30.2486 50.3694 31.1816C49.5548 32.1212 48.862 33.1758 48.3805 34.3258C48.2588 34.6118 48.168 34.9118 48.0607 35.2027C47.9654 35.4981 47.9051 35.8051 47.828 36.1051C47.7727 36.4105 47.7516 36.7224 47.7128 37.0277C47.7001 37.3368 47.7153 37.6467 47.7219 37.9525C47.7599 37.6459 47.7822 37.3409 47.8214 37.0401C47.8907 36.7422 47.941 36.4426 48.0248 36.1513C48.1218 35.8633 48.1956 35.5695 48.307 35.2881C48.4296 35.0108 48.534 34.7269 48.6697 34.4566C49.2037 33.3727 49.8816 32.3601 50.6805 31.4523C51.4727 30.5387 52.3776 29.7238 53.3634 29.0206C53.8569 28.6695 54.3781 28.3571 54.9219 28.0864C55.1885 27.9387 55.4757 27.8376 55.7538 27.7101C56.0381 27.6008 56.3327 27.5199 56.624 27.4167Z" fill="#47B2FF"/>
<path d="M40.3994 32.2102C39.8535 32.9249 39.3666 33.6841 38.9453 34.4842C38.5195 35.2818 38.1819 36.131 37.9443 37.0099C37.7148 37.8905 37.5877 38.8032 37.6146 39.7139C37.6187 39.9413 37.6278 40.1682 37.6567 40.3939C37.6818 40.6196 37.695 40.8457 37.7433 41.0677C37.8246 41.5134 37.941 41.9504 38.0817 42.377C37.9542 41.4866 37.8873 40.5994 37.9319 39.718C37.9793 38.8379 38.1122 37.9656 38.3429 37.116C38.5632 36.2635 38.8797 35.4366 39.23 34.6216C39.5849 33.8071 39.9975 33.0148 40.3994 32.2102Z" fill="#47B2FF"/>
<path d="M13.4817 34.7388C13.3484 35.2867 13.2027 35.8347 13.0901 36.3893C13.0171 36.9496 12.9019 37.5088 12.8627 38.0749C12.7922 39.2067 12.7934 40.3543 12.9824 41.4807C13.3183 43.7411 14.262 45.9025 15.6274 47.7366C17.0146 49.5605 18.7898 51.0587 20.7304 52.236C22.6751 53.4157 24.768 54.3152 26.9141 55.0192C25.8825 54.555 24.8237 54.1646 23.8321 53.6249C23.3266 53.3777 22.8179 53.1372 22.3405 52.8392L21.6126 52.4151C21.3687 52.276 21.1261 52.1349 20.9004 51.9678C19.0208 50.7517 17.2833 49.2848 15.9566 47.4882C14.5991 45.7189 13.6892 43.6248 13.2943 41.4288C12.8908 39.2303 13.0154 36.9463 13.4817 34.7388Z" fill="#47B2FF"/>
<path d="M76.1724 10.5863C77.2753 9.8681 78.1025 9.20765 78.6539 8.60491C79.2118 7.99575 79.4907 7.42827 79.4907 6.90248C79.4907 6.48569 79.3945 6.1747 79.2021 5.96951C79.0162 5.76432 78.7341 5.66172 78.3557 5.66172C78.1121 5.66172 77.8876 5.73226 77.6825 5.87332C77.4837 6.00798 77.3202 6.19393 77.1919 6.43118C77.0701 6.66843 76.9996 6.93774 76.9803 7.23912C76.7431 7.21347 76.5603 7.13331 76.4321 6.99866C76.3038 6.85759 76.2397 6.67805 76.2397 6.46004C76.2397 6.1266 76.3391 5.83164 76.5379 5.57516C76.7367 5.31867 77.0156 5.11989 77.3747 4.97883C77.7402 4.83776 78.1602 4.76722 78.6347 4.76722C79.045 4.76722 79.4073 4.84417 79.7215 4.99806C80.0357 5.14554 80.2794 5.35714 80.4525 5.63287C80.6256 5.90859 80.7122 6.22279 80.7122 6.57546C80.7122 7.01148 80.5872 7.44751 80.3371 7.88354C80.0934 8.31957 79.7023 8.78765 79.1637 9.2878C78.6315 9.78795 77.9133 10.3554 77.0092 10.9902L76.1724 10.5863ZM79.7215 11.7885C79.356 11.7885 78.9873 11.7469 78.6154 11.6635C78.2435 11.5802 77.737 11.4231 77.0957 11.1922L77.0669 11.1826C76.8809 11.375 76.711 11.5096 76.5571 11.5866C76.4096 11.6699 76.2493 11.7116 76.0762 11.7116C75.9031 11.7116 75.7556 11.6539 75.6338 11.5385C75.5183 11.4231 75.4606 11.282 75.4606 11.1153C75.4606 10.8395 75.5729 10.6151 75.7973 10.442C76.0217 10.2689 76.3038 10.1823 76.6437 10.1823C76.8104 10.1823 77.0124 10.2112 77.2496 10.2689C77.4869 10.3202 77.7786 10.3971 78.1249 10.4997C78.5353 10.6151 78.8591 10.7017 79.0963 10.7594C79.3336 10.8107 79.542 10.8363 79.7215 10.8363L80.7795 10.2592C80.8693 10.4003 80.9302 10.5189 80.9623 10.6151C81.0008 10.7113 81.02 10.8043 81.02 10.8941C81.02 11.0608 80.9623 11.2147 80.8469 11.3557C80.7314 11.4904 80.5743 11.5962 80.3756 11.6731C80.1768 11.7501 79.9588 11.7885 79.7215 11.7885ZM84.7158 11.7405C84.2092 11.7405 83.7668 11.6186 83.3885 11.375C83.0102 11.1313 82.7184 10.785 82.5132 10.3362C82.3144 9.88734 82.2151 9.36154 82.2151 8.7588C82.2151 7.9701 82.3689 7.27438 82.6767 6.67164C82.9845 6.06889 83.4173 5.60081 83.9752 5.26737C84.5331 4.93394 85.1711 4.76722 85.8892 4.76722C86.0046 4.76722 86.1393 4.78326 86.2932 4.81532C86.4471 4.84096 86.5721 4.87303 86.6683 4.9115C86.7132 4.9628 86.7453 5.11669 86.7645 5.37317C87.1685 5.48218 87.4762 5.74187 87.6878 6.15225C87.8994 6.55622 88.0052 7.08522 88.0052 7.73926C88.0052 8.48308 87.8578 9.15956 87.5628 9.76871C87.2743 10.3779 86.8799 10.8588 86.3798 11.2115C85.8796 11.5641 85.325 11.7405 84.7158 11.7405ZM84.8024 11.0095C85.1807 11.0095 85.5205 10.8748 85.8219 10.6055C86.1233 10.3362 86.3573 9.96108 86.524 9.48017C86.6972 8.99925 86.7837 8.45422 86.7837 7.84506C86.7837 7.1269 86.6491 6.59149 86.3798 6.23882C86.1169 5.88615 85.7065 5.70981 85.1486 5.70981C84.937 5.70981 84.6773 5.76111 84.3695 5.86371C84.0682 6.29973 83.8373 6.78385 83.677 7.31606C83.5167 7.84186 83.4366 8.36445 83.4366 8.88384C83.4366 9.53788 83.5584 10.0573 83.8021 10.442C84.0521 10.8203 84.3856 11.0095 84.8024 11.0095Z" fill="black"/>
<defs>
<linearGradient id="paint0_linear_126_739" x1="87.8438" y1="48.7032" x2="1.5" y2="48.7032" gradientUnits="userSpaceOnUse">
<stop stop-color="#01F5FB"/>
<stop offset="1" stop-color="#33B5F0"/>
</linearGradient>
<linearGradient id="paint1_linear_126_739" x1="47.7423" y1="63.2721" x2="40.7891" y2="26.4514" gradientUnits="userSpaceOnUse">
<stop stop-color="#02F5FB"/>
<stop offset="1" stop-color="#0456DE"/>
</linearGradient>
</defs>
</svg>
