<svg width="95" height="61" viewBox="0 0 95 61" fill="none" xmlns="http://www.w3.org/2000/svg">
<path d="M93.623 0.75V59.96H0.75V0.75H93.623Z" fill="#FFC270" stroke="black" stroke-width="1.5"/>
<path d="M13.9609 16.9832L12.3877 22.3474L73.6528 40.3153L75.226 34.951L13.9609 16.9832Z" fill="white"/>
<path d="M75.2266 34.9514L76.4797 36.1812L76.7537 36.448L79.7464 39.3841L75.7112 40.0027L73.6533 40.3157L75.2266 34.9514Z" fill="white"/>
<path opacity="0.15" d="M12.7401 21.1459L75.8155 39.6448L75.7107 40.0023L73.6528 40.3153L12.3877 22.3474L12.7401 21.1459Z" fill="white"/>
<path opacity="0.1" d="M13.7284 17.777L76.4794 36.1807L76.7535 36.4475L76.5647 37.0911L13.4893 18.5923L13.7284 17.777Z" fill="white"/>
<path d="M75.5096 40.0313L74.4836 37.484L74.7195 36.6795L76.0976 35.8051L79.7463 39.3836L75.5096 40.0313Z" fill="white"/>
<path d="M12.0949 10.7399L7.44531 26.5935L8.2603 26.8325L12.9099 10.9789L12.0949 10.7399Z" fill="white"/>
<path d="M12.9102 10.9768C12.9102 10.9768 12.6024 12.0477 12.5056 13.2894C12.3826 14.8029 12.5622 16.5721 13.9612 16.9824L12.388 22.3466C10.9889 21.9363 9.88225 23.3283 9.16826 24.6686C8.57913 25.7657 8.25977 26.8335 8.25977 26.8335L12.9102 10.9768Z" fill="white"/>
<path opacity="0.1" d="M12.6801 11.7633C12.6801 11.7633 11.1802 17.0169 13.7323 17.7654L13.4921 18.5845C10.94 17.836 12.4399 12.5824 12.4399 12.5824L12.6801 11.7633Z" fill="white"/>
<path opacity="0.15" d="M12.7373 21.1553L12.3881 22.3462C9.83602 21.5977 8.25977 26.8328 8.25977 26.8328L8.61007 25.6383C8.61007 25.6383 10.1853 20.4068 12.7373 21.1553Z" fill="white"/>
<path opacity="0.1" d="M12.0236 10.7191L7.37402 26.5728L7.80733 26.6998L12.4569 10.8462L12.0236 10.7191Z" fill="white"/>
<path opacity="0.15" d="M12.9102 10.9763C12.9102 10.9763 12.6023 12.0472 12.5054 13.2889L9.16821 24.6679C8.57913 25.765 8.25977 26.8328 8.25977 26.8328L12.9102 10.9763Z" fill="white"/>
<path d="M25.7126 9.00126L22.6348 13.3098L74.371 50.2679L77.4488 45.9593L25.7126 9.00126Z" fill="white"/>
<path d="M77.4499 45.959L78.2492 47.4931L78.4247 47.8267L80.3337 51.4897L76.3851 50.6818L74.3721 50.2676L77.4499 45.959Z" fill="white"/>
<path opacity="0.15" d="M23.3241 12.3448L76.5892 50.395L76.3841 50.6821L74.371 50.2679L22.6348 13.3098L23.3241 12.3448Z" fill="white"/>
<path opacity="0.1" d="M25.2578 9.63884L78.2489 47.4933L78.4244 47.8269L78.0551 48.3439L24.79 10.2937L25.2578 9.63884Z" fill="white"/>
<path d="M76.1873 50.6397L75.9954 47.9934L76.457 47.3472L78.0046 47.0246L80.3327 51.4895L76.1873 50.6397Z" fill="white"/>
<path d="M25.4601 3.19518L16.7578 15.3772L17.7469 16.0837L26.4491 3.9017L25.4601 3.19518Z" fill="white"/>
<path d="M26.5366 3.22488C26.5366 3.22488 25.9279 4.08713 25.4647 5.17501C24.8957 6.49922 24.5318 8.1567 25.7133 9.00067L22.6354 13.3092C21.454 12.4653 20.004 13.3468 18.9357 14.3147C18.0569 15.1054 17.4385 15.9609 17.4385 15.9609L26.5366 3.22488Z" fill="white"/>
<path opacity="0.1" d="M26.0844 3.85712C26.0844 3.85712 23.1082 8.09068 25.2633 9.6302L24.7934 10.2881C22.6383 8.74856 25.6145 4.515 25.6145 4.515L26.0844 3.85712Z" fill="white"/>
<path opacity="0.15" d="M23.3188 12.353L22.6355 13.3095C20.4803 11.77 17.4385 15.9609 17.4385 15.9609L18.1238 15.0016C18.1238 15.0016 21.1636 10.8135 23.3188 12.353Z" fill="white"/>
<path opacity="0.1" d="M25.8287 2.72122L16.7324 15.4548L17.0581 15.6875L26.1545 2.9539L25.8287 2.72122Z" fill="white"/>
<path opacity="0.15" d="M26.5364 3.22506C26.5364 3.22506 25.9277 4.08731 25.4646 5.1752L18.9357 14.3147C18.0569 15.1054 17.4385 15.9609 17.4385 15.9609L26.5364 3.22506Z" fill="white"/>
<path d="M13.8592 17.4583L12.6074 21.7266L72.7891 39.3767L74.0409 35.1084L13.8592 17.4583Z" fill="#DC795E"/>
<path d="M74.0409 35.1084L75.3153 36.1683L75.5939 36.3983L78.6373 38.9288L74.7644 39.2267L72.7891 39.3767L74.0409 35.1084Z" fill="#DC795E"/>
<path opacity="0.15" d="M12.8878 20.7706L74.8479 38.9423L74.7644 39.2267L72.7891 39.3767L12.6074 21.7266L12.8878 20.7706Z" fill="#6E3025"/>
<path opacity="0.1" d="M13.6737 18.0905L75.315 36.1688L75.5936 36.3989L75.4435 36.911L13.4834 18.7393L13.6737 18.0905Z" fill="white"/>
<path d="M74.5706 39.2401L73.4495 37.1239L73.6372 36.4838L74.9265 35.8446L78.6371 38.9287L74.5706 39.2401Z" fill="#E49470"/>
<path d="M11.8461 12.3368L8.14648 24.9514L8.84008 25.1548L12.5397 12.5402L11.8461 12.3368Z" fill="#F8B88E"/>
<path d="M12.5402 12.5385C12.5402 12.5385 12.2963 13.3909 12.2652 14.3924C12.2225 15.6128 12.4854 17.0557 13.8597 17.4588L12.6079 21.7271C11.2336 21.324 10.233 22.3964 9.60974 23.4467C9.09502 24.3062 8.83984 25.1555 8.83984 25.1555L12.5402 12.5385Z" fill="#E49470"/>
<path opacity="0.1" d="M12.355 13.1646C12.355 13.1646 11.1686 17.3469 13.6755 18.0822L13.4844 18.7339C10.9774 17.9986 12.1638 13.8163 12.1638 13.8163L12.355 13.1646Z" fill="white"/>
<path opacity="0.15" d="M12.8859 20.7797L12.608 21.7273C10.1011 20.9921 8.83984 25.1555 8.83984 25.1555L9.11858 24.2051C9.11858 24.2051 10.379 20.0445 12.8859 20.7797Z" fill="#6E3025"/>
<path opacity="0.1" d="M11.8461 12.3368L8.14648 24.9514L8.39544 25.0244L12.0951 12.4098L11.8461 12.3368Z" fill="white"/>
<path opacity="0.15" d="M12.5401 12.5387C12.5401 12.5387 12.2962 13.3911 12.2651 14.3926L9.60974 23.4467C9.09502 24.3062 8.83984 25.1555 8.83984 25.1555L12.5401 12.5387Z" fill="#6E3025"/>
<path d="M25.5797 9.36226L22.9941 12.9817L74.027 49.4373L76.6126 45.8179L25.5797 9.36226Z" fill="#DC795E"/>
<path d="M76.6129 45.8181L77.468 47.238L77.6555 47.5469L79.6978 50.9373L75.9422 49.9453L74.0273 49.4375L76.6129 45.8181Z" fill="#DC795E"/>
<path opacity="0.15" d="M23.5732 12.171L76.1141 49.7039L75.9418 49.9451L74.027 49.4373L22.9941 12.9817L23.5732 12.171Z" fill="#6E3025"/>
<path opacity="0.1" d="M25.1967 9.89861L77.4673 47.2384L77.6548 47.5473L77.3446 47.9816L24.8037 10.4487L25.1967 9.89861Z" fill="white"/>
<path d="M75.7545 49.8949L75.3915 47.5277L75.7793 46.9849L77.207 46.8051L79.6973 50.9377L75.7545 49.8949Z" fill="#E49470"/>
<path d="M25.3641 3.86336L17.7227 14.5603L18.3108 14.9805L25.9522 4.28351L25.3641 3.86336Z" fill="#F8B88E"/>
<path d="M25.9515 4.28147C25.9515 4.28147 25.4409 5.00631 25.0822 5.94194C24.6407 7.08043 24.4145 8.52958 25.5799 9.36207L22.9944 12.9815C21.829 12.149 20.5314 12.8328 19.5975 13.6198C18.8288 14.2623 18.3086 14.9805 18.3086 14.9805L25.9515 4.28147Z" fill="#E49470"/>
<path opacity="0.1" d="M25.5721 4.81261C25.5721 4.81261 23.0766 8.37235 25.2024 9.89094L24.8076 10.4436C22.6818 8.925 25.1773 5.36526 25.1773 5.36526L25.5721 4.81261Z" fill="white"/>
<path opacity="0.15" d="M23.5684 12.1785L22.9944 12.982C20.8686 11.4634 18.3086 14.9807 18.3086 14.9807L18.8843 14.1748C18.8843 14.1748 21.4426 10.6599 23.5684 12.1785Z" fill="#6E3025"/>
<path opacity="0.1" d="M25.3641 3.86336L17.7227 14.5603L17.9338 14.7111L25.5752 4.01417L25.3641 3.86336Z" fill="white"/>
<path opacity="0.15" d="M25.9514 4.28188C25.9514 4.28188 25.4408 5.00672 25.0821 5.94234L19.5975 13.62C18.8288 14.2625 18.3086 14.9807 18.3086 14.9807L25.9514 4.28188Z" fill="#6E3025"/>
<path d="M78.5117 12.962C78.2936 12.962 78.1205 12.9203 77.9923 12.8369C77.8704 12.76 77.7678 12.6157 77.6845 12.4041C78.1526 12.231 78.595 12.0162 79.0118 11.7597C79.435 11.5032 79.8518 11.1377 80.2622 10.6632C80.6726 10.1823 81.0252 9.57956 81.3202 8.85498H81.2625C80.9932 9.21406 80.7078 9.46734 80.4065 9.61482C80.1051 9.75589 79.7845 9.82642 79.4446 9.82642C79.0214 9.82642 78.6559 9.73024 78.3481 9.53788C78.0468 9.34551 77.8159 9.08261 77.6556 8.74918C77.5017 8.40934 77.4248 8.02781 77.4248 7.60461C77.4248 7.0724 77.5595 6.59149 77.8288 6.16187C78.1045 5.72584 78.4668 5.386 78.9156 5.14234C79.3709 4.89226 79.8614 4.76722 80.3872 4.76722C81.0797 4.76722 81.6344 4.99486 82.0512 5.45012C82.4744 5.89897 82.686 6.55301 82.686 7.41224C82.686 8.34201 82.4551 9.23651 81.9935 10.0957C81.5382 10.9486 80.9771 11.6379 80.3103 12.1637C79.6498 12.6959 79.0503 12.962 78.5117 12.962ZM79.9833 9.06658C80.2013 9.06658 80.4257 8.98964 80.6565 8.83574C80.8874 8.68185 81.0797 8.45743 81.2336 8.16247C81.3875 7.86751 81.4645 7.51484 81.4645 7.10446C81.4645 6.65561 81.3651 6.2805 81.1663 5.97912C80.9739 5.67134 80.6661 5.51745 80.2429 5.51745C80.0057 5.51745 79.762 5.5976 79.512 5.7579C79.2683 5.91821 79.0631 6.15867 78.8964 6.47927C78.7297 6.79347 78.6463 7.17179 78.6463 7.61423C78.6463 8.02461 78.7489 8.37086 78.9541 8.653C79.1657 8.92872 79.5088 9.06658 79.9833 9.06658ZM85.1634 11.5C84.6632 11.5 84.2977 11.4295 84.0669 11.2884C83.836 11.1473 83.7206 10.9261 83.7206 10.6247C83.7206 10.426 83.7912 10.1791 83.9322 9.88413C84.0733 9.58276 84.3041 9.14994 84.6247 8.58567C84.9005 8.11117 85.1217 7.71041 85.2884 7.38339C85.4615 7.05637 85.609 6.72294 85.7308 6.38309C85.8527 6.03683 85.9136 5.72264 85.9136 5.4405C85.9136 5.28661 85.8879 5.11669 85.8366 4.93074C85.9585 4.87303 86.0739 4.83135 86.1829 4.8057C86.2919 4.78005 86.4041 4.76722 86.5195 4.76722C87.0389 4.76722 87.2986 5.08142 87.2986 5.70981C87.2986 6.2805 87.0678 6.9698 86.6061 7.77774C86.1508 8.57926 85.4551 9.51864 84.5189 10.5959H87.7122L87.4333 11.3173C87.1383 11.3686 86.776 11.4134 86.3464 11.4519C85.9168 11.484 85.5224 11.5 85.1634 11.5ZM87.9815 13.1351C87.7186 13.1351 87.5134 13.0485 87.3659 12.8754C87.2249 12.7087 87.1543 12.4682 87.1543 12.154C87.1543 11.8398 87.2441 11.3269 87.4236 10.6151C87.6096 9.90337 87.8597 9.08261 88.1739 8.15285C88.2829 8.06949 88.4079 8.00216 88.549 7.95087C88.69 7.89957 88.8215 7.87392 88.9433 7.87392C89.0523 7.87392 89.1293 7.89316 89.1742 7.93163C89.219 7.96369 89.2415 8.0214 89.2415 8.10476C89.2415 8.18812 89.2223 8.31636 89.1838 8.48949C89.1453 8.66262 89.1004 8.85178 89.0491 9.05696C88.9081 9.58276 88.7926 10.0765 88.7029 10.5382C88.6195 10.9934 88.5778 11.4455 88.5778 11.8943C88.5778 12.3176 88.6548 12.6542 88.8087 12.9043C88.642 12.9876 88.4977 13.0453 88.3758 13.0774C88.254 13.1159 88.1226 13.1351 87.9815 13.1351Z" fill="black"/>
</svg>
