<svg width="95" height="61" viewBox="0 0 95 61" fill="none" xmlns="http://www.w3.org/2000/svg">
<path d="M93.623 0.75V59.96H0.75V0.75H93.623Z" fill="#ECF7F9" stroke="black" stroke-width="1.5"/>
<path d="M92.8734 53.1386C92.8734 56.7376 92.8734 59.2605 92.8734 59.2605H1.50005V53.1386V42.5703C1.50005 38.9713 1.5 36.0493 1.5 36.0493H92.8734C92.8734 36.0493 92.8734 38.9713 92.8734 42.5703V53.1386Z" fill="#3F2826"/>
<path d="M70.9395 42.0372C70.9395 44.7565 60.6279 46.9579 47.9076 46.9579C35.1873 46.9579 24.875 44.7565 24.875 42.0372C24.875 39.3216 35.1873 37.1216 47.9076 37.1216C60.6279 37.1216 70.9395 39.3216 70.9395 42.0372Z" fill="#160E0D"/>
<path d="M53.0942 42.8468L50.8097 42.5002L51.4532 39.037L48.7383 37.6712L49.1124 40.8274L42.2553 41.5533L41.5836 35.898L44.5774 35.5817L41.3901 33.979L41.3554 33.9812L41.3525 33.9603L39.1569 32.8559L41.1199 32.0065L40.6837 28.326L40.9033 28.3036L36.6066 25.1762L36.7994 26.7991L29.9417 27.525L29.27 21.8698L36.1277 21.1439L36.2635 22.285L42.2091 19.4748L41.827 18.6009L39.5584 18.8399L38.8867 13.1847L42.061 12.8488L43.044 12.1295L42.1723 10.898L38.66 11.2693L37.989 5.61548L40.4966 5.34969L41.861 2.44263L24.7061 4.25837L28.8669 39.3121C29.7279 40.0438 30.6365 40.7328 31.5855 41.3792L31.0676 37.0125L37.9254 36.2844L38.5971 41.939L33.3305 42.4965C35.6373 43.8681 38.1587 44.9934 40.8375 45.8348L53.2921 44.5167L53.0942 42.8468ZM27.473 6.72774L34.3315 6.00116L35.0025 11.6564L28.1454 12.3823L27.473 6.72774ZM28.3722 14.2991L35.23 13.5725L35.9017 19.2278L29.0446 19.9543L28.3722 14.2991ZM30.8409 35.0956L30.1699 29.4411L37.0269 28.7153L37.6979 34.3698L30.8409 35.0956Z" fill="#B09373"/>
<path d="M34.3312 6.00122L27.4727 6.72779L28.1444 12.383L35.0014 11.6572L34.3312 6.00122Z" fill="#85675D"/>
<path d="M40.4959 5.34961L37.9883 5.61541L38.6593 11.2692L42.1716 10.8987L39.5982 7.26503L40.4959 5.34961Z" fill="#85675D"/>
<path d="M35.2281 13.5725L28.3711 14.2991L29.0428 19.9543L35.8998 19.2277L35.2281 13.5725Z" fill="#85675D"/>
<path d="M42.0593 12.8496L38.8857 13.1855L39.5574 18.8407L41.826 18.6016L39.9778 14.3743L42.0593 12.8496Z" fill="#85675D"/>
<path d="M36.2641 22.2849L36.1283 21.1438L29.2705 21.8697L29.9422 27.5249L36.7993 26.799L36.6064 25.1761L34.0648 23.3243L36.2641 22.2849Z" fill="#85675D"/>
<path d="M30.1689 29.4412L30.8399 35.0957L37.697 34.3698L37.026 28.7153L30.1689 29.4412Z" fill="#85675D"/>
<path d="M39.5859 35.4221L39.617 35.4199L39.583 35.4033L39.5859 35.4221Z" fill="#85675D"/>
<path d="M40.9024 28.3035L40.6836 28.3266L41.1198 32.0064L44.1735 30.6862L40.9024 28.3035Z" fill="#85675D"/>
<path d="M37.9252 36.2844L31.0674 37.0125L31.5852 41.3792C32.1544 41.7678 32.7329 42.1419 33.3302 42.4972L38.5969 41.9397L37.9252 36.2844Z" fill="#85675D"/>
<path d="M41.582 35.8981L42.2537 41.5534L49.1101 40.8275L48.7367 37.6713L44.5758 35.5825L41.582 35.8981Z" fill="#85675D"/>
<path d="M39.5983 7.26504L42.1717 10.8987L43.0435 12.1301L42.0598 12.8495L39.9783 14.3742L41.8265 18.6015L42.2086 19.4754L36.2637 22.285L34.0645 23.3243L36.6061 25.1761L40.9027 28.3035L44.1738 30.6862L41.1201 32.0065L39.1563 32.8559L41.352 33.9602L41.3895 33.9797L44.5768 35.5824L48.7377 37.6711L51.4519 39.0369L51.4751 38.9163L44.0987 34.4289L43.4646 34.07L48.3268 29.9791L40.1126 23.3243L44.2952 19.4603L41.9435 14.8068L44.527 12.1337L41.4285 7.5525L41.8872 2.3855L41.8604 2.44256L40.4961 5.34962L39.5983 7.26504Z" fill="#4F3330"/>
<path d="M62.2143 13.355L62.4353 13.3984L59.3491 15.3564L63.5461 17.6503L63.5974 17.3816L69.8846 18.574L68.8157 24.2105L62.5278 23.0173L63.484 17.9782L59.5918 20.1825L59.1744 22.3817L56.5771 21.8899L55.3349 22.5926L56.7743 23.9042L58.8118 24.2914L58.5742 25.5445L58.9447 25.8825L58.4752 26.0703L57.7436 29.9271L51.4556 28.7347L51.5329 28.3273L48.2965 29.3645L48.5219 28.1778L48.7313 27.0742L51.9778 25.9872L52.526 23.0989L52.5867 23.1105L51.4578 22.4366L53.4144 21.2904L52.8879 21.19L53.9568 15.5536L56.8205 16.0967L56.484 15.9696L59.5716 12.8567L51.712 11.3652L47.2456 34.9106L47.1062 35.6473L46.5256 38.7097L46.5032 38.8317L45.8438 42.3065L47.9563 42.7081L60.5163 45.0901C63.5729 43.8615 66.3723 42.1917 68.8309 40.1744L73.511 15.5001L62.2143 13.355ZM56.3128 37.4717L50.0256 36.2793L51.0938 30.6428L57.3817 31.8353L56.3128 37.4717ZM65.9541 39.3005L59.6662 38.1081L60.7351 32.4709L67.0223 33.664L65.9541 39.3005ZM67.3849 31.7551L61.097 30.5627L62.1659 24.927L68.4538 26.1187L67.3849 31.7551Z" fill="#B09373"/>
<path d="M59.1753 22.3804L59.5921 20.1812L56.5781 21.8893L59.1753 22.3804Z" fill="#85675D"/>
<path d="M60.129 17.3506L56.8204 16.0954L53.9566 15.5522L52.8877 21.1887L53.4142 21.2891L60.129 17.3506Z" fill="#85675D"/>
<path d="M63.4846 17.9775L62.5283 23.0166L68.8162 24.2098L69.8845 18.574L63.5972 17.3809L63.546 17.6503L63.8089 17.794L63.4846 17.9775Z" fill="#85675D"/>
<path d="M58.8119 24.2907L56.7744 23.9036L58.5743 25.5438L58.8119 24.2907Z" fill="#85675D"/>
<path d="M52.5864 23.109L52.5257 23.0974L51.9775 25.9857L55.4552 24.8214L52.5864 23.109Z" fill="#85675D"/>
<path d="M51.5336 28.3259L51.457 28.7333L57.7442 29.9257L58.4766 26.0696L58.0844 26.2242L51.5336 28.3259Z" fill="#85675D"/>
<path d="M62.1757 24.9299L61.1064 30.5657L67.3943 31.7586L68.4635 26.1229L62.1757 24.9299Z" fill="#85675D"/>
<path d="M51.1016 30.6426L50.0322 36.2791L56.3201 37.472L57.3894 31.8355L51.1016 30.6426Z" fill="#85675D"/>
<path d="M60.7461 32.4763L59.6768 38.1128L65.9646 39.3057L67.034 33.6693L60.7461 32.4763Z" fill="#85675D"/>
<path d="M56.8204 16.0952L60.1291 17.3505L53.4143 21.289L51.4577 22.4352L52.5866 23.109L55.4554 24.8215L51.9777 25.9858L48.7319 27.0727L48.5225 28.1771L56.7756 25.6867L57.2061 25.5149L53.1391 22.537L62.2951 17.7622L58.0237 15.2842L60.6548 13.0596L59.5715 12.8545V12.8552L56.4838 15.9681L56.8204 16.0952Z" fill="#4F3330"/>
<path d="M58.0234 15.2841L62.2948 17.7621L53.1389 22.5369L57.2059 25.5148L56.7754 25.6867L48.5222 28.177L48.2969 29.363L58.9458 25.8817L58.5752 25.5437L56.7754 23.9034L55.3359 22.5911L56.5782 21.8891L59.5922 20.181L63.4851 17.9774L63.8094 17.7939L63.5465 17.6502L59.3502 15.3563L62.4357 13.3983L62.2147 13.355L60.6546 13.0596L58.0234 15.2841Z" fill="#3F2826"/>
<path d="M28.5518 40.1311C28.5518 40.1311 63.9096 44.8041 65.7622 43.8449L62.2932 45.0879C62.2932 45.0879 40.6502 47.0719 36.3528 45.8947C36.3528 45.8947 28.9035 43.0909 28.5518 40.1311Z" fill="#160E0D"/>
<path d="M40.8428 56.9957L41.0378 53.8568L43.5216 54.6267L42.5776 48.6024L46.7212 49.7284L47.7157 47.0734L49.5502 47.194L50.0443 44.2421L52.5216 43.1118L51.1255 45.0294L50.5166 48.0997L48.6503 48.429L48.1086 51.0385L45.7353 51.1721L46.3138 56.3478L42.9922 56.2012L44.0799 58.5362C44.0799 58.5362 42.569 57.8992 41.7745 57.4911C41.7745 57.4911 41.3079 57.3207 40.8428 56.9957Z" fill="#160E0D"/>
<path d="M52.5215 43.1118L51.1254 45.0294L50.5165 48.0997L48.6503 48.429L48.1086 51.0385L45.7352 51.1721L46.3138 56.3478L42.9921 56.2012L44.0799 58.5362C44.0799 58.5362 42.574 58.0386 42.2222 57.6536L42.1998 56.0278L42.1045 55.6891L45.1993 55.6783L44.6649 50.5272L47.4463 50.3856L48.2443 47.8635L50.0608 47.6656L50.5758 44.9333L52.5215 43.1118Z" fill="#211514"/>
<path d="M80.4486 11.7501C79.7176 11.7501 79.1373 11.593 78.7077 11.2788C78.2845 10.9646 78.0729 10.5318 78.0729 9.98032C78.0729 9.71742 78.1338 9.46414 78.2556 9.22047C78.3775 8.9704 78.5955 8.71712 78.9097 8.46063C79.2239 8.20415 79.6567 7.94766 80.2082 7.69117C80.6955 7.47316 81.0738 7.25515 81.3431 7.03713C81.6124 6.81271 81.7952 6.59469 81.8913 6.38309C81.9939 6.17149 82.0452 5.94706 82.0452 5.70981C82.0452 5.42768 81.9491 5.20325 81.7567 5.03654C81.5707 4.86982 81.3143 4.78646 80.9872 4.78646C80.6346 4.78646 80.3428 4.87303 80.112 5.04615C79.8875 5.21287 79.7753 5.45012 79.7753 5.7579C79.7753 5.97592 79.8427 6.1779 79.9773 6.36385C80.112 6.54981 80.2787 6.71973 80.4775 6.87362C80.6827 7.02751 80.9584 7.21667 81.3046 7.4411C81.715 7.704 82.0452 7.93484 82.2953 8.13361C82.5454 8.32598 82.757 8.55361 82.9301 8.81651C83.1032 9.07941 83.1898 9.37437 83.1898 9.70139C83.1898 10.0989 83.0744 10.4548 82.8436 10.769C82.6127 11.0768 82.2889 11.3173 81.8721 11.4904C81.4553 11.6635 80.9808 11.7501 80.4486 11.7501ZM80.5448 10.9421C80.9488 10.9421 81.2854 10.8428 81.5547 10.644C81.824 10.4388 81.9587 10.1534 81.9587 9.78795C81.9587 9.60841 81.8946 9.43528 81.7663 9.26857C81.6381 9.10185 81.481 8.94796 81.295 8.80689C81.1091 8.66582 80.8494 8.47987 80.5159 8.24903C80.0927 7.9669 79.7497 7.72003 79.4868 7.50843C79.2303 7.29682 79.0091 7.05316 78.8231 6.77744C78.6372 6.50172 78.5442 6.20034 78.5442 5.87332C78.5442 5.50142 78.6436 5.17119 78.8424 4.88264C79.0476 4.5941 79.3361 4.37288 79.708 4.21898C80.0799 4.05868 80.5095 3.97853 80.9968 3.97853C81.6509 3.97853 82.1671 4.13563 82.5454 4.44982C82.9237 4.76402 83.1129 5.18402 83.1129 5.70981C83.1129 6.14584 82.9269 6.56584 82.555 6.9698C82.1831 7.36736 81.6509 7.72003 80.9584 8.02781C80.4069 8.27147 79.9645 8.56323 79.6311 8.90307C79.304 9.24292 79.1405 9.602 79.1405 9.98032C79.1405 10.2689 79.272 10.5029 79.5349 10.6824C79.7978 10.8556 80.1344 10.9421 80.5448 10.9421ZM86.0383 12.6638C85.5061 12.6638 85.24 12.3528 85.24 11.7308C85.24 11.0255 85.4548 10.1406 85.8844 9.0762C86.314 8.01178 86.8911 6.91851 87.6157 5.79638L88.8565 5.40203C88.491 5.95348 88.1383 6.58507 87.7985 7.29682C87.4586 8.00858 87.1797 8.74597 86.9617 9.50902C86.7437 10.2721 86.6346 10.9838 86.6346 11.6443C86.6346 11.8302 86.6411 11.9777 86.6539 12.0867C86.6731 12.2021 86.7116 12.3208 86.7693 12.4426C86.5321 12.5901 86.2884 12.6638 86.0383 12.6638ZM87.0098 6.20034C86.3814 6.20034 85.878 6.17149 85.4997 6.11378C85.1278 6.04966 84.8553 5.95348 84.6821 5.82523C84.509 5.69058 84.4224 5.51104 84.4224 5.28661C84.4224 5.1776 84.4385 5.0686 84.4705 4.95959C84.5026 4.84417 84.5411 4.74478 84.586 4.66142C85.054 4.8602 85.5766 5.02692 86.1537 5.16157C86.7308 5.28982 87.2534 5.36676 87.7215 5.39241C87.8305 5.18722 87.962 5.02692 88.1159 4.9115C88.2762 4.78967 88.4461 4.72875 88.6256 4.72875C88.8372 4.72875 88.9975 4.78005 89.1065 4.88264C89.2155 4.97883 89.27 5.11989 89.27 5.30585C89.27 5.62004 89.0873 5.84767 88.7218 5.98874C88.3563 6.12981 87.7856 6.20034 87.0098 6.20034Z" fill="black"/>
</svg>
