<svg width="95" height="61" viewBox="0 0 95 61" fill="none" xmlns="http://www.w3.org/2000/svg">
<path d="M93.623 0.75V59.96H0.75V0.75H93.623Z" fill="#3BA15C" stroke="black" stroke-width="1.5"/>
<path d="M85.832 13.0004C85.287 13.0004 84.8798 12.9267 84.6105 12.7792C84.3476 12.6317 84.2162 12.4105 84.2162 12.1156C84.2162 11.9296 84.2899 11.7757 84.4374 11.6539C84.5913 11.5321 84.7772 11.4711 84.9953 11.4711C85.1876 11.4711 85.3768 11.5417 85.5627 11.6827C85.7487 11.8238 85.9026 12.0162 86.0244 12.2598C86.4091 12.2598 86.7618 12.1861 87.0824 12.0386C87.403 11.8911 87.6563 11.6892 87.8423 11.4327C88.0282 11.1762 88.1212 10.8941 88.1212 10.5863C88.1212 10.3105 88.0442 10.0509 87.8904 9.80719C87.7429 9.55711 87.5633 9.40002 87.3517 9.33589C86.9285 9.61803 86.5694 9.7591 86.2745 9.7591C86.1014 9.7591 85.9539 9.7078 85.832 9.6052C85.7166 9.4962 85.6589 9.36475 85.6589 9.21086C85.6589 8.98643 85.7551 8.80689 85.9475 8.67223C86.1462 8.53758 86.4059 8.47025 86.7265 8.47025C87.2267 8.47025 87.6755 8.56002 88.0731 8.73956C88.4707 8.91269 88.7816 9.15315 89.0061 9.46093C89.2305 9.76871 89.3427 10.1182 89.3427 10.5093C89.3427 10.9838 89.192 11.4102 88.8907 11.7885C88.5893 12.1669 88.1693 12.4618 87.6307 12.6734C87.0985 12.8914 86.4989 13.0004 85.832 13.0004ZM86.7458 8.76842C87.201 8.6017 87.5665 8.34842 87.8423 8.00858C88.118 7.66873 88.2558 7.30003 88.2558 6.90248C88.2558 6.48569 88.1629 6.1747 87.9769 5.96951C87.791 5.76432 87.5088 5.66172 87.1305 5.66172C86.874 5.66172 86.6368 5.73226 86.4188 5.87332C86.2072 6.00798 86.0308 6.19714 85.8898 6.4408C85.7551 6.67805 85.6782 6.94416 85.6589 7.23912C85.4281 7.20705 85.2453 7.1237 85.1107 6.98904C84.9824 6.85439 84.9183 6.67805 84.9183 6.46004C84.9183 6.1266 85.0209 5.83164 85.2261 5.57516C85.4313 5.31867 85.723 5.11989 86.1014 4.97883C86.4797 4.83776 86.9157 4.76722 87.4094 4.76722C87.807 4.76722 88.1629 4.84417 88.4771 4.99806C88.7913 5.15195 89.0349 5.36676 89.2081 5.64249C89.3876 5.91821 89.4774 6.2292 89.4774 6.57546C89.4774 7.03072 89.3235 7.47637 89.0157 7.91239C88.7143 8.34201 88.2783 8.73636 87.7076 9.09544L86.7458 8.76842Z" fill="black"/>
</svg>
