<svg width="95" height="61" viewBox="0 0 95 61" fill="none" xmlns="http://www.w3.org/2000/svg">
<path d="M93.623 0.75V59.96H0.75V0.75H93.623Z" fill="#E1F5FB" stroke="black" stroke-width="1.5"/>
<path d="M92.8733 59.0888H2.5L8.69917 41.0794L14.8929 31.7969L23.1564 37.9176L29.355 35.3331L36.5836 14.6772L47.4268 4.5L50.5262 11.5779L59.3044 13.6472L62.9185 24.4904L70.1471 29.1394L77.8959 47.7259L92.8733 59.0888Z" fill="white"/>
<path d="M64.7701 59.0888H2.5L8.69917 41.0794L14.8929 31.7969L23.1564 37.9176L29.355 35.3331L36.5836 14.6772L47.4268 4.5L44.4158 13.4652L48.6542 23.2839L46.5372 31.7969L60.1678 37.216L64.7701 59.0888Z" fill="#9BD6EA"/>
<path d="M29.3549 35.3333L36.3056 41.3373L38.8403 51.7584L34.0976 41.8219L35.1692 53.4549L30.6003 43.2761L24.7843 44.3944L23.1562 37.9178L29.3549 35.3333Z" fill="#BBE4F1"/>
<path d="M14.8936 31.7969L19.6313 59.0888L24.7851 44.3942L23.1571 37.9176L14.8936 31.7969Z" fill="#E6F5FA"/>
<path d="M50.5264 11.5779L44.416 13.4652L59.3047 13.6472L50.5264 11.5779Z" fill="#9BD6EA"/>
<path d="M48.6541 23.2839V30.6737L57.986 26.9785L50.8369 31.7942L60.1677 37.216L46.5371 31.7969L48.6541 23.2839Z" fill="#E6F5FA"/>
<path d="M77.8956 47.7261L70.2246 54.4241L77.8956 51.0753L92.873 59.0889L77.8956 47.7261Z" fill="#E6F5FA"/>
<path d="M70.1473 29.1394L70.2251 54.4239L64.7703 59.0888L60.168 37.216L70.1473 29.1394Z" fill="#BBE4F1"/>
<path d="M46.5371 31.7969V34.4905L53.3524 44.1141L50.292 35.3331L60.1677 37.216L46.5371 31.7969Z" fill="#BBE4F1"/>
<path d="M8.69917 41.0796L13.5756 59.0889H2.5L8.69917 41.0796Z" fill="#BBE4F1"/>
<path d="M57.1979 59.0886L48.4454 41.7612L50.2916 50.084L50.0499 55.0295L43.5662 56.4838L35.1689 59.0886H57.1979Z" fill="#BBE4F1"/>
<path d="M36.5841 14.6773L44.4162 13.4653L37.932 16.8601L29.3555 35.3332L36.5841 14.6773Z" fill="#BBE4F1"/>
<path d="M48.6544 23.284L59.3047 13.6473L44.416 13.4653L48.6544 23.284Z" fill="#E6F5FA"/>
<path d="M86.7106 12.6638C86.1784 12.6638 85.9123 12.3528 85.9123 11.7308C85.9123 11.0255 86.1271 10.1406 86.5567 9.0762C86.9863 8.01178 87.5634 6.91851 88.288 5.79638L89.5287 5.40203C89.1632 5.95348 88.8106 6.58507 88.4707 7.29682C88.1309 8.00858 87.8519 8.74597 87.6339 9.50902C87.4159 10.2721 87.3069 10.9838 87.3069 11.6443C87.3069 11.8302 87.3133 11.9777 87.3261 12.0867C87.3454 12.2021 87.3839 12.3208 87.4416 12.4426C87.2043 12.5901 86.9607 12.6638 86.7106 12.6638ZM87.682 6.20034C87.0536 6.20034 86.5503 6.17149 86.172 6.11378C85.8 6.04966 85.5275 5.95348 85.3544 5.82523C85.1813 5.69058 85.0947 5.51104 85.0947 5.28661C85.0947 5.1776 85.1107 5.0686 85.1428 4.95959C85.1749 4.84417 85.2133 4.74478 85.2582 4.66142C85.7263 4.8602 86.2489 5.02692 86.826 5.16157C87.4031 5.28982 87.9257 5.36676 88.3938 5.39241C88.5028 5.18722 88.6342 5.02692 88.7881 4.9115C88.9484 4.78967 89.1183 4.72875 89.2979 4.72875C89.5095 4.72875 89.6698 4.78005 89.7788 4.88264C89.8878 4.97883 89.9423 5.11989 89.9423 5.30585C89.9423 5.62004 89.7596 5.84767 89.3941 5.98874C89.0286 6.12981 88.4579 6.20034 87.682 6.20034Z" fill="black"/>
</svg>
