<svg width="95" height="61" viewBox="0 0 95 61" fill="none" xmlns="http://www.w3.org/2000/svg">
<path d="M93.623 0.75V59.96H0.75V0.75H93.623Z" fill="#3BA15C" stroke="black" stroke-width="1.5"/>
<path d="M76.2949 41.2479C73.7655 44.689 66.4491 48.3944 63.2876 47.779C62.9394 47.7113 62.2379 47.593 61.2619 47.436C59.2497 47.112 56.0715 46.6217 52.419 46.0629C48.0596 45.3965 43.0244 44.6326 38.4914 43.9381C31.928 42.9328 26.4166 42.0735 25.5309 41.8658C23.9112 41.4859 21.9199 40.5614 20.3899 38.409C19.787 37.5604 19.2558 36.521 18.8469 35.2487C18.6007 34.4833 18.4427 33.6086 18.3726 32.6776C18.329 32.097 18.3197 31.4945 18.3447 30.8831C18.3955 29.6369 18.5902 28.3531 18.9294 27.142C19.3994 25.4638 20.147 23.924 21.1767 22.8137C21.8904 22.0441 22.7391 21.4809 23.7249 21.2207C25.5563 20.7371 39.0243 22.9298 51.4794 25.1408C56.0701 25.9561 60.5233 26.7736 64.2053 27.461H64.2063C68.7637 28.3116 72.14 28.9625 73.1338 29.161C73.2364 29.1815 73.337 29.2065 73.4365 29.2361C77.1932 30.3567 78.7585 37.8956 76.2949 41.2479Z" fill="white"/>
<path opacity="0.6" d="M64.2048 27.4611C64.0024 27.4339 57.6142 30.4846 54.9832 34.6898C53.0645 37.7566 52.4361 43.1366 52.4187 46.0628C48.0594 45.3964 43.0242 44.6325 38.4911 43.938L37.4785 29.9234C37.4785 29.9234 44.8778 27.396 51.4788 25.1409C56.0696 25.9562 60.523 26.7737 64.2048 27.4611Z" fill="white"/>
<path d="M63.7642 24.573C63.4871 25.0613 63.1459 25.5058 62.7456 25.8966C60.5206 28.0699 45.2641 42.6532 39.2231 47.8097C38.1515 48.7242 37.3698 49.3423 37.0024 49.5415C34.5634 50.8649 27.0662 51.2179 22.1889 48.5711C17.311 45.9244 15.8658 37.2402 17.5821 34.3476C19.7212 30.7424 46.9383 12.3097 49.648 10.8981C50.5256 10.4407 51.6775 10.169 52.9665 10.157C54.1134 10.1457 55.3688 10.3409 56.6351 10.7947C57.4614 11.0908 58.2924 11.497 59.101 12.028C59.9604 12.5922 60.7948 13.2977 61.5711 14.1622C61.8119 14.43 62.0372 14.7003 62.2476 14.9713C62.7549 15.6248 63.1754 16.2866 63.5139 16.9463C64.152 18.1893 64.5003 19.4264 64.59 20.596C64.7041 22.0722 64.4071 23.4401 63.7642 24.573Z" fill="white"/>
<path d="M74.4275 40.7298C72.0186 44.007 65.0505 47.536 62.0396 46.9499C61.7079 46.8854 61.0398 46.7728 60.1103 46.6233C58.1939 46.3146 55.167 45.8477 51.6884 45.3155C47.5367 44.6808 42.7412 43.9533 38.424 43.2919C32.1731 42.3345 26.9242 41.5161 26.0807 41.3182C24.538 40.9565 22.6415 40.076 21.1844 38.0261C20.6103 37.2179 20.1043 36.228 19.7149 35.0162C19.4805 34.2873 19.33 33.4542 19.2632 32.5675C19.2217 32.0146 19.2129 31.4408 19.2366 30.8585C19.285 29.6717 19.4704 28.449 19.7935 27.2956C20.2411 25.6973 20.9531 24.2308 21.9338 23.1733C22.6135 22.4404 23.4218 21.904 24.3606 21.6562C26.1048 21.1956 38.9315 23.2839 50.7936 25.3896C55.1657 26.1661 59.4068 26.9447 62.9135 27.5994H62.9145C67.2549 28.4094 70.4704 29.0293 71.4169 29.2184C71.5146 29.238 71.6104 29.2618 71.7052 29.29C75.283 30.3572 76.7737 37.5371 74.4275 40.7298Z" fill="url(#paint0_linear_126_486)"/>
<path opacity="0.3" d="M68.4227 31.1211L65.9784 33.7001C65.9784 33.7001 47.5147 28.6133 42.6737 28.4703C39.022 28.362 25.9813 27.6425 19.793 27.2956C20.2406 25.6973 20.9526 24.2308 21.9333 23.1733C26.1977 24.3884 34.1239 26.4753 38.7129 26.6791C45.1675 26.9655 68.4227 31.1211 68.4227 31.1211Z" fill="url(#paint1_linear_126_486)"/>
<path opacity="0.3" d="M65.4579 35.7449L61.6537 41.2266C61.6537 41.2266 50.3759 35.1208 43.2611 34.3028C37.7976 33.6747 24.9387 32.8955 19.2632 32.5675C19.2217 32.0146 19.2129 31.4407 19.2366 30.8584C26.4499 30.7771 41.0925 30.4522 43.7745 30.8343C47.295 31.3357 65.4579 35.7449 65.4579 35.7449Z" fill="url(#paint2_linear_126_486)"/>
<path opacity="0.3" d="M60.1104 46.623C52.5954 45.4128 27.9948 41.7666 26.0808 41.318C24.5382 40.9563 22.6417 40.0758 21.1846 38.0259C29.8538 38.6535 43.738 40.0053 46.6348 40.4742C49.6662 40.9649 56.5523 44.6394 60.1104 46.623Z" fill="url(#paint3_linear_126_486)"/>
<path opacity="0.4" d="M74.4285 40.7298C72.0195 44.007 65.0515 47.536 62.0406 46.9498C61.7089 46.8854 61.0408 46.7727 60.1112 46.6232C58.1949 46.3146 55.168 45.8477 51.6894 45.3155C47.5376 44.6808 42.7422 43.9532 38.425 43.2919C32.1741 42.3344 26.9252 41.5161 26.0816 41.3182C24.539 40.9564 22.6425 40.0759 21.1854 38.026C20.6112 37.2179 20.1053 36.2279 19.7158 35.0162C19.4814 34.2873 19.3309 33.4542 19.2641 32.5675C19.2227 32.0146 19.2138 31.4407 19.2376 30.8585C19.2859 29.6716 19.4714 28.4489 19.7944 27.2955C20.1324 26.0881 20.6217 24.956 21.2634 24.0185C21.4322 25.5838 22.1877 26.9679 23.5189 27.1443C25.5808 27.4176 29.9357 24.2789 31.8867 22.2866C37.0362 23.0078 44.0702 24.1958 50.7944 25.3897C54.3911 26.0285 57.8992 26.6687 60.9827 27.24C57.3754 29.6858 52.732 36.3412 54.4838 39.5976C56.576 43.4871 67.7959 44.6451 74.4285 40.7298Z" fill="url(#paint4_linear_126_486)" fill-opacity="0.1"/>
<path opacity="0.6" d="M62.9137 27.5994C62.7209 27.5735 56.6369 30.4789 54.1311 34.4839C52.3038 37.4047 51.7053 42.5285 51.6888 45.3154C47.537 44.6807 42.7415 43.9531 38.4243 43.2918L37.46 29.9444C37.46 29.9444 44.507 27.5374 50.7936 25.3896C55.1658 26.1661 59.4072 26.9448 62.9137 27.5994Z" fill="url(#paint5_linear_126_486)" fill-opacity="0.1"/>
<path d="M72.3424 41.9886C68.4805 45.2779 62.7324 46.8005 60.7076 45.7621C58.6824 44.724 59.7456 38.5433 59.7456 38.5433L55.5439 36.7632L61.5176 35.5271C61.5176 35.5271 65.3245 30.4662 69.2627 29.9893C75.7927 29.1982 75.7625 39.0753 72.3424 41.9886Z" fill="url(#paint6_linear_126_486)"/>
<path opacity="0.4" d="M68.9032 34.4793C65.5871 35.3737 63.3542 41.886 65.5557 41.6974C70.2297 41.2963 74.3848 33.0006 68.9032 34.4793ZM66.5324 40.4718C65.0138 40.6021 66.8596 35.7727 69.1467 35.1558C72.9279 34.1358 69.7562 40.195 66.5324 40.4718Z" fill="url(#paint7_linear_126_486)"/>
<path opacity="0.4" d="M70.2554 31.8313C66.3211 32.5827 61.3411 38.7162 61.5482 42.5302C61.7217 45.7279 65.534 44.9387 69.406 42.5522C72.9421 40.3726 75.6543 30.8003 70.2554 31.8313ZM69.115 41.8095C66.026 43.4022 63.2551 43.7082 63.1101 41.037C62.9372 37.8508 66.6516 33.529 69.9382 32.9014C74.4482 32.0401 72.2037 40.2164 69.115 41.8095Z" fill="url(#paint8_linear_126_486)"/>
<path opacity="0.4" d="M68.76 37.0604C67.3394 37.316 66.477 39.3367 67.6662 38.8489C68.8551 38.3612 69.6636 36.8978 68.76 37.0604Z" fill="url(#paint9_linear_126_486)"/>
<path opacity="0.4" d="M71.7052 29.2901C67.4247 28.2873 64.0259 30.652 61.0497 34.1343C60.7231 34.5166 55.5439 36.7634 55.5439 36.7634L59.7456 38.5434C58.4614 40.3108 58.0596 44.7038 60.1107 46.6232C61.0403 46.7729 61.7085 46.8856 62.04 46.9498C65.051 47.536 72.019 44.007 74.4279 40.7298C76.7742 37.537 75.2834 30.3572 71.7052 29.2901Z" fill="url(#paint10_linear_126_486)" fill-opacity="0.1"/>
<path opacity="0.4" d="M61.5176 35.5273L62.9136 37.2588L55.5439 36.7633L61.5176 35.5273Z" fill="url(#paint11_linear_126_486)" fill-opacity="0.1"/>
<path d="M62.4941 24.8487C62.2302 25.3137 61.9052 25.7371 61.524 26.1092C59.4049 28.1791 44.8749 42.068 39.1215 46.979C38.101 47.8499 37.3565 48.4386 37.0066 48.6284C34.6837 49.8887 27.5435 50.2249 22.8984 47.7041C18.2528 45.1834 16.8765 36.9127 18.511 34.1579C20.5482 30.7243 46.4694 13.1694 49.05 11.825C49.8859 11.3893 50.9829 11.1306 52.2105 11.1191C53.3028 11.1083 54.4984 11.2943 55.7045 11.7265C56.4914 12.0084 57.2829 12.3953 58.0529 12.9011C58.8715 13.4384 59.666 14.1103 60.4054 14.9337C60.6347 15.1887 60.8493 15.4461 61.0497 15.7042C61.5329 16.3266 61.9333 16.9569 62.2557 17.5852C62.8635 18.769 63.1951 19.9471 63.2806 21.061C63.3893 22.467 63.1063 23.7698 62.4941 24.8487Z" fill="url(#paint12_linear_126_486)"/>
<path opacity="0.3" d="M55.7046 11.7264C52.4977 14.0005 45.7167 18.8203 39.9141 23.0243C31.9982 28.7592 26.2195 37.7014 26.2195 37.9325C26.2195 38.1634 20.52 36.9284 20.721 35.0399C20.922 33.1516 32.1566 26.2581 38.1726 22.3148C42.1921 19.6801 48.4027 14.4569 52.2106 11.1188C53.3029 11.1085 54.4985 11.2944 55.7046 11.7264Z" fill="url(#paint13_linear_126_486)"/>
<path opacity="0.3" d="M61.0496 15.7042C57.6129 17.0818 52.3634 19.244 48.1467 21.2324C41.2597 24.4797 30.2041 38.0145 30.2041 38.0145L28.0449 37.0476C28.0449 37.0476 37.1437 27.8818 41.6556 24.1705C44.6837 21.6798 52.9167 16.2642 58.0528 12.9009C58.8714 13.4382 59.666 14.1102 60.4054 14.9335C60.6347 15.1887 60.8492 15.4461 61.0496 15.7042Z" fill="url(#paint14_linear_126_486)"/>
<path opacity="0.3" d="M63.281 21.0613C59.8268 22.2485 55.4084 23.9867 52.0258 26.0262C45.6139 29.8922 34.8649 45.0937 34.8649 45.0937C34.8649 45.0937 31.61 39.8361 31.7609 39.1306C31.9115 38.4253 43.4765 29.0416 48.226 25.4078C51.1151 23.1971 57.5489 19.8994 62.2559 17.5854C62.8639 18.7692 63.1955 19.9474 63.281 21.0613Z" fill="url(#paint15_linear_126_486)"/>
<path opacity="0.3" d="M62.4946 24.8486C62.2307 25.3137 61.9057 25.737 61.5245 26.1092C59.4054 28.179 44.8754 42.0679 39.1221 46.9789C42.3553 42.3214 47.8703 34.4979 49.889 32.3665C51.6578 30.4983 57.8174 27.1914 62.4946 24.8486Z" fill="url(#paint16_linear_126_486)"/>
<path opacity="0.4" d="M63.2806 21.0615C63.1951 19.9476 62.8637 18.7694 62.2557 17.5857C61.9333 16.9571 61.5329 16.3271 61.0497 15.7047C60.8493 15.4466 60.6347 15.189 60.4054 14.9341C59.666 14.1108 58.8715 13.4389 58.0529 12.9015C57.2829 12.3958 56.4914 12.0087 55.7045 11.727C54.4984 11.295 53.3026 11.109 52.2105 11.1196C50.9829 11.1311 49.8859 11.3898 49.05 11.8254C46.4694 13.1698 20.5482 30.7246 18.511 34.1582C16.8765 36.913 18.2528 45.1837 22.8984 47.7044C27.5435 50.2252 34.6837 49.889 37.0066 48.6286C37.3565 48.4388 38.101 47.8502 39.1215 46.9793C44.8749 42.0683 59.4049 28.1796 61.524 26.1095C61.9052 25.7374 62.2302 25.3138 62.4941 24.849C63.1063 23.7699 63.3893 22.4671 63.2806 21.0615ZM52.4312 31.033C47.7497 34.3434 39.4361 38.9189 35.1266 34.3029C30.817 29.6869 33.2529 25.2609 37.4603 21.5918C47.2428 13.0604 55.8735 11.8266 59.7146 16.2426C63.8848 21.0375 57.1127 27.7228 52.4312 31.033Z" fill="url(#paint17_linear_126_486)" fill-opacity="0.1"/>
<path opacity="0.4" d="M19.8285 35.3523C18.4574 36.1221 18.0334 43.0168 21.7658 46.4076C25.0839 49.422 35.2669 49.2046 36.152 47.342C37.0374 45.4795 20.9783 34.7067 19.8285 35.3523Z" fill="url(#paint18_linear_126_486)" fill-opacity="0.1"/>
<path d="M36.6664 46.3715C36.4639 47.0008 36.1259 47.4925 35.6457 47.7759C33.3148 49.1514 24.9352 47.7514 22.6045 45.9491C20.4574 44.2888 18.3986 38.4055 19.4797 35.9137C19.5723 35.7001 19.688 35.5112 19.8287 35.3523C22.643 32.1736 29.7699 33.9521 33.3633 37.0352C36.2163 39.4828 37.4469 43.9472 36.6664 46.3715Z" fill="url(#paint19_linear_126_486)"/>
<path opacity="0.4" d="M34.179 40.8715C30.8825 34.7773 23.7231 34.8813 21.6111 36.3906C19.3633 37.9973 21.5083 45.4464 26.5044 46.5029C31.5007 47.5594 37.4752 46.9653 34.179 40.8715ZM26.0409 45.6886C22.0944 44.8542 20.7627 38.5654 22.5383 37.296C24.2063 36.104 29.515 35.8532 32.1186 40.6667C34.7227 45.4802 29.9873 46.5233 26.0409 45.6886Z" fill="url(#paint20_linear_126_486)"/>
<path opacity="0.4" d="M31.2731 42.715C30.8198 40.1539 27.7442 38.2188 25.4459 38.2564C21.9928 38.3134 23.1474 42.9678 25.8667 43.9798C28.5859 44.9916 31.6651 44.9305 31.2731 42.715ZM26.2633 43.2781C24.2929 42.545 22.9118 39.1722 25.4134 39.1312C27.0787 39.1037 29.8515 40.5063 30.1798 42.3617C30.4639 43.9671 28.2332 44.0111 26.2633 43.2781Z" fill="url(#paint21_linear_126_486)"/>
<path opacity="0.4" d="M26.5136 40.6732C24.6935 40.8793 26.4717 42.5033 27.6898 42.4525C28.9076 42.4016 28.3091 40.4699 26.5136 40.6732Z" fill="url(#paint22_linear_126_486)"/>
<path opacity="0.4" d="M37.0066 48.6282C34.6837 49.8885 27.5435 50.2247 22.8984 47.7039C18.2528 45.1832 16.8765 36.9125 18.511 34.1577C22.5288 29.9169 30.6791 33.2342 33.6083 35.5271C36.5377 37.8201 40.7828 44.5656 37.0066 48.6282Z" fill="url(#paint23_linear_126_486)" fill-opacity="0.1"/>
<path d="M82.5355 11.7405C82.3111 11.7405 82.1412 11.6571 82.0258 11.4904C81.9104 11.3173 81.8527 11.0672 81.8527 10.7402C81.8527 10.2079 81.9039 9.6052 82.0065 8.93193C82.1091 8.25224 82.2759 7.41224 82.5067 6.41195C82.1797 6.41195 81.9104 6.34782 81.6988 6.21958C81.4936 6.09134 81.3685 5.9118 81.3236 5.68096C81.6314 5.59119 81.8943 5.49821 82.1123 5.40203C82.3368 5.30585 82.5804 5.18722 82.8433 5.04615C83.0293 4.94356 83.1768 4.87303 83.2858 4.83455C83.3948 4.78967 83.5006 4.76722 83.6032 4.76722C83.8597 4.76722 83.9879 4.9147 83.9879 5.20966C83.9879 5.30585 83.9623 5.48218 83.911 5.73867C83.8597 5.98874 83.7987 6.26126 83.7282 6.55622C83.5294 7.40904 83.3691 8.15926 83.2473 8.80689C83.1319 9.45452 83.0742 10.0637 83.0742 10.6344C83.0742 10.9806 83.1287 11.282 83.2377 11.5385C82.9876 11.6731 82.7536 11.7405 82.5355 11.7405ZM87.0065 11.7405C86.7821 11.7405 86.6122 11.6571 86.4968 11.4904C86.3813 11.3173 86.3236 11.0672 86.3236 10.7402C86.3236 10.2079 86.3749 9.6052 86.4775 8.93193C86.5801 8.25224 86.7468 7.41224 86.9777 6.41195C86.6507 6.41195 86.3813 6.34782 86.1697 6.21958C85.9646 6.09134 85.8395 5.9118 85.7946 5.68096C86.1024 5.59119 86.3653 5.49821 86.5833 5.40203C86.8078 5.30585 87.0514 5.18722 87.3143 5.04615C87.5003 4.94356 87.6477 4.87303 87.7568 4.83455C87.8658 4.78967 87.9716 4.76722 88.0742 4.76722C88.3306 4.76722 88.4589 4.9147 88.4589 5.20966C88.4589 5.30585 88.4332 5.48218 88.3819 5.73867C88.3306 5.98874 88.2697 6.26126 88.1992 6.55622C88.0004 7.40904 87.8401 8.15926 87.7183 8.80689C87.6029 9.45452 87.5452 10.0637 87.5452 10.6344C87.5452 10.9806 87.5997 11.282 87.7087 11.5385C87.4586 11.6731 87.2245 11.7405 87.0065 11.7405Z" fill="black"/>
<defs>
<linearGradient id="paint0_linear_126_486" x1="45.2232" y1="44.0189" x2="49.3675" y2="23.4025" gradientUnits="userSpaceOnUse">
<stop offset="1e-08" stop-color="#AE3353"/>
<stop offset="0.0887" stop-color="#AF3A50"/>
<stop offset="0.3713" stop-color="#B24D47"/>
<stop offset="0.6682" stop-color="#B45743"/>
<stop offset="1" stop-color="#B55B41"/>
</linearGradient>
<linearGradient id="paint1_linear_126_486" x1="19.793" y1="28.4366" x2="68.4226" y2="28.4366" gradientUnits="userSpaceOnUse">
<stop offset="1e-08" stop-color="#AE3353"/>
<stop offset="0.0887" stop-color="#AF3A50"/>
<stop offset="0.3713" stop-color="#B24D47"/>
<stop offset="0.6682" stop-color="#B45743"/>
<stop offset="1" stop-color="#B55B41"/>
</linearGradient>
<linearGradient id="paint2_linear_126_486" x1="19.2237" y1="35.9393" x2="65.4579" y2="35.9393" gradientUnits="userSpaceOnUse">
<stop offset="1e-08" stop-color="#AE3353"/>
<stop offset="0.0887" stop-color="#AF3A50"/>
<stop offset="0.3713" stop-color="#B24D47"/>
<stop offset="0.6682" stop-color="#B45743"/>
<stop offset="1" stop-color="#B55B41"/>
</linearGradient>
<linearGradient id="paint3_linear_126_486" x1="21.1846" y1="42.3246" x2="60.1105" y2="42.3246" gradientUnits="userSpaceOnUse">
<stop offset="1e-08" stop-color="#AE3353"/>
<stop offset="0.0887" stop-color="#AF3A50"/>
<stop offset="0.3713" stop-color="#B24D47"/>
<stop offset="0.6682" stop-color="#B45743"/>
<stop offset="1" stop-color="#B55B41"/>
</linearGradient>
<linearGradient id="paint4_linear_126_486" x1="53.334" y1="56.8051" x2="54.6423" y2="60.9508" gradientUnits="userSpaceOnUse">
<stop stop-color="#8613D1"/>
<stop offset="0.1536" stop-color="#8816D2"/>
<stop offset="0.2867" stop-color="#8D21D4"/>
<stop offset="0.4122" stop-color="#9633D7"/>
<stop offset="0.5332" stop-color="#A34CDC"/>
<stop offset="0.6508" stop-color="#B46CE2"/>
<stop offset="0.7659" stop-color="#C894EA"/>
<stop offset="0.8791" stop-color="#E0C3F3"/>
<stop offset="0.9879" stop-color="#FCF9FE"/>
<stop offset="1" stop-color="white"/>
</linearGradient>
<linearGradient id="paint5_linear_126_486" x1="49.5072" y1="34.3718" x2="58.6073" y2="43.1862" gradientUnits="userSpaceOnUse">
<stop stop-color="#8613D1"/>
<stop offset="0.1536" stop-color="#8816D2"/>
<stop offset="0.2867" stop-color="#8D21D4"/>
<stop offset="0.4122" stop-color="#9633D7"/>
<stop offset="0.5332" stop-color="#A34CDC"/>
<stop offset="0.6508" stop-color="#B46CE2"/>
<stop offset="0.7659" stop-color="#C894EA"/>
<stop offset="0.8791" stop-color="#E0C3F3"/>
<stop offset="0.9879" stop-color="#FCF9FE"/>
<stop offset="1" stop-color="white"/>
</linearGradient>
<linearGradient id="paint6_linear_126_486" x1="61.5156" y1="45.2456" x2="67.2201" y2="32.1819" gradientUnits="userSpaceOnUse">
<stop offset="1e-08" stop-color="#EF9362"/>
<stop offset="0.1983" stop-color="#F5A75F"/>
<stop offset="0.4469" stop-color="#FBBA5D"/>
<stop offset="0.7081" stop-color="#FEC45B"/>
<stop offset="1" stop-color="#FFC85B"/>
</linearGradient>
<linearGradient id="paint7_linear_126_486" x1="64.5369" y1="38.8563" x2="73.5038" y2="36.303" gradientUnits="userSpaceOnUse">
<stop offset="1e-08" stop-color="#EF9362"/>
<stop offset="0.1983" stop-color="#F5A75F"/>
<stop offset="0.4469" stop-color="#FBBA5D"/>
<stop offset="0.7081" stop-color="#FEC45B"/>
<stop offset="1" stop-color="#FFC85B"/>
</linearGradient>
<linearGradient id="paint8_linear_126_486" x1="61.44" y1="39.844" x2="76.7049" y2="35.4973" gradientUnits="userSpaceOnUse">
<stop offset="1e-08" stop-color="#EF9362"/>
<stop offset="0.1983" stop-color="#F5A75F"/>
<stop offset="0.4469" stop-color="#FBBA5D"/>
<stop offset="0.7081" stop-color="#FEC45B"/>
<stop offset="1" stop-color="#FFC85B"/>
</linearGradient>
<linearGradient id="paint9_linear_126_486" x1="67.1017" y1="38.2586" x2="69.7335" y2="37.5092" gradientUnits="userSpaceOnUse">
<stop offset="1e-08" stop-color="#EF9362"/>
<stop offset="0.1983" stop-color="#F5A75F"/>
<stop offset="0.4469" stop-color="#FBBA5D"/>
<stop offset="0.7081" stop-color="#FEC45B"/>
<stop offset="1" stop-color="#FFC85B"/>
</linearGradient>
<linearGradient id="paint10_linear_126_486" x1="64.361" y1="28.6052" x2="67.2563" y2="48.1595" gradientUnits="userSpaceOnUse">
<stop stop-color="#8613D1"/>
<stop offset="0.0948" stop-color="#891AD2"/>
<stop offset="0.2279" stop-color="#932CD6"/>
<stop offset="0.3839" stop-color="#A24ADC"/>
<stop offset="0.5571" stop-color="#B874E4"/>
<stop offset="0.7445" stop-color="#D3AAEE"/>
<stop offset="0.941" stop-color="#F4EAFB"/>
<stop offset="1" stop-color="white"/>
</linearGradient>
<linearGradient id="paint11_linear_126_486" x1="59.2288" y1="38.057" x2="59.2288" y2="43.5187" gradientUnits="userSpaceOnUse">
<stop stop-color="#8613D1"/>
<stop offset="0.1536" stop-color="#8816D2"/>
<stop offset="0.2867" stop-color="#8D21D4"/>
<stop offset="0.4122" stop-color="#9633D7"/>
<stop offset="0.5332" stop-color="#A34CDC"/>
<stop offset="0.6508" stop-color="#B46CE2"/>
<stop offset="0.7659" stop-color="#C894EA"/>
<stop offset="0.8791" stop-color="#E0C3F3"/>
<stop offset="0.9879" stop-color="#FCF9FE"/>
<stop offset="1" stop-color="white"/>
</linearGradient>
<linearGradient id="paint12_linear_126_486" x1="38.2001" y1="43.6024" x2="42.2886" y2="17.9444" gradientUnits="userSpaceOnUse">
<stop offset="1e-08" stop-color="#AE3353"/>
<stop offset="0.0887" stop-color="#AF3A50"/>
<stop offset="0.3713" stop-color="#B24D47"/>
<stop offset="0.6682" stop-color="#B45743"/>
<stop offset="1" stop-color="#B55B41"/>
</linearGradient>
<linearGradient id="paint13_linear_126_486" x1="20.7158" y1="24.5395" x2="55.7047" y2="24.5395" gradientUnits="userSpaceOnUse">
<stop offset="1e-08" stop-color="#AE3353"/>
<stop offset="0.0887" stop-color="#AF3A50"/>
<stop offset="0.3713" stop-color="#B24D47"/>
<stop offset="0.6682" stop-color="#B45743"/>
<stop offset="1" stop-color="#B55B41"/>
</linearGradient>
<linearGradient id="paint14_linear_126_486" x1="28.0449" y1="25.4578" x2="61.0497" y2="25.4578" gradientUnits="userSpaceOnUse">
<stop offset="1e-08" stop-color="#AE3353"/>
<stop offset="0.0887" stop-color="#AF3A50"/>
<stop offset="0.3713" stop-color="#B24D47"/>
<stop offset="0.6682" stop-color="#B45743"/>
<stop offset="1" stop-color="#B55B41"/>
</linearGradient>
<linearGradient id="paint15_linear_126_486" x1="31.756" y1="31.3396" x2="63.281" y2="31.3396" gradientUnits="userSpaceOnUse">
<stop offset="1e-08" stop-color="#AE3353"/>
<stop offset="0.0887" stop-color="#AF3A50"/>
<stop offset="0.3713" stop-color="#B24D47"/>
<stop offset="0.6682" stop-color="#B45743"/>
<stop offset="1" stop-color="#B55B41"/>
</linearGradient>
<linearGradient id="paint16_linear_126_486" x1="39.1221" y1="35.9137" x2="62.4945" y2="35.9137" gradientUnits="userSpaceOnUse">
<stop offset="1e-08" stop-color="#AE3353"/>
<stop offset="0.0887" stop-color="#AF3A50"/>
<stop offset="0.3713" stop-color="#B24D47"/>
<stop offset="0.6682" stop-color="#B45743"/>
<stop offset="1" stop-color="#B55B41"/>
</linearGradient>
<linearGradient id="paint17_linear_126_486" x1="50.4383" y1="41.9783" x2="29.1749" y2="15.8414" gradientUnits="userSpaceOnUse">
<stop stop-color="#8613D1"/>
<stop offset="0.1536" stop-color="#8816D2"/>
<stop offset="0.2867" stop-color="#8D21D4"/>
<stop offset="0.4122" stop-color="#9633D7"/>
<stop offset="0.5332" stop-color="#A34CDC"/>
<stop offset="0.6508" stop-color="#B46CE2"/>
<stop offset="0.7659" stop-color="#C894EA"/>
<stop offset="0.8791" stop-color="#E0C3F3"/>
<stop offset="0.9879" stop-color="#FCF9FE"/>
<stop offset="1" stop-color="white"/>
</linearGradient>
<linearGradient id="paint18_linear_126_486" x1="27.0045" y1="52.8304" x2="26.7606" y2="57.8248" gradientUnits="userSpaceOnUse">
<stop stop-color="#8613D1"/>
<stop offset="0.1536" stop-color="#8816D2"/>
<stop offset="0.2867" stop-color="#8D21D4"/>
<stop offset="0.4122" stop-color="#9633D7"/>
<stop offset="0.5332" stop-color="#A34CDC"/>
<stop offset="0.6508" stop-color="#B46CE2"/>
<stop offset="0.7659" stop-color="#C894EA"/>
<stop offset="0.8791" stop-color="#E0C3F3"/>
<stop offset="0.9879" stop-color="#FCF9FE"/>
<stop offset="1" stop-color="white"/>
</linearGradient>
<linearGradient id="paint19_linear_126_486" x1="25.5151" y1="46.7603" x2="29.5527" y2="37.5139" gradientUnits="userSpaceOnUse">
<stop offset="1e-08" stop-color="#EF9362"/>
<stop offset="0.1983" stop-color="#F5A75F"/>
<stop offset="0.4469" stop-color="#FBBA5D"/>
<stop offset="0.7081" stop-color="#FEC45B"/>
<stop offset="1" stop-color="#FFC85B"/>
</linearGradient>
<linearGradient id="paint20_linear_126_486" x1="22.2882" y1="42.7235" x2="36.5552" y2="38.661" gradientUnits="userSpaceOnUse">
<stop offset="1e-08" stop-color="#EF9362"/>
<stop offset="0.1983" stop-color="#F5A75F"/>
<stop offset="0.4469" stop-color="#FBBA5D"/>
<stop offset="0.7081" stop-color="#FEC45B"/>
<stop offset="1" stop-color="#FFC85B"/>
</linearGradient>
<linearGradient id="paint21_linear_126_486" x1="24.1375" y1="42.3042" x2="32.0667" y2="40.0464" gradientUnits="userSpaceOnUse">
<stop offset="1e-08" stop-color="#EF9362"/>
<stop offset="0.1983" stop-color="#F5A75F"/>
<stop offset="0.4469" stop-color="#FBBA5D"/>
<stop offset="0.7081" stop-color="#FEC45B"/>
<stop offset="1" stop-color="#FFC85B"/>
</linearGradient>
<linearGradient id="paint22_linear_126_486" x1="26.0365" y1="41.8515" x2="28.65" y2="41.1073" gradientUnits="userSpaceOnUse">
<stop offset="1e-08" stop-color="#EF9362"/>
<stop offset="0.1983" stop-color="#F5A75F"/>
<stop offset="0.4469" stop-color="#FBBA5D"/>
<stop offset="0.7081" stop-color="#FEC45B"/>
<stop offset="1" stop-color="#FFC85B"/>
</linearGradient>
<linearGradient id="paint23_linear_126_486" x1="27.7371" y1="42.4045" x2="20.9758" y2="67.9198" gradientUnits="userSpaceOnUse">
<stop stop-color="#8613D1"/>
<stop offset="0.1536" stop-color="#8816D2"/>
<stop offset="0.2867" stop-color="#8D21D4"/>
<stop offset="0.4122" stop-color="#9633D7"/>
<stop offset="0.5332" stop-color="#A34CDC"/>
<stop offset="0.6508" stop-color="#B46CE2"/>
<stop offset="0.7659" stop-color="#C894EA"/>
<stop offset="0.8791" stop-color="#E0C3F3"/>
<stop offset="0.9879" stop-color="#FCF9FE"/>
<stop offset="1" stop-color="white"/>
</linearGradient>
</defs>
</svg>
