<svg width="95" height="61" viewBox="0 0 95 61" fill="none" xmlns="http://www.w3.org/2000/svg">
<path d="M93.623 0.75V59.96H0.75V0.75H93.623Z" fill="#D9D9D9" stroke="black" stroke-width="1.5"/>
<path d="M79.3805 12.9908C78.8354 12.9908 78.4347 12.9171 78.1782 12.7696C77.9217 12.6221 77.7935 12.3977 77.7935 12.0963C77.7935 11.9168 77.8704 11.7661 78.0243 11.6443C78.1846 11.5224 78.3738 11.4615 78.5918 11.4615C78.7841 11.4615 78.9701 11.5321 79.1496 11.6731C79.3356 11.8142 79.4895 12.0034 79.6113 12.2406C79.9832 12.2406 80.3231 12.1669 80.6308 12.0194C80.945 11.8719 81.1919 11.6731 81.3714 11.4231C81.5574 11.1666 81.6504 10.8908 81.6504 10.5959C81.6504 10.3522 81.5863 10.115 81.458 9.88413C81.3362 9.6533 81.1406 9.46414 80.8713 9.31666C80.602 9.16277 80.2654 9.08582 79.8614 9.08582C79.6947 9.08582 79.4991 9.10826 79.2747 9.15315C79.1849 9.17238 79.1208 9.182 79.0823 9.182C79.0246 9.182 78.9765 9.15956 78.938 9.11467C78.8996 9.06979 78.8803 9.01849 78.8803 8.96078L79.4574 5.61363L80.4866 5.95989L80.0826 8.39331C80.6212 8.39331 81.1021 8.48308 81.5253 8.66262C81.955 8.84216 82.2884 9.09223 82.5256 9.41284C82.7693 9.73345 82.8911 10.0957 82.8911 10.4997C82.8911 10.9742 82.7372 11.4006 82.4295 11.7789C82.1281 12.1572 81.7081 12.4522 81.1695 12.6638C80.6373 12.8818 80.0409 12.9908 79.3805 12.9908ZM81.256 6.24844C80.4737 6.24844 79.8967 6.1747 79.5247 6.02722C79.1528 5.87974 78.9669 5.65531 78.9669 5.35394C78.9669 5.16157 79.0182 5.0173 79.1208 4.92112C79.2298 4.81852 79.3901 4.76722 79.6017 4.76722C79.7812 4.76722 79.9447 4.82814 80.0922 4.94997C80.2461 5.0718 80.3712 5.23211 80.4673 5.43088C80.8264 5.41165 81.2304 5.33791 81.6792 5.20966C82.1345 5.07501 82.5769 4.90829 83.0066 4.70952C83.0514 4.77364 83.0835 4.8602 83.1027 4.96921C83.1284 5.0718 83.1412 5.18081 83.1412 5.29623C83.1412 5.52065 83.0578 5.7034 82.8911 5.84447C82.7308 5.98554 82.5096 6.08813 82.2275 6.15225C81.9518 6.21637 81.6279 6.24844 81.256 6.24844ZM85.2201 12.962C85.0021 12.962 84.829 12.9203 84.7007 12.8369C84.5789 12.76 84.4763 12.6157 84.3929 12.4041C84.861 12.231 85.3035 12.0162 85.7203 11.7597C86.1435 11.5032 86.5602 11.1377 86.9706 10.6632C87.381 10.1823 87.7337 9.57956 88.0286 8.85498H87.9709C87.7016 9.21406 87.4163 9.46734 87.1149 9.61482C86.8135 9.75589 86.4929 9.82642 86.1531 9.82642C85.7299 9.82642 85.3644 9.73024 85.0566 9.53788C84.7552 9.34551 84.5244 9.08261 84.3641 8.74918C84.2102 8.40934 84.1332 8.02781 84.1332 7.60461C84.1332 7.0724 84.2679 6.59149 84.5372 6.16187C84.8129 5.72584 85.1752 5.386 85.6241 5.14234C86.0793 4.89226 86.5699 4.76722 87.0957 4.76722C87.7882 4.76722 88.3428 4.99486 88.7596 5.45012C89.1828 5.89897 89.3944 6.55301 89.3944 7.41224C89.3944 8.34201 89.1636 9.23651 88.7019 10.0957C88.2466 10.9486 87.6856 11.6379 87.0187 12.1637C86.3583 12.6959 85.7587 12.962 85.2201 12.962ZM86.6917 9.06658C86.9097 9.06658 87.1341 8.98964 87.365 8.83574C87.5958 8.68185 87.7882 8.45743 87.9421 8.16247C88.096 7.86751 88.1729 7.51484 88.1729 7.10446C88.1729 6.65561 88.0735 6.2805 87.8747 5.97912C87.6824 5.67134 87.3746 5.51745 86.9514 5.51745C86.7141 5.51745 86.4705 5.5976 86.2204 5.7579C85.9767 5.91821 85.7715 6.15867 85.6048 6.47927C85.4381 6.79347 85.3548 7.17179 85.3548 7.61423C85.3548 8.02461 85.4574 8.37086 85.6625 8.653C85.8741 8.92872 86.2172 9.06658 86.6917 9.06658Z" fill="black"/>
</svg>
