<svg width="95" height="61" viewBox="0 0 95 61" fill="none" xmlns="http://www.w3.org/2000/svg">
<path d="M93.623 0.75V59.96H0.75V0.75H93.623Z" fill="#D9D9D9" stroke="black" stroke-width="1.5"/>
<path d="M79.9534 12.9908C79.4084 12.9908 79.0076 12.9171 78.7512 12.7696C78.4947 12.6221 78.3664 12.3977 78.3664 12.0963C78.3664 11.9168 78.4434 11.7661 78.5973 11.6443C78.7576 11.5224 78.9467 11.4615 79.1647 11.4615C79.3571 11.4615 79.5431 11.5321 79.7226 11.6731C79.9085 11.8142 80.0624 12.0034 80.1843 12.2406C80.5562 12.2406 80.896 12.1669 81.2038 12.0194C81.518 11.8719 81.7649 11.6731 81.9444 11.4231C82.1304 11.1666 82.2233 10.8908 82.2233 10.5959C82.2233 10.3522 82.1592 10.115 82.031 9.88413C81.9091 9.6533 81.7136 9.46414 81.4443 9.31666C81.175 9.16277 80.8383 9.08582 80.4343 9.08582C80.2676 9.08582 80.0721 9.10826 79.8476 9.15315C79.7579 9.17238 79.6937 9.182 79.6553 9.182C79.5976 9.182 79.5495 9.15956 79.511 9.11467C79.4725 9.06979 79.4533 9.01849 79.4533 8.96078L80.0304 5.61363L81.0595 5.95989L80.6556 8.39331C81.1942 8.39331 81.6751 8.48308 82.0983 8.66262C82.5279 8.84216 82.8614 9.09223 83.0986 9.41284C83.3423 9.73345 83.4641 10.0957 83.4641 10.4997C83.4641 10.9742 83.3102 11.4006 83.0024 11.7789C82.701 12.1572 82.281 12.4522 81.7424 12.6638C81.2102 12.8818 80.6139 12.9908 79.9534 12.9908ZM81.829 6.24844C81.0467 6.24844 80.4696 6.1747 80.0977 6.02722C79.7258 5.87974 79.5398 5.65531 79.5398 5.35394C79.5398 5.16157 79.5911 5.0173 79.6937 4.92112C79.8027 4.81852 79.9631 4.76722 80.1747 4.76722C80.3542 4.76722 80.5177 4.82814 80.6652 4.94997C80.8191 5.0718 80.9441 5.23211 81.0403 5.43088C81.3994 5.41165 81.8033 5.33791 82.2522 5.20966C82.7075 5.07501 83.1499 4.90829 83.5795 4.70952C83.6244 4.77364 83.6565 4.8602 83.6757 4.96921C83.7013 5.0718 83.7142 5.18081 83.7142 5.29623C83.7142 5.52065 83.6308 5.7034 83.4641 5.84447C83.3038 5.98554 83.0826 6.08813 82.8004 6.15225C82.5247 6.21637 82.2009 6.24844 81.829 6.24844ZM86.3221 12.6638C85.7899 12.6638 85.5238 12.3528 85.5238 11.7308C85.5238 11.0255 85.7386 10.1406 86.1682 9.0762C86.5978 8.01178 87.1749 6.91851 87.8995 5.79638L89.1402 5.40203C88.7747 5.95348 88.4221 6.58507 88.0822 7.29682C87.7424 8.00858 87.4634 8.74597 87.2454 9.50902C87.0274 10.2721 86.9184 10.9838 86.9184 11.6443C86.9184 11.8302 86.9248 11.9777 86.9376 12.0867C86.9569 12.2021 86.9953 12.3208 87.0531 12.4426C86.8158 12.5901 86.5721 12.6638 86.3221 12.6638ZM87.2935 6.20034C86.6651 6.20034 86.1618 6.17149 85.7834 6.11378C85.4115 6.04966 85.139 5.95348 84.9659 5.82523C84.7928 5.69058 84.7062 5.51104 84.7062 5.28661C84.7062 5.1776 84.7222 5.0686 84.7543 4.95959C84.7864 4.84417 84.8248 4.74478 84.8697 4.66142C85.3378 4.8602 85.8604 5.02692 86.4375 5.16157C87.0146 5.28982 87.5372 5.36676 88.0053 5.39241C88.1143 5.18722 88.2457 5.02692 88.3996 4.9115C88.5599 4.78967 88.7298 4.72875 88.9094 4.72875C89.121 4.72875 89.2813 4.78005 89.3903 4.88264C89.4993 4.97883 89.5538 5.11989 89.5538 5.30585C89.5538 5.62004 89.3711 5.84767 89.0056 5.98874C88.6401 6.12981 88.0694 6.20034 87.2935 6.20034Z" fill="black"/>
</svg>
