<svg width="95" height="61" viewBox="0 0 95 61" fill="none" xmlns="http://www.w3.org/2000/svg">
<path d="M93.623 0.75V59.96H0.75V0.75H93.623Z" fill="#D9D9D9" stroke="black" stroke-width="1.5"/>
<path d="M79.7468 13.0004C79.2018 13.0004 78.7946 12.9267 78.5253 12.7792C78.2624 12.6317 78.1309 12.4105 78.1309 12.1156C78.1309 11.9296 78.2047 11.7757 78.3521 11.6539C78.506 11.5321 78.692 11.4711 78.91 11.4711C79.1024 11.4711 79.2915 11.5417 79.4775 11.6827C79.6634 11.8238 79.8173 12.0162 79.9392 12.2598C80.3239 12.2598 80.6766 12.1861 80.9972 12.0386C81.3178 11.8911 81.5711 11.6892 81.757 11.4327C81.943 11.1762 82.0359 10.8941 82.0359 10.5863C82.0359 10.3105 81.959 10.0509 81.8051 9.80719C81.6576 9.55711 81.4781 9.40002 81.2665 9.33589C80.8433 9.61803 80.4842 9.7591 80.1892 9.7591C80.0161 9.7591 79.8686 9.7078 79.7468 9.6052C79.6314 9.4962 79.5737 9.36475 79.5737 9.21086C79.5737 8.98643 79.6698 8.80689 79.8622 8.67223C80.061 8.53758 80.3207 8.47025 80.6413 8.47025C81.1414 8.47025 81.5903 8.56002 81.9878 8.73956C82.3854 8.91269 82.6964 9.15315 82.9208 9.46093C83.1452 9.76871 83.2575 10.1182 83.2575 10.5093C83.2575 10.9838 83.1068 11.4102 82.8054 11.7885C82.504 12.1669 82.084 12.4618 81.5454 12.6734C81.0132 12.8914 80.4137 13.0004 79.7468 13.0004ZM80.6605 8.76842C81.1158 8.6017 81.4813 8.34842 81.757 8.00858C82.0327 7.66873 82.1706 7.30003 82.1706 6.90248C82.1706 6.48569 82.0776 6.1747 81.8917 5.96951C81.7057 5.76432 81.4236 5.66172 81.0453 5.66172C80.7888 5.66172 80.5515 5.73226 80.3335 5.87332C80.1219 6.00798 79.9456 6.19714 79.8045 6.4408C79.6698 6.67805 79.5929 6.94416 79.5737 7.23912C79.3428 7.20705 79.1601 7.1237 79.0254 6.98904C78.8972 6.85439 78.8331 6.67805 78.8331 6.46004C78.8331 6.1266 78.9357 5.83164 79.1408 5.57516C79.346 5.31867 79.6378 5.11989 80.0161 4.97883C80.3944 4.83776 80.8304 4.76722 81.3242 4.76722C81.7217 4.76722 82.0776 4.84417 82.3918 4.99806C82.706 5.15195 82.9497 5.36676 83.1228 5.64249C83.3023 5.91821 83.3921 6.2292 83.3921 6.57546C83.3921 7.03072 83.2382 7.47637 82.9304 7.91239C82.6291 8.34201 82.193 8.73636 81.6224 9.09544L80.6605 8.76842ZM86.5287 12.6638C85.9965 12.6638 85.7304 12.3528 85.7304 11.7308C85.7304 11.0255 85.9452 10.1406 86.3748 9.0762C86.8044 8.01178 87.3815 6.91851 88.1061 5.79638L89.3469 5.40203C88.9814 5.95348 88.6287 6.58507 88.2888 7.29682C87.949 8.00858 87.6701 8.74597 87.4521 9.50902C87.234 10.2721 87.125 10.9838 87.125 11.6443C87.125 11.8302 87.1315 11.9777 87.1443 12.0867C87.1635 12.2021 87.202 12.3208 87.2597 12.4426C87.0224 12.5901 86.7788 12.6638 86.5287 12.6638ZM87.5002 6.20034C86.8718 6.20034 86.3684 6.17149 85.9901 6.11378C85.6182 6.04966 85.3457 5.95348 85.1725 5.82523C84.9994 5.69058 84.9128 5.51104 84.9128 5.28661C84.9128 5.1776 84.9289 5.0686 84.9609 4.95959C84.993 4.84417 85.0315 4.74478 85.0764 4.66142C85.5444 4.8602 86.067 5.02692 86.6441 5.16157C87.2212 5.28982 87.7438 5.36676 88.2119 5.39241C88.3209 5.18722 88.4524 5.02692 88.6063 4.9115C88.7666 4.78967 88.9365 4.72875 89.116 4.72875C89.3276 4.72875 89.4879 4.78005 89.5969 4.88264C89.7059 4.97883 89.7604 5.11989 89.7604 5.30585C89.7604 5.62004 89.5777 5.84767 89.2122 5.98874C88.8467 6.12981 88.276 6.20034 87.5002 6.20034Z" fill="black"/>
</svg>
