<svg width="95" height="61" viewBox="0 0 95 61" fill="none" xmlns="http://www.w3.org/2000/svg">
<path d="M93.623 0.75V59.96H0.75V0.75H93.623Z" fill="#D9D9D9" stroke="black" stroke-width="1.5"/>
<path d="M49.3763 15.4821H44.9971L46.3634 4.23879C46.4202 3.77361 46.8148 3.42358 47.2838 3.42358H47.3007C47.7758 3.42358 48.1742 3.78283 48.2226 4.25568L49.3763 15.4821Z" fill="white"/>
<path d="M55.6379 37.7959H38.7334V45.1213H55.6379V37.7959Z" fill="white"/>
<path d="M50.4701 16.3833C48.3246 15.76 46.0464 15.76 43.9016 16.3833C43.7965 16.0225 43.6921 15.6617 43.5869 15.301C45.9374 14.6178 48.4337 14.6178 50.7849 15.301C50.6797 15.6617 50.5753 16.0225 50.4701 16.3833Z" fill="white"/>
<path d="M43.1905 20.7074C42.6639 20.821 42.1412 20.9576 41.623 21.1173C41.623 19.6143 41.623 18.1121 41.623 16.6099C42.1404 16.4502 42.6639 16.3143 43.1905 16.2C43.1905 17.7022 43.1905 19.2044 43.1905 20.7074Z" fill="white"/>
<path d="M44.7804 20.4342C44.2477 20.5026 43.7172 20.5939 43.1914 20.7075C43.1914 19.2045 43.1914 17.7023 43.1914 16.1993C43.718 16.0857 44.2484 15.9943 44.7804 15.926C44.7804 17.429 44.7804 18.9313 44.7804 20.4342Z" fill="white"/>
<path d="M46.3823 20.2975C45.8473 20.3205 45.3122 20.3658 44.7803 20.4341C44.7803 18.9311 44.7803 17.4289 44.7803 15.9267C45.313 15.8584 45.8473 15.8131 46.3823 15.79C46.3823 17.2923 46.3823 18.7945 46.3823 20.2975Z" fill="white"/>
<path d="M47.9904 20.2975C47.4546 20.2744 46.9188 20.2744 46.3838 20.2975C46.3838 18.7945 46.3838 17.2922 46.3838 15.7892C46.9196 15.7662 47.4554 15.7662 47.9904 15.7892C47.9904 17.2922 47.9904 18.7945 47.9904 20.2975Z" fill="white"/>
<path d="M49.592 20.4342C49.0593 20.3658 48.5251 20.3206 47.9893 20.2975C47.9893 18.7945 47.9893 17.2923 47.9893 15.7893C48.5243 15.8123 49.0593 15.8576 49.592 15.9259C49.592 17.4289 49.592 18.9312 49.592 20.4342Z" fill="white"/>
<path d="M51.1817 20.7075C50.6552 20.5939 50.1247 20.5025 49.5928 20.4342C49.5928 18.9312 49.5928 17.429 49.5928 15.9268C50.1255 15.9951 50.6552 16.0857 51.1817 16.2C51.1817 17.7023 51.1817 19.2045 51.1817 20.7075Z" fill="white"/>
<path d="M52.7491 21.1166C52.2317 20.9569 51.7082 20.8211 51.1816 20.7067C51.1816 19.2037 51.1816 17.7015 51.1816 16.1985C51.7082 16.3121 52.231 16.4487 52.7491 16.6084C52.7491 18.1114 52.7491 19.6144 52.7491 21.1166Z" fill="white"/>
<path d="M60.1714 26.2249C60.1714 35.0056 60.1714 43.7012 60.1714 53.9489C60.1714 55.4051 59.3048 56.6525 58.0551 57.2282C57.6007 57.4377 57.0956 57.5552 56.5652 57.5552C51.1934 57.5552 45.8216 57.5552 40.449 57.5552C38.4571 57.5352 34.1998 55.3084 34.2021 53.3479C34.2144 53.2197 34.2267 53.0907 34.239 52.9625C34.3403 51.9193 34.4416 50.8746 34.5422 49.8276C35.3044 41.8919 36.0598 33.8297 36.8136 25.6776C36.812 23.6603 38.411 21.6683 40.4068 21.3973C45.0977 20.2689 49.8585 19.7677 54.5456 19.9741H54.5463C56.546 20.252 60.1753 24.2367 60.1714 26.2249Z" fill="white"/>
<path d="M58.0551 57.2283C57.6007 57.4378 57.0956 57.5553 56.5652 57.5553C51.1934 57.5553 45.8216 57.5553 40.449 57.5553C38.4571 57.5353 34.1998 55.3085 34.2021 53.348C34.2144 53.2198 34.2267 53.0908 34.239 52.9626C34.2144 52.7945 34.2021 52.6226 34.2021 52.4468C34.2021 51.531 34.2021 50.6152 34.2021 49.6995C34.3158 49.7424 34.4286 49.7847 34.5422 49.8277C37.9259 51.1111 41.3287 52.578 44.7262 54.0971C45.5468 54.722 46.3666 55.3514 47.1864 55.9809C50.0719 55.9809 52.9581 55.9916 55.8421 56.0131C56.5797 56.4223 57.3174 56.8276 58.0551 57.2283Z" fill="white"/>
<path d="M57.5615 24.1485C57.5531 33.551 57.5439 42.9544 57.5354 52.3569C57.5339 54.375 55.9181 56.0046 53.9261 56C48.5535 55.9693 43.1779 55.9755 37.8069 56.0184C35.9915 56.0269 34.4885 54.6943 34.239 52.9626C34.2144 52.7944 34.2021 52.6225 34.2021 52.4467C34.2021 43.2054 34.2021 33.964 34.2021 24.7227C34.2029 22.7437 35.7865 20.675 37.7677 20.282C43.1127 19.2396 48.5873 19.093 53.9683 19.8414C54.1648 19.869 54.3575 19.9128 54.5448 19.9726C56.2643 20.523 57.5631 22.33 57.5615 24.1485Z" fill="white"/>
<path d="M49.344 16.7493H45.2158L46.5039 6.15056C46.5574 5.71205 46.9293 5.38208 47.3715 5.38208H47.3874C47.8353 5.38208 48.2109 5.72073 48.2564 6.16648L49.344 16.7493Z" fill="#526EC5"/>
<path d="M55.2479 37.7842H39.3125V44.6896H55.2479V37.7842Z" fill="white"/>
<path d="M50.3754 17.5988C48.3529 17.0112 46.2052 17.0112 44.1834 17.5988C44.0843 17.2587 43.9859 16.9186 43.8867 16.5785C46.1024 15.9345 48.4556 15.9345 50.6721 16.5785C50.5729 16.9186 50.4745 17.2587 50.3754 17.5988Z" fill="#708FCC"/>
<path d="M43.5137 21.6751C43.0173 21.7822 42.5246 21.911 42.0361 22.0615C42.0361 20.6447 42.0361 19.2285 42.0361 17.8124C42.5238 17.6619 43.0173 17.5338 43.5137 17.426C43.5137 18.8421 43.5137 20.2582 43.5137 21.6751Z" fill="#D70703"/>
<path d="M45.0116 21.4173C44.5094 21.4817 44.0093 21.5678 43.5137 21.6749C43.5137 20.258 43.5137 18.8419 43.5137 17.4251C44.0101 17.318 44.5101 17.2319 45.0116 17.1675C45.0116 18.5843 45.0116 20.0004 45.0116 21.4173Z" fill="#E71712"/>
<path d="M46.5229 21.2886C46.0185 21.3103 45.5142 21.353 45.0127 21.4174C45.0127 20.0006 45.0127 18.5845 45.0127 17.1683C45.5149 17.1039 46.0185 17.0613 46.5229 17.0396C46.5229 18.4557 46.5229 19.8718 46.5229 21.2886Z" fill="#D70703"/>
<path d="M48.037 21.2885C47.5319 21.2668 47.0268 21.2668 46.5225 21.2885C46.5225 19.8717 46.5225 18.4556 46.5225 17.0387C47.0275 17.017 47.5326 17.017 48.037 17.0387C48.037 18.4556 48.037 19.8717 48.037 21.2885Z" fill="#E71712"/>
<path d="M49.548 21.4174C49.0458 21.353 48.5422 21.3103 48.0371 21.2886C48.0371 19.8718 48.0371 18.4557 48.0371 17.0388C48.5415 17.0605 49.0458 17.1032 49.548 17.1676C49.548 18.5845 49.548 20.0006 49.548 21.4174Z" fill="#D70703"/>
<path d="M51.0457 21.6749C50.5493 21.5678 50.0493 21.4817 49.5479 21.4173C49.5479 20.0004 49.5479 18.5843 49.5479 17.1682C50.05 17.2326 50.5493 17.318 51.0457 17.4258C51.0457 18.8419 51.0457 20.258 51.0457 21.6749Z" fill="#E71712"/>
<path d="M52.5235 22.0608C52.0358 21.9102 51.5423 21.7822 51.0459 21.6744C51.0459 20.2575 51.0459 18.8414 51.0459 17.4246C51.5423 17.5317 52.0351 17.6605 52.5235 17.811C52.5235 19.2278 52.5235 20.6446 52.5235 22.0608Z" fill="#D70703"/>
<path d="M59.5206 26.8764C59.5206 35.1538 59.5206 43.3509 59.5206 53.0112C59.5206 54.3839 58.7037 55.5598 57.5256 56.1025C57.0973 56.3 56.6211 56.4107 56.1211 56.4107C51.0572 56.4107 45.9934 56.4107 40.9288 56.4107C39.051 56.3919 35.0379 54.2927 35.04 52.4446C35.0516 52.3237 35.0632 52.2022 35.0748 52.0813C35.1703 51.0979 35.2658 50.1131 35.3606 49.1261C36.0791 41.6454 36.7912 34.0452 37.5018 26.3605C37.5003 24.4588 39.0076 22.581 40.889 22.3256C45.311 21.2619 49.7989 20.7893 54.2173 20.984H54.218C56.103 21.2459 59.5243 25.0022 59.5206 26.8764Z" fill="#526EC5"/>
<path d="M57.5256 56.1023C57.0973 56.2999 56.6211 56.4106 56.1211 56.4106C51.0572 56.4106 45.9934 56.4106 40.9288 56.4106C39.051 56.3918 35.0379 54.2926 35.04 52.4445C35.0516 52.3236 35.0632 52.2021 35.0748 52.0812C35.0516 51.9227 35.04 51.7607 35.04 51.595C35.04 50.7317 35.04 49.8684 35.04 49.0051C35.1471 49.0456 35.2535 49.0855 35.3606 49.126C38.5503 50.3359 41.7581 51.7187 44.9608 53.1507C45.7343 53.7397 46.5072 54.3331 47.28 54.9265C50 54.9265 52.7208 54.9366 55.4395 54.9569C56.1348 55.3425 56.8302 55.7246 57.5256 56.1023Z" fill="#526EC5"/>
<path d="M57.0604 24.9189C57.0524 33.7824 57.0437 42.6467 57.0358 51.5103C57.0343 53.4126 55.5111 54.9489 53.6333 54.9445C48.5687 54.9156 43.5013 54.9214 38.4381 54.9619C36.7268 54.9699 35.31 53.7137 35.0748 52.0812C35.0516 51.9227 35.04 51.7606 35.04 51.5949C35.04 42.8833 35.04 34.1717 35.04 25.4601C35.0408 23.5947 36.5336 21.6445 38.4012 21.274C43.4398 20.2914 48.6006 20.1532 53.6731 20.8587C53.8584 20.8847 54.04 20.926 54.2166 20.9824C55.8374 21.5012 57.0618 23.2046 57.0604 24.9189Z" fill="#708FCC"/>
<path d="M37.2314 25.911C37.2314 25.7952 37.6707 25.5941 37.9203 25.5702C41.0529 25.3495 44.2758 25.2373 47.4836 25.2373C49.7833 25.2373 52.1032 25.2952 54.3804 25.4095C54.5519 25.4305 54.8681 25.5825 54.8681 25.6816L54.8399 36.8803C52.4331 36.873 49.9548 36.8701 47.4785 36.8701C44.0616 36.8701 40.6462 36.8752 37.2322 36.8846L37.2314 25.911Z" fill="#92B6C4"/>
<path d="M36.8877 37.2297V25.9109C36.8877 25.4333 37.7575 25.2401 37.8885 25.2271C43.304 24.8458 48.9352 24.79 54.3992 25.0657C54.5548 25.0838 55.2132 25.2568 55.2132 25.6823L55.1843 37.2261L54.8391 37.2246C52.4331 37.2174 49.9547 37.2145 47.4785 37.2145C44.0616 37.2145 40.6469 37.2196 37.2321 37.229L36.8877 37.2297ZM37.5759 26.0448V36.5401C43.2331 36.5242 48.9829 36.5206 54.4969 36.535L54.5236 25.8183C54.465 25.7879 54.3847 25.7568 54.3384 25.751C48.9641 25.484 43.3185 25.5354 37.9449 25.9138C37.8436 25.9225 37.6735 25.9898 37.5759 26.0448Z" fill="white"/>
<path d="M80.348 11.7405C79.6555 11.7405 79.0976 11.516 78.6744 11.0672C78.2576 10.6119 78.0492 9.95467 78.0492 9.09544C78.0492 8.16567 78.2769 7.27438 78.7321 6.42156C79.1938 5.56233 79.7549 4.86982 80.4153 4.34402C81.0822 3.81181 81.6849 3.54571 82.2236 3.54571C82.4416 3.54571 82.6115 3.58739 82.7333 3.67074C82.8616 3.74769 82.9706 3.89196 83.0603 4.10357C82.5923 4.27669 82.1466 4.4915 81.7234 4.74799C81.3066 5.00447 80.8898 5.36997 80.473 5.84447C80.0627 6.31897 79.71 6.92171 79.415 7.6527H79.4727C79.742 7.29362 80.0274 7.04354 80.3288 6.90248C80.6301 6.755 80.9507 6.68126 81.2906 6.68126C81.7138 6.68126 82.0761 6.77744 82.3774 6.9698C82.6852 7.16217 82.9161 7.42507 83.07 7.7585C83.2303 8.09193 83.3104 8.47346 83.3104 8.90307C83.3104 9.42887 83.1726 9.90978 82.8968 10.3458C82.6275 10.7818 82.2652 11.1249 81.81 11.375C81.3547 11.6186 80.8674 11.7405 80.348 11.7405ZM80.4923 10.9902C80.7295 10.9902 80.97 10.9101 81.2136 10.7498C81.4573 10.5895 81.6625 10.3522 81.8292 10.038C81.9959 9.71742 82.0793 9.33589 82.0793 8.89345C82.0793 8.48308 81.9767 8.14002 81.7715 7.8643C81.5663 7.58217 81.2265 7.4411 80.752 7.4411C80.5339 7.4411 80.3095 7.51804 80.0787 7.67194C79.8478 7.82583 79.6555 8.05025 79.5016 8.34521C79.3477 8.64017 79.2707 8.99284 79.2707 9.40322C79.2707 9.85207 79.3669 10.2304 79.5593 10.5382C79.7517 10.8395 80.0627 10.9902 80.4923 10.9902ZM86.2543 12.6638C85.7221 12.6638 85.456 12.3528 85.456 11.7308C85.456 11.0255 85.6708 10.1406 86.1005 9.0762C86.5301 8.01178 87.1072 6.91851 87.8317 5.79638L89.0725 5.40203C88.707 5.95348 88.3543 6.58507 88.0145 7.29682C87.6746 8.00858 87.3957 8.74597 87.1777 9.50902C86.9597 10.2721 86.8507 10.9838 86.8507 11.6443C86.8507 11.8302 86.8571 11.9777 86.8699 12.0867C86.8892 12.2021 86.9276 12.3208 86.9853 12.4426C86.7481 12.5901 86.5044 12.6638 86.2543 12.6638ZM87.2258 6.20034C86.5974 6.20034 86.094 6.17149 85.7157 6.11378C85.3438 6.04966 85.0713 5.95348 84.8982 5.82523C84.725 5.69058 84.6385 5.51104 84.6385 5.28661C84.6385 5.1776 84.6545 5.0686 84.6866 4.95959C84.7186 4.84417 84.7571 4.74478 84.802 4.66142C85.2701 4.8602 85.7927 5.02692 86.3698 5.16157C86.9469 5.28982 87.4695 5.36676 87.9375 5.39241C88.0466 5.18722 88.178 5.02692 88.3319 4.9115C88.4922 4.78967 88.6621 4.72875 88.8417 4.72875C89.0533 4.72875 89.2136 4.78005 89.3226 4.88264C89.4316 4.97883 89.4861 5.11989 89.4861 5.30585C89.4861 5.62004 89.3033 5.84767 88.9378 5.98874C88.5723 6.12981 88.0017 6.20034 87.2258 6.20034Z" fill="black"/>
</svg>
