<svg width="95" height="61" viewBox="0 0 95 61" fill="none" xmlns="http://www.w3.org/2000/svg">
<path d="M93.623 0.75V59.96H0.75V0.75H93.623Z" fill="#3BA15C" stroke="black" stroke-width="1.5"/>
<path d="M14.1846 17.1604L12.6113 22.5247L73.8764 40.4926L75.4496 35.1283L14.1846 17.1604Z" fill="white"/>
<path d="M75.4502 35.1287L76.7033 36.3584L76.9774 36.6253L79.97 39.5613L75.9349 40.1799L73.877 40.4929L75.4502 35.1287Z" fill="white"/>
<path opacity="0.15" d="M12.9637 21.3232L76.0392 39.822L75.9343 40.1795L73.8764 40.4925L12.6113 22.5247L12.9637 21.3232Z" fill="white"/>
<path opacity="0.1" d="M13.952 17.9542L76.7031 36.3579L76.9771 36.6248L76.7883 37.2684L13.7129 18.7695L13.952 17.9542Z" fill="white"/>
<path d="M75.7333 40.2086L74.7072 37.6613L74.9432 36.8568L76.3212 35.9824L79.9699 39.5608L75.7333 40.2086Z" fill="white"/>
<path d="M12.3185 10.9171L7.66895 26.7708L8.48393 27.0098L13.1335 11.1561L12.3185 10.9171Z" fill="white"/>
<path d="M13.1339 11.154C13.1339 11.154 12.826 12.225 12.7292 13.4667C12.6062 14.9801 12.7858 16.7493 14.1848 17.1596L12.6116 22.5239C11.2126 22.1136 10.1059 23.5055 9.3919 24.8459C8.80276 25.943 8.4834 27.0107 8.4834 27.0107L13.1339 11.154Z" fill="white"/>
<path opacity="0.1" d="M12.9037 11.9405C12.9037 11.9405 11.4039 17.1942 13.9559 17.9426L13.7157 18.7617C11.1636 18.0132 12.6635 12.7596 12.6635 12.7596L12.9037 11.9405Z" fill="white"/>
<path opacity="0.15" d="M12.961 21.3325L12.6117 22.5234C10.0597 21.7749 8.4834 27.01 8.4834 27.01L8.8337 25.8156C8.8337 25.8156 10.4089 20.584 12.961 21.3325Z" fill="white"/>
<path opacity="0.1" d="M12.2472 10.8963L7.59766 26.75L8.03096 26.8771L12.6805 11.0234L12.2472 10.8963Z" fill="white"/>
<path opacity="0.15" d="M13.1338 11.1535C13.1338 11.1535 12.8259 12.2245 12.7291 13.4662L9.39185 24.8451C8.80276 25.9422 8.4834 27.01 8.4834 27.01L13.1338 11.1535Z" fill="white"/>
<path d="M25.9362 9.17899L22.8584 13.4875L74.5946 50.4456L77.6725 46.1371L25.9362 9.17899Z" fill="white"/>
<path d="M77.6735 46.1368L78.4729 47.6709L78.6483 48.0045L80.5574 51.6674L76.6088 50.8596L74.5957 50.4453L77.6735 46.1368Z" fill="white"/>
<path opacity="0.15" d="M23.5478 12.5225L76.8128 50.5727L76.6077 50.8599L74.5946 50.4456L22.8584 13.4875L23.5478 12.5225Z" fill="white"/>
<path opacity="0.1" d="M25.4805 9.81658L78.4716 47.6711L78.647 48.0047L78.2777 48.5216L25.0127 10.4714L25.4805 9.81658Z" fill="white"/>
<path d="M76.411 50.8174L76.219 48.1711L76.6806 47.525L78.2283 47.2024L80.5563 51.6672L76.411 50.8174Z" fill="white"/>
<path d="M25.6837 3.37267L16.9814 15.5547L17.9705 16.2612L26.6728 4.07919L25.6837 3.37267Z" fill="white"/>
<path d="M26.7602 3.40237C26.7602 3.40237 26.1515 4.26462 25.6884 5.35251C25.1193 6.67671 24.7555 8.33419 25.9369 9.17816L22.8591 13.4867C21.6776 12.6427 20.2277 13.5243 19.1594 14.4922C18.2806 15.2829 17.6621 16.1384 17.6621 16.1384L26.7602 3.40237Z" fill="white"/>
<path opacity="0.1" d="M26.3081 4.03461C26.3081 4.03461 23.3318 8.26817 25.487 9.80769L25.017 10.4656C22.8619 8.92605 25.8381 4.69249 25.8381 4.69249L26.3081 4.03461Z" fill="white"/>
<path opacity="0.15" d="M23.5424 12.5305L22.8591 13.487C20.704 11.9475 17.6621 16.1384 17.6621 16.1384L18.3474 15.1791C18.3474 15.1791 21.3873 10.991 23.5424 12.5305Z" fill="white"/>
<path opacity="0.1" d="M26.0514 2.89895L16.9551 15.6326L17.2808 15.8653L26.3771 3.13164L26.0514 2.89895Z" fill="white"/>
<path opacity="0.15" d="M26.7601 3.40255C26.7601 3.40255 26.1514 4.2648 25.6882 5.35269L19.1594 14.4922C18.2806 15.2829 17.6621 16.1384 17.6621 16.1384L26.7601 3.40255Z" fill="white"/>
<path d="M14.0829 17.6355L12.8311 21.9038L73.0127 39.554L74.2645 35.2857L14.0829 17.6355Z" fill="#DC795E"/>
<path d="M74.2645 35.2857L75.5389 36.3455L75.8175 36.5756L78.861 39.106L74.988 39.404L73.0127 39.554L74.2645 35.2857Z" fill="#DC795E"/>
<path opacity="0.15" d="M13.1114 20.9478L75.0715 39.1195L74.9881 39.404L73.0127 39.554L12.8311 21.9038L13.1114 20.9478Z" fill="#6E3025"/>
<path opacity="0.1" d="M13.8973 18.2678L75.5387 36.346L75.8173 36.5761L75.6671 37.0882L13.707 18.9165L13.8973 18.2678Z" fill="white"/>
<path d="M74.7942 39.4174L73.6731 37.3012L73.8609 36.661L75.1501 36.0218L78.8607 39.1059L74.7942 39.4174Z" fill="#E49470"/>
<path d="M12.0697 12.514L8.37012 25.1287L9.06371 25.3321L12.7633 12.7175L12.0697 12.514Z" fill="#F8B88E"/>
<path d="M12.7638 12.7157C12.7638 12.7157 12.5199 13.5681 12.4888 14.5697C12.4461 15.79 12.709 17.233 14.0833 17.636L12.8315 21.9043C11.4572 21.5013 10.4566 22.5737 9.83337 23.624C9.31865 24.4834 9.06348 25.3328 9.06348 25.3328L12.7638 12.7157Z" fill="#E49470"/>
<path opacity="0.1" d="M12.5786 13.3418C12.5786 13.3418 11.3922 17.5242 13.8991 18.2594L13.708 18.9111C11.2011 18.1759 12.3875 13.9936 12.3875 13.9936L12.5786 13.3418Z" fill="white"/>
<path opacity="0.15" d="M13.1096 20.957L12.8316 21.9046C10.3247 21.1693 9.06348 25.3328 9.06348 25.3328L9.34221 24.3824C9.34221 24.3824 10.6026 20.2217 13.1096 20.957Z" fill="#6E3025"/>
<path opacity="0.1" d="M12.0697 12.514L8.37012 25.1287L8.61907 25.2017L12.3187 12.5871L12.0697 12.514Z" fill="white"/>
<path opacity="0.15" d="M12.7638 12.7159C12.7638 12.7159 12.5198 13.5683 12.4888 14.5699L9.83338 23.624C9.31865 24.4834 9.06348 25.3328 9.06348 25.3328L12.7638 12.7159Z" fill="#6E3025"/>
<path d="M25.8033 9.53951L23.2178 13.1589L74.2506 49.6145L76.8362 45.9951L25.8033 9.53951Z" fill="#DC795E"/>
<path d="M76.8365 45.9953L77.6917 47.4152L77.8791 47.7241L79.9214 51.1145L76.1658 50.1226L74.251 49.6147L76.8365 45.9953Z" fill="#DC795E"/>
<path opacity="0.15" d="M23.7969 12.3483L76.3378 49.8811L76.1654 50.1223L74.2506 49.6145L23.2178 13.1589L23.7969 12.3483Z" fill="#6E3025"/>
<path opacity="0.1" d="M25.4203 10.0759L77.691 47.4157L77.8784 47.7246L77.5682 48.1588L25.0273 10.626L25.4203 10.0759Z" fill="white"/>
<path d="M75.9782 50.0721L75.6152 47.7049L76.0029 47.1621L77.4307 46.9823L79.921 51.115L75.9782 50.0721Z" fill="#E49470"/>
<path d="M25.5877 4.04061L17.9463 14.7375L18.5344 15.1577L26.1759 4.46076L25.5877 4.04061Z" fill="#F8B88E"/>
<path d="M26.1751 4.45896C26.1751 4.45896 25.6645 5.1838 25.3059 6.11943C24.8643 7.25792 24.6382 8.70707 25.8035 9.53956L23.218 13.159C22.0526 12.3265 20.7551 13.0103 19.8211 13.7973C19.0525 14.4398 18.5322 15.158 18.5322 15.158L26.1751 4.45896Z" fill="#E49470"/>
<path opacity="0.1" d="M25.7957 4.98985C25.7957 4.98985 23.3002 8.5496 25.426 10.0682L25.0312 10.6208C22.9054 9.10225 25.4009 5.54251 25.4009 5.54251L25.7957 4.98985Z" fill="white"/>
<path opacity="0.15" d="M23.7921 12.3557L23.218 13.1593C21.0922 11.6407 18.5322 15.158 18.5322 15.158L19.1079 14.352C19.1079 14.352 21.6662 10.8371 23.7921 12.3557Z" fill="#6E3025"/>
<path opacity="0.1" d="M25.5877 4.04061L17.9463 14.7375L18.1574 14.8884L25.7988 4.19142L25.5877 4.04061Z" fill="white"/>
<path opacity="0.15" d="M26.175 4.45912C26.175 4.45912 25.6644 5.18396 25.3058 6.11959L19.8211 13.7973C19.0525 14.4398 18.5322 15.158 18.5322 15.158L26.175 4.45912Z" fill="#6E3025"/>
<path d="M78.829 13.0004C78.284 13.0004 77.8768 12.9267 77.6075 12.7792C77.3446 12.6317 77.2132 12.4105 77.2132 12.1156C77.2132 11.9296 77.2869 11.7757 77.4344 11.6539C77.5883 11.5321 77.7742 11.4711 77.9922 11.4711C78.1846 11.4711 78.3738 11.5417 78.5597 11.6827C78.7457 11.8238 78.8996 12.0162 79.0214 12.2598C79.4061 12.2598 79.7588 12.1861 80.0794 12.0386C80.4 11.8911 80.6533 11.6892 80.8392 11.4327C81.0252 11.1762 81.1182 10.8941 81.1182 10.5863C81.1182 10.3105 81.0412 10.0509 80.8873 9.80719C80.7398 9.55711 80.5603 9.40002 80.3487 9.33589C79.9255 9.61803 79.5664 9.7591 79.2715 9.7591C79.0983 9.7591 78.9509 9.7078 78.829 9.6052C78.7136 9.4962 78.6559 9.36475 78.6559 9.21086C78.6559 8.98643 78.7521 8.80689 78.9444 8.67223C79.1432 8.53758 79.4029 8.47025 79.7235 8.47025C80.2237 8.47025 80.6725 8.56002 81.0701 8.73956C81.4676 8.91269 81.7786 9.15315 82.003 9.46093C82.2275 9.76871 82.3397 10.1182 82.3397 10.5093C82.3397 10.9838 82.189 11.4102 81.8876 11.7885C81.5863 12.1669 81.1663 12.4618 80.6276 12.6734C80.0954 12.8914 79.4959 13.0004 78.829 13.0004ZM79.7428 8.76842C80.198 8.6017 80.5635 8.34842 80.8392 8.00858C81.115 7.66873 81.2528 7.30003 81.2528 6.90248C81.2528 6.48569 81.1598 6.1747 80.9739 5.96951C80.7879 5.76432 80.5058 5.66172 80.1275 5.66172C79.871 5.66172 79.6338 5.73226 79.4157 5.87332C79.2041 6.00798 79.0278 6.19714 78.8867 6.4408C78.7521 6.67805 78.6751 6.94416 78.6559 7.23912C78.4251 7.20705 78.2423 7.1237 78.1077 6.98904C77.9794 6.85439 77.9153 6.67805 77.9153 6.46004C77.9153 6.1266 78.0179 5.83164 78.2231 5.57516C78.4283 5.31867 78.72 5.11989 79.0983 4.97883C79.4767 4.83776 79.9127 4.76722 80.4064 4.76722C80.804 4.76722 81.1598 4.84417 81.474 4.99806C81.7882 5.15195 82.0319 5.36676 82.205 5.64249C82.3846 5.91821 82.4743 6.2292 82.4743 6.57546C82.4743 7.03072 82.3204 7.47637 82.0127 7.91239C81.7113 8.34201 81.2753 8.73636 80.7046 9.09544L79.7428 8.76842ZM84.3125 10.5863C85.4154 9.8681 86.2425 9.20765 86.794 8.60491C87.3518 7.99575 87.6308 7.42827 87.6308 6.90248C87.6308 6.48569 87.5346 6.1747 87.3422 5.96951C87.1563 5.76432 86.8741 5.66172 86.4958 5.66172C86.2522 5.66172 86.0277 5.73226 85.8225 5.87332C85.6238 6.00798 85.4603 6.19393 85.332 6.43118C85.2102 6.66843 85.1396 6.93774 85.1204 7.23912C84.8832 7.21347 84.7004 7.13331 84.5722 6.99866C84.4439 6.85759 84.3798 6.67805 84.3798 6.46004C84.3798 6.1266 84.4792 5.83164 84.678 5.57516C84.8767 5.31867 85.1557 5.11989 85.5148 4.97883C85.8803 4.83776 86.3002 4.76722 86.7747 4.76722C87.1851 4.76722 87.5474 4.84417 87.8616 4.99806C88.1758 5.14554 88.4195 5.35714 88.5926 5.63287C88.7657 5.90859 88.8523 6.22279 88.8523 6.57546C88.8523 7.01148 88.7273 7.44751 88.4772 7.88354C88.2335 8.31957 87.8424 8.78765 87.3038 9.2878C86.7715 9.78795 86.0534 10.3554 85.1493 10.9902L84.3125 10.5863ZM87.8616 11.7885C87.4961 11.7885 87.1274 11.7469 86.7555 11.6635C86.3836 11.5802 85.877 11.4231 85.2358 11.1922L85.207 11.1826C85.021 11.375 84.8511 11.5096 84.6972 11.5866C84.5497 11.6699 84.3894 11.7116 84.2163 11.7116C84.0432 11.7116 83.8957 11.6539 83.7739 11.5385C83.6584 11.4231 83.6007 11.282 83.6007 11.1153C83.6007 10.8395 83.7129 10.6151 83.9374 10.442C84.1618 10.2689 84.4439 10.1823 84.7838 10.1823C84.9505 10.1823 85.1525 10.2112 85.3897 10.2689C85.627 10.3202 85.9187 10.3971 86.265 10.4997C86.6754 10.6151 86.9992 10.7017 87.2364 10.7594C87.4737 10.8107 87.6821 10.8363 87.8616 10.8363L88.9196 10.2592C89.0094 10.4003 89.0703 10.5189 89.1024 10.6151C89.1408 10.7113 89.1601 10.8043 89.1601 10.8941C89.1601 11.0608 89.1024 11.2147 88.9869 11.3557C88.8715 11.4904 88.7144 11.5962 88.5157 11.6731C88.3169 11.7501 88.0989 11.7885 87.8616 11.7885Z" fill="black"/>
</svg>
