<svg width="95" height="61" viewBox="0 0 95 61" fill="none" xmlns="http://www.w3.org/2000/svg">
<path d="M93.623 0.75V59.96H0.75V0.75H93.623Z" fill="#3BA15C" stroke="black" stroke-width="1.5"/>
<path d="M82.0961 11.7405C81.8716 11.7405 81.7017 11.6571 81.5863 11.4904C81.4709 11.3173 81.4132 11.0672 81.4132 10.7402C81.4132 10.2079 81.4645 9.6052 81.567 8.93193C81.6696 8.25224 81.8364 7.41224 82.0672 6.41195C81.7402 6.41195 81.4709 6.34782 81.2593 6.21958C81.0541 6.09134 80.929 5.9118 80.8842 5.68096C81.1919 5.59119 81.4548 5.49821 81.6729 5.40203C81.8973 5.30585 82.1409 5.18722 82.4038 5.04615C82.5898 4.94356 82.7373 4.87303 82.8463 4.83455C82.9553 4.78967 83.0611 4.76722 83.1637 4.76722C83.4202 4.76722 83.5484 4.9147 83.5484 5.20966C83.5484 5.30585 83.5228 5.48218 83.4715 5.73867C83.4202 5.98874 83.3593 6.26126 83.2887 6.55622C83.0899 7.40904 82.9296 8.15926 82.8078 8.80689C82.6924 9.45452 82.6347 10.0637 82.6347 10.6344C82.6347 10.9806 82.6892 11.282 82.7982 11.5385C82.5481 11.6731 82.3141 11.7405 82.0961 11.7405ZM85.2878 10.5863C86.3907 9.8681 87.2179 9.20765 87.7693 8.60491C88.3272 7.99575 88.6061 7.42827 88.6061 6.90248C88.6061 6.48569 88.5099 6.1747 88.3176 5.96951C88.1316 5.76432 87.8495 5.66172 87.4712 5.66172C87.2275 5.66172 87.0031 5.73226 86.7979 5.87332C86.5991 6.00798 86.4356 6.19393 86.3073 6.43118C86.1855 6.66843 86.115 6.93774 86.0957 7.23912C85.8585 7.21347 85.6757 7.13331 85.5475 6.99866C85.4193 6.85759 85.3551 6.67805 85.3551 6.46004C85.3551 6.1266 85.4545 5.83164 85.6533 5.57516C85.8521 5.31867 86.131 5.11989 86.4901 4.97883C86.8556 4.83776 87.2756 4.76722 87.7501 4.76722C88.1605 4.76722 88.5227 4.84417 88.8369 4.99806C89.1511 5.14554 89.3948 5.35714 89.5679 5.63287C89.7411 5.90859 89.8276 6.22279 89.8276 6.57546C89.8276 7.01148 89.7026 7.44751 89.4525 7.88354C89.2088 8.31957 88.8177 8.78765 88.2791 9.2878C87.7469 9.78795 87.0287 10.3554 86.1246 10.9902L85.2878 10.5863ZM88.8369 11.7885C88.4715 11.7885 88.1028 11.7469 87.7308 11.6635C87.3589 11.5802 86.8524 11.4231 86.2112 11.1922L86.1823 11.1826C85.9964 11.375 85.8264 11.5096 85.6725 11.5866C85.5251 11.6699 85.3648 11.7116 85.1916 11.7116C85.0185 11.7116 84.871 11.6539 84.7492 11.5385C84.6338 11.4231 84.5761 11.282 84.5761 11.1153C84.5761 10.8395 84.6883 10.6151 84.9127 10.442C85.1371 10.2689 85.4193 10.1823 85.7591 10.1823C85.9258 10.1823 86.1278 10.2112 86.3651 10.2689C86.6023 10.3202 86.8941 10.3971 87.2403 10.4997C87.6507 10.6151 87.9745 10.7017 88.2118 10.7594C88.449 10.8107 88.6574 10.8363 88.8369 10.8363L89.895 10.2592C89.9847 10.4003 90.0456 10.5189 90.0777 10.6151C90.1162 10.7113 90.1354 10.8043 90.1354 10.8941C90.1354 11.0608 90.0777 11.2147 89.9623 11.3557C89.8469 11.4904 89.6898 11.5962 89.491 11.6731C89.2922 11.7501 89.0742 11.7885 88.8369 11.7885Z" fill="black"/>
</svg>
