<svg width="95" height="61" viewBox="0 0 95 61" fill="none" xmlns="http://www.w3.org/2000/svg">
<path d="M93.623 0.75V59.96H0.75V0.75H93.623Z" fill="#3BA15C" stroke="black" stroke-width="1.5"/>
<path d="M84.9753 10.5863C86.0782 9.8681 86.9054 9.20765 87.4569 8.60491C88.0147 7.99575 88.2936 7.42827 88.2936 6.90248C88.2936 6.48569 88.1975 6.1747 88.0051 5.96951C87.8191 5.76432 87.537 5.66172 87.1587 5.66172C86.915 5.66172 86.6906 5.73226 86.4854 5.87332C86.2866 6.00798 86.1231 6.19393 85.9949 6.43118C85.8731 6.66843 85.8025 6.93774 85.7833 7.23912C85.546 7.21347 85.3633 7.13331 85.235 6.99866C85.1068 6.85759 85.0427 6.67805 85.0427 6.46004C85.0427 6.1266 85.1421 5.83164 85.3408 5.57516C85.5396 5.31867 85.8185 5.11989 86.1776 4.97883C86.5431 4.83776 86.9631 4.76722 87.4376 4.76722C87.848 4.76722 88.2103 4.84417 88.5245 4.99806C88.8387 5.14554 89.0823 5.35714 89.2555 5.63287C89.4286 5.90859 89.5152 6.22279 89.5152 6.57546C89.5152 7.01148 89.3901 7.44751 89.14 7.88354C88.8964 8.31957 88.5052 8.78765 87.9666 9.2878C87.4344 9.78795 86.7163 10.3554 85.8121 10.9902L84.9753 10.5863ZM88.5245 11.7885C88.159 11.7885 87.7903 11.7469 87.4184 11.6635C87.0465 11.5802 86.5399 11.4231 85.8987 11.1922L85.8698 11.1826C85.6839 11.375 85.514 11.5096 85.3601 11.5866C85.2126 11.6699 85.0523 11.7116 84.8792 11.7116C84.706 11.7116 84.5586 11.6539 84.4367 11.5385C84.3213 11.4231 84.2636 11.282 84.2636 11.1153C84.2636 10.8395 84.3758 10.6151 84.6002 10.442C84.8247 10.2689 85.1068 10.1823 85.4466 10.1823C85.6134 10.1823 85.8153 10.2112 86.0526 10.2689C86.2898 10.3202 86.5816 10.3971 86.9279 10.4997C87.3382 10.6151 87.662 10.7017 87.8993 10.7594C88.1365 10.8107 88.3449 10.8363 88.5245 10.8363L89.5825 10.2592C89.6723 10.4003 89.7332 10.5189 89.7652 10.6151C89.8037 10.7113 89.8229 10.8043 89.8229 10.8941C89.8229 11.0608 89.7652 11.2147 89.6498 11.3557C89.5344 11.4904 89.3773 11.5962 89.1785 11.6731C88.9797 11.7501 88.7617 11.7885 88.5245 11.7885Z" fill="black"/>
</svg>
