<svg width="95" height="61" viewBox="0 0 95 61" fill="none" xmlns="http://www.w3.org/2000/svg">
<path d="M93.5371 0.720947V59.8733H0.720703V0.720947H93.5371Z" fill="#FFC270" stroke="black" stroke-width="1.44274"/>
<path d="M76.2373 43.1142C73.7079 46.5552 66.3915 50.2606 63.23 49.6452C62.8818 49.5775 62.1803 49.4592 61.2043 49.3022C59.1921 48.9782 56.0139 48.4879 52.3614 47.9291C48.002 47.2627 42.9668 46.4988 38.4337 45.8044C31.8704 44.799 26.359 43.9398 25.4733 43.732C23.8535 43.3521 21.8622 42.4276 20.3322 40.2752C19.7294 39.4267 19.1981 38.3873 18.7892 37.1149C18.5431 36.3495 18.3851 35.4748 18.3149 34.5438C18.2714 33.9632 18.2621 33.3607 18.2871 32.7493C18.3378 31.5031 18.5326 30.2193 18.8718 29.0082C19.3417 27.33 20.0894 25.7902 21.1191 24.6799C21.8327 23.9103 22.6815 23.3471 23.6673 23.0869C25.4987 22.6033 38.9666 24.796 51.4218 27.007C56.0124 27.8223 60.4657 28.6398 64.1477 29.3272H64.1487C68.7061 30.1778 72.0824 30.8287 73.0762 31.0272C73.1787 31.0477 73.2794 31.0727 73.3789 31.1023C77.1356 32.223 78.7009 39.7618 76.2373 43.1142Z" fill="white"/>
<path opacity="0.6" d="M64.1472 29.3273C63.9448 29.3001 57.5566 32.3508 54.9255 36.556C53.0069 39.6228 52.3784 45.0028 52.3611 47.929C48.0018 47.2626 42.9665 46.4987 38.4335 45.8043L37.4209 31.7896C37.4209 31.7896 44.8202 29.2622 51.4211 27.0071C56.012 27.8224 60.4654 28.6399 64.1472 29.3273Z" fill="white"/>
<path d="M63.7066 26.4392C63.4295 26.9275 63.0883 27.372 62.688 27.7628C60.463 29.9361 45.2065 44.5194 39.1655 49.676C38.0939 50.5904 37.3122 51.2085 36.9448 51.4078C34.5058 52.7311 27.0086 53.0841 22.1312 50.4373C17.2534 47.7906 15.8082 39.1064 17.5245 36.2138C19.6636 32.6086 46.8807 14.1759 49.5904 12.7643C50.468 12.3069 51.6199 12.0353 52.9089 12.0232C54.0558 12.0119 55.3112 12.2071 56.5775 12.661C57.4038 12.957 58.2348 13.3632 59.0433 13.8942C59.9028 14.4585 60.7371 15.164 61.5135 16.0284C61.7543 16.2963 61.9795 16.5665 62.19 16.8375C62.6973 17.491 63.1178 18.1528 63.4563 18.8126C64.0944 20.0555 64.4427 21.2926 64.5324 22.4622C64.6465 23.9385 64.3494 25.3063 63.7066 26.4392Z" fill="white"/>
<path d="M74.3699 42.5958C71.9609 45.873 64.9929 49.402 61.982 48.8159C61.6503 48.7514 60.9822 48.6387 60.0526 48.4892C58.1363 48.1806 55.1094 47.7137 51.6308 47.1815C47.479 46.5468 42.6836 45.8193 38.3664 45.1579C32.1155 44.2004 26.8666 43.3821 26.023 43.1842C24.4804 42.8225 22.5839 41.9419 21.1268 39.8921C20.5526 39.0839 20.0467 38.094 19.6573 36.8822C19.4228 36.1533 19.2723 35.3202 19.2055 34.4335C19.1641 33.8806 19.1552 33.3068 19.179 32.7245C19.2273 31.5377 19.4128 30.3149 19.7359 29.1615C20.1835 27.5632 20.8955 26.0968 21.8762 25.0393C22.5558 24.3064 23.3642 23.77 24.303 23.5222C26.0472 23.0616 38.8739 25.1499 50.736 27.2556C55.108 28.0321 59.3492 28.8107 62.8559 29.4653H62.8569C67.1973 30.2754 70.4128 30.8953 71.3593 31.0843C71.4569 31.1039 71.5528 31.1277 71.6475 31.1559C75.2254 32.2232 76.7161 39.403 74.3699 42.5958Z" fill="url(#paint0_linear_126_2360)"/>
<path opacity="0.3" d="M68.3651 32.987L65.9208 35.566C65.9208 35.566 47.4571 30.4792 42.6161 30.3362C38.9644 30.228 25.9237 29.5085 19.7354 29.1615C20.1829 27.5632 20.895 26.0968 21.8757 25.0393C26.14 26.2543 34.0663 28.3413 38.6553 28.5451C45.1099 28.8314 68.3651 32.987 68.3651 32.987Z" fill="url(#paint1_linear_126_2360)"/>
<path opacity="0.3" d="M65.4003 37.6108L61.5961 43.0926C61.5961 43.0926 50.3183 36.9867 43.2035 36.1688C37.74 35.5406 24.8811 34.7614 19.2055 34.4334C19.1641 33.8805 19.1552 33.3067 19.179 32.7244C26.3923 32.643 41.0349 32.3181 43.7169 32.7002C47.2374 33.2017 65.4003 37.6108 65.4003 37.6108Z" fill="url(#paint2_linear_126_2360)"/>
<path opacity="0.3" d="M60.0528 48.489C52.5378 47.2788 27.9372 43.6325 26.0232 43.184C24.4806 42.8222 22.5841 41.9417 21.127 39.8918C29.7962 40.5194 43.6803 41.8713 46.5771 42.3401C49.6085 42.8309 56.4946 46.5053 60.0528 48.489Z" fill="url(#paint3_linear_126_2360)"/>
<path opacity="0.4" d="M74.3699 42.5957C71.9609 45.8729 64.9929 49.4019 61.982 48.8158C61.6503 48.7513 60.9822 48.6387 60.0526 48.4892C58.1363 48.1806 55.1094 47.7136 51.6308 47.1814C47.479 46.5468 42.6836 45.8192 38.3664 45.1578C32.1155 44.2004 26.8666 43.382 26.023 43.1842C24.4804 42.8224 22.5839 41.9419 21.1268 39.892C20.5526 39.0838 20.0467 38.0939 19.6573 36.8821C19.4228 36.1532 19.2723 35.3201 19.2055 34.4335C19.1641 33.8805 19.1552 33.3067 19.179 32.7244C19.2273 31.5376 19.4128 30.3149 19.7359 29.1615C20.0738 27.9541 20.5631 26.822 21.2048 25.8845C21.3736 27.4497 22.1291 28.8339 23.4603 29.0102C25.5222 29.2835 29.8771 26.1449 31.8281 24.1526C36.9776 24.8738 44.0116 26.0618 50.7358 27.2557C54.3325 27.8944 57.8406 28.5347 60.9241 29.106C57.3168 31.5518 52.6734 38.2071 54.4253 41.4636C56.5174 45.353 67.7373 46.5111 74.3699 42.5957Z" fill="url(#paint4_linear_126_2360)" fill-opacity="0.1"/>
<path opacity="0.6" d="M62.8561 29.4654C62.6633 29.4395 56.5793 32.3449 54.0735 36.3499C52.2462 39.2707 51.6477 44.3945 51.6312 47.1813C47.4794 46.5467 42.6839 45.8191 38.3667 45.1577L37.4023 31.8104C37.4023 31.8104 44.4494 29.4034 50.736 27.2556C55.1082 28.0321 59.3496 28.8107 62.8561 29.4654Z" fill="url(#paint5_linear_126_2360)" fill-opacity="0.1"/>
<path d="M72.2848 43.8545C68.4228 47.1438 62.6748 48.6665 60.65 47.628C58.6248 46.59 59.688 40.4092 59.688 40.4092L55.4863 38.6292L61.4599 37.393C61.4599 37.393 65.2669 32.3322 69.2051 31.8552C75.7351 31.0642 75.7049 40.9412 72.2848 43.8545Z" fill="url(#paint6_linear_126_2360)"/>
<path opacity="0.4" d="M68.8456 36.3453C65.5295 37.2396 63.2966 43.752 65.4981 43.5633C70.1721 43.1622 74.3272 34.8666 68.8456 36.3453ZM66.4748 42.3377C64.9562 42.4681 66.802 37.6386 69.0891 37.0218C72.8703 36.0018 69.6986 42.061 66.4748 42.3377Z" fill="url(#paint7_linear_126_2360)"/>
<path opacity="0.4" d="M70.1978 33.6973C66.2635 34.4486 61.2835 40.5821 61.4906 44.3961C61.6641 47.5939 65.4764 46.8047 69.3483 44.4182C72.8845 42.2386 75.5966 32.6663 70.1978 33.6973ZM69.0573 43.6755C65.9684 45.2682 63.1975 45.5741 63.0525 42.903C62.8796 39.7168 66.594 35.395 69.8806 34.7674C74.3906 33.9061 72.1461 42.0824 69.0573 43.6755Z" fill="url(#paint8_linear_126_2360)"/>
<path opacity="0.4" d="M68.7024 38.9264C67.2818 39.182 66.4194 41.2027 67.6085 40.7148C68.7975 40.2272 69.606 38.7638 68.7024 38.9264Z" fill="url(#paint9_linear_126_2360)"/>
<path opacity="0.4" d="M71.6476 31.1561C67.3671 30.1533 63.9683 32.5179 60.9921 36.0003C60.6655 36.3826 55.4863 38.6294 55.4863 38.6294L59.688 40.4094C58.4038 42.1768 58.002 46.5698 60.0531 48.4892C60.9827 48.6389 61.6509 48.7515 61.9824 48.8158C64.9934 49.4019 71.9614 45.8729 74.3703 42.5957C76.7166 39.403 75.2258 32.2231 71.6476 31.1561Z" fill="url(#paint10_linear_126_2360)" fill-opacity="0.1"/>
<path opacity="0.4" d="M61.4599 37.3933L62.856 39.1248L55.4863 38.6293L61.4599 37.3933Z" fill="url(#paint11_linear_126_2360)" fill-opacity="0.1"/>
<path d="M62.4365 26.7149C62.1726 27.18 61.8476 27.6033 61.4664 27.9755C59.3473 30.0453 44.8173 43.9342 39.0639 48.8452C38.0434 49.7162 37.2989 50.3048 36.9489 50.4946C34.6261 51.7549 27.4859 52.0911 22.8408 49.5703C18.1952 47.0496 16.8188 38.7789 18.4534 36.0241C20.4906 32.5905 46.4118 15.0356 48.9924 13.6912C49.8283 13.2555 50.9253 12.9968 52.1529 12.9853C53.2452 12.9746 54.4408 13.1605 55.6469 13.5927C56.4338 13.8747 57.2252 14.2616 57.9953 14.7673C58.8138 15.3046 59.6084 15.9765 60.3478 16.7999C60.5771 17.0549 60.7917 17.3123 60.9921 17.5704C61.4753 18.1928 61.8757 18.8231 62.1981 19.4514C62.8059 20.6352 63.1375 21.8133 63.223 22.9272C63.3317 24.3332 63.0487 25.636 62.4365 26.7149Z" fill="url(#paint12_linear_126_2360)"/>
<path opacity="0.3" d="M55.6469 13.5926C52.4401 15.8667 45.6591 20.6865 39.8564 24.8905C31.9406 30.6254 26.1619 39.5676 26.1619 39.7987C26.1619 40.0296 20.4624 38.7946 20.6634 36.9061C20.8644 35.0178 32.0989 28.1243 38.115 24.181C42.1345 21.5463 48.3451 16.3231 52.153 12.985C53.2453 12.9747 54.4409 13.1606 55.6469 13.5926Z" fill="url(#paint13_linear_126_2360)"/>
<path opacity="0.3" d="M60.992 17.5704C57.5553 18.948 52.3057 21.1102 48.0891 23.0986C41.2021 26.3459 30.1465 39.8807 30.1465 39.8807L27.9873 38.9139C27.9873 38.9139 37.086 29.748 41.598 26.0367C44.626 23.546 52.859 18.1305 57.9952 14.7671C58.8138 15.3045 59.6084 15.9764 60.3478 16.7997C60.5771 17.0549 60.7916 17.3123 60.992 17.5704Z" fill="url(#paint14_linear_126_2360)"/>
<path opacity="0.3" d="M63.2234 22.9275C59.7691 24.1147 55.3507 25.8529 51.9682 27.8924C45.5563 31.7584 34.8072 46.9599 34.8072 46.9599C34.8072 46.9599 31.5524 41.7023 31.7033 40.9968C31.8538 40.2915 43.4189 30.9078 48.1684 27.2741C51.0575 25.0633 57.4913 21.7656 62.1983 19.4517C62.8063 20.6354 63.1379 21.8136 63.2234 22.9275Z" fill="url(#paint15_linear_126_2360)"/>
<path opacity="0.3" d="M62.437 26.7148C62.1731 27.1799 61.8481 27.6032 61.4669 27.9754C59.3478 30.0452 44.8178 43.9341 39.0645 48.8451C42.2976 44.1877 47.8127 36.3641 49.8314 34.2327C51.6001 32.3645 57.7598 29.0576 62.437 26.7148Z" fill="url(#paint16_linear_126_2360)"/>
<path opacity="0.4" d="M63.223 22.9277C63.1375 21.8138 62.8061 20.6356 62.1981 19.4519C61.8757 18.8234 61.4753 18.1933 60.9921 17.5709C60.7917 17.3128 60.5771 17.0552 60.3478 16.8003C59.6084 15.977 58.8138 15.3051 57.9953 14.7677C57.2252 14.262 56.4338 13.8749 55.6469 13.5932C54.4408 13.1612 53.245 12.9752 52.1529 12.9858C50.9253 12.9973 49.8283 13.256 48.9924 13.6917C46.4118 15.036 20.4906 32.5908 18.4534 36.0244C16.8188 38.7792 18.1952 47.0499 22.8408 49.5706C27.4859 52.0914 34.6261 51.7552 36.9489 50.4949C37.2989 50.305 38.0434 49.7164 39.0639 48.8455C44.8173 43.9345 59.3473 30.0458 61.4664 27.9757C61.8476 27.6036 62.1726 27.18 62.4365 26.7152C63.0487 25.6361 63.3317 24.3333 63.223 22.9277ZM52.3736 32.8992C47.6921 36.2096 39.3785 40.7851 35.069 36.1691C30.7594 31.5531 33.1953 27.1271 37.4026 23.458C47.1851 14.9266 55.8158 13.6928 59.657 18.1088C63.8272 22.9037 57.0551 29.589 52.3736 32.8992Z" fill="url(#paint17_linear_126_2360)" fill-opacity="0.1"/>
<path opacity="0.4" d="M19.7709 37.2185C18.3998 37.9883 17.9757 44.883 21.7082 48.2738C25.0263 51.2882 35.2092 51.0708 36.0944 49.2082C36.9798 47.3457 20.9207 36.5729 19.7709 37.2185Z" fill="url(#paint18_linear_126_2360)" fill-opacity="0.1"/>
<path d="M36.6078 48.2377C36.4053 48.867 36.0673 49.3587 35.5871 49.6421C33.2562 51.0176 24.8766 49.6176 22.5459 47.8153C20.3988 46.155 18.34 40.2717 19.4211 37.7799C19.5137 37.5663 19.6294 37.3774 19.7701 37.2185C22.5844 34.0398 29.7113 35.8183 33.3047 38.9014C36.1577 41.349 37.3883 45.8134 36.6078 48.2377Z" fill="url(#paint19_linear_126_2360)"/>
<path opacity="0.4" d="M34.1214 42.7377C30.8249 36.6435 23.6655 36.7475 21.5535 38.2568C19.3057 39.8635 21.4507 47.3126 26.4468 48.3691C31.4431 49.4257 37.4176 48.8315 34.1214 42.7377ZM25.9833 47.5548C22.0368 46.7204 20.705 40.4316 22.4807 39.1623C24.1487 37.9702 29.4574 37.7194 32.061 42.5329C34.6651 47.3464 29.9297 48.3895 25.9833 47.5548Z" fill="url(#paint20_linear_126_2360)"/>
<path opacity="0.4" d="M31.2155 44.5813C30.7622 42.0201 27.6865 40.085 25.3882 40.1226C21.9352 40.1796 23.0897 44.834 25.8091 45.846C28.5283 46.8578 31.6075 46.7968 31.2155 44.5813ZM26.2056 45.1443C24.2353 44.4112 22.8541 41.0384 25.3558 40.9974C27.0211 40.9699 29.7939 42.3725 30.1222 44.2279C30.4063 45.8333 28.1756 45.8773 26.2056 45.1443Z" fill="url(#paint21_linear_126_2360)"/>
<path opacity="0.4" d="M26.456 42.5394C24.6359 42.7455 26.4141 44.3695 27.6321 44.3187C28.85 44.2678 28.2515 42.3361 26.456 42.5394Z" fill="url(#paint22_linear_126_2360)"/>
<path opacity="0.4" d="M36.9489 50.4944C34.6261 51.7547 27.4859 52.0909 22.8408 49.5701C18.1952 47.0494 16.8188 38.7787 18.4534 36.0239C22.4712 31.7831 30.6215 35.1004 33.5507 37.3933C36.4801 39.6863 40.7252 46.4319 36.9489 50.4944Z" fill="url(#paint23_linear_126_2360)" fill-opacity="0.1"/>
<path d="M79.4151 12.6064C78.8829 12.6064 78.6168 12.2954 78.6168 11.6735C78.6168 10.9681 78.8316 10.0832 79.2612 9.01883C79.6908 7.95441 80.2679 6.86113 80.9925 5.739L82.2333 5.34466C81.8678 5.8961 81.5151 6.5277 81.1753 7.23945C80.8354 7.9512 80.5565 8.6886 80.3385 9.45165C80.1205 10.2147 80.0114 10.9264 80.0114 11.5869C80.0114 11.7729 80.0179 11.9203 80.0307 12.0293C80.0499 12.1448 80.0884 12.2634 80.1461 12.3852C79.9089 12.5327 79.6652 12.6064 79.4151 12.6064ZM80.3866 6.14297C79.7582 6.14297 79.2548 6.11412 78.8765 6.05641C78.5046 5.99229 78.2321 5.8961 78.0589 5.76786C77.8858 5.6332 77.7992 5.45366 77.7992 5.22924C77.7992 5.12023 77.8153 5.01122 77.8473 4.90222C77.8794 4.7868 77.9179 4.68741 77.9628 4.60405C78.4308 4.80283 78.9534 4.96954 79.5305 5.1042C80.1076 5.23244 80.6302 5.30939 81.0983 5.33504C81.2073 5.12985 81.3388 4.96954 81.4927 4.85413C81.653 4.73229 81.8229 4.67138 82.0024 4.67138C82.214 4.67138 82.3743 4.72268 82.4833 4.82527C82.5923 4.92145 82.6468 5.06252 82.6468 5.24847C82.6468 5.56267 82.4641 5.7903 82.0986 5.93137C81.7331 6.07244 81.1624 6.14297 80.3866 6.14297ZM85.7288 11.6831C85.0363 11.6831 84.4784 11.4587 84.0552 11.0098C83.6385 10.5545 83.4301 9.89729 83.4301 9.03806C83.4301 8.1083 83.6577 7.21701 84.113 6.36419C84.5746 5.50496 85.1357 4.81245 85.7961 4.28665C86.463 3.75444 87.0658 3.48833 87.6044 3.48833C87.8224 3.48833 87.9923 3.53001 88.1141 3.61337C88.2424 3.69032 88.3514 3.83459 88.4412 4.04619C87.9731 4.21932 87.5274 4.43413 87.1042 4.69062C86.6874 4.9471 86.2706 5.3126 85.8539 5.7871C85.4435 6.2616 85.0908 6.86434 84.7958 7.59533H84.8536C85.1229 7.23625 85.4082 6.98617 85.7096 6.8451C86.011 6.69762 86.3316 6.62388 86.6714 6.62388C87.0946 6.62388 87.4569 6.72007 87.7583 6.91243C88.0661 7.1048 88.2969 7.36769 88.4508 7.70113C88.6111 8.03456 88.6912 8.41608 88.6912 8.8457C88.6912 9.3715 88.5534 9.85241 88.2777 10.2884C88.0083 10.7245 87.6461 11.0675 87.1908 11.3176C86.7355 11.5613 86.2482 11.6831 85.7288 11.6831ZM85.8731 10.9329C86.1103 10.9329 86.3508 10.8527 86.5945 10.6924C86.8381 10.5321 87.0433 10.2948 87.21 9.98065C87.3767 9.66004 87.4601 9.27852 87.4601 8.83608C87.4601 8.4257 87.3575 8.08265 87.1523 7.80693C86.9471 7.52479 86.6073 7.38373 86.1328 7.38373C85.9148 7.38373 85.6903 7.46067 85.4595 7.61456C85.2287 7.76846 85.0363 7.99288 84.8824 8.28784C84.7285 8.5828 84.6516 8.93547 84.6516 9.34585C84.6516 9.7947 84.7478 10.173 84.9401 10.4808C85.1325 10.7822 85.4435 10.9329 85.8731 10.9329Z" fill="black"/>
<defs>
<linearGradient id="paint0_linear_126_2360" x1="45.1656" y1="45.8848" x2="49.3099" y2="25.2685" gradientUnits="userSpaceOnUse">
<stop offset="1e-08" stop-color="#AE3353"/>
<stop offset="0.0887" stop-color="#AF3A50"/>
<stop offset="0.3713" stop-color="#B24D47"/>
<stop offset="0.6682" stop-color="#B45743"/>
<stop offset="1" stop-color="#B55B41"/>
</linearGradient>
<linearGradient id="paint1_linear_126_2360" x1="19.7354" y1="30.3026" x2="68.365" y2="30.3026" gradientUnits="userSpaceOnUse">
<stop offset="1e-08" stop-color="#AE3353"/>
<stop offset="0.0887" stop-color="#AF3A50"/>
<stop offset="0.3713" stop-color="#B24D47"/>
<stop offset="0.6682" stop-color="#B45743"/>
<stop offset="1" stop-color="#B55B41"/>
</linearGradient>
<linearGradient id="paint2_linear_126_2360" x1="19.166" y1="37.8053" x2="65.4003" y2="37.8053" gradientUnits="userSpaceOnUse">
<stop offset="1e-08" stop-color="#AE3353"/>
<stop offset="0.0887" stop-color="#AF3A50"/>
<stop offset="0.3713" stop-color="#B24D47"/>
<stop offset="0.6682" stop-color="#B45743"/>
<stop offset="1" stop-color="#B55B41"/>
</linearGradient>
<linearGradient id="paint3_linear_126_2360" x1="21.127" y1="44.1905" x2="60.0529" y2="44.1905" gradientUnits="userSpaceOnUse">
<stop offset="1e-08" stop-color="#AE3353"/>
<stop offset="0.0887" stop-color="#AF3A50"/>
<stop offset="0.3713" stop-color="#B24D47"/>
<stop offset="0.6682" stop-color="#B45743"/>
<stop offset="1" stop-color="#B55B41"/>
</linearGradient>
<linearGradient id="paint4_linear_126_2360" x1="53.2755" y1="58.6711" x2="54.5837" y2="62.8168" gradientUnits="userSpaceOnUse">
<stop stop-color="#8613D1"/>
<stop offset="0.1536" stop-color="#8816D2"/>
<stop offset="0.2867" stop-color="#8D21D4"/>
<stop offset="0.4122" stop-color="#9633D7"/>
<stop offset="0.5332" stop-color="#A34CDC"/>
<stop offset="0.6508" stop-color="#B46CE2"/>
<stop offset="0.7659" stop-color="#C894EA"/>
<stop offset="0.8791" stop-color="#E0C3F3"/>
<stop offset="0.9879" stop-color="#FCF9FE"/>
<stop offset="1" stop-color="white"/>
</linearGradient>
<linearGradient id="paint5_linear_126_2360" x1="49.4496" y1="36.2378" x2="58.5496" y2="45.0522" gradientUnits="userSpaceOnUse">
<stop stop-color="#8613D1"/>
<stop offset="0.1536" stop-color="#8816D2"/>
<stop offset="0.2867" stop-color="#8D21D4"/>
<stop offset="0.4122" stop-color="#9633D7"/>
<stop offset="0.5332" stop-color="#A34CDC"/>
<stop offset="0.6508" stop-color="#B46CE2"/>
<stop offset="0.7659" stop-color="#C894EA"/>
<stop offset="0.8791" stop-color="#E0C3F3"/>
<stop offset="0.9879" stop-color="#FCF9FE"/>
<stop offset="1" stop-color="white"/>
</linearGradient>
<linearGradient id="paint6_linear_126_2360" x1="61.458" y1="47.1116" x2="67.1625" y2="34.0478" gradientUnits="userSpaceOnUse">
<stop offset="1e-08" stop-color="#EF9362"/>
<stop offset="0.1983" stop-color="#F5A75F"/>
<stop offset="0.4469" stop-color="#FBBA5D"/>
<stop offset="0.7081" stop-color="#FEC45B"/>
<stop offset="1" stop-color="#FFC85B"/>
</linearGradient>
<linearGradient id="paint7_linear_126_2360" x1="64.4792" y1="40.7223" x2="73.4461" y2="38.169" gradientUnits="userSpaceOnUse">
<stop offset="1e-08" stop-color="#EF9362"/>
<stop offset="0.1983" stop-color="#F5A75F"/>
<stop offset="0.4469" stop-color="#FBBA5D"/>
<stop offset="0.7081" stop-color="#FEC45B"/>
<stop offset="1" stop-color="#FFC85B"/>
</linearGradient>
<linearGradient id="paint8_linear_126_2360" x1="61.3824" y1="41.71" x2="76.6473" y2="37.3633" gradientUnits="userSpaceOnUse">
<stop offset="1e-08" stop-color="#EF9362"/>
<stop offset="0.1983" stop-color="#F5A75F"/>
<stop offset="0.4469" stop-color="#FBBA5D"/>
<stop offset="0.7081" stop-color="#FEC45B"/>
<stop offset="1" stop-color="#FFC85B"/>
</linearGradient>
<linearGradient id="paint9_linear_126_2360" x1="67.0441" y1="40.1246" x2="69.6759" y2="39.3752" gradientUnits="userSpaceOnUse">
<stop offset="1e-08" stop-color="#EF9362"/>
<stop offset="0.1983" stop-color="#F5A75F"/>
<stop offset="0.4469" stop-color="#FBBA5D"/>
<stop offset="0.7081" stop-color="#FEC45B"/>
<stop offset="1" stop-color="#FFC85B"/>
</linearGradient>
<linearGradient id="paint10_linear_126_2360" x1="64.3034" y1="30.4711" x2="67.1987" y2="50.0255" gradientUnits="userSpaceOnUse">
<stop stop-color="#8613D1"/>
<stop offset="0.0948" stop-color="#891AD2"/>
<stop offset="0.2279" stop-color="#932CD6"/>
<stop offset="0.3839" stop-color="#A24ADC"/>
<stop offset="0.5571" stop-color="#B874E4"/>
<stop offset="0.7445" stop-color="#D3AAEE"/>
<stop offset="0.941" stop-color="#F4EAFB"/>
<stop offset="1" stop-color="white"/>
</linearGradient>
<linearGradient id="paint11_linear_126_2360" x1="59.1712" y1="39.923" x2="59.1712" y2="45.3846" gradientUnits="userSpaceOnUse">
<stop stop-color="#8613D1"/>
<stop offset="0.1536" stop-color="#8816D2"/>
<stop offset="0.2867" stop-color="#8D21D4"/>
<stop offset="0.4122" stop-color="#9633D7"/>
<stop offset="0.5332" stop-color="#A34CDC"/>
<stop offset="0.6508" stop-color="#B46CE2"/>
<stop offset="0.7659" stop-color="#C894EA"/>
<stop offset="0.8791" stop-color="#E0C3F3"/>
<stop offset="0.9879" stop-color="#FCF9FE"/>
<stop offset="1" stop-color="white"/>
</linearGradient>
<linearGradient id="paint12_linear_126_2360" x1="38.1425" y1="45.4686" x2="42.231" y2="19.8106" gradientUnits="userSpaceOnUse">
<stop offset="1e-08" stop-color="#AE3353"/>
<stop offset="0.0887" stop-color="#AF3A50"/>
<stop offset="0.3713" stop-color="#B24D47"/>
<stop offset="0.6682" stop-color="#B45743"/>
<stop offset="1" stop-color="#B55B41"/>
</linearGradient>
<linearGradient id="paint13_linear_126_2360" x1="20.6582" y1="26.4057" x2="55.647" y2="26.4057" gradientUnits="userSpaceOnUse">
<stop offset="1e-08" stop-color="#AE3353"/>
<stop offset="0.0887" stop-color="#AF3A50"/>
<stop offset="0.3713" stop-color="#B24D47"/>
<stop offset="0.6682" stop-color="#B45743"/>
<stop offset="1" stop-color="#B55B41"/>
</linearGradient>
<linearGradient id="paint14_linear_126_2360" x1="27.9873" y1="27.324" x2="60.9921" y2="27.324" gradientUnits="userSpaceOnUse">
<stop offset="1e-08" stop-color="#AE3353"/>
<stop offset="0.0887" stop-color="#AF3A50"/>
<stop offset="0.3713" stop-color="#B24D47"/>
<stop offset="0.6682" stop-color="#B45743"/>
<stop offset="1" stop-color="#B55B41"/>
</linearGradient>
<linearGradient id="paint15_linear_126_2360" x1="31.6983" y1="33.2058" x2="63.2234" y2="33.2058" gradientUnits="userSpaceOnUse">
<stop offset="1e-08" stop-color="#AE3353"/>
<stop offset="0.0887" stop-color="#AF3A50"/>
<stop offset="0.3713" stop-color="#B24D47"/>
<stop offset="0.6682" stop-color="#B45743"/>
<stop offset="1" stop-color="#B55B41"/>
</linearGradient>
<linearGradient id="paint16_linear_126_2360" x1="39.0645" y1="37.7799" x2="62.4369" y2="37.7799" gradientUnits="userSpaceOnUse">
<stop offset="1e-08" stop-color="#AE3353"/>
<stop offset="0.0887" stop-color="#AF3A50"/>
<stop offset="0.3713" stop-color="#B24D47"/>
<stop offset="0.6682" stop-color="#B45743"/>
<stop offset="1" stop-color="#B55B41"/>
</linearGradient>
<linearGradient id="paint17_linear_126_2360" x1="50.3806" y1="43.8445" x2="29.1173" y2="17.7076" gradientUnits="userSpaceOnUse">
<stop stop-color="#8613D1"/>
<stop offset="0.1536" stop-color="#8816D2"/>
<stop offset="0.2867" stop-color="#8D21D4"/>
<stop offset="0.4122" stop-color="#9633D7"/>
<stop offset="0.5332" stop-color="#A34CDC"/>
<stop offset="0.6508" stop-color="#B46CE2"/>
<stop offset="0.7659" stop-color="#C894EA"/>
<stop offset="0.8791" stop-color="#E0C3F3"/>
<stop offset="0.9879" stop-color="#FCF9FE"/>
<stop offset="1" stop-color="white"/>
</linearGradient>
<linearGradient id="paint18_linear_126_2360" x1="26.9469" y1="54.6966" x2="26.703" y2="59.691" gradientUnits="userSpaceOnUse">
<stop stop-color="#8613D1"/>
<stop offset="0.1536" stop-color="#8816D2"/>
<stop offset="0.2867" stop-color="#8D21D4"/>
<stop offset="0.4122" stop-color="#9633D7"/>
<stop offset="0.5332" stop-color="#A34CDC"/>
<stop offset="0.6508" stop-color="#B46CE2"/>
<stop offset="0.7659" stop-color="#C894EA"/>
<stop offset="0.8791" stop-color="#E0C3F3"/>
<stop offset="0.9879" stop-color="#FCF9FE"/>
<stop offset="1" stop-color="white"/>
</linearGradient>
<linearGradient id="paint19_linear_126_2360" x1="25.4565" y1="48.6265" x2="29.4941" y2="39.3801" gradientUnits="userSpaceOnUse">
<stop offset="1e-08" stop-color="#EF9362"/>
<stop offset="0.1983" stop-color="#F5A75F"/>
<stop offset="0.4469" stop-color="#FBBA5D"/>
<stop offset="0.7081" stop-color="#FEC45B"/>
<stop offset="1" stop-color="#FFC85B"/>
</linearGradient>
<linearGradient id="paint20_linear_126_2360" x1="22.2306" y1="44.5898" x2="36.4976" y2="40.5273" gradientUnits="userSpaceOnUse">
<stop offset="1e-08" stop-color="#EF9362"/>
<stop offset="0.1983" stop-color="#F5A75F"/>
<stop offset="0.4469" stop-color="#FBBA5D"/>
<stop offset="0.7081" stop-color="#FEC45B"/>
<stop offset="1" stop-color="#FFC85B"/>
</linearGradient>
<linearGradient id="paint21_linear_126_2360" x1="24.0799" y1="44.1704" x2="32.0091" y2="41.9126" gradientUnits="userSpaceOnUse">
<stop offset="1e-08" stop-color="#EF9362"/>
<stop offset="0.1983" stop-color="#F5A75F"/>
<stop offset="0.4469" stop-color="#FBBA5D"/>
<stop offset="0.7081" stop-color="#FEC45B"/>
<stop offset="1" stop-color="#FFC85B"/>
</linearGradient>
<linearGradient id="paint22_linear_126_2360" x1="25.9789" y1="43.7177" x2="28.5924" y2="42.9735" gradientUnits="userSpaceOnUse">
<stop offset="1e-08" stop-color="#EF9362"/>
<stop offset="0.1983" stop-color="#F5A75F"/>
<stop offset="0.4469" stop-color="#FBBA5D"/>
<stop offset="0.7081" stop-color="#FEC45B"/>
<stop offset="1" stop-color="#FFC85B"/>
</linearGradient>
<linearGradient id="paint23_linear_126_2360" x1="27.6795" y1="44.2707" x2="20.9181" y2="69.786" gradientUnits="userSpaceOnUse">
<stop stop-color="#8613D1"/>
<stop offset="0.1536" stop-color="#8816D2"/>
<stop offset="0.2867" stop-color="#8D21D4"/>
<stop offset="0.4122" stop-color="#9633D7"/>
<stop offset="0.5332" stop-color="#A34CDC"/>
<stop offset="0.6508" stop-color="#B46CE2"/>
<stop offset="0.7659" stop-color="#C894EA"/>
<stop offset="0.8791" stop-color="#E0C3F3"/>
<stop offset="0.9879" stop-color="#FCF9FE"/>
<stop offset="1" stop-color="white"/>
</linearGradient>
</defs>
</svg>
