<svg width="95" height="61" viewBox="0 0 95 61" fill="none" xmlns="http://www.w3.org/2000/svg">
<path d="M93.623 0.75V59.96H0.75V0.75H93.623Z" fill="#3BA15C" stroke="black" stroke-width="1.5"/>
<path d="M78.3594 10.5863C79.4623 9.8681 80.2895 9.20765 80.8409 8.60491C81.3988 7.99575 81.6777 7.42827 81.6777 6.90248C81.6777 6.48569 81.5815 6.1747 81.3891 5.96951C81.2032 5.76432 80.9211 5.66172 80.5427 5.66172C80.2991 5.66172 80.0747 5.73226 79.8695 5.87332C79.6707 6.00798 79.5072 6.19393 79.3789 6.43118C79.2571 6.66843 79.1866 6.93774 79.1673 7.23912C78.9301 7.21347 78.7473 7.13331 78.6191 6.99866C78.4908 6.85759 78.4267 6.67805 78.4267 6.46004C78.4267 6.1266 78.5261 5.83164 78.7249 5.57516C78.9237 5.31867 79.2026 5.11989 79.5617 4.97883C79.9272 4.83776 80.3472 4.76722 80.8217 4.76722C81.232 4.76722 81.5943 4.84417 81.9085 4.99806C82.2227 5.14554 82.4664 5.35714 82.6395 5.63287C82.8126 5.90859 82.8992 6.22279 82.8992 6.57546C82.8992 7.01148 82.7742 7.44751 82.5241 7.88354C82.2804 8.31957 81.8893 8.78765 81.3507 9.2878C80.8185 9.78795 80.1003 10.3554 79.1962 10.9902L78.3594 10.5863ZM81.9085 11.7885C81.543 11.7885 81.1743 11.7469 80.8024 11.6635C80.4305 11.5802 79.924 11.4231 79.2827 11.1922L79.2539 11.1826C79.0679 11.375 78.898 11.5096 78.7441 11.5866C78.5966 11.6699 78.4363 11.7116 78.2632 11.7116C78.0901 11.7116 77.9426 11.6539 77.8208 11.5385C77.7054 11.4231 77.6476 11.282 77.6476 11.1153C77.6476 10.8395 77.7599 10.6151 77.9843 10.442C78.2087 10.2689 78.4908 10.1823 78.8307 10.1823C78.9974 10.1823 79.1994 10.2112 79.4366 10.2689C79.6739 10.3202 79.9656 10.3971 80.3119 10.4997C80.7223 10.6151 81.0461 10.7017 81.2833 10.7594C81.5206 10.8107 81.729 10.8363 81.9085 10.8363L82.9665 10.2592C83.0563 10.4003 83.1172 10.5189 83.1493 10.6151C83.1878 10.7113 83.207 10.8043 83.207 10.8941C83.207 11.0608 83.1493 11.2147 83.0339 11.3557C82.9184 11.4904 82.7613 11.5962 82.5626 11.6731C82.3638 11.7501 82.1458 11.7885 81.9085 11.7885ZM85.5082 11.5C85.008 11.5 84.6425 11.4295 84.4117 11.2884C84.1808 11.1473 84.0654 10.9261 84.0654 10.6247C84.0654 10.426 84.136 10.1791 84.277 9.88413C84.4181 9.58276 84.6489 9.14994 84.9695 8.58567C85.2453 8.11117 85.4665 7.71041 85.6332 7.38339C85.8063 7.05637 85.9538 6.72294 86.0756 6.38309C86.1975 6.03683 86.2584 5.72264 86.2584 5.4405C86.2584 5.28661 86.2327 5.11669 86.1814 4.93074C86.3033 4.87303 86.4187 4.83135 86.5277 4.8057C86.6367 4.78005 86.7489 4.76722 86.8643 4.76722C87.3837 4.76722 87.6434 5.08142 87.6434 5.70981C87.6434 6.2805 87.4126 6.9698 86.9509 7.77774C86.4956 8.57926 85.7999 9.51864 84.8637 10.5959H88.057L87.7781 11.3173C87.4831 11.3686 87.1208 11.4134 86.6912 11.4519C86.2616 11.484 85.8672 11.5 85.5082 11.5ZM88.3263 13.1351C88.0634 13.1351 87.8582 13.0485 87.7107 12.8754C87.5697 12.7087 87.4991 12.4682 87.4991 12.154C87.4991 11.8398 87.5889 11.3269 87.7684 10.6151C87.9544 9.90337 88.2045 9.08261 88.5187 8.15285C88.6277 8.06949 88.7527 8.00216 88.8938 7.95087C89.0349 7.89957 89.1663 7.87392 89.2881 7.87392C89.3971 7.87392 89.4741 7.89316 89.519 7.93163C89.5639 7.96369 89.5863 8.0214 89.5863 8.10476C89.5863 8.18812 89.5671 8.31636 89.5286 8.48949C89.4901 8.66262 89.4452 8.85178 89.3939 9.05696C89.2529 9.58276 89.1374 10.0765 89.0477 10.5382C88.9643 10.9934 88.9226 11.4455 88.9226 11.8943C88.9226 12.3176 88.9996 12.6542 89.1535 12.9043C88.9868 12.9876 88.8425 13.0453 88.7207 13.0774C88.5988 13.1159 88.4674 13.1351 88.3263 13.1351Z" fill="black"/>
</svg>
