<svg width="95" height="61" viewBox="0 0 95 61" fill="none" xmlns="http://www.w3.org/2000/svg">
<path d="M93.623 0.75V59.96H0.75V0.75H93.623Z" fill="#3BA15C" stroke="black" stroke-width="1.5"/>
<path d="M80.5169 11.7405C80.2924 11.7405 80.1225 11.6571 80.0071 11.4904C79.8917 11.3173 79.834 11.0672 79.834 10.7402C79.834 10.2079 79.8853 9.6052 79.9878 8.93193C80.0904 8.25224 80.2572 7.41224 80.488 6.41195C80.161 6.41195 79.8917 6.34782 79.6801 6.21958C79.4749 6.09134 79.3498 5.9118 79.305 5.68096C79.6127 5.59119 79.8756 5.49821 80.0936 5.40203C80.3181 5.30585 80.5617 5.18722 80.8246 5.04615C81.0106 4.94356 81.1581 4.87303 81.2671 4.83455C81.3761 4.78967 81.4819 4.76722 81.5845 4.76722C81.841 4.76722 81.9692 4.9147 81.9692 5.20966C81.9692 5.30585 81.9436 5.48218 81.8923 5.73867C81.841 5.98874 81.78 6.26126 81.7095 6.55622C81.5107 7.40904 81.3504 8.15926 81.2286 8.80689C81.1132 9.45452 81.0555 10.0637 81.0555 10.6344C81.0555 10.9806 81.11 11.282 81.219 11.5385C80.9689 11.6731 80.7349 11.7405 80.5169 11.7405ZM84.4781 12.962C84.2601 12.962 84.0869 12.9203 83.9587 12.8369C83.8369 12.76 83.7343 12.6157 83.6509 12.4041C84.119 12.231 84.5614 12.0162 84.9782 11.7597C85.4014 11.5032 85.8182 11.1377 86.2286 10.6632C86.639 10.1823 86.9916 9.57956 87.2866 8.85498H87.2289C86.9596 9.21406 86.6742 9.46734 86.3729 9.61482C86.0715 9.75589 85.7509 9.82642 85.411 9.82642C84.9878 9.82642 84.6223 9.73024 84.3146 9.53788C84.0132 9.34551 83.7823 9.08261 83.622 8.74918C83.4682 8.40934 83.3912 8.02781 83.3912 7.60461C83.3912 7.0724 83.5259 6.59149 83.7952 6.16187C84.0709 5.72584 84.4332 5.386 84.882 5.14234C85.3373 4.89226 85.8278 4.76722 86.3536 4.76722C87.0461 4.76722 87.6008 4.99486 88.0176 5.45012C88.4408 5.89897 88.6524 6.55301 88.6524 7.41224C88.6524 8.34201 88.4216 9.23651 87.9599 10.0957C87.5046 10.9486 86.9435 11.6379 86.2767 12.1637C85.6162 12.6959 85.0167 12.962 84.4781 12.962ZM85.9497 9.06658C86.1677 9.06658 86.3921 8.98964 86.6229 8.83574C86.8538 8.68185 87.0461 8.45743 87.2 8.16247C87.3539 7.86751 87.4309 7.51484 87.4309 7.10446C87.4309 6.65561 87.3315 6.2805 87.1327 5.97912C86.9403 5.67134 86.6326 5.51745 86.2094 5.51745C85.9721 5.51745 85.7284 5.5976 85.4784 5.7579C85.2347 5.91821 85.0295 6.15867 84.8628 6.47927C84.6961 6.79347 84.6127 7.17179 84.6127 7.61423C84.6127 8.02461 84.7153 8.37086 84.9205 8.653C85.1321 8.92872 85.4752 9.06658 85.9497 9.06658Z" fill="black"/>
</svg>
