<svg width="95" height="61" viewBox="0 0 95 61" fill="none" xmlns="http://www.w3.org/2000/svg">
<path d="M93.623 0.75V59.96H0.75V0.75H93.623Z" fill="#FFC270" stroke="black" stroke-width="1.5"/>
<path d="M80.147 12.6638C79.6148 12.6638 79.3487 12.3528 79.3487 11.7308C79.3487 11.0255 79.5635 10.1406 79.9932 9.0762C80.4228 8.01178 80.9999 6.91851 81.7244 5.79638L82.9652 5.40203C82.5997 5.95348 82.247 6.58507 81.9072 7.29682C81.5673 8.00858 81.2884 8.74597 81.0704 9.50902C80.8524 10.2721 80.7434 10.9838 80.7434 11.6443C80.7434 11.8302 80.7498 11.9777 80.7626 12.0867C80.7819 12.2021 80.8203 12.3208 80.878 12.4426C80.6408 12.5901 80.3971 12.6638 80.147 12.6638ZM81.1185 6.20034C80.4901 6.20034 79.9867 6.17149 79.6084 6.11378C79.2365 6.04966 78.964 5.95348 78.7909 5.82523C78.6177 5.69058 78.5312 5.51104 78.5312 5.28661C78.5312 5.1776 78.5472 5.0686 78.5793 4.95959C78.6113 4.84417 78.6498 4.74478 78.6947 4.66142C79.1628 4.8602 79.6854 5.02692 80.2625 5.16157C80.8396 5.28982 81.3622 5.36676 81.8302 5.39241C81.9392 5.18722 82.0707 5.02692 82.2246 4.9115C82.3849 4.78967 82.5548 4.72875 82.7344 4.72875C82.946 4.72875 83.1063 4.78005 83.2153 4.88264C83.3243 4.97883 83.3788 5.11989 83.3788 5.30585C83.3788 5.62004 83.196 5.84767 82.8305 5.98874C82.465 6.12981 81.8944 6.20034 81.1185 6.20034ZM85.5663 11.7405C85.3418 11.7405 85.1719 11.6571 85.0565 11.4904C84.9411 11.3173 84.8834 11.0672 84.8834 10.7402C84.8834 10.2079 84.9347 9.6052 85.0373 8.93193C85.1398 8.25224 85.3066 7.41224 85.5374 6.41195C85.2104 6.41195 84.9411 6.34782 84.7295 6.21958C84.5243 6.09134 84.3992 5.9118 84.3544 5.68096C84.6621 5.59119 84.925 5.49821 85.1431 5.40203C85.3675 5.30585 85.6111 5.18722 85.874 5.04615C86.06 4.94356 86.2075 4.87303 86.3165 4.83455C86.4255 4.78967 86.5313 4.76722 86.6339 4.76722C86.8904 4.76722 87.0186 4.9147 87.0186 5.20966C87.0186 5.30585 86.993 5.48218 86.9417 5.73867C86.8904 5.98874 86.8295 6.26126 86.7589 6.55622C86.5601 7.40904 86.3998 8.15926 86.278 8.80689C86.1626 9.45452 86.1049 10.0637 86.1049 10.6344C86.1049 10.9806 86.1594 11.282 86.2684 11.5385C86.0183 11.6731 85.7843 11.7405 85.5663 11.7405Z" fill="black"/>
</svg>
