<svg width="95" height="181" viewBox="0 0 95 181" fill="none" xmlns="http://www.w3.org/2000/svg">
<path d="M93.623 0.75V59.96H0.75V0.75H93.623Z" fill="#3BA15C" stroke="black" stroke-width="1.5"/>
<path d="M78.4533 10.5863C79.5562 9.8681 80.3834 9.20765 80.9348 8.60491C81.4927 7.99575 81.7716 7.42827 81.7716 6.90248C81.7716 6.48569 81.6754 6.1747 81.4831 5.96951C81.2971 5.76432 81.015 5.66172 80.6367 5.66172C80.393 5.66172 80.1686 5.73226 79.9634 5.87332C79.7646 6.00798 79.6011 6.19393 79.4729 6.43118C79.351 6.66843 79.2805 6.93774 79.2613 7.23912C79.024 7.21347 78.8413 7.13331 78.713 6.99866C78.5848 6.85759 78.5207 6.67805 78.5207 6.46004C78.5207 6.1266 78.62 5.83164 78.8188 5.57516C79.0176 5.31867 79.2965 5.11989 79.6556 4.97883C80.0211 4.83776 80.4411 4.76722 80.9156 4.76722C81.326 4.76722 81.6883 4.84417 82.0025 4.99806C82.3167 5.14554 82.5603 5.35714 82.7334 5.63287C82.9066 5.90859 82.9931 6.22279 82.9931 6.57546C82.9931 7.01148 82.8681 7.44751 82.618 7.88354C82.3744 8.31957 81.9832 8.78765 81.4446 9.2878C80.9124 9.78795 80.1942 10.3554 79.2901 10.9902L78.4533 10.5863ZM82.0025 11.7885C81.637 11.7885 81.2683 11.7469 80.8964 11.6635C80.5245 11.5802 80.0179 11.4231 79.3767 11.1922L79.3478 11.1826C79.1619 11.375 78.9919 11.5096 78.8381 11.5866C78.6906 11.6699 78.5303 11.7116 78.3571 11.7116C78.184 11.7116 78.0365 11.6539 77.9147 11.5385C77.7993 11.4231 77.7416 11.282 77.7416 11.1153C77.7416 10.8395 77.8538 10.6151 78.0782 10.442C78.3026 10.2689 78.5848 10.1823 78.9246 10.1823C79.0913 10.1823 79.2933 10.2112 79.5306 10.2689C79.7678 10.3202 80.0596 10.3971 80.4058 10.4997C80.8162 10.6151 81.14 10.7017 81.3773 10.7594C81.6145 10.8107 81.8229 10.8363 82.0025 10.8363L83.0605 10.2592C83.1502 10.4003 83.2112 10.5189 83.2432 10.6151C83.2817 10.7113 83.3009 10.8043 83.3009 10.8941C83.3009 11.0608 83.2432 11.2147 83.1278 11.3557C83.0124 11.4904 82.8553 11.5962 82.6565 11.6731C82.4577 11.7501 82.2397 11.7885 82.0025 11.7885ZM84.7653 10.5863C85.8682 9.8681 86.6954 9.20765 87.2468 8.60491C87.8047 7.99575 88.0836 7.42827 88.0836 6.90248C88.0836 6.48569 87.9874 6.1747 87.7951 5.96951C87.6091 5.76432 87.327 5.66172 86.9486 5.66172C86.705 5.66172 86.4806 5.73226 86.2754 5.87332C86.0766 6.00798 85.9131 6.19393 85.7848 6.43118C85.663 6.66843 85.5925 6.93774 85.5732 7.23912C85.336 7.21347 85.1532 7.13331 85.025 6.99866C84.8968 6.85759 84.8326 6.67805 84.8326 6.46004C84.8326 6.1266 84.932 5.83164 85.1308 5.57516C85.3296 5.31867 85.6085 5.11989 85.9676 4.97883C86.3331 4.83776 86.7531 4.76722 87.2276 4.76722C87.638 4.76722 88.0002 4.84417 88.3144 4.99806C88.6286 5.14554 88.8723 5.35714 89.0454 5.63287C89.2186 5.90859 89.3051 6.22279 89.3051 6.57546C89.3051 7.01148 89.1801 7.44751 88.93 7.88354C88.6863 8.31957 88.2952 8.78765 87.7566 9.2878C87.2244 9.78795 86.5062 10.3554 85.6021 10.9902L84.7653 10.5863ZM88.3144 11.7885C87.9489 11.7885 87.5802 11.7469 87.2083 11.6635C86.8364 11.5802 86.3299 11.4231 85.6887 11.1922L85.6598 11.1826C85.4738 11.375 85.3039 11.5096 85.15 11.5866C85.0026 11.6699 84.8422 11.7116 84.6691 11.7116C84.496 11.7116 84.3485 11.6539 84.2267 11.5385C84.1113 11.4231 84.0536 11.282 84.0536 11.1153C84.0536 10.8395 84.1658 10.6151 84.3902 10.442C84.6146 10.2689 84.8968 10.1823 85.2366 10.1823C85.4033 10.1823 85.6053 10.2112 85.8425 10.2689C86.0798 10.3202 86.3715 10.3971 86.7178 10.4997C87.1282 10.6151 87.452 10.7017 87.6892 10.7594C87.9265 10.8107 88.1349 10.8363 88.3144 10.8363L89.3724 10.2592C89.4622 10.4003 89.5231 10.5189 89.5552 10.6151C89.5937 10.7113 89.6129 10.8043 89.6129 10.8941C89.6129 11.0608 89.5552 11.2147 89.4398 11.3557C89.3244 11.4904 89.1673 11.5962 88.9685 11.6731C88.7697 11.7501 88.5517 11.7885 88.3144 11.7885Z" fill="black"/>
<path d="M75.1999 171.121H20.2441L23.6714 52.3411H63.8081L75.1999 171.121Z" fill="#38E3FF" fill-opacity="0.9"/>
<path d="M71.1649 161.113C69.5036 161.513 68.3305 159.515 67.8496 157.869C66.5303 153.356 65.7976 148.69 65.0648 144.043C62.391 127.035 59.7182 110.028 57.0443 93.0137C57.4216 112.446 57.8051 131.871 58.1823 151.297C58.1958 152.117 58.1678 153.049 57.5615 153.595C56.2495 154.766 54.413 152.909 53.7083 151.29C51.6842 146.658 50.1348 141.815 49.0871 136.868C48.801 139.489 48.4383 142.103 47.9979 144.71C47.7958 145.888 47.3418 147.317 46.1624 147.499C45.4225 147.618 44.7177 147.156 44.1519 146.659C39.9152 142.924 39.0633 136.729 38.4767 131.102C36.976 116.491 35.4681 101.88 33.9602 87.2695C33.1995 106.898 32.4315 126.533 31.6636 146.169C29.1369 141.411 29.0944 135.762 29.1089 130.366C29.1576 114.705 29.2063 99.0347 29.2488 83.373C29.2768 75.5385 29.2975 67.704 29.3255 59.8695C29.3328 57.3891 29.2208 54.8588 29.2343 52.343H56.2691C57.7491 59.4908 59.2083 66.6459 60.5483 73.8218C65.7001 101.285 69.2383 129.021 72.7641 156.744C72.9796 158.436 72.8262 160.721 71.1649 161.113Z" fill="#A7EEFF" fill-opacity="0.9"/>
<path d="M92.7974 176.858C92.588 178.113 92.1901 179.346 92.044 180.607H2.68159C1.32083 178.176 2.07427 174.63 4.48902 173.144C7.07892 171.546 12.2857 172.38 13.8008 175.043C12.4463 172.176 11.3374 168.61 13.4029 166.291C14.7916 164.714 17.2416 164.441 19.2169 165.141C21.1923 165.842 22.7769 167.342 24.1729 168.912C24.8776 162.521 28.8562 156.585 34.49 153.53C35.802 152.815 37.2405 152.247 38.7267 152.275C41.4772 152.338 43.8298 154.489 44.9739 156.999C46.1119 159.507 46.286 162.338 46.4331 165.092C47.1866 163.004 49.763 161.785 51.8503 162.535C53.9375 163.278 55.1594 165.857 54.4257 167.958C57.1762 164.349 63.7655 165.099 65.6434 169.234C64.4142 165.94 66.3129 161.953 69.4614 160.404C72.6026 158.856 76.574 159.57 79.3453 161.721C82.1165 163.879 83.7633 167.265 84.3147 170.74C84.3427 170.922 84.3074 171.111 84.3426 171.286C85.0121 171.125 85.4599 170.396 86.1086 170.13C86.8351 169.828 87.6445 169.723 88.426 169.835C90.3246 170.115 91.7279 171.636 92.4046 173.43C92.8316 174.545 92.9788 175.765 92.7974 176.858Z" fill="#38E3FF" fill-opacity="0.9"/>
<path d="M92.7974 176.858C92.588 178.113 92.1901 179.346 92.044 180.607H89.1815C89.3556 179.878 89.4955 179.136 89.6002 178.393C89.7536 177.314 89.8168 176.129 89.2509 175.204C88.455 173.908 86.6476 173.572 85.2018 174.013C83.7571 174.461 82.5839 175.512 81.4678 176.536C81.6564 172.829 80.4065 168.315 76.8186 167.39C74.5012 166.794 72.0233 168.056 70.5081 169.92C69.0002 171.777 68.2602 174.139 67.6187 176.451C66.488 173.458 63.6328 171.195 60.4708 170.774C57.3088 170.361 53.9717 171.819 52.1156 174.425C52.5757 172.133 52.1228 169.673 50.8802 167.705C50.5942 167.264 50.2584 166.829 49.7775 166.611C48.1442 165.889 46.8394 168.027 45.8548 169.526C44.5708 171.474 42.3581 172.883 40.0335 172.799C37.7162 172.722 35.4548 170.921 35.203 168.6C35.9637 170.353 38.6375 170.612 40.019 169.308C41.4078 167.998 41.5404 165.727 40.7383 163.997C39.4117 161.124 35.6631 159.652 32.7458 160.871C31.5104 161.383 30.4699 162.286 29.6118 163.317C27.0219 166.407 25.9824 170.731 26.882 174.663C25.1294 172.091 22.6453 169.512 19.5392 169.59C17.5494 169.646 15.6373 170.942 14.8414 172.779C14.0454 174.615 14.4082 176.899 15.7347 178.399C13.976 177.011 12.1468 175.596 9.97558 175.049C7.81163 174.503 5.20101 175.07 4.00711 176.962C3.3231 178.056 3.22568 179.324 3.43503 180.606H2.68159C1.32083 178.175 2.07427 174.629 4.48902 173.143C7.07892 171.545 12.2857 172.379 13.8008 175.042C12.4463 172.175 11.3374 168.609 13.4029 166.29C14.7916 164.713 17.2416 164.44 19.2169 165.14C21.1923 165.841 22.7769 167.341 24.1729 168.911C24.8776 162.52 28.8562 156.584 34.49 153.529C35.802 152.814 37.2405 152.246 38.7267 152.274C41.4772 152.337 43.8298 154.488 44.9739 156.998C46.1119 159.506 46.286 162.337 46.4331 165.091C47.1866 163.003 49.763 161.784 51.8503 162.534C53.9375 163.277 55.1594 165.856 54.4257 167.957C57.1762 164.348 63.7655 165.098 65.6434 169.233C64.4142 165.939 66.3129 161.952 69.4614 160.403C72.6026 158.855 76.574 159.569 79.3453 161.72C82.1165 163.878 83.7633 167.264 84.3147 170.739C84.3427 170.921 84.3074 171.11 84.3426 171.285C85.0121 171.124 85.4599 170.395 86.1086 170.129C86.8351 169.827 87.6445 169.722 88.426 169.834C90.3246 170.114 91.7279 171.635 92.4046 173.429C92.8316 174.546 92.9788 175.765 92.7974 176.858Z" fill="#A7EEFF" fill-opacity="0.9"/>
<path d="M58.4254 58.2824C58.7217 58.7024 59.3017 58.7662 59.8153 58.7932C63.5529 58.9757 67.2992 59.0471 71.0455 59.0114C77.685 58.9438 77.1089 51.8979 73.3905 48.3039C72.9836 47.908 72.5383 47.5546 72.0603 47.2582C69.5336 45.6852 66.0921 45.7441 63.6251 47.405C60.5895 49.4501 59.3892 53.2816 58.3947 56.8166C58.3745 56.8842 58.3552 56.9557 58.3389 57.0262C58.2321 57.4616 58.1734 57.929 58.4254 58.2824Z" fill="#90BDC3"/>
<path d="M58.4254 58.2824C58.7217 58.7024 59.3017 58.7662 59.8153 58.7932C63.5529 58.9757 67.2992 59.0472 71.0455 59.0114C77.685 58.9439 77.1089 51.8979 73.3905 48.304C72.8499 50.4119 74.1878 52.9128 71.1562 54.3312C69.2931 55.2031 67.0703 54.4934 65.0534 54.9173C63.147 55.318 61.5206 56.7124 59.5825 56.919C59.1843 56.9625 58.7457 56.9663 58.3389 57.0262C58.2321 57.4617 58.1734 57.929 58.4254 58.2824Z" fill="#659099"/>
<path d="M28.8236 58.2824C28.5273 58.7024 27.9474 58.7662 27.4337 58.7932C23.6961 58.9757 19.9498 59.0471 16.2035 59.0114C9.56401 58.9438 10.1401 51.8979 13.8586 48.3039C14.2654 47.908 14.7107 47.5546 15.1888 47.2582C17.7155 45.6852 21.1569 45.7441 23.624 47.405C26.6595 49.4501 27.8598 53.2816 28.8544 56.8166C28.8746 56.8842 28.8938 56.9557 28.9102 57.0262C29.0169 57.4616 29.0756 57.929 28.8236 58.2824Z" fill="#90BDC3"/>
<path d="M28.8236 58.2824C28.5273 58.7024 27.9474 58.7662 27.4337 58.7932C23.6961 58.9757 19.9498 59.0472 16.2035 59.0114C9.56401 58.9439 10.1401 51.8979 13.8586 48.304C14.3991 50.4119 13.0612 52.9128 16.0929 54.3312C17.9559 55.2031 20.1787 54.4934 22.1956 54.9173C24.102 55.318 25.7284 56.7124 27.6665 56.919C28.0647 56.9625 28.5033 56.9663 28.9102 57.0262C29.0169 57.4617 29.0756 57.929 28.8236 58.2824Z" fill="#659099"/>
<path d="M11.9748 58.1428C11.7995 58.3913 11.4564 58.4291 11.1525 58.4451C8.94127 58.553 6.7249 58.5953 4.50854 58.5741C0.58054 58.5342 0.921386 54.3657 3.12125 52.2395C3.36195 52.0052 3.62541 51.7962 3.90822 51.6208C5.40305 50.6902 7.43903 50.7251 8.89859 51.7076C10.6944 52.9175 11.4046 55.1843 11.993 57.2757C12.0049 57.3157 12.0163 57.3579 12.026 57.3996C12.0891 57.6573 12.1238 57.9338 11.9748 58.1428Z" fill="#90BDC3"/>
<path d="M11.9748 58.1426C11.7995 58.3911 11.4564 58.4289 11.1525 58.4449C8.94127 58.5528 6.7249 58.5951 4.50854 58.5739C0.58054 58.534 0.921386 54.3655 3.12125 52.2393C3.44104 53.4863 2.64952 54.9659 4.4431 55.8051C5.54531 56.3209 6.86033 55.901 8.05358 56.1518C9.18139 56.3889 10.1436 57.2138 11.2902 57.336C11.5258 57.3617 11.7853 57.364 12.026 57.3994C12.0891 57.6571 12.1238 57.9336 11.9748 58.1426Z" fill="#659099"/>
<path d="M92.7397 58.2953C92.5166 58.6116 92.0799 58.6596 91.6932 58.6799C88.8789 58.8174 86.0581 58.8711 83.2373 58.8442C78.238 58.7933 78.6718 53.488 81.4716 50.7819C81.778 50.4838 82.1133 50.2177 82.4732 49.9945C84.3757 48.8101 86.967 48.8545 88.8246 50.105C91.1102 51.6449 92.014 54.5299 92.7629 57.1916C92.7781 57.2425 92.7926 57.2963 92.8049 57.3494C92.8853 57.6773 92.9295 58.0292 92.7397 58.2953Z" fill="#90BDC3"/>
<path d="M92.7397 58.2951C92.5166 58.6114 92.0799 58.6594 91.6932 58.6798C88.8789 58.8172 86.0581 58.871 83.2373 58.8441C78.238 58.7932 78.6718 53.4878 81.4716 50.7817C81.8786 52.3689 80.8712 54.252 83.154 55.32C84.5568 55.9766 86.2304 55.4422 87.7491 55.7614C89.1845 56.0631 90.4092 57.113 91.8685 57.2685C92.1683 57.3013 92.4985 57.3042 92.8049 57.3492C92.8853 57.6771 92.9295 58.029 92.7397 58.2951Z" fill="#659099"/>
<path d="M81.3222 46.1289C81.2232 48.0701 81.0907 50.0056 80.9255 51.9418C80.8429 53.0537 80.7439 54.1597 80.6335 55.2658C80.5844 55.7749 80.4961 56.2225 80.3799 56.6207C79.2945 60.476 75.5042 59.4799 73.6916 56.5542C73.4716 56.2003 73.2786 55.8185 73.1297 55.4153C72.32 53.2696 72.612 50.4761 73.8405 48.5686C73.9068 48.4692 73.973 48.3748 74.0442 48.2812C74.6773 47.396 75.4707 46.7547 76.336 46.2628C77.5368 45.5829 78.8921 45.1953 80.1754 44.8578C80.2196 44.8471 80.2638 44.8356 80.3129 44.825C80.5942 44.7642 80.8969 44.742 81.1005 44.9687C81.3443 45.2331 81.3443 45.7085 81.3222 46.1289Z" fill="#90BDC3"/>
<path d="M80.3799 56.6206C79.2945 60.4758 75.5042 59.4798 73.6916 56.5541C73.4716 56.2001 73.2786 55.8183 73.1297 55.4151C72.32 53.2695 72.612 50.4759 73.8405 48.5684C73.9068 48.4691 73.973 48.3746 74.0442 48.281C74.1988 49.9011 73.6311 51.9589 73.8732 53.2531C74.099 54.4478 74.8539 55.6475 76.0277 55.9522C76.6174 56.1016 77.2399 56.0187 77.8509 56.0072C78.7326 55.9899 79.6364 56.1615 80.3799 56.6206Z" fill="#659099"/>
<path d="M81.3221 46.1289C81.2231 48.0701 81.0906 50.0055 80.9254 51.9418C80.3299 51.2783 80.0657 50.3873 79.9169 49.5079C79.741 48.4847 79.6191 47.1077 78.6442 46.4935C77.9391 46.0509 77.113 46.2832 76.3359 46.2611C77.5367 45.5812 78.892 45.1936 80.1753 44.8561C80.2195 44.8454 80.2637 44.8339 80.3128 44.8232C80.5941 44.7625 80.8968 44.7403 81.1004 44.967C81.3442 45.233 81.3442 45.7084 81.3221 46.1289Z" fill="#A0D3D6"/>
</svg>
