<svg width="95" height="61" viewBox="0 0 95 61" fill="none" xmlns="http://www.w3.org/2000/svg">
<path d="M93.623 0.75V59.96H0.75V0.75H93.623Z" fill="#D9D9D9" stroke="black" stroke-width="1.5"/>
<path d="M78.2187 41.2479C75.6894 44.689 68.373 48.3944 65.2115 47.779C64.8632 47.7113 64.1618 47.593 63.1857 47.436C61.1735 47.112 57.9953 46.6217 54.3428 46.0629C49.9835 45.3965 44.9482 44.6326 40.4152 43.9381C33.8518 42.9328 28.3404 42.0735 27.4547 41.8658C25.835 41.4859 23.8437 40.5614 22.3137 38.409C21.7108 37.5604 21.1796 36.521 20.7707 35.2487C20.5246 34.4833 20.3665 33.6086 20.2964 32.6776C20.2529 32.097 20.2436 31.4945 20.2685 30.8831C20.3193 29.6369 20.514 28.3531 20.8532 27.142C21.3232 25.4638 22.0709 23.924 23.1006 22.8137C23.8142 22.0441 24.6629 21.4809 25.6487 21.2207C27.4801 20.7371 40.9481 22.9298 53.4033 25.1408C57.9939 25.9561 62.4471 26.7736 66.1291 27.461H66.1302C70.6876 28.3116 74.0638 28.9625 75.0576 29.161C75.1602 29.1815 75.2609 29.2065 75.3603 29.2361C79.117 30.3567 80.6823 37.8956 78.2187 41.2479Z" fill="white"/>
<path opacity="0.6" d="M66.1287 27.4611C65.9263 27.4339 59.5381 30.4846 56.907 34.6898C54.9883 37.7566 54.3599 43.1366 54.3425 46.0628C49.9832 45.3964 44.948 44.6325 40.4149 43.938L39.4023 29.9234C39.4023 29.9234 46.8017 27.396 53.4026 25.1409C57.9934 25.9562 62.4468 26.7737 66.1287 27.4611Z" fill="white"/>
<path d="M65.688 24.573C65.4109 25.0613 65.0697 25.5058 64.6695 25.8966C62.4444 28.0699 47.1879 42.6532 41.1469 47.8097C40.0754 48.7242 39.2936 49.3423 38.9262 49.5415C36.4872 50.8649 28.9901 51.2179 24.1127 48.5711C19.2349 45.9244 17.7897 37.2402 19.506 34.3476C21.645 30.7424 48.8621 12.3097 51.5718 10.8981C52.4495 10.4407 53.6013 10.169 54.8903 10.157C56.0372 10.1457 57.2926 10.3409 58.5589 10.7947C59.3852 11.0908 60.2163 11.497 61.0248 12.028C61.8843 12.5922 62.7186 13.2977 63.4949 14.1622C63.7357 14.43 63.961 14.7003 64.1714 14.9713C64.6787 15.6248 65.0992 16.2866 65.4378 16.9463C66.0759 18.1893 66.4241 19.4264 66.5139 20.596C66.628 22.0722 66.3309 23.4401 65.688 24.573Z" fill="white"/>
<path d="M76.3513 40.7296C73.9424 44.0068 66.9744 47.5358 63.9634 46.9497C63.6317 46.8852 62.9637 46.7725 62.0341 46.623C60.1178 46.3144 57.0909 45.8475 53.6123 45.3153C49.4605 44.6806 44.665 43.953 40.3478 43.2917C34.097 42.3342 28.848 41.5159 28.0045 41.318C26.4619 40.9562 24.5654 40.0757 23.1082 38.0258C22.5341 37.2177 22.0281 36.2278 21.6387 35.016C21.4043 34.2871 21.2538 33.454 21.187 32.5673C21.1455 32.0144 21.1367 31.4406 21.1605 30.8583C21.2088 29.6714 21.3943 28.4487 21.7173 27.2953C22.1649 25.697 22.877 24.2306 23.8576 23.1731C24.5373 22.4402 25.3456 21.9038 26.2844 21.656C28.0287 21.1954 40.8553 23.2836 52.7175 25.3894C57.0895 26.1659 61.3307 26.9445 64.8374 27.5991H64.8384C69.1788 28.4092 72.3943 29.0291 73.3407 29.2181C73.4384 29.2377 73.5343 29.2615 73.629 29.2897C77.2068 30.357 78.6976 37.5368 76.3513 40.7296Z" fill="url(#paint0_linear_126_1625)"/>
<path opacity="0.3" d="M70.3466 31.1208L67.9023 33.6998C67.9023 33.6998 49.4386 28.613 44.5975 28.47C40.9458 28.3618 27.9052 27.6423 21.7168 27.2953C22.1644 25.697 22.8765 24.2306 23.8571 23.1731C28.1215 24.3881 36.0478 26.475 40.6367 26.6789C47.0913 26.9652 70.3466 31.1208 70.3466 31.1208Z" fill="url(#paint1_linear_126_1625)"/>
<path opacity="0.3" d="M67.3817 35.7446L63.5775 41.2264C63.5775 41.2264 52.2997 35.1205 45.1849 34.3026C39.7214 33.6744 26.8625 32.8952 21.187 32.5672C21.1455 32.0143 21.1367 31.4405 21.1605 30.8582C28.3737 30.7768 43.0163 30.4519 45.6984 30.834C49.2188 31.3355 67.3817 35.7446 67.3817 35.7446Z" fill="url(#paint2_linear_126_1625)"/>
<path opacity="0.3" d="M62.0343 46.6228C54.5192 45.4126 29.9186 41.7663 28.0047 41.3178C26.462 40.956 24.5655 40.0755 23.1084 38.0256C31.7776 38.6532 45.6618 40.0051 48.5586 40.4739C51.59 40.9647 58.4761 44.6391 62.0343 46.6228Z" fill="url(#paint3_linear_126_1625)"/>
<path opacity="0.4" d="M76.3513 40.7295C73.9424 44.0067 66.9744 47.5357 63.9634 46.9496C63.6317 46.8851 62.9637 46.7725 62.0341 46.623C60.1178 46.3143 57.0909 45.8474 53.6123 45.3152C49.4605 44.6805 44.665 43.953 40.3478 43.2916C34.097 42.3342 28.848 41.5158 28.0045 41.3179C26.4619 40.9562 24.5654 40.0757 23.1082 38.0258C22.5341 37.2176 22.0281 36.2277 21.6387 35.0159C21.4043 34.287 21.2538 33.4539 21.187 32.5672C21.1455 32.0143 21.1367 31.4405 21.1605 30.8582C21.2088 29.6714 21.3943 28.4487 21.7173 27.2953C22.0553 26.0879 22.5445 24.9558 23.1862 24.0182C23.355 25.5835 24.1105 26.9676 25.4417 27.144C27.5037 27.4173 31.8586 24.2787 33.8095 22.2864C38.959 23.0076 45.9931 24.1956 52.7173 25.3895C56.314 26.0282 59.822 26.6684 62.9055 27.2398C59.2982 29.6856 54.6548 36.3409 56.4067 39.5974C58.4989 43.4868 69.7187 44.6449 76.3513 40.7295Z" fill="url(#paint4_linear_126_1625)" fill-opacity="0.1"/>
<path opacity="0.6" d="M64.8375 27.5992C64.6448 27.5732 58.5607 30.4787 56.0549 34.4836C54.2276 37.4044 53.6291 42.5283 53.6126 45.3151C49.4608 44.6804 44.6654 43.9529 40.3482 43.2915L39.3838 29.9442C39.3838 29.9442 46.4308 27.5372 52.7174 25.3894C57.0896 26.1659 61.331 26.9445 64.8375 27.5992Z" fill="url(#paint5_linear_126_1625)" fill-opacity="0.1"/>
<path d="M74.2662 41.9883C70.4043 45.2776 64.6563 46.8003 62.6315 45.7618C60.6063 44.7237 61.6695 38.543 61.6695 38.543L57.4678 36.763L63.4414 35.5268C63.4414 35.5268 67.2483 30.4659 71.1865 29.989C77.7166 29.1979 77.6863 39.075 74.2662 41.9883Z" fill="url(#paint6_linear_126_1625)"/>
<path opacity="0.4" d="M70.8271 34.4791C67.511 35.3734 65.2781 41.8858 67.4795 41.6971C72.1535 41.296 76.3087 33.0003 70.8271 34.4791ZM68.4562 40.4715C66.9376 40.6018 68.7834 35.7724 71.0705 35.1556C74.8517 34.1355 71.68 40.1948 68.4562 40.4715Z" fill="url(#paint7_linear_126_1625)"/>
<path opacity="0.4" d="M72.1792 31.8311C68.2449 32.5824 63.265 38.7159 63.4721 42.5299C63.6456 45.7277 67.4578 44.9385 71.3298 42.552C74.866 40.3724 77.5781 30.8001 72.1792 31.8311ZM71.0388 41.8093C67.9498 43.402 65.179 43.7079 65.034 41.0368C64.861 37.8506 68.5754 33.5288 71.8621 32.9012C76.372 32.0399 74.1276 40.2162 71.0388 41.8093Z" fill="url(#paint8_linear_126_1625)"/>
<path opacity="0.4" d="M70.6838 37.0601C69.2632 37.3158 68.4008 39.3365 69.59 38.8486C70.7789 38.361 71.5875 36.8976 70.6838 37.0601Z" fill="url(#paint9_linear_126_1625)"/>
<path opacity="0.4" d="M73.629 29.2899C69.3486 28.2871 65.9497 30.6517 62.9735 34.1341C62.647 34.5164 57.4678 36.7632 57.4678 36.7632L61.6695 38.5432C60.3852 40.3106 59.9834 44.7036 62.0345 46.623C62.9641 46.7727 63.6324 46.8853 63.9638 46.9496C66.9748 47.5357 73.9428 44.0067 76.3518 40.7295C78.698 37.5368 77.2073 30.3569 73.629 29.2899Z" fill="url(#paint10_linear_126_1625)" fill-opacity="0.1"/>
<path opacity="0.4" d="M63.4414 35.5271L64.8374 37.2586L57.4678 36.7631L63.4414 35.5271Z" fill="url(#paint11_linear_126_1625)" fill-opacity="0.1"/>
<path d="M64.4179 24.8487C64.154 25.3137 63.829 25.7371 63.4479 26.1092C61.3287 28.1791 46.7987 42.068 41.0454 46.979C40.0248 47.8499 39.2803 48.4386 38.9304 48.6284C36.6075 49.8887 29.4674 50.2249 24.8222 47.7041C20.1767 45.1834 18.8003 36.9127 20.4349 34.1579C22.472 30.7243 48.3932 13.1694 50.9739 11.825C51.8097 11.3893 52.9067 11.1306 54.1344 11.1191C55.2266 11.1083 56.4223 11.2943 57.6283 11.7265C58.4152 12.0084 59.2067 12.3953 59.9767 12.9011C60.7953 13.4384 61.5899 14.1103 62.3293 14.9337C62.5586 15.1887 62.7731 15.4461 62.9735 15.7042C63.4567 16.3266 63.8571 16.9569 64.1796 17.5852C64.7873 18.769 65.119 19.9471 65.2044 21.061C65.3131 22.467 65.0302 23.7698 64.4179 24.8487Z" fill="url(#paint12_linear_126_1625)"/>
<path opacity="0.3" d="M57.6284 11.7264C54.4215 14.0005 47.6405 18.8203 41.8379 23.0243C33.922 28.7592 28.1433 37.7014 28.1433 37.9325C28.1433 38.1634 22.4438 36.9284 22.6448 35.0399C22.8458 33.1516 34.0804 26.2581 40.0964 22.3148C44.116 19.6801 50.3265 14.4569 54.1345 11.1188C55.2267 11.1085 56.4223 11.2944 57.6284 11.7264Z" fill="url(#paint13_linear_126_1625)"/>
<path opacity="0.3" d="M62.9735 15.7042C59.5367 17.0818 54.2872 19.244 50.0706 21.2324C43.1835 24.4797 32.1279 38.0145 32.1279 38.0145L29.9688 37.0476C29.9688 37.0476 39.0675 27.8818 43.5794 24.1705C46.6075 21.6798 54.8405 16.2642 59.9767 12.9009C60.7952 13.4382 61.5898 14.1102 62.3292 14.9335C62.5585 15.1887 62.7731 15.4461 62.9735 15.7042Z" fill="url(#paint14_linear_126_1625)"/>
<path opacity="0.3" d="M65.2048 21.0613C61.7506 22.2485 57.3322 23.9867 53.9497 26.0262C47.5377 29.8922 36.7887 45.0937 36.7887 45.0937C36.7887 45.0937 33.5339 39.8361 33.6848 39.1306C33.8353 38.4253 45.4003 29.0416 50.1498 25.4078C53.039 23.1971 59.4727 19.8994 64.1798 17.5854C64.7877 18.7692 65.1194 19.9474 65.2048 21.0613Z" fill="url(#paint15_linear_126_1625)"/>
<path opacity="0.3" d="M64.4184 24.8486C64.1546 25.3137 63.8296 25.737 63.4484 26.1092C61.3293 28.179 46.7992 42.0679 41.0459 46.9789C44.2791 42.3214 49.7941 34.4979 51.8128 32.3665C53.5816 30.4983 59.7413 27.1914 64.4184 24.8486Z" fill="url(#paint16_linear_126_1625)"/>
<path opacity="0.4" d="M65.2044 21.0615C65.119 19.9476 64.7875 18.7694 64.1796 17.5857C63.8571 16.9571 63.4567 16.3271 62.9735 15.7047C62.7731 15.4466 62.5586 15.189 62.3293 14.9341C61.5899 14.1108 60.7953 13.4389 59.9767 12.9015C59.2067 12.3958 58.4152 12.0087 57.6283 11.727C56.4223 11.295 55.2264 11.109 54.1344 11.1196C52.9067 11.1311 51.8097 11.3898 50.9739 11.8254C48.3932 13.1698 22.472 30.7246 20.4349 34.1582C18.8003 36.913 20.1767 45.1837 24.8222 47.7044C29.4674 50.2252 36.6075 49.889 38.9304 48.6286C39.2803 48.4388 40.0248 47.8502 41.0454 46.9793C46.7987 42.0683 61.3287 28.1796 63.4479 26.1095C63.829 25.7374 64.154 25.3138 64.4179 24.849C65.0302 23.7699 65.3131 22.4671 65.2044 21.0615ZM54.355 31.033C49.6735 34.3434 41.36 38.9189 37.0504 34.3029C32.7409 29.6869 35.1767 25.2609 39.3841 21.5918C49.1666 13.0604 57.7973 11.8266 61.6384 16.2426C65.8087 21.0375 59.0365 27.7228 54.355 31.033Z" fill="url(#paint17_linear_126_1625)" fill-opacity="0.1"/>
<path opacity="0.4" d="M21.7523 35.3523C20.3812 36.1221 19.9572 43.0168 23.6897 46.4076C27.0077 49.422 37.1907 49.2046 38.0759 47.342C38.9612 45.4795 22.9021 34.7067 21.7523 35.3523Z" fill="url(#paint18_linear_126_1625)" fill-opacity="0.1"/>
<path d="M38.5893 46.3715C38.3867 47.0008 38.0487 47.4925 37.5685 47.7759C35.2376 49.1514 26.858 47.7514 24.5273 45.9491C22.3803 44.2888 20.3215 38.4055 21.4026 35.9137C21.4951 35.7001 21.6108 35.5112 21.7515 35.3523C24.5658 32.1736 31.6928 33.9521 35.2861 37.0352C38.1391 39.4828 39.3697 43.9472 38.5893 46.3715Z" fill="url(#paint19_linear_126_1625)"/>
<path opacity="0.4" d="M36.1028 40.8715C32.8063 34.7773 25.647 34.8813 23.5349 36.3906C21.2871 37.9973 23.4322 45.4464 28.4282 46.5029C33.4245 47.5594 39.3991 46.9653 36.1028 40.8715ZM27.9647 45.6886C24.0183 44.8542 22.6865 38.5654 24.4621 37.296C26.1301 36.104 31.4388 35.8532 34.0425 40.6667C36.6465 45.4802 31.9112 46.5233 27.9647 45.6886Z" fill="url(#paint20_linear_126_1625)"/>
<path opacity="0.4" d="M33.1969 42.715C32.7436 40.1539 29.668 38.2188 27.3697 38.2564C23.9166 38.3134 25.0712 42.9678 27.7906 43.9798C30.5098 44.9916 33.5889 44.9305 33.1969 42.715ZM28.1871 43.2781C26.2167 42.545 24.8356 39.1722 27.3373 39.1312C29.0025 39.1037 31.7753 40.5063 32.1037 42.3617C32.3878 43.9671 30.1571 44.0111 28.1871 43.2781Z" fill="url(#paint21_linear_126_1625)"/>
<path opacity="0.4" d="M28.4374 40.6732C26.6173 40.8793 28.3956 42.5033 29.6136 42.4525C30.8314 42.4016 30.2329 40.4699 28.4374 40.6732Z" fill="url(#paint22_linear_126_1625)"/>
<path opacity="0.4" d="M38.9304 48.6282C36.6075 49.8885 29.4674 50.2247 24.8222 47.7039C20.1767 45.1832 18.8003 36.9125 20.4349 34.1577C24.4526 29.9169 32.6029 33.2342 35.5321 35.5271C38.4616 37.8201 42.7067 44.5656 38.9304 48.6282Z" fill="url(#paint23_linear_126_1625)" fill-opacity="0.1"/>
<path d="M79.1519 11.5C78.6518 11.5 78.2863 11.4295 78.0555 11.2884C77.8246 11.1473 77.7092 10.9261 77.7092 10.6247C77.7092 10.426 77.7797 10.1791 77.9208 9.88413C78.0619 9.58276 78.2927 9.14994 78.6133 8.58567C78.889 8.11117 79.1103 7.71041 79.277 7.38339C79.4501 7.05637 79.5976 6.72294 79.7194 6.38309C79.8413 6.03683 79.9022 5.72264 79.9022 5.4405C79.9022 5.28661 79.8765 5.11669 79.8252 4.93074C79.9471 4.87303 80.0625 4.83135 80.1715 4.8057C80.2805 4.78005 80.3927 4.76722 80.5081 4.76722C81.0275 4.76722 81.2872 5.08142 81.2872 5.70981C81.2872 6.2805 81.0564 6.9698 80.5947 7.77774C80.1394 8.57926 79.4437 9.51864 78.5075 10.5959H81.7008L81.4219 11.3173C81.1269 11.3686 80.7646 11.4134 80.335 11.4519C79.9054 11.484 79.511 11.5 79.1519 11.5ZM81.9701 13.1351C81.7072 13.1351 81.502 13.0485 81.3545 12.8754C81.2135 12.7087 81.1429 12.4682 81.1429 12.154C81.1429 11.8398 81.2327 11.3269 81.4122 10.6151C81.5982 9.90337 81.8483 9.08261 82.1625 8.15285C82.2715 8.06949 82.3965 8.00216 82.5376 7.95087C82.6786 7.89957 82.8101 7.87392 82.9319 7.87392C83.0409 7.87392 83.1179 7.89316 83.1628 7.93163C83.2076 7.96369 83.2301 8.0214 83.2301 8.10476C83.2301 8.18812 83.2109 8.31636 83.1724 8.48949C83.1339 8.66262 83.089 8.85178 83.0377 9.05696C82.8967 9.58276 82.7812 10.0765 82.6915 10.5382C82.6081 10.9934 82.5664 11.4455 82.5664 11.8943C82.5664 12.3176 82.6434 12.6542 82.7973 12.9043C82.6305 12.9876 82.4863 13.0453 82.3644 13.0774C82.2426 13.1159 82.1112 13.1351 81.9701 13.1351ZM86.1135 12.6638C85.5812 12.6638 85.3151 12.3528 85.3151 11.7308C85.3151 11.0255 85.53 10.1406 85.9596 9.0762C86.3892 8.01178 86.9663 6.91851 87.6909 5.79638L88.9316 5.40203C88.5661 5.95348 88.2134 6.58507 87.8736 7.29682C87.5338 8.00858 87.2548 8.74597 87.0368 9.50902C86.8188 10.2721 86.7098 10.9838 86.7098 11.6443C86.7098 11.8302 86.7162 11.9777 86.729 12.0867C86.7483 12.2021 86.7867 12.3208 86.8444 12.4426C86.6072 12.5901 86.3635 12.6638 86.1135 12.6638ZM87.0849 6.20034C86.4565 6.20034 85.9532 6.17149 85.5748 6.11378C85.2029 6.04966 84.9304 5.95348 84.7573 5.82523C84.5842 5.69058 84.4976 5.51104 84.4976 5.28661C84.4976 5.1776 84.5136 5.0686 84.5457 4.95959C84.5777 4.84417 84.6162 4.74478 84.6611 4.66142C85.1292 4.8602 85.6518 5.02692 86.2289 5.16157C86.806 5.28982 87.3286 5.36676 87.7967 5.39241C87.9057 5.18722 88.0371 5.02692 88.191 4.9115C88.3513 4.78967 88.5212 4.72875 88.7008 4.72875C88.9124 4.72875 89.0727 4.78005 89.1817 4.88264C89.2907 4.97883 89.3452 5.11989 89.3452 5.30585C89.3452 5.62004 89.1624 5.84767 88.7969 5.98874C88.4315 6.12981 87.8608 6.20034 87.0849 6.20034Z" fill="black"/>
<defs>
<linearGradient id="paint0_linear_126_1625" x1="47.147" y1="44.0186" x2="51.2913" y2="23.4023" gradientUnits="userSpaceOnUse">
<stop offset="1e-08" stop-color="#AE3353"/>
<stop offset="0.0887" stop-color="#AF3A50"/>
<stop offset="0.3713" stop-color="#B24D47"/>
<stop offset="0.6682" stop-color="#B45743"/>
<stop offset="1" stop-color="#B55B41"/>
</linearGradient>
<linearGradient id="paint1_linear_126_1625" x1="21.7168" y1="28.4364" x2="70.3465" y2="28.4364" gradientUnits="userSpaceOnUse">
<stop offset="1e-08" stop-color="#AE3353"/>
<stop offset="0.0887" stop-color="#AF3A50"/>
<stop offset="0.3713" stop-color="#B24D47"/>
<stop offset="0.6682" stop-color="#B45743"/>
<stop offset="1" stop-color="#B55B41"/>
</linearGradient>
<linearGradient id="paint2_linear_126_1625" x1="21.1475" y1="35.939" x2="67.3817" y2="35.939" gradientUnits="userSpaceOnUse">
<stop offset="1e-08" stop-color="#AE3353"/>
<stop offset="0.0887" stop-color="#AF3A50"/>
<stop offset="0.3713" stop-color="#B24D47"/>
<stop offset="0.6682" stop-color="#B45743"/>
<stop offset="1" stop-color="#B55B41"/>
</linearGradient>
<linearGradient id="paint3_linear_126_1625" x1="23.1084" y1="42.3243" x2="62.0344" y2="42.3243" gradientUnits="userSpaceOnUse">
<stop offset="1e-08" stop-color="#AE3353"/>
<stop offset="0.0887" stop-color="#AF3A50"/>
<stop offset="0.3713" stop-color="#B24D47"/>
<stop offset="0.6682" stop-color="#B45743"/>
<stop offset="1" stop-color="#B55B41"/>
</linearGradient>
<linearGradient id="paint4_linear_126_1625" x1="55.2569" y1="56.8048" x2="56.5651" y2="60.9506" gradientUnits="userSpaceOnUse">
<stop stop-color="#8613D1"/>
<stop offset="0.1536" stop-color="#8816D2"/>
<stop offset="0.2867" stop-color="#8D21D4"/>
<stop offset="0.4122" stop-color="#9633D7"/>
<stop offset="0.5332" stop-color="#A34CDC"/>
<stop offset="0.6508" stop-color="#B46CE2"/>
<stop offset="0.7659" stop-color="#C894EA"/>
<stop offset="0.8791" stop-color="#E0C3F3"/>
<stop offset="0.9879" stop-color="#FCF9FE"/>
<stop offset="1" stop-color="white"/>
</linearGradient>
<linearGradient id="paint5_linear_126_1625" x1="51.431" y1="34.3716" x2="60.5311" y2="43.186" gradientUnits="userSpaceOnUse">
<stop stop-color="#8613D1"/>
<stop offset="0.1536" stop-color="#8816D2"/>
<stop offset="0.2867" stop-color="#8D21D4"/>
<stop offset="0.4122" stop-color="#9633D7"/>
<stop offset="0.5332" stop-color="#A34CDC"/>
<stop offset="0.6508" stop-color="#B46CE2"/>
<stop offset="0.7659" stop-color="#C894EA"/>
<stop offset="0.8791" stop-color="#E0C3F3"/>
<stop offset="0.9879" stop-color="#FCF9FE"/>
<stop offset="1" stop-color="white"/>
</linearGradient>
<linearGradient id="paint6_linear_126_1625" x1="63.4395" y1="45.2453" x2="69.1439" y2="32.1816" gradientUnits="userSpaceOnUse">
<stop offset="1e-08" stop-color="#EF9362"/>
<stop offset="0.1983" stop-color="#F5A75F"/>
<stop offset="0.4469" stop-color="#FBBA5D"/>
<stop offset="0.7081" stop-color="#FEC45B"/>
<stop offset="1" stop-color="#FFC85B"/>
</linearGradient>
<linearGradient id="paint7_linear_126_1625" x1="66.4607" y1="38.8561" x2="75.4276" y2="36.3028" gradientUnits="userSpaceOnUse">
<stop offset="1e-08" stop-color="#EF9362"/>
<stop offset="0.1983" stop-color="#F5A75F"/>
<stop offset="0.4469" stop-color="#FBBA5D"/>
<stop offset="0.7081" stop-color="#FEC45B"/>
<stop offset="1" stop-color="#FFC85B"/>
</linearGradient>
<linearGradient id="paint8_linear_126_1625" x1="63.3638" y1="39.8438" x2="78.6287" y2="35.4971" gradientUnits="userSpaceOnUse">
<stop offset="1e-08" stop-color="#EF9362"/>
<stop offset="0.1983" stop-color="#F5A75F"/>
<stop offset="0.4469" stop-color="#FBBA5D"/>
<stop offset="0.7081" stop-color="#FEC45B"/>
<stop offset="1" stop-color="#FFC85B"/>
</linearGradient>
<linearGradient id="paint9_linear_126_1625" x1="69.0256" y1="38.2583" x2="71.6573" y2="37.5089" gradientUnits="userSpaceOnUse">
<stop offset="1e-08" stop-color="#EF9362"/>
<stop offset="0.1983" stop-color="#F5A75F"/>
<stop offset="0.4469" stop-color="#FBBA5D"/>
<stop offset="0.7081" stop-color="#FEC45B"/>
<stop offset="1" stop-color="#FFC85B"/>
</linearGradient>
<linearGradient id="paint10_linear_126_1625" x1="66.2849" y1="28.6049" x2="69.1802" y2="48.1593" gradientUnits="userSpaceOnUse">
<stop stop-color="#8613D1"/>
<stop offset="0.0948" stop-color="#891AD2"/>
<stop offset="0.2279" stop-color="#932CD6"/>
<stop offset="0.3839" stop-color="#A24ADC"/>
<stop offset="0.5571" stop-color="#B874E4"/>
<stop offset="0.7445" stop-color="#D3AAEE"/>
<stop offset="0.941" stop-color="#F4EAFB"/>
<stop offset="1" stop-color="white"/>
</linearGradient>
<linearGradient id="paint11_linear_126_1625" x1="61.1526" y1="38.0568" x2="61.1526" y2="43.5184" gradientUnits="userSpaceOnUse">
<stop stop-color="#8613D1"/>
<stop offset="0.1536" stop-color="#8816D2"/>
<stop offset="0.2867" stop-color="#8D21D4"/>
<stop offset="0.4122" stop-color="#9633D7"/>
<stop offset="0.5332" stop-color="#A34CDC"/>
<stop offset="0.6508" stop-color="#B46CE2"/>
<stop offset="0.7659" stop-color="#C894EA"/>
<stop offset="0.8791" stop-color="#E0C3F3"/>
<stop offset="0.9879" stop-color="#FCF9FE"/>
<stop offset="1" stop-color="white"/>
</linearGradient>
<linearGradient id="paint12_linear_126_1625" x1="40.124" y1="43.6024" x2="44.2124" y2="17.9444" gradientUnits="userSpaceOnUse">
<stop offset="1e-08" stop-color="#AE3353"/>
<stop offset="0.0887" stop-color="#AF3A50"/>
<stop offset="0.3713" stop-color="#B24D47"/>
<stop offset="0.6682" stop-color="#B45743"/>
<stop offset="1" stop-color="#B55B41"/>
</linearGradient>
<linearGradient id="paint13_linear_126_1625" x1="22.6397" y1="24.5395" x2="57.6285" y2="24.5395" gradientUnits="userSpaceOnUse">
<stop offset="1e-08" stop-color="#AE3353"/>
<stop offset="0.0887" stop-color="#AF3A50"/>
<stop offset="0.3713" stop-color="#B24D47"/>
<stop offset="0.6682" stop-color="#B45743"/>
<stop offset="1" stop-color="#B55B41"/>
</linearGradient>
<linearGradient id="paint14_linear_126_1625" x1="29.9688" y1="25.4578" x2="62.9736" y2="25.4578" gradientUnits="userSpaceOnUse">
<stop offset="1e-08" stop-color="#AE3353"/>
<stop offset="0.0887" stop-color="#AF3A50"/>
<stop offset="0.3713" stop-color="#B24D47"/>
<stop offset="0.6682" stop-color="#B45743"/>
<stop offset="1" stop-color="#B55B41"/>
</linearGradient>
<linearGradient id="paint15_linear_126_1625" x1="33.6798" y1="31.3396" x2="65.2048" y2="31.3396" gradientUnits="userSpaceOnUse">
<stop offset="1e-08" stop-color="#AE3353"/>
<stop offset="0.0887" stop-color="#AF3A50"/>
<stop offset="0.3713" stop-color="#B24D47"/>
<stop offset="0.6682" stop-color="#B45743"/>
<stop offset="1" stop-color="#B55B41"/>
</linearGradient>
<linearGradient id="paint16_linear_126_1625" x1="41.0459" y1="35.9137" x2="64.4183" y2="35.9137" gradientUnits="userSpaceOnUse">
<stop offset="1e-08" stop-color="#AE3353"/>
<stop offset="0.0887" stop-color="#AF3A50"/>
<stop offset="0.3713" stop-color="#B24D47"/>
<stop offset="0.6682" stop-color="#B45743"/>
<stop offset="1" stop-color="#B55B41"/>
</linearGradient>
<linearGradient id="paint17_linear_126_1625" x1="52.3621" y1="41.9783" x2="31.0988" y2="15.8414" gradientUnits="userSpaceOnUse">
<stop stop-color="#8613D1"/>
<stop offset="0.1536" stop-color="#8816D2"/>
<stop offset="0.2867" stop-color="#8D21D4"/>
<stop offset="0.4122" stop-color="#9633D7"/>
<stop offset="0.5332" stop-color="#A34CDC"/>
<stop offset="0.6508" stop-color="#B46CE2"/>
<stop offset="0.7659" stop-color="#C894EA"/>
<stop offset="0.8791" stop-color="#E0C3F3"/>
<stop offset="0.9879" stop-color="#FCF9FE"/>
<stop offset="1" stop-color="white"/>
</linearGradient>
<linearGradient id="paint18_linear_126_1625" x1="28.9284" y1="52.8304" x2="28.6845" y2="57.8248" gradientUnits="userSpaceOnUse">
<stop stop-color="#8613D1"/>
<stop offset="0.1536" stop-color="#8816D2"/>
<stop offset="0.2867" stop-color="#8D21D4"/>
<stop offset="0.4122" stop-color="#9633D7"/>
<stop offset="0.5332" stop-color="#A34CDC"/>
<stop offset="0.6508" stop-color="#B46CE2"/>
<stop offset="0.7659" stop-color="#C894EA"/>
<stop offset="0.8791" stop-color="#E0C3F3"/>
<stop offset="0.9879" stop-color="#FCF9FE"/>
<stop offset="1" stop-color="white"/>
</linearGradient>
<linearGradient id="paint19_linear_126_1625" x1="27.438" y1="46.7603" x2="31.4756" y2="37.5139" gradientUnits="userSpaceOnUse">
<stop offset="1e-08" stop-color="#EF9362"/>
<stop offset="0.1983" stop-color="#F5A75F"/>
<stop offset="0.4469" stop-color="#FBBA5D"/>
<stop offset="0.7081" stop-color="#FEC45B"/>
<stop offset="1" stop-color="#FFC85B"/>
</linearGradient>
<linearGradient id="paint20_linear_126_1625" x1="24.2121" y1="42.7235" x2="38.479" y2="38.661" gradientUnits="userSpaceOnUse">
<stop offset="1e-08" stop-color="#EF9362"/>
<stop offset="0.1983" stop-color="#F5A75F"/>
<stop offset="0.4469" stop-color="#FBBA5D"/>
<stop offset="0.7081" stop-color="#FEC45B"/>
<stop offset="1" stop-color="#FFC85B"/>
</linearGradient>
<linearGradient id="paint21_linear_126_1625" x1="26.0613" y1="42.3042" x2="33.9905" y2="40.0464" gradientUnits="userSpaceOnUse">
<stop offset="1e-08" stop-color="#EF9362"/>
<stop offset="0.1983" stop-color="#F5A75F"/>
<stop offset="0.4469" stop-color="#FBBA5D"/>
<stop offset="0.7081" stop-color="#FEC45B"/>
<stop offset="1" stop-color="#FFC85B"/>
</linearGradient>
<linearGradient id="paint22_linear_126_1625" x1="27.9604" y1="41.8515" x2="30.5739" y2="41.1073" gradientUnits="userSpaceOnUse">
<stop offset="1e-08" stop-color="#EF9362"/>
<stop offset="0.1983" stop-color="#F5A75F"/>
<stop offset="0.4469" stop-color="#FBBA5D"/>
<stop offset="0.7081" stop-color="#FEC45B"/>
<stop offset="1" stop-color="#FFC85B"/>
</linearGradient>
<linearGradient id="paint23_linear_126_1625" x1="29.661" y1="42.4045" x2="22.8996" y2="67.9198" gradientUnits="userSpaceOnUse">
<stop stop-color="#8613D1"/>
<stop offset="0.1536" stop-color="#8816D2"/>
<stop offset="0.2867" stop-color="#8D21D4"/>
<stop offset="0.4122" stop-color="#9633D7"/>
<stop offset="0.5332" stop-color="#A34CDC"/>
<stop offset="0.6508" stop-color="#B46CE2"/>
<stop offset="0.7659" stop-color="#C894EA"/>
<stop offset="0.8791" stop-color="#E0C3F3"/>
<stop offset="0.9879" stop-color="#FCF9FE"/>
<stop offset="1" stop-color="white"/>
</linearGradient>
</defs>
</svg>
