<svg width="95" height="61" viewBox="0 0 95 61" fill="none" xmlns="http://www.w3.org/2000/svg">
<path d="M93.623 0.75V59.96H0.75V0.75H93.623Z" fill="#E1F5FB" stroke="black" stroke-width="1.5"/>
<path d="M92.8733 58.6613H1.5L7.76777 40.4527L14.03 31.0674L22.385 37.2559L28.6522 34.6427L35.9608 13.7583L46.924 3.46851L50.0576 10.6247L58.933 12.7169L62.587 23.6801L69.8956 28.3805L77.7302 47.1727L92.8733 58.6613Z" fill="white"/>
<path d="M64.4592 58.6613H1.5L7.76777 40.4527L14.03 31.0674L22.385 37.2559L28.6522 34.6427L35.9608 13.7583L46.924 3.46851L43.8796 12.5329L48.1649 22.4603L46.0245 31.0674L59.8059 36.5465L64.4592 58.6613Z" fill="#9BD6EA"/>
<path d="M28.652 34.6428L35.6796 40.7133L38.2423 51.2497L33.4472 41.2032L34.5307 52.965L29.9112 42.6736L24.0308 43.8042L22.3848 37.256L28.652 34.6428Z" fill="#BBE4F1"/>
<path d="M14.0303 31.0674L18.8205 58.6613L24.0313 43.8041L22.3853 37.2559L14.0303 31.0674Z" fill="#E6F5FA"/>
<path d="M50.0579 10.6248L43.8799 12.533L58.9333 12.717L50.0579 10.6248Z" fill="#9BD6EA"/>
<path d="M48.1648 22.4602V29.9317L57.6 26.1957L50.3718 31.0646L59.8058 36.5465L46.0244 31.0674L48.1648 22.4602Z" fill="#E6F5FA"/>
<path d="M77.7295 47.1729L69.9736 53.945L77.7295 50.5592L92.8727 58.6614L77.7295 47.1729Z" fill="#E6F5FA"/>
<path d="M69.8954 28.3804L69.9741 53.9447L64.459 58.6612L59.8057 36.5464L69.8954 28.3804Z" fill="#BBE4F1"/>
<path d="M46.0244 31.0674V33.7909L52.9151 43.5209L49.8209 34.6427L59.8058 36.5465L46.0244 31.0674Z" fill="#BBE4F1"/>
<path d="M7.76777 40.4526L12.6982 58.6612H1.5L7.76777 40.4526Z" fill="#BBE4F1"/>
<path d="M56.803 58.6612L47.9537 41.1421L49.8203 49.5569L49.5759 54.5572L43.0205 56.0275L34.5303 58.6612H56.803Z" fill="#BBE4F1"/>
<path d="M35.961 13.7584L43.8798 12.533L37.3238 15.9653L28.6523 34.6428L35.961 13.7584Z" fill="#BBE4F1"/>
<path d="M48.1652 22.4603L58.9333 12.717L43.8799 12.533L48.1652 22.4603Z" fill="#E6F5FA"/>
<path d="M77.7375 10.5863C78.8404 9.8681 79.6676 9.20765 80.219 8.60491C80.7769 7.99575 81.0558 7.42827 81.0558 6.90248C81.0558 6.48569 80.9596 6.1747 80.7673 5.96951C80.5813 5.76432 80.2992 5.66172 79.9208 5.66172C79.6772 5.66172 79.4528 5.73226 79.2476 5.87332C79.0488 6.00798 78.8853 6.19393 78.757 6.43118C78.6352 6.66843 78.5647 6.93774 78.5454 7.23912C78.3082 7.21347 78.1254 7.13331 77.9972 6.99866C77.869 6.85759 77.8048 6.67805 77.8048 6.46004C77.8048 6.1266 77.9042 5.83164 78.103 5.57516C78.3018 5.31867 78.5807 5.11989 78.9398 4.97883C79.3053 4.83776 79.7253 4.76722 80.1998 4.76722C80.6102 4.76722 80.9724 4.84417 81.2866 4.99806C81.6008 5.14554 81.8445 5.35714 82.0176 5.63287C82.1908 5.90859 82.2773 6.22279 82.2773 6.57546C82.2773 7.01148 82.1523 7.44751 81.9022 7.88354C81.6585 8.31957 81.2674 8.78765 80.7288 9.2878C80.1966 9.78795 79.4784 10.3554 78.5743 10.9902L77.7375 10.5863ZM81.2866 11.7885C80.9211 11.7885 80.5524 11.7469 80.1805 11.6635C79.8086 11.5802 79.3021 11.4231 78.6609 11.1922L78.632 11.1826C78.446 11.375 78.2761 11.5096 78.1222 11.5866C77.9748 11.6699 77.8144 11.7116 77.6413 11.7116C77.4682 11.7116 77.3207 11.6539 77.1989 11.5385C77.0835 11.4231 77.0258 11.282 77.0258 11.1153C77.0258 10.8395 77.138 10.6151 77.3624 10.442C77.5868 10.2689 77.869 10.1823 78.2088 10.1823C78.3755 10.1823 78.5775 10.2112 78.8147 10.2689C79.052 10.3202 79.3438 10.3971 79.69 10.4997C80.1004 10.6151 80.4242 10.7017 80.6615 10.7594C80.8987 10.8107 81.1071 10.8363 81.2866 10.8363L82.3446 10.2592C82.4344 10.4003 82.4953 10.5189 82.5274 10.6151C82.5659 10.7113 82.5851 10.8043 82.5851 10.8941C82.5851 11.0608 82.5274 11.2147 82.412 11.3557C82.2966 11.4904 82.1395 11.5962 81.9407 11.6731C81.7419 11.7501 81.5239 11.7885 81.2866 11.7885ZM86.2232 11.7405C85.5307 11.7405 84.9728 11.516 84.5496 11.0672C84.1328 10.6119 83.9244 9.95467 83.9244 9.09544C83.9244 8.16567 84.1521 7.27438 84.6073 6.42156C85.069 5.56233 85.6301 4.86982 86.2905 4.34402C86.9574 3.81181 87.5601 3.54571 88.0988 3.54571C88.3168 3.54571 88.4867 3.58739 88.6085 3.67074C88.7368 3.74769 88.8458 3.89196 88.9355 4.10357C88.4675 4.27669 88.0218 4.4915 87.5986 4.74799C87.1818 5.00447 86.765 5.36997 86.3482 5.84447C85.9379 6.31897 85.5852 6.92171 85.2902 7.6527H85.3479C85.6173 7.29362 85.9026 7.04354 86.204 6.90248C86.5053 6.755 86.8259 6.68126 87.1658 6.68126C87.589 6.68126 87.9513 6.77744 88.2527 6.9698C88.5604 7.16217 88.7913 7.42507 88.9452 7.7585C89.1055 8.09193 89.1856 8.47346 89.1856 8.90307C89.1856 9.42887 89.0478 9.90978 88.772 10.3458C88.5027 10.7818 88.1404 11.1249 87.6852 11.375C87.2299 11.6186 86.7426 11.7405 86.2232 11.7405ZM86.3675 10.9902C86.6047 10.9902 86.8452 10.9101 87.0888 10.7498C87.3325 10.5895 87.5377 10.3522 87.7044 10.038C87.8711 9.71742 87.9545 9.33589 87.9545 8.89345C87.9545 8.48308 87.8519 8.14002 87.6467 7.8643C87.4415 7.58217 87.1017 7.4411 86.6272 7.4411C86.4092 7.4411 86.1847 7.51804 85.9539 7.67194C85.7231 7.82583 85.5307 8.05025 85.3768 8.34521C85.2229 8.64017 85.146 8.99284 85.146 9.40322C85.146 9.85207 85.2421 10.2304 85.4345 10.5382C85.6269 10.8395 85.9379 10.9902 86.3675 10.9902Z" fill="black"/>
</svg>
