<svg width="95" height="61" viewBox="0 0 95 61" fill="none" xmlns="http://www.w3.org/2000/svg">
<path d="M93.623 0.75V59.96H0.75V0.75H93.623Z" fill="#D9D9D9" stroke="black" stroke-width="1.5"/>
<path d="M80.3734 11.7405C79.6809 11.7405 79.1231 11.516 78.6999 11.0672C78.2831 10.6119 78.0747 9.95467 78.0747 9.09544C78.0747 8.16567 78.3023 7.27438 78.7576 6.42156C79.2193 5.56233 79.7803 4.86982 80.4408 4.34402C81.1076 3.81181 81.7104 3.54571 82.249 3.54571C82.467 3.54571 82.6369 3.58739 82.7588 3.67074C82.887 3.74769 82.996 3.89196 83.0858 4.10357C82.6177 4.27669 82.1721 4.4915 81.7489 4.74799C81.3321 5.00447 80.9153 5.36997 80.4985 5.84447C80.0881 6.31897 79.7354 6.92171 79.4405 7.6527H79.4982C79.7675 7.29362 80.0528 7.04354 80.3542 6.90248C80.6556 6.755 80.9762 6.68126 81.316 6.68126C81.7392 6.68126 82.1015 6.77744 82.4029 6.9698C82.7107 7.16217 82.9415 7.42507 83.0954 7.7585C83.2557 8.09193 83.3359 8.47346 83.3359 8.90307C83.3359 9.42887 83.198 9.90978 82.9223 10.3458C82.653 10.7818 82.2907 11.1249 81.8354 11.375C81.3802 11.6186 80.8928 11.7405 80.3734 11.7405ZM80.5177 10.9902C80.755 10.9902 80.9954 10.9101 81.2391 10.7498C81.4827 10.5895 81.6879 10.3522 81.8547 10.038C82.0214 9.71742 82.1047 9.33589 82.1047 8.89345C82.1047 8.48308 82.0021 8.14002 81.7969 7.8643C81.5918 7.58217 81.2519 7.4411 80.7774 7.4411C80.5594 7.4411 80.335 7.51804 80.1041 7.67194C79.8733 7.82583 79.6809 8.05025 79.527 8.34521C79.3731 8.64017 79.2962 8.99284 79.2962 9.40322C79.2962 9.85207 79.3924 10.2304 79.5847 10.5382C79.7771 10.8395 80.0881 10.9902 80.5177 10.9902ZM87.0396 11.7501C86.3087 11.7501 85.7284 11.593 85.2987 11.2788C84.8755 10.9646 84.6639 10.5318 84.6639 9.98032C84.6639 9.71742 84.7248 9.46414 84.8467 9.22047C84.9685 8.9704 85.1865 8.71712 85.5007 8.46063C85.8149 8.20415 86.2477 7.94766 86.7992 7.69117C87.2865 7.47316 87.6648 7.25515 87.9341 7.03713C88.2035 6.81271 88.3862 6.59469 88.4824 6.38309C88.585 6.17149 88.6363 5.94706 88.6363 5.70981C88.6363 5.42768 88.5401 5.20325 88.3477 5.03654C88.1618 4.86982 87.9053 4.78646 87.5783 4.78646C87.2256 4.78646 86.9338 4.87303 86.703 5.04615C86.4786 5.21287 86.3664 5.45012 86.3664 5.7579C86.3664 5.97592 86.4337 6.1779 86.5683 6.36385C86.703 6.54981 86.8697 6.71973 87.0685 6.87362C87.2737 7.02751 87.5494 7.21667 87.8957 7.4411C88.306 7.704 88.6363 7.93484 88.8863 8.13361C89.1364 8.32598 89.348 8.55361 89.5212 8.81651C89.6943 9.07941 89.7808 9.37437 89.7808 9.70139C89.7808 10.0989 89.6654 10.4548 89.4346 10.769C89.2037 11.0768 88.8799 11.3173 88.4631 11.4904C88.0464 11.6635 87.5719 11.7501 87.0396 11.7501ZM87.1358 10.9421C87.5398 10.9421 87.8764 10.8428 88.1457 10.644C88.4151 10.4388 88.5497 10.1534 88.5497 9.78795C88.5497 9.60841 88.4856 9.43528 88.3573 9.26857C88.2291 9.10185 88.072 8.94796 87.886 8.80689C87.7001 8.66582 87.4404 8.47987 87.107 8.24903C86.6838 7.9669 86.3407 7.72003 86.0778 7.50843C85.8213 7.29682 85.6001 7.05316 85.4142 6.77744C85.2282 6.50172 85.1352 6.20034 85.1352 5.87332C85.1352 5.50142 85.2346 5.17119 85.4334 4.88264C85.6386 4.5941 85.9271 4.37288 86.299 4.21898C86.6709 4.05868 87.1006 3.97853 87.5879 3.97853C88.2419 3.97853 88.7581 4.13563 89.1364 4.44982C89.5147 4.76402 89.7039 5.18402 89.7039 5.70981C89.7039 6.14584 89.5179 6.56584 89.146 6.9698C88.7741 7.36736 88.2419 7.72003 87.5494 8.02781C86.998 8.27147 86.5555 8.56323 86.2221 8.90307C85.8951 9.24292 85.7316 9.602 85.7316 9.98032C85.7316 10.2689 85.863 10.5029 86.1259 10.6824C86.3888 10.8556 86.7254 10.9421 87.1358 10.9421Z" fill="black"/>
</svg>
