<svg width="95" height="61" viewBox="0 0 95 61" fill="none" xmlns="http://www.w3.org/2000/svg">
<path d="M93.623 0.75V59.96H0.75V0.75H93.623Z" fill="#3BA15C" stroke="black" stroke-width="1.5"/>
<path d="M78.1508 10.5863C79.2537 9.8681 80.0808 9.20765 80.6323 8.60491C81.1902 7.99575 81.4691 7.42827 81.4691 6.90248C81.4691 6.48569 81.3729 6.1747 81.1805 5.96951C80.9946 5.76432 80.7124 5.66172 80.3341 5.66172C80.0905 5.66172 79.866 5.73226 79.6609 5.87332C79.4621 6.00798 79.2986 6.19393 79.1703 6.43118C79.0485 6.66843 78.978 6.93774 78.9587 7.23912C78.7215 7.21347 78.5387 7.13331 78.4105 6.99866C78.2822 6.85759 78.2181 6.67805 78.2181 6.46004C78.2181 6.1266 78.3175 5.83164 78.5163 5.57516C78.7151 5.31867 78.994 5.11989 79.3531 4.97883C79.7186 4.83776 80.1386 4.76722 80.6131 4.76722C81.0234 4.76722 81.3857 4.84417 81.6999 4.99806C82.0141 5.14554 82.2578 5.35714 82.4309 5.63287C82.604 5.90859 82.6906 6.22279 82.6906 6.57546C82.6906 7.01148 82.5656 7.44751 82.3155 7.88354C82.0718 8.31957 81.6807 8.78765 81.1421 9.2878C80.6099 9.78795 79.8917 10.3554 78.9876 10.9902L78.1508 10.5863ZM81.6999 11.7885C81.3344 11.7885 80.9657 11.7469 80.5938 11.6635C80.2219 11.5802 79.7154 11.4231 79.0741 11.1922L79.0453 11.1826C78.8593 11.375 78.6894 11.5096 78.5355 11.5866C78.388 11.6699 78.2277 11.7116 78.0546 11.7116C77.8815 11.7116 77.734 11.6539 77.6122 11.5385C77.4967 11.4231 77.439 11.282 77.439 11.1153C77.439 10.8395 77.5512 10.6151 77.7757 10.442C78.0001 10.2689 78.2822 10.1823 78.6221 10.1823C78.7888 10.1823 78.9908 10.2112 79.228 10.2689C79.4653 10.3202 79.757 10.3971 80.1033 10.4997C80.5137 10.6151 80.8375 10.7017 81.0747 10.7594C81.312 10.8107 81.5204 10.8363 81.6999 10.8363L82.7579 10.2592C82.8477 10.4003 82.9086 10.5189 82.9407 10.6151C82.9791 10.7113 82.9984 10.8043 82.9984 10.8941C82.9984 11.0608 82.9407 11.2147 82.8253 11.3557C82.7098 11.4904 82.5527 11.5962 82.354 11.6731C82.1552 11.7501 81.9372 11.7885 81.6999 11.7885ZM85.3476 12.9908C84.8026 12.9908 84.4018 12.9171 84.1454 12.7696C83.8889 12.6221 83.7606 12.3977 83.7606 12.0963C83.7606 11.9168 83.8376 11.7661 83.9915 11.6443C84.1518 11.5224 84.3409 11.4615 84.5589 11.4615C84.7513 11.4615 84.9373 11.5321 85.1168 11.6731C85.3028 11.8142 85.4566 12.0034 85.5785 12.2406C85.9504 12.2406 86.2902 12.1669 86.598 12.0194C86.9122 11.8719 87.1591 11.6731 87.3386 11.4231C87.5246 11.1666 87.6175 10.8908 87.6175 10.5959C87.6175 10.3522 87.5534 10.115 87.4252 9.88413C87.3034 9.6533 87.1078 9.46414 86.8385 9.31666C86.5692 9.16277 86.2325 9.08582 85.8286 9.08582C85.6618 9.08582 85.4663 9.10826 85.2418 9.15315C85.1521 9.17238 85.0879 9.182 85.0495 9.182C84.9918 9.182 84.9437 9.15956 84.9052 9.11467C84.8667 9.06979 84.8475 9.01849 84.8475 8.96078L85.4246 5.61363L86.4537 5.95989L86.0498 8.39331C86.5884 8.39331 87.0693 8.48308 87.4925 8.66262C87.9221 8.84216 88.2556 9.09223 88.4928 9.41284C88.7365 9.73345 88.8583 10.0957 88.8583 10.4997C88.8583 10.9742 88.7044 11.4006 88.3966 11.7789C88.0953 12.1572 87.6753 12.4522 87.1366 12.6638C86.6044 12.8818 86.0081 12.9908 85.3476 12.9908ZM87.2232 6.24844C86.4409 6.24844 85.8638 6.1747 85.4919 6.02722C85.12 5.87974 84.9341 5.65531 84.9341 5.35394C84.9341 5.16157 84.9854 5.0173 85.0879 4.92112C85.197 4.81852 85.3573 4.76722 85.5689 4.76722C85.7484 4.76722 85.9119 4.82814 86.0594 4.94997C86.2133 5.0718 86.3383 5.23211 86.4345 5.43088C86.7936 5.41165 87.1976 5.33791 87.6464 5.20966C88.1017 5.07501 88.5441 4.90829 88.9737 4.70952C89.0186 4.77364 89.0507 4.8602 89.0699 4.96921C89.0956 5.0718 89.1084 5.18081 89.1084 5.29623C89.1084 5.52065 89.025 5.7034 88.8583 5.84447C88.698 5.98554 88.4768 6.08813 88.1946 6.15225C87.9189 6.21637 87.5951 6.24844 87.2232 6.24844Z" fill="black"/>
</svg>
