<svg width="95" height="61" viewBox="0 0 95 61" fill="none" xmlns="http://www.w3.org/2000/svg">
<path d="M93.623 0.75V59.96H0.75V0.75H93.623Z" fill="#FFC270" stroke="black" stroke-width="1.5"/>
<path d="M14.1855 17.1599L12.6123 22.5242L73.8774 40.4921L75.4506 35.1278L14.1855 17.1599Z" fill="white"/>
<path d="M75.4512 35.1282L76.7043 36.3579L76.9784 36.6248L79.971 39.5608L75.9358 40.1794L73.8779 40.4924L75.4512 35.1282Z" fill="white"/>
<path opacity="0.15" d="M12.9647 21.3227L76.0401 39.8215L75.9353 40.179L73.8774 40.4921L12.6123 22.5242L12.9647 21.3227Z" fill="white"/>
<path opacity="0.1" d="M13.953 17.9537L76.704 36.3574L76.9781 36.6243L76.7893 37.2679L13.7139 18.769L13.953 17.9537Z" fill="white"/>
<path d="M75.7342 40.2081L74.7082 37.6608L74.9442 36.8563L76.3222 35.9819L79.9709 39.5603L75.7342 40.2081Z" fill="white"/>
<path d="M12.3205 10.9166L7.6709 26.7703L8.48588 27.0093L13.1355 11.1556L12.3205 10.9166Z" fill="white"/>
<path d="M13.1348 11.1536C13.1348 11.1536 12.827 12.2245 12.7302 13.4662C12.6072 14.9796 12.7868 16.7488 14.1858 17.1591L12.6126 22.5234C11.2135 22.1131 10.1069 23.5051 9.39287 24.8454C8.80373 25.9425 8.48438 27.0103 8.48438 27.0103L13.1348 11.1536Z" fill="white"/>
<path opacity="0.1" d="M12.9047 11.9401C12.9047 11.9401 11.4048 17.1937 13.9569 17.9422L13.7167 18.7612C11.1646 18.0128 12.6645 12.7591 12.6645 12.7591L12.9047 11.9401Z" fill="white"/>
<path opacity="0.15" d="M12.962 21.332L12.6127 22.5229C10.0606 21.7745 8.48438 27.0095 8.48438 27.0095L8.83468 25.8151C8.83468 25.8151 10.4099 20.5836 12.962 21.332Z" fill="white"/>
<path opacity="0.1" d="M12.2492 10.8959L7.59961 26.7495L8.03292 26.8766L12.6825 11.0229L12.2492 10.8959Z" fill="white"/>
<path opacity="0.15" d="M13.1348 11.1531C13.1348 11.1531 12.8269 12.224 12.73 13.4657L9.39282 24.8446C8.80374 25.9417 8.48438 27.0095 8.48438 27.0095L13.1348 11.1531Z" fill="white"/>
<path d="M25.9362 9.17923L22.8584 13.4878L74.5946 50.4459L77.6725 46.1373L25.9362 9.17923Z" fill="white"/>
<path d="M77.6726 46.137L78.4719 47.6711L78.6473 48.0047L80.5564 51.6677L76.6078 50.8598L74.5947 50.4456L77.6726 46.137Z" fill="white"/>
<path opacity="0.15" d="M23.5478 12.5228L76.8128 50.5729L76.6077 50.8601L74.5946 50.4459L22.8584 13.4878L23.5478 12.5228Z" fill="white"/>
<path opacity="0.1" d="M25.4805 9.81682L78.4716 47.6713L78.647 48.0049L78.2777 48.5219L25.0127 10.4717L25.4805 9.81682Z" fill="white"/>
<path d="M76.411 50.8177L76.219 48.1714L76.6806 47.5252L78.2283 47.2026L80.5563 51.6675L76.411 50.8177Z" fill="white"/>
<path d="M25.6837 3.37291L16.9814 15.5549L17.9705 16.2615L26.6728 4.07944L25.6837 3.37291Z" fill="white"/>
<path d="M26.7592 3.40261C26.7592 3.40261 26.1505 4.26486 25.6874 5.35275C25.1183 6.67696 24.7545 8.33443 25.9359 9.1784L22.8581 13.487C21.6767 12.643 20.2267 13.5246 19.1584 14.4925C18.2796 15.2831 17.6611 16.1387 17.6611 16.1387L26.7592 3.40261Z" fill="white"/>
<path opacity="0.1" d="M26.3081 4.03486C26.3081 4.03486 23.3318 8.26841 25.487 9.80793L25.017 10.4658C22.8619 8.92629 25.8381 4.69273 25.8381 4.69273L26.3081 4.03486Z" fill="white"/>
<path opacity="0.15" d="M23.5424 12.5307L22.8591 13.4873C20.704 11.9477 17.6621 16.1387 17.6621 16.1387L18.3474 15.1793C18.3474 15.1793 21.3873 10.9912 23.5424 12.5307Z" fill="white"/>
<path opacity="0.1" d="M26.0514 2.8992L16.9551 15.6328L17.2808 15.8655L26.3771 3.13188L26.0514 2.8992Z" fill="white"/>
<path opacity="0.15" d="M26.7601 3.4028C26.7601 3.4028 26.1514 4.26504 25.6882 5.35293L19.1594 14.4925C18.2806 15.2831 17.6621 16.1387 17.6621 16.1387L26.7601 3.4028Z" fill="white"/>
<path d="M14.0819 17.6358L12.8301 21.9041L73.0118 39.5542L74.2636 35.2859L14.0819 17.6358Z" fill="#DC795E"/>
<path d="M74.2635 35.2859L75.538 36.3457L75.8166 36.5758L78.86 39.1062L74.987 39.4042L73.0117 39.5542L74.2635 35.2859Z" fill="#DC795E"/>
<path opacity="0.15" d="M13.1105 20.948L75.0705 39.1198L74.9871 39.4042L73.0118 39.5542L12.8301 21.9041L13.1105 20.948Z" fill="#6E3025"/>
<path opacity="0.1" d="M13.8963 18.268L75.5377 36.3463L75.8163 36.5763L75.6661 37.0885L13.7061 18.9167L13.8963 18.268Z" fill="white"/>
<path d="M74.7933 39.4176L73.6722 37.3014L73.8599 36.6613L75.1491 36.022L78.8597 39.1062L74.7933 39.4176Z" fill="#E49470"/>
<path d="M12.0688 12.5143L8.36914 25.1289L9.06274 25.3323L12.7624 12.7177L12.0688 12.5143Z" fill="#F8B88E"/>
<path d="M12.7628 12.716C12.7628 12.716 12.5189 13.5684 12.4879 14.5699C12.4452 15.7903 12.7081 17.2332 14.0823 17.6363L12.8305 21.9046C11.4562 21.5015 10.4557 22.5739 9.8324 23.6242C9.31768 24.4837 9.0625 25.333 9.0625 25.333L12.7628 12.716Z" fill="#E49470"/>
<path opacity="0.1" d="M12.5786 13.3421C12.5786 13.3421 11.3922 17.5244 13.8991 18.2596L13.708 18.9114C11.2011 18.1761 12.3875 13.9938 12.3875 13.9938L12.5786 13.3421Z" fill="white"/>
<path opacity="0.15" d="M13.1086 20.9572L12.8307 21.9048C10.3237 21.1696 9.0625 25.333 9.0625 25.333L9.34124 24.3826C9.34124 24.3826 10.6017 20.222 13.1086 20.9572Z" fill="#6E3025"/>
<path opacity="0.1" d="M12.0688 12.5143L8.36914 25.1289L8.61809 25.2019L12.3177 12.5873L12.0688 12.5143Z" fill="white"/>
<path opacity="0.15" d="M12.7628 12.7162C12.7628 12.7162 12.5189 13.5686 12.4878 14.5701L9.8324 23.6242C9.31768 24.4837 9.0625 25.333 9.0625 25.333L12.7628 12.7162Z" fill="#6E3025"/>
<path d="M25.8024 9.53951L23.2168 13.1589L74.2497 49.6145L76.8352 45.9951L25.8024 9.53951Z" fill="#DC795E"/>
<path d="M76.8356 45.9953L77.6907 47.4152L77.8782 47.7241L79.9204 51.1145L76.1648 50.1226L74.25 49.6147L76.8356 45.9953Z" fill="#DC795E"/>
<path opacity="0.15" d="M23.7959 12.3483L76.3368 49.8811L76.1645 50.1223L74.2496 49.6145L23.2168 13.1589L23.7959 12.3483Z" fill="#6E3025"/>
<path opacity="0.1" d="M25.4193 10.0759L77.69 47.4157L77.8775 47.7246L77.5672 48.1588L25.0264 10.626L25.4193 10.0759Z" fill="white"/>
<path d="M75.9772 50.0721L75.6142 47.7049L76.002 47.1621L77.4297 46.9823L79.92 51.115L75.9772 50.0721Z" fill="#E49470"/>
<path d="M25.5867 4.04061L17.9453 14.7375L18.5335 15.1577L26.1749 4.46076L25.5867 4.04061Z" fill="#F8B88E"/>
<path d="M26.1741 4.45896C26.1741 4.45896 25.6635 5.1838 25.3049 6.11943C24.8633 7.25792 24.6372 8.70707 25.8026 9.53956L23.217 13.159C22.0516 12.3265 20.7541 13.0103 19.8202 13.7973C19.0515 14.4398 18.5312 15.158 18.5312 15.158L26.1741 4.45896Z" fill="#E49470"/>
<path opacity="0.1" d="M25.7947 4.98985C25.7947 4.98985 23.2992 8.5496 25.425 10.0682L25.0302 10.6208C22.9044 9.10225 25.4 5.54251 25.4 5.54251L25.7947 4.98985Z" fill="white"/>
<path opacity="0.15" d="M23.7911 12.3557L23.2171 13.1593C21.0912 11.6407 18.5312 15.158 18.5312 15.158L19.107 14.352C19.107 14.352 21.6653 10.8371 23.7911 12.3557Z" fill="#6E3025"/>
<path opacity="0.1" d="M25.5867 4.04061L17.9453 14.7375L18.1564 14.8884L25.7978 4.19142L25.5867 4.04061Z" fill="white"/>
<path opacity="0.15" d="M26.174 4.45912C26.174 4.45912 25.6634 5.18396 25.3048 6.11959L19.8202 13.7973C19.0515 14.4398 18.5312 15.158 18.5312 15.158L26.174 4.45912Z" fill="#6E3025"/>
<path d="M80.6508 12.6638C80.1186 12.6638 79.8525 12.3528 79.8525 11.7308C79.8525 11.0255 80.0673 10.1406 80.4969 9.0762C80.9265 8.01178 81.5036 6.91851 82.2282 5.79638L83.4689 5.40203C83.1034 5.95348 82.7508 6.58507 82.4109 7.29682C82.0711 8.00858 81.7921 8.74597 81.5741 9.50902C81.3561 10.2721 81.2471 10.9838 81.2471 11.6443C81.2471 11.8302 81.2535 11.9777 81.2663 12.0867C81.2856 12.2021 81.324 12.3208 81.3818 12.4426C81.1445 12.5901 80.9008 12.6638 80.6508 12.6638ZM81.6222 6.20034C80.9938 6.20034 80.4905 6.17149 80.1121 6.11378C79.7402 6.04966 79.4677 5.95348 79.2946 5.82523C79.1215 5.69058 79.0349 5.51104 79.0349 5.28661C79.0349 5.1776 79.0509 5.0686 79.083 4.95959C79.1151 4.84417 79.1535 4.74478 79.1984 4.66142C79.6665 4.8602 80.1891 5.02692 80.7662 5.16157C81.3433 5.28982 81.8659 5.36676 82.334 5.39241C82.443 5.18722 82.5744 5.02692 82.7283 4.9115C82.8886 4.78967 83.0585 4.72875 83.2381 4.72875C83.4497 4.72875 83.61 4.78005 83.719 4.88264C83.828 4.97883 83.8825 5.11989 83.8825 5.30585C83.8825 5.62004 83.6998 5.84767 83.3343 5.98874C82.9688 6.12981 82.3981 6.20034 81.6222 6.20034ZM86.8491 11.7501C86.1181 11.7501 85.5378 11.593 85.1082 11.2788C84.6849 10.9646 84.4733 10.5318 84.4733 9.98032C84.4733 9.71742 84.5343 9.46414 84.6561 9.22047C84.7779 8.9704 84.9959 8.71712 85.3101 8.46063C85.6243 8.20415 86.0572 7.94766 86.6086 7.69117C87.0959 7.47316 87.4742 7.25515 87.7436 7.03713C88.0129 6.81271 88.1956 6.59469 88.2918 6.38309C88.3944 6.17149 88.4457 5.94706 88.4457 5.70981C88.4457 5.42768 88.3495 5.20325 88.1571 5.03654C87.9712 4.86982 87.7147 4.78646 87.3877 4.78646C87.035 4.78646 86.7433 4.87303 86.5124 5.04615C86.288 5.21287 86.1758 5.45012 86.1758 5.7579C86.1758 5.97592 86.2431 6.1779 86.3778 6.36385C86.5124 6.54981 86.6791 6.71973 86.8779 6.87362C87.0831 7.02751 87.3588 7.21667 87.7051 7.4411C88.1155 7.704 88.4457 7.93484 88.6958 8.13361C88.9458 8.32598 89.1574 8.55361 89.3306 8.81651C89.5037 9.07941 89.5903 9.37437 89.5903 9.70139C89.5903 10.0989 89.4748 10.4548 89.244 10.769C89.0132 11.0768 88.6893 11.3173 88.2726 11.4904C87.8558 11.6635 87.3813 11.7501 86.8491 11.7501ZM86.9452 10.9421C87.3492 10.9421 87.6858 10.8428 87.9552 10.644C88.2245 10.4388 88.3591 10.1534 88.3591 9.78795C88.3591 9.60841 88.295 9.43528 88.1668 9.26857C88.0385 9.10185 87.8814 8.94796 87.6955 8.80689C87.5095 8.66582 87.2498 8.47987 86.9164 8.24903C86.4932 7.9669 86.1501 7.72003 85.8872 7.50843C85.6307 7.29682 85.4095 7.05316 85.2236 6.77744C85.0376 6.50172 84.9446 6.20034 84.9446 5.87332C84.9446 5.50142 85.044 5.17119 85.2428 4.88264C85.448 4.5941 85.7365 4.37288 86.1085 4.21898C86.4804 4.05868 86.91 3.97853 87.3973 3.97853C88.0513 3.97853 88.5675 4.13563 88.9458 4.44982C89.3242 4.76402 89.5133 5.18402 89.5133 5.70981C89.5133 6.14584 89.3274 6.56584 88.9555 6.9698C88.5835 7.36736 88.0513 7.72003 87.3588 8.02781C86.8074 8.27147 86.3649 8.56323 86.0315 8.90307C85.7045 9.24292 85.541 9.602 85.541 9.98032C85.541 10.2689 85.6724 10.5029 85.9353 10.6824C86.1982 10.8556 86.5349 10.9421 86.9452 10.9421Z" fill="black"/>
</svg>
