<svg width="95" height="61" viewBox="0 0 95 61" fill="none" xmlns="http://www.w3.org/2000/svg">
<path d="M93.623 0.75V59.96H0.75V0.75H93.623Z" fill="#D9D9D9" stroke="black" stroke-width="1.5"/>
<path d="M78.4804 11.5C77.9802 11.5 77.6147 11.4295 77.3839 11.2884C77.153 11.1473 77.0376 10.9261 77.0376 10.6247C77.0376 10.426 77.1082 10.1791 77.2492 9.88413C77.3903 9.58276 77.6211 9.14994 77.9417 8.58567C78.2175 8.11117 78.4387 7.71041 78.6054 7.38339C78.7785 7.05637 78.926 6.72294 79.0478 6.38309C79.1697 6.03683 79.2306 5.72264 79.2306 5.4405C79.2306 5.28661 79.2049 5.11669 79.1536 4.93074C79.2755 4.87303 79.3909 4.83135 79.4999 4.8057C79.6089 4.78005 79.7211 4.76722 79.8365 4.76722C80.3559 4.76722 80.6156 5.08142 80.6156 5.70981C80.6156 6.2805 80.3848 6.9698 79.9231 7.77774C79.4678 8.57926 78.7721 9.51864 77.8359 10.5959H81.0292L80.7503 11.3173C80.4553 11.3686 80.093 11.4134 79.6634 11.4519C79.2338 11.484 78.8394 11.5 78.4804 11.5ZM81.2985 13.1351C81.0356 13.1351 80.8304 13.0485 80.6829 12.8754C80.5419 12.7087 80.4713 12.4682 80.4713 12.154C80.4713 11.8398 80.5611 11.3269 80.7407 10.6151C80.9266 9.90337 81.1767 9.08261 81.4909 8.15285C81.5999 8.06949 81.7249 8.00216 81.866 7.95087C82.0071 7.89957 82.1385 7.87392 82.2603 7.87392C82.3693 7.87392 82.4463 7.89316 82.4912 7.93163C82.5361 7.96369 82.5585 8.0214 82.5585 8.10476C82.5585 8.18812 82.5393 8.31636 82.5008 8.48949C82.4623 8.66262 82.4174 8.85178 82.3661 9.05696C82.2251 9.58276 82.1096 10.0765 82.0199 10.5382C81.9365 10.9934 81.8948 11.4455 81.8948 11.8943C81.8948 12.3176 81.9718 12.6542 82.1257 12.9043C81.959 12.9876 81.8147 13.0453 81.6929 13.0774C81.571 13.1159 81.4396 13.1351 81.2985 13.1351ZM86.3171 11.7405C85.6246 11.7405 85.0668 11.516 84.6436 11.0672C84.2268 10.6119 84.0184 9.95467 84.0184 9.09544C84.0184 8.16567 84.246 7.27438 84.7013 6.42156C85.1629 5.56233 85.724 4.86982 86.3845 4.34402C87.0513 3.81181 87.6541 3.54571 88.1927 3.54571C88.4107 3.54571 88.5806 3.58739 88.7025 3.67074C88.8307 3.74769 88.9397 3.89196 89.0295 4.10357C88.5614 4.27669 88.1157 4.4915 87.6925 4.74799C87.2758 5.00447 86.859 5.36997 86.4422 5.84447C86.0318 6.31897 85.6791 6.92171 85.3842 7.6527H85.4419C85.7112 7.29362 85.9965 7.04354 86.2979 6.90248C86.5993 6.755 86.9199 6.68126 87.2597 6.68126C87.6829 6.68126 88.0452 6.77744 88.3466 6.9698C88.6544 7.16217 88.8852 7.42507 89.0391 7.7585C89.1994 8.09193 89.2796 8.47346 89.2796 8.90307C89.2796 9.42887 89.1417 9.90978 88.866 10.3458C88.5967 10.7818 88.2344 11.1249 87.7791 11.375C87.3238 11.6186 86.8365 11.7405 86.3171 11.7405ZM86.4614 10.9902C86.6987 10.9902 86.9391 10.9101 87.1828 10.7498C87.4264 10.5895 87.6316 10.3522 87.7983 10.038C87.9651 9.71742 88.0484 9.33589 88.0484 8.89345C88.0484 8.48308 87.9458 8.14002 87.7406 7.8643C87.5354 7.58217 87.1956 7.4411 86.7211 7.4411C86.5031 7.4411 86.2787 7.51804 86.0478 7.67194C85.817 7.82583 85.6246 8.05025 85.4707 8.34521C85.3168 8.64017 85.2399 8.99284 85.2399 9.40322C85.2399 9.85207 85.3361 10.2304 85.5284 10.5382C85.7208 10.8395 86.0318 10.9902 86.4614 10.9902Z" fill="black"/>
</svg>
