<svg width="95" height="61" viewBox="0 0 95 61" fill="none" xmlns="http://www.w3.org/2000/svg">
<path d="M93.5371 0.720947V59.8733H0.720703V0.720947H93.5371Z" fill="#E1F5FB" stroke="black" stroke-width="1.44274"/>
<path d="M92.8157 58.6039H1.44238L7.71015 40.3953L13.9724 31.01L22.3274 37.1985L28.5946 34.5854L35.9032 13.7009L46.8663 3.41113L50 10.5673L58.8754 12.6595L62.5294 23.6227L69.838 28.3231L77.6725 47.1153L92.8157 58.6039Z" fill="white"/>
<path d="M64.4016 58.6039H1.44238L7.71015 40.3953L13.9724 31.01L22.3274 37.1985L28.5946 34.5854L35.9032 13.7009L46.8664 3.41113L43.822 12.4755L48.1073 22.4029L45.9668 31.01L59.7483 36.4891L64.4016 58.6039Z" fill="#9BD6EA"/>
<path d="M28.5944 34.5854L35.622 40.6559L38.1847 51.1923L33.3895 41.1458L34.4731 52.9077L29.8536 42.6162L23.9732 43.7468L22.3271 37.1986L28.5944 34.5854Z" fill="#BBE4F1"/>
<path d="M13.9727 31.01L18.7629 58.6039L23.9737 43.7467L22.3276 37.1985L13.9727 31.01Z" fill="#E6F5FA"/>
<path d="M50.0002 10.5674L43.8223 12.4756L58.8757 12.6596L50.0002 10.5674Z" fill="#9BD6EA"/>
<path d="M48.1072 22.4028V29.8744L57.5424 26.1383L50.3142 31.0072L59.7482 36.4891L45.9668 31.01L48.1072 22.4028Z" fill="#E6F5FA"/>
<path d="M77.6719 47.1155L69.916 53.8876L77.6719 50.5018L92.815 58.6041L77.6719 47.1155Z" fill="#E6F5FA"/>
<path d="M69.8378 28.323L69.9165 53.8873L64.4013 58.6038L59.748 36.489L69.8378 28.323Z" fill="#BBE4F1"/>
<path d="M45.9668 31.01V33.7335L52.8575 43.4635L49.7633 34.5853L59.7482 36.4891L45.9668 31.01Z" fill="#BBE4F1"/>
<path d="M7.71015 40.3953L12.6406 58.6039H1.44238L7.71015 40.3953Z" fill="#BBE4F1"/>
<path d="M56.7454 58.6039L47.8961 41.0847L49.7627 49.4996L49.5183 54.4998L42.9629 55.9702L34.4727 58.6039H56.7454Z" fill="#BBE4F1"/>
<path d="M35.9033 13.701L43.8221 12.4756L37.2662 15.9079L28.5947 34.5854L35.9033 13.701Z" fill="#BBE4F1"/>
<path d="M48.1076 22.4029L58.8757 12.6596L43.8223 12.4756L48.1076 22.4029Z" fill="#E6F5FA"/>
<path d="M79.8284 12.6064C79.2962 12.6064 79.0301 12.2954 79.0301 11.6735C79.0301 10.9681 79.2449 10.0832 79.6745 9.01883C80.1041 7.95441 80.6812 6.86113 81.4058 5.739L82.6465 5.34466C82.2811 5.8961 81.9284 6.5277 81.5885 7.23945C81.2487 7.9512 80.9698 8.6886 80.7518 9.45165C80.5337 10.2147 80.4247 10.9264 80.4247 11.5869C80.4247 11.7729 80.4311 11.9203 80.444 12.0293C80.4632 12.1448 80.5017 12.2634 80.5594 12.3852C80.3221 12.5327 80.0785 12.6064 79.8284 12.6064ZM80.7998 6.14297C80.1714 6.14297 79.6681 6.11412 79.2898 6.05641C78.9179 5.99229 78.6454 5.8961 78.4722 5.76786C78.2991 5.6332 78.2125 5.45366 78.2125 5.22924C78.2125 5.12023 78.2286 5.01122 78.2606 4.90222C78.2927 4.7868 78.3312 4.68741 78.376 4.60405C78.8441 4.80283 79.3667 4.96954 79.9438 5.1042C80.5209 5.23244 81.0435 5.30939 81.5116 5.33504C81.6206 5.12985 81.752 4.96954 81.9059 4.85413C82.0662 4.73229 82.2362 4.67138 82.4157 4.67138C82.6273 4.67138 82.7876 4.72268 82.8966 4.82527C83.0056 4.92145 83.0601 5.06252 83.0601 5.24847C83.0601 5.56267 82.8774 5.7903 82.5119 5.93137C82.1464 6.07244 81.5757 6.14297 80.7998 6.14297ZM84.8533 12.9335C84.3082 12.9335 83.9075 12.8597 83.651 12.7122C83.3945 12.5648 83.2662 12.3403 83.2662 12.039C83.2662 11.8594 83.3432 11.7087 83.4971 11.5869C83.6574 11.4651 83.8465 11.4042 84.0646 11.4042C84.2569 11.4042 84.4429 11.4747 84.6224 11.6158C84.8084 11.7568 84.9623 11.946 85.0841 12.1832C85.456 12.1832 85.7958 12.1095 86.1036 11.962C86.4178 11.8145 86.6647 11.6158 86.8442 11.3657C87.0302 11.1092 87.1232 10.8335 87.1232 10.5385C87.1232 10.2948 87.059 10.0576 86.9308 9.82676C86.809 9.59592 86.6134 9.40676 86.3441 9.25928C86.0748 9.10539 85.7381 9.02845 85.3342 9.02845C85.1675 9.02845 84.9719 9.05089 84.7475 9.09577C84.6577 9.11501 84.5936 9.12463 84.5551 9.12463C84.4974 9.12463 84.4493 9.10219 84.4108 9.0573C84.3723 9.01242 84.3531 8.96112 84.3531 8.90341L84.9302 5.55626L85.9594 5.90251L85.5554 8.33593C86.094 8.33593 86.5749 8.4257 86.9981 8.60524C87.4277 8.78478 87.7612 9.03486 87.9984 9.35547C88.2421 9.67607 88.3639 10.0384 88.3639 10.4423C88.3639 10.9168 88.21 11.3432 87.9022 11.7216C87.6009 12.0999 87.1809 12.3948 86.6423 12.6064C86.11 12.8244 85.5137 12.9335 84.8533 12.9335ZM86.7288 6.19106C85.9465 6.19106 85.3694 6.11732 84.9975 5.96984C84.6256 5.82236 84.4397 5.59794 84.4397 5.29656C84.4397 5.1042 84.491 4.95993 84.5936 4.86374C84.7026 4.76115 84.8629 4.70985 85.0745 4.70985C85.254 4.70985 85.4175 4.77077 85.565 4.8926C85.7189 5.01443 85.8439 5.17473 85.9401 5.37351C86.2992 5.35427 86.7032 5.28053 87.152 5.15229C87.6073 5.01764 88.0497 4.85092 88.4793 4.65214C88.5242 4.71626 88.5563 4.80283 88.5755 4.91184C88.6012 5.01443 88.614 5.12344 88.614 5.23886C88.614 5.46328 88.5306 5.64603 88.3639 5.7871C88.2036 5.92816 87.9824 6.03076 87.7003 6.09488C87.4245 6.159 87.1007 6.19106 86.7288 6.19106Z" fill="black"/>
</svg>
