<svg width="95" height="61" viewBox="0 0 95 61" fill="none" xmlns="http://www.w3.org/2000/svg">
<path d="M93.623 0.75V59.96H0.75V0.75H93.623Z" fill="#D9D9D9" stroke="black" stroke-width="1.5"/>
<path d="M79.4752 12.9908C78.9301 12.9908 78.5294 12.9171 78.2729 12.7696C78.0164 12.6221 77.8881 12.3977 77.8881 12.0963C77.8881 11.9168 77.9651 11.7661 78.119 11.6443C78.2793 11.5224 78.4685 11.4615 78.6865 11.4615C78.8788 11.4615 79.0648 11.5321 79.2443 11.6731C79.4303 11.8142 79.5842 12.0034 79.706 12.2406C80.0779 12.2406 80.4177 12.1669 80.7255 12.0194C81.0397 11.8719 81.2866 11.6731 81.4661 11.4231C81.6521 11.1666 81.7451 10.8908 81.7451 10.5959C81.7451 10.3522 81.6809 10.115 81.5527 9.88413C81.4309 9.6533 81.2353 9.46414 80.966 9.31666C80.6967 9.16277 80.36 9.08582 79.9561 9.08582C79.7894 9.08582 79.5938 9.10826 79.3694 9.15315C79.2796 9.17238 79.2155 9.182 79.177 9.182C79.1193 9.182 79.0712 9.15956 79.0327 9.11467C78.9942 9.06979 78.975 9.01849 78.975 8.96078L79.5521 5.61363L80.5813 5.95989L80.1773 8.39331C80.7159 8.39331 81.1968 8.48308 81.62 8.66262C82.0496 8.84216 82.3831 9.09223 82.6203 9.41284C82.864 9.73345 82.9858 10.0957 82.9858 10.4997C82.9858 10.9742 82.8319 11.4006 82.5241 11.7789C82.2228 12.1572 81.8028 12.4522 81.2642 12.6638C80.7319 12.8818 80.1356 12.9908 79.4752 12.9908ZM81.3507 6.24844C80.5684 6.24844 79.9913 6.1747 79.6194 6.02722C79.2475 5.87974 79.0616 5.65531 79.0616 5.35394C79.0616 5.16157 79.1129 5.0173 79.2155 4.92112C79.3245 4.81852 79.4848 4.76722 79.6964 4.76722C79.8759 4.76722 80.0394 4.82814 80.1869 4.94997C80.3408 5.0718 80.4658 5.23211 80.562 5.43088C80.9211 5.41165 81.3251 5.33791 81.7739 5.20966C82.2292 5.07501 82.6716 4.90829 83.1012 4.70952C83.1461 4.77364 83.1782 4.8602 83.1974 4.96921C83.2231 5.0718 83.2359 5.18081 83.2359 5.29623C83.2359 5.52065 83.1525 5.7034 82.9858 5.84447C82.8255 5.98554 82.6043 6.08813 82.3222 6.15225C82.0464 6.21637 81.7226 6.24844 81.3507 6.24844ZM85.8246 11.7405C85.6001 11.7405 85.4302 11.6571 85.3148 11.4904C85.1994 11.3173 85.1417 11.0672 85.1417 10.7402C85.1417 10.2079 85.193 9.6052 85.2956 8.93193C85.3981 8.25224 85.5649 7.41224 85.7957 6.41195C85.4687 6.41195 85.1994 6.34782 84.9878 6.21958C84.7826 6.09134 84.6575 5.9118 84.6127 5.68096C84.9204 5.59119 85.1833 5.49821 85.4014 5.40203C85.6258 5.30585 85.8694 5.18722 86.1323 5.04615C86.3183 4.94356 86.4658 4.87303 86.5748 4.83455C86.6838 4.78967 86.7896 4.76722 86.8922 4.76722C87.1487 4.76722 87.2769 4.9147 87.2769 5.20966C87.2769 5.30585 87.2513 5.48218 87.2 5.73867C87.1487 5.98874 87.0878 6.26126 87.0172 6.55622C86.8184 7.40904 86.6581 8.15926 86.5363 8.80689C86.4209 9.45452 86.3632 10.0637 86.3632 10.6344C86.3632 10.9806 86.4177 11.282 86.5267 11.5385C86.2766 11.6731 86.0426 11.7405 85.8246 11.7405Z" fill="black"/>
</svg>
