<svg width="95" height="187" viewBox="0 0 95 187" fill="none" xmlns="http://www.w3.org/2000/svg">
<path d="M93.623 0.75V59.96H0.75V0.75H93.623Z" fill="#D9D9D9" stroke="black" stroke-width="1.5"/>
<path d="M78.74 14.9908C78.195 14.9908 77.7942 14.9171 77.5377 14.7696C77.2812 14.6221 77.153 14.3977 77.153 14.0963C77.153 13.9168 77.2299 13.7661 77.3838 13.6443C77.5441 13.5224 77.7333 13.4615 77.9513 13.4615C78.1437 13.4615 78.3296 13.5321 78.5092 13.6731C78.6951 13.8142 78.849 14.0034 78.9709 14.2406C79.3428 14.2406 79.6826 14.1669 79.9904 14.0194C80.3046 13.8719 80.5515 13.6731 80.731 13.4231C80.9169 13.1666 81.0099 12.8908 81.0099 12.5959C81.0099 12.3522 80.9458 12.115 80.8176 11.8841C80.6957 11.6533 80.5002 11.4641 80.2308 11.3167C79.9615 11.1628 79.6249 11.0858 79.2209 11.0858C79.0542 11.0858 78.8586 11.1083 78.6342 11.1531C78.5444 11.1724 78.4803 11.182 78.4418 11.182C78.3841 11.182 78.336 11.1596 78.2976 11.1147C78.2591 11.0698 78.2399 11.0185 78.2399 10.9608L78.817 7.61363L79.8461 7.95989L79.4421 10.3933C79.9808 10.3933 80.4617 10.4831 80.8849 10.6626C81.3145 10.8422 81.6479 11.0922 81.8852 11.4128C82.1288 11.7334 82.2507 12.0957 82.2507 12.4997C82.2507 12.9742 82.0968 13.4006 81.789 13.7789C81.4876 14.1572 81.0676 14.4522 80.529 14.6638C79.9968 14.8818 79.4005 14.9908 78.74 14.9908ZM80.6156 8.24844C79.8333 8.24844 79.2562 8.1747 78.8843 8.02722C78.5124 7.87974 78.3264 7.65531 78.3264 7.35394C78.3264 7.16157 78.3777 7.0173 78.4803 6.92112C78.5893 6.81852 78.7496 6.76722 78.9612 6.76722C79.1408 6.76722 79.3043 6.82814 79.4518 6.94997C79.6057 7.0718 79.7307 7.23211 79.8269 7.43088C80.186 7.41165 80.5899 7.33791 81.0388 7.20966C81.494 7.07501 81.9365 6.90829 82.3661 6.70952C82.411 6.77364 82.443 6.8602 82.4623 6.96921C82.4879 7.0718 82.5008 7.18081 82.5008 7.29623C82.5008 7.52065 82.4174 7.7034 82.2507 7.84447C82.0904 7.98554 81.8692 8.08813 81.587 8.15225C81.3113 8.21637 80.9875 8.24844 80.6156 8.24844ZM85.9839 13.7405C85.2914 13.7405 84.7335 13.516 84.3103 13.0672C83.8935 12.6119 83.6851 11.9547 83.6851 11.0954C83.6851 10.1657 83.9128 9.27438 84.368 8.42156C84.8297 7.56233 85.3908 6.86982 86.0512 6.34402C86.7181 5.81181 87.3208 5.54571 87.8595 5.54571C88.0775 5.54571 88.2474 5.58739 88.3692 5.67074C88.4975 5.74769 88.6065 5.89196 88.6963 6.10357C88.2282 6.27669 87.7825 6.4915 87.3593 6.74799C86.9425 7.00447 86.5257 7.36997 86.1089 7.84447C85.6986 8.31897 85.3459 8.92171 85.0509 9.6527H85.1086C85.378 9.29362 85.6633 9.04354 85.9647 8.90248C86.266 8.755 86.5867 8.68126 86.9265 8.68126C87.3497 8.68126 87.712 8.77744 88.0134 8.9698C88.3211 9.16217 88.552 9.42507 88.7059 9.7585C88.8662 10.0919 88.9463 10.4735 88.9463 10.9031C88.9463 11.4289 88.8085 11.9098 88.5327 12.3458C88.2634 12.7818 87.9011 13.1249 87.4459 13.375C86.9906 13.6186 86.5033 13.7405 85.9839 13.7405ZM86.1282 12.9902C86.3654 12.9902 86.6059 12.9101 86.8496 12.7498C87.0932 12.5895 87.2984 12.3522 87.4651 12.038C87.6318 11.7174 87.7152 11.3359 87.7152 10.8935C87.7152 10.4831 87.6126 10.14 87.4074 9.8643C87.2022 9.58217 86.8624 9.4411 86.3879 9.4411C86.1699 9.4411 85.9454 9.51804 85.7146 9.67194C85.4838 9.82583 85.2914 10.0503 85.1375 10.3452C84.9836 10.6402 84.9067 10.9928 84.9067 11.4032C84.9067 11.8521 85.0028 12.2304 85.1952 12.5382C85.3876 12.8395 85.6986 12.9902 86.1282 12.9902Z" fill="black"/>
<g filter="url(#filter0_d_136_3238)">
<path d="M8.92799 146.304C-13.5997 122.922 41.8178 114.24 49.7125 100.534C56.1349 89.3385 29.3067 81.9239 27.8034 70.4177C27.444 64.0214 36.8675 61.1887 39.8422 57.2823C44.2681 51.4644 41.0244 45.0309 30.1113 40.5C44.9527 41.1619 53.5359 44.1517 55.8352 49.4466C58.5852 55.7643 53.7781 61.0129 51.0022 65.3546C43.7267 76.7079 85.6995 87.0849 85.9855 100.97C86.176 110.116 70.8758 111.643 68.3558 124.607C67.5169 131.942 85.9562 141.653 88.8326 150.282C91.7089 158.911 87.5722 180.105 87.5722 180.105H3.5C3.5 180.105 20.4622 172.429 20.5967 162.973C20.7096 155.025 11.8579 149.16 8.92799 146.304Z" fill="url(#paint0_linear_136_3238)"/>
<path d="M15.8531 148.453C-6.67462 125.071 49.1677 116.389 57.0624 102.684M47.1921 59.4315C51.6181 53.6136 48.3744 47.1801 37.4612 42.6492" stroke="#9CECFD" stroke-width="0.657197"/>
<path d="M35.1225 148.934C12.5948 125.552 47.038 122.021 60.168 109.742" stroke="#9CECFD" stroke-width="0.657197"/>
<path d="M68.1259 102.683C74.5483 91.4874 47.7201 84.0728 46.2168 72.5667" stroke="#9CECFD" stroke-width="0.821496"/>
<path d="M55.2436 141.316C41.2929 125.091 85.607 103.165 77.8108 96.1484" stroke="#9CECFD" stroke-width="0.821496"/>
<path d="M51.2705 50.7188C54.0205 57.0364 49.2134 62.285 46.4375 66.6267M63.7911 125.879C62.2408 133.886 68.2734 141.12 81.8975 147.576" stroke="#9CECFD" stroke-width="0.821496"/>
<path d="M51.2705 50.7188C54.0205 57.0364 49.2134 62.285 46.4375 66.6267M63.7911 125.879C62.2408 133.886 68.2734 141.12 81.8975 147.576" stroke="#9CECFD" stroke-width="0.821496"/>
<path d="M41.2942 62.3823C33.7833 68.1049 32.6775 68.9601 45.3974 79.4845" stroke="#9CECFD" stroke-width="0.821496"/>
<path d="M21.5173 143.635C21.5173 143.635 33.5836 152.54 33.4756 160.67C33.3507 170.082 16.918 178.167 16.918 178.167" stroke="#9CECFD" stroke-width="0.653802" stroke-linecap="round"/>
<path d="M42.2136 140.873C42.2136 140.873 54.2799 149.778 54.1719 157.908C54.047 167.319 37.6143 175.404 37.6143 175.404" stroke="#9CECFD" stroke-width="0.653802" stroke-linecap="round"/>
<path d="M68.8907 159.75C68.7658 169.161 52.333 177.246 52.333 177.246" stroke="#9CECFD" stroke-width="0.653802" stroke-linecap="round"/>
<path d="M65.21 143.635C65.21 143.635 77.2762 152.54 77.1683 160.67" stroke="#9CECFD" stroke-width="0.653802" stroke-linecap="round"/>
</g>
<defs>
<filter id="filter0_d_136_3238" x="0.0835927" y="40.5" width="93.1824" height="146.438" filterUnits="userSpaceOnUse" color-interpolation-filters="sRGB">
<feFlood flood-opacity="0" result="BackgroundImageFix"/>
<feColorMatrix in="SourceAlpha" type="matrix" values="0 0 0 0 0 0 0 0 0 0 0 0 0 0 0 0 0 0 127 0" result="hardAlpha"/>
<feOffset dy="3.41641"/>
<feGaussianBlur stdDeviation="1.7082"/>
<feComposite in2="hardAlpha" operator="out"/>
<feColorMatrix type="matrix" values="0 0 0 0 0 0 0 0 0 0 0 0 0 0 0 0 0 0 0.25 0"/>
<feBlend mode="normal" in2="BackgroundImageFix" result="effect1_dropShadow_136_3238"/>
<feBlend mode="normal" in="SourceGraphic" in2="effect1_dropShadow_136_3238" result="shape"/>
</filter>
<linearGradient id="paint0_linear_136_3238" x1="46.6749" y1="40.5" x2="46.6749" y2="180.105" gradientUnits="userSpaceOnUse">
<stop stop-color="#10A2EA"/>
<stop offset="1" stop-color="#40DBEE"/>
</linearGradient>
</defs>
</svg>
