<svg width="95" height="61" viewBox="0 0 95 61" fill="none" xmlns="http://www.w3.org/2000/svg">
<path d="M93.623 0.75V59.96H0.75V0.75H93.623Z" fill="#D9D9D9" stroke="black" stroke-width="1.5"/>
<path d="M28.6667 50.4775C26.6696 50.2597 24.7293 49.5588 23.1015 48.3398C19.1859 45.3931 17.1927 41.267 17.0384 37.3108C16.8397 32.3035 19.5833 27.5913 25.0236 25.8493C34.8389 21.9183 42.7622 17.7625 51.19 13.2619C55.8422 9.3649 57.2847 9.84582 57.2847 9.84582C66.1848 7.46919 77.2341 19.3822 71.8692 28.6511C71.5805 29.1584 71.4047 29.6615 71.0509 30.1723C71.0473 30.1754 71.0473 30.1754 71.0437 30.1784C65.1364 41.6357 43.9763 52.6967 28.6667 50.4775Z" fill="white"/>
<path d="M29.9671 49.0461C28.1457 48.852 26.3774 48.2157 24.8956 47.1043C21.3312 44.4178 19.5237 40.6467 19.3935 37.0263C19.2255 32.4439 21.7411 28.1239 26.709 26.5151C35.3294 24.2313 43.4311 20.7727 50.8422 15.6469C54.7625 12.1268 56.0659 11.9905 56.0659 11.9905C64.1918 9.79171 74.4923 20.4501 69.5732 28.9476C69.3086 29.4127 69.0126 29.8808 68.6885 30.3493C68.6852 30.3521 68.6852 30.3521 68.6819 30.3549C62.0422 40.0092 43.7703 50.5031 29.9671 49.0461Z" fill="#FAA530"/>
<path d="M29.9671 49.0461C28.1457 48.852 26.3774 48.2157 24.8956 47.1043C21.3312 44.4178 19.5237 40.6467 19.3935 37.0263C19.3935 37.0263 21.4219 30.9852 26.3752 29.0259C31.2912 27.0847 38.6758 26.9804 48.0151 20.0593C48.0151 20.0593 50.0559 18.9914 52.116 16.7297C54.1707 14.4815 58.5748 11.151 64.0531 15.8377C69.5179 20.5174 51.8511 26.4213 51.8511 26.4213C51.8511 26.4213 33.1099 35.4865 32.7587 35.7729C32.4037 36.0625 28.3922 40.4587 28.3922 40.4587C28.3922 40.4587 24.7764 45.8198 34.7547 47.0151C44.6237 48.194 59.6574 40.0337 68.6819 30.3549C62.0422 40.0092 43.7703 50.5031 29.9671 49.0461Z" fill="#EF6F2E"/>
<path d="M32.7105 45.6778C21.0179 46.4723 19.0935 31.9177 29.5336 29.4411C37.8584 27.5788 45.8791 25.0526 52.6093 18.4776C52.8501 18.2406 53.0773 17.9799 53.2948 17.7212C56.5963 13.8682 61.0132 13.8116 64.0477 15.8311C64.0505 15.8346 64.0503 15.8343 64.0531 15.8377C67.6714 18.2563 69.3573 23.6549 64.7878 29.219C54.6208 39.8333 42.0302 44.5893 32.7105 45.6778Z" fill="#EF1624"/>
<path d="M26.4181 44.8493C26.0799 44.6495 25.7569 44.4285 25.4497 44.1861C23.7465 42.8425 22.6281 40.9128 22.3006 38.7525C21.7283 34.9785 23.7112 30.3 29.4172 28.9462C38.5638 26.8988 45.9439 24.274 52.2523 18.1138C52.4843 17.8873 52.7007 17.6346 52.91 17.3901C56.7029 12.9604 61.8921 13.3306 65.0575 15.9858C66.8182 17.4626 67.8744 19.5313 68.0315 21.8106C68.2089 24.3856 67.224 27.0595 65.1833 29.5435C65.1751 29.5534 65.1665 29.5631 65.1575 29.5725C60.4111 34.5268 54.8569 38.5333 48.6493 41.4806C42.0747 44.6022 36.3848 45.7598 32.7693 46.1811C32.7611 46.1821 32.753 46.1828 32.7449 46.1834C30.3392 46.3473 28.1764 45.8879 26.4181 44.8493ZM63.4143 16.0684C60.6206 14.4181 56.6737 14.5624 53.6846 18.0534C53.4712 18.3026 53.2293 18.5851 52.9648 18.8434C46.4844 25.1715 38.9561 27.856 29.6463 29.9398C24.5743 31.1433 22.8043 35.2728 23.3088 38.5997C23.8466 42.1465 26.948 45.551 32.6635 45.1669C44.039 43.8377 55.904 37.7504 64.4077 28.8812C68.4708 23.9239 67.3339 19.226 64.4022 16.7671C64.0938 16.5084 63.7628 16.2742 63.4143 16.0684Z" fill="#4C0016"/>
<path d="M25.5074 48.1236C25.19 47.9361 24.8844 47.732 24.5919 47.5118C20.3652 44.3295 18.2343 39.3992 19.0307 34.6449C19.3581 32.691 20.1821 30.8843 21.4136 29.42C22.7375 27.8461 24.4666 26.7052 26.5527 26.0291C26.5615 26.0263 26.5704 26.0236 26.5794 26.0213C35.6945 23.6085 43.5278 20.0833 50.5247 15.2455C54.1437 12.0028 55.6026 11.5532 55.9597 11.4917C58.1174 10.9152 60.5052 11.1623 62.8675 12.2067C65.0633 13.1777 67.1119 14.8043 68.6355 16.7871C71.6946 20.7683 72.2095 25.4099 70.0127 29.2034C67.1127 34.2547 60.8589 39.7025 53.2846 43.7747C49.4495 45.8366 45.404 47.4539 41.5854 48.4519C37.3664 49.5544 33.4404 49.925 29.9165 49.5534C28.3173 49.3847 26.813 48.8948 25.5074 48.1236ZM25.2053 46.6972C26.5533 47.7119 28.2192 48.349 30.0235 48.5393C36.5295 49.2254 44.8319 47.1615 52.8018 42.8765C60.2154 38.8907 66.3192 33.5888 69.1293 28.6941C71.1128 25.2689 70.6255 21.0506 67.8269 17.4084C64.8033 13.4735 60.0214 11.4483 56.1979 12.4836C56.1622 12.4933 56.1586 12.4969 56.1276 12.4982C55.9983 12.5297 54.6459 12.9183 51.1817 16.0261C51.1658 16.0404 51.149 16.0536 51.1314 16.0658C44.0323 20.9791 36.091 24.5569 26.8539 27.0034C23.1506 28.2083 20.6662 31.0542 20.0365 34.8134C19.3031 39.191 21.2837 43.7445 25.2053 46.6972Z" fill="#4C0016"/>
<path d="M48.7697 43.0481C42.9515 45.539 38.3927 46.7479 34.7547 47.0151C27.9106 47.5218 24.4221 44.7 21.8847 40.9617C24.2648 43.7466 25.9724 41.8151 28.3886 40.4618C28.3921 40.4589 28.3922 40.4587 28.3922 40.4587C29.2445 39.9846 30.186 39.5815 31.2771 39.4813C40.1813 39.1139 48.5908 36.8454 56.0649 30.7018C60.5001 27.2102 61.5012 23.7936 65.3015 22.4226C68.8988 21.1271 68.4418 19.0308 68.3931 18.8326C71.6433 26.93 63.8318 34.9385 48.7697 43.0481Z" fill="#FAA530"/>
<path d="M30.8692 41.1785C30.8692 41.1785 33.4531 41.2372 39.6374 39.7707C45.761 38.3186 48.806 38.1855 57.6754 30.9638C57.6754 30.9638 60.8656 27.7586 62.2013 26.2457C54.5029 37.545 44.2173 42.9976 30.8692 41.1785Z" fill="white"/>
<path d="M34.7547 47.0151C27.9106 47.5218 24.4221 44.7 21.8847 40.9617C24.2648 43.7466 25.9724 41.8151 28.3886 40.4618C28.2705 40.6485 24.9554 45.8425 34.7547 47.0151Z" fill="#EF6F2E"/>
<path d="M68.6929 18.7238C68.9362 19.5381 68.6651 20.4269 68.1545 21.0785L68.0055 21.2702C67.9227 21.3577 67.7554 21.5266 67.671 21.612C67.3754 21.8688 67.0597 22.0942 66.7263 22.2965C66.5571 22.3832 66.2766 22.5385 66.1168 22.6123C65.7538 22.7666 65.2942 22.9618 64.9318 23.116L64.8389 23.1552L64.75 23.2025C64.5996 23.2855 64.3552 23.4088 64.2194 23.4904C64.1245 23.5529 63.8137 23.7518 63.7112 23.8178L63.3888 24.0639C61.822 25.2979 60.716 26.928 59.3362 28.382C57.7634 30.1015 55.9238 31.5644 54.0225 32.9028C47.5936 37.4281 39.7562 39.6592 31.9494 39.9633L31.5196 39.9848L31.3055 39.9958L31.1185 40.0192C30.0415 40.1497 29.0703 40.6209 28.1321 41.1704C26.6335 42.0487 24.7714 43.4809 23.0124 42.3919C22.4562 42.0663 22.0265 41.6223 21.6604 41.1551L22.1093 40.7712C22.4876 41.1713 22.9003 41.5354 23.3553 41.7572C25.6142 42.9362 27.6891 39.134 31.4507 38.9529C40.6897 38.5293 48.9765 36.0218 56.1113 29.9749C56.9817 29.2609 57.7873 28.4866 58.5526 27.6568C59.713 26.4126 60.7928 24.9963 62.0666 23.8251L62.4077 23.5308C62.4653 23.4825 62.52 23.4315 62.5799 23.3854C62.7451 23.2617 62.9701 23.0929 63.1254 22.9772C63.3166 22.8601 63.6955 22.6023 63.9065 22.5045L64.3141 22.2974L64.4163 22.2463C64.7565 22.1087 65.192 21.9348 65.535 21.8063C66.4729 21.4407 67.4696 20.8662 67.9124 19.9402C68.0476 19.6297 68.1277 19.2789 68.0858 18.9398L68.0835 18.9203L68.083 18.9115L68.6929 18.7238Z" fill="#4C0016"/>
<path d="M56.1693 24.0868C54.4247 22.3276 51.6923 20.7004 51.4977 20.7361C51.2903 20.774 53.4618 22.8563 55.039 24.7493C56.3495 26.3222 57.0112 27.7809 57.7434 27.6769C58.5298 27.5652 57.8283 25.7597 56.1693 24.0868Z" fill="url(#paint0_linear_126_1774)" fill-opacity="0.5"/>
<path d="M44.7089 30.9907C42.9642 29.2314 40.2319 27.6043 40.0373 27.6399C39.8299 27.6779 42.0014 29.7601 43.5786 31.6532C44.8891 33.2261 45.5508 34.6848 46.283 34.5808C47.0694 34.469 46.3678 32.6635 44.7089 30.9907Z" fill="url(#paint1_linear_126_1774)" fill-opacity="0.5"/>
<path d="M49.5773 26.5558C51.0997 28.5105 52.3651 31.428 52.305 31.6165C52.2409 31.8174 50.4525 29.3981 48.7761 27.5923C47.3832 26.092 46.0207 25.2496 46.2173 24.5367C46.4284 23.771 48.1297 24.697 49.5773 26.5558Z" fill="url(#paint2_linear_126_1774)" fill-opacity="0.5"/>
<path d="M37.5273 32.4436C39.0497 34.3984 40.315 37.3159 40.2549 37.5044C40.1908 37.7053 38.4025 35.286 36.726 33.4802C35.3331 31.9799 33.9707 31.1375 34.1672 30.4246C34.3784 29.6589 36.0796 30.5849 37.5273 32.4436Z" fill="url(#paint3_linear_126_1774)" fill-opacity="0.5"/>
<path d="M79.5543 11.7405C78.8618 11.7405 78.3039 11.516 77.8807 11.0672C77.4639 10.6119 77.2555 9.95467 77.2555 9.09544C77.2555 8.16567 77.4832 7.27438 77.9384 6.42156C78.4001 5.56233 78.9612 4.86982 79.6216 4.34402C80.2885 3.81181 80.8912 3.54571 81.4299 3.54571C81.6479 3.54571 81.8178 3.58739 81.9396 3.67074C82.0679 3.74769 82.1769 3.89196 82.2666 4.10357C81.7986 4.27669 81.3529 4.4915 80.9297 4.74799C80.5129 5.00447 80.0961 5.36997 79.6793 5.84447C79.269 6.31897 78.9163 6.92171 78.6213 7.6527H78.679C78.9483 7.29362 79.2337 7.04354 79.5351 6.90248C79.8364 6.755 80.157 6.68126 80.4969 6.68126C80.9201 6.68126 81.2824 6.77744 81.5838 6.9698C81.8915 7.16217 82.1224 7.42507 82.2763 7.7585C82.4366 8.09193 82.5167 8.47346 82.5167 8.90307C82.5167 9.42887 82.3789 9.90978 82.1031 10.3458C81.8338 10.7818 81.4715 11.1249 81.0163 11.375C80.561 11.6186 80.0737 11.7405 79.5543 11.7405ZM79.6986 10.9902C79.9358 10.9902 80.1763 10.9101 80.4199 10.7498C80.6636 10.5895 80.8688 10.3522 81.0355 10.038C81.2022 9.71742 81.2856 9.33589 81.2856 8.89345C81.2856 8.48308 81.183 8.14002 80.9778 7.8643C80.7726 7.58217 80.4328 7.4411 79.9583 7.4411C79.7403 7.4411 79.5158 7.51804 79.285 7.67194C79.0542 7.82583 78.8618 8.05025 78.7079 8.34521C78.554 8.64017 78.4771 8.99284 78.4771 9.40322C78.4771 9.85207 78.5732 10.2304 78.7656 10.5382C78.958 10.8395 79.269 10.9902 79.6986 10.9902ZM86.3936 11.7405C85.8871 11.7405 85.4446 11.6186 85.0663 11.375C84.688 11.1313 84.3962 10.785 84.191 10.3362C83.9923 9.88734 83.8929 9.36154 83.8929 8.7588C83.8929 7.9701 84.0468 7.27438 84.3546 6.67164C84.6623 6.06889 85.0952 5.60081 85.653 5.26737C86.2109 4.93394 86.8489 4.76722 87.5671 4.76722C87.6825 4.76722 87.8171 4.78326 87.971 4.81532C88.1249 4.84096 88.2499 4.87303 88.3461 4.9115C88.391 4.9628 88.4231 5.11669 88.4423 5.37317C88.8463 5.48218 89.1541 5.74187 89.3657 6.15225C89.5773 6.55622 89.6831 7.08522 89.6831 7.73926C89.6831 8.48308 89.5356 9.15956 89.2406 9.76871C88.9521 10.3779 88.5577 10.8588 88.0576 11.2115C87.5574 11.5641 87.0028 11.7405 86.3936 11.7405ZM86.4802 11.0095C86.8585 11.0095 87.1984 10.8748 87.4997 10.6055C87.8011 10.3362 88.0351 9.96108 88.2019 9.48017C88.375 8.99925 88.4616 8.45422 88.4616 7.84506C88.4616 7.1269 88.3269 6.59149 88.0576 6.23882C87.7947 5.88615 87.3843 5.70981 86.8264 5.70981C86.6148 5.70981 86.3552 5.76111 86.0474 5.86371C85.746 6.29973 85.5152 6.78385 85.3549 7.31606C85.1946 7.84186 85.1144 8.36445 85.1144 8.88384C85.1144 9.53788 85.2362 10.0573 85.4799 10.442C85.73 10.8203 86.0634 11.0095 86.4802 11.0095Z" fill="black"/>
<defs>
<linearGradient id="paint0_linear_126_1774" x1="17.0283" y1="30.1512" x2="73.2792" y2="30.1512" gradientUnits="userSpaceOnUse">
<stop stop-color="#7C0000"/>
<stop offset="1"/>
</linearGradient>
<linearGradient id="paint1_linear_126_1774" x1="17.0283" y1="30.1512" x2="73.2792" y2="30.1512" gradientUnits="userSpaceOnUse">
<stop stop-color="#7C0000"/>
<stop offset="1"/>
</linearGradient>
<linearGradient id="paint2_linear_126_1774" x1="38.9446" y1="38.0742" x2="35.3719" y2="29.7559" gradientUnits="userSpaceOnUse">
<stop stop-color="#7C0000"/>
<stop offset="1"/>
</linearGradient>
<linearGradient id="paint3_linear_126_1774" x1="38.9446" y1="38.0742" x2="35.3719" y2="29.7559" gradientUnits="userSpaceOnUse">
<stop stop-color="#7C0000"/>
<stop offset="1"/>
</linearGradient>
</defs>
</svg>
