<svg width="95" height="61" viewBox="0 0 95 61" fill="none" xmlns="http://www.w3.org/2000/svg">
<path d="M93.623 0.75V59.96H0.75V0.75H93.623Z" fill="#FFC270" stroke="black" stroke-width="1.5"/>
<path d="M14.1855 17.1599L12.6123 22.5242L73.8774 40.4921L75.4506 35.1278L14.1855 17.1599Z" fill="white"/>
<path d="M75.4512 35.1282L76.7043 36.3579L76.9784 36.6248L79.971 39.5608L75.9358 40.1794L73.8779 40.4924L75.4512 35.1282Z" fill="white"/>
<path opacity="0.15" d="M12.9647 21.3227L76.0401 39.8215L75.9353 40.179L73.8774 40.4921L12.6123 22.5242L12.9647 21.3227Z" fill="white"/>
<path opacity="0.1" d="M13.953 17.954L76.704 36.3577L76.9781 36.6245L76.7893 37.2681L13.7139 18.7693L13.953 17.954Z" fill="white"/>
<path d="M75.7342 40.2081L74.7082 37.6608L74.9442 36.8563L76.3222 35.9819L79.9709 39.5603L75.7342 40.2081Z" fill="white"/>
<path d="M12.3195 10.9166L7.66992 26.7703L8.48491 27.0093L13.1345 11.1556L12.3195 10.9166Z" fill="white"/>
<path d="M13.1348 11.1533C13.1348 11.1533 12.827 12.2242 12.7302 13.466C12.6072 14.9794 12.7868 16.7486 14.1858 17.1589L12.6126 22.5231C11.2135 22.1128 10.1069 23.5048 9.39287 24.8451C8.80373 25.9422 8.48438 27.01 8.48438 27.01L13.1348 11.1533Z" fill="white"/>
<path opacity="0.1" d="M12.9047 11.9401C12.9047 11.9401 11.4048 17.1937 13.9569 17.9422L13.7167 18.7612C11.1646 18.0128 12.6645 12.7591 12.6645 12.7591L12.9047 11.9401Z" fill="white"/>
<path opacity="0.15" d="M12.962 21.332L12.6127 22.5229C10.0606 21.7745 8.48438 27.0095 8.48438 27.0095L8.83468 25.8151C8.83468 25.8151 10.4099 20.5836 12.962 21.332Z" fill="white"/>
<path opacity="0.1" d="M12.2492 10.8959L7.59961 26.7495L8.03292 26.8766L12.6825 11.0229L12.2492 10.8959Z" fill="white"/>
<path opacity="0.15" d="M13.1348 11.1531C13.1348 11.1531 12.8269 12.224 12.73 13.4657L9.39282 24.8446C8.80374 25.9417 8.48438 27.0095 8.48438 27.0095L13.1348 11.1531Z" fill="white"/>
<path d="M25.9372 9.17899L22.8594 13.4875L74.5956 50.4456L77.6735 46.1371L25.9372 9.17899Z" fill="white"/>
<path d="M77.6745 46.1368L78.4738 47.6709L78.6493 48.0045L80.5584 51.6674L76.6097 50.8596L74.5967 50.4453L77.6745 46.1368Z" fill="white"/>
<path opacity="0.15" d="M23.5487 12.5225L76.8138 50.5727L76.6087 50.8599L74.5956 50.4456L22.8594 13.4875L23.5487 12.5225Z" fill="white"/>
<path opacity="0.1" d="M25.4815 9.81658L78.4726 47.6711L78.648 48.0047L78.2787 48.5216L25.0137 10.4714L25.4815 9.81658Z" fill="white"/>
<path d="M76.412 50.8174L76.22 48.1711L76.6816 47.525L78.2293 47.2024L80.5573 51.6672L76.412 50.8174Z" fill="white"/>
<path d="M25.6847 3.37267L16.9824 15.5547L17.9715 16.2612L26.6738 4.07919L25.6847 3.37267Z" fill="white"/>
<path d="M26.7602 3.40237C26.7602 3.40237 26.1515 4.26462 25.6884 5.35251C25.1193 6.67671 24.7555 8.33419 25.9369 9.17816L22.8591 13.4867C21.6776 12.6427 20.2277 13.5243 19.1594 14.4922C18.2806 15.2829 17.6621 16.1384 17.6621 16.1384L26.7602 3.40237Z" fill="white"/>
<path opacity="0.1" d="M26.3081 4.03461C26.3081 4.03461 23.3318 8.26817 25.487 9.80769L25.017 10.4656C22.8619 8.92605 25.8381 4.69249 25.8381 4.69249L26.3081 4.03461Z" fill="white"/>
<path opacity="0.15" d="M23.5424 12.5307L22.8591 13.4873C20.704 11.9477 17.6621 16.1387 17.6621 16.1387L18.3474 15.1793C18.3474 15.1793 21.3873 10.9912 23.5424 12.5307Z" fill="white"/>
<path opacity="0.1" d="M26.0524 2.89895L16.9561 15.6326L17.2818 15.8653L26.3781 3.13164L26.0524 2.89895Z" fill="white"/>
<path opacity="0.15" d="M26.7601 3.4028C26.7601 3.4028 26.1514 4.26504 25.6882 5.35293L19.1594 14.4925C18.2806 15.2831 17.6621 16.1387 17.6621 16.1387L26.7601 3.4028Z" fill="white"/>
<path d="M14.0819 17.6355L12.8301 21.9038L73.0118 39.554L74.2636 35.2857L14.0819 17.6355Z" fill="#DC795E"/>
<path d="M74.2635 35.2857L75.538 36.3455L75.8166 36.5756L78.86 39.106L74.987 39.404L73.0117 39.554L74.2635 35.2857Z" fill="#DC795E"/>
<path opacity="0.15" d="M13.1105 20.9478L75.0705 39.1195L74.9871 39.404L73.0118 39.554L12.8301 21.9038L13.1105 20.9478Z" fill="#6E3025"/>
<path opacity="0.1" d="M13.8963 18.2678L75.5377 36.346L75.8163 36.5761L75.6661 37.0882L13.7061 18.9165L13.8963 18.2678Z" fill="white"/>
<path d="M74.7933 39.4174L73.6722 37.3012L73.8599 36.661L75.1491 36.0218L78.8597 39.1059L74.7933 39.4174Z" fill="#E49470"/>
<path d="M12.0688 12.5143L8.36914 25.1289L9.06274 25.3323L12.7624 12.7177L12.0688 12.5143Z" fill="#F8B88E"/>
<path d="M12.7628 12.7157C12.7628 12.7157 12.5189 13.5681 12.4879 14.5697C12.4452 15.79 12.7081 17.233 14.0823 17.636L12.8305 21.9043C11.4562 21.5013 10.4557 22.5737 9.8324 23.624C9.31768 24.4834 9.0625 25.3328 9.0625 25.3328L12.7628 12.7157Z" fill="#E49470"/>
<path opacity="0.1" d="M12.5786 13.3421C12.5786 13.3421 11.3922 17.5244 13.8991 18.2596L13.708 18.9114C11.2011 18.1761 12.3875 13.9938 12.3875 13.9938L12.5786 13.3421Z" fill="white"/>
<path opacity="0.15" d="M13.1086 20.957L12.8307 21.9046C10.3237 21.1693 9.0625 25.3328 9.0625 25.3328L9.34124 24.3824C9.34124 24.3824 10.6017 20.2217 13.1086 20.957Z" fill="#6E3025"/>
<path opacity="0.1" d="M12.0688 12.5143L8.36914 25.1289L8.61809 25.2019L12.3177 12.5873L12.0688 12.5143Z" fill="white"/>
<path opacity="0.15" d="M12.7628 12.7159C12.7628 12.7159 12.5189 13.5683 12.4878 14.5699L9.8324 23.624C9.31768 24.4834 9.0625 25.3328 9.0625 25.3328L12.7628 12.7159Z" fill="#6E3025"/>
<path d="M25.8024 9.53951L23.2168 13.1589L74.2497 49.6145L76.8352 45.9951L25.8024 9.53951Z" fill="#DC795E"/>
<path d="M76.8356 45.9953L77.6907 47.4152L77.8782 47.7241L79.9204 51.1145L76.1648 50.1226L74.25 49.6147L76.8356 45.9953Z" fill="#DC795E"/>
<path opacity="0.15" d="M23.7959 12.3483L76.3368 49.8811L76.1645 50.1223L74.2496 49.6145L23.2168 13.1589L23.7959 12.3483Z" fill="#6E3025"/>
<path opacity="0.1" d="M25.4193 10.0759L77.69 47.4157L77.8775 47.7246L77.5672 48.1588L25.0264 10.626L25.4193 10.0759Z" fill="white"/>
<path d="M75.9772 50.0721L75.6142 47.7049L76.002 47.1621L77.4297 46.9823L79.92 51.115L75.9772 50.0721Z" fill="#E49470"/>
<path d="M25.5867 4.04061L17.9453 14.7375L18.5335 15.1577L26.1749 4.46076L25.5867 4.04061Z" fill="#F8B88E"/>
<path d="M26.1741 4.45896C26.1741 4.45896 25.6635 5.1838 25.3049 6.11943C24.8633 7.25792 24.6372 8.70707 25.8026 9.53956L23.217 13.159C22.0516 12.3265 20.7541 13.0103 19.8202 13.7973C19.0515 14.4398 18.5312 15.158 18.5312 15.158L26.1741 4.45896Z" fill="#E49470"/>
<path opacity="0.1" d="M25.7947 4.98985C25.7947 4.98985 23.2992 8.5496 25.425 10.0682L25.0302 10.6208C22.9044 9.10225 25.4 5.54251 25.4 5.54251L25.7947 4.98985Z" fill="white"/>
<path opacity="0.15" d="M23.7911 12.3557L23.2171 13.1593C21.0912 11.6407 18.5312 15.158 18.5312 15.158L19.107 14.352C19.107 14.352 21.6653 10.8371 23.7911 12.3557Z" fill="#6E3025"/>
<path opacity="0.1" d="M25.5867 4.04061L17.9453 14.7375L18.1564 14.8884L25.7978 4.19142L25.5867 4.04061Z" fill="white"/>
<path opacity="0.15" d="M26.174 4.45912C26.174 4.45912 25.6634 5.18396 25.3048 6.11959L19.8202 13.7973C19.0515 14.4398 18.5312 15.158 18.5312 15.158L26.174 4.45912Z" fill="#6E3025"/>
<path d="M80.2983 11.7405C79.6058 11.7405 79.0479 11.516 78.6247 11.0672C78.2079 10.6119 77.9995 9.95467 77.9995 9.09544C77.9995 8.16567 78.2272 7.27438 78.6824 6.42156C79.1441 5.56233 79.7052 4.86982 80.3656 4.34402C81.0325 3.81181 81.6352 3.54571 82.1739 3.54571C82.3919 3.54571 82.5618 3.58739 82.6836 3.67074C82.8119 3.74769 82.9209 3.89196 83.0106 4.10357C82.5426 4.27669 82.0969 4.4915 81.6737 4.74799C81.2569 5.00447 80.8401 5.36997 80.4233 5.84447C80.013 6.31897 79.6603 6.92171 79.3653 7.6527H79.423C79.6924 7.29362 79.9777 7.04354 80.2791 6.90248C80.5804 6.755 80.901 6.68126 81.2409 6.68126C81.6641 6.68126 82.0264 6.77744 82.3278 6.9698C82.6355 7.16217 82.8664 7.42507 83.0203 7.7585C83.1806 8.09193 83.2607 8.47346 83.2607 8.90307C83.2607 9.42887 83.1229 9.90978 82.8471 10.3458C82.5778 10.7818 82.2155 11.1249 81.7603 11.375C81.305 11.6186 80.8177 11.7405 80.2983 11.7405ZM80.4426 10.9902C80.6798 10.9902 80.9203 10.9101 81.1639 10.7498C81.4076 10.5895 81.6128 10.3522 81.7795 10.038C81.9462 9.71742 82.0296 9.33589 82.0296 8.89345C82.0296 8.48308 81.927 8.14002 81.7218 7.8643C81.5166 7.58217 81.1768 7.4411 80.7023 7.4411C80.4843 7.4411 80.2598 7.51804 80.029 7.67194C79.7982 7.82583 79.6058 8.05025 79.4519 8.34521C79.298 8.64017 79.2211 8.99284 79.2211 9.40322C79.2211 9.85207 79.3172 10.2304 79.5096 10.5382C79.702 10.8395 80.013 10.9902 80.4426 10.9902ZM85.743 11.5C85.2428 11.5 84.8773 11.4295 84.6465 11.2884C84.4157 11.1473 84.3002 10.9261 84.3002 10.6247C84.3002 10.426 84.3708 10.1791 84.5118 9.88413C84.6529 9.58276 84.8838 9.14994 85.2044 8.58567C85.4801 8.11117 85.7013 7.71041 85.868 7.38339C86.0411 7.05637 86.1886 6.72294 86.3105 6.38309C86.4323 6.03683 86.4932 5.72264 86.4932 5.4405C86.4932 5.28661 86.4676 5.11669 86.4163 4.93074C86.5381 4.87303 86.6535 4.83135 86.7625 4.8057C86.8715 4.78005 86.9837 4.76722 87.0992 4.76722C87.6185 4.76722 87.8782 5.08142 87.8782 5.70981C87.8782 6.2805 87.6474 6.9698 87.1857 7.77774C86.7305 8.57926 86.0347 9.51864 85.0986 10.5959H88.2918L88.0129 11.3173C87.7179 11.3686 87.3556 11.4134 86.926 11.4519C86.4964 11.484 86.1021 11.5 85.743 11.5ZM88.5611 13.1351C88.2982 13.1351 88.093 13.0485 87.9456 12.8754C87.8045 12.7087 87.734 12.4682 87.734 12.154C87.734 11.8398 87.8237 11.3269 88.0033 10.6151C88.1892 9.90337 88.4393 9.08261 88.7535 8.15285C88.8625 8.06949 88.9875 8.00216 89.1286 7.95087C89.2697 7.89957 89.4011 7.87392 89.523 7.87392C89.632 7.87392 89.7089 7.89316 89.7538 7.93163C89.7987 7.96369 89.8211 8.0214 89.8211 8.10476C89.8211 8.18812 89.8019 8.31636 89.7634 8.48949C89.7249 8.66262 89.6801 8.85178 89.6288 9.05696C89.4877 9.58276 89.3723 10.0765 89.2825 10.5382C89.1991 10.9934 89.1575 11.4455 89.1575 11.8943C89.1575 12.3176 89.2344 12.6542 89.3883 12.9043C89.2216 12.9876 89.0773 13.0453 88.9555 13.0774C88.8336 13.1159 88.7022 13.1351 88.5611 13.1351Z" fill="black"/>
</svg>
