<svg width="95" height="61" viewBox="0 0 95 61" fill="none" xmlns="http://www.w3.org/2000/svg">
<path d="M93.623 0.75V59.96H0.75V0.75H93.623Z" fill="#FFC270" stroke="black" stroke-width="1.5"/>
<path d="M80.4741 11.7501C79.7431 11.7501 79.1628 11.593 78.7332 11.2788C78.31 10.9646 78.0984 10.5318 78.0984 9.98032C78.0984 9.71742 78.1593 9.46414 78.2811 9.22047C78.4029 8.9704 78.6209 8.71712 78.9351 8.46063C79.2493 8.20415 79.6822 7.94766 80.2336 7.69117C80.7209 7.47316 81.0992 7.25515 81.3686 7.03713C81.6379 6.81271 81.8206 6.59469 81.9168 6.38309C82.0194 6.17149 82.0707 5.94706 82.0707 5.70981C82.0707 5.42768 81.9745 5.20325 81.7821 5.03654C81.5962 4.86982 81.3397 4.78646 81.0127 4.78646C80.66 4.78646 80.3683 4.87303 80.1374 5.04615C79.913 5.21287 79.8008 5.45012 79.8008 5.7579C79.8008 5.97592 79.8681 6.1779 80.0028 6.36385C80.1374 6.54981 80.3041 6.71973 80.5029 6.87362C80.7081 7.02751 80.9838 7.21667 81.3301 7.4411C81.7405 7.704 82.0707 7.93484 82.3208 8.13361C82.5708 8.32598 82.7824 8.55361 82.9556 8.81651C83.1287 9.07941 83.2153 9.37437 83.2153 9.70139C83.2153 10.0989 83.0998 10.4548 82.869 10.769C82.6382 11.0768 82.3144 11.3173 81.8976 11.4904C81.4808 11.6635 81.0063 11.7501 80.4741 11.7501ZM80.5702 10.9421C80.9742 10.9421 81.3108 10.8428 81.5802 10.644C81.8495 10.4388 81.9841 10.1534 81.9841 9.78795C81.9841 9.60841 81.92 9.43528 81.7918 9.26857C81.6635 9.10185 81.5064 8.94796 81.3205 8.80689C81.1345 8.66582 80.8748 8.47987 80.5414 8.24903C80.1182 7.9669 79.7751 7.72003 79.5122 7.50843C79.2557 7.29682 79.0345 7.05316 78.8486 6.77744C78.6626 6.50172 78.5696 6.20034 78.5696 5.87332C78.5696 5.50142 78.669 5.17119 78.8678 4.88264C79.073 4.5941 79.3615 4.37288 79.7335 4.21898C80.1054 4.05868 80.535 3.97853 81.0223 3.97853C81.6763 3.97853 82.1925 4.13563 82.5708 4.44982C82.9492 4.76402 83.1383 5.18402 83.1383 5.70981C83.1383 6.14584 82.9524 6.56584 82.5805 6.9698C82.2085 7.36736 81.6763 7.72003 80.9838 8.02781C80.4324 8.27147 79.9899 8.56323 79.6565 8.90307C79.3295 9.24292 79.166 9.602 79.166 9.98032C79.166 10.2689 79.2974 10.5029 79.5603 10.6824C79.8232 10.8556 80.1599 10.9421 80.5702 10.9421ZM86.8236 11.7501C86.0926 11.7501 85.5123 11.593 85.0827 11.2788C84.6595 10.9646 84.4479 10.5318 84.4479 9.98032C84.4479 9.71742 84.5088 9.46414 84.6306 9.22047C84.7525 8.9704 84.9705 8.71712 85.2847 8.46063C85.5989 8.20415 86.0317 7.94766 86.5832 7.69117C87.0705 7.47316 87.4488 7.25515 87.7181 7.03713C87.9874 6.81271 88.1702 6.59469 88.2663 6.38309C88.3689 6.17149 88.4202 5.94706 88.4202 5.70981C88.4202 5.42768 88.3241 5.20325 88.1317 5.03654C87.9457 4.86982 87.6892 4.78646 87.3622 4.78646C87.0096 4.78646 86.7178 4.87303 86.487 5.04615C86.2625 5.21287 86.1503 5.45012 86.1503 5.7579C86.1503 5.97592 86.2177 6.1779 86.3523 6.36385C86.487 6.54981 86.6537 6.71973 86.8525 6.87362C87.0577 7.02751 87.3334 7.21667 87.6796 7.4411C88.09 7.704 88.4202 7.93484 88.6703 8.13361C88.9204 8.32598 89.132 8.55361 89.3051 8.81651C89.4782 9.07941 89.5648 9.37437 89.5648 9.70139C89.5648 10.0989 89.4494 10.4548 89.2186 10.769C88.9877 11.0768 88.6639 11.3173 88.2471 11.4904C87.8303 11.6635 87.3558 11.7501 86.8236 11.7501ZM86.9198 10.9421C87.3238 10.9421 87.6604 10.8428 87.9297 10.644C88.199 10.4388 88.3337 10.1534 88.3337 9.78795C88.3337 9.60841 88.2696 9.43528 88.1413 9.26857C88.0131 9.10185 87.856 8.94796 87.67 8.80689C87.4841 8.66582 87.2244 8.47987 86.8909 8.24903C86.4677 7.9669 86.1247 7.72003 85.8618 7.50843C85.6053 7.29682 85.3841 7.05316 85.1981 6.77744C85.0122 6.50172 84.9192 6.20034 84.9192 5.87332C84.9192 5.50142 85.0186 5.17119 85.2174 4.88264C85.4225 4.5941 85.7111 4.37288 86.083 4.21898C86.4549 4.05868 86.8845 3.97853 87.3718 3.97853C88.0259 3.97853 88.5421 4.13563 88.9204 4.44982C89.2987 4.76402 89.4879 5.18402 89.4879 5.70981C89.4879 6.14584 89.3019 6.56584 88.93 6.9698C88.5581 7.36736 88.0259 7.72003 87.3334 8.02781C86.7819 8.27147 86.3395 8.56323 86.0061 8.90307C85.679 9.24292 85.5155 9.602 85.5155 9.98032C85.5155 10.2689 85.647 10.5029 85.9099 10.6824C86.1728 10.8556 86.5094 10.9421 86.9198 10.9421Z" fill="black"/>
</svg>
