<svg width="95" height="61" viewBox="0 0 95 61" fill="none" xmlns="http://www.w3.org/2000/svg">
<path d="M93.623 0.75V59.96H0.75V0.75H93.623Z" fill="#D9D9D9" stroke="black" stroke-width="1.5"/>
<path d="M78.1977 12.9908C77.6527 12.9908 77.2519 12.9171 76.9955 12.7696C76.739 12.6221 76.6107 12.3977 76.6107 12.0963C76.6107 11.9168 76.6877 11.7661 76.8416 11.6443C77.0019 11.5224 77.191 11.4615 77.409 11.4615C77.6014 11.4615 77.7874 11.5321 77.9669 11.6731C78.1529 11.8142 78.3067 12.0034 78.4286 12.2406C78.8005 12.2406 79.1403 12.1669 79.4481 12.0194C79.7623 11.8719 80.0092 11.6731 80.1887 11.4231C80.3747 11.1666 80.4676 10.8908 80.4676 10.5959C80.4676 10.3522 80.4035 10.115 80.2753 9.88413C80.1534 9.6533 79.9579 9.46414 79.6886 9.31666C79.4193 9.16277 79.0826 9.08582 78.6786 9.08582C78.5119 9.08582 78.3164 9.10826 78.0919 9.15315C78.0022 9.17238 77.938 9.182 77.8996 9.182C77.8419 9.182 77.7938 9.15956 77.7553 9.11467C77.7168 9.06979 77.6976 9.01849 77.6976 8.96078L78.2747 5.61363L79.3038 5.95989L78.8999 8.39331C79.4385 8.39331 79.9194 8.48308 80.3426 8.66262C80.7722 8.84216 81.1057 9.09223 81.3429 9.41284C81.5866 9.73345 81.7084 10.0957 81.7084 10.4997C81.7084 10.9742 81.5545 11.4006 81.2467 11.7789C80.9454 12.1572 80.5254 12.4522 79.9867 12.6638C79.4545 12.8818 78.8582 12.9908 78.1977 12.9908ZM80.0733 6.24844C79.291 6.24844 78.7139 6.1747 78.342 6.02722C77.9701 5.87974 77.7842 5.65531 77.7842 5.35394C77.7842 5.16157 77.8354 5.0173 77.938 4.92112C78.0471 4.81852 78.2074 4.76722 78.419 4.76722C78.5985 4.76722 78.762 4.82814 78.9095 4.94997C79.0634 5.0718 79.1884 5.23211 79.2846 5.43088C79.6437 5.41165 80.0476 5.33791 80.4965 5.20966C80.9518 5.07501 81.3942 4.90829 81.8238 4.70952C81.8687 4.77364 81.9008 4.8602 81.92 4.96921C81.9456 5.0718 81.9585 5.18081 81.9585 5.29623C81.9585 5.52065 81.8751 5.7034 81.7084 5.84447C81.5481 5.98554 81.3269 6.08813 81.0447 6.15225C80.769 6.21637 80.4452 6.24844 80.0733 6.24844ZM85.4993 11.7405C84.9928 11.7405 84.5503 11.6186 84.172 11.375C83.7937 11.1313 83.502 10.785 83.2968 10.3362C83.098 9.88734 82.9986 9.36154 82.9986 8.7588C82.9986 7.9701 83.1525 7.27438 83.4603 6.67164C83.7681 6.06889 84.2009 5.60081 84.7587 5.26737C85.3166 4.93394 85.9546 4.76722 86.6728 4.76722C86.7882 4.76722 86.9228 4.78326 87.0767 4.81532C87.2306 4.84096 87.3557 4.87303 87.4518 4.9115C87.4967 4.9628 87.5288 5.11669 87.548 5.37317C87.952 5.48218 88.2598 5.74187 88.4714 6.15225C88.683 6.55622 88.7888 7.08522 88.7888 7.73926C88.7888 8.48308 88.6413 9.15956 88.3463 9.76871C88.0578 10.3779 87.6634 10.8588 87.1633 11.2115C86.6631 11.5641 86.1085 11.7405 85.4993 11.7405ZM85.5859 11.0095C85.9642 11.0095 86.3041 10.8748 86.6054 10.6055C86.9068 10.3362 87.1409 9.96108 87.3076 9.48017C87.4807 8.99925 87.5673 8.45422 87.5673 7.84506C87.5673 7.1269 87.4326 6.59149 87.1633 6.23882C86.9004 5.88615 86.49 5.70981 85.9322 5.70981C85.7206 5.70981 85.4609 5.76111 85.1531 5.86371C84.8517 6.29973 84.6209 6.78385 84.4606 7.31606C84.3003 7.84186 84.2201 8.36445 84.2201 8.88384C84.2201 9.53788 84.3419 10.0573 84.5856 10.442C84.8357 10.8203 85.1691 11.0095 85.5859 11.0095Z" fill="black"/>
<path d="M14.1846 17.1602L12.6113 22.5244L73.8764 40.4923L75.4496 35.128L14.1846 17.1602Z" fill="white"/>
<path d="M75.4502 35.1284L76.7033 36.3582L76.9774 36.625L79.97 39.5611L75.9349 40.1797L73.877 40.4927L75.4502 35.1284Z" fill="white"/>
<path opacity="0.15" d="M12.9637 21.3229L76.0392 39.8218L75.9343 40.1793L73.8764 40.4923L12.6113 22.5244L12.9637 21.3229Z" fill="white"/>
<path opacity="0.1" d="M13.952 17.954L76.7031 36.3577L76.9771 36.6245L76.7883 37.2681L13.7129 18.7693L13.952 17.954Z" fill="white"/>
<path d="M75.7333 40.2083L74.7072 37.661L74.9432 36.8565L76.3212 35.9821L79.9699 39.5606L75.7333 40.2083Z" fill="white"/>
<path d="M12.3185 10.9169L7.66895 26.7705L8.48393 27.0095L13.1335 11.1559L12.3185 10.9169Z" fill="white"/>
<path d="M13.1339 11.1538C13.1339 11.1538 12.826 12.2247 12.7292 13.4665C12.6062 14.9799 12.7858 16.7491 14.1848 17.1594L12.6116 22.5236C11.2126 22.1133 10.1059 23.5053 9.3919 24.8456C8.80276 25.9427 8.4834 27.0105 8.4834 27.0105L13.1339 11.1538Z" fill="white"/>
<path opacity="0.1" d="M12.9037 11.9403C12.9037 11.9403 11.4039 17.1939 13.9559 17.9424L13.7157 18.7615C11.1636 18.013 12.6635 12.7594 12.6635 12.7594L12.9037 11.9403Z" fill="white"/>
<path opacity="0.15" d="M12.961 21.3323L12.6117 22.5232C10.0597 21.7747 8.4834 27.0098 8.4834 27.0098L8.8337 25.8153C8.8337 25.8153 10.4089 20.5838 12.961 21.3323Z" fill="white"/>
<path opacity="0.1" d="M12.2472 10.8961L7.59766 26.7498L8.03096 26.8768L12.6805 11.0232L12.2472 10.8961Z" fill="white"/>
<path opacity="0.15" d="M13.1338 11.1533C13.1338 11.1533 12.8259 12.2242 12.7291 13.4659L9.39185 24.8449C8.80276 25.942 8.4834 27.0098 8.4834 27.0098L13.1338 11.1533Z" fill="white"/>
<path d="M25.9353 9.17899L22.8574 13.4875L74.5937 50.4456L77.6715 46.1371L25.9353 9.17899Z" fill="white"/>
<path d="M77.6726 46.1368L78.4719 47.6709L78.6473 48.0045L80.5564 51.6674L76.6078 50.8596L74.5947 50.4453L77.6726 46.1368Z" fill="white"/>
<path opacity="0.15" d="M23.5468 12.5225L76.8118 50.5727L76.6067 50.8599L74.5937 50.4456L22.8574 13.4875L23.5468 12.5225Z" fill="white"/>
<path opacity="0.1" d="M25.4805 9.81658L78.4716 47.6711L78.647 48.0047L78.2777 48.5216L25.0127 10.4714L25.4805 9.81658Z" fill="white"/>
<path d="M76.41 50.8174L76.2181 48.1711L76.6797 47.525L78.2273 47.2024L80.5553 51.6672L76.41 50.8174Z" fill="white"/>
<path d="M25.6828 3.37291L16.9805 15.5549L17.9695 16.2615L26.6718 4.07944L25.6828 3.37291Z" fill="white"/>
<path d="M26.7592 3.40261C26.7592 3.40261 26.1505 4.26486 25.6874 5.35275C25.1183 6.67696 24.7545 8.33443 25.9359 9.1784L22.8581 13.487C21.6767 12.643 20.2267 13.5246 19.1584 14.4925C18.2796 15.2831 17.6611 16.1387 17.6611 16.1387L26.7592 3.40261Z" fill="white"/>
<path opacity="0.1" d="M26.3071 4.03486C26.3071 4.03486 23.3309 8.26841 25.486 9.80793L25.016 10.4658C22.8609 8.92629 25.8371 4.69273 25.8371 4.69273L26.3071 4.03486Z" fill="white"/>
<path opacity="0.15" d="M23.5414 12.5307L22.8581 13.4873C20.703 11.9477 17.6611 16.1387 17.6611 16.1387L18.3465 15.1793C18.3465 15.1793 21.3863 10.9912 23.5414 12.5307Z" fill="white"/>
<path opacity="0.1" d="M26.0514 2.89895L16.9551 15.6326L17.2808 15.8653L26.3771 3.13164L26.0514 2.89895Z" fill="white"/>
<path opacity="0.15" d="M26.7591 3.4028C26.7591 3.4028 26.1504 4.26504 25.6873 5.35293L19.1584 14.4925C18.2796 15.2831 17.6611 16.1387 17.6611 16.1387L26.7591 3.4028Z" fill="white"/>
<path d="M14.0819 17.6358L12.8301 21.9041L73.0118 39.5542L74.2636 35.2859L14.0819 17.6358Z" fill="#DC795E"/>
<path d="M74.2635 35.2859L75.538 36.3457L75.8166 36.5758L78.86 39.1062L74.987 39.4042L73.0117 39.5542L74.2635 35.2859Z" fill="#DC795E"/>
<path opacity="0.15" d="M13.1105 20.948L75.0705 39.1198L74.9871 39.4042L73.0118 39.5542L12.8301 21.9041L13.1105 20.948Z" fill="#6E3025"/>
<path opacity="0.1" d="M13.8963 18.268L75.5377 36.3463L75.8163 36.5763L75.6661 37.0885L13.7061 18.9167L13.8963 18.268Z" fill="white"/>
<path d="M74.7933 39.4176L73.6722 37.3014L73.8599 36.6613L75.1491 36.022L78.8597 39.1062L74.7933 39.4176Z" fill="#E49470"/>
<path d="M12.0688 12.5143L8.36914 25.1289L9.06274 25.3323L12.7624 12.7177L12.0688 12.5143Z" fill="#F8B88E"/>
<path d="M12.7628 12.716C12.7628 12.716 12.5189 13.5684 12.4879 14.5699C12.4452 15.7903 12.7081 17.2332 14.0823 17.6363L12.8305 21.9046C11.4562 21.5015 10.4557 22.5739 9.8324 23.6242C9.31768 24.4837 9.0625 25.333 9.0625 25.333L12.7628 12.716Z" fill="#E49470"/>
<path opacity="0.1" d="M12.5776 13.3421C12.5776 13.3421 11.3912 17.5244 13.8982 18.2596L13.707 18.9114C11.2001 18.1761 12.3865 13.9938 12.3865 13.9938L12.5776 13.3421Z" fill="white"/>
<path opacity="0.15" d="M13.1086 20.9572L12.8307 21.9048C10.3237 21.1696 9.0625 25.333 9.0625 25.333L9.34124 24.3826C9.34124 24.3826 10.6017 20.222 13.1086 20.9572Z" fill="#6E3025"/>
<path opacity="0.1" d="M12.0688 12.5143L8.36914 25.1289L8.61809 25.2019L12.3177 12.5873L12.0688 12.5143Z" fill="white"/>
<path opacity="0.15" d="M12.7628 12.7162C12.7628 12.7162 12.5189 13.5686 12.4878 14.5701L9.8324 23.6242C9.31768 24.4837 9.0625 25.333 9.0625 25.333L12.7628 12.7162Z" fill="#6E3025"/>
<path d="M25.8024 9.53975L23.2168 13.1592L74.2497 49.6148L76.8352 45.9953L25.8024 9.53975Z" fill="#DC795E"/>
<path d="M76.8356 45.9956L77.6907 47.4155L77.8782 47.7244L79.9204 51.1147L76.1648 50.1228L74.25 49.615L76.8356 45.9956Z" fill="#DC795E"/>
<path opacity="0.15" d="M23.7959 12.3485L76.3368 49.8814L76.1645 50.1226L74.2496 49.6148L23.2168 13.1592L23.7959 12.3485Z" fill="#6E3025"/>
<path opacity="0.1" d="M25.4193 10.0761L77.69 47.4159L77.8775 47.7248L77.5672 48.1591L25.0264 10.6262L25.4193 10.0761Z" fill="white"/>
<path d="M75.9772 50.0724L75.6142 47.7052L76.002 47.1623L77.4297 46.9825L79.92 51.1152L75.9772 50.0724Z" fill="#E49470"/>
<path d="M25.5867 4.04085L17.9453 14.7378L18.5335 15.1579L26.1749 4.461L25.5867 4.04085Z" fill="#F8B88E"/>
<path d="M26.1741 4.45921C26.1741 4.45921 25.6635 5.18405 25.3049 6.11967C24.8633 7.25816 24.6372 8.70732 25.8026 9.53981L23.217 13.1592C22.0516 12.3267 20.7541 13.0105 19.8202 13.7975C19.0515 14.44 18.5312 15.1582 18.5312 15.1582L26.1741 4.45921Z" fill="#E49470"/>
<path opacity="0.1" d="M25.7947 4.9901C25.7947 4.9901 23.2992 8.54984 25.425 10.0684L25.0302 10.6211C22.9044 9.10249 25.4 5.54275 25.4 5.54275L25.7947 4.9901Z" fill="white"/>
<path opacity="0.15" d="M23.7911 12.356L23.2171 13.1595C21.0912 11.6409 18.5312 15.1582 18.5312 15.1582L19.107 14.3523C19.107 14.3523 21.6653 10.8374 23.7911 12.356Z" fill="#6E3025"/>
<path opacity="0.1" d="M25.5867 4.04085L17.9453 14.7378L18.1564 14.8886L25.7978 4.19166L25.5867 4.04085Z" fill="white"/>
<path opacity="0.15" d="M26.174 4.45937C26.174 4.45937 25.6634 5.18421 25.3048 6.11983L19.8202 13.7975C19.0515 14.44 18.5312 15.1582 18.5312 15.1582L26.174 4.45937Z" fill="#6E3025"/>
</svg>
