<svg width="95" height="61" viewBox="0 0 95 61" fill="none" xmlns="http://www.w3.org/2000/svg">
<path d="M93.623 0.75V59.96H0.75V0.75H93.623Z" fill="#FFC270" stroke="black" stroke-width="1.5"/>
<path d="M80.3922 11.7405C79.6997 11.7405 79.1419 11.516 78.7187 11.0672C78.3019 10.6119 78.0935 9.95467 78.0935 9.09544C78.0935 8.16567 78.3211 7.27438 78.7764 6.42156C79.238 5.56233 79.7991 4.86982 80.4596 4.34402C81.1264 3.81181 81.7292 3.54571 82.2678 3.54571C82.4858 3.54571 82.6557 3.58739 82.7776 3.67074C82.9058 3.74769 83.0148 3.89196 83.1046 4.10357C82.6365 4.27669 82.1908 4.4915 81.7676 4.74799C81.3508 5.00447 80.9341 5.36997 80.5173 5.84447C80.1069 6.31897 79.7542 6.92171 79.4593 7.6527H79.517C79.7863 7.29362 80.0716 7.04354 80.373 6.90248C80.6744 6.755 80.995 6.68126 81.3348 6.68126C81.758 6.68126 82.1203 6.77744 82.4217 6.9698C82.7295 7.16217 82.9603 7.42507 83.1142 7.7585C83.2745 8.09193 83.3547 8.47346 83.3547 8.90307C83.3547 9.42887 83.2168 9.90978 82.9411 10.3458C82.6718 10.7818 82.3095 11.1249 81.8542 11.375C81.3989 11.6186 80.9116 11.7405 80.3922 11.7405ZM80.5365 10.9902C80.7738 10.9902 81.0142 10.9101 81.2579 10.7498C81.5015 10.5895 81.7067 10.3522 81.8734 10.038C82.0402 9.71742 82.1235 9.33589 82.1235 8.89345C82.1235 8.48308 82.0209 8.14002 81.8157 7.8643C81.6105 7.58217 81.2707 7.4411 80.7962 7.4411C80.5782 7.4411 80.3538 7.51804 80.1229 7.67194C79.8921 7.82583 79.6997 8.05025 79.5458 8.34521C79.3919 8.64017 79.315 8.99284 79.315 9.40322C79.315 9.85207 79.4112 10.2304 79.6035 10.5382C79.7959 10.8395 80.1069 10.9902 80.5365 10.9902ZM85.0001 10.5863C86.103 9.8681 86.9302 9.20765 87.4816 8.60491C88.0395 7.99575 88.3184 7.42827 88.3184 6.90248C88.3184 6.48569 88.2222 6.1747 88.0299 5.96951C87.8439 5.76432 87.5618 5.66172 87.1835 5.66172C86.9398 5.66172 86.7154 5.73226 86.5102 5.87332C86.3114 6.00798 86.1479 6.19393 86.0197 6.43118C85.8978 6.66843 85.8273 6.93774 85.8081 7.23912C85.5708 7.21347 85.3881 7.13331 85.2598 6.99866C85.1316 6.85759 85.0674 6.67805 85.0674 6.46004C85.0674 6.1266 85.1668 5.83164 85.3656 5.57516C85.5644 5.31867 85.8433 5.11989 86.2024 4.97883C86.5679 4.83776 86.9879 4.76722 87.4624 4.76722C87.8728 4.76722 88.2351 4.84417 88.5493 4.99806C88.8635 5.14554 89.1071 5.35714 89.2802 5.63287C89.4534 5.90859 89.5399 6.22279 89.5399 6.57546C89.5399 7.01148 89.4149 7.44751 89.1648 7.88354C88.9212 8.31957 88.53 8.78765 87.9914 9.2878C87.4592 9.78795 86.741 10.3554 85.8369 10.9902L85.0001 10.5863ZM88.5493 11.7885C88.1838 11.7885 87.8151 11.7469 87.4432 11.6635C87.0713 11.5802 86.5647 11.4231 85.9235 11.1922L85.8946 11.1826C85.7087 11.375 85.5387 11.5096 85.3849 11.5866C85.2374 11.6699 85.0771 11.7116 84.9039 11.7116C84.7308 11.7116 84.5833 11.6539 84.4615 11.5385C84.3461 11.4231 84.2884 11.282 84.2884 11.1153C84.2884 10.8395 84.4006 10.6151 84.625 10.442C84.8494 10.2689 85.1316 10.1823 85.4714 10.1823C85.6381 10.1823 85.8401 10.2112 86.0774 10.2689C86.3146 10.3202 86.6064 10.3971 86.9526 10.4997C87.363 10.6151 87.6868 10.7017 87.9241 10.7594C88.1613 10.8107 88.3697 10.8363 88.5493 10.8363L89.6073 10.2592C89.697 10.4003 89.7579 10.5189 89.79 10.6151C89.8285 10.7113 89.8477 10.8043 89.8477 10.8941C89.8477 11.0608 89.79 11.2147 89.6746 11.3557C89.5592 11.4904 89.4021 11.5962 89.2033 11.6731C89.0045 11.7501 88.7865 11.7885 88.5493 11.7885Z" fill="black"/>
</svg>
