<svg width="95" height="61" viewBox="0 0 95 61" fill="none" xmlns="http://www.w3.org/2000/svg">
<path d="M93.623 0.75V59.96H0.75V0.75H93.623Z" fill="#D9D9D9" stroke="black" stroke-width="1.5"/>
<path d="M78.7351 13.0004C78.1901 13.0004 77.7829 12.9267 77.5136 12.7792C77.2507 12.6317 77.1192 12.4105 77.1192 12.1156C77.1192 11.9296 77.193 11.7757 77.3404 11.6539C77.4943 11.5321 77.6803 11.4711 77.8983 11.4711C78.0907 11.4711 78.2798 11.5417 78.4658 11.6827C78.6517 11.8238 78.8056 12.0162 78.9275 12.2598C79.3122 12.2598 79.6649 12.1861 79.9855 12.0386C80.3061 11.8911 80.5594 11.6892 80.7453 11.4327C80.9313 11.1762 81.0242 10.8941 81.0242 10.5863C81.0242 10.3105 80.9473 10.0509 80.7934 9.80719C80.6459 9.55711 80.4664 9.40002 80.2548 9.33589C79.8316 9.61803 79.4725 9.7591 79.1775 9.7591C79.0044 9.7591 78.8569 9.7078 78.7351 9.6052C78.6197 9.4962 78.562 9.36475 78.562 9.21086C78.562 8.98643 78.6581 8.80689 78.8505 8.67223C79.0493 8.53758 79.309 8.47025 79.6296 8.47025C80.1297 8.47025 80.5786 8.56002 80.9761 8.73956C81.3737 8.91269 81.6847 9.15315 81.9091 9.46093C82.1335 9.76871 82.2458 10.1182 82.2458 10.5093C82.2458 10.9838 82.0951 11.4102 81.7937 11.7885C81.4923 12.1669 81.0723 12.4618 80.5337 12.6734C80.0015 12.8914 79.402 13.0004 78.7351 13.0004ZM79.6488 8.76842C80.1041 8.6017 80.4696 8.34842 80.7453 8.00858C81.021 7.66873 81.1589 7.30003 81.1589 6.90248C81.1589 6.48569 81.0659 6.1747 80.88 5.96951C80.694 5.76432 80.4119 5.66172 80.0336 5.66172C79.7771 5.66172 79.5398 5.73226 79.3218 5.87332C79.1102 6.00798 78.9339 6.19714 78.7928 6.4408C78.6581 6.67805 78.5812 6.94416 78.562 7.23912C78.3311 7.20705 78.1484 7.1237 78.0137 6.98904C77.8855 6.85439 77.8214 6.67805 77.8214 6.46004C77.8214 6.1266 77.924 5.83164 78.1291 5.57516C78.3343 5.31867 78.6261 5.11989 79.0044 4.97883C79.3827 4.83776 79.8188 4.76722 80.3125 4.76722C80.71 4.76722 81.0659 4.84417 81.3801 4.99806C81.6943 5.15195 81.938 5.36676 82.1111 5.64249C82.2906 5.91821 82.3804 6.2292 82.3804 6.57546C82.3804 7.03072 82.2265 7.47637 81.9187 7.91239C81.6174 8.34201 81.1813 8.73636 80.6107 9.09544L79.6488 8.76842ZM85.0553 11.5C84.5552 11.5 84.1897 11.4295 83.9589 11.2884C83.728 11.1473 83.6126 10.9261 83.6126 10.6247C83.6126 10.426 83.6831 10.1791 83.8242 9.88413C83.9653 9.58276 84.1961 9.14994 84.5167 8.58567C84.7924 8.11117 85.0137 7.71041 85.1804 7.38339C85.3535 7.05637 85.501 6.72294 85.6228 6.38309C85.7446 6.03683 85.8056 5.72264 85.8056 5.4405C85.8056 5.28661 85.7799 5.11669 85.7286 4.93074C85.8504 4.87303 85.9659 4.83135 86.0749 4.8057C86.1839 4.78005 86.2961 4.76722 86.4115 4.76722C86.9309 4.76722 87.1906 5.08142 87.1906 5.70981C87.1906 6.2805 86.9598 6.9698 86.4981 7.77774C86.0428 8.57926 85.3471 9.51864 84.4109 10.5959H87.6042L87.3252 11.3173C87.0303 11.3686 86.668 11.4134 86.2384 11.4519C85.8088 11.484 85.4144 11.5 85.0553 11.5ZM87.8735 13.1351C87.6106 13.1351 87.4054 13.0485 87.2579 12.8754C87.1168 12.7087 87.0463 12.4682 87.0463 12.154C87.0463 11.8398 87.1361 11.3269 87.3156 10.6151C87.5016 9.90337 87.7517 9.08261 88.0658 8.15285C88.1749 8.06949 88.2999 8.00216 88.441 7.95087C88.582 7.89957 88.7135 7.87392 88.8353 7.87392C88.9443 7.87392 89.0213 7.89316 89.0661 7.93163C89.111 7.96369 89.1335 8.0214 89.1335 8.10476C89.1335 8.18812 89.1142 8.31636 89.0758 8.48949C89.0373 8.66262 88.9924 8.85178 88.9411 9.05696C88.8 9.58276 88.6846 10.0765 88.5949 10.5382C88.5115 10.9934 88.4698 11.4455 88.4698 11.8943C88.4698 12.3176 88.5468 12.6542 88.7007 12.9043C88.5339 12.9876 88.3897 13.0453 88.2678 13.0774C88.146 13.1159 88.0146 13.1351 87.8735 13.1351Z" fill="black"/>
</svg>
