<svg width="95" height="61" viewBox="0 0 95 61" fill="none" xmlns="http://www.w3.org/2000/svg">
<path d="M93.623 0.75V59.96H0.75V0.75H93.623Z" fill="#BBE4F1" stroke="black" stroke-width="1.5"/>
<path d="M1.5 34.7268V59.2533H92.8734V54.9251L14.0037 40.4978C9.70611 39.5196 3.42365 39.4157 1.5 34.7268Z" fill="url(#paint0_linear_126_1778)"/>
<path d="M8.49199 30.3166L9.43955 44.7528L15.6752 50.15L17.2996 51.5561C17.2996 51.5561 19.3606 53.08 23.8714 54.783C26.7796 55.8834 30.7052 57.0537 35.7531 57.9401C48.0453 60.0274 60.6778 52.756 77.4852 57.6903C93.8365 61.0567 96.2408 54.3239 88.7687 51.1441C81.5767 46.8779 56.914 49.7351 57.4118 37.6176C57.5253 34.7793 58.5645 32.823 60.1147 31.5742C62.1103 29.9629 64.9661 29.5306 67.8001 29.9105C71.7039 30.4257 75.5727 32.4824 77.1447 35.1112C80.6556 40.9931 75.9483 44.5607 75.7299 44.7222L80.3499 43.5301L83.1358 36.1155L72.8217 22.2339L65.3547 15.3782L46.8444 11.863L25.439 17.2166L21.3169 24.6312L11.8936 25.5787L8.49199 30.3166Z" fill="url(#paint1_linear_126_1778)"/>
<path opacity="0.37" d="M8.49191 30.3166L9.43948 44.7528L15.6751 50.15C12.5049 43.8969 14.2166 38.8665 15.5179 35.0282C17.2733 29.8406 18.4436 38.2028 19.3649 34.4431C20.2819 30.679 23.4609 28.7577 23.0417 32.5174C22.6268 36.2814 25.0503 34.1068 27.059 30.0939C29.0633 26.0809 31.6571 25.9106 30.9017 29.9279C30.1506 33.9409 32.4911 34.9452 35.4168 29.0895C38.3468 23.2382 37.3425 33.3558 39.9319 27.7533C42.5257 22.1509 50.5517 16.9677 49.7176 21.3125C48.8792 25.6617 52.7263 24.9936 53.8136 22.819C54.9009 20.6444 56.4074 19.6401 56.2371 21.9806C56.0711 24.3255 56.1541 25.2425 57.7436 23.5701C59.333 21.8976 61.7565 20.6444 61.4247 23.8233C61.0884 26.9979 62.1757 27.6704 64.8525 24.8277C67.3895 22.1291 70.1449 25.3648 67.8 29.9105C71.7038 30.4257 75.5727 32.4824 77.1447 35.1112C80.6555 40.9931 75.9482 44.5607 75.7299 44.7222L80.3498 43.5301L83.1357 36.1155L72.8217 22.2339L65.3547 15.3782L46.8444 11.863L25.4389 17.2166L21.3168 24.6312L11.8935 25.5787L8.49191 30.3166Z" fill="#86FFFF"/>
<path opacity="0.37" d="M8.49191 30.3166L9.43948 44.7528L15.6751 50.15L17.2995 51.556C17.2995 51.556 19.3605 53.08 23.8713 54.783C13.6882 45.1239 26.3996 49.984 23.3779 46.6479C20.116 43.0541 22.7928 37.4517 26.5568 41.2987C30.3165 45.1458 31.072 43.2201 32.3252 38.622C33.5784 34.0239 35.3338 41.8009 37.9276 36.0325C40.5171 30.2598 41.2725 38.2901 41.7747 35.1941C42.2768 32.1025 46.6217 28.5044 46.6217 32.7706C46.6217 37.0325 50.5517 35.7793 52.4774 31.6833C54.3288 27.7402 59.1322 26.5045 60.1147 31.5742C62.1102 29.9629 64.966 29.5306 67.8 29.9105C71.7038 30.4257 75.5727 32.4824 77.1447 35.1112C80.6555 40.9931 75.9482 44.5606 75.7299 44.7222L80.3498 43.5301L83.1357 36.1155L72.8217 22.2339L65.3547 15.3782L46.8444 11.863L25.4389 17.2166L21.3168 24.6312L11.8935 25.5787L8.49191 30.3166Z" fill="#86FFFF"/>
<path d="M7.65847 29.8408C9.5798 30.2556 7.23926 20.138 11.0863 20.138C14.9333 20.138 14.5971 24.3213 18.2782 24.9894C21.9549 25.6575 23.4047 10.4877 30.3171 12.1951C33.0201 12.8632 29.3433 15.2605 32.2428 15.7626C35.1423 16.2648 34.4174 9.79775 37.3693 10.1908C40.3255 10.5794 42.011 -2.54682 51.9758 1.16048C56.325 2.77615 50.2378 7.18212 54.9844 9.02049C59.1677 10.6362 59.8751 4.25208 65.2985 7.67992C68.0277 9.40912 60.6174 12.4745 65.6871 14.2037C70.7612 15.9329 75.3811 15.553 76.1671 20.8935C77.3942 29.1989 81.4071 23.6226 83.918 34.8275C85.9179 43.7617 76.1366 49.3903 74.7742 47.0367C73.5471 44.9189 76.3898 44.5826 78.5077 43.9713C80.6299 43.3556 82.4115 39.8448 81.1277 37.3907C79.8482 34.941 77.285 36.1331 77.1147 34.9978C77.0055 34.2424 78.0361 32.6529 76.5863 33.4083C75.1366 34.1594 73.8572 35.1332 73.2677 32.6835C72.9751 31.4564 72.8266 29.1377 72.2328 26.8671C72.2328 26.8627 72.2328 26.8627 72.2328 26.8627C71.6389 24.592 70.5996 22.3781 68.5298 21.352C64.3902 19.304 64.268 22.4829 61.255 18.7582C58.7135 15.6142 56.8053 18.959 55.3337 22.1773C55.063 22.7711 54.8097 23.3606 54.5652 23.9021C53.1591 27.0592 47.4999 28.9194 45.0546 27.4959C44.5219 27.1858 44.1376 26.723 43.9891 26.0767C43.1289 22.3781 44.0721 21.352 42.2337 20.6839C40.1552 19.9284 40.7709 24.6532 37.7186 23.7755C34.6663 22.8978 36.5483 19.9328 33.9152 19.1381C31.2821 18.3433 32.4087 22.3956 30.1075 19.9721C27.8106 17.5486 25.1339 20.5179 24.9679 25.199C24.7976 29.8801 21.706 30.3429 20.7847 28.0854C19.8677 25.8278 18.5708 27.5395 18.6537 29.7578C18.7367 31.9717 16.8154 31.8451 15.0163 29.3779C14.6408 28.867 14.1997 28.5089 13.7412 28.3255C11.9815 27.5963 9.99026 29.3211 10.9204 34.2293C12.0906 40.4168 12.8417 42.5914 11.5055 42.801C10.1649 43.0106 8.4925 46.5913 16.0206 49.7135C23.5444 52.8356 19.3655 55.1762 35.7536 58.9402C13.5098 55.7613 8.9117 48.3205 5.73713 40.4605C2.55819 32.6005 5.73713 29.4216 7.65847 29.8408ZM60.7135 8.89385C59.8358 9.18642 59.7528 10.2737 60.7572 10.2737C61.7571 10.2737 63.3073 11.2781 63.3903 10.0205C63.4732 8.76722 62.6829 8.23885 60.7135 8.89385ZM43.7402 8.34802C45.1201 6.47035 46.2467 7.34806 49.382 7.51399C52.8797 7.70176 52.2247 2.83292 49.5916 2.95519C48.3296 3.01632 42.9848 3.54032 41.2731 9.31306C40.8626 10.6929 42.3604 10.23 43.7402 8.34802ZM29.732 14.6753C29.8149 13.0029 28.8979 12.7278 26.9198 15.5137C28.7014 13.9505 29.649 16.3478 29.732 14.6753Z" fill="#ECF7F9"/>
<path d="M60.127 4.13072C62.0968 2.76133 66.022 3.75431 66.5657 2.75085C67.1093 1.74739 64.4335 1.07841 63.2628 1.70547C62.092 2.33252 61.7995 2.29061 62.0501 1.24566C62.3012 0.200285 60.503 0.116874 59.2908 2.33252C58.0782 4.54817 56.9913 5.09182 55.946 5.34291C54.901 5.59399 56.6988 6.51405 60.127 4.13072Z" fill="#ECF7F9"/>
<path d="M71.8344 4.00526C75.5527 3.23978 78.4713 4.78559 76.9766 5.92835C76.2657 6.472 74.0501 4.38167 70.9563 4.96681C67.8625 5.55194 70.4127 4.29782 71.8344 4.00526Z" fill="#ECF7F9"/>
<path d="M73.5061 8.22795C76.7383 9.06373 79.4011 11.9069 76.7252 11.6981C74.0493 11.489 74.9694 11.5728 77.0597 12.7016C79.1501 13.8304 82.453 17.1333 80.1116 18.5132C77.7702 19.8931 77.3104 13.9981 74.2585 12.9108C71.2066 11.8239 69.9521 12.0326 69.7849 10.9877C69.6176 9.94231 73.0459 9.31525 70.4958 9.39909C67.9456 9.4825 67.1094 10.6532 66.1479 9.85889C65.1863 9.06416 68.6565 6.97384 73.5061 8.22795Z" fill="#ECF7F9"/>
<path d="M80.4464 23.0698C82.6206 23.9479 83.5821 23.7807 83.0385 22.6934C82.4948 21.6065 82.5367 23.53 80.4464 23.0698Z" fill="#ECF7F9"/>
<path d="M80.3208 24.575C83.3312 25.202 84.1255 29.0905 85.2962 28.3377C86.4665 27.5853 84.2089 24.7841 80.3208 24.575Z" fill="#ECF7F9"/>
<path d="M85.2966 33.8982C86.3 35.7379 86.4253 37.9535 85.5891 37.3265C84.7533 36.6994 85.2966 33.8982 85.2966 33.8982Z" fill="#ECF7F9"/>
<path d="M74.8301 31.4315C73.5354 29.9639 74.4957 28.9788 73.9385 28.0591C73.3808 27.1395 75.5271 28.2543 75.2764 29.9263C75.0253 31.5988 75.6664 32.3795 74.8301 31.4315Z" fill="#7DE5F6"/>
<path d="M55.3324 21.1774C56.804 17.9591 58.7122 14.6143 61.2536 17.7583C64.2666 21.483 64.3889 18.3041 68.5285 20.3521C70.5983 21.3782 71.6376 23.5921 72.2314 25.8628C70.8778 18.1818 67.7076 17.3347 67.3058 18.4438C66.8561 19.6709 61.5069 12.5881 62.0658 16.1557C62.6029 19.6228 56.3018 8.50967 55.3324 21.1774Z" fill="#A9EAFA"/>
<path d="M78.5378 32.6302C78.2871 33.1311 78.705 33.9123 79.2626 33.7171C79.8203 33.5219 78.8718 31.9613 78.5378 32.6302Z" fill="#7DE5F6"/>
<path d="M62.8034 17.4678C63.168 18.5621 65.1448 18.5131 65.1029 17.8857C65.0609 17.2586 62.6361 16.966 62.8034 17.4678Z" fill="#7DE5F6"/>
<path d="M54.149 20.0179C54.5442 21.731 50.8879 25.4112 49.8426 24.2824C48.7972 23.1536 51.9329 22.9864 52.7272 21.8576C53.5215 20.7288 53.7726 18.3874 54.149 20.0179Z" fill="#7DE5F6"/>
<path d="M47.7099 22.9863C46.5553 24.1409 47.5007 25.0347 46.33 24.3658C45.1593 23.6968 44.4069 21.7737 45.703 22.1916C46.999 22.6099 47.5426 21.0209 48.295 21.5226C49.0478 22.0248 48.2535 22.4427 47.7099 22.9863Z" fill="#7DE5F6"/>
<path opacity="0.37" d="M55.0807 31.1281C53.9485 33.1804 53.0908 35.4821 53.1411 37.8812C53.1633 39.0711 53.4188 40.2579 53.893 41.3478C54.3694 42.4382 55.0646 43.4181 55.8698 44.2766C57.4942 45.9962 59.5413 47.2319 61.6727 48.1734C63.8141 49.1122 66.0677 49.7633 68.3528 50.2152C68.3825 50.2209 68.4109 50.2017 68.417 50.1725C68.4227 50.1432 68.4034 50.1148 68.3746 50.1083C66.1035 49.6218 63.8704 48.9376 61.7626 47.9734C59.6649 47.0075 57.6654 45.7521 56.1117 44.053C55.341 43.205 54.686 42.2478 54.2463 41.1959C53.8087 40.1444 53.5838 39.0112 53.5803 37.8755C53.5677 35.5882 54.424 33.3813 55.558 31.4006C55.6336 31.2687 55.5899 31.0975 55.458 31.022C55.3261 30.9465 55.1585 30.9923 55.0829 31.1242C55.0825 31.125 55.0812 31.1272 55.0807 31.1281Z" fill="#86FFFF"/>
<path opacity="0.37" d="M33.4982 39.3866C33.4096 41.1131 33.7646 42.8856 34.6056 44.4069C35.4379 45.9339 36.7007 47.1863 38.1352 48.1247C39.5723 49.0705 41.1822 49.7155 42.832 50.1447C44.4839 50.5792 46.1869 50.7805 47.8868 50.8264C48.7361 50.8469 49.5916 50.8098 50.4313 50.7831C51.2741 50.7486 52.1181 50.7482 52.9618 50.7526C54.6495 50.7665 56.3368 50.8582 58.0166 51.0242C59.6965 51.1914 61.3707 51.425 63.0261 51.7582C64.6784 52.0962 66.3251 52.5014 67.8975 53.111C67.9255 53.1224 67.9573 53.1088 67.9687 53.0809C67.98 53.0529 67.9661 53.021 67.9386 53.0097C66.3609 52.3809 64.7133 51.9586 63.0579 51.6032C61.3999 51.2526 59.7222 51.0019 58.038 50.8176C56.3534 50.6351 54.6604 50.5264 52.9657 50.4958C52.1186 50.4836 51.2706 50.4757 50.423 50.5019C49.5724 50.5211 48.7366 50.5495 47.8951 50.5211C46.2161 50.46 44.5393 50.2447 42.9224 49.8028C41.3071 49.3661 39.7404 48.7194 38.357 47.7893C36.9754 46.8667 35.7785 45.6514 35.0012 44.193C34.2161 42.7384 33.896 41.0629 33.9951 39.4158C34.0034 39.2787 33.8986 39.1608 33.7615 39.1525C33.6244 39.1447 33.5065 39.249 33.4982 39.3866Z" fill="#86FFFF"/>
<path opacity="0.37" d="M43.9303 33.4014C42.1177 36.3659 41.7872 40.2011 43.2042 43.3805C43.9076 44.9621 45.0914 46.3494 46.6049 47.211C47.3573 47.6441 48.1809 47.9476 49.0258 48.1236C49.869 48.3079 50.7428 48.3371 51.5886 48.3315C54.9549 48.2965 58.3168 48.8065 61.6075 49.5397C63.2537 49.9131 64.8851 50.3563 66.4903 50.8798C68.0933 51.4078 69.6788 52.0047 71.1801 52.7741C71.2067 52.7885 71.2399 52.7789 71.2543 52.7523C71.2687 52.7261 71.2578 52.6924 71.2321 52.678C69.7304 51.8855 68.1466 51.2685 66.5444 50.7196C64.9397 50.1751 63.3083 49.7113 61.6599 49.317C58.3639 48.5424 54.9937 47.9887 51.5869 47.983C50.7428 47.9786 49.917 47.9419 49.1057 47.7564C48.2974 47.5791 47.5167 47.2813 46.8075 46.8625C45.3814 46.0298 44.2762 44.7071 43.622 43.1958C42.3024 40.1579 42.6614 36.4834 44.4102 33.6987C44.4932 33.5669 44.4535 33.3926 44.3212 33.3097C44.1893 33.2267 44.015 33.2664 43.9321 33.3988L43.9303 33.4014Z" fill="#86FFFF"/>
<path opacity="0.37" d="M58.3402 52.6723C56.9363 52.412 55.5014 52.3845 54.0827 52.4592C52.6617 52.5299 51.2482 52.6784 49.8365 52.8225C47.0165 53.1168 44.1869 53.3832 41.3634 53.2535C38.5456 53.1365 35.7392 52.5911 33.1541 51.4881C31.8616 50.9405 30.6249 50.2667 29.459 49.4859C28.3014 48.6912 27.218 47.7943 26.1949 46.8327L26.1906 46.8284C26.0753 46.7201 25.8945 46.7258 25.7862 46.841C25.6779 46.9563 25.6836 47.1371 25.7989 47.2454L25.8015 47.248C26.86 48.2157 27.9792 49.1174 29.1739 49.9134C30.3769 50.6964 31.6515 51.3684 32.9794 51.9094C35.6361 53.0007 38.5011 53.5142 41.3503 53.5937C44.2061 53.6858 47.0449 53.3784 49.861 53.0461C51.2705 52.8828 52.6788 52.7155 54.0918 52.626C55.5031 52.5326 56.9267 52.5409 58.3196 52.7797C58.3493 52.7854 58.3777 52.7662 58.3838 52.7365C58.3895 52.7072 58.369 52.6788 58.3402 52.6723Z" fill="#86FFFF"/>
<path d="M13.7413 27.3254C14.1998 27.5088 14.6408 27.8669 15.0164 28.3778C16.8154 30.845 18.7368 30.9716 18.6538 28.7577C18.5708 26.5394 19.8677 24.8277 20.7847 27.0853C21.7061 29.3428 24.7977 28.88 24.968 24.1989C25.1339 19.5178 27.8107 16.5485 30.1076 18.972C32.4088 21.3955 31.2822 17.3432 33.9153 18.138C36.5484 18.9327 34.6664 21.8977 37.7187 22.7754C40.771 23.6531 40.1553 18.9283 42.2338 19.6838C44.0722 20.3519 43.129 21.378 43.9892 25.0766C44.1377 25.7229 44.522 26.1857 45.0547 26.4958C43.5857 24.9233 44.3386 21.5833 43.9499 18.4305C43.2775 12.994 39.6007 23.5701 38.7623 18.2602C37.9283 12.9504 34.8323 18.8454 33.2865 16.8411C31.7407 14.8324 30.5705 19.3912 28.3522 16.7144C26.1383 14.0377 24.8414 24.5351 23.92 21.6881C23.003 18.8454 22.3742 26.8757 21.4135 26.2905C20.4529 25.7054 18.6101 23.4042 17.9857 27.5438C17.4049 31.3646 14.9378 26.8844 13.7413 27.3254Z" fill="#A9EAFA"/>
<path d="M57.6061 31.4314C56.5729 32.4942 55.7961 33.8366 55.3922 35.2972C54.9756 36.7548 54.9332 38.3238 55.2507 39.8154C55.5751 41.3071 56.2576 42.7101 57.1947 43.8917C58.1239 45.0834 59.2955 46.0501 60.5605 46.8173C59.4427 45.8423 58.4287 44.779 57.6074 43.5899C56.793 42.3992 56.1838 41.0752 55.8904 39.6774C55.5825 38.284 55.5908 36.8264 55.8865 35.4204C56.1895 34.0147 56.7703 32.6562 57.6061 31.4314Z" fill="#47B2FF"/>
<path d="M52.0304 34.2747C51.9081 34.5083 51.7837 34.7458 51.6701 34.9899C51.5933 35.2454 51.509 35.5026 51.4374 35.7637C51.402 36.0305 51.3632 36.2991 51.3361 36.5685L51.3365 37.3807C51.3994 38.4662 51.723 39.5164 52.1522 40.5011C52.595 41.4827 53.1544 42.4098 53.8321 43.2421C54.5072 44.07 55.2818 44.842 56.2119 45.3673C55.8071 45.0215 55.4133 44.6748 55.077 44.2682C54.8989 44.0757 54.7264 43.8791 54.5683 43.6691C54.4015 43.4669 54.2452 43.2573 54.0998 43.039C53.502 42.181 52.971 41.277 52.5513 40.3242C52.126 39.3754 51.8068 38.3767 51.6693 37.3488C51.5374 36.3248 51.6173 35.258 52.0304 34.2747Z" fill="#47B2FF"/>
<path d="M45.2293 34.2188C44.5524 35.6606 44.0852 37.2283 43.9835 38.8535C43.8774 40.4653 44.142 42.1809 45.0433 43.6071C45.4917 44.3123 46.0773 44.9324 46.7537 45.4162C47.434 45.8943 48.1886 46.2537 48.9715 46.4852C50.5383 46.9646 52.174 47.0175 53.7578 46.8729C52.1692 46.7638 50.592 46.5349 49.1361 46.0013C47.686 45.4717 46.3886 44.5494 45.5978 43.2595C44.776 41.9857 44.4931 40.4168 44.4922 38.8719C44.5048 37.3156 44.7891 35.7497 45.2293 34.2188Z" fill="#47B2FF"/>
<path d="M50.4141 54.0639C48.1482 54.2949 45.8902 54.5905 43.6366 54.8023C41.3838 55.0132 39.1236 55.0695 36.9023 54.7722C34.6783 54.4949 32.5085 53.8582 30.4064 53.0373C28.3052 52.2085 26.2572 51.2255 24.2145 50.2173C26.1306 51.4461 28.1126 52.5888 30.2112 53.5098C32.3024 54.4394 34.5272 55.1245 36.8184 55.4215C39.1101 55.7149 41.4323 55.6254 43.6929 55.3084C45.9592 55.008 48.1884 54.5446 50.4141 54.0639Z" fill="#47B2FF"/>
<path d="M26.0539 45.2563C26.7098 45.9576 27.4211 46.6026 28.16 47.2161C28.8957 47.8336 29.6756 48.3977 30.4782 48.9274C31.2869 49.4479 32.1201 49.9344 32.9934 50.3409C33.4301 50.5439 33.8724 50.7335 34.3209 50.9068C34.775 51.0662 35.2309 51.2195 35.6973 51.3326C35.2637 51.1256 34.8274 50.9348 34.4065 50.7103C33.9803 50.499 33.5593 50.2784 33.1476 50.0418C32.3227 49.5715 31.5092 49.0833 30.7166 48.5615C29.9184 48.048 29.142 47.4999 28.3643 46.951C27.5892 46.3978 26.8286 45.8223 26.0539 45.2563Z" fill="#47B2FF"/>
<path d="M24.7153 41.2983C25.152 42.5044 25.9301 43.5664 26.8017 44.4952C27.6864 45.4174 28.6741 46.2445 29.7881 46.8728C28.8855 45.9711 27.9777 45.1078 27.1187 44.1956C26.2524 43.2887 25.4542 42.3376 24.7153 41.2983Z" fill="#47B2FF"/>
<path d="M35.585 39.626C35.6557 41.1032 35.968 42.5861 36.6107 43.949C36.9369 44.6254 37.3448 45.2708 37.8592 45.824C38.3714 46.3782 38.9879 46.8288 39.6543 47.1515C39.0779 46.6843 38.5648 46.1673 38.1185 45.6031C37.6806 45.0319 37.3107 44.4132 37.0046 43.7608C36.6911 43.1119 36.4404 42.4307 36.2103 41.739C35.9911 41.0443 35.7898 40.3386 35.585 39.626Z" fill="#47B2FF"/>
<path d="M51.1943 51.2767C49.4787 51.2815 47.7726 51.2724 46.0775 51.1807C44.3858 51.0632 42.7012 50.8584 41.0855 50.4126C39.4703 49.9807 37.9197 49.2925 36.6175 48.2463C35.3115 47.2087 34.2447 45.8634 33.4119 44.3647C34.0111 45.9678 34.9687 47.4777 36.2896 48.6388C36.5979 48.9545 36.9786 49.1794 37.3267 49.448C37.6943 49.6864 38.0769 49.9039 38.4607 50.1165C39.2511 50.4977 40.0707 50.8147 40.9126 51.044C42.5999 51.4955 44.3369 51.6754 46.0604 51.6898C47.7853 51.6959 49.4996 51.5335 51.1943 51.2767Z" fill="#47B2FF"/>
<path d="M44.2832 46.3713C43.7561 45.756 43.2396 45.1473 42.7942 44.491C42.3558 43.8321 41.9719 43.1426 41.6951 42.4098C41.4091 41.6806 41.2331 40.9121 41.1278 40.1278C41.0244 39.3431 41.0025 38.5379 40.9383 37.731C40.8331 38.5309 40.7396 39.3388 40.7886 40.158C40.8265 40.9754 40.9929 41.7946 41.2877 42.5666C41.5877 43.3365 42.0104 44.0539 42.5213 44.6932C43.0291 45.3368 43.6426 45.8809 44.2832 46.3713Z" fill="#47B2FF"/>
<path d="M67.249 53.7854C66.222 53.309 65.1596 52.9064 64.074 52.5749C62.9893 52.2413 61.8806 51.9859 60.7628 51.785C59.6432 51.5933 58.5131 51.4614 57.3786 51.4138C56.245 51.3667 55.1079 51.3745 53.9818 51.5003C54.5473 51.5326 55.1106 51.5527 55.6721 51.6046C56.2341 51.6378 56.7943 51.6902 57.3533 51.7487C58.4703 51.8749 59.5838 52.0164 60.6881 52.2151C61.7946 52.4029 62.8907 52.6439 63.9858 52.8976C64.5316 53.0312 65.0779 53.1675 65.6181 53.3264C66.1678 53.4561 66.6993 53.6434 67.249 53.7854Z" fill="#47B2FF"/>
<path d="M59.0547 49.6043C58.0988 49.3777 57.1277 49.2301 56.1543 49.1122C55.181 48.989 54.202 48.9226 53.2226 48.8742C52.2431 48.8362 51.2624 48.817 50.2825 48.8488L48.8135 48.9113C48.3245 48.9532 47.8354 48.9842 47.3485 49.0471C47.8385 49.0829 48.3271 49.0947 48.8157 49.1253L50.2799 49.1842L53.2038 49.31L56.126 49.4453L59.0547 49.6043Z" fill="#47B2FF"/>
<path d="M74.8857 51.7505C73.9124 51.178 72.9046 50.6588 71.8496 50.237C70.7985 49.8069 69.6881 49.506 68.575 49.2986C67.4593 49.0986 66.3646 48.9161 65.2944 48.6004C65.0249 48.5283 64.7586 48.4449 64.4953 48.3506C64.2293 48.2641 63.966 48.169 63.7062 48.0633C63.1735 47.8825 62.6639 47.6445 62.1346 47.4441C62.6198 47.7327 63.1128 48.0104 63.6219 48.2598C63.8748 48.3877 64.135 48.5008 64.3979 48.6082C64.6581 48.7231 64.9228 48.8266 65.1917 48.92C65.7236 49.1257 66.2799 49.2606 66.8319 49.3982C67.3864 49.5204 67.9449 49.6191 68.4934 49.7274C69.5973 49.9226 70.6715 50.2025 71.7352 50.5514C72.2649 50.7304 72.7932 50.9186 73.3137 51.1304C73.8456 51.3138 74.3534 51.5571 74.8857 51.7505Z" fill="#47B2FF"/>
<path d="M71.792 53.8407C70.9562 53.3193 70.082 52.8635 69.1899 52.4447C68.2982 52.0242 67.3782 51.6661 66.4485 51.3386C65.5153 51.0212 64.5704 50.7369 63.6106 50.5133C63.1311 50.4007 62.6499 50.2972 62.1687 50.198C61.6832 50.1151 61.2015 50.0208 60.7133 49.9526C61.6456 50.2723 62.5888 50.5417 63.5215 50.8373C64.4534 51.1351 65.3852 51.4277 66.3061 51.7513C67.2306 52.0652 68.1441 52.4089 69.0598 52.7525C69.9715 53.1041 70.875 53.4805 71.792 53.8407Z" fill="#47B2FF"/>
<path d="M69.7021 56.1404C67.0791 54.8553 64.2547 53.9605 61.3535 53.4915C59.9016 53.2671 58.4309 53.1457 56.962 53.171C55.4934 53.1868 54.0284 53.3549 52.6027 53.6741C55.5205 53.5439 58.4034 53.6767 61.2513 54.1382C64.1028 54.5788 66.8944 55.3369 69.7021 56.1404Z" fill="#47B2FF"/>
<path d="M42.2754 56.3074C41.2147 56.3559 40.1624 56.4123 39.1117 56.4066C38.0616 56.3909 37.0149 56.3367 35.98 56.1922C34.9442 56.0572 33.9228 55.831 32.9168 55.5376C31.912 55.2389 30.9304 54.8529 29.9417 54.4678C30.3959 54.7424 30.8644 54.9918 31.3404 55.2298C31.819 55.4616 32.3128 55.6634 32.8111 55.8559C33.8119 56.2315 34.8617 56.4769 35.9215 56.6245C36.983 56.7616 38.0554 56.8048 39.1196 56.7406C40.1838 56.6764 41.2387 56.5345 42.2754 56.3074Z" fill="#47B2FF"/>
<path d="M33.7051 53.4229C32.747 52.9356 31.7689 52.5431 30.7973 52.1322L29.3371 51.5287C28.8528 51.3199 28.3651 51.1278 27.8939 50.8728C28.2581 51.2758 28.7249 51.5662 29.1865 51.8343C29.6519 52.102 30.1384 52.3269 30.6305 52.5352C31.6191 52.9378 32.6409 53.2636 33.7051 53.4229Z" fill="#47B2FF"/>
<path d="M42.4844 52.2522C41.7512 52.1129 41.0386 51.9265 40.3334 51.7234C39.6299 51.5134 38.9343 51.2811 38.2544 51.0103C37.5719 50.7462 36.9046 50.4444 36.254 50.1086C35.6077 49.7654 34.9737 49.3934 34.3733 48.9497C35.3527 50.0925 36.7081 50.8636 38.0946 51.4169C39.4928 51.9514 40.9862 52.3055 42.4844 52.2522Z" fill="#47B2FF"/>
<path d="M46.0801 49.3677C45.3736 49.0646 44.6696 48.796 43.9893 48.4934C43.3116 48.1873 42.6522 47.8598 42.0435 47.4594C41.4283 47.0699 40.8654 46.607 40.3493 46.087C39.8344 45.5638 39.3781 44.9761 38.9305 44.3503C39.131 45.0922 39.4873 45.7979 39.9619 46.4206C40.4331 47.0485 41.0318 47.5799 41.689 48.0096C42.3527 48.4306 43.071 48.7528 43.8129 48.9712C44.5535 49.1934 45.3124 49.3284 46.0801 49.3677Z" fill="#47B2FF"/>
<path d="M59.292 47.8205C58.0073 47.1013 56.634 46.5498 55.2768 46.0122C53.924 45.4647 52.566 44.9363 51.3399 44.2079C50.1093 43.501 49.0334 42.5294 48.4448 41.2535C47.8487 39.9793 47.7662 38.4924 47.878 37.0339C47.688 37.7448 47.5902 38.4815 47.5758 39.2299C47.5762 39.9771 47.6937 40.7391 47.9745 41.453C48.2448 42.1713 48.6867 42.822 49.2107 43.3796C49.7403 43.9355 50.3626 44.3839 51.0062 44.7712C52.3101 45.5289 53.7083 46.038 55.1035 46.4908C56.4986 46.9511 57.9056 47.3336 59.292 47.8205Z" fill="#47B2FF"/>
<path d="M49.425 36.365C49.2241 37.0056 49.0639 37.6628 49.0049 38.3413C48.9394 39.0177 48.9743 39.7147 49.1429 40.3884C49.3162 41.0596 49.6302 41.7002 50.0708 42.2307C50.5049 42.7674 51.0542 43.1897 51.6406 43.5141C51.1516 43.0504 50.707 42.5639 50.345 42.0286C49.987 41.491 49.7193 40.9024 49.5656 40.2801C49.2376 39.0326 49.3547 37.7047 49.425 36.365Z" fill="#47B2FF"/>
<path d="M45.369 40.3369C45.2341 40.7675 45.2712 41.2456 45.3869 41.684C45.5013 42.1272 45.7031 42.5421 45.9476 42.9246C46.1991 43.3032 46.4996 43.6499 46.8524 43.9368C47.2017 44.2232 47.6056 44.4617 48.0449 44.5595C47.6838 44.2962 47.3742 44.0032 47.0869 43.6892C46.8039 43.3726 46.5402 43.0403 46.3127 42.6844C46.0782 42.3333 45.8773 41.9613 45.7088 41.5749C45.5446 41.1854 45.4166 40.7819 45.369 40.3369Z" fill="#47B2FF"/>
<path d="M43.0557 26.3586C41.9732 27.7909 40.9924 29.3057 40.1719 30.9144C39.3549 32.5213 38.7235 34.2449 38.4449 36.0492C38.1947 37.8504 38.3523 39.7416 39.065 41.428C39.2375 41.8494 39.4759 42.2415 39.6776 42.6476C39.9287 43.0258 40.1807 43.4039 40.4444 43.7707C40.7453 44.11 41.0352 44.4563 41.3417 44.7851C41.6692 45.0951 41.9998 45.4004 42.3312 45.7017C42.0317 45.3659 41.7308 45.034 41.4273 44.7074C41.1474 44.3589 40.8867 43.9965 40.6169 43.6441C40.3772 43.2703 40.1453 42.8913 39.9178 42.5123C39.7396 42.107 39.5252 41.7184 39.3767 41.3036C38.7549 39.6521 38.6034 37.8521 38.8768 36.1116C39.1108 34.3606 39.7313 32.6755 40.4732 31.0598C40.6444 30.648 40.8562 30.255 41.0592 29.8572L41.3649 29.2607L41.6968 28.6782C42.1151 27.8861 42.6024 27.135 43.0557 26.3586Z" fill="#47B2FF"/>
<path d="M33.3565 47.8763C31.8242 46.1322 30.5671 44.1463 29.8217 41.9695C29.0828 39.7923 28.8466 37.4644 29.0667 35.1806C29.2488 32.8894 29.8614 30.6454 30.6771 28.4883C31.0771 27.4045 31.5557 26.3499 32.0631 25.3093C32.3259 24.7936 32.5735 24.2683 32.8499 23.7587L33.6914 22.2339C32.3897 24.1587 31.2579 26.2067 30.3649 28.3647C29.475 30.5209 28.8527 32.8047 28.6322 35.1435C28.4431 37.4788 28.6811 39.877 29.5073 42.0821C29.7479 42.6179 29.9706 43.1611 30.226 43.6873C30.5247 44.1912 30.7981 44.7104 31.1168 45.1991C31.4705 45.6654 31.8059 46.1436 32.1718 46.5955L33.3565 47.8763Z" fill="#47B2FF"/>
<path d="M36.7559 29.9822C36.3537 30.6193 35.9873 31.2865 35.7127 31.993C35.4162 32.6917 35.2079 33.424 35.0323 34.1619C34.8651 34.9025 34.7638 35.658 34.7258 36.4152C34.6861 37.1715 34.7158 37.9356 34.8612 38.678C34.8856 37.9243 34.9703 37.1828 35.0651 36.4462C35.1708 35.7108 35.2878 34.9785 35.4585 34.2567C35.6218 33.5345 35.8065 32.8153 36.0327 32.107C36.248 31.3952 36.5043 30.6953 36.7559 29.9822Z" fill="#47B2FF"/>
<path d="M54.707 25.2998C53.2455 26.1565 51.8643 27.1683 50.6438 28.3669C49.4417 29.5804 48.4138 30.9717 47.6134 32.4886C46.8444 34.0187 46.3029 35.6802 46.1492 37.392C46.0632 38.2461 46.1043 39.1094 46.2235 39.9561C46.3824 40.798 46.6435 41.6224 47.0697 42.3573C46.3872 40.8002 46.2567 39.0775 46.4828 37.4273C46.6999 35.7732 47.2221 34.1628 48.0011 32.6873C48.7491 31.1931 49.7557 29.8394 50.884 28.5988L51.7735 27.7063C52.0608 27.3975 52.4054 27.1517 52.7171 26.8687C53.3298 26.2849 54.0459 25.8334 54.707 25.2998Z" fill="#47B2FF"/>
<path d="M26.501 49.9387C24.8329 48.9715 23.3068 47.7458 22.205 46.1882C21.0964 44.6402 20.4138 42.8171 20.1418 40.9346C19.8309 39.0535 19.896 37.123 20.1104 35.2182C20.2152 34.2641 20.3697 33.3139 20.5536 32.3685C20.7234 31.4197 20.9409 30.4795 21.1492 29.5359C20.8453 30.4538 20.5863 31.3852 20.3444 32.3227C20.1169 33.2637 19.9243 34.2143 19.7772 35.1746C19.4912 37.0937 19.4252 39.0626 19.7108 41.0023C20.0248 42.9298 20.7309 44.8306 21.9361 46.3869C22.5352 47.1633 23.2369 47.8549 24.0076 48.4492C24.7871 49.0335 25.6224 49.5352 26.501 49.9387Z" fill="#47B2FF"/>
<path d="M26.054 34.0515C25.6693 34.8938 25.523 35.8322 25.5322 36.7562C25.5501 37.6833 25.7243 38.5972 26.054 39.4588C26.0654 38.9955 26.0374 38.5413 26.0156 38.0915C25.9955 37.6413 25.9724 37.1955 25.9689 36.7497C25.947 35.8558 26.0056 34.9742 26.054 34.0515Z" fill="#47B2FF"/>
<path d="M33.5791 19.0564L32.2931 20.8646C31.8726 21.4729 31.4543 22.0834 31.0491 22.7047C30.236 23.9444 29.5011 25.2435 28.888 26.6029C28.2832 27.9648 27.8033 29.3879 27.5116 30.8495C27.4269 31.2123 27.3741 31.5813 27.3204 31.9494C27.261 32.3167 27.2086 32.6843 27.1846 33.0559C27.1156 33.7961 27.1064 34.5388 27.1125 35.2781C27.2583 33.8044 27.4776 32.3468 27.8387 30.9246C28.2024 29.5041 28.6828 28.1164 29.2862 26.7806C29.8788 25.4396 30.5927 24.154 31.3333 22.8798C32.0765 21.6078 32.8721 20.3581 33.5791 19.0564Z" fill="#47B2FF"/>
<path d="M70.4824 26.9163C69.2427 26.3168 67.9292 25.8443 66.552 25.6098C65.18 25.3679 63.7324 25.4203 62.3827 25.8434C61.0334 26.2678 59.8151 27.0512 58.8273 28.0346C57.8322 29.0154 57.0292 30.1612 56.379 31.3755L56.9925 30.5459C57.2095 30.2795 57.4187 30.0083 57.6405 29.7481C58.0841 29.2284 58.5466 28.7258 59.057 28.2796C60.0697 27.3822 61.2303 26.6543 62.5119 26.26C63.7888 25.8487 65.1608 25.784 66.5053 25.9408C66.8445 25.9609 67.1755 26.0478 67.5122 26.098C67.8506 26.1443 68.1777 26.2434 68.5087 26.3281C69.182 26.4656 69.8183 26.7242 70.4824 26.9163Z" fill="#47B2FF"/>
<path d="M59.835 24.4636C58.5402 24.6427 57.3097 25.1863 56.1993 25.8824C55.0827 26.5793 54.0867 27.4605 53.216 28.4478C52.354 29.4421 51.6208 30.5582 51.1112 31.7752C50.9824 32.0778 50.8863 32.3952 50.7728 32.7031C50.6719 33.0157 50.6082 33.3406 50.5265 33.6581C50.468 33.9812 50.4458 34.3113 50.4047 34.6345C50.3912 34.9615 50.4073 35.2895 50.4143 35.613C50.4545 35.2886 50.4781 34.9659 50.5195 34.6476C50.5929 34.3323 50.6462 34.0153 50.7348 33.707C50.8374 33.4022 50.9156 33.0913 51.0335 32.7935C51.1632 32.5 51.2737 32.1996 51.4173 31.9136C51.9824 30.7665 52.6998 29.6949 53.5452 28.7342C54.3836 27.7674 55.3412 26.905 56.3844 26.1609C56.9067 25.7893 57.4582 25.4588 58.0337 25.1723C58.3158 25.016 58.6197 24.909 58.914 24.7741C59.2149 24.6584 59.5267 24.5728 59.835 24.4636Z" fill="#47B2FF"/>
<path d="M42.666 29.5364C42.0883 30.2927 41.573 31.0961 41.1272 31.9428C40.6766 32.7869 40.3194 33.6856 40.0678 34.6157C39.8251 35.5475 39.6906 36.5134 39.7189 37.4772C39.7233 37.7178 39.7329 37.9579 39.7635 38.1968C39.7901 38.4357 39.8041 38.6749 39.8552 38.9099C39.9412 39.3815 40.0644 39.8439 40.2133 40.2954C40.0783 39.3531 40.0076 38.4143 40.0547 37.4815C40.105 36.5501 40.2456 35.627 40.4897 34.7279C40.7228 33.8258 41.0578 32.9507 41.4285 32.0883C41.804 31.2263 42.2407 30.3879 42.666 29.5364Z" fill="#47B2FF"/>
<path d="M14.1807 32.2122C14.0396 32.7921 13.8855 33.3719 13.7663 33.9588C13.689 34.5518 13.5672 35.1435 13.5257 35.7426C13.451 36.9404 13.4523 38.1548 13.6523 39.3469C14.0078 41.7389 15.0064 44.0262 16.4514 45.9672C17.9194 47.8972 19.798 49.4828 21.8516 50.7286C23.9096 51.977 26.1244 52.929 28.3955 53.6739C27.3038 53.1827 26.1833 52.7696 25.134 52.1984C24.5991 51.9368 24.0607 51.6823 23.5555 51.367L22.7852 50.9181C22.5271 50.7709 22.2704 50.6216 22.0315 50.4447C20.0425 49.1579 18.2037 47.6055 16.7998 45.7043C15.3632 43.8319 14.4003 41.6158 13.9824 39.2918C13.5554 36.9653 13.6873 34.5483 14.1807 32.2122Z" fill="#47B2FF"/>
<path d="M80.8317 11.7405C80.1392 11.7405 79.5814 11.516 79.1581 11.0672C78.7414 10.6119 78.533 9.95467 78.533 9.09544C78.533 8.16567 78.7606 7.27438 79.2159 6.42156C79.6775 5.56233 80.2386 4.86982 80.8991 4.34402C81.5659 3.81181 82.1687 3.54571 82.7073 3.54571C82.9253 3.54571 83.0952 3.58739 83.217 3.67074C83.3453 3.74769 83.4543 3.89196 83.5441 4.10357C83.076 4.27669 82.6303 4.4915 82.2071 4.74799C81.7903 5.00447 81.3736 5.36997 80.9568 5.84447C80.5464 6.31897 80.1937 6.92171 79.8988 7.6527H79.9565C80.2258 7.29362 80.5111 7.04354 80.8125 6.90248C81.1139 6.755 81.4345 6.68126 81.7743 6.68126C82.1975 6.68126 82.5598 6.77744 82.8612 6.9698C83.169 7.16217 83.3998 7.42507 83.5537 7.7585C83.714 8.09193 83.7941 8.47346 83.7941 8.90307C83.7941 9.42887 83.6563 9.90978 83.3806 10.3458C83.1112 10.7818 82.749 11.1249 82.2937 11.375C81.8384 11.6186 81.3511 11.7405 80.8317 11.7405ZM80.976 10.9902C81.2132 10.9902 81.4537 10.9101 81.6974 10.7498C81.941 10.5895 82.1462 10.3522 82.3129 10.038C82.4796 9.71742 82.563 9.33589 82.563 8.89345C82.563 8.48308 82.4604 8.14002 82.2552 7.8643C82.05 7.58217 81.7102 7.4411 81.2357 7.4411C81.0177 7.4411 80.7933 7.51804 80.5624 7.67194C80.3316 7.82583 80.1392 8.05025 79.9853 8.34521C79.8314 8.64017 79.7545 8.99284 79.7545 9.40322C79.7545 9.85207 79.8507 10.2304 80.043 10.5382C80.2354 10.8395 80.5464 10.9902 80.976 10.9902ZM86.7188 11.7405C86.4944 11.7405 86.3245 11.6571 86.2091 11.4904C86.0937 11.3173 86.0359 11.0672 86.0359 10.7402C86.0359 10.2079 86.0872 9.6052 86.1898 8.93193C86.2924 8.25224 86.4592 7.41224 86.69 6.41195C86.363 6.41195 86.0937 6.34782 85.8821 6.21958C85.6769 6.09134 85.5518 5.9118 85.5069 5.68096C85.8147 5.59119 86.0776 5.49821 86.2956 5.40203C86.5201 5.30585 86.7637 5.18722 87.0266 5.04615C87.2126 4.94356 87.3601 4.87303 87.4691 4.83455C87.5781 4.78967 87.6839 4.76722 87.7865 4.76722C88.043 4.76722 88.1712 4.9147 88.1712 5.20966C88.1712 5.30585 88.1456 5.48218 88.0943 5.73867C88.043 5.98874 87.982 6.26126 87.9115 6.55622C87.7127 7.40904 87.5524 8.15926 87.4306 8.80689C87.3152 9.45452 87.2575 10.0637 87.2575 10.6344C87.2575 10.9806 87.312 11.282 87.421 11.5385C87.1709 11.6731 86.9369 11.7405 86.7188 11.7405Z" fill="black"/>
<defs>
<linearGradient id="paint0_linear_126_1778" x1="75.3447" y1="56.5168" x2="1.5" y2="46.9901" gradientUnits="userSpaceOnUse">
<stop stop-color="#02F4FB"/>
<stop offset="1" stop-color="#33B5F0"/>
</linearGradient>
<linearGradient id="paint1_linear_126_1778" x1="50.4373" y1="62.4075" x2="43.079" y2="23.442" gradientUnits="userSpaceOnUse">
<stop stop-color="#02F5FB"/>
<stop offset="1" stop-color="#0456DE"/>
</linearGradient>
</defs>
</svg>
