<svg width="95" height="61" viewBox="0 0 95 61" fill="none" xmlns="http://www.w3.org/2000/svg">
<path d="M93.623 0.75V59.96H0.75V0.75H93.623Z" fill="#FFC270" stroke="black" stroke-width="1.5"/>
<path d="M80.3989 11.7501C79.6679 11.7501 79.0876 11.593 78.658 11.2788C78.2348 10.9646 78.0232 10.5318 78.0232 9.98032C78.0232 9.71742 78.0841 9.46414 78.206 9.22047C78.3278 8.9704 78.5458 8.71712 78.86 8.46063C79.1742 8.20415 79.607 7.94766 80.1585 7.69117C80.6458 7.47316 81.0241 7.25515 81.2934 7.03713C81.5627 6.81271 81.7455 6.59469 81.8417 6.38309C81.9442 6.17149 81.9955 5.94706 81.9955 5.70981C81.9955 5.42768 81.8994 5.20325 81.707 5.03654C81.521 4.86982 81.2646 4.78646 80.9375 4.78646C80.5849 4.78646 80.2931 4.87303 80.0623 5.04615C79.8379 5.21287 79.7256 5.45012 79.7256 5.7579C79.7256 5.97592 79.793 6.1779 79.9276 6.36385C80.0623 6.54981 80.229 6.71973 80.4278 6.87362C80.633 7.02751 80.9087 7.21667 81.2549 7.4411C81.6653 7.704 81.9955 7.93484 82.2456 8.13361C82.4957 8.32598 82.7073 8.55361 82.8804 8.81651C83.0536 9.07941 83.1401 9.37437 83.1401 9.70139C83.1401 10.0989 83.0247 10.4548 82.7939 10.769C82.563 11.0768 82.2392 11.3173 81.8224 11.4904C81.4056 11.6635 80.9311 11.7501 80.3989 11.7501ZM80.4951 10.9421C80.8991 10.9421 81.2357 10.8428 81.505 10.644C81.7743 10.4388 81.909 10.1534 81.909 9.78795C81.909 9.60841 81.8449 9.43528 81.7166 9.26857C81.5884 9.10185 81.4313 8.94796 81.2453 8.80689C81.0594 8.66582 80.7997 8.47987 80.4662 8.24903C80.043 7.9669 79.7 7.72003 79.4371 7.50843C79.1806 7.29682 78.9594 7.05316 78.7734 6.77744C78.5875 6.50172 78.4945 6.20034 78.4945 5.87332C78.4945 5.50142 78.5939 5.17119 78.7927 4.88264C78.9979 4.5941 79.2864 4.37288 79.6583 4.21898C80.0302 4.05868 80.4598 3.97853 80.9472 3.97853C81.6012 3.97853 82.1174 4.13563 82.4957 4.44982C82.874 4.76402 83.0632 5.18402 83.0632 5.70981C83.0632 6.14584 82.8772 6.56584 82.5053 6.9698C82.1334 7.36736 81.6012 7.72003 80.9087 8.02781C80.3572 8.27147 79.9148 8.56323 79.5814 8.90307C79.2543 9.24292 79.0908 9.602 79.0908 9.98032C79.0908 10.2689 79.2223 10.5029 79.4852 10.6824C79.7481 10.8556 80.0847 10.9421 80.4951 10.9421ZM85.5269 11.5C85.0268 11.5 84.6613 11.4295 84.4305 11.2884C84.1996 11.1473 84.0842 10.9261 84.0842 10.6247C84.0842 10.426 84.1547 10.1791 84.2958 9.88413C84.4369 9.58276 84.6677 9.14994 84.9883 8.58567C85.264 8.11117 85.4853 7.71041 85.652 7.38339C85.8251 7.05637 85.9726 6.72294 86.0944 6.38309C86.2163 6.03683 86.2772 5.72264 86.2772 5.4405C86.2772 5.28661 86.2515 5.11669 86.2002 4.93074C86.3221 4.87303 86.4375 4.83135 86.5465 4.8057C86.6555 4.78005 86.7677 4.76722 86.8831 4.76722C87.4025 4.76722 87.6622 5.08142 87.6622 5.70981C87.6622 6.2805 87.4314 6.9698 86.9697 7.77774C86.5144 8.57926 85.8187 9.51864 84.8825 10.5959H88.0758L87.7969 11.3173C87.5019 11.3686 87.1396 11.4134 86.71 11.4519C86.2804 11.484 85.886 11.5 85.5269 11.5ZM88.3451 13.1351C88.0822 13.1351 87.877 13.0485 87.7295 12.8754C87.5885 12.7087 87.5179 12.4682 87.5179 12.154C87.5179 11.8398 87.6077 11.3269 87.7872 10.6151C87.9732 9.90337 88.2233 9.08261 88.5375 8.15285C88.6465 8.06949 88.7715 8.00216 88.9126 7.95087C89.0536 7.89957 89.1851 7.87392 89.3069 7.87392C89.4159 7.87392 89.4929 7.89316 89.5378 7.93163C89.5826 7.96369 89.6051 8.0214 89.6051 8.10476C89.6051 8.18812 89.5858 8.31636 89.5474 8.48949C89.5089 8.66262 89.464 8.85178 89.4127 9.05696C89.2717 9.58276 89.1562 10.0765 89.0665 10.5382C88.9831 10.9934 88.9414 11.4455 88.9414 11.8943C88.9414 12.3176 89.0184 12.6542 89.1723 12.9043C89.0055 12.9876 88.8613 13.0453 88.7394 13.0774C88.6176 13.1159 88.4862 13.1351 88.3451 13.1351Z" fill="black"/>
</svg>
