<svg width="95" height="61" viewBox="0 0 95 61" fill="none" xmlns="http://www.w3.org/2000/svg">
<path d="M93.623 0.75V59.96H0.75V0.75H93.623Z" fill="#3BA15C" stroke="black" stroke-width="1.5"/>
<path d="M64.1034 50.9546C61.872 48.0292 58.0906 46.7176 54.6008 46.1047C51.2025 45.5868 47.6301 45.2884 44.9063 42.9662C42.3257 40.8299 40.3975 37.7464 38.4452 34.9851L27.2365 1.36312C27.1655 1.13185 26.9387 0.988091 26.6999 1.01619L1.68045 3.36887C1.40293 3.39605 1.19321 3.63462 1.20992 3.91218L2.52572 29.0397C2.5402 29.2796 2.71901 29.478 2.95697 29.5201L37.7005 35.6483C38.2202 36.5568 39.7267 38.6079 40.6404 39.8031C43.2028 43.5748 47.2055 46.4236 51.8506 46.7094C54.434 46.9777 56.9693 47.6014 59.3845 48.5628C64.0642 50.921 66.8525 55.7352 69.4748 60.1404C68.1178 56.8431 66.309 53.7508 64.1031 50.9532L64.1034 50.9546ZM13.9487 13.7121C16.8315 10.4217 20.0054 7.39318 23.4298 4.67172L25.074 3.06817C25.4322 2.75155 25.7527 2.42668 26.1391 2.09005L26.4061 2.0629L36.9033 33.5549C30.1853 27.8286 21.806 20.3898 13.9487 13.7121ZM13.1628 13.0822C13.1513 13.0723 13.1397 13.0625 13.1281 13.0526C9.37388 9.85886 5.68485 6.85643 2.37453 4.36886L25.6739 2.17332L25.675 2.17646C23.3518 3.45661 21.193 5.01695 19.2498 6.82266C17.0869 8.77435 15.0404 10.8542 13.1281 13.0526C13.1256 13.0555 13.123 13.0584 13.1205 13.0613L13.1628 13.0822ZM2.27419 4.41344C5.25153 7.32144 8.74317 10.5105 12.471 13.8087L12.4679 13.8098C10.5796 16.027 8.82478 18.3601 7.21497 20.7912C6.57936 21.7468 5.36277 23.7165 4.77864 24.7107C4.34342 25.7525 3.92389 26.7891 3.5201 27.8203L2.27419 4.41344ZM3.53959 28.3032C6.74447 23.6874 9.51318 18.7327 13.2067 14.5075C20.9512 21.3387 29.5654 28.5093 36.2164 34.349L3.55502 28.5665L3.53959 28.3032Z" fill="white"/>
<path d="M3.53959 28.3032C6.74447 23.6874 9.51318 18.7327 13.2067 14.5075C20.9512 21.3387 29.5654 28.5093 36.2164 34.349L3.55502 28.5665L3.53959 28.3032Z" fill="#E71712"/>
<path d="M2.27419 4.41344C5.25153 7.32144 8.74317 10.5105 12.471 13.8087L12.4679 13.8098C10.5796 16.027 8.82478 18.3601 7.21497 20.7912C6.57936 21.7468 5.36277 23.7165 4.77864 24.7107C4.34342 25.7525 3.92389 26.7891 3.5201 27.8203L2.27419 4.41344Z" fill="#E71712"/>
<path d="M13.9487 13.7121C16.8315 10.4217 20.0054 7.39318 23.4298 4.67172L25.074 3.06817C25.4322 2.75155 25.7527 2.42668 26.1391 2.09005L26.4061 2.0629L36.9033 33.5549C30.1853 27.8286 21.806 20.3898 13.9487 13.7121Z" fill="white"/>
<path d="M2.37453 4.36886C5.68485 6.85643 9.37388 9.85886 13.1281 13.0526C15.0404 10.8542 17.0869 8.77435 19.2498 6.82266C21.193 5.01695 23.3518 3.45661 25.675 2.17646L25.6739 2.17332L2.37453 4.36886Z" fill="#0032A0"/>
<path d="M78.8928 10.5863C79.9957 9.8681 80.8229 9.20765 81.3743 8.60491C81.9322 7.99575 82.2111 7.42827 82.2111 6.90248C82.2111 6.48569 82.1149 6.1747 81.9226 5.96951C81.7366 5.76432 81.4545 5.66172 81.0762 5.66172C80.8325 5.66172 80.6081 5.73226 80.4029 5.87332C80.2041 6.00798 80.0406 6.19393 79.9124 6.43118C79.7905 6.66843 79.72 6.93774 79.7008 7.23912C79.4635 7.21347 79.2808 7.13331 79.1525 6.99866C79.0243 6.85759 78.9601 6.67805 78.9601 6.46004C78.9601 6.1266 79.0595 5.83164 79.2583 5.57516C79.4571 5.31867 79.736 5.11989 80.0951 4.97883C80.4606 4.83776 80.8806 4.76722 81.3551 4.76722C81.7655 4.76722 82.1278 4.84417 82.442 4.99806C82.7561 5.14554 82.9998 5.35714 83.1729 5.63287C83.3461 5.90859 83.4326 6.22279 83.4326 6.57546C83.4326 7.01148 83.3076 7.44751 83.0575 7.88354C82.8139 8.31957 82.4227 8.78765 81.8841 9.2878C81.3519 9.78795 80.6337 10.3554 79.7296 10.9902L78.8928 10.5863ZM82.442 11.7885C82.0765 11.7885 81.7078 11.7469 81.3359 11.6635C80.9639 11.5802 80.4574 11.4231 79.8162 11.1922L79.7873 11.1826C79.6014 11.375 79.4314 11.5096 79.2775 11.5866C79.1301 11.6699 78.9698 11.7116 78.7966 11.7116C78.6235 11.7116 78.476 11.6539 78.3542 11.5385C78.2388 11.4231 78.1811 11.282 78.1811 11.1153C78.1811 10.8395 78.2933 10.6151 78.5177 10.442C78.7421 10.2689 79.0243 10.1823 79.3641 10.1823C79.5308 10.1823 79.7328 10.2112 79.9701 10.2689C80.2073 10.3202 80.4991 10.3971 80.8453 10.4997C81.2557 10.6151 81.5795 10.7017 81.8168 10.7594C82.054 10.8107 82.2624 10.8363 82.442 10.8363L83.5 10.2592C83.5897 10.4003 83.6506 10.5189 83.6827 10.6151C83.7212 10.7113 83.7404 10.8043 83.7404 10.8941C83.7404 11.0608 83.6827 11.2147 83.5673 11.3557C83.4519 11.4904 83.2948 11.5962 83.096 11.6731C82.8972 11.7501 82.6792 11.7885 82.442 11.7885ZM86.484 11.7405C86.2596 11.7405 86.0897 11.6571 85.9743 11.4904C85.8588 11.3173 85.8011 11.0672 85.8011 10.7402C85.8011 10.2079 85.8524 9.6052 85.955 8.93193C86.0576 8.25224 86.2243 7.41224 86.4552 6.41195C86.1281 6.41195 85.8588 6.34782 85.6472 6.21958C85.442 6.09134 85.317 5.9118 85.2721 5.68096C85.5799 5.59119 85.8428 5.49821 86.0608 5.40203C86.2852 5.30585 86.5289 5.18722 86.7918 5.04615C86.9778 4.94356 87.1252 4.87303 87.2342 4.83455C87.3433 4.78967 87.4491 4.76722 87.5516 4.76722C87.8081 4.76722 87.9364 4.9147 87.9364 5.20966C87.9364 5.30585 87.9107 5.48218 87.8594 5.73867C87.8081 5.98874 87.7472 6.26126 87.6767 6.55622C87.4779 7.40904 87.3176 8.15926 87.1958 8.80689C87.0804 9.45452 87.0226 10.0637 87.0226 10.6344C87.0226 10.9806 87.0771 11.282 87.1862 11.5385C86.9361 11.6731 86.702 11.7405 86.484 11.7405Z" fill="black"/>
</svg>
