<svg width="95" height="178" viewBox="0 0 95 178" fill="none" xmlns="http://www.w3.org/2000/svg">
<path d="M93.623 0.75V59.96H0.75V0.75H93.623Z" fill="#FFC270" stroke="black" stroke-width="1.5"/>
<path d="M80.4928 11.7501C79.7619 11.7501 79.1816 11.593 78.7519 11.2788C78.3287 10.9646 78.1171 10.5318 78.1171 9.98032C78.1171 9.71742 78.1781 9.46414 78.2999 9.22047C78.4217 8.9704 78.6397 8.71712 78.9539 8.46063C79.2681 8.20415 79.7009 7.94766 80.2524 7.69117C80.7397 7.47316 81.118 7.25515 81.3873 7.03713C81.6567 6.81271 81.8394 6.59469 81.9356 6.38309C82.0382 6.17149 82.0895 5.94706 82.0895 5.70981C82.0895 5.42768 81.9933 5.20325 81.8009 5.03654C81.615 4.86982 81.3585 4.78646 81.0315 4.78646C80.6788 4.78646 80.387 4.87303 80.1562 5.04615C79.9318 5.21287 79.8196 5.45012 79.8196 5.7579C79.8196 5.97592 79.8869 6.1779 80.0216 6.36385C80.1562 6.54981 80.3229 6.71973 80.5217 6.87362C80.7269 7.02751 81.0026 7.21667 81.3489 7.4411C81.7592 7.704 82.0895 7.93484 82.3395 8.13361C82.5896 8.32598 82.8012 8.55361 82.9744 8.81651C83.1475 9.07941 83.234 9.37437 83.234 9.70139C83.234 10.0989 83.1186 10.4548 82.8878 10.769C82.657 11.0768 82.3331 11.3173 81.9163 11.4904C81.4996 11.6635 81.0251 11.7501 80.4928 11.7501ZM80.589 10.9421C80.993 10.9421 81.3296 10.8428 81.5989 10.644C81.8683 10.4388 82.0029 10.1534 82.0029 9.78795C82.0029 9.60841 81.9388 9.43528 81.8105 9.26857C81.6823 9.10185 81.5252 8.94796 81.3393 8.80689C81.1533 8.66582 80.8936 8.47987 80.5602 8.24903C80.137 7.9669 79.7939 7.72003 79.531 7.50843C79.2745 7.29682 79.0533 7.05316 78.8674 6.77744C78.6814 6.50172 78.5884 6.20034 78.5884 5.87332C78.5884 5.50142 78.6878 5.17119 78.8866 4.88264C79.0918 4.5941 79.3803 4.37288 79.7522 4.21898C80.1241 4.05868 80.5538 3.97853 81.0411 3.97853C81.6951 3.97853 82.2113 4.13563 82.5896 4.44982C82.9679 4.76402 83.1571 5.18402 83.1571 5.70981C83.1571 6.14584 82.9711 6.56584 82.5992 6.9698C82.2273 7.36736 81.6951 7.72003 81.0026 8.02781C80.4512 8.27147 80.0087 8.56323 79.6753 8.90307C79.3483 9.24292 79.1848 9.602 79.1848 9.98032C79.1848 10.2689 79.3162 10.5029 79.5791 10.6824C79.842 10.8556 80.1786 10.9421 80.589 10.9421ZM84.7841 10.5863C85.887 9.8681 86.7141 9.20765 87.2656 8.60491C87.8235 7.99575 88.1024 7.42827 88.1024 6.90248C88.1024 6.48569 88.0062 6.1747 87.8138 5.96951C87.6279 5.76432 87.3457 5.66172 86.9674 5.66172C86.7238 5.66172 86.4993 5.73226 86.2942 5.87332C86.0954 6.00798 85.9319 6.19393 85.8036 6.43118C85.6818 6.66843 85.6113 6.93774 85.592 7.23912C85.3548 7.21347 85.172 7.13331 85.0438 6.99866C84.9155 6.85759 84.8514 6.67805 84.8514 6.46004C84.8514 6.1266 84.9508 5.83164 85.1496 5.57516C85.3484 5.31867 85.6273 5.11989 85.9864 4.97883C86.3519 4.83776 86.7719 4.76722 87.2464 4.76722C87.6567 4.76722 88.019 4.84417 88.3332 4.99806C88.6474 5.14554 88.8911 5.35714 89.0642 5.63287C89.2373 5.90859 89.3239 6.22279 89.3239 6.57546C89.3239 7.01148 89.1989 7.44751 88.9488 7.88354C88.7051 8.31957 88.314 8.78765 87.7754 9.2878C87.2432 9.78795 86.525 10.3554 85.6209 10.9902L84.7841 10.5863ZM88.3332 11.7885C87.9677 11.7885 87.599 11.7469 87.2271 11.6635C86.8552 11.5802 86.3487 11.4231 85.7074 11.1922L85.6786 11.1826C85.4926 11.375 85.3227 11.5096 85.1688 11.5866C85.0213 11.6699 84.861 11.7116 84.6879 11.7116C84.5148 11.7116 84.3673 11.6539 84.2455 11.5385C84.13 11.4231 84.0723 11.282 84.0723 11.1153C84.0723 10.8395 84.1845 10.6151 84.409 10.442C84.6334 10.2689 84.9155 10.1823 85.2554 10.1823C85.4221 10.1823 85.6241 10.2112 85.8613 10.2689C86.0986 10.3202 86.3903 10.3971 86.7366 10.4997C87.147 10.6151 87.4708 10.7017 87.708 10.7594C87.9453 10.8107 88.1537 10.8363 88.3332 10.8363L89.3912 10.2592C89.481 10.4003 89.5419 10.5189 89.574 10.6151C89.6124 10.7113 89.6317 10.8043 89.6317 10.8941C89.6317 11.0608 89.574 11.2147 89.4586 11.3557C89.3431 11.4904 89.186 11.5962 88.9873 11.6731C88.7885 11.7501 88.5705 11.7885 88.3332 11.7885Z" fill="black"/>
<g filter="url(#filter0_dg_126_2519)">
<path d="M84.2172 54.7285C66.1896 74.1473 51.5152 79.2419 49.5915 92.4044C47.6679 105.567 51.9961 160.529 51.9961 160.529H43.3397C44.1961 138.043 46.2251 106.054 45.2633 92.4044C44.3015 78.7544 26.5722 75.3127 9.67578 56.6522L84.2172 54.7285Z" fill="url(#paint0_linear_126_2519)"/>
</g>
<path d="M68.7475 175.445C70.2889 175.189 71.857 174.923 73.2837 174.292C73.5686 174.166 73.8541 174.022 74.0643 173.792C75.5548 172.164 71.3519 172.001 70.6716 171.709C70.3628 171.576 69.8873 171.317 70.2044 170.913C70.3496 170.727 70.5917 170.654 70.8182 170.59C73.8444 169.739 76.8731 168.973 79.9107 168.174C80.8178 167.936 81.7554 167.819 82.634 167.476C83.0713 167.306 83.5006 167.074 83.8258 166.73C83.9075 166.643 83.9923 166.547 84.0567 166.447C84.1214 166.347 84.1392 166.223 84.1599 166.108C84.2007 165.879 84.2522 165.66 84.4503 165.52C84.814 165.261 85.2918 165.177 85.7108 165.048C86.3177 164.862 86.9189 164.66 87.529 164.484C88.8016 164.116 90.0721 163.758 91.3009 163.259C91.6546 163.116 93.2756 162.662 92.7799 162.039C92.5465 161.745 92.1074 161.605 91.7664 161.489C91.6077 161.436 91.447 161.388 91.2866 161.34C91.0606 161.272 90.8426 161.179 90.6198 161.102C89.6615 160.771 88.6788 160.539 87.6843 160.362C85.9704 160.256 84.2539 160.176 82.536 160.122C74.3259 159.867 66.151 160.311 57.9907 161.177C53.8947 161.612 49.8238 162.197 45.7333 162.663C41.7149 163.121 37.6627 163.235 33.6236 163.456C29.6645 163.673 25.7399 164.037 21.8662 164.813C18.0733 165.572 14.3476 166.578 10.685 167.718C9.84196 167.98 9.0027 168.251 8.16603 168.528C6.75604 168.798 5.35641 169.099 3.95592 169.438C3.22649 169.615 1.56004 169.691 1.50139 170.567C1.47033 171.036 1.96688 171.331 2.40764 171.508C3.20291 171.827 4.10744 171.964 4.97171 172.076C7.44781 172.395 9.97968 172.435 12.4828 172.459C13.7858 172.471 15.0891 172.467 16.3925 172.469C17.1127 172.469 17.8502 172.445 18.571 172.496C17.5724 172.961 15.586 173.647 16.1613 174.771C16.525 175.483 17.4844 175.978 18.2728 176.291C19.2636 176.685 20.3401 176.899 21.4137 177.06C26.6856 177.855 32.0201 177.739 37.3602 177.725C42.8578 177.71 48.3617 177.665 53.8499 177.304C56.5439 177.127 59.2333 176.872 61.9032 176.503C63.8997 176.227 65.8939 175.933 67.8801 175.59C68.1676 175.54 68.4572 175.493 68.7475 175.445Z" fill="#DF8E49"/>
<path opacity="0.3" d="M5.56464 170.764C6.53098 170.949 7.54735 170.897 8.5229 170.818C9.67757 170.724 10.8199 170.656 11.9809 170.64C13.8704 170.614 15.7603 170.647 17.6498 170.674C19.5104 170.702 21.3686 170.711 23.2288 170.674C24.9999 170.638 26.8254 170.562 28.5798 170.855C28.8015 170.891 29.3814 170.924 29.4849 171.196C29.5559 171.382 29.3354 171.555 29.2212 171.667C28.7322 172.146 28.1821 172.857 28.8719 173.425C29.5174 173.956 30.5199 174.081 31.3184 174.185C32.2057 174.3 33.1021 174.34 33.9963 174.351C36.9828 174.389 39.9574 174.481 42.945 174.368C46.6508 174.227 50.3486 173.905 54.0314 173.474C55.9071 173.255 57.7794 173.007 59.6486 172.738C61.1796 172.517 62.7023 172.271 64.2399 172.107C64.8687 172.04 65.5369 171.948 66.0979 171.636C66.3549 171.493 66.6508 171.27 66.7741 170.992C66.9003 170.706 66.672 170.413 66.7223 170.12C66.7985 169.674 67.3917 169.356 67.7594 169.196C67.8678 169.149 67.9785 169.109 68.0898 169.07C68.1956 168.997 68.308 168.933 68.4244 168.876C68.8218 168.682 69.2519 168.56 69.6777 168.446C70.3701 168.262 71.0736 168.119 71.7746 167.973C74.8177 167.339 77.8858 166.833 80.9334 166.222C81.4458 166.12 81.9533 166.005 82.4671 165.907C82.9104 165.823 83.5498 165.752 83.7839 165.306C83.9029 165.079 83.9104 164.813 84.0208 164.583C84.1122 164.393 84.2824 164.252 84.4452 164.123C84.7359 163.894 85.0625 163.72 85.4055 163.583C86.1881 163.271 87.0389 163.155 87.8724 163.073C88.7732 162.985 89.678 162.948 90.5779 162.851C91.3484 162.768 92.1365 162.645 92.8614 162.357C92.8893 162.257 92.8694 162.151 92.7803 162.039C92.5468 161.745 92.1078 161.605 91.7668 161.49C91.6081 161.436 91.4474 161.388 91.2869 161.34C91.0609 161.272 90.843 161.179 90.6202 161.102C89.6619 160.771 88.6791 160.539 87.6846 160.362C85.9707 160.256 84.2543 160.176 82.5363 160.123C74.3263 159.867 66.1513 160.312 57.991 161.178C53.8951 161.612 49.8241 162.197 45.7336 162.663C41.7153 163.121 37.663 163.235 33.624 163.456C29.6649 163.673 25.7403 164.037 21.8666 164.813C18.0736 165.572 14.348 166.578 10.6853 167.718C9.84231 167.98 9.00305 168.251 8.16638 168.528C6.86249 168.778 5.56723 169.056 4.27196 169.364C3.87893 170.205 4.90076 170.636 5.56464 170.764Z" fill="#752D02"/>
<path d="M30.1241 164.266C32.4188 163.916 34.7433 163.845 37.0607 163.806C39.3686 163.767 41.6814 163.762 43.9812 163.542C46.1497 163.335 48.3294 162.983 50.5136 163.146C51.5726 163.225 52.5817 163.459 53.5734 163.837C54.584 164.223 55.5621 164.695 56.5949 165.021C57.5293 165.317 58.4911 165.499 59.4609 165.577C60.5434 165.398 61.6388 165.31 62.7262 165.164C63.349 165.081 63.964 164.956 64.585 164.861C65.2034 164.767 65.8248 164.693 66.4472 164.63C67.7244 164.501 68.9975 164.405 70.2821 164.404C71.5745 164.402 72.8663 164.464 74.1553 164.554C75.3858 164.639 76.6135 164.762 77.8444 164.845C79.0074 164.924 80.2061 164.953 81.3406 164.645C81.8472 164.507 82.2592 164.281 82.6155 163.893C82.9093 163.574 83.1761 163.215 83.5732 163.017C83.9797 162.814 84.4435 162.759 84.8917 162.738C85.3265 162.718 85.7626 162.719 86.1976 162.708C87.1194 162.684 88.4083 162.701 89.2738 162.187C89.3773 162.054 89.4009 161.905 89.3137 161.737C89.1982 161.515 88.9178 161.383 88.7025 161.284C88.3957 161.143 88.0717 161.04 87.7473 160.948C86.7025 160.651 85.6516 160.383 84.6157 160.054C83.2687 159.625 81.9315 159.164 80.6675 158.525C79.4999 157.935 78.3852 157.248 77.2334 156.629C76.1276 156.034 74.9787 155.48 73.7536 155.182C72.4883 154.873 71.2292 154.904 69.9647 155.198C68.6631 155.5 67.3894 156.009 66.0493 156.115C64.9493 156.201 63.8613 156 62.8412 155.589C60.8312 154.779 59.1489 153.336 57.2369 152.337C56.1579 151.774 54.9796 151.3 53.7387 151.407C52.5826 151.507 51.4998 152.012 50.5231 152.612C48.2681 153.997 46.1963 155.685 44.0597 157.24C41.8939 158.817 39.6254 160.291 37.2088 161.457C37.1944 161.464 37.18 161.471 37.1657 161.477C36.5512 161.716 35.9322 161.941 35.302 162.137C34.8785 162.269 34.459 162.414 34.0366 162.549C33.9288 162.584 33.8204 162.616 33.7114 162.646C33.2712 162.743 32.8313 162.841 32.3926 162.945C31.8253 163.08 31.2707 163.248 30.7123 163.414C30.3719 163.516 30.0229 163.616 29.7132 163.794C29.6862 163.809 29.6592 163.826 29.6319 163.844C29.4473 163.998 29.3035 164.186 29.3369 164.397C29.5988 164.35 29.861 164.306 30.1241 164.266Z" fill="#812F2A"/>
<path d="M87.4764 162.731C87.0032 162.808 86.5311 162.908 86.0544 162.959C85.588 163.01 85.1108 163.037 84.6562 163.161C84.3586 163.242 83.9722 163.398 83.8569 163.715C83.8138 163.833 83.8382 163.948 83.8509 164.07C83.8787 164.338 83.8457 164.601 83.7459 164.854C83.551 165.349 83.1094 165.64 82.6295 165.821C81.9926 166.062 81.3233 166.222 80.6554 166.347C79.359 166.591 78.0396 166.679 76.7271 166.79C73.9197 167.028 71.1136 167.285 68.3002 167.443C65.4587 167.602 62.6134 167.602 59.7696 167.695C57.5106 167.769 55.0917 167.946 52.9051 167.243C52.3761 167.073 51.1751 166.475 51.9129 165.783C52.0892 165.617 52.4946 165.5 52.5489 165.234C52.6021 164.972 52.2461 164.777 52.0535 164.691C51.3356 164.371 50.4446 164.428 49.6798 164.468C48.7123 164.52 47.7482 164.587 46.7799 164.628C44.0361 164.742 41.2952 164.76 38.5555 164.959C35.9103 165.151 33.262 165.322 30.6269 164.925C30.3003 164.875 29.7057 164.84 29.5067 164.532C29.2534 164.14 29.8747 163.876 30.1453 163.77C31.0993 163.394 32.1231 163.163 33.1243 162.944C33.3658 162.863 33.6059 162.778 33.8494 162.702C34.0547 162.638 34.2605 162.576 34.465 162.509C34.6648 162.444 34.8609 162.37 35.0593 162.301C35.7458 162.063 36.4474 161.864 37.1236 161.597C37.1952 161.563 37.2674 161.53 37.3381 161.495C38.3321 161.028 39.3018 160.508 40.2486 159.942C42.5537 158.564 44.685 156.949 46.8454 155.361C47.8676 154.609 48.9023 153.871 49.9549 153.162C50.9615 152.484 52.0368 151.871 53.243 151.644C54.5888 151.39 55.8689 151.849 57.0517 152.459C58.0074 152.953 58.9059 153.541 59.8116 154.119C61.4933 155.192 63.273 156.228 65.3256 156.26C66.5329 156.279 67.6806 155.919 68.8316 155.6C70.1228 155.242 71.425 154.971 72.7685 155.156C75.353 155.513 77.5801 157.088 79.8199 158.307C82.112 159.554 84.6283 160.325 87.1498 160.964C87.7372 161.113 88.3861 161.247 88.902 161.579C89.906 162.226 87.8951 162.663 87.4764 162.731Z" fill="#DF8E49"/>
<path opacity="0.3" d="M73.6399 167.016C74.0784 166.878 74.5318 166.74 74.9317 166.509C75.1692 166.372 75.5304 166.098 75.3722 165.779C75.2055 165.443 74.675 165.322 74.3487 165.239C73.8702 165.116 73.3783 165.049 72.8884 164.992C71.6124 164.844 70.3435 164.642 69.0701 164.473C67.3447 164.243 65.6122 164.002 63.9331 163.532C62.2891 163.071 60.7848 162.32 59.2957 161.498C57.8003 160.672 56.3032 159.805 54.6612 159.302C53.1288 158.833 51.5543 158.902 49.9865 159.133C48.5055 159.351 47.0302 159.694 45.5274 159.716C44.2678 159.735 43.0559 159.468 41.9872 158.842C41.4171 159.221 40.8391 159.589 40.2497 159.941C39.3029 160.507 38.3329 161.027 37.3392 161.494C37.2685 161.53 37.1963 161.562 37.1247 161.596C36.4488 161.864 35.7472 162.062 35.0603 162.301C34.862 162.369 34.6659 162.444 34.466 162.509C34.2616 162.575 34.0558 162.637 33.8505 162.701C33.6069 162.777 33.3669 162.863 33.1254 162.944C32.1242 163.163 31.1004 163.394 30.1464 163.769C29.8756 163.876 29.2542 164.139 29.5078 164.532C29.7068 164.84 30.3011 164.875 30.628 164.924C33.2631 165.322 35.9114 165.151 38.5566 164.959C41.2966 164.76 44.0372 164.742 46.781 164.627C47.7493 164.587 48.7137 164.52 49.6809 164.468C50.4454 164.427 51.3367 164.37 52.0546 164.69C52.247 164.776 52.6032 164.972 52.55 165.233C52.4957 165.499 52.09 165.617 51.914 165.782C51.1762 166.475 52.3772 167.072 52.9062 167.242C55.0928 167.945 57.5117 167.769 59.7707 167.695C62.6145 167.601 65.4598 167.602 68.3013 167.442C70.027 167.346 71.7501 167.212 73.4723 167.068C73.5278 167.051 73.5839 167.034 73.6399 167.016Z" fill="#B86A3D"/>
<path d="M36.8803 161.831C38.7589 161.11 40.5456 160.167 42.2796 159.152C44.0354 158.123 45.7453 157.022 47.444 155.902C48.3787 155.286 49.3111 154.667 50.2475 154.054C51.1259 153.479 52.0002 152.881 52.92 152.372C53.5477 152.026 54.2377 151.744 54.9545 151.67C54.3984 151.557 53.8274 151.533 53.2438 151.643C52.0376 151.871 50.9623 152.484 49.9557 153.162C48.9031 153.87 47.8686 154.609 46.8462 155.361C44.6861 156.949 42.5544 158.564 40.2494 159.942C39.3026 160.507 38.3326 161.027 37.3389 161.494C37.2682 161.53 37.196 161.563 37.1244 161.597C36.4485 161.864 35.7469 162.063 35.06 162.301C34.8617 162.369 34.6656 162.444 34.4657 162.509C34.2613 162.575 34.0555 162.637 33.8502 162.702C33.7426 162.735 33.636 162.771 33.5293 162.807C34.673 162.589 35.7949 162.247 36.8803 161.831Z" fill="#FFC689"/>
<path d="M66.561 157.597C66.3997 157.668 66.2376 157.751 66.1016 157.864C66.3166 157.872 66.5323 157.852 66.743 157.808C67.2321 157.707 67.7016 157.498 68.1061 157.206C68.2539 157.099 68.3951 156.978 68.5219 156.843C68.109 157.029 67.6898 157.203 67.26 157.344C67.0251 157.422 66.7882 157.498 66.561 157.597Z" fill="#FFC689"/>
<path opacity="0.3" d="M88.9031 161.579C88.3873 161.247 87.7384 161.113 87.151 160.964C84.6297 160.325 82.1134 159.554 79.821 158.307C77.5813 157.089 75.3539 155.513 72.7697 155.156C71.7841 155.02 70.8206 155.13 69.8675 155.339C69.996 155.391 70.1331 155.426 70.264 155.452C70.672 155.532 71.0894 155.548 71.5009 155.605C71.8631 155.655 72.2562 155.728 72.5512 155.959C72.7835 156.142 72.9497 156.451 72.8893 156.751C72.8278 157.057 72.5727 157.294 72.3358 157.475C71.7047 157.957 70.9278 158.248 70.1892 158.521C70.0509 158.572 69.9118 158.622 69.7735 158.673C69.5742 158.746 69.3856 158.839 69.1979 158.939C68.9842 159.051 68.766 159.172 68.5831 159.332C68.4888 159.414 68.3827 159.521 68.3695 159.652C68.3583 159.764 68.4247 159.866 68.4954 159.946C68.6036 160.068 68.7361 160.168 68.8669 160.264C69.2574 160.55 69.6631 160.814 70.036 161.125C70.4451 161.465 70.8442 161.916 70.8945 162.469C70.9353 162.917 70.7111 163.329 70.4152 163.649C70.0317 164.064 69.5314 164.368 69.0288 164.617C68.7925 164.734 68.5544 164.837 68.3043 164.92C67.858 165.066 67.4023 165.186 66.9469 165.3C66.2985 165.463 65.6456 165.608 64.99 165.739C64.227 165.892 63.4599 166.026 62.6896 166.137C61.8969 166.251 61.1002 166.342 60.3009 166.395C59.566 166.443 58.8268 166.461 58.0914 166.413C57.4925 166.373 56.8826 166.294 56.3139 166.093C55.891 165.944 55.4692 165.715 55.2119 165.336C54.9215 164.907 54.9166 164.369 55.1509 163.915C55.3312 163.566 55.6089 163.27 55.8993 163.009C56.2429 162.701 56.6216 162.432 57.01 162.184C57.7622 161.704 58.5606 161.299 59.3671 160.919C59.6267 160.797 59.8852 160.666 60.1523 160.56C60.4821 160.43 60.8231 160.327 61.1618 160.224C62.0367 159.955 62.9199 159.703 63.7675 159.356C64.1424 159.202 64.5156 159.029 64.8529 158.803C65.0878 158.645 65.3328 158.443 65.4475 158.176C65.1375 157.988 64.7738 157.931 64.417 157.902C64.0424 157.872 63.6655 157.869 63.2946 157.803C63.2327 157.793 63.2578 157.711 63.3081 157.705C63.7813 157.642 64.2554 157.583 64.7284 157.516C65.62 157.39 66.5119 157.237 67.3767 156.982C68.1501 156.754 68.9181 156.439 69.561 155.943C68.8074 155.981 68.0527 156.017 67.2979 156.011C66.6519 156.163 65.9981 156.271 65.3262 156.26C63.2736 156.228 61.4938 155.192 59.8122 154.119C58.9065 153.541 58.008 152.953 57.0523 152.459C55.8697 151.848 54.5897 151.39 53.2435 151.643C53.2082 151.65 53.1734 151.658 53.1386 151.666C53.2648 151.672 53.3908 151.681 53.5164 151.692C53.9526 151.73 54.3933 151.79 54.8122 151.921C55.1205 152.017 55.4551 152.157 55.6561 152.422C55.8484 152.676 55.83 152.989 55.707 153.269C55.6156 153.477 55.4781 153.663 55.3315 153.834C55.0983 154.107 54.8306 154.338 54.5402 154.548C53.8134 155.071 52.99 155.442 52.1697 155.791C51.772 155.961 51.3721 156.125 50.9773 156.301C50.6826 156.432 50.373 156.533 50.0696 156.642C49.3721 156.895 48.6608 157.155 48.032 157.556C47.7603 157.73 47.5053 157.933 47.3147 158.196C47.1821 158.379 47.0389 158.594 47.0202 158.826C46.9909 159.187 47.3497 159.369 47.6352 159.484C48.0467 159.65 48.4817 159.752 48.8848 159.941C49.256 160.114 49.6145 160.387 49.6812 160.818C49.7652 161.362 49.3175 161.766 48.8986 162.026C48.4075 162.331 47.8555 162.527 47.3115 162.714C46.9182 162.849 46.5343 163.012 46.1468 163.164C45.6085 163.375 45.072 163.59 44.5444 163.826C43.9694 164.084 43.4021 164.364 42.8662 164.696C42.8331 164.717 42.8004 164.738 42.7676 164.759C44.1048 164.717 45.4423 164.684 46.7807 164.628C47.7491 164.588 48.7134 164.52 49.6806 164.468C50.4454 164.428 51.3364 164.371 52.0544 164.691C52.2467 164.777 52.603 164.972 52.5498 165.234C52.4954 165.5 52.0897 165.617 51.9138 165.783C51.176 166.476 52.377 167.073 52.906 167.243C55.0926 167.946 57.5114 167.769 59.7705 167.695C62.6143 167.602 65.4596 167.603 68.3011 167.443C71.1144 167.285 73.9206 167.028 76.7279 166.79C78.0404 166.679 79.3598 166.591 80.6563 166.347C81.3242 166.222 81.9935 166.062 82.6304 165.821C83.1105 165.64 83.5518 165.349 83.7468 164.854C83.8465 164.601 83.8799 164.339 83.8517 164.07C83.8391 163.948 83.8146 163.833 83.8578 163.715C83.9733 163.398 84.3595 163.242 84.6571 163.161C85.1116 163.038 85.5889 163.01 86.0552 162.96C86.532 162.907 87.0041 162.808 87.4773 162.732C87.8954 162.663 89.9063 162.226 88.9031 161.579Z" fill="#B05827"/>
<path opacity="0.3" d="M57.1178 152.893C57.4651 153.28 57.7684 153.702 58.1115 154.092C58.453 154.48 58.8254 154.845 59.2624 155.126C59.7003 155.407 60.1971 155.612 60.6842 155.792C61.1775 155.973 61.6853 156.117 62.2014 156.218C63.2203 156.419 64.2784 156.455 65.304 156.282C65.3411 156.275 65.3776 156.267 65.4144 156.26C65.385 156.26 65.3557 156.261 65.3264 156.261C63.2738 156.229 61.4941 155.192 59.8124 154.119C58.9067 153.541 58.0082 152.953 57.0525 152.46C56.8058 152.332 56.5548 152.212 56.2998 152.103C56.589 152.347 56.8628 152.609 57.1178 152.893Z" fill="#BF814D"/>
<path opacity="0.3" d="M74.9293 156.164C75.5104 156.546 76.0665 156.962 76.6263 157.374C77.2122 157.805 77.8192 158.207 78.4483 158.572C79.7096 159.303 81.0718 159.899 82.4861 160.261C84.0827 160.67 85.7322 160.816 87.3305 161.218C87.7776 161.33 88.2284 161.4 88.6482 161.604C88.8483 161.7 89.0361 161.832 89.1686 161.999C89.2066 161.872 89.1387 161.732 88.9027 161.579C88.3869 161.247 87.7379 161.113 87.1505 160.964C84.6293 160.325 82.1129 159.554 79.8206 158.307C77.7185 157.164 75.6277 155.706 73.2422 155.236C73.8281 155.493 74.3897 155.809 74.9293 156.164Z" fill="#BF814D"/>
<path opacity="0.3" d="M85.5301 162.977C85.1232 162.993 84.7181 163.032 84.3113 163.043C84.0028 163.051 83.694 163.061 83.3866 163.093C83.0712 163.126 82.7328 163.173 82.4462 163.318C82.3369 163.373 82.2297 163.446 82.1658 163.553C82.0574 163.736 82.1204 163.95 82.1745 164.139C82.2728 164.483 82.2829 164.794 81.9999 165.049C81.7633 165.264 81.4479 165.381 81.1457 165.469C80.8067 165.567 80.4577 165.626 80.1098 165.682C79.705 165.747 79.3094 165.84 78.9088 165.927C78.3565 166.048 77.8019 166.157 77.2459 166.257C76.1317 166.458 75.0118 166.622 73.89 166.772C72.7396 166.925 71.5864 167.055 70.4369 167.214C70.0392 167.269 69.6422 167.327 69.2451 167.387C71.7422 167.228 74.2347 167.003 76.7275 166.791C78.04 166.68 79.3594 166.591 80.6558 166.348C81.3237 166.222 81.993 166.062 82.6299 165.822C83.11 165.641 83.5514 165.349 83.7463 164.855C83.8461 164.602 83.8794 164.339 83.8513 164.07C83.8386 163.949 83.8142 163.834 83.8573 163.715C83.9729 163.399 84.359 163.243 84.6566 163.162C85.0982 163.042 85.5614 163.012 86.0151 162.964C85.8532 162.967 85.6917 162.971 85.5301 162.977Z" fill="#BF814D"/>
<path opacity="0.3" d="M52.5492 165.234C52.4948 165.5 52.0892 165.617 51.9132 165.783C51.885 165.809 51.8606 165.835 51.8382 165.861C51.8741 165.832 51.9109 165.803 51.9489 165.777C52.1524 165.633 52.3798 165.526 52.6078 165.428C52.8082 165.342 53.0095 165.258 53.2131 165.179C53.4273 165.097 53.6435 165.017 53.8499 164.916C53.9376 164.873 54.025 164.827 54.1038 164.769C54.1541 164.732 54.2119 164.684 54.2343 164.624C54.2913 164.47 54.0221 164.36 53.9229 164.316C53.6331 164.189 53.3212 164.101 53.0107 164.044C52.3666 163.925 51.7027 163.936 51.0521 163.986C50.4012 164.035 49.7551 164.129 49.1082 164.212C48.3721 164.306 47.6321 164.372 46.8932 164.438C45.7448 164.541 44.5953 164.632 43.4473 164.738C44.5579 164.705 45.6689 164.674 46.7804 164.628C47.7488 164.587 48.7131 164.52 49.6803 164.468C50.4451 164.427 51.3362 164.37 52.0541 164.691C52.2464 164.777 52.6027 164.972 52.5492 165.234Z" fill="#BF814D"/>
<path opacity="0.48" d="M46.1457 163.164C45.9815 163.228 45.8176 163.293 45.6543 163.359C45.945 163.307 46.2359 163.256 46.5232 163.189C46.9059 163.098 47.2857 162.994 47.6577 162.867C48.0361 162.737 48.4064 162.583 48.7609 162.397C49.0441 162.248 49.3296 162.079 49.5507 161.845C49.7606 161.622 49.8877 161.327 49.8331 161.018C49.7914 160.781 49.668 160.575 49.5033 160.405C49.5924 160.523 49.6562 160.66 49.6804 160.818C49.7644 161.362 49.3167 161.766 48.8978 162.026C48.4067 162.331 47.8547 162.527 47.3107 162.714C46.9171 162.849 46.5332 163.012 46.1457 163.164Z" fill="#FFFBCE"/>
<path opacity="0.48" d="M69.7732 158.673C69.5739 158.746 69.3853 158.839 69.1976 158.939C68.9839 159.051 68.7657 159.172 68.5829 159.332C68.4885 159.414 68.3825 159.521 68.3692 159.653C68.3675 159.669 68.3681 159.686 68.3695 159.702C68.4546 159.611 68.5547 159.532 68.6547 159.463C69.0923 159.161 69.6087 158.976 70.107 158.8C70.3335 158.72 70.5572 158.636 70.7809 158.548C71.2119 158.378 71.6417 158.199 72.0425 157.965C72.2427 157.848 72.435 157.718 72.6115 157.567C72.7823 157.421 72.9445 157.257 73.0497 157.057C73.1501 156.866 73.1765 156.651 73.1009 156.447C73.0322 156.262 72.8936 156.108 72.736 155.992C72.4396 155.775 72.0727 155.671 71.7142 155.614C71.5063 155.58 71.2959 155.565 71.0851 155.558C71.224 155.572 71.3629 155.587 71.5009 155.606C71.8631 155.655 72.2562 155.728 72.5512 155.96C72.7835 156.142 72.9497 156.452 72.8893 156.752C72.8278 157.057 72.5727 157.295 72.3358 157.475C71.7047 157.957 70.9278 158.249 70.1892 158.521C70.0506 158.572 69.9115 158.622 69.7732 158.673Z" fill="#FFFBCE"/>
<path opacity="0.48" d="M69.8311 164.15C70.0007 164.069 70.1675 163.982 70.3264 163.882C70.6301 163.691 70.9222 163.439 71.053 163.095C71.1533 162.831 71.1703 162.54 71.0809 162.271C70.9423 161.854 70.5976 161.541 70.2298 161.297C70.5636 161.612 70.852 162.004 70.8946 162.469C70.9354 162.918 70.7111 163.329 70.4153 163.65C70.2411 163.838 70.0424 164.003 69.8311 164.15Z" fill="#FFFBCE"/>
<path opacity="0.48" d="M48.7115 157.249C49.3708 156.977 50.0632 156.805 50.7454 156.604C51.723 156.315 52.6508 155.9 53.553 155.428C53.9665 155.212 54.3791 154.991 54.7618 154.722C55.1281 154.465 55.4915 154.155 55.7249 153.768C55.9055 153.469 55.9808 153.095 55.8195 152.771C55.8092 152.75 55.7962 152.732 55.7847 152.713C55.8204 152.896 55.7856 153.089 55.7063 153.27C55.6148 153.477 55.4774 153.663 55.3308 153.835C55.0976 154.107 54.8299 154.339 54.5395 154.548C53.8127 155.071 52.9892 155.442 52.1689 155.792C51.7713 155.961 51.3714 156.125 50.9766 156.301C50.6819 156.433 50.3722 156.533 50.0689 156.643C49.3714 156.896 48.6601 157.156 48.0313 157.557C47.9235 157.625 47.8185 157.699 47.7188 157.78C48.0241 157.559 48.3703 157.389 48.7115 157.249Z" fill="#FFFBCE"/>
<path d="M5.35016 169.699C7.95851 169.302 10.6011 169.221 13.235 169.176C15.8583 169.132 18.4874 169.127 21.1015 168.877C23.5666 168.641 26.0442 168.241 28.5269 168.427C29.7307 168.517 30.8776 168.782 32.0047 169.212C33.1536 169.65 34.2651 170.187 35.4391 170.558C36.5015 170.894 37.5943 171.1 38.6969 171.189C39.9275 170.986 41.1727 170.886 42.4085 170.721C43.1164 170.626 43.8156 170.484 44.5212 170.376C45.2241 170.269 45.9306 170.185 46.6379 170.113C48.0895 169.966 49.5369 169.858 50.9969 169.856C52.4658 169.855 53.9342 169.924 55.3994 170.026C56.7981 170.124 58.1937 170.263 59.5928 170.358C60.9148 170.448 62.2773 170.481 63.5668 170.13C64.1427 169.973 64.6111 169.716 65.0159 169.276C65.35 168.913 65.6534 168.505 66.1048 168.28C66.5668 168.049 67.0941 167.987 67.6036 167.963C68.0975 167.94 68.5938 167.942 69.088 167.929C70.1357 167.902 71.6009 167.92 72.5848 167.336C72.7027 167.185 72.7291 167.016 72.6302 166.825C72.4991 166.573 72.18 166.423 71.9353 166.31C71.5866 166.15 71.2182 166.033 70.8494 165.928C69.6616 165.591 68.4673 165.286 67.2896 164.912C65.7583 164.425 64.2385 163.901 62.8018 163.175C61.4746 162.504 60.2078 161.723 58.8984 161.019C57.6414 160.343 56.3355 159.713 54.9431 159.374C53.5046 159.023 52.0737 159.059 50.6364 159.392C49.1571 159.736 47.7091 160.315 46.1856 160.435C44.9355 160.533 43.6986 160.304 42.539 159.837C40.2544 158.916 38.3421 157.276 36.1685 156.141C34.942 155.5 33.6027 154.961 32.1922 155.083C30.8782 155.197 29.6473 155.771 28.5372 156.453C25.974 158.027 23.6187 159.945 21.1903 161.714C18.7283 163.506 16.1499 165.182 13.4029 166.507C13.3865 166.515 13.3702 166.522 13.354 166.53C12.6557 166.801 11.9518 167.057 11.2356 167.28C10.754 167.43 10.2773 167.594 9.79747 167.748C9.6747 167.788 9.55164 167.824 9.42801 167.858C8.92773 167.969 8.42774 168.08 7.9289 168.199C7.284 168.352 6.65347 168.542 6.01892 168.731C5.63192 168.847 5.23515 168.961 4.88323 169.163C4.85275 169.181 4.8217 169.2 4.79094 169.22C4.58134 169.396 4.41774 169.609 4.45569 169.848C4.75299 169.795 5.05114 169.744 5.35016 169.699Z" fill="#812F2A"/>
<path d="M70.5428 167.955C70.0048 168.042 69.4683 168.155 68.9264 168.214C68.3962 168.272 67.8536 168.303 67.337 168.444C66.9989 168.536 66.5595 168.713 66.4284 169.073C66.3793 169.207 66.4072 169.338 66.4215 169.476C66.4534 169.782 66.4155 170.081 66.3022 170.368C66.0805 170.931 65.5788 171.262 65.0331 171.468C64.3094 171.741 63.5484 171.923 62.789 172.065C61.3155 172.342 59.8155 172.443 58.3239 172.569C55.1328 172.839 51.943 173.131 48.7453 173.311C45.5153 173.492 42.281 173.491 39.0488 173.597C36.481 173.681 33.7314 173.882 31.2459 173.083C30.6444 172.89 29.2795 172.211 30.1179 171.423C30.3183 171.235 30.7792 171.102 30.841 170.799C30.9017 170.502 30.4969 170.28 30.2781 170.182C29.4621 169.818 28.4492 169.883 27.58 169.93C26.4803 169.988 25.3845 170.065 24.2836 170.111C21.1647 170.241 18.0494 170.261 14.935 170.487C11.9282 170.706 8.91788 170.9 5.92282 170.448C5.55163 170.392 4.87568 170.352 4.64969 170.002C4.3616 169.556 5.06774 169.256 5.37567 169.135C6.4599 168.708 7.62377 168.445 8.76176 168.196C9.03634 168.104 9.30919 168.007 9.58607 167.921C9.81924 167.848 10.0533 167.777 10.2859 167.702C10.513 167.628 10.7358 167.544 10.9615 167.465C11.7422 167.195 12.5394 166.969 13.308 166.665C13.3893 166.626 13.4713 166.589 13.5518 166.549C14.6817 166.018 15.7841 165.427 16.8602 164.784C19.4804 163.218 21.9033 161.382 24.3587 159.577C25.5205 158.722 26.6968 157.883 27.8931 157.077C29.0372 156.307 30.2594 155.61 31.6306 155.351C33.1604 155.063 34.6156 155.584 35.9597 156.279C37.0462 156.84 38.0672 157.508 39.0968 158.165C41.0085 159.385 43.0315 160.563 45.3647 160.599C46.7367 160.621 48.0417 160.211 49.3499 159.848C50.8174 159.441 52.2978 159.133 53.8251 159.344C56.763 159.75 59.2946 161.541 61.8405 162.926C64.446 164.343 67.3062 165.22 70.1722 165.946C70.8401 166.115 71.5776 166.267 72.1641 166.645C73.3044 167.381 71.0186 167.877 70.5428 167.955Z" fill="#FFC689"/>
<path d="M8.65069 168.503C9.69869 168.265 10.7358 167.97 11.7613 167.65C14.2438 166.877 16.5968 165.707 18.8196 164.369C21.1157 162.986 23.2908 161.408 25.4075 159.767C27.2335 158.351 29.0023 156.831 31.056 155.746C31.3582 155.586 31.6664 155.438 31.9795 155.301C31.8634 155.314 31.7469 155.33 31.6296 155.352C30.2584 155.61 29.0362 156.307 27.8922 157.077C26.6958 157.883 25.5196 158.722 24.3577 159.577C21.9023 161.382 19.4794 163.218 16.8593 164.784C15.7831 165.427 14.6805 166.018 13.5508 166.549C13.4703 166.589 13.3884 166.627 13.307 166.665C12.5385 166.969 11.7412 167.195 10.9606 167.466C10.7352 167.544 10.5121 167.629 10.2849 167.702C10.0523 167.778 9.8183 167.848 9.58512 167.921C9.30824 168.007 9.03539 168.104 8.76081 168.196C7.85226 168.395 6.92789 168.604 6.04004 168.897C6.91927 168.855 7.79562 168.696 8.65069 168.503Z" fill="#FFC689"/>
<path opacity="0.3" d="M72.164 166.646C71.5778 166.268 70.84 166.115 70.1721 165.946C67.3061 165.22 64.4459 164.344 61.8404 162.926C59.2945 161.541 56.7629 159.75 53.825 159.344C52.7046 159.19 51.6094 159.315 50.5261 159.553C50.6721 159.612 50.828 159.651 50.9769 159.68C51.4407 159.771 51.9151 159.79 52.3828 159.855C52.7946 159.911 53.2414 159.995 53.5769 160.257C53.8411 160.465 54.03 160.816 53.9613 161.157C53.8914 161.504 53.6013 161.775 53.3322 161.98C52.6149 162.528 51.7319 162.859 50.8924 163.169C50.7351 163.227 50.5772 163.284 50.4197 163.341C50.1934 163.425 49.9786 163.531 49.7653 163.644C49.5226 163.772 49.2742 163.909 49.0666 164.09C48.9594 164.184 48.8389 164.306 48.824 164.455C48.811 164.583 48.8866 164.698 48.9671 164.789C49.0899 164.927 49.2406 165.041 49.3895 165.15C49.8334 165.476 50.2946 165.776 50.7184 166.129C51.1836 166.515 51.637 167.028 51.6945 167.657C51.7411 168.167 51.4861 168.635 51.1497 168.999C50.7138 169.471 50.1451 169.816 49.5738 170.099C49.3053 170.232 49.0344 170.349 48.7504 170.443C48.2429 170.61 47.7254 170.746 47.2073 170.876C46.4701 171.061 45.728 171.225 44.983 171.374C44.1156 171.548 43.2438 171.7 42.3683 171.826C41.4673 171.956 40.5619 172.06 39.6533 172.12C38.8181 172.175 37.9777 172.196 37.1416 172.14C36.4607 172.095 35.7675 172.005 35.1215 171.777C34.6408 171.607 34.1612 171.347 33.8685 170.916C33.5384 170.429 33.5327 169.818 33.7992 169.301C34.0039 168.904 34.3199 168.568 34.65 168.272C35.0404 167.922 35.4708 167.616 35.9124 167.334C36.7675 166.788 37.6749 166.328 38.5915 165.896C38.8868 165.757 39.1806 165.608 39.4843 165.488C39.8592 165.34 40.2468 165.223 40.632 165.105C41.6265 164.8 42.6303 164.513 43.594 164.119C44.0204 163.944 44.4445 163.748 44.8278 163.49C45.0946 163.31 45.3735 163.082 45.5037 162.778C45.1515 162.564 44.7381 162.498 44.3324 162.466C43.9068 162.431 43.4779 162.429 43.0564 162.354C42.9862 162.342 43.0147 162.249 43.0716 162.241C43.6098 162.17 44.1486 162.104 44.686 162.028C45.6995 161.884 46.7133 161.71 47.6966 161.42C48.5755 161.161 49.4487 160.802 50.1793 160.239C49.3225 160.282 48.4648 160.324 47.6069 160.317C46.8726 160.49 46.1294 160.612 45.3654 160.599C43.0322 160.563 41.0093 159.385 39.0976 158.165C38.068 157.508 37.047 156.84 35.9605 156.279C34.616 155.585 33.1612 155.063 31.6313 155.352C31.5914 155.359 31.5517 155.368 31.512 155.377C31.6555 155.384 31.7987 155.394 31.9415 155.406C32.4372 155.45 32.9384 155.518 33.4145 155.667C33.765 155.776 34.1451 155.936 34.3737 156.237C34.5922 156.525 34.5715 156.881 34.4314 157.199C34.3276 157.435 34.1715 157.647 34.0045 157.842C33.7397 158.151 33.4352 158.415 33.1048 158.652C32.2785 159.247 31.3426 159.669 30.4102 160.066C29.9583 160.259 29.5037 160.446 29.0549 160.645C28.7199 160.795 28.3677 160.909 28.0233 161.034C27.2303 161.321 26.4218 161.617 25.707 162.072C25.3979 162.269 25.1081 162.501 24.8916 162.799C24.741 163.007 24.5782 163.252 24.557 163.515C24.5239 163.925 24.9313 164.133 25.2562 164.264C25.724 164.452 26.2185 164.568 26.6765 164.782C27.0983 164.979 27.506 165.29 27.5816 165.779C27.6771 166.398 27.1682 166.857 26.6921 167.153C26.134 167.499 25.5063 167.722 24.8879 167.935C24.4405 168.088 24.0044 168.274 23.5639 168.447C22.952 168.686 22.3422 168.931 21.7425 169.199C21.0889 169.492 20.444 169.811 19.8348 170.189C19.7974 170.212 19.76 170.236 19.7227 170.26C21.2425 170.212 22.7631 170.174 24.2844 170.111C25.3853 170.065 26.4813 169.988 27.5808 169.93C28.4499 169.883 29.4629 169.818 30.2788 170.182C30.4976 170.28 30.9025 170.502 30.8418 170.799C30.7803 171.102 30.3191 171.235 30.1187 171.423C29.28 172.211 30.6451 172.89 31.2466 173.083C33.7322 173.882 36.4817 173.681 39.0495 173.597C42.2821 173.491 45.5161 173.492 48.746 173.311C51.9438 173.131 55.1338 172.839 58.3247 172.569C59.8166 172.442 61.3163 172.342 62.7898 172.065C63.5491 171.923 64.3099 171.74 65.0339 171.468C65.5796 171.262 66.0813 170.93 66.303 170.368C66.4163 170.081 66.4542 169.782 66.4223 169.476C66.4079 169.339 66.3803 169.207 66.4292 169.073C66.5603 168.713 66.9996 168.536 67.3377 168.443C67.8544 168.303 68.397 168.272 68.9271 168.214C69.4688 168.155 70.0056 168.042 70.5436 167.955C71.0188 167.877 73.3046 167.381 72.164 166.646Z" fill="#B05827"/>
<path opacity="0.3" d="M36.0336 156.772C36.4284 157.211 36.7734 157.691 37.1633 158.134C37.5514 158.576 37.9749 158.991 38.4715 159.31C38.9692 159.629 39.5339 159.863 40.0873 160.067C40.6483 160.273 41.2253 160.437 41.8121 160.552C42.9705 160.78 44.1729 160.821 45.3388 160.624C45.3808 160.617 45.4222 160.607 45.4642 160.599C45.4308 160.599 45.3975 160.601 45.3641 160.6C43.0309 160.563 41.008 159.385 39.0963 158.166C38.0667 157.509 37.0457 156.84 35.9592 156.279C35.6788 156.135 35.3933 155.998 35.1035 155.874C35.4324 156.15 35.7435 156.449 36.0336 156.772Z" fill="#BF814D"/>
<path opacity="0.3" d="M56.2803 160.49C56.9408 160.924 57.5727 161.397 58.2093 161.865C58.8752 162.355 59.5652 162.812 60.2806 163.227C61.7141 164.058 63.2627 164.735 64.8705 165.147C66.6853 165.611 68.5605 165.778 70.377 166.235C70.8853 166.362 71.3977 166.442 71.8747 166.673C72.1021 166.784 72.3157 166.933 72.4661 167.123C72.5092 166.979 72.4322 166.819 72.1636 166.646C71.5774 166.268 70.8396 166.116 70.1717 165.946C67.3057 165.22 64.4455 164.344 61.84 162.927C59.4508 161.627 57.0739 159.97 54.3623 159.435C55.0285 159.727 55.6665 160.087 56.2803 160.49Z" fill="#BF814D"/>
<path opacity="0.3" d="M68.3298 168.235C67.8675 168.252 67.4069 168.297 66.9443 168.31C66.5935 168.319 66.2428 168.33 65.8934 168.366C65.5349 168.404 65.1502 168.457 64.8244 168.622C64.7005 168.685 64.5783 168.768 64.5059 168.89C64.3825 169.097 64.4541 169.34 64.5156 169.555C64.6272 169.946 64.6387 170.299 64.3173 170.59C64.0481 170.833 63.6896 170.967 63.3463 171.067C62.961 171.178 62.5643 171.245 62.1686 171.309C61.7086 171.383 61.2587 171.488 60.8035 171.588C60.1759 171.725 59.5453 171.849 58.9131 171.963C57.6469 172.191 56.3735 172.377 55.0983 172.547C53.7907 172.721 52.4799 172.869 51.1731 173.05C50.7212 173.112 50.2698 173.178 49.8184 173.246C52.6567 173.066 55.4899 172.809 58.3237 172.569C59.8156 172.442 61.3153 172.342 62.7888 172.065C63.5481 171.923 64.3089 171.741 65.0329 171.467C65.5786 171.262 66.0803 170.93 66.302 170.368C66.4153 170.08 66.4532 169.782 66.4213 169.476C66.4069 169.338 66.3793 169.207 66.4282 169.073C66.5593 168.713 66.9986 168.536 67.3368 168.443C67.8388 168.306 68.3652 168.273 68.881 168.219C68.6973 168.223 68.5136 168.228 68.3298 168.235Z" fill="#BF814D"/>
<path opacity="0.3" d="M30.8404 170.799C30.7789 171.102 30.3177 171.235 30.1173 171.423C30.0854 171.453 30.0575 171.483 30.0319 171.513C30.0728 171.479 30.1147 171.447 30.1579 171.416C30.3893 171.253 30.6478 171.131 30.9071 171.02C31.1349 170.922 31.3637 170.826 31.5952 170.737C31.8387 170.644 32.0842 170.553 32.3188 170.438C32.4186 170.389 32.5181 170.337 32.6075 170.271C32.6647 170.229 32.7303 170.175 32.7559 170.106C32.8206 169.931 32.5146 169.806 32.4019 169.756C32.0727 169.612 31.7179 169.512 31.3652 169.447C30.6328 169.312 29.8784 169.324 29.1389 169.38C28.3991 169.436 27.6648 169.544 26.9291 169.638C26.0924 169.744 25.2511 169.82 24.411 169.895C23.1057 170.012 21.7989 170.115 20.4941 170.236C21.7566 170.198 23.0194 170.163 24.2828 170.111C25.3837 170.065 26.4797 169.988 27.5791 169.929C28.4483 169.883 29.4612 169.818 30.2772 170.182C30.496 170.28 30.9008 170.502 30.8404 170.799Z" fill="#BF814D"/>
<path opacity="0.48" d="M23.5625 168.446C23.376 168.519 23.1899 168.593 23.0039 168.668C23.3343 168.609 23.6649 168.551 23.9915 168.475C24.4265 168.372 24.8581 168.254 25.281 168.109C25.7115 167.961 26.1321 167.786 26.5352 167.574C26.8569 167.405 27.1815 167.214 27.4328 166.947C27.6715 166.694 27.8158 166.359 27.754 166.007C27.7065 165.738 27.5662 165.504 27.3793 165.311C27.4805 165.445 27.553 165.6 27.5809 165.779C27.6763 166.398 27.1674 166.858 26.6913 167.153C26.1332 167.5 25.5056 167.722 24.8871 167.935C24.4395 168.088 24.003 168.274 23.5625 168.446Z" fill="#FFFBCE"/>
<path opacity="0.48" d="M50.4193 163.342C50.193 163.425 49.9782 163.531 49.7649 163.644C49.5222 163.772 49.2738 163.909 49.0662 164.091C48.959 164.184 48.8385 164.306 48.8235 164.456C48.8215 164.474 48.8221 164.493 48.8238 164.512C48.9204 164.408 49.0343 164.318 49.1481 164.24C49.6456 163.897 50.2324 163.686 50.7988 163.487C51.0564 163.396 51.3106 163.3 51.5647 163.2C52.0547 163.006 52.5431 162.804 52.9986 162.537C53.226 162.405 53.4448 162.256 53.6452 162.085C53.8393 161.92 54.0236 161.733 54.1432 161.505C54.257 161.288 54.2872 161.044 54.2013 160.812C54.123 160.601 53.9655 160.426 53.7864 160.295C53.4494 160.048 53.0322 159.93 52.6248 159.865C52.3885 159.827 52.1493 159.809 51.9097 159.802C52.0676 159.818 52.2254 159.834 52.3824 159.856C52.7941 159.912 53.241 159.995 53.5765 160.258C53.8407 160.465 54.0296 160.817 53.9609 161.158C53.891 161.505 53.6009 161.775 53.3318 161.981C52.6145 162.528 51.7315 162.86 50.8919 163.17C50.7344 163.227 50.5765 163.284 50.4193 163.342Z" fill="#FFFBCE"/>
<path opacity="0.48" d="M50.4854 169.568C50.6783 169.475 50.8677 169.376 51.0486 169.263C51.3936 169.046 51.7257 168.759 51.8743 168.368C51.9885 168.069 52.0078 167.738 51.9063 167.432C51.7487 166.957 51.3568 166.602 50.9388 166.324C51.318 166.683 51.6461 167.128 51.6944 167.657C51.7409 168.167 51.4859 168.634 51.1495 168.999C50.9514 169.213 50.7257 169.4 50.4854 169.568Z" fill="#FFFBCE"/>
<path opacity="0.48" d="M26.4788 161.722C27.2281 161.414 28.0153 161.218 28.7907 160.989C29.902 160.661 30.9566 160.189 31.9822 159.653C32.4523 159.408 32.9212 159.156 33.3559 158.851C33.7722 158.559 34.1854 158.206 34.4511 157.766C34.6564 157.426 34.742 157.001 34.5586 156.633C34.5471 156.609 34.5324 156.589 34.5192 156.566C34.56 156.774 34.5204 156.995 34.4301 157.199C34.3263 157.435 34.1702 157.647 34.0031 157.842C33.7383 158.151 33.4338 158.415 33.1035 158.652C32.2772 159.247 31.3413 159.669 30.4089 160.066C29.9569 160.259 29.5023 160.446 29.0535 160.645C28.7186 160.795 28.3663 160.909 28.0219 161.034C27.2289 161.321 26.4204 161.617 25.7057 162.072C25.5829 162.15 25.4636 162.234 25.3506 162.325C25.6976 162.076 26.0909 161.882 26.4788 161.722Z" fill="#FFFBCE"/>
<path d="M68.7475 175.445C70.2889 175.189 71.857 174.923 73.2837 174.292C73.5686 174.166 73.8541 174.022 74.0643 173.792C75.5548 172.164 71.3519 172.001 70.6716 171.709C70.3628 171.576 69.8873 171.317 70.2044 170.913C70.3496 170.727 70.5917 170.654 70.8182 170.59C73.8444 169.739 76.8731 168.973 79.9107 168.174C80.8178 167.936 81.7554 167.819 82.634 167.476C83.0713 167.306 83.5006 167.074 83.8258 166.73C83.9075 166.643 83.9923 166.547 84.0567 166.447C84.1214 166.347 84.1392 166.223 84.1599 166.108C84.2007 165.879 84.2522 165.66 84.4503 165.52C84.814 165.261 85.2918 165.177 85.7108 165.048C86.3177 164.862 86.9189 164.66 87.529 164.484C88.8016 164.116 90.0721 163.758 91.3009 163.259C91.6546 163.116 93.2756 162.662 92.7799 162.039C92.5465 161.745 92.1074 161.605 91.7664 161.489C91.6077 161.436 91.447 161.388 91.2866 161.34C91.0606 161.272 90.8426 161.179 90.6198 161.102C89.6615 160.771 88.6788 160.539 87.6843 160.362C85.9704 160.256 84.2539 160.176 82.536 160.122C74.3259 159.867 66.151 160.311 57.9907 161.177C53.8947 161.612 49.8238 162.197 45.7333 162.663C41.7149 163.121 37.6627 163.235 33.6236 163.456C29.6645 163.673 25.7399 164.037 21.8662 164.813C18.0733 165.572 14.3476 166.578 10.685 167.718C9.84196 167.98 9.0027 168.251 8.16603 168.528C6.75604 168.798 5.35641 169.099 3.95592 169.438C3.22649 169.615 1.56004 169.691 1.50139 170.567C1.47033 171.036 1.96688 171.331 2.40764 171.508C3.20291 171.827 4.10744 171.964 4.97171 172.076C7.44781 172.395 9.97968 172.435 12.4828 172.459C13.7858 172.471 15.0891 172.467 16.3925 172.469C17.1127 172.469 17.8502 172.445 18.571 172.496C17.5724 172.961 15.586 173.647 16.1613 174.771C16.525 175.483 17.4844 175.978 18.2728 176.291C19.2636 176.685 20.3401 176.899 21.4137 177.06C26.6856 177.855 32.0201 177.739 37.3602 177.725C42.8578 177.71 48.3617 177.665 53.8499 177.304C56.5439 177.127 59.2333 176.872 61.9032 176.503C63.8997 176.227 65.8939 175.933 67.8801 175.59C68.1676 175.54 68.4572 175.493 68.7475 175.445Z" fill="#DF8E49"/>
<path opacity="0.3" d="M5.56464 170.764C6.53098 170.949 7.54735 170.897 8.5229 170.818C9.67757 170.724 10.8199 170.656 11.9809 170.64C13.8704 170.614 15.7603 170.647 17.6498 170.674C19.5104 170.702 21.3686 170.711 23.2288 170.674C24.9999 170.638 26.8254 170.562 28.5798 170.855C28.8015 170.891 29.3814 170.924 29.4849 171.196C29.5559 171.382 29.3354 171.555 29.2212 171.667C28.7322 172.146 28.1821 172.857 28.8719 173.425C29.5174 173.956 30.5199 174.081 31.3184 174.185C32.2057 174.3 33.1021 174.34 33.9963 174.351C36.9828 174.389 39.9574 174.481 42.945 174.368C46.6508 174.227 50.3486 173.905 54.0314 173.474C55.9071 173.255 57.7794 173.007 59.6486 172.738C61.1796 172.517 62.7023 172.271 64.2399 172.107C64.8687 172.04 65.5369 171.948 66.0979 171.636C66.3549 171.493 66.6508 171.27 66.7741 170.992C66.9003 170.706 66.672 170.413 66.7223 170.12C66.7985 169.674 67.3917 169.356 67.7594 169.196C67.8678 169.149 67.9785 169.109 68.0898 169.07C68.1956 168.997 68.308 168.933 68.4244 168.876C68.8218 168.682 69.2519 168.56 69.6777 168.446C70.3701 168.262 71.0736 168.119 71.7746 167.973C74.8177 167.339 77.8858 166.833 80.9334 166.222C81.4458 166.12 81.9533 166.005 82.4671 165.907C82.9104 165.823 83.5498 165.752 83.7839 165.306C83.9029 165.079 83.9104 164.813 84.0208 164.583C84.1122 164.393 84.2824 164.252 84.4452 164.123C84.7359 163.894 85.0625 163.72 85.4055 163.583C86.1881 163.271 87.0389 163.155 87.8724 163.073C88.7732 162.985 89.678 162.948 90.5779 162.851C91.3484 162.768 92.1365 162.645 92.8614 162.357C92.8893 162.257 92.8694 162.151 92.7803 162.039C92.5468 161.745 92.1078 161.605 91.7668 161.49C91.6081 161.436 91.4474 161.388 91.2869 161.34C91.0609 161.272 90.843 161.179 90.6202 161.102C89.6619 160.771 88.6791 160.539 87.6846 160.362C85.9707 160.256 84.2543 160.176 82.5363 160.123C74.3263 159.867 66.1513 160.312 57.991 161.178C53.8951 161.612 49.8241 162.197 45.7336 162.663C41.7153 163.121 37.663 163.235 33.624 163.456C29.6649 163.673 25.7403 164.037 21.8666 164.813C18.0736 165.572 14.348 166.578 10.6853 167.718C9.84231 167.98 9.00305 168.251 8.16638 168.528C6.86249 168.778 5.56723 169.056 4.27196 169.364C3.87893 170.205 4.90076 170.636 5.56464 170.764Z" fill="#752D02"/>
<path d="M30.1241 164.266C32.4188 163.916 34.7433 163.845 37.0607 163.806C39.3686 163.767 41.6814 163.762 43.9812 163.542C46.1497 163.335 48.3294 162.983 50.5136 163.146C51.5726 163.225 52.5817 163.459 53.5734 163.837C54.584 164.223 55.5621 164.695 56.5949 165.021C57.5293 165.317 58.4911 165.499 59.4609 165.577C60.5434 165.398 61.6388 165.31 62.7262 165.164C63.349 165.081 63.964 164.956 64.585 164.861C65.2034 164.767 65.8248 164.693 66.4472 164.63C67.7244 164.501 68.9975 164.405 70.2821 164.404C71.5745 164.402 72.8663 164.464 74.1553 164.554C75.3858 164.639 76.6135 164.762 77.8444 164.845C79.0074 164.924 80.2061 164.953 81.3406 164.645C81.8472 164.507 82.2592 164.281 82.6155 163.893C82.9093 163.574 83.1761 163.215 83.5732 163.017C83.9797 162.814 84.4435 162.759 84.8917 162.738C85.3265 162.718 85.7626 162.719 86.1976 162.708C87.1194 162.684 88.4083 162.701 89.2738 162.187C89.3773 162.054 89.4009 161.905 89.3137 161.737C89.1982 161.515 88.9178 161.383 88.7025 161.284C88.3957 161.143 88.0717 161.04 87.7473 160.948C86.7025 160.651 85.6516 160.383 84.6157 160.054C83.2687 159.625 81.9315 159.164 80.6675 158.525C79.4999 157.935 78.3852 157.248 77.2334 156.629C76.1276 156.034 74.9787 155.48 73.7536 155.182C72.4883 154.873 71.2292 154.904 69.9647 155.198C68.6631 155.5 67.3894 156.009 66.0493 156.115C64.9493 156.201 63.8613 156 62.8412 155.589C60.8312 154.779 59.1489 153.336 57.2369 152.337C56.1579 151.774 54.9796 151.3 53.7387 151.407C52.5826 151.507 51.4998 152.012 50.5231 152.612C48.2681 153.997 46.1963 155.685 44.0597 157.24C41.8939 158.817 39.6254 160.291 37.2088 161.457C37.1944 161.464 37.18 161.471 37.1657 161.477C36.5512 161.716 35.9322 161.941 35.302 162.137C34.8785 162.269 34.459 162.414 34.0366 162.549C33.9288 162.584 33.8204 162.616 33.7114 162.646C33.2712 162.743 32.8313 162.841 32.3926 162.945C31.8253 163.08 31.2707 163.248 30.7123 163.414C30.3719 163.516 30.0229 163.616 29.7132 163.794C29.6862 163.809 29.6592 163.826 29.6319 163.844C29.4473 163.998 29.3035 164.186 29.3369 164.397C29.5988 164.35 29.861 164.306 30.1241 164.266Z" fill="#812F2A"/>
<path d="M87.4764 162.731C87.0032 162.808 86.5311 162.908 86.0544 162.959C85.588 163.01 85.1108 163.037 84.6562 163.161C84.3586 163.242 83.9722 163.398 83.8569 163.715C83.8138 163.833 83.8382 163.948 83.8509 164.07C83.8787 164.338 83.8457 164.601 83.7459 164.854C83.551 165.349 83.1094 165.64 82.6295 165.821C81.9926 166.062 81.3233 166.222 80.6554 166.347C79.359 166.591 78.0396 166.679 76.7271 166.79C73.9197 167.028 71.1136 167.285 68.3002 167.443C65.4587 167.602 62.6134 167.602 59.7696 167.695C57.5106 167.769 55.0917 167.946 52.9051 167.243C52.3761 167.073 51.1751 166.475 51.9129 165.783C52.0892 165.617 52.4946 165.5 52.5489 165.234C52.6021 164.972 52.2461 164.777 52.0535 164.691C51.3356 164.371 50.4446 164.428 49.6798 164.468C48.7123 164.52 47.7482 164.587 46.7799 164.628C44.0361 164.742 41.2952 164.76 38.5555 164.959C35.9103 165.151 33.262 165.322 30.6269 164.925C30.3003 164.875 29.7057 164.84 29.5067 164.532C29.2534 164.14 29.8747 163.876 30.1453 163.77C31.0993 163.394 32.1231 163.163 33.1243 162.944C33.3658 162.863 33.6059 162.778 33.8494 162.702C34.0547 162.638 34.2605 162.576 34.465 162.509C34.6648 162.444 34.8609 162.37 35.0593 162.301C35.7458 162.063 36.4474 161.864 37.1236 161.597C37.1952 161.563 37.2674 161.53 37.3381 161.495C38.3321 161.028 39.3018 160.508 40.2486 159.942C42.5537 158.564 44.685 156.949 46.8454 155.361C47.8676 154.609 48.9023 153.871 49.9549 153.162C50.9615 152.484 52.0368 151.871 53.243 151.644C54.5888 151.39 55.8689 151.849 57.0517 152.459C58.0074 152.953 58.9059 153.541 59.8116 154.119C61.4933 155.192 63.273 156.228 65.3256 156.26C66.5329 156.279 67.6806 155.919 68.8316 155.6C70.1228 155.242 71.425 154.971 72.7685 155.156C75.353 155.513 77.5801 157.088 79.8199 158.307C82.112 159.554 84.6283 160.325 87.1498 160.964C87.7372 161.113 88.3861 161.247 88.902 161.579C89.906 162.226 87.8951 162.663 87.4764 162.731Z" fill="#DF8E49"/>
<path opacity="0.3" d="M73.6399 167.016C74.0784 166.878 74.5318 166.74 74.9317 166.509C75.1692 166.372 75.5304 166.098 75.3722 165.779C75.2055 165.443 74.675 165.322 74.3487 165.239C73.8702 165.116 73.3783 165.049 72.8884 164.992C71.6124 164.844 70.3435 164.642 69.0701 164.473C67.3447 164.243 65.6122 164.002 63.9331 163.532C62.2891 163.071 60.7848 162.32 59.2957 161.498C57.8003 160.672 56.3032 159.805 54.6612 159.302C53.1288 158.833 51.5543 158.902 49.9865 159.133C48.5055 159.351 47.0302 159.694 45.5274 159.716C44.2678 159.735 43.0559 159.468 41.9872 158.842C41.4171 159.221 40.8391 159.589 40.2497 159.941C39.3029 160.507 38.3329 161.027 37.3392 161.494C37.2685 161.53 37.1963 161.562 37.1247 161.596C36.4488 161.864 35.7472 162.062 35.0603 162.301C34.862 162.369 34.6659 162.444 34.466 162.509C34.2616 162.575 34.0558 162.637 33.8505 162.701C33.6069 162.777 33.3669 162.863 33.1254 162.944C32.1242 163.163 31.1004 163.394 30.1464 163.769C29.8756 163.876 29.2542 164.139 29.5078 164.532C29.7068 164.84 30.3011 164.875 30.628 164.924C33.2631 165.322 35.9114 165.151 38.5566 164.959C41.2966 164.76 44.0372 164.742 46.781 164.627C47.7493 164.587 48.7137 164.52 49.6809 164.468C50.4454 164.427 51.3367 164.37 52.0546 164.69C52.247 164.776 52.6032 164.972 52.55 165.233C52.4957 165.499 52.09 165.617 51.914 165.782C51.1762 166.475 52.3772 167.072 52.9062 167.242C55.0928 167.945 57.5117 167.769 59.7707 167.695C62.6145 167.601 65.4598 167.602 68.3013 167.442C70.027 167.346 71.7501 167.212 73.4723 167.068C73.5278 167.051 73.5839 167.034 73.6399 167.016Z" fill="#B86A3D"/>
<path d="M36.8803 161.831C38.7589 161.11 40.5456 160.167 42.2796 159.152C44.0354 158.123 45.7453 157.022 47.444 155.902C48.3787 155.286 49.3111 154.667 50.2475 154.054C51.1259 153.479 52.0002 152.881 52.92 152.372C53.5477 152.026 54.2377 151.744 54.9545 151.67C54.3984 151.557 53.8274 151.533 53.2438 151.643C52.0376 151.871 50.9623 152.484 49.9557 153.162C48.9031 153.87 47.8686 154.609 46.8462 155.361C44.6861 156.949 42.5544 158.564 40.2494 159.942C39.3026 160.507 38.3326 161.027 37.3389 161.494C37.2682 161.53 37.196 161.563 37.1244 161.597C36.4485 161.864 35.7469 162.063 35.06 162.301C34.8617 162.369 34.6656 162.444 34.4657 162.509C34.2613 162.575 34.0555 162.637 33.8502 162.702C33.7426 162.735 33.636 162.771 33.5293 162.807C34.673 162.589 35.7949 162.247 36.8803 161.831Z" fill="#FFC689"/>
<path d="M66.561 157.597C66.3997 157.668 66.2376 157.751 66.1016 157.864C66.3166 157.872 66.5323 157.852 66.743 157.808C67.2321 157.707 67.7016 157.498 68.1061 157.206C68.2539 157.099 68.3951 156.978 68.5219 156.843C68.109 157.029 67.6898 157.203 67.26 157.344C67.0251 157.422 66.7882 157.498 66.561 157.597Z" fill="#FFC689"/>
<path opacity="0.3" d="M88.9031 161.579C88.3873 161.247 87.7384 161.113 87.151 160.964C84.6297 160.325 82.1134 159.554 79.821 158.307C77.5813 157.089 75.3539 155.513 72.7697 155.156C71.7841 155.02 70.8206 155.13 69.8675 155.339C69.996 155.391 70.1331 155.426 70.264 155.452C70.672 155.532 71.0894 155.548 71.5009 155.605C71.8631 155.655 72.2562 155.728 72.5512 155.959C72.7835 156.142 72.9497 156.451 72.8893 156.751C72.8278 157.057 72.5727 157.294 72.3358 157.475C71.7047 157.957 70.9278 158.248 70.1892 158.521C70.0509 158.572 69.9118 158.622 69.7735 158.673C69.5742 158.746 69.3856 158.839 69.1979 158.939C68.9842 159.051 68.766 159.172 68.5831 159.332C68.4888 159.414 68.3827 159.521 68.3695 159.652C68.3583 159.764 68.4247 159.866 68.4954 159.946C68.6036 160.068 68.7361 160.168 68.8669 160.264C69.2574 160.55 69.6631 160.814 70.036 161.125C70.4451 161.465 70.8442 161.916 70.8945 162.469C70.9353 162.917 70.7111 163.329 70.4152 163.649C70.0317 164.064 69.5314 164.368 69.0288 164.617C68.7925 164.734 68.5544 164.837 68.3043 164.92C67.858 165.066 67.4023 165.186 66.9469 165.3C66.2985 165.463 65.6456 165.608 64.99 165.739C64.227 165.892 63.4599 166.026 62.6896 166.137C61.8969 166.251 61.1002 166.342 60.3009 166.395C59.566 166.443 58.8268 166.461 58.0914 166.413C57.4925 166.373 56.8826 166.294 56.3139 166.093C55.891 165.944 55.4692 165.715 55.2119 165.336C54.9215 164.907 54.9166 164.369 55.1509 163.915C55.3312 163.566 55.6089 163.27 55.8993 163.009C56.2429 162.701 56.6216 162.432 57.01 162.184C57.7622 161.704 58.5606 161.299 59.3671 160.919C59.6267 160.797 59.8852 160.666 60.1523 160.56C60.4821 160.43 60.8231 160.327 61.1618 160.224C62.0367 159.955 62.9199 159.703 63.7675 159.356C64.1424 159.202 64.5156 159.029 64.8529 158.803C65.0878 158.645 65.3328 158.443 65.4475 158.176C65.1375 157.988 64.7738 157.931 64.417 157.902C64.0424 157.872 63.6655 157.869 63.2946 157.803C63.2327 157.793 63.2578 157.711 63.3081 157.705C63.7813 157.642 64.2554 157.583 64.7284 157.516C65.62 157.39 66.5119 157.237 67.3767 156.982C68.1501 156.754 68.9181 156.439 69.561 155.943C68.8074 155.981 68.0527 156.017 67.2979 156.011C66.6519 156.163 65.9981 156.271 65.3262 156.26C63.2736 156.228 61.4938 155.192 59.8122 154.119C58.9065 153.541 58.008 152.953 57.0523 152.459C55.8697 151.848 54.5897 151.39 53.2435 151.643C53.2082 151.65 53.1734 151.658 53.1386 151.666C53.2648 151.672 53.3908 151.681 53.5164 151.692C53.9526 151.73 54.3933 151.79 54.8122 151.921C55.1205 152.017 55.4551 152.157 55.6561 152.422C55.8484 152.676 55.83 152.989 55.707 153.269C55.6156 153.477 55.4781 153.663 55.3315 153.834C55.0983 154.107 54.8306 154.338 54.5402 154.548C53.8134 155.071 52.99 155.442 52.1697 155.791C51.772 155.961 51.3721 156.125 50.9773 156.301C50.6826 156.432 50.373 156.533 50.0696 156.642C49.3721 156.895 48.6608 157.155 48.032 157.556C47.7603 157.73 47.5053 157.933 47.3147 158.196C47.1821 158.379 47.0389 158.594 47.0202 158.826C46.9909 159.187 47.3497 159.369 47.6352 159.484C48.0467 159.65 48.4817 159.752 48.8848 159.941C49.256 160.114 49.6145 160.387 49.6812 160.818C49.7652 161.362 49.3175 161.766 48.8986 162.026C48.4075 162.331 47.8555 162.527 47.3115 162.714C46.9182 162.849 46.5343 163.012 46.1468 163.164C45.6085 163.375 45.072 163.59 44.5444 163.826C43.9694 164.084 43.4021 164.364 42.8662 164.696C42.8331 164.717 42.8004 164.738 42.7676 164.759C44.1048 164.717 45.4423 164.684 46.7807 164.628C47.7491 164.588 48.7134 164.52 49.6806 164.468C50.4454 164.428 51.3364 164.371 52.0544 164.691C52.2467 164.777 52.603 164.972 52.5498 165.234C52.4954 165.5 52.0897 165.617 51.9138 165.783C51.176 166.476 52.377 167.073 52.906 167.243C55.0926 167.946 57.5114 167.769 59.7705 167.695C62.6143 167.602 65.4596 167.603 68.3011 167.443C71.1144 167.285 73.9206 167.028 76.7279 166.79C78.0404 166.679 79.3598 166.591 80.6563 166.347C81.3242 166.222 81.9935 166.062 82.6304 165.821C83.1105 165.64 83.5518 165.349 83.7468 164.854C83.8465 164.601 83.8799 164.339 83.8517 164.07C83.8391 163.948 83.8146 163.833 83.8578 163.715C83.9733 163.398 84.3595 163.242 84.6571 163.161C85.1116 163.038 85.5889 163.01 86.0552 162.96C86.532 162.907 87.0041 162.808 87.4773 162.732C87.8954 162.663 89.9063 162.226 88.9031 161.579Z" fill="#B05827"/>
<path opacity="0.3" d="M57.1178 152.893C57.4651 153.28 57.7684 153.702 58.1115 154.092C58.453 154.48 58.8254 154.845 59.2624 155.126C59.7003 155.407 60.1971 155.612 60.6842 155.792C61.1775 155.973 61.6853 156.117 62.2014 156.218C63.2203 156.419 64.2784 156.455 65.304 156.282C65.3411 156.275 65.3776 156.267 65.4144 156.26C65.385 156.26 65.3557 156.261 65.3264 156.261C63.2738 156.229 61.4941 155.192 59.8124 154.119C58.9067 153.541 58.0082 152.953 57.0525 152.46C56.8058 152.332 56.5548 152.212 56.2998 152.103C56.589 152.347 56.8628 152.609 57.1178 152.893Z" fill="#BF814D"/>
<path opacity="0.3" d="M74.9293 156.164C75.5104 156.546 76.0665 156.962 76.6263 157.374C77.2122 157.805 77.8192 158.207 78.4483 158.572C79.7096 159.303 81.0718 159.899 82.4861 160.261C84.0827 160.67 85.7322 160.816 87.3305 161.218C87.7776 161.33 88.2284 161.4 88.6482 161.604C88.8483 161.7 89.0361 161.832 89.1686 161.999C89.2066 161.872 89.1387 161.732 88.9027 161.579C88.3869 161.247 87.7379 161.113 87.1505 160.964C84.6293 160.325 82.1129 159.554 79.8206 158.307C77.7185 157.164 75.6277 155.706 73.2422 155.236C73.8281 155.493 74.3897 155.809 74.9293 156.164Z" fill="#BF814D"/>
<path opacity="0.3" d="M85.5301 162.977C85.1232 162.993 84.7181 163.032 84.3113 163.043C84.0028 163.051 83.694 163.061 83.3866 163.093C83.0712 163.126 82.7328 163.173 82.4462 163.318C82.3369 163.373 82.2297 163.446 82.1658 163.553C82.0574 163.736 82.1204 163.95 82.1745 164.139C82.2728 164.483 82.2829 164.794 81.9999 165.049C81.7633 165.264 81.4479 165.381 81.1457 165.469C80.8067 165.567 80.4577 165.626 80.1098 165.682C79.705 165.747 79.3094 165.84 78.9088 165.927C78.3565 166.048 77.8019 166.157 77.2459 166.257C76.1317 166.458 75.0118 166.622 73.89 166.772C72.7396 166.925 71.5864 167.055 70.4369 167.214C70.0392 167.269 69.6422 167.327 69.2451 167.387C71.7422 167.228 74.2347 167.003 76.7275 166.791C78.04 166.68 79.3594 166.591 80.6558 166.348C81.3237 166.222 81.993 166.062 82.6299 165.822C83.11 165.641 83.5514 165.349 83.7463 164.855C83.8461 164.602 83.8794 164.339 83.8513 164.07C83.8386 163.949 83.8142 163.834 83.8573 163.715C83.9729 163.399 84.359 163.243 84.6566 163.162C85.0982 163.042 85.5614 163.012 86.0151 162.964C85.8532 162.967 85.6917 162.971 85.5301 162.977Z" fill="#BF814D"/>
<path opacity="0.3" d="M52.5492 165.234C52.4948 165.5 52.0892 165.617 51.9132 165.783C51.885 165.809 51.8606 165.835 51.8382 165.861C51.8741 165.832 51.9109 165.803 51.9489 165.777C52.1524 165.633 52.3798 165.526 52.6078 165.428C52.8082 165.342 53.0095 165.258 53.2131 165.179C53.4273 165.097 53.6435 165.017 53.8499 164.916C53.9376 164.873 54.025 164.827 54.1038 164.769C54.1541 164.732 54.2119 164.684 54.2343 164.624C54.2913 164.47 54.0221 164.36 53.9229 164.316C53.6331 164.189 53.3212 164.101 53.0107 164.044C52.3666 163.925 51.7027 163.936 51.0521 163.986C50.4012 164.035 49.7551 164.129 49.1082 164.212C48.3721 164.306 47.6321 164.372 46.8932 164.438C45.7448 164.541 44.5953 164.632 43.4473 164.738C44.5579 164.705 45.6689 164.674 46.7804 164.628C47.7488 164.587 48.7131 164.52 49.6803 164.468C50.4451 164.427 51.3362 164.37 52.0541 164.691C52.2464 164.777 52.6027 164.972 52.5492 165.234Z" fill="#BF814D"/>
<path opacity="0.48" d="M46.1457 163.164C45.9815 163.228 45.8176 163.293 45.6543 163.359C45.945 163.307 46.2359 163.256 46.5232 163.189C46.9059 163.098 47.2857 162.994 47.6577 162.867C48.0361 162.737 48.4064 162.583 48.7609 162.397C49.0441 162.248 49.3296 162.079 49.5507 161.845C49.7606 161.622 49.8877 161.327 49.8331 161.018C49.7914 160.781 49.668 160.575 49.5033 160.405C49.5924 160.523 49.6562 160.66 49.6804 160.818C49.7644 161.362 49.3167 161.766 48.8978 162.026C48.4067 162.331 47.8547 162.527 47.3107 162.714C46.9171 162.849 46.5332 163.012 46.1457 163.164Z" fill="#FFFBCE"/>
<path opacity="0.48" d="M69.7732 158.673C69.5739 158.746 69.3853 158.839 69.1976 158.939C68.9839 159.051 68.7657 159.172 68.5829 159.332C68.4885 159.414 68.3825 159.521 68.3692 159.653C68.3675 159.669 68.3681 159.686 68.3695 159.702C68.4546 159.611 68.5547 159.532 68.6547 159.463C69.0923 159.161 69.6087 158.976 70.107 158.8C70.3335 158.72 70.5572 158.636 70.7809 158.548C71.2119 158.378 71.6417 158.199 72.0425 157.965C72.2427 157.848 72.435 157.718 72.6115 157.567C72.7823 157.421 72.9445 157.257 73.0497 157.057C73.1501 156.866 73.1765 156.651 73.1009 156.447C73.0322 156.262 72.8936 156.108 72.736 155.992C72.4396 155.775 72.0727 155.671 71.7142 155.614C71.5063 155.58 71.2959 155.565 71.0851 155.558C71.224 155.572 71.3629 155.587 71.5009 155.606C71.8631 155.655 72.2562 155.728 72.5512 155.96C72.7835 156.142 72.9497 156.452 72.8893 156.752C72.8278 157.057 72.5727 157.295 72.3358 157.475C71.7047 157.957 70.9278 158.249 70.1892 158.521C70.0506 158.572 69.9115 158.622 69.7732 158.673Z" fill="#FFFBCE"/>
<path opacity="0.48" d="M69.8311 164.15C70.0007 164.069 70.1675 163.982 70.3264 163.882C70.6301 163.691 70.9222 163.439 71.053 163.095C71.1533 162.831 71.1703 162.54 71.0809 162.271C70.9423 161.854 70.5976 161.541 70.2298 161.297C70.5636 161.612 70.852 162.004 70.8946 162.469C70.9354 162.918 70.7111 163.329 70.4153 163.65C70.2411 163.838 70.0424 164.003 69.8311 164.15Z" fill="#FFFBCE"/>
<path opacity="0.48" d="M48.7115 157.249C49.3708 156.977 50.0632 156.805 50.7454 156.604C51.723 156.315 52.6508 155.9 53.553 155.428C53.9665 155.212 54.3791 154.991 54.7618 154.722C55.1281 154.465 55.4915 154.155 55.7249 153.768C55.9055 153.469 55.9808 153.095 55.8195 152.771C55.8092 152.75 55.7962 152.732 55.7847 152.713C55.8204 152.896 55.7856 153.089 55.7063 153.27C55.6148 153.477 55.4774 153.663 55.3308 153.835C55.0976 154.107 54.8299 154.339 54.5395 154.548C53.8127 155.071 52.9892 155.442 52.1689 155.792C51.7713 155.961 51.3714 156.125 50.9766 156.301C50.6819 156.433 50.3722 156.533 50.0689 156.643C49.3714 156.896 48.6601 157.156 48.0313 157.557C47.9235 157.625 47.8185 157.699 47.7188 157.78C48.0241 157.559 48.3703 157.389 48.7115 157.249Z" fill="#FFFBCE"/>
<path d="M5.35016 169.699C7.95851 169.302 10.6011 169.221 13.235 169.176C15.8583 169.132 18.4874 169.127 21.1015 168.877C23.5666 168.641 26.0442 168.241 28.5269 168.427C29.7307 168.517 30.8776 168.782 32.0047 169.212C33.1536 169.65 34.2651 170.187 35.4391 170.558C36.5015 170.894 37.5943 171.1 38.6969 171.189C39.9275 170.986 41.1727 170.886 42.4085 170.721C43.1164 170.626 43.8156 170.484 44.5212 170.376C45.2241 170.269 45.9306 170.185 46.6379 170.113C48.0895 169.966 49.5369 169.858 50.9969 169.856C52.4658 169.855 53.9342 169.924 55.3994 170.026C56.7981 170.124 58.1937 170.263 59.5928 170.358C60.9148 170.448 62.2773 170.481 63.5668 170.13C64.1427 169.973 64.6111 169.716 65.0159 169.276C65.35 168.913 65.6534 168.505 66.1048 168.28C66.5668 168.049 67.0941 167.987 67.6036 167.963C68.0975 167.94 68.5938 167.942 69.088 167.929C70.1357 167.902 71.6009 167.92 72.5848 167.336C72.7027 167.185 72.7291 167.016 72.6302 166.825C72.4991 166.573 72.18 166.423 71.9353 166.31C71.5866 166.15 71.2182 166.033 70.8494 165.928C69.6616 165.591 68.4673 165.286 67.2896 164.912C65.7583 164.425 64.2385 163.901 62.8018 163.175C61.4746 162.504 60.2078 161.723 58.8984 161.019C57.6414 160.343 56.3355 159.713 54.9431 159.374C53.5046 159.023 52.0737 159.059 50.6364 159.392C49.1571 159.736 47.7091 160.315 46.1856 160.435C44.9355 160.533 43.6986 160.304 42.539 159.837C40.2544 158.916 38.3421 157.276 36.1685 156.141C34.942 155.5 33.6027 154.961 32.1922 155.083C30.8782 155.197 29.6473 155.771 28.5372 156.453C25.974 158.027 23.6187 159.945 21.1903 161.714C18.7283 163.506 16.1499 165.182 13.4029 166.507C13.3865 166.515 13.3702 166.522 13.354 166.53C12.6557 166.801 11.9518 167.057 11.2356 167.28C10.754 167.43 10.2773 167.594 9.79747 167.748C9.6747 167.788 9.55164 167.824 9.42801 167.858C8.92773 167.969 8.42774 168.08 7.9289 168.199C7.284 168.352 6.65347 168.542 6.01892 168.731C5.63192 168.847 5.23515 168.961 4.88323 169.163C4.85275 169.181 4.8217 169.2 4.79094 169.22C4.58134 169.396 4.41774 169.609 4.45569 169.848C4.75299 169.795 5.05114 169.744 5.35016 169.699Z" fill="#812F2A"/>
<path d="M70.5428 167.955C70.0048 168.042 69.4683 168.155 68.9264 168.214C68.3962 168.272 67.8536 168.303 67.337 168.444C66.9989 168.536 66.5595 168.713 66.4284 169.073C66.3793 169.207 66.4072 169.338 66.4215 169.476C66.4534 169.782 66.4155 170.081 66.3022 170.368C66.0805 170.931 65.5788 171.262 65.0331 171.468C64.3094 171.741 63.5484 171.923 62.789 172.065C61.3155 172.342 59.8155 172.443 58.3239 172.569C55.1328 172.839 51.943 173.131 48.7453 173.311C45.5153 173.492 42.281 173.491 39.0488 173.597C36.481 173.681 33.7314 173.882 31.2459 173.083C30.6444 172.89 29.2795 172.211 30.1179 171.423C30.3183 171.235 30.7792 171.102 30.841 170.799C30.9017 170.502 30.4969 170.28 30.2781 170.182C29.4621 169.818 28.4492 169.883 27.58 169.93C26.4803 169.988 25.3845 170.065 24.2836 170.111C21.1647 170.241 18.0494 170.261 14.935 170.487C11.9282 170.706 8.91788 170.9 5.92282 170.448C5.55163 170.392 4.87568 170.352 4.64969 170.002C4.3616 169.556 5.06774 169.256 5.37567 169.135C6.4599 168.708 7.62377 168.445 8.76176 168.196C9.03634 168.104 9.30919 168.007 9.58607 167.921C9.81924 167.848 10.0533 167.777 10.2859 167.702C10.513 167.628 10.7358 167.544 10.9615 167.465C11.7422 167.195 12.5394 166.969 13.308 166.665C13.3893 166.626 13.4713 166.589 13.5518 166.549C14.6817 166.018 15.7841 165.427 16.8602 164.784C19.4804 163.218 21.9033 161.382 24.3587 159.577C25.5205 158.722 26.6968 157.883 27.8931 157.077C29.0372 156.307 30.2594 155.61 31.6306 155.351C33.1604 155.063 34.6156 155.584 35.9597 156.279C37.0462 156.84 38.0672 157.508 39.0968 158.165C41.0085 159.385 43.0315 160.563 45.3647 160.599C46.7367 160.621 48.0417 160.211 49.3499 159.848C50.8174 159.441 52.2978 159.133 53.8251 159.344C56.763 159.75 59.2946 161.541 61.8405 162.926C64.446 164.343 67.3062 165.22 70.1722 165.946C70.8401 166.115 71.5776 166.267 72.1641 166.645C73.3044 167.381 71.0186 167.877 70.5428 167.955Z" fill="#FFC689"/>
<path d="M8.65069 168.503C9.69869 168.265 10.7358 167.97 11.7613 167.65C14.2438 166.877 16.5968 165.707 18.8196 164.369C21.1157 162.986 23.2908 161.408 25.4075 159.767C27.2335 158.351 29.0023 156.831 31.056 155.746C31.3582 155.586 31.6664 155.438 31.9795 155.301C31.8634 155.314 31.7469 155.33 31.6296 155.352C30.2584 155.61 29.0362 156.307 27.8922 157.077C26.6958 157.883 25.5196 158.722 24.3577 159.577C21.9023 161.382 19.4794 163.218 16.8593 164.784C15.7831 165.427 14.6805 166.018 13.5508 166.549C13.4703 166.589 13.3884 166.627 13.307 166.665C12.5385 166.969 11.7412 167.195 10.9606 167.466C10.7352 167.544 10.5121 167.629 10.2849 167.702C10.0523 167.778 9.8183 167.848 9.58512 167.921C9.30824 168.007 9.03539 168.104 8.76081 168.196C7.85226 168.395 6.92789 168.604 6.04004 168.897C6.91927 168.855 7.79562 168.696 8.65069 168.503Z" fill="#FFC689"/>
<path opacity="0.3" d="M72.164 166.646C71.5778 166.268 70.84 166.115 70.1721 165.946C67.3061 165.22 64.4459 164.344 61.8404 162.926C59.2945 161.541 56.7629 159.75 53.825 159.344C52.7046 159.19 51.6094 159.315 50.5261 159.553C50.6721 159.612 50.828 159.651 50.9769 159.68C51.4407 159.771 51.9151 159.79 52.3828 159.855C52.7946 159.911 53.2414 159.995 53.5769 160.257C53.8411 160.465 54.03 160.816 53.9613 161.157C53.8914 161.504 53.6013 161.775 53.3322 161.98C52.6149 162.528 51.7319 162.859 50.8924 163.169C50.7351 163.227 50.5772 163.284 50.4197 163.341C50.1934 163.425 49.9786 163.531 49.7653 163.644C49.5226 163.772 49.2742 163.909 49.0666 164.09C48.9594 164.184 48.8389 164.306 48.824 164.455C48.811 164.583 48.8866 164.698 48.9671 164.789C49.0899 164.927 49.2406 165.041 49.3895 165.15C49.8334 165.476 50.2946 165.776 50.7184 166.129C51.1836 166.515 51.637 167.028 51.6945 167.657C51.7411 168.167 51.4861 168.635 51.1497 168.999C50.7138 169.471 50.1451 169.816 49.5738 170.099C49.3053 170.232 49.0344 170.349 48.7504 170.443C48.2429 170.61 47.7254 170.746 47.2073 170.876C46.4701 171.061 45.728 171.225 44.983 171.374C44.1156 171.548 43.2438 171.7 42.3683 171.826C41.4673 171.956 40.5619 172.06 39.6533 172.12C38.8181 172.175 37.9777 172.196 37.1416 172.14C36.4607 172.095 35.7675 172.005 35.1215 171.777C34.6408 171.607 34.1612 171.347 33.8685 170.916C33.5384 170.429 33.5327 169.818 33.7992 169.301C34.0039 168.904 34.3199 168.568 34.65 168.272C35.0404 167.922 35.4708 167.616 35.9124 167.334C36.7675 166.788 37.6749 166.328 38.5915 165.896C38.8868 165.757 39.1806 165.608 39.4843 165.488C39.8592 165.34 40.2468 165.223 40.632 165.105C41.6265 164.8 42.6303 164.513 43.594 164.119C44.0204 163.944 44.4445 163.748 44.8278 163.49C45.0946 163.31 45.3735 163.082 45.5037 162.778C45.1515 162.564 44.7381 162.498 44.3324 162.466C43.9068 162.431 43.4779 162.429 43.0564 162.354C42.9862 162.342 43.0147 162.249 43.0716 162.241C43.6098 162.17 44.1486 162.104 44.686 162.028C45.6995 161.884 46.7133 161.71 47.6966 161.42C48.5755 161.161 49.4487 160.802 50.1793 160.239C49.3225 160.282 48.4648 160.324 47.6069 160.317C46.8726 160.49 46.1294 160.612 45.3654 160.599C43.0322 160.563 41.0093 159.385 39.0976 158.165C38.068 157.508 37.047 156.84 35.9605 156.279C34.616 155.585 33.1612 155.063 31.6313 155.352C31.5914 155.359 31.5517 155.368 31.512 155.377C31.6555 155.384 31.7987 155.394 31.9415 155.406C32.4372 155.45 32.9384 155.518 33.4145 155.667C33.765 155.776 34.1451 155.936 34.3737 156.237C34.5922 156.525 34.5715 156.881 34.4314 157.199C34.3276 157.435 34.1715 157.647 34.0045 157.842C33.7397 158.151 33.4352 158.415 33.1048 158.652C32.2785 159.247 31.3426 159.669 30.4102 160.066C29.9583 160.259 29.5037 160.446 29.0549 160.645C28.7199 160.795 28.3677 160.909 28.0233 161.034C27.2303 161.321 26.4218 161.617 25.707 162.072C25.3979 162.269 25.1081 162.501 24.8916 162.799C24.741 163.007 24.5782 163.252 24.557 163.515C24.5239 163.925 24.9313 164.133 25.2562 164.264C25.724 164.452 26.2185 164.568 26.6765 164.782C27.0983 164.979 27.506 165.29 27.5816 165.779C27.6771 166.398 27.1682 166.857 26.6921 167.153C26.134 167.499 25.5063 167.722 24.8879 167.935C24.4405 168.088 24.0044 168.274 23.5639 168.447C22.952 168.686 22.3422 168.931 21.7425 169.199C21.0889 169.492 20.444 169.811 19.8348 170.189C19.7974 170.212 19.76 170.236 19.7227 170.26C21.2425 170.212 22.7631 170.174 24.2844 170.111C25.3853 170.065 26.4813 169.988 27.5808 169.93C28.4499 169.883 29.4629 169.818 30.2788 170.182C30.4976 170.28 30.9025 170.502 30.8418 170.799C30.7803 171.102 30.3191 171.235 30.1187 171.423C29.28 172.211 30.6451 172.89 31.2466 173.083C33.7322 173.882 36.4817 173.681 39.0495 173.597C42.2821 173.491 45.5161 173.492 48.746 173.311C51.9438 173.131 55.1338 172.839 58.3247 172.569C59.8166 172.442 61.3163 172.342 62.7898 172.065C63.5491 171.923 64.3099 171.74 65.0339 171.468C65.5796 171.262 66.0813 170.93 66.303 170.368C66.4163 170.081 66.4542 169.782 66.4223 169.476C66.4079 169.339 66.3803 169.207 66.4292 169.073C66.5603 168.713 66.9996 168.536 67.3377 168.443C67.8544 168.303 68.397 168.272 68.9271 168.214C69.4688 168.155 70.0056 168.042 70.5436 167.955C71.0188 167.877 73.3046 167.381 72.164 166.646Z" fill="#B05827"/>
<path opacity="0.3" d="M36.0336 156.772C36.4284 157.211 36.7734 157.691 37.1633 158.134C37.5514 158.576 37.9749 158.991 38.4715 159.31C38.9692 159.629 39.5339 159.863 40.0873 160.067C40.6483 160.273 41.2253 160.437 41.8121 160.552C42.9705 160.78 44.1729 160.821 45.3388 160.624C45.3808 160.617 45.4222 160.607 45.4642 160.599C45.4308 160.599 45.3975 160.601 45.3641 160.6C43.0309 160.563 41.008 159.385 39.0963 158.166C38.0667 157.509 37.0457 156.84 35.9592 156.279C35.6788 156.135 35.3933 155.998 35.1035 155.874C35.4324 156.15 35.7435 156.449 36.0336 156.772Z" fill="#BF814D"/>
<path opacity="0.3" d="M56.2803 160.49C56.9408 160.924 57.5727 161.397 58.2093 161.865C58.8752 162.355 59.5652 162.812 60.2806 163.227C61.7141 164.058 63.2627 164.735 64.8705 165.147C66.6853 165.611 68.5605 165.778 70.377 166.235C70.8853 166.362 71.3977 166.442 71.8747 166.673C72.1021 166.784 72.3157 166.933 72.4661 167.123C72.5092 166.979 72.4322 166.819 72.1636 166.646C71.5774 166.268 70.8396 166.116 70.1717 165.946C67.3057 165.22 64.4455 164.344 61.84 162.927C59.4508 161.627 57.0739 159.97 54.3623 159.435C55.0285 159.727 55.6665 160.087 56.2803 160.49Z" fill="#BF814D"/>
<path opacity="0.3" d="M68.3298 168.235C67.8675 168.252 67.4069 168.297 66.9443 168.31C66.5935 168.319 66.2428 168.33 65.8934 168.366C65.5349 168.404 65.1502 168.457 64.8244 168.622C64.7005 168.685 64.5783 168.768 64.5059 168.89C64.3825 169.097 64.4541 169.34 64.5156 169.555C64.6272 169.946 64.6387 170.299 64.3173 170.59C64.0481 170.833 63.6896 170.967 63.3463 171.067C62.961 171.178 62.5643 171.245 62.1686 171.309C61.7086 171.383 61.2587 171.488 60.8035 171.588C60.1759 171.725 59.5453 171.849 58.9131 171.963C57.6469 172.191 56.3735 172.377 55.0983 172.547C53.7907 172.721 52.4799 172.869 51.1731 173.05C50.7212 173.112 50.2698 173.178 49.8184 173.246C52.6567 173.066 55.4899 172.809 58.3237 172.569C59.8156 172.442 61.3153 172.342 62.7888 172.065C63.5481 171.923 64.3089 171.741 65.0329 171.467C65.5786 171.262 66.0803 170.93 66.302 170.368C66.4153 170.08 66.4532 169.782 66.4213 169.476C66.4069 169.338 66.3793 169.207 66.4282 169.073C66.5593 168.713 66.9986 168.536 67.3368 168.443C67.8388 168.306 68.3652 168.273 68.881 168.219C68.6973 168.223 68.5136 168.228 68.3298 168.235Z" fill="#BF814D"/>
<path opacity="0.3" d="M30.8404 170.799C30.7789 171.102 30.3177 171.235 30.1173 171.423C30.0854 171.453 30.0575 171.483 30.0319 171.513C30.0728 171.479 30.1147 171.447 30.1579 171.416C30.3893 171.253 30.6478 171.131 30.9071 171.02C31.1349 170.922 31.3637 170.826 31.5952 170.737C31.8387 170.644 32.0842 170.553 32.3188 170.438C32.4186 170.389 32.5181 170.337 32.6075 170.271C32.6647 170.229 32.7303 170.175 32.7559 170.106C32.8206 169.931 32.5146 169.806 32.4019 169.756C32.0727 169.612 31.7179 169.512 31.3652 169.447C30.6328 169.312 29.8784 169.324 29.1389 169.38C28.3991 169.436 27.6648 169.544 26.9291 169.638C26.0924 169.744 25.2511 169.82 24.411 169.895C23.1057 170.012 21.7989 170.115 20.4941 170.236C21.7566 170.198 23.0194 170.163 24.2828 170.111C25.3837 170.065 26.4797 169.988 27.5791 169.929C28.4483 169.883 29.4612 169.818 30.2772 170.182C30.496 170.28 30.9008 170.502 30.8404 170.799Z" fill="#BF814D"/>
<path opacity="0.48" d="M23.5625 168.446C23.376 168.519 23.1899 168.593 23.0039 168.668C23.3343 168.609 23.6649 168.551 23.9915 168.475C24.4265 168.372 24.8581 168.254 25.281 168.109C25.7115 167.961 26.1321 167.786 26.5352 167.574C26.8569 167.405 27.1815 167.214 27.4328 166.947C27.6715 166.694 27.8158 166.359 27.754 166.007C27.7065 165.738 27.5662 165.504 27.3793 165.311C27.4805 165.445 27.553 165.6 27.5809 165.779C27.6763 166.398 27.1674 166.858 26.6913 167.153C26.1332 167.5 25.5056 167.722 24.8871 167.935C24.4395 168.088 24.003 168.274 23.5625 168.446Z" fill="#FFFBCE"/>
<path opacity="0.48" d="M50.4193 163.342C50.193 163.425 49.9782 163.531 49.7649 163.644C49.5222 163.772 49.2738 163.909 49.0662 164.091C48.959 164.184 48.8385 164.306 48.8235 164.456C48.8215 164.474 48.8221 164.493 48.8238 164.512C48.9204 164.408 49.0343 164.318 49.1481 164.24C49.6456 163.897 50.2324 163.686 50.7988 163.487C51.0564 163.396 51.3106 163.3 51.5647 163.2C52.0547 163.006 52.5431 162.804 52.9986 162.537C53.226 162.405 53.4448 162.256 53.6452 162.085C53.8393 161.92 54.0236 161.733 54.1432 161.505C54.257 161.288 54.2872 161.044 54.2013 160.812C54.123 160.601 53.9655 160.426 53.7864 160.295C53.4494 160.048 53.0322 159.93 52.6248 159.865C52.3885 159.827 52.1493 159.809 51.9097 159.802C52.0676 159.818 52.2254 159.834 52.3824 159.856C52.7941 159.912 53.241 159.995 53.5765 160.258C53.8407 160.465 54.0296 160.817 53.9609 161.158C53.891 161.505 53.6009 161.775 53.3318 161.981C52.6145 162.528 51.7315 162.86 50.8919 163.17C50.7344 163.227 50.5765 163.284 50.4193 163.342Z" fill="#FFFBCE"/>
<path opacity="0.48" d="M50.4854 169.568C50.6783 169.475 50.8677 169.376 51.0486 169.263C51.3936 169.046 51.7257 168.759 51.8743 168.368C51.9885 168.069 52.0078 167.738 51.9063 167.432C51.7487 166.957 51.3568 166.602 50.9388 166.324C51.318 166.683 51.6461 167.128 51.6944 167.657C51.7409 168.167 51.4859 168.634 51.1495 168.999C50.9514 169.213 50.7257 169.4 50.4854 169.568Z" fill="#FFFBCE"/>
<path opacity="0.48" d="M26.4788 161.722C27.2281 161.414 28.0153 161.218 28.7907 160.989C29.902 160.661 30.9566 160.189 31.9822 159.653C32.4523 159.408 32.9212 159.156 33.3559 158.851C33.7722 158.559 34.1854 158.206 34.4511 157.766C34.6564 157.426 34.742 157.001 34.5586 156.633C34.5471 156.609 34.5324 156.589 34.5192 156.566C34.56 156.774 34.5204 156.995 34.4301 157.199C34.3263 157.435 34.1702 157.647 34.0031 157.842C33.7383 158.151 33.4338 158.415 33.1035 158.652C32.2772 159.247 31.3413 159.669 30.4089 160.066C29.9569 160.259 29.5023 160.446 29.0535 160.645C28.7186 160.795 28.3663 160.909 28.0219 161.034C27.2289 161.321 26.4204 161.617 25.7057 162.072C25.5829 162.15 25.4636 162.234 25.3506 162.325C25.6976 162.076 26.0909 161.882 26.4788 161.722Z" fill="#FFFBCE"/>
<path d="M67.6037 63.9721C69.0777 63.8233 70.5777 63.6649 71.9685 63.1425C72.2463 63.0381 72.5259 62.9155 72.74 62.7049C74.2583 61.2127 70.297 60.7793 69.6738 60.4495C69.3909 60.2996 68.9588 60.0157 69.2858 59.6416C69.4355 59.4703 69.6692 59.4142 69.8877 59.3666C72.805 58.7334 75.7191 58.1829 78.6438 57.6007C79.5172 57.4268 80.4112 57.3736 81.2647 57.0962C81.6895 56.9582 82.1108 56.7605 82.4414 56.4451C82.5243 56.3662 82.611 56.2776 82.6786 56.1844C82.7465 56.0904 82.7717 55.9708 82.799 55.8593C82.853 55.639 82.9163 55.4287 83.1131 55.3041C83.4742 55.0751 83.9315 55.024 84.3361 54.9258C84.9223 54.7837 85.5041 54.6255 86.0926 54.4932C87.3201 54.2171 88.545 53.9503 89.74 53.5433C90.0839 53.4263 91.6465 53.0886 91.22 52.448C91.0191 52.1461 90.6136 51.9808 90.2991 51.8457C90.1527 51.7828 90.004 51.7257 89.8556 51.6684C89.6466 51.5874 89.4469 51.4823 89.2415 51.3925C88.3581 51.0072 87.4449 50.716 86.5169 50.4785C84.9042 50.2632 83.2873 50.0733 81.6672 49.9091C73.9249 49.1245 66.1686 49.026 58.3978 49.3398C54.4974 49.4973 50.6104 49.8027 46.713 49.9912C42.8844 50.1763 39.0468 50.0236 35.2145 49.9766C31.4581 49.9302 27.7243 50.0299 24.0109 50.5349C20.375 51.0294 16.7861 51.7689 13.2477 52.6428C12.4333 52.8439 11.6218 53.0537 10.8124 53.2695C9.46164 53.4413 8.11849 53.6448 6.77202 53.8845C6.07073 54.0094 4.49062 53.9749 4.37616 54.8271C4.31524 55.2829 4.76473 55.6025 5.16938 55.8042C5.8995 56.1679 6.74517 56.3605 7.55451 56.5258C9.87322 56.9991 12.2635 57.2031 14.6276 57.3895C15.8583 57.4865 17.0903 57.5678 18.3221 57.6539C19.0027 57.7014 19.7014 57.7256 20.3792 57.8228C19.4041 58.2117 17.4805 58.7518 17.9485 59.8873C18.2444 60.6056 19.1178 61.1519 19.8418 61.509C20.7518 61.9579 21.7547 62.2369 22.7585 62.465C27.6876 63.5843 32.7373 63.8191 37.7853 64.1528C42.9822 64.4965 48.1871 64.812 53.3984 64.8168C55.9565 64.8191 58.5155 64.7462 61.0637 64.5597C62.9692 64.4203 64.8738 64.2628 66.7741 64.0573C67.0492 64.0278 67.326 64.0001 67.6037 63.9721Z" fill="#DF8E49"/>
<path d="M12.98 55.4149C15.5884 55.0179 18.231 54.9368 20.8649 54.8925C23.4882 54.8483 26.1173 54.8428 28.7314 54.5929C31.1965 54.3572 33.6741 53.9572 36.1568 54.1427C37.3606 54.2327 38.5075 54.4983 39.6346 54.9282C40.7835 55.3661 41.895 55.9029 43.069 56.274C44.1313 56.6099 45.2242 56.8163 46.3268 56.9051C47.5574 56.7022 48.8026 56.6024 50.0384 56.4371C50.7462 56.3422 51.4455 56.2002 52.151 56.0923C52.854 55.9851 53.5605 55.9011 54.2677 55.8295C55.7194 55.6823 57.1668 55.5737 58.6268 55.5722C60.0957 55.5708 61.5641 55.6404 63.0292 55.7424C64.428 55.8399 65.8236 55.9791 67.2227 56.0739C68.5447 56.1636 69.9072 56.1973 71.1967 55.8462C71.7726 55.6895 72.241 55.4325 72.6458 54.9923C72.9799 54.6292 73.2832 54.2215 73.7346 53.9961C74.1967 53.7652 74.724 53.7034 75.2335 53.6795C75.7274 53.6565 76.2237 53.6576 76.7179 53.6447C77.7656 53.6177 79.2308 53.6364 80.2147 53.0521C80.3326 52.9015 80.359 52.7321 80.2601 52.5415C80.129 52.2888 79.8099 52.139 79.5652 52.0266C79.2164 51.8661 78.8481 51.7494 78.4792 51.6445C77.2915 51.3069 76.0972 51.0024 74.9195 50.6278C73.3882 50.1407 71.8684 49.6169 70.4316 48.8909C69.1045 48.2201 67.8377 47.4387 66.5283 46.7348C65.2713 46.0592 63.9654 45.4295 62.573 45.0899C61.1345 44.7392 59.7035 44.7748 58.2662 45.1083C56.787 45.4516 55.339 46.0307 53.8155 46.1506C52.5654 46.2489 51.3285 46.0203 50.1689 45.5528C47.8843 44.6319 45.972 42.9922 43.7984 41.8568C42.5718 41.2162 41.2326 40.6774 39.822 40.7993C38.5081 40.9129 37.2772 41.4873 36.1671 42.1693C33.6039 43.7435 31.2486 45.6615 28.8202 47.4297C26.3582 49.2221 23.7797 50.8978 21.0328 52.2232C21.0164 52.231 21 52.2385 20.9839 52.2462C20.2856 52.5174 19.5817 52.773 18.8655 52.9958C18.3839 53.1456 17.9072 53.3103 17.4274 53.4644C17.3046 53.5038 17.1815 53.5401 17.0579 53.5746C16.5576 53.685 16.0576 53.7962 15.5588 53.9147C14.9139 54.0679 14.2834 54.2583 13.6488 54.4475C13.2618 54.5627 12.865 54.6769 12.5131 54.8793C12.4826 54.8968 12.4516 54.9158 12.4208 54.9357C12.2112 55.1116 12.0476 55.3252 12.0856 55.5645C12.3829 55.511 12.681 55.4604 12.98 55.4149Z" fill="#812F2A"/>
<path d="M78.1717 53.6708C77.6338 53.7582 77.0972 53.8709 76.5553 53.9301C76.0251 53.9879 75.4826 54.0187 74.9659 54.1596C74.6278 54.2516 74.1884 54.4287 74.0573 54.789C74.0082 54.9235 74.0361 55.0543 74.0504 55.1923C74.0823 55.498 74.0444 55.7967 73.9311 56.0842C73.7094 56.6466 73.2077 56.9778 72.662 57.1837C71.9383 57.4568 71.1773 57.6388 70.4179 57.7814C68.9444 58.0583 67.4444 58.1587 65.9528 58.2849C62.7617 58.5554 59.5719 58.8473 56.3742 59.0267C53.1442 59.2078 49.9099 59.2072 46.6777 59.313C44.1099 59.3973 41.3603 59.598 38.8748 58.7992C38.2733 58.606 36.9084 57.9269 37.7468 57.1394C37.9472 56.9514 38.4081 56.818 38.4699 56.5155C38.5306 56.2185 38.1258 55.996 37.907 55.8985C37.091 55.5345 36.0781 55.5992 35.2089 55.6458C34.1092 55.7044 33.0134 55.7812 31.9125 55.8269C28.7936 55.9569 25.6783 55.9776 22.5639 56.2035C19.5571 56.4218 16.5468 56.6161 13.5517 56.1639C13.1805 56.1078 12.5046 56.0678 12.2786 55.7176C11.9905 55.2717 12.6966 54.9718 13.0046 54.8508C14.0888 54.4244 15.2527 54.161 16.3907 53.9123C16.6652 53.8203 16.9381 53.7231 17.215 53.6369C17.4482 53.5641 17.6822 53.4934 17.9148 53.4181C18.1419 53.3445 18.3648 53.2597 18.5905 53.1815C19.3711 52.9109 20.1683 52.6849 20.9369 52.381C21.0182 52.3425 21.1002 52.3051 21.1807 52.2646C22.3106 51.7338 23.413 51.143 24.4891 50.4998C27.1093 48.9343 29.5322 47.0982 31.9876 45.2926C33.1494 44.4381 34.3257 43.5988 35.522 42.7932C36.6661 42.0226 37.8883 41.326 39.2595 41.0675C40.7893 40.7788 42.2445 41.3004 43.5886 41.9948C44.6751 42.556 45.6961 43.2242 46.7257 43.8811C48.6374 45.1011 50.6604 46.2788 52.9936 46.3153C54.3656 46.3368 55.6706 45.9271 56.9788 45.5643C58.4463 45.1571 59.9267 44.8489 61.454 45.06C64.3919 45.4657 66.9235 47.2566 69.4694 48.6419C72.0749 50.0593 74.9351 50.9357 77.8011 51.6616C78.469 51.8307 79.2065 51.9831 79.793 52.3612C80.9333 53.0969 78.6475 53.5935 78.1717 53.6708Z" fill="#FFC689"/>
<path d="M16.2816 54.2188C17.3295 53.9816 18.3666 53.6857 19.3922 53.3663C21.8746 52.5931 24.2277 51.4235 26.4504 50.0851C28.7466 48.7025 30.9216 47.124 33.0383 45.4831C34.8643 44.0674 36.6331 42.5467 38.6869 41.4616C38.9891 41.3021 39.2973 41.154 39.6104 41.0168C39.4942 41.0298 39.3778 41.0456 39.2605 41.0677C37.8893 41.3265 36.6671 42.0232 35.523 42.7934C34.3267 43.599 33.1505 44.4383 31.9886 45.2928C29.5332 47.0984 27.1103 48.9345 24.4902 50.5C23.414 51.1432 22.3114 51.734 21.1817 52.2648C21.1012 52.3053 21.0193 52.3427 20.9379 52.3812C20.1694 52.6851 19.3721 52.9111 18.5915 53.1817C18.366 53.2599 18.1429 53.3447 17.9158 53.4183C17.6832 53.4939 17.4492 53.5644 17.216 53.6371C16.9391 53.7234 16.6662 53.8205 16.3917 53.9125C15.4831 54.1112 14.5588 54.3205 13.6709 54.6132C14.5501 54.5715 15.4265 54.4123 16.2816 54.2188Z" fill="#FFC689"/>
<path opacity="0.3" d="M79.7939 52.3617C79.2076 51.9836 78.4699 51.8312 77.802 51.6622C74.936 50.9362 72.0758 50.0598 69.4703 48.6424C66.9243 47.2574 64.3928 45.4662 61.4549 45.0605C60.3345 44.9058 59.2393 45.0309 58.1559 45.2689C58.302 45.3279 58.4578 45.367 58.6068 45.3963C59.0705 45.4875 59.5449 45.5064 60.0127 45.5708C60.4245 45.6275 60.8713 45.7106 61.2068 45.9734C61.471 46.1807 61.6599 46.5323 61.5912 46.8733C61.5213 47.2203 61.2312 47.4906 60.9621 47.6962C60.2448 48.2436 59.3618 48.5751 58.5222 48.885C58.365 48.9431 58.2071 48.9998 58.0496 49.0576C57.8233 49.1406 57.6085 49.2473 57.3952 49.3597C57.1525 49.488 56.9041 49.6251 56.6965 49.8065C56.5893 49.9003 56.4688 50.0219 56.4538 50.1714C56.4409 50.2988 56.5165 50.4138 56.597 50.5049C56.7198 50.6435 56.8705 50.7574 57.0194 50.8663C57.4633 51.1918 57.9245 51.4923 58.3483 51.8447C58.8135 52.2315 59.2669 52.7438 59.3244 53.3729C59.371 53.883 59.116 54.3507 58.7796 54.715C58.3437 55.1871 57.775 55.5321 57.2037 55.8148C56.9351 55.9476 56.6643 56.0655 56.3802 56.1589C55.8728 56.3257 55.3552 56.462 54.8371 56.5919C54.0999 56.7768 53.3579 56.9413 52.6129 57.0905C51.7455 57.2642 50.8737 57.4162 49.9982 57.5425C49.0971 57.6724 48.1918 57.7762 47.2832 57.836C46.448 57.8912 45.6076 57.9119 44.7715 57.8564C44.0906 57.811 43.3974 57.7213 42.7514 57.493C42.2706 57.3234 41.7911 57.0635 41.4984 56.6319C41.1683 56.1451 41.1625 55.5339 41.4291 55.0175C41.6338 54.6204 41.9498 54.2838 42.2798 53.9879C42.6703 53.6377 43.1007 53.3321 43.5423 53.05C44.3974 52.504 45.3048 52.044 46.2214 51.6119C46.5167 51.4727 46.8105 51.3243 47.1141 51.2042C47.4891 51.0561 47.8766 50.9391 48.2619 50.8209C49.2564 50.5161 50.2602 50.2295 51.2239 49.8347C51.6503 49.6602 52.0744 49.4638 52.4576 49.2059C52.7245 49.0265 53.0034 48.7976 53.1336 48.494C52.7814 48.2804 52.3679 48.2146 51.9623 48.1818C51.5367 48.1473 51.1078 48.1447 50.6863 48.0699C50.6161 48.0576 50.6446 47.9653 50.7015 47.9575C51.2397 47.8859 51.7785 47.8198 52.3159 47.7436C53.3294 47.6001 54.3432 47.4262 55.3265 47.1364C56.2054 46.877 57.0786 46.5185 57.8092 45.9555C56.9524 45.9984 56.0947 46.0398 55.2368 46.0329C54.5025 46.2057 53.7592 46.3276 52.9953 46.3155C50.6621 46.2787 48.6391 45.101 46.7274 43.8814C45.6978 43.2244 44.6769 42.5559 43.5903 41.995C42.2459 41.3006 40.7911 40.7791 39.2612 41.0678C39.2212 41.0752 39.1816 41.0844 39.1419 41.0928C39.2853 41.1005 39.4285 41.11 39.5714 41.1224C40.0671 41.1658 40.5682 41.2345 41.0444 41.3829C41.3949 41.4921 41.775 41.6517 42.0035 41.953C42.222 42.2411 42.2013 42.5971 42.0613 42.9153C41.9575 43.1514 41.8014 43.3627 41.6344 43.5576C41.3696 43.867 41.0651 44.1307 40.7347 44.3684C39.9084 44.9633 38.9725 45.3851 38.0401 45.7825C37.5881 45.9751 37.1336 46.1617 36.6848 46.3615C36.3498 46.5107 35.9976 46.6249 35.6531 46.7497C34.8602 47.0372 34.0517 47.3327 33.3369 47.7882C33.0278 47.9851 32.738 48.2171 32.5215 48.5153C32.3709 48.7229 32.2081 48.9676 32.1868 49.2312C32.1538 49.6412 32.5612 49.8488 32.8861 49.9796C33.3539 50.1682 33.8484 50.2844 34.3064 50.4983C34.7282 50.6953 35.1359 51.0061 35.2115 51.4951C35.307 52.1136 34.7981 52.5733 34.3219 52.8689C33.7639 53.2153 33.1362 53.4379 32.5178 53.6506C32.0704 53.8045 31.6342 53.9902 31.1938 54.1627C30.5819 54.4022 29.9721 54.6469 29.3723 54.9154C28.7188 55.2084 28.0739 55.527 27.4647 55.9048C27.4273 55.9281 27.3899 55.9519 27.3525 55.9758C28.8724 55.9278 30.393 55.8904 31.9143 55.8269C33.0152 55.7809 34.1112 55.7044 35.2107 55.6457C36.0798 55.5994 37.0927 55.5344 37.9087 55.8984C38.1275 55.9959 38.5323 56.2185 38.4717 56.5155C38.4101 56.8179 37.949 56.9513 37.7486 57.1394C36.9099 57.9269 38.275 58.606 38.8765 58.7992C41.3621 59.5979 44.1116 59.3972 46.6794 59.313C49.912 59.2072 53.146 59.2078 56.3759 59.0266C59.5737 58.8472 62.7637 58.5554 65.9546 58.2848C67.4465 58.1583 68.9462 58.0583 70.4197 57.7814C71.179 57.6388 71.9398 57.4565 72.6638 57.1836C73.2095 56.9778 73.7112 56.6466 73.9329 56.0842C74.0461 55.7967 74.0841 55.4979 74.0522 55.1923C74.0378 55.0546 74.0102 54.9235 74.0591 54.7889C74.1902 54.4289 74.6295 54.2518 74.9676 54.1595C75.4843 54.0189 76.0268 53.9879 76.557 53.9301C77.0987 53.8709 77.6355 53.7585 78.1734 53.6708C78.6487 53.5934 80.9345 53.0969 79.7939 52.3617Z" fill="#B05827"/>
<path opacity="0.3" d="M43.6635 42.488C44.0583 42.9273 44.4033 43.4072 44.7932 43.8505C45.1813 44.2922 45.6048 44.7068 46.1014 45.0256C46.5991 45.3453 47.1637 45.5788 47.7172 45.7827C48.2782 45.9894 48.8552 46.1527 49.442 46.268C50.6004 46.496 51.8028 46.5368 52.9687 46.3399C53.0107 46.3327 53.0521 46.3229 53.0941 46.3154C53.0607 46.3154 53.0274 46.3166 52.994 46.316C50.6608 46.2792 48.6378 45.1015 46.7261 43.8819C45.6965 43.2249 44.6756 42.5564 43.589 41.9955C43.3087 41.8506 43.0232 41.7143 42.7334 41.5901C43.0623 41.8664 43.3734 42.1651 43.6635 42.488Z" fill="#BF814D"/>
<path opacity="0.3" d="M63.9102 46.2057C64.5706 46.6396 65.2026 47.1131 65.8392 47.5812C66.5051 48.0709 67.1951 48.5283 67.9104 48.9432C69.344 49.7744 70.8926 50.4512 72.5004 50.8629C74.3152 51.3276 76.1903 51.494 78.0069 51.9506C78.5152 52.0783 79.0276 52.1579 79.5045 52.3894C79.732 52.4998 79.9456 52.649 80.096 52.8393C80.1391 52.695 80.062 52.5351 79.7935 52.362C79.2073 51.984 78.4695 51.8316 77.8016 51.6625C74.9356 50.9365 72.0754 50.0602 69.4699 48.6427C67.0807 47.3429 64.7038 45.6856 61.9922 45.1511C62.6584 45.4427 63.2964 45.8026 63.9102 46.2057Z" fill="#BF814D"/>
<path opacity="0.3" d="M75.9597 53.9506C75.4974 53.9679 75.0368 54.0133 74.5742 54.0257C74.2234 54.0349 73.8726 54.0458 73.5233 54.0823C73.1648 54.1197 72.7801 54.1735 72.4543 54.3382C72.3304 54.4009 72.2082 54.484 72.1358 54.6056C72.0124 54.8135 72.084 55.0561 72.1455 55.2712C72.2571 55.6622 72.2686 56.0153 71.9471 56.306C71.678 56.5495 71.3195 56.6832 70.9762 56.7827C70.5909 56.8942 70.1942 56.9615 69.7985 57.025C69.3385 57.0989 68.8885 57.2042 68.4334 57.3036C67.8057 57.4408 67.1752 57.5647 66.543 57.6786C65.2767 57.9066 64.0033 58.0935 62.7282 58.2631C61.4206 58.437 60.1098 58.5854 58.803 58.7657C58.351 58.8281 57.8996 58.8942 57.4482 58.962C60.2866 58.7818 63.1198 58.5253 65.9536 58.2849C67.4455 58.1584 68.9452 58.0584 70.4187 57.7812C71.178 57.6386 71.9388 57.4566 72.6628 57.1835C73.2085 56.9776 73.7102 56.6464 73.9319 56.084C74.0451 55.7965 74.0831 55.4978 74.0512 55.1921C74.0368 55.0544 74.0092 54.9233 74.0581 54.7887C74.1892 54.4288 74.6285 54.2517 74.9666 54.1594C75.4686 54.0225 75.9951 53.9894 76.5109 53.9348C76.3272 53.9388 76.1434 53.9437 75.9597 53.9506Z" fill="#BF814D"/>
<path opacity="0.3" d="M38.4703 56.5155C38.4088 56.818 37.9476 56.9514 37.7472 57.1394C37.7153 57.1693 37.6874 57.1992 37.6618 57.2289C37.7026 57.1952 37.7446 57.1627 37.7878 57.1322C38.0192 56.9689 38.2777 56.8473 38.537 56.7358C38.7647 56.6377 38.9936 56.5426 39.225 56.4534C39.4686 56.3597 39.7141 56.2688 39.9487 56.1541C40.0485 56.1055 40.148 56.0526 40.2374 55.9868C40.2946 55.9448 40.3602 55.8908 40.3858 55.8217C40.4504 55.6467 40.1445 55.5216 40.0318 55.4724C39.7026 55.3284 39.3478 55.228 38.995 55.1628C38.2627 55.0276 37.5083 55.0403 36.7688 55.0963C36.029 55.1524 35.2947 55.2597 34.5589 55.3537C33.7223 55.4603 32.881 55.5357 32.0409 55.611C30.7355 55.728 29.4288 55.8309 28.124 55.952C29.3865 55.9143 30.6493 55.8793 31.9126 55.8266C33.0135 55.7806 34.1095 55.7042 35.209 55.6455C36.0782 55.5992 37.0911 55.5342 37.9071 55.8982C38.1259 55.996 38.5307 56.2182 38.4703 56.5155Z" fill="#BF814D"/>
<path opacity="0.48" d="M31.1924 54.1625C31.0058 54.2355 30.8198 54.3094 30.6338 54.3839C30.9641 54.3252 31.2948 54.2675 31.6214 54.1907C32.0564 54.088 32.488 53.9696 32.9109 53.8247C33.3413 53.6772 33.762 53.5018 34.1651 53.2905C34.4868 53.1214 34.8114 52.9299 35.0627 52.6631C35.3013 52.4098 35.4457 52.0749 35.3839 51.7229C35.3364 51.4544 35.1961 51.2201 35.0092 51.0269C35.1104 51.1614 35.1829 51.3164 35.2108 51.4955C35.3062 52.114 34.7973 52.5737 34.3212 52.8693C33.7631 53.2157 33.1355 53.4383 32.517 53.651C32.0694 53.8046 31.6329 53.9903 31.1924 54.1625Z" fill="#FFFBCE"/>
<path opacity="0.48" d="M58.0491 49.0577C57.8229 49.1408 57.6081 49.2475 57.3948 49.3599C57.1521 49.4881 56.9037 49.6253 56.6961 49.8067C56.5888 49.9004 56.4684 50.0221 56.4534 50.1716C56.4514 50.1905 56.452 50.2092 56.4537 50.2276C56.5503 50.1238 56.6642 50.0344 56.778 49.9562C57.2754 49.6126 57.8623 49.4025 58.4287 49.2026C58.6863 49.1118 58.9404 49.016 59.1946 48.9157C59.6845 48.7225 60.173 48.5198 60.6285 48.2535C60.8559 48.1207 61.0747 47.9724 61.2751 47.8013C61.4692 47.6357 61.6535 47.4488 61.7731 47.2208C61.8869 47.004 61.9171 46.7596 61.8311 46.5276C61.7529 46.3171 61.5954 46.1423 61.4163 46.0109C61.0793 45.7636 60.6621 45.6461 60.2547 45.5808C60.0183 45.5428 59.7791 45.525 59.5396 45.5178C59.6975 45.5336 59.8553 45.5497 60.0123 45.5716C60.424 45.6282 60.8708 45.7113 61.2064 45.9741C61.4706 46.1814 61.6595 46.533 61.5908 46.874C61.5209 47.2211 61.2308 47.4913 60.9617 47.6969C60.2443 48.2443 59.3614 48.5759 58.5218 48.8858C58.3643 48.943 58.2064 48.9997 58.0491 49.0577Z" fill="#FFFBCE"/>
<path opacity="0.48" d="M58.1152 55.2838C58.3082 55.1915 58.4976 55.0923 58.6785 54.9787C59.0235 54.7616 59.3556 54.4753 59.5042 54.0845C59.6184 53.7846 59.6376 53.4537 59.5361 53.1478C59.3786 52.6731 58.9867 52.318 58.5686 52.0403C58.9479 52.3988 59.2759 52.8445 59.3242 53.3726C59.3708 53.8827 59.1158 54.3505 58.7794 54.7148C58.5813 54.929 58.3556 55.1159 58.1152 55.2838Z" fill="#FFFBCE"/>
<path opacity="0.48" d="M34.1087 47.4385C34.858 47.1297 35.6452 46.9342 36.4206 46.7053C37.5319 46.3773 38.5865 45.9055 39.612 45.3695C40.0821 45.1237 40.5511 44.8721 40.9858 44.5668C41.4021 44.2747 41.8153 43.9225 42.081 43.4823C42.2862 43.1424 42.3719 42.7172 42.1885 42.3486C42.177 42.3253 42.1623 42.3046 42.1491 42.2825C42.1899 42.4903 42.1502 42.7106 42.06 42.9153C41.9562 43.1513 41.8 43.3627 41.633 43.5576C41.3682 43.867 41.0637 44.1306 40.7334 44.3684C39.907 44.9633 38.9712 45.3851 38.0388 45.7824C37.5868 45.975 37.1322 46.1616 36.6834 46.3615C36.3484 46.5107 35.9962 46.6248 35.6518 46.7496C34.8588 47.0371 34.0503 47.3327 33.3356 47.7881C33.2128 47.8663 33.0935 47.9503 32.9805 48.0414C33.3275 47.7916 33.7208 47.5984 34.1087 47.4385Z" fill="#FFFBCE"/>
<defs>
<filter id="filter0_dg_126_2519" x="5.82848" y="50.8812" width="82.2356" height="117.343" filterUnits="userSpaceOnUse" color-interpolation-filters="sRGB">
<feFlood flood-opacity="0" result="BackgroundImageFix"/>
<feColorMatrix in="SourceAlpha" type="matrix" values="0 0 0 0 0 0 0 0 0 0 0 0 0 0 0 0 0 0 127 0" result="hardAlpha"/>
<feOffset dy="3.8473"/>
<feGaussianBlur stdDeviation="1.92365"/>
<feComposite in2="hardAlpha" operator="out"/>
<feColorMatrix type="matrix" values="0 0 0 0 0 0 0 0 0 0 0 0 0 0 0 0 0 0 0.25 0"/>
<feBlend mode="normal" in2="BackgroundImageFix" result="effect1_dropShadow_126_2519"/>
<feBlend mode="normal" in="SourceGraphic" in2="effect1_dropShadow_126_2519" result="shape"/>
<feTurbulence type="fractalNoise" baseFrequency="2.0793805122375488 2.0793805122375488" numOctaves="3" seed="5760" />
<feDisplacementMap in="shape" scale="7.6945996284484863" xChannelSelector="R" yChannelSelector="G" result="displacedImage" width="100%" height="100%" />
<feMerge result="effect2_texture_126_2519">
<feMergeNode in="displacedImage"/>
</feMerge>
</filter>
<linearGradient id="paint0_linear_126_2519" x1="47.187" y1="44.6294" x2="47.187" y2="151.392" gradientUnits="userSpaceOnUse">
<stop stop-color="#DF8E49"/>
<stop offset="1" stop-color="#E7A56C"/>
</linearGradient>
</defs>
</svg>
