<svg width="95" height="61" viewBox="0 0 95 61" fill="none" xmlns="http://www.w3.org/2000/svg">
<path d="M93.623 0.75V59.96H0.75V0.75H93.623Z" fill="#FFC270" stroke="black" stroke-width="1.5"/>
<path d="M78.9504 12.962C78.7324 12.962 78.5593 12.9203 78.431 12.8369C78.3092 12.76 78.2066 12.6157 78.1232 12.4041C78.5913 12.231 79.0338 12.0162 79.4505 11.7597C79.8737 11.5032 80.2905 11.1377 80.7009 10.6632C81.1113 10.1823 81.464 9.57956 81.7589 8.85498H81.7012C81.4319 9.21406 81.1466 9.46734 80.8452 9.61482C80.5438 9.75589 80.2232 9.82642 79.8834 9.82642C79.4602 9.82642 79.0947 9.73024 78.7869 9.53788C78.4855 9.34551 78.2547 9.08261 78.0944 8.74918C77.9405 8.40934 77.8635 8.02781 77.8635 7.60461C77.8635 7.0724 77.9982 6.59149 78.2675 6.16187C78.5432 5.72584 78.9055 5.386 79.3544 5.14234C79.8096 4.89226 80.3002 4.76722 80.826 4.76722C81.5185 4.76722 82.0731 4.99486 82.4899 5.45012C82.9131 5.89897 83.1247 6.55301 83.1247 7.41224C83.1247 8.34201 82.8939 9.23651 82.4322 10.0957C81.9769 10.9486 81.4159 11.6379 80.749 12.1637C80.0886 12.6959 79.489 12.962 78.9504 12.962ZM80.422 9.06658C80.64 9.06658 80.8644 8.98964 81.0953 8.83574C81.3261 8.68185 81.5185 8.45743 81.6724 8.16247C81.8262 7.86751 81.9032 7.51484 81.9032 7.10446C81.9032 6.65561 81.8038 6.2805 81.605 5.97912C81.4127 5.67134 81.1049 5.51745 80.6817 5.51745C80.4444 5.51745 80.2008 5.5976 79.9507 5.7579C79.707 5.91821 79.5018 6.15867 79.3351 6.47927C79.1684 6.79347 79.085 7.17179 79.085 7.61423C79.085 8.02461 79.1876 8.37086 79.3928 8.653C79.6044 8.92872 79.9475 9.06658 80.422 9.06658ZM85.5348 12.962C85.3167 12.962 85.1436 12.9203 85.0154 12.8369C84.8935 12.76 84.7909 12.6157 84.7076 12.4041C85.1757 12.231 85.6181 12.0162 86.0349 11.7597C86.4581 11.5032 86.8749 11.1377 87.2853 10.6632C87.6957 10.1823 88.0483 9.57956 88.3433 8.85498H88.2856C88.0163 9.21406 87.7309 9.46734 87.4296 9.61482C87.1282 9.75589 86.8076 9.82642 86.4677 9.82642C86.0445 9.82642 85.679 9.73024 85.3713 9.53788C85.0699 9.34551 84.839 9.08261 84.6787 8.74918C84.5248 8.40934 84.4479 8.02781 84.4479 7.60461C84.4479 7.0724 84.5826 6.59149 84.8519 6.16187C85.1276 5.72584 85.4899 5.386 85.9387 5.14234C86.394 4.89226 86.8845 4.76722 87.4103 4.76722C88.1028 4.76722 88.6575 4.99486 89.0743 5.45012C89.4975 5.89897 89.7091 6.55301 89.7091 7.41224C89.7091 8.34201 89.4782 9.23651 89.0166 10.0957C88.5613 10.9486 88.0002 11.6379 87.3334 12.1637C86.6729 12.6959 86.0734 12.962 85.5348 12.962ZM87.0064 9.06658C87.2244 9.06658 87.4488 8.98964 87.6796 8.83574C87.9105 8.68185 88.1028 8.45743 88.2567 8.16247C88.4106 7.86751 88.4876 7.51484 88.4876 7.10446C88.4876 6.65561 88.3882 6.2805 88.1894 5.97912C87.997 5.67134 87.6892 5.51745 87.266 5.51745C87.0288 5.51745 86.7851 5.5976 86.5351 5.7579C86.2914 5.91821 86.0862 6.15867 85.9195 6.47927C85.7528 6.79347 85.6694 7.17179 85.6694 7.61423C85.6694 8.02461 85.772 8.37086 85.9772 8.653C86.1888 8.92872 86.5319 9.06658 87.0064 9.06658Z" fill="black"/>
</svg>
