<svg width="95" height="61" viewBox="0 0 95 61" fill="none" xmlns="http://www.w3.org/2000/svg">
<path d="M93.623 0.75V59.96H0.75V0.75H93.623Z" fill="#3BA15C" stroke="black" stroke-width="1.5"/>
<path d="M78.4345 10.5863C79.5374 9.8681 80.3646 9.20765 80.916 8.60491C81.4739 7.99575 81.7528 7.42827 81.7528 6.90248C81.7528 6.48569 81.6567 6.1747 81.4643 5.96951C81.2783 5.76432 80.9962 5.66172 80.6179 5.66172C80.3742 5.66172 80.1498 5.73226 79.9446 5.87332C79.7458 6.00798 79.5823 6.19393 79.4541 6.43118C79.3322 6.66843 79.2617 6.93774 79.2425 7.23912C79.0052 7.21347 78.8225 7.13331 78.6942 6.99866C78.566 6.85759 78.5019 6.67805 78.5019 6.46004C78.5019 6.1266 78.6013 5.83164 78.8 5.57516C78.9988 5.31867 79.2777 5.11989 79.6368 4.97883C80.0023 4.83776 80.4223 4.76722 80.8968 4.76722C81.3072 4.76722 81.6695 4.84417 81.9837 4.99806C82.2979 5.14554 82.5415 5.35714 82.7147 5.63287C82.8878 5.90859 82.9744 6.22279 82.9744 6.57546C82.9744 7.01148 82.8493 7.44751 82.5992 7.88354C82.3556 8.31957 81.9644 8.78765 81.4258 9.2878C80.8936 9.78795 80.1754 10.3554 79.2713 10.9902L78.4345 10.5863ZM81.9837 11.7885C81.6182 11.7885 81.2495 11.7469 80.8776 11.6635C80.5057 11.5802 79.9991 11.4231 79.3579 11.1922L79.329 11.1826C79.1431 11.375 78.9732 11.5096 78.8193 11.5866C78.6718 11.6699 78.5115 11.7116 78.3384 11.7116C78.1652 11.7116 78.0177 11.6539 77.8959 11.5385C77.7805 11.4231 77.7228 11.282 77.7228 11.1153C77.7228 10.8395 77.835 10.6151 78.0594 10.442C78.2839 10.2689 78.566 10.1823 78.9058 10.1823C79.0725 10.1823 79.2745 10.2112 79.5118 10.2689C79.749 10.3202 80.0408 10.3971 80.387 10.4997C80.7974 10.6151 81.1212 10.7017 81.3585 10.7594C81.5957 10.8107 81.8041 10.8363 81.9837 10.8363L83.0417 10.2592C83.1315 10.4003 83.1924 10.5189 83.2244 10.6151C83.2629 10.7113 83.2821 10.8043 83.2821 10.8941C83.2821 11.0608 83.2244 11.2147 83.109 11.3557C82.9936 11.4904 82.8365 11.5962 82.6377 11.6731C82.4389 11.7501 82.2209 11.7885 81.9837 11.7885ZM86.8048 11.7501C86.0738 11.7501 85.4935 11.593 85.0639 11.2788C84.6407 10.9646 84.4291 10.5318 84.4291 9.98032C84.4291 9.71742 84.49 9.46414 84.6119 9.22047C84.7337 8.9704 84.9517 8.71712 85.2659 8.46063C85.5801 8.20415 86.0129 7.94766 86.5644 7.69117C87.0517 7.47316 87.43 7.25515 87.6993 7.03713C87.9686 6.81271 88.1514 6.59469 88.2476 6.38309C88.3502 6.17149 88.4015 5.94706 88.4015 5.70981C88.4015 5.42768 88.3053 5.20325 88.1129 5.03654C87.927 4.86982 87.6705 4.78646 87.3434 4.78646C86.9908 4.78646 86.699 4.87303 86.4682 5.04615C86.2438 5.21287 86.1315 5.45012 86.1315 5.7579C86.1315 5.97592 86.1989 6.1779 86.3335 6.36385C86.4682 6.54981 86.6349 6.71973 86.8337 6.87362C87.0389 7.02751 87.3146 7.21667 87.6608 7.4411C88.0712 7.704 88.4015 7.93484 88.6515 8.13361C88.9016 8.32598 89.1132 8.55361 89.2863 8.81651C89.4595 9.07941 89.546 9.37437 89.546 9.70139C89.546 10.0989 89.4306 10.4548 89.1998 10.769C88.9689 11.0768 88.6451 11.3173 88.2283 11.4904C87.8115 11.6635 87.337 11.7501 86.8048 11.7501ZM86.901 10.9421C87.305 10.9421 87.6416 10.8428 87.9109 10.644C88.1802 10.4388 88.3149 10.1534 88.3149 9.78795C88.3149 9.60841 88.2508 9.43528 88.1225 9.26857C87.9943 9.10185 87.8372 8.94796 87.6512 8.80689C87.4653 8.66582 87.2056 8.47987 86.8721 8.24903C86.4489 7.9669 86.1059 7.72003 85.843 7.50843C85.5865 7.29682 85.3653 7.05316 85.1793 6.77744C84.9934 6.50172 84.9004 6.20034 84.9004 5.87332C84.9004 5.50142 84.9998 5.17119 85.1986 4.88264C85.4038 4.5941 85.6923 4.37288 86.0642 4.21898C86.4361 4.05868 86.8657 3.97853 87.3531 3.97853C88.0071 3.97853 88.5233 4.13563 88.9016 4.44982C89.2799 4.76402 89.4691 5.18402 89.4691 5.70981C89.4691 6.14584 89.2831 6.56584 88.9112 6.9698C88.5393 7.36736 88.0071 7.72003 87.3146 8.02781C86.7631 8.27147 86.3207 8.56323 85.9873 8.90307C85.6602 9.24292 85.4967 9.602 85.4967 9.98032C85.4967 10.2689 85.6282 10.5029 85.8911 10.6824C86.154 10.8556 86.4906 10.9421 86.901 10.9421Z" fill="black"/>
</svg>
