<svg width="95" height="61" viewBox="0 0 95 61" fill="none" xmlns="http://www.w3.org/2000/svg">
<path d="M93.623 0.75V59.96H0.75V0.75H93.623Z" fill="#D9D9D9" stroke="black" stroke-width="1.5"/>
<path d="M79.0357 12.9908C78.4906 12.9908 78.0899 12.9171 77.8334 12.7696C77.5769 12.6221 77.4487 12.3977 77.4487 12.0963C77.4487 11.9168 77.5256 11.7661 77.6795 11.6443C77.8398 11.5224 78.029 11.4615 78.247 11.4615C78.4393 11.4615 78.6253 11.5321 78.8048 11.6731C78.9908 11.8142 79.1447 12.0034 79.2665 12.2406C79.6384 12.2406 79.9783 12.1669 80.286 12.0194C80.6002 11.8719 80.8471 11.6731 81.0266 11.4231C81.2126 11.1666 81.3056 10.8908 81.3056 10.5959C81.3056 10.3522 81.2415 10.115 81.1132 9.88413C80.9914 9.6533 80.7958 9.46414 80.5265 9.31666C80.2572 9.16277 79.9205 9.08582 79.5166 9.08582C79.3499 9.08582 79.1543 9.10826 78.9299 9.15315C78.8401 9.17238 78.776 9.182 78.7375 9.182C78.6798 9.182 78.6317 9.15956 78.5932 9.11467C78.5548 9.06979 78.5355 9.01849 78.5355 8.96078L79.1126 5.61363L80.1418 5.95989L79.7378 8.39331C80.2764 8.39331 80.7573 8.48308 81.1805 8.66262C81.6102 8.84216 81.9436 9.09223 82.1808 9.41284C82.4245 9.73345 82.5463 10.0957 82.5463 10.4997C82.5463 10.9742 82.3924 11.4006 82.0847 11.7789C81.7833 12.1572 81.3633 12.4522 80.8247 12.6638C80.2925 12.8818 79.6961 12.9908 79.0357 12.9908ZM80.9112 6.24844C80.1289 6.24844 79.5518 6.1747 79.1799 6.02722C78.808 5.87974 78.6221 5.65531 78.6221 5.35394C78.6221 5.16157 78.6734 5.0173 78.776 4.92112C78.885 4.81852 79.0453 4.76722 79.2569 4.76722C79.4364 4.76722 79.5999 4.82814 79.7474 4.94997C79.9013 5.0718 80.0263 5.23211 80.1225 5.43088C80.4816 5.41165 80.8856 5.33791 81.3344 5.20966C81.7897 5.07501 82.2321 4.90829 82.6617 4.70952C82.7066 4.77364 82.7387 4.8602 82.7579 4.96921C82.7836 5.0718 82.7964 5.18081 82.7964 5.29623C82.7964 5.52065 82.713 5.7034 82.5463 5.84447C82.386 5.98554 82.1648 6.08813 81.8827 6.15225C81.6069 6.21637 81.2831 6.24844 80.9112 6.24844ZM84.1058 10.5863C85.2087 9.8681 86.0359 9.20765 86.5873 8.60491C87.1452 7.99575 87.4241 7.42827 87.4241 6.90248C87.4241 6.48569 87.3279 6.1747 87.1356 5.96951C86.9496 5.76432 86.6675 5.66172 86.2892 5.66172C86.0455 5.66172 85.8211 5.73226 85.6159 5.87332C85.4171 6.00798 85.2536 6.19393 85.1254 6.43118C85.0035 6.66843 84.933 6.93774 84.9138 7.23912C84.6765 7.21347 84.4938 7.13331 84.3655 6.99866C84.2373 6.85759 84.1732 6.67805 84.1732 6.46004C84.1732 6.1266 84.2726 5.83164 84.4713 5.57516C84.6701 5.31867 84.949 5.11989 85.3081 4.97883C85.6736 4.83776 86.0936 4.76722 86.5681 4.76722C86.9785 4.76722 87.3408 4.84417 87.655 4.99806C87.9692 5.14554 88.2128 5.35714 88.386 5.63287C88.5591 5.90859 88.6457 6.22279 88.6457 6.57546C88.6457 7.01148 88.5206 7.44751 88.2705 7.88354C88.0269 8.31957 87.6357 8.78765 87.0971 9.2878C86.5649 9.78795 85.8467 10.3554 84.9426 10.9902L84.1058 10.5863ZM87.655 11.7885C87.2895 11.7885 86.9208 11.7469 86.5489 11.6635C86.177 11.5802 85.6704 11.4231 85.0292 11.1922L85.0003 11.1826C84.8144 11.375 84.6445 11.5096 84.4906 11.5866C84.3431 11.6699 84.1828 11.7116 84.0097 11.7116C83.8365 11.7116 83.689 11.6539 83.5672 11.5385C83.4518 11.4231 83.3941 11.282 83.3941 11.1153C83.3941 10.8395 83.5063 10.6151 83.7307 10.442C83.9551 10.2689 84.2373 10.1823 84.5771 10.1823C84.7438 10.1823 84.9458 10.2112 85.1831 10.2689C85.4203 10.3202 85.7121 10.3971 86.0583 10.4997C86.4687 10.6151 86.7925 10.7017 87.0298 10.7594C87.267 10.8107 87.4754 10.8363 87.655 10.8363L88.713 10.2592C88.8027 10.4003 88.8637 10.5189 88.8957 10.6151C88.9342 10.7113 88.9534 10.8043 88.9534 10.8941C88.9534 11.0608 88.8957 11.2147 88.7803 11.3557C88.6649 11.4904 88.5078 11.5962 88.309 11.6731C88.1102 11.7501 87.8922 11.7885 87.655 11.7885Z" fill="black"/>
</svg>
