<svg width="60" height="47" viewBox="0 0 60 47" fill="none" xmlns="http://www.w3.org/2000/svg">
<path d="M6.76111 14.1209L5.67578 17.8216L47.9409 30.2171L49.0262 26.5165L6.76111 14.1209Z" fill="white"/>
<path d="M49.026 26.5168L49.8905 27.3652L50.0796 27.5493L52.1441 29.5748L49.3604 30.0015L47.9407 30.2175L49.026 26.5168Z" fill="white"/>
<path opacity="0.15" d="M5.91887 16.9927L49.4329 29.7546L49.3605 30.0012L47.9408 30.2171L5.67578 17.8216L5.91887 16.9927Z" fill="white"/>
<path opacity="0.1" d="M6.60026 14.6688L49.8905 27.365L50.0795 27.5491L49.9493 27.9931L6.4353 15.2312L6.60026 14.6688Z" fill="white"/>
<path d="M49.2212 30.0213L48.5134 28.264L48.6761 27.709L49.6268 27.1058L52.1439 29.5744L49.2212 30.0213Z" fill="white"/>
<path d="M5.47361 9.81409L2.26599 20.7511L2.82823 20.916L6.03584 9.97898L5.47361 9.81409Z" fill="white"/>
<path d="M6.03575 9.97739C6.03575 9.97739 5.82335 10.7162 5.75657 11.5728C5.67175 12.6169 5.79561 13.8374 6.76077 14.1205L5.67544 17.8211C4.71028 17.5381 3.94682 18.4984 3.45426 19.423C3.04783 20.1799 2.82751 20.9165 2.82751 20.9165L6.03575 9.97739Z" fill="white"/>
<path opacity="0.1" d="M5.87682 10.5201C5.87682 10.5201 4.8421 14.1444 6.60269 14.6607L6.43697 15.2258C4.67638 14.7095 5.7111 11.0851 5.7111 11.0851L5.87682 10.5201Z" fill="white"/>
<path opacity="0.15" d="M5.91647 16.9994L5.67552 17.8209C3.91493 17.3046 2.82751 20.9161 2.82751 20.9161L3.06918 20.0921C3.06918 20.0921 4.15588 16.483 5.91647 16.9994Z" fill="white"/>
<path opacity="0.1" d="M5.42453 9.79968L2.21692 20.7367L2.51585 20.8243L5.72346 9.88735L5.42453 9.79968Z" fill="white"/>
<path opacity="0.15" d="M6.0357 9.97719C6.0357 9.97719 5.8233 10.716 5.75649 11.5726L3.45423 19.4226C3.04783 20.1795 2.82751 20.9161 2.82751 20.9161L6.0357 9.97719Z" fill="white"/>
<path d="M14.8676 8.61528L12.7443 11.5876L48.4357 37.084L50.559 34.1116L14.8676 8.61528Z" fill="white"/>
<path d="M50.5594 34.1114L51.1108 35.1698L51.2318 35.3999L52.5488 37.9269L49.8248 37.3696L48.436 37.0838L50.5594 34.1114Z" fill="white"/>
<path opacity="0.15" d="M13.2198 10.9219L49.9659 37.1717L49.8244 37.3698L48.4357 37.084L12.7443 11.5876L13.2198 10.9219Z" fill="white"/>
<path opacity="0.1" d="M14.5534 9.05511L51.1105 35.1699L51.2316 35.4L50.9768 35.7566L14.2307 9.50688L14.5534 9.05511Z" fill="white"/>
<path d="M49.6888 37.3405L49.5564 35.5149L49.8749 35.0691L50.9425 34.8466L52.5486 37.9268L49.6888 37.3405Z" fill="white"/>
<path d="M14.6933 4.60974L8.68982 13.0138L9.37213 13.5012L15.3756 5.09716L14.6933 4.60974Z" fill="white"/>
<path d="M15.4354 4.63017C15.4354 4.63017 15.0155 5.22501 14.696 5.97552C14.3034 6.88905 14.0525 8.0325 14.8675 8.61473L12.7442 11.5871C11.9291 11.0049 10.9288 11.613 10.1919 12.2808C9.58558 12.8262 9.15894 13.4164 9.15894 13.4164L15.4354 4.63017Z" fill="white"/>
<path opacity="0.1" d="M15.1239 5.06637C15.1239 5.06637 13.0706 7.98698 14.5574 9.04906L14.2332 9.50291C12.7464 8.44083 14.7996 5.52022 14.7996 5.52022L15.1239 5.06637Z" fill="white"/>
<path opacity="0.15" d="M13.216 10.9275L12.7446 11.5874C11.2578 10.5253 9.1593 13.4165 9.1593 13.4165L9.63209 12.7546C9.63209 12.7546 11.7292 9.86539 13.216 10.9275Z" fill="white"/>
<path opacity="0.1" d="M14.9469 4.28286L8.67163 13.0674L8.89634 13.228L15.1716 4.44338L14.9469 4.28286Z" fill="white"/>
<path opacity="0.15" d="M15.4357 4.63036C15.4357 4.63036 15.0158 5.2252 14.6963 5.97571L10.1922 12.2808C9.58595 12.8263 9.1593 13.4165 9.1593 13.4165L15.4357 4.63036Z" fill="white"/>
<path d="M6.68927 14.4495L5.82568 17.394L47.3434 29.5704L48.2069 26.6258L6.68927 14.4495Z" fill="#DC795E"/>
<path d="M48.207 26.6257L49.0862 27.3569L49.2784 27.5156L51.3779 29.2613L48.7061 29.4668L47.3434 29.5703L48.207 26.6257Z" fill="#DC795E"/>
<path opacity="0.15" d="M6.01911 16.7345L48.7636 29.2707L48.7061 29.4669L47.3434 29.5704L5.82568 17.394L6.01911 16.7345Z" fill="#6E3025"/>
<path opacity="0.1" d="M6.56143 14.8855L49.0861 27.3572L49.2783 27.5159L49.1747 27.8692L6.43018 15.3331L6.56143 14.8855Z" fill="white"/>
<path d="M48.5725 29.4762L47.7991 28.0162L47.9286 27.5746L48.818 27.1336L51.3778 29.2613L48.5725 29.4762Z" fill="#E49470"/>
<path d="M5.30044 10.916L2.74817 19.6185L3.22666 19.7588L5.77893 11.0564L5.30044 10.916Z" fill="#F8B88E"/>
<path d="M5.77908 11.0553C5.77908 11.0553 5.61081 11.6434 5.58938 12.3343C5.55993 13.1762 5.74128 14.1716 6.68937 14.4497L5.82578 17.3943C4.87769 17.1162 4.18742 17.856 3.75745 18.5806C3.40236 19.1735 3.22632 19.7594 3.22632 19.7594L5.77908 11.0553Z" fill="#E49470"/>
<path opacity="0.1" d="M5.65189 11.4873C5.65189 11.4873 4.83342 14.3726 6.56287 14.8798L6.43101 15.3294C4.70155 14.8222 5.52003 11.937 5.52003 11.937L5.65189 11.4873Z" fill="white"/>
<path opacity="0.15" d="M6.0176 16.7407L5.82587 17.3944C4.09642 16.8872 3.22632 19.7594 3.22632 19.7594L3.41861 19.1038C3.41861 19.1038 4.28814 16.2335 6.0176 16.7407Z" fill="#6E3025"/>
<path opacity="0.1" d="M5.30044 10.916L2.74817 19.6185L2.91992 19.6689L5.47219 10.9664L5.30044 10.916Z" fill="white"/>
<path opacity="0.15" d="M5.77904 11.0554C5.77904 11.0554 5.61077 11.6435 5.58934 12.3344L3.75745 18.5806C3.40236 19.1735 3.22632 19.7594 3.22632 19.7594L5.77904 11.0554Z" fill="#6E3025"/>
<path d="M14.7753 8.86394L12.9916 11.3609L48.1977 36.5106L49.9814 34.0136L14.7753 8.86394Z" fill="#DC795E"/>
<path d="M49.9811 34.014L50.571 34.9935L50.7003 35.2066L52.1093 37.5456L49.5184 36.8612L48.1974 36.5109L49.9811 34.014Z" fill="#DC795E"/>
<path opacity="0.15" d="M13.3911 10.8016L49.6376 36.6945L49.5187 36.8609L48.1977 36.5106L12.9916 11.3609L13.3911 10.8016Z" fill="#6E3025"/>
<path opacity="0.1" d="M14.5109 9.23406L50.5709 34.9938L50.7003 35.2069L50.4862 35.5065L14.2397 9.61357L14.5109 9.23406Z" fill="white"/>
<path d="M49.389 36.8264L49.1386 35.1933L49.4061 34.8189L50.3911 34.6948L52.1091 37.5458L49.389 36.8264Z" fill="#E49470"/>
<path d="M14.6258 5.07054L9.35425 12.4501L9.76 12.7399L15.0316 5.36039L14.6258 5.07054Z" fill="#F8B88E"/>
<path d="M15.0315 5.3591C15.0315 5.3591 14.6793 5.85914 14.4319 6.5046C14.1272 7.29002 13.9712 8.28975 14.7752 8.86406L12.9915 11.361C12.1875 10.7867 11.2924 11.2584 10.6481 11.8014C10.1178 12.2446 9.75891 12.74 9.75891 12.74L15.0315 5.3591Z" fill="#E49470"/>
<path opacity="0.1" d="M14.7696 5.72542C14.7696 5.72542 13.048 8.18119 14.5146 9.22882L14.2422 9.61008C12.7757 8.56245 14.4973 6.10668 14.4973 6.10668L14.7696 5.72542Z" fill="white"/>
<path opacity="0.15" d="M13.3875 10.8068L12.9915 11.3612C11.525 10.3136 9.75891 12.74 9.75891 12.74L10.1561 12.1841C10.1561 12.1841 11.921 9.75921 13.3875 10.8068Z" fill="#6E3025"/>
<path opacity="0.1" d="M14.6258 5.07054L9.35425 12.4501L9.49989 12.5541L14.7715 5.17457L14.6258 5.07054Z" fill="white"/>
<path opacity="0.15" d="M15.0314 5.3592C15.0314 5.3592 14.6792 5.85925 14.4318 6.50471L10.6481 11.8014C10.1178 12.2446 9.75891 12.74 9.75891 12.74L15.0314 5.3592Z" fill="#6E3025"/>
</svg>
