<svg width="23" height="47" viewBox="0 0 23 47" fill="none" xmlns="http://www.w3.org/2000/svg">
<path d="M12.9736 10.3095H9.22949L10.3977 0.696966C10.4462 0.299261 10.7836 0 11.1845 0H11.199C11.6052 0 11.9458 0.307138 11.9872 0.711406L12.9736 10.3095Z" fill="white"/>
<path d="M18.3268 29.3869H3.87427V35.6498H18.3268V29.3869Z" fill="white"/>
<path d="M13.9084 11.08C12.0741 10.5471 10.1263 10.5471 8.29263 11.08C8.20272 10.7715 8.11347 10.4631 8.02356 10.1546C10.0331 9.57053 12.1673 9.57053 14.1775 10.1546C14.0876 10.4631 13.9983 10.7715 13.9084 11.08Z" fill="white"/>
<path d="M7.68496 14.7768C7.23476 14.8739 6.78784 14.9907 6.34485 15.1272C6.34485 13.8422 6.34485 12.5579 6.34485 11.2735C6.78718 11.137 7.23476 11.0209 7.68496 10.9231C7.68496 12.2074 7.68496 13.4918 7.68496 14.7768Z" fill="white"/>
<path d="M9.04442 14.5432C8.58896 14.6016 8.13546 14.6797 7.68591 14.7768C7.68591 13.4918 7.68591 12.2075 7.68591 10.9225C8.13612 10.8254 8.58961 10.7473 9.04442 10.6888C9.04442 11.9738 9.04442 13.2582 9.04442 14.5432Z" fill="white"/>
<path d="M10.414 14.4263C9.95654 14.446 9.49911 14.4847 9.04431 14.5431C9.04431 13.2581 9.04431 11.9738 9.04431 10.6894C9.49977 10.631 9.95654 10.5923 10.414 10.5726C10.414 11.857 10.414 13.1413 10.414 14.4263Z" fill="white"/>
<path d="M11.7885 14.4263C11.3304 14.4067 10.8723 14.4067 10.4149 14.4263C10.4149 13.1414 10.4149 11.857 10.4149 10.572C10.873 10.5523 11.3311 10.5523 11.7885 10.572C11.7885 11.857 11.7885 13.1414 11.7885 14.4263Z" fill="white"/>
<path d="M13.1579 14.5431C12.7024 14.4847 12.2457 14.446 11.7876 14.4263C11.7876 13.1413 11.7876 11.857 11.7876 10.572C12.245 10.5916 12.7024 10.6304 13.1579 10.6888C13.1579 11.9738 13.1579 13.2581 13.1579 14.5431Z" fill="white"/>
<path d="M14.5172 14.7768C14.067 14.6796 13.6135 14.6015 13.1587 14.5431C13.1587 13.2581 13.1587 11.9738 13.1587 10.6895C13.6141 10.7479 14.067 10.8253 14.5172 10.9231C14.5172 12.2074 14.5172 13.4918 14.5172 14.7768Z" fill="white"/>
<path d="M15.8576 15.1266C15.4153 14.9901 14.9677 14.8739 14.5175 14.7761C14.5175 13.4911 14.5175 12.2068 14.5175 10.9218C14.9677 11.0189 15.4146 11.1358 15.8576 11.2723C15.8576 12.5573 15.8576 13.8423 15.8576 15.1266Z" fill="white"/>
<path d="M22.2027 19.4941C22.2027 27.0013 22.2027 34.4356 22.2027 43.197C22.2027 44.4419 21.4618 45.5084 20.3933 46.0006C20.0048 46.1798 19.573 46.2802 19.1195 46.2802C14.5269 46.2802 9.93422 46.2802 5.34092 46.2802C3.63788 46.2631 -0.00184597 44.3592 0.000122869 42.6831C0.0106233 42.5735 0.0211265 42.4632 0.031627 42.3536C0.118256 41.4618 0.204877 40.5686 0.29085 39.6734C0.942535 32.8888 1.58831 25.9959 2.23278 19.0262C2.23147 17.3015 3.59851 15.5985 5.30483 15.3668C9.31535 14.4021 13.3856 13.9735 17.3928 14.1501H17.3935C19.1031 14.3876 22.206 17.7944 22.2027 19.4941Z" fill="white"/>
<path d="M20.3933 46.0005C20.0048 46.1797 19.573 46.2801 19.1195 46.2801C14.5269 46.2801 9.93422 46.2801 5.34092 46.2801C3.63788 46.263 -0.00184597 44.3592 0.000122869 42.683C0.0106233 42.5734 0.0211265 42.4632 0.031627 42.3536C0.0106261 42.2098 0.000122869 42.0628 0.000122869 41.9125C0.000122869 41.1296 0.000122869 40.3467 0.000122869 39.5637C0.0972521 39.6005 0.193721 39.6366 0.29085 39.6733C3.18373 40.7706 6.09302 42.0248 8.99771 43.3235C9.69927 43.8578 10.4002 44.3959 11.1011 44.9341C13.568 44.9341 16.0356 44.9432 18.5013 44.9616C19.132 45.3114 19.7627 45.6579 20.3933 46.0005Z" fill="white"/>
<path d="M19.9713 17.7189C19.9641 25.7576 19.9563 33.7971 19.949 41.8358C19.9477 43.5612 18.5663 44.9545 16.8632 44.9505C12.2699 44.9243 7.67399 44.9295 3.08201 44.9663C1.52991 44.9735 0.244917 43.8342 0.0316262 42.3536C0.0106253 42.2099 0.00012207 42.0629 0.00012207 41.9126C0.00012207 34.0117 0.00012207 26.1107 0.00012207 18.2098C0.000778349 16.5179 1.35468 14.7492 3.04854 14.4132C7.61821 13.522 12.2988 13.3966 16.8993 14.0365C17.0673 14.0601 17.232 14.0975 17.3922 14.1487C18.8622 14.6193 19.9727 16.1642 19.9713 17.7189Z" fill="white"/>
<path d="M12.9458 11.3929H9.41638L10.5176 2.33139C10.5634 1.95648 10.8814 1.67438 11.2594 1.67438H11.273C11.6559 1.67438 11.977 1.96391 12.016 2.345L12.9458 11.3929Z" fill="#526EC5"/>
<path d="M17.9933 29.3767H4.36926V35.2806H17.9933V29.3767Z" fill="white"/>
<path d="M13.8278 12.1192C12.0986 11.6168 10.2624 11.6168 8.53392 12.1192C8.44916 11.8284 8.36503 11.5376 8.28027 11.2469C10.1746 10.6963 12.1865 10.6963 14.0814 11.2469C13.9967 11.5376 13.9125 11.8284 13.8278 12.1192Z" fill="#708FCC"/>
<path d="M7.96117 15.6041C7.53677 15.6956 7.11547 15.8058 6.69788 15.9344C6.69788 14.7231 6.69788 13.5124 6.69788 12.3017C7.11485 12.173 7.53677 12.0635 7.96117 11.9713C7.96117 13.182 7.96117 14.3927 7.96117 15.6041Z" fill="#D70703"/>
<path d="M9.24169 15.3839C8.81234 15.4389 8.38484 15.5126 7.96106 15.6041C7.96106 14.3928 7.96106 13.1821 7.96106 11.9707C8.38546 11.8792 8.81296 11.8055 9.24169 11.7505C9.24169 12.9618 9.24169 14.1725 9.24169 15.3839Z" fill="#E71712"/>
<path d="M10.5341 15.2737C10.1029 15.2923 9.67165 15.3288 9.24292 15.3839C9.24292 14.1725 9.24292 12.9618 9.24292 11.7511C9.67227 11.696 10.1029 11.6596 10.5341 11.641C10.5341 12.8517 10.5341 14.0624 10.5341 15.2737Z" fill="#D70703"/>
<path d="M11.829 15.2737C11.3972 15.2551 10.9654 15.2551 10.5342 15.2737C10.5342 14.0624 10.5342 12.8517 10.5342 11.6403C10.966 11.6218 11.3978 11.6218 11.829 11.6403C11.829 12.8517 11.829 14.0624 11.829 15.2737Z" fill="#E71712"/>
<path d="M13.1207 15.3839C12.6914 15.3288 12.2608 15.2923 11.829 15.2738C11.829 14.0624 11.829 12.8517 11.829 11.6404C12.2602 11.6589 12.6914 11.6954 13.1207 11.7505C13.1207 12.9618 13.1207 14.1725 13.1207 15.3839Z" fill="#D70703"/>
<path d="M14.4001 15.6041C13.9757 15.5125 13.5482 15.4389 13.1195 15.3839C13.1195 14.1725 13.1195 12.9618 13.1195 11.7511C13.5489 11.8062 13.9757 11.8792 14.4001 11.9713C14.4001 13.1821 14.4001 14.3928 14.4001 15.6041Z" fill="#E71712"/>
<path d="M15.6645 15.9338C15.2476 15.8052 14.8256 15.6957 14.4012 15.6035C14.4012 14.3921 14.4012 13.1814 14.4012 11.9701C14.8256 12.0617 15.247 12.1718 15.6645 12.3005C15.6645 13.5118 15.6645 14.7231 15.6645 15.9338Z" fill="#D70703"/>
<path d="M21.6462 20.051C21.6462 27.1279 21.6462 34.136 21.6462 42.3951C21.6462 43.5687 20.9478 44.574 19.9406 45.038C19.5744 45.2069 19.1673 45.3016 18.7398 45.3016C14.4104 45.3016 10.0811 45.3016 5.75107 45.3016C4.14565 45.2855 0.714575 43.4908 0.716431 41.9107C0.72633 41.8074 0.736231 41.7035 0.74613 41.6001C0.827792 40.7594 0.909449 39.9174 0.990493 39.0735C1.60482 32.6779 2.21358 26.1801 2.8211 19.6099C2.81986 17.9841 4.10854 16.3787 5.71705 16.1603C9.49767 15.2509 13.3346 14.8469 17.1121 15.0133H17.1127C18.7243 15.2373 21.6493 18.4487 21.6462 20.051Z" fill="#526EC5"/>
<path d="M19.9406 45.038C19.5744 45.2069 19.1673 45.3016 18.7398 45.3016C14.4104 45.3016 10.0811 45.3016 5.75107 45.3016C4.14565 45.2855 0.714575 43.4908 0.716431 41.9107C0.72633 41.8074 0.736231 41.7035 0.74613 41.6001C0.726333 41.4646 0.716431 41.3261 0.716431 41.1844C0.716431 40.4463 0.716431 39.7083 0.716431 38.9702C0.807993 39.0049 0.898931 39.0389 0.990493 39.0735C3.71754 40.1079 6.46006 41.2902 9.19824 42.5145C9.85958 43.0181 10.5203 43.5254 11.181 44.0327C13.5066 44.0327 15.8327 44.0414 18.157 44.0587C18.7515 44.3884 19.3461 44.7151 19.9406 45.038Z" fill="#526EC5"/>
<path d="M19.5428 18.3775C19.536 25.9555 19.5286 33.5341 19.5218 41.112C19.5205 42.7384 18.2183 44.0519 16.6129 44.0481C12.2829 44.0234 7.9504 44.0284 3.62165 44.063C2.15852 44.0698 0.947193 42.9958 0.746129 41.6001C0.726332 41.4646 0.716431 41.3261 0.716431 41.1844C0.716431 33.7364 0.716431 26.2883 0.716431 18.8403C0.717049 17.2454 1.99334 15.5781 3.5901 15.2614C7.89782 14.4212 12.3101 14.3031 16.6469 14.9063C16.8053 14.9285 16.9605 14.9638 17.1115 15.012C18.4973 15.4556 19.5441 16.9119 19.5428 18.3775Z" fill="#708FCC"/>
<path d="M2.58936 19.2258C2.58936 19.1268 2.96488 18.9548 3.17832 18.9344C5.85649 18.7457 8.61199 18.6498 11.3545 18.6498C13.3206 18.6498 15.304 18.6993 17.2509 18.797C17.3976 18.815 17.6679 18.9449 17.6679 19.0296L17.6438 28.604C15.5861 28.5978 13.4672 28.5953 11.3502 28.5953C8.42887 28.5953 5.5088 28.5997 2.58997 28.6077L2.58936 19.2258Z" fill="#92B6C4"/>
<path d="M2.29626 28.9028V19.2257C2.29626 18.8174 3.0399 18.6522 3.15188 18.6411C7.78191 18.3151 12.5963 18.2674 17.2678 18.5031C17.4008 18.5186 17.9638 18.6665 17.9638 19.0302L17.939 28.8997L17.6439 28.8984C15.5869 28.8923 13.468 28.8898 11.3509 28.8898C8.42964 28.8898 5.5102 28.8941 2.59075 28.9022L2.29626 28.9028ZM2.88461 19.3402V28.3132C7.72128 28.2996 12.6371 28.2965 17.3513 28.3089L17.3742 19.1465C17.3241 19.1206 17.2554 19.094 17.2158 19.089C12.6211 18.8607 7.79429 18.9046 3.20013 19.2282C3.11352 19.2356 2.96813 19.2932 2.88461 19.3402Z" fill="white"/>
</svg>
