<svg width="105" height="94" viewBox="0 0 105 94" fill="none" xmlns="http://www.w3.org/2000/svg">
<circle cx="48" cy="47" r="47" fill="#DA291C"/>
<path d="M28.7931 88.5064C28.8193 88.5195 28.8456 88.5195 28.8718 88.5326C28.9768 88.5851 29.0949 88.6114 29.213 88.6245C29.2655 88.6245 29.3049 88.6639 29.3443 88.6639C29.3836 88.6639 29.423 88.6376 29.4624 88.6376C29.5936 88.6245 29.7117 88.5982 29.8298 88.5326C29.8561 88.5195 29.8823 88.5326 29.8954 88.5195L58.1373 72.1807C58.4785 71.9838 58.6885 71.6164 58.6885 71.2227V64.7527C58.6885 64.1359 58.1898 63.6372 57.573 63.6372C57.1393 63.6372 56.7639 63.8839 56.5793 64.2448C56.5014 64.397 56.4575 64.5697 56.4575 64.7527V70.5796L30.4598 85.6192V55.5663L40.8174 48.4829L40.8799 48.4402C41.4179 48.1383 41.5885 47.4559 41.2867 46.9178C41.0139 46.4316 40.4304 46.2347 39.9235 46.4337C39.8694 46.4549 39.8162 46.4807 39.7644 46.511L29.3311 53.6371L3.33338 38.6369L29.3443 23.6235L43.1765 31.3927C43.4128 31.5253 43.6745 31.5642 43.9204 31.5216C44.2342 31.4673 44.5222 31.2802 44.6988 30.9858C45.0007 30.4478 44.8169 29.7785 44.292 29.4635L29.9086 21.3663C29.5674 21.1694 29.1343 21.1694 28.7931 21.3663L0.551189 37.6789C0.538066 37.692 0.524943 37.7051 0.511819 37.7182C0.36746 37.8101 0.236223 37.9282 0.144359 38.0857V38.0988C0.0524938 38.2563 0.0131239 38.4269 0.0131239 38.5975C0.0131239 38.6106 0 38.6369 0 38.65V71.2358C0 71.6295 0.209977 71.9969 0.551189 72.1938L28.7931 88.5064ZM2.21788 40.5529L28.2288 55.5663V85.6061L2.21788 70.5796V40.5529Z" fill="black"/>
<path d="M22.2969 38.6369C22.2969 41.1828 25.3547 43.1776 29.2524 43.1776C33.1501 43.1776 36.2079 41.1828 36.2079 38.6369C36.2079 36.0909 33.1501 34.0961 29.2524 34.0961C25.3547 34.0961 22.2969 36.0909 22.2969 38.6369ZM33.99 38.6369C33.99 39.7393 31.969 40.9597 29.2524 40.9597C26.5489 40.9597 24.5148 39.7393 24.5148 38.6369C24.5148 37.5345 26.5358 36.314 29.2524 36.314C31.969 36.314 33.99 37.5345 33.99 38.6369Z" fill="black"/>
<path d="M33.99 38.6369C33.99 39.7393 31.969 40.9597 29.2524 40.9597C26.5489 40.9597 24.5148 39.7393 24.5148 38.6369C24.5148 37.5345 26.5358 36.314 29.2524 36.314C31.969 36.314 33.99 37.5345 33.99 38.6369Z" fill="black"/>
<path d="M8.13672 47.2589C6.22068 47.2589 4.71147 49.4768 4.71147 52.3115C4.71147 55.1462 6.22068 57.3641 8.13672 57.3641C10.0528 57.3641 11.562 55.1462 11.562 52.3115C11.562 49.4768 10.0528 47.2589 8.13672 47.2589ZM8.13672 55.1462C7.71676 55.1462 6.94247 54.0701 6.94247 52.3246C6.94247 50.5792 7.71676 49.4899 8.13672 49.4899C8.55667 49.4899 9.34408 50.5661 9.34408 52.3246C9.34408 54.0832 8.55667 55.1462 8.13672 55.1462Z" fill="black"/>
<path d="M8.13672 55.1462C7.71676 55.1462 6.94247 54.0701 6.94247 52.3246C6.94247 50.5792 7.71676 49.4899 8.13672 49.4899C8.55667 49.4899 9.34408 50.5661 9.34408 52.3246C9.34408 54.0832 8.55667 55.1462 8.13672 55.1462Z" fill="black"/>
<path d="M8.13672 60.8812C6.22068 60.8812 4.71147 63.0991 4.71147 65.9337C4.71147 68.7684 6.22068 70.9863 8.13672 70.9863C10.0528 70.9863 11.562 68.7684 11.562 65.9337C11.562 63.0991 10.0528 60.8812 8.13672 60.8812ZM8.13672 68.7553C7.71676 68.7553 6.94247 67.6792 6.94247 65.9337C6.94247 64.1883 7.71676 63.0991 8.13672 63.0991C8.55667 63.0991 9.34408 64.1752 9.34408 65.9337C9.34408 67.6923 8.55667 68.7553 8.13672 68.7553Z" fill="black"/>
<path d="M8.13672 68.7553C7.71676 68.7553 6.94247 67.6792 6.94247 65.9337C6.94247 64.1883 7.71676 63.0991 8.13672 63.0991C8.55667 63.0991 9.34408 64.1752 9.34408 65.9337C9.34408 67.6923 8.55667 68.7553 8.13672 68.7553Z" fill="black"/>
<path d="M22.1789 55.1462C20.2628 55.1462 18.7536 57.3641 18.7536 60.1988C18.7536 63.0335 20.2628 65.2513 22.1789 65.2513C24.0949 65.2513 25.6041 63.0335 25.6041 60.1988C25.6041 57.3641 24.108 55.1462 22.1789 55.1462ZM22.1789 63.0203C21.7589 63.0203 20.9715 61.9442 20.9715 60.1856C20.9715 58.4271 21.7458 57.351 22.1789 57.351C22.6119 57.351 23.3862 58.4271 23.3862 60.1856C23.3862 61.9442 22.5988 63.0203 22.1789 63.0203Z" fill="black"/>
<path d="M22.1789 63.0203C21.7589 63.0203 20.9715 61.9442 20.9715 60.1856C20.9715 58.4271 21.7458 57.351 22.1789 57.351C22.6119 57.351 23.3862 58.4271 23.3862 60.1856C23.3862 61.9442 22.5988 63.0203 22.1789 63.0203Z" fill="black"/>
<path d="M22.1789 68.7553C20.2628 68.7553 18.7536 70.9732 18.7536 73.8079C18.7536 76.6426 20.2628 78.8604 22.1789 78.8604C24.0949 78.8604 25.6041 76.6426 25.6041 73.8079C25.6041 70.9732 24.108 68.7553 22.1789 68.7553ZM22.1789 76.6426C21.7589 76.6426 20.9715 75.5664 20.9715 73.8079C20.9715 72.0493 21.7458 70.9732 22.1789 70.9732C22.6119 70.9732 23.3862 72.0493 23.3862 73.8079C23.3862 75.5664 22.5988 76.6426 22.1789 76.6426Z" fill="black"/>
<path d="M22.1789 76.6426C21.7589 76.6426 20.9715 75.5664 20.9715 73.8079C20.9715 72.0493 21.7458 70.9732 22.1789 70.9732C22.6119 70.9732 23.3862 72.0493 23.3862 73.8079C23.3862 75.5664 22.5988 76.6426 22.1789 76.6426Z" fill="black"/>
<path d="M36.4965 68.7553C34.5805 68.7553 33.0713 70.9732 33.0713 73.8079C33.0713 76.6426 34.5805 78.8604 36.4965 78.8604C38.4126 78.8604 39.9218 76.6426 39.9218 73.8079C39.9218 70.9732 38.4126 68.7553 36.4965 68.7553ZM36.4965 76.6426C36.0766 76.6426 35.3023 75.5664 35.3023 73.8079C35.3023 72.0493 36.0766 70.9732 36.4965 70.9732C36.9165 70.9732 37.7039 72.0493 37.7039 73.8079C37.7039 75.5664 36.9165 76.6426 36.4965 76.6426Z" fill="black"/>
<path d="M36.4965 76.6426C36.0766 76.6426 35.3023 75.5664 35.3023 73.8079C35.3023 72.0493 36.0766 70.9732 36.4965 70.9732C36.9165 70.9732 37.7039 72.0493 37.7039 73.8079C37.7039 75.5664 36.9165 76.6426 36.4965 76.6426Z" fill="black"/>
<path d="M47.0609 62.7972C47.0609 59.9625 45.5517 57.7446 43.6357 57.7446C41.7196 57.7446 40.2104 59.9625 40.2104 62.7972C40.2104 65.6319 41.7196 67.8498 43.6357 67.8498C45.5517 67.8498 47.0609 65.6319 47.0609 62.7972ZM42.4283 62.7972C42.4283 61.0386 43.2026 59.9756 43.6357 59.9756C44.0687 59.9756 44.843 61.0518 44.843 62.7972C44.843 64.5426 44.0687 65.6319 43.6357 65.6319C43.2026 65.6319 42.4283 64.5558 42.4283 62.7972Z" fill="black"/>
<path d="M42.4283 62.7972C42.4283 61.0386 43.2026 59.9756 43.6357 59.9756C44.0687 59.9756 44.843 61.0518 44.843 62.7972C44.843 64.5426 44.0687 65.6319 43.6357 65.6319C43.2026 65.6319 42.4283 64.5558 42.4283 62.7972Z" fill="black"/>
<path d="M81.6152 6.31357C81.6021 6.30044 81.589 6.30044 81.589 6.30044C81.4578 6.18233 81.3134 6.07734 81.1297 6.02485C80.9591 5.98548 80.7753 5.9986 80.6179 6.02485C80.5916 6.02485 80.5785 6.02485 80.5522 6.02485L49.0688 14.4633C48.6882 14.5683 48.3864 14.8701 48.2814 15.2507L43.9204 31.5216L39.9235 46.4337L39.843 46.7341C39.843 46.7472 39.843 46.7735 39.843 46.7866C39.8036 46.9441 39.8036 47.1147 39.843 47.2853C39.8955 47.4821 39.9873 47.6528 40.1317 47.7971L40.8174 48.4829L56.5793 64.2448L63.1766 70.8421C63.3866 71.052 63.6753 71.1702 63.9641 71.1702C64.0559 71.1702 64.1609 71.157 64.2528 71.1308L95.7362 62.6923C95.7624 62.6923 95.7756 62.6661 95.8018 62.653C95.9462 62.6005 96.0905 62.5349 96.2086 62.4167C96.2217 62.4036 96.2349 62.4036 96.2349 62.3905C96.3661 62.2593 96.4448 62.1018 96.4973 61.9443C96.4973 61.9312 96.5236 61.9181 96.5236 61.9049L104.962 30.4215C105.067 30.0409 104.949 29.6341 104.673 29.3454L81.6152 6.31357ZM50.25 16.4449L79.2661 8.6758L71.497 37.6789L42.4939 45.448L50.25 16.4449ZM64.279 68.8342L43.0451 47.6003L72.0613 39.818L93.2952 61.0519L64.279 68.8342ZM94.87 59.4902L73.6361 38.2563L81.4053 9.25324L102.639 30.4871L94.87 59.4902Z" fill="black"/>
<path d="M57.5861 23.9122C54.8301 26.6682 54.0821 30.2378 55.88 32.0488C56.5362 32.705 57.4417 33.0331 58.4522 33.0331C60.1977 33.0331 62.2581 32.0882 64.0035 30.3428C65.2502 29.096 66.1295 27.6262 66.5101 26.2088C66.93 24.5684 66.6544 23.1511 65.7096 22.2193C63.9116 20.4082 60.342 21.1563 57.5861 23.9122ZM64.371 25.6445C64.0954 26.6813 63.3998 27.823 62.4549 28.7679C60.5389 30.684 58.2423 31.2483 57.468 30.474C56.6937 29.6997 57.258 27.4031 59.174 25.487C60.5389 24.1222 62.0875 23.4529 63.1505 23.4529C63.5835 23.4529 63.9379 23.571 64.161 23.7941C64.5022 24.1353 64.5809 24.8046 64.371 25.6445Z" fill="black"/>
<path d="M64.371 25.6445C64.0954 26.6813 63.3998 27.823 62.4549 28.7679C60.5389 30.684 58.2423 31.2483 57.468 30.474C56.6937 29.6997 57.258 27.4031 59.174 25.487C60.5389 24.1222 62.0875 23.4529 63.1505 23.4529C63.5835 23.4529 63.9379 23.571 64.161 23.7941C64.5022 24.1353 64.5809 24.8046 64.371 25.6445Z" fill="black"/>
<path d="M63.5966 57.0229C62.796 57.0229 62.1005 57.2985 61.6018 57.7972C60.88 58.519 60.6569 59.6214 60.9719 60.8419C61.2343 61.8655 61.8643 62.9154 62.7567 63.7947C63.9903 65.0283 65.4864 65.6976 66.7594 65.6976C67.5337 65.6976 68.2292 65.4483 68.741 64.9364C70.0927 63.5847 69.5941 60.9469 67.5862 58.939C66.3919 57.7447 64.8958 57.0229 63.5966 57.0229ZM67.1662 63.3616C66.8644 63.6635 65.552 63.4535 64.3184 62.2067C63.7278 61.6162 63.2816 60.8944 63.1241 60.2645C63.0191 59.8576 63.0323 59.4902 63.1766 59.3589C63.2816 59.2539 63.4916 59.2408 63.5966 59.2408C64.1347 59.2408 65.0796 59.5689 66.0244 60.5138C67.2581 61.7605 67.468 63.0598 67.1662 63.3616Z" fill="black"/>
<path d="M67.4681 43.8075C66.1164 45.1724 66.6151 47.7971 68.623 49.805C69.8697 51.0517 71.3527 51.721 72.6256 51.721C73.3999 51.721 74.0955 51.4717 74.6073 50.9599C75.106 50.4612 75.3816 49.7656 75.3816 48.9651C75.3816 47.6659 74.6598 46.1698 73.4656 44.9624C72.5863 44.0831 71.5364 43.4532 70.5128 43.1776C69.2923 42.8495 68.1899 43.0857 67.4681 43.8075ZM73.1637 48.952C73.1637 49.0701 73.1506 49.2669 73.0456 49.3719C72.7438 49.6738 71.4445 49.4638 70.1978 48.217C68.9511 46.9703 68.7411 45.6711 69.0429 45.3692C69.1217 45.2905 69.2792 45.2511 69.4629 45.2511C69.6072 45.2511 69.7647 45.2774 69.9484 45.3167C70.5784 45.4873 71.3002 45.9204 71.8907 46.511C72.8356 47.4559 73.1637 48.4139 73.1637 48.952Z" fill="black"/>
<path d="M82.2584 61.3406C83.0327 61.3406 83.7283 61.0913 84.2401 60.5795C85.6181 59.2015 85.1194 56.6161 83.0852 54.582C81.0773 52.5741 78.4526 52.0754 77.0878 53.4271C75.7229 54.792 76.2347 57.4167 78.2426 59.4246C79.4894 60.6713 80.9855 61.3406 82.2584 61.3406ZM78.6757 55.0019C78.7544 54.9232 78.8988 54.8838 79.0957 54.8838C79.6468 54.8838 80.6049 55.2382 81.5235 56.1568C82.7571 57.3904 82.9671 58.7028 82.6784 59.0046C82.3765 59.3065 81.0642 59.0965 79.8306 57.8498C78.5838 56.6161 78.3739 55.3038 78.6757 55.0019Z" fill="black"/>
<path d="M83.1115 24.1747C84.3057 25.3821 85.8018 26.0908 87.1142 26.0908C87.9147 26.0908 88.6102 25.8283 89.1089 25.3165C89.6208 24.8178 89.8832 24.1222 89.8832 23.3217C89.8832 22.0225 89.1614 20.5264 87.9672 19.319C85.9593 17.3111 83.3346 16.8124 81.9697 18.1642C80.5918 19.529 81.1036 22.1668 83.1115 24.1747ZM83.5314 19.7521C83.6102 19.6734 83.7545 19.634 83.9514 19.634C84.5026 19.634 85.4606 19.9883 86.3792 20.907C87.311 21.8387 87.6522 22.7968 87.6522 23.3348C87.6522 23.4529 87.6391 23.6498 87.5341 23.7548C87.4291 23.8598 87.2191 23.8729 87.1142 23.8729C86.5761 23.8729 85.6312 23.5448 84.6863 22.5999C83.4396 21.3532 83.2296 20.0539 83.5314 19.7521Z" fill="black"/>
<path d="M87.2191 43.3088C85.8543 44.6605 86.3661 47.2984 88.374 49.3063C89.6207 50.553 91.1037 51.2223 92.3767 51.2223C93.1509 51.2223 93.8465 50.973 94.3583 50.4612C95.7232 49.1094 95.2113 46.4716 93.2034 44.4637C92.3242 43.5844 91.2743 42.9545 90.2506 42.6789C89.0564 42.3639 87.9409 42.587 87.2191 43.3088ZM92.7966 48.8732C92.4948 49.175 91.1824 48.9651 89.9488 47.7183C88.7021 46.4716 88.5052 45.1724 88.7939 44.8705C88.8727 44.7918 89.0302 44.7524 89.2139 44.7524C89.3582 44.7524 89.5288 44.7787 89.6995 44.818C90.3294 44.9886 91.0381 45.4217 91.6417 46.0123C92.8885 47.2721 93.0985 48.5845 92.7966 48.8732Z" fill="black"/>
<path d="M84.4764 30.4739C83.0985 31.8519 83.5972 34.4372 85.6313 36.4714C86.8781 37.7181 88.361 38.3874 89.634 38.3874C90.4083 38.3874 91.1038 38.138 91.6157 37.6262C92.9805 36.2614 92.4687 33.6367 90.4608 31.6288C88.466 29.6209 85.8413 29.1222 84.4764 30.4739ZM88.8991 33.2036C90.1327 34.4372 90.3427 35.7496 90.054 36.0514C89.7521 36.3532 88.4398 36.1433 87.2061 34.8965C85.9725 33.6629 85.7626 32.3506 86.0513 32.0487C86.3531 31.7469 87.6655 31.9569 88.8991 33.2036Z" fill="black"/>
<path fill-rule="evenodd" clip-rule="evenodd" d="M51.9694 48.1645C50.6046 49.5162 51.1164 52.154 53.1243 54.1619C54.3185 55.3693 55.8146 56.078 57.127 56.078C57.9275 56.078 58.6231 55.8155 59.1218 55.3037C59.6204 54.805 59.896 54.1094 59.896 53.3089C59.896 52.0097 59.1743 50.5136 57.98 49.3062C55.959 47.3114 53.3343 46.7996 51.9694 48.1645ZM57.127 53.847C57.232 53.847 57.4419 53.8338 57.5469 53.7289C57.6388 53.6239 57.665 53.427 57.665 53.3089C57.665 52.7708 57.3238 51.8128 56.3921 50.881C55.4734 49.9624 54.5285 49.6081 53.9642 49.6081C53.7673 49.6081 53.623 49.6474 53.5442 49.7262C53.2555 50.028 53.4524 51.3272 54.6991 52.574C55.644 53.5189 56.5889 53.847 57.127 53.847Z" fill="black"/>
<path d="M57.5469 53.7289C57.4419 53.8338 57.232 53.847 57.127 53.847C56.5889 53.847 55.644 53.5189 54.6991 52.574C53.4524 51.3272 53.2555 50.028 53.5442 49.7262C53.623 49.6474 53.7673 49.6081 53.9642 49.6081C54.5285 49.6081 55.4734 49.9624 56.3921 50.881C57.3238 51.8128 57.665 52.7708 57.665 53.3089C57.665 53.427 57.6388 53.6239 57.5469 53.7289Z" fill="black"/>
<path d="M67.1662 63.3616C66.8644 63.6635 65.552 63.4535 64.3184 62.2067C63.7278 61.6162 63.2816 60.8944 63.1241 60.2645C63.0191 59.8576 63.0323 59.4902 63.1766 59.3589C63.2816 59.2539 63.4916 59.2408 63.5966 59.2408C64.1347 59.2408 65.0796 59.5689 66.0244 60.5138C67.2581 61.7605 67.468 63.0598 67.1662 63.3616Z" fill="black"/>
<path d="M73.1637 48.952C73.1637 49.0701 73.1506 49.2669 73.0456 49.3719C72.7438 49.6738 71.4445 49.4638 70.1978 48.217C68.9511 46.9703 68.7411 45.6711 69.0429 45.3692C69.1217 45.2905 69.2792 45.2511 69.4629 45.2511C69.6072 45.2511 69.7647 45.2774 69.9484 45.3167C70.5784 45.4873 71.3002 45.9204 71.8907 46.511C72.8356 47.4559 73.1637 48.4139 73.1637 48.952Z" fill="black"/>
<path d="M78.6757 55.0019C78.7544 54.9232 78.8988 54.8838 79.0957 54.8838C79.6468 54.8838 80.6049 55.2382 81.5235 56.1568C82.7571 57.3904 82.9671 58.7028 82.6784 59.0046C82.3765 59.3065 81.0642 59.0965 79.8306 57.8498C78.5838 56.6161 78.3739 55.3038 78.6757 55.0019Z" fill="black"/>
<path d="M92.7966 48.8732C92.4948 49.175 91.1824 48.9651 89.9488 47.7183C88.7021 46.4716 88.5052 45.1724 88.7939 44.8705C88.8727 44.7918 89.0302 44.7524 89.2139 44.7524C89.3582 44.7524 89.5288 44.7787 89.6995 44.818C90.3294 44.9886 91.0381 45.4217 91.6417 46.0123C92.8885 47.2721 93.0985 48.5845 92.7966 48.8732Z" fill="black"/>
<path d="M88.8991 33.2036C90.1327 34.4372 90.3427 35.7496 90.054 36.0514C89.7521 36.3532 88.4398 36.1433 87.2061 34.8965C85.9725 33.6629 85.7626 32.3506 86.0513 32.0487C86.3531 31.7469 87.6655 31.9569 88.8991 33.2036Z" fill="black"/>
<path d="M83.5314 19.7521C83.6102 19.6734 83.7545 19.634 83.9514 19.634C84.5026 19.634 85.4606 19.9883 86.3792 20.907C87.311 21.8387 87.6522 22.7968 87.6522 23.3348C87.6522 23.4529 87.6391 23.6498 87.5341 23.7548C87.4291 23.8598 87.2191 23.8729 87.1142 23.8729C86.5761 23.8729 85.6312 23.5448 84.6863 22.5999C83.4396 21.3532 83.2296 20.0539 83.5314 19.7521Z" fill="black"/>
<path fill-rule="evenodd" clip-rule="evenodd" d="M56.4575 64.7527C56.4575 64.5697 56.5014 64.397 56.5793 64.2448L40.8174 48.4829L30.4598 55.5663V85.6192L56.4575 70.5796V64.7527ZM33.0713 73.8079C33.0713 70.9732 34.5805 68.7553 36.4965 68.7553C38.4126 68.7553 39.9218 70.9732 39.9218 73.8079C39.9218 76.6426 38.4126 78.8604 36.4965 78.8604C34.5805 78.8604 33.0713 76.6426 33.0713 73.8079ZM43.6357 57.7446C45.5517 57.7446 47.0609 59.9625 47.0609 62.7972C47.0609 65.6319 45.5517 67.8498 43.6357 67.8498C41.7196 67.8498 40.2104 65.6319 40.2104 62.7972C40.2104 59.9625 41.7196 57.7446 43.6357 57.7446Z" fill="white"/>
<path fill-rule="evenodd" clip-rule="evenodd" d="M2.21788 40.5529L28.2288 55.5663V85.6061L2.21788 70.5796V40.5529ZM4.71147 52.3115C4.71147 49.4768 6.22068 47.2589 8.13672 47.2589C10.0528 47.2589 11.562 49.4768 11.562 52.3115C11.562 55.1462 10.0528 57.3641 8.13672 57.3641C6.22068 57.3641 4.71147 55.1462 4.71147 52.3115ZM4.71147 65.9337C4.71147 63.0991 6.22068 60.8812 8.13672 60.8812C10.0528 60.8812 11.562 63.0991 11.562 65.9337C11.562 68.7684 10.0528 70.9863 8.13672 70.9863C6.22068 70.9863 4.71147 68.7684 4.71147 65.9337ZM18.7536 60.1988C18.7536 57.3641 20.2628 55.1462 22.1789 55.1462C24.108 55.1462 25.6041 57.3641 25.6041 60.1988C25.6041 63.0335 24.0949 65.2513 22.1789 65.2513C20.2628 65.2513 18.7536 63.0335 18.7536 60.1988ZM18.7536 73.8079C18.7536 70.9732 20.2628 68.7553 22.1789 68.7553C24.108 68.7553 25.6041 70.9732 25.6041 73.8079C25.6041 76.6426 24.0949 78.8604 22.1789 78.8604C20.2628 78.8604 18.7536 76.6426 18.7536 73.8079Z" fill="white"/>
<path fill-rule="evenodd" clip-rule="evenodd" d="M39.7644 46.511C39.8162 46.4807 39.8694 46.4549 39.9235 46.4337L43.9204 31.5216C43.6745 31.5642 43.4128 31.5253 43.1765 31.3927L29.3443 23.6235L3.33338 38.6369L29.3311 53.6371L39.7644 46.511ZM29.2524 43.1776C25.3547 43.1776 22.2969 41.1828 22.2969 38.6369C22.2969 36.0909 25.3547 34.0961 29.2524 34.0961C33.1501 34.0961 36.2079 36.0909 36.2079 38.6369C36.2079 41.1828 33.1501 43.1776 29.2524 43.1776Z" fill="white"/>
<path fill-rule="evenodd" clip-rule="evenodd" d="M50.25 16.4449L79.2661 8.6758L71.497 37.6789L42.4939 45.448L50.25 16.4449ZM55.88 32.0488C54.0821 30.2378 54.8301 26.6682 57.5861 23.9122C60.342 21.1563 63.9116 20.4082 65.7096 22.2193C66.6544 23.1511 66.93 24.5684 66.5101 26.2088C66.1295 27.6262 65.2502 29.096 64.0035 30.3428C62.2581 32.0882 60.1977 33.0331 58.4522 33.0331C57.4417 33.0331 56.5362 32.705 55.88 32.0488Z" fill="white"/>
<path fill-rule="evenodd" clip-rule="evenodd" d="M64.279 68.8342L43.0451 47.6003L72.0613 39.818L93.2952 61.0519L64.279 68.8342ZM53.1243 54.1619C51.1164 52.154 50.6046 49.5162 51.9694 48.1645C53.3343 46.7996 55.959 47.3114 57.98 49.3062C59.1743 50.5136 59.896 52.0097 59.896 53.3089C59.896 54.1094 59.6204 54.805 59.1218 55.3037C58.6231 55.8155 57.9275 56.078 57.127 56.078C55.8146 56.078 54.3185 55.3693 53.1243 54.1619ZM61.6018 57.7972C62.1005 57.2985 62.796 57.0229 63.5966 57.0229C64.8958 57.0229 66.3919 57.7447 67.5862 58.939C69.5941 60.9469 70.0927 63.5847 68.741 64.9364C68.2292 65.4483 67.5337 65.6976 66.7594 65.6976C65.4864 65.6976 63.9903 65.0283 62.7567 63.7947C61.8643 62.9154 61.2343 61.8655 60.9719 60.8419C60.6569 59.6214 60.88 58.519 61.6018 57.7972ZM68.623 49.805C66.6151 47.7971 66.1164 45.1724 67.4681 43.8075C68.1899 43.0857 69.2923 42.8495 70.5128 43.1776C71.5364 43.4532 72.5863 44.0831 73.4656 44.9624C74.6598 46.1698 75.3816 47.6659 75.3816 48.9651C75.3816 49.7656 75.106 50.4612 74.6073 50.9599C74.0955 51.4717 73.3999 51.721 72.6256 51.721C71.3527 51.721 69.8697 51.0517 68.623 49.805ZM84.2401 60.5795C83.7283 61.0913 83.0327 61.3406 82.2584 61.3406C80.9855 61.3406 79.4894 60.6713 78.2426 59.4246C76.2347 57.4167 75.7229 54.792 77.0878 53.4271C78.4526 52.0754 81.0773 52.5741 83.0852 54.582C85.1194 56.6161 85.6181 59.2015 84.2401 60.5795Z" fill="white"/>
<path fill-rule="evenodd" clip-rule="evenodd" d="M94.87 59.4902L73.6361 38.2563L81.4053 9.25324L102.639 30.4871L94.87 59.4902ZM87.1142 26.0908C85.8018 26.0908 84.3057 25.3821 83.1115 24.1747C81.1036 22.1668 80.5918 19.529 81.9697 18.1642C83.3346 16.8124 85.9593 17.3111 87.9672 19.319C89.1614 20.5264 89.8832 22.0225 89.8832 23.3217C89.8832 24.1222 89.6208 24.8178 89.1089 25.3165C88.6102 25.8283 87.9147 26.0908 87.1142 26.0908ZM88.374 49.3063C86.3661 47.2984 85.8543 44.6605 87.2191 43.3088C87.9409 42.587 89.0564 42.3639 90.2506 42.6789C91.2743 42.9545 92.3242 43.5844 93.2034 44.4637C95.2113 46.4716 95.7232 49.1094 94.3583 50.4612C93.8465 50.973 93.1509 51.2223 92.3767 51.2223C91.1037 51.2223 89.6207 50.553 88.374 49.3063ZM85.6313 36.4714C83.5972 34.4372 83.0985 31.8519 84.4764 30.4739C85.8413 29.1222 88.466 29.6209 90.4608 31.6288C92.4687 33.6367 92.9805 36.2614 91.6157 37.6262C91.1038 38.138 90.4083 38.3874 89.634 38.3874C88.361 38.3874 86.8781 37.7181 85.6313 36.4714Z" fill="white"/>
</svg>
