<svg width="188" height="188" viewBox="0 0 188 188" fill="none" xmlns="http://www.w3.org/2000/svg">
<path d="M17.4072 0.5H170.308C179.645 0.5 187.215 8.06937 187.215 17.4072V170.308C187.214 179.645 179.645 187.214 170.307 187.214H17.4072C8.06937 187.214 0.5 179.644 0.5 170.307V17.4072C0.5 8.07035 8.06939 0.5 17.4072 0.5Z" fill="white" stroke="black"/>
<path d="M94.9299 179.669C142.915 179.669 181.815 140.769 181.815 92.784C181.815 44.7988 142.915 5.89905 94.9299 5.89905C46.9447 5.89905 8.04492 44.7988 8.04492 92.784C8.04492 140.769 46.9447 179.669 94.9299 179.669Z" fill="white"/>
<path d="M93.8569 110.872C103.254 110.872 110.872 103.254 110.872 93.857C110.872 84.4599 103.254 76.842 93.8569 76.842C84.4598 76.842 76.8419 84.4599 76.8419 93.857C76.8419 103.254 84.4598 110.872 93.8569 110.872Z" fill="black"/>
<path opacity="0.5" d="M108.344 89.295C111.389 92.341 109.594 99.074 104.334 104.334C99.074 109.594 92.341 111.39 89.295 108.344C86.25 105.298 88.045 98.565 93.305 93.305C98.566 88.045 105.299 86.25 108.344 89.295Z" fill="black"/>
<path d="M55.389 72.403C64.7855 72.403 72.403 64.7856 72.403 55.389C72.403 45.9924 64.7855 38.375 55.389 38.375C45.9924 38.375 38.375 45.9924 38.375 55.389C38.375 64.7856 45.9924 72.403 55.389 72.403Z" fill="black"/>
<path opacity="0.5" d="M69.877 50.827C72.922 53.872 71.1269 60.605 65.8669 65.866C60.6069 71.126 53.8729 72.922 50.8279 69.876C47.7829 66.83 49.578 60.097 54.838 54.837C60.098 49.577 66.831 47.782 69.877 50.827Z" fill="black"/>
<path d="M132.325 149.34C141.722 149.34 149.34 141.722 149.34 132.325C149.34 122.928 141.722 115.31 132.325 115.31C122.928 115.31 115.31 122.928 115.31 132.325C115.31 141.722 122.928 149.34 132.325 149.34Z" fill="black"/>
<path opacity="0.5" d="M146.812 127.763C149.857 130.809 148.062 137.542 142.802 142.802C137.542 148.062 130.808 149.858 127.763 146.812C124.718 143.767 126.513 137.033 131.773 131.773C137.033 126.513 143.766 124.717 146.812 127.763Z" fill="black"/>
<path d="M174.527 75.778C170.912 74.852 168.143 79.611 166.602 83.01C165.062 86.409 164.287 90.149 162.421 93.381C159.156 99.038 153.087 102.337 147.66 105.973C145.318 107.542 142.76 110.008 143.594 112.701C144.034 114.123 145.317 115.083 146.438 116.063C155.767 124.228 156.051 140.599 147.01 149.081C140.21 155.461 130.145 157.013 122.583 162.468C121.339 163.366 120.078 164.531 119.943 166.059C119.773 167.985 121.582 169.637 123.487 169.971C125.391 170.305 127.32 169.661 129.122 168.959C144.942 162.797 158.545 151.346 167.862 137.154C177.18 122.962 180.142 106.497 180.873 89.536C180.875 89.536 181.79 77.637 174.527 75.778Z" fill="white"/>
</svg>
