<svg width="188" height="188" viewBox="0 0 188 188" fill="none" xmlns="http://www.w3.org/2000/svg">
<path d="M17.4072 0.5H170.308C179.645 0.5 187.215 8.06937 187.215 17.4072V170.308C187.214 179.645 179.645 187.214 170.307 187.214H17.4072C8.06937 187.214 0.5 179.644 0.5 170.307V17.4072C0.5 8.06937 8.06937 0.5 17.4072 0.5Z" fill="white" stroke="black"/>
<path d="M94.9299 179.67C142.915 179.67 181.815 140.77 181.815 92.785C181.815 44.7998 142.915 5.90002 94.9299 5.90002C46.9447 5.90002 8.04492 44.7998 8.04492 92.785C8.04492 140.77 46.9447 179.67 94.9299 179.67Z" fill="white"/>
<path d="M55.389 72.4039C64.7856 72.4039 72.403 64.7865 72.403 55.39C72.403 45.9934 64.7856 38.376 55.389 38.376C45.9924 38.376 38.375 45.9934 38.375 55.39C38.375 64.7865 45.9924 72.4039 55.389 72.4039Z" fill="black"/>
<path opacity="0.5" d="M69.876 50.8279C72.922 53.8729 71.126 60.6059 65.866 65.8669C60.606 71.1269 53.873 72.9229 50.827 69.8769C47.782 66.8319 49.577 60.0979 54.837 54.8379C60.098 49.5779 66.831 47.7819 69.876 50.8279Z" fill="black"/>
<path d="M132.325 72.4039C141.722 72.4039 149.339 64.7865 149.339 55.39C149.339 45.9934 141.722 38.376 132.325 38.376C122.928 38.376 115.311 45.9934 115.311 55.39C115.311 64.7865 122.928 72.4039 132.325 72.4039Z" fill="black"/>
<path opacity="0.5" d="M146.812 50.8279C149.857 53.8729 148.062 60.6059 142.802 65.8669C137.542 71.1269 130.809 72.9229 127.763 69.8769C124.717 66.8319 126.513 60.0979 131.773 54.8379C137.033 49.5779 143.766 47.7819 146.812 50.8279Z" fill="black"/>
<path d="M94.014 110.028C103.411 110.028 111.028 102.411 111.028 93.014C111.028 83.6174 103.411 76 94.014 76C84.6174 76 77 83.6174 77 93.014C77 102.411 84.6174 110.028 94.014 110.028Z" fill="black"/>
<path opacity="0.5" d="M108.501 88.4519C111.546 91.4969 109.751 98.2299 104.491 103.491C99.2309 108.751 92.4979 110.547 89.4519 107.501C86.4059 104.456 88.2019 97.7219 93.4619 92.4619C98.7219 87.2019 105.455 85.4059 108.501 88.4519Z" fill="black"/>
<path d="M55.389 149.34C64.7861 149.34 72.404 141.722 72.404 132.325C72.404 122.928 64.7861 115.31 55.389 115.31C45.9919 115.31 38.374 122.928 38.374 132.325C38.374 141.722 45.9919 149.34 55.389 149.34Z" fill="black"/>
<path opacity="0.5" d="M69.876 127.763C72.922 130.809 71.126 137.542 65.866 142.802C60.606 148.062 53.873 149.858 50.827 146.812C47.782 143.767 49.577 137.033 54.837 131.773C60.098 126.513 66.831 124.717 69.876 127.763Z" fill="black"/>
<path d="M132.325 149.34C141.722 149.34 149.34 141.722 149.34 132.325C149.34 122.928 141.722 115.31 132.325 115.31C122.928 115.31 115.31 122.928 115.31 132.325C115.31 141.722 122.928 149.34 132.325 149.34Z" fill="black"/>
<path opacity="0.5" d="M146.812 127.763C149.857 130.809 148.062 137.542 142.802 142.802C137.542 148.062 130.809 149.858 127.763 146.812C124.717 143.767 126.513 137.033 131.773 131.773C137.033 126.513 143.766 124.717 146.812 127.763Z" fill="black"/>
<path d="M174.527 75.778C170.912 74.852 168.143 79.611 166.602 83.01C165.062 86.409 164.287 90.149 162.421 93.381C159.156 99.038 153.087 102.337 147.661 105.973C145.319 107.542 142.761 110.008 143.594 112.701C144.034 114.123 145.317 115.083 146.438 116.063C155.767 124.228 156.051 140.599 147.01 149.081C140.21 155.461 130.145 157.013 122.583 162.468C121.339 163.366 120.078 164.531 119.943 166.059C119.773 167.985 121.582 169.637 123.487 169.971C125.391 170.305 127.32 169.661 129.122 168.959C144.941 162.797 158.545 151.346 167.862 137.154C177.179 122.962 180.142 106.497 180.873 89.536C180.875 89.536 181.79 77.637 174.527 75.778Z" fill="white"/>
</svg>
