<svg width="188" height="188" viewBox="0 0 188 188" fill="none" xmlns="http://www.w3.org/2000/svg">
<path d="M17.4072 0.5H170.308C179.645 0.5 187.215 8.06937 187.215 17.4072V170.308C187.214 179.645 179.645 187.214 170.307 187.214H17.4072C8.06937 187.214 0.5 179.644 0.5 170.307V17.4072C0.5 8.06937 8.06937 0.5 17.4072 0.5Z" fill="white" stroke="black"/>
<path d="M94.9299 179.67C142.915 179.67 181.815 140.77 181.815 92.785C181.815 44.7998 142.915 5.90002 94.9299 5.90002C46.9447 5.90002 8.04492 44.7998 8.04492 92.785C8.04492 140.77 46.9447 179.67 94.9299 179.67Z" fill="white"/>
<path d="M55.389 72.4041C64.7856 72.4041 72.403 64.7866 72.403 55.3901C72.403 45.9935 64.7856 38.3761 55.389 38.3761C45.9924 38.3761 38.375 45.9935 38.375 55.3901C38.375 64.7866 45.9924 72.4041 55.389 72.4041Z" fill="black"/>
<path opacity="0.5" d="M69.876 50.828C72.922 53.873 71.126 60.606 65.866 65.867C60.606 71.127 53.873 72.923 50.827 69.877C47.782 66.832 49.577 60.098 54.837 54.838C60.098 49.578 66.831 47.782 69.876 50.828Z" fill="black"/>
<path d="M132.325 72.4041C141.722 72.4041 149.339 64.7866 149.339 55.3901C149.339 45.9935 141.722 38.3761 132.325 38.3761C122.928 38.3761 115.311 45.9935 115.311 55.3901C115.311 64.7866 122.928 72.4041 132.325 72.4041Z" fill="black"/>
<path opacity="0.5" d="M146.812 50.828C149.857 53.873 148.062 60.606 142.802 65.867C137.542 71.127 130.809 72.923 127.763 69.877C124.717 66.832 126.513 60.098 131.773 54.838C137.033 49.578 143.766 47.782 146.812 50.828Z" fill="black"/>
<path d="M55.389 149.34C64.7861 149.34 72.404 141.722 72.404 132.325C72.404 122.928 64.7861 115.31 55.389 115.31C45.9919 115.31 38.374 122.928 38.374 132.325C38.374 141.722 45.9919 149.34 55.389 149.34Z" fill="black"/>
<path opacity="0.5" d="M69.876 127.763C72.922 130.809 71.126 137.542 65.866 142.802C60.606 148.062 53.873 149.858 50.827 146.812C47.782 143.767 49.577 137.033 54.837 131.773C60.098 126.513 66.831 124.717 69.876 127.763Z" fill="black"/>
<path d="M132.325 149.34C141.722 149.34 149.34 141.722 149.34 132.325C149.34 122.928 141.722 115.31 132.325 115.31C122.928 115.31 115.31 122.928 115.31 132.325C115.31 141.722 122.928 149.34 132.325 149.34Z" fill="black"/>
<path opacity="0.5" d="M146.812 127.763C149.857 130.809 148.062 137.542 142.802 142.802C137.542 148.062 130.809 149.858 127.763 146.812C124.717 143.767 126.513 137.033 131.773 131.773C137.033 126.513 143.766 124.717 146.812 127.763Z" fill="black"/>
<path d="M174.527 75.778C170.912 74.852 168.143 79.611 166.602 83.01C165.062 86.409 164.287 90.149 162.421 93.381C159.156 99.038 153.087 102.337 147.661 105.973C145.319 107.542 142.761 110.008 143.594 112.701C144.034 114.123 145.317 115.083 146.438 116.063C155.767 124.228 156.051 140.599 147.01 149.081C140.21 155.461 130.145 157.013 122.583 162.468C121.339 163.366 120.078 164.531 119.943 166.059C119.773 167.985 121.582 169.637 123.487 169.971C125.391 170.305 127.32 169.661 129.122 168.959C144.941 162.797 158.545 151.346 167.862 137.154C177.179 122.962 180.142 106.497 180.873 89.536C180.875 89.536 181.79 77.637 174.527 75.778Z" fill="white"/>
</svg>
