<svg width="188" height="188" viewBox="0 0 188 188" fill="none" xmlns="http://www.w3.org/2000/svg">
<path d="M17.4072 0.5H170.308C179.645 0.5 187.215 8.06937 187.215 17.4072V170.308C187.214 179.645 179.645 187.214 170.307 187.214H17.4072C8.07035 187.214 0.5 179.644 0.5 170.307V17.4072C0.5 8.07035 8.06939 0.5 17.4072 0.5Z" fill="white" stroke="black"/>
<path d="M94.9299 179.669C142.915 179.669 181.815 140.769 181.815 92.784C181.815 44.7988 142.915 5.89905 94.9299 5.89905C46.9447 5.89905 8.04492 44.7988 8.04492 92.784C8.04492 140.769 46.9447 179.669 94.9299 179.669Z" fill="white"/>
<path d="M93.8569 110.872C103.254 110.872 110.872 103.254 110.872 93.857C110.872 84.4599 103.254 76.842 93.8569 76.842C84.4598 76.842 76.8419 84.4599 76.8419 93.857C76.8419 103.254 84.4598 110.872 93.8569 110.872Z" fill="black"/>
<path opacity="0.5" d="M108.344 89.295C111.39 92.341 109.594 99.074 104.334 104.334C99.0739 109.594 92.3409 111.39 89.2949 108.344C86.2489 105.298 88.045 98.565 93.305 93.305C98.566 88.045 105.299 86.25 108.344 89.295Z" fill="black"/>
<path d="M174.528 75.778C170.913 74.852 168.143 79.611 166.603 83.01C165.063 86.409 164.086 97.014 162.91 100.555C156.961 118.456 152.183 138.098 122.585 162.468C121.401 163.443 120.08 164.531 119.945 166.059C119.775 167.985 121.584 169.637 123.489 169.971C125.393 170.305 127.322 169.661 129.124 168.959C144.943 162.797 158.547 151.346 167.864 137.154C177.181 122.962 180.144 106.497 180.875 89.536C180.875 89.536 181.79 77.637 174.528 75.778Z" fill="white"/>
</svg>
