<svg width="105" height="83" viewBox="0 0 105 83" fill="none" xmlns="http://www.w3.org/2000/svg">
<path d="M28.7931 82.5064C28.8193 82.5195 28.8456 82.5195 28.8718 82.5326C28.9768 82.5851 29.0949 82.6114 29.213 82.6245C29.2655 82.6245 29.3049 82.6639 29.3443 82.6639C29.3836 82.6639 29.423 82.6376 29.4624 82.6376C29.5936 82.6245 29.7117 82.5982 29.8298 82.5326C29.8561 82.5195 29.8823 82.5326 29.8954 82.5195L58.1373 66.1807C58.4785 65.9838 58.6885 65.6164 58.6885 65.2227V58.7527C58.6885 58.1359 58.1898 57.6372 57.573 57.6372C57.1393 57.6372 56.7639 57.8839 56.5793 58.2448C56.5014 58.397 56.4575 58.5697 56.4575 58.7527V64.5796L30.4598 79.6192V49.5663L40.8174 42.4829L40.8799 42.4402C41.4179 42.1383 41.5885 41.4559 41.2867 40.9178C41.0139 40.4316 40.4304 40.2347 39.9235 40.4337C39.8694 40.4549 39.8162 40.4807 39.7644 40.511L29.3311 47.6371L3.33338 32.6369L29.3443 17.6235L43.1765 25.3927C43.4128 25.5253 43.6745 25.5642 43.9204 25.5216C44.2342 25.4673 44.5222 25.2802 44.6988 24.9858C45.0007 24.4478 44.8169 23.7785 44.292 23.4635L29.9086 15.3663C29.5674 15.1694 29.1343 15.1694 28.7931 15.3663L0.551189 31.6789C0.538066 31.692 0.524943 31.7051 0.511819 31.7182C0.36746 31.8101 0.236223 31.9282 0.144359 32.0857V32.0988C0.0524938 32.2563 0.0131239 32.4269 0.0131239 32.5975C0.0131239 32.6106 0 32.6369 0 32.65V65.2358C0 65.6295 0.209977 65.9969 0.551189 66.1938L28.7931 82.5064ZM2.21788 34.5529L28.2288 49.5663V79.6061L2.21788 64.5796V34.5529Z" fill="black" fill-opacity="0.5"/>
<path d="M22.2969 32.6369C22.2969 35.1828 25.3547 37.1776 29.2524 37.1776C33.1501 37.1776 36.2079 35.1828 36.2079 32.6369C36.2079 30.0909 33.1501 28.0961 29.2524 28.0961C25.3547 28.0961 22.2969 30.0909 22.2969 32.6369ZM33.99 32.6369C33.99 33.7393 31.969 34.9597 29.2524 34.9597C26.5489 34.9597 24.5148 33.7393 24.5148 32.6369C24.5148 31.5345 26.5358 30.314 29.2524 30.314C31.969 30.314 33.99 31.5345 33.99 32.6369Z" fill="black" fill-opacity="0.5"/>
<path d="M33.99 32.6369C33.99 33.7393 31.969 34.9597 29.2524 34.9597C26.5489 34.9597 24.5148 33.7393 24.5148 32.6369C24.5148 31.5345 26.5358 30.314 29.2524 30.314C31.969 30.314 33.99 31.5345 33.99 32.6369Z" fill="black" fill-opacity="0.5"/>
<path d="M8.13672 41.2589C6.22068 41.2589 4.71147 43.4768 4.71147 46.3115C4.71147 49.1462 6.22068 51.3641 8.13672 51.3641C10.0528 51.3641 11.562 49.1462 11.562 46.3115C11.562 43.4768 10.0528 41.2589 8.13672 41.2589ZM8.13672 49.1462C7.71676 49.1462 6.94247 48.0701 6.94247 46.3246C6.94247 44.5792 7.71676 43.4899 8.13672 43.4899C8.55667 43.4899 9.34408 44.5661 9.34408 46.3246C9.34408 48.0832 8.55667 49.1462 8.13672 49.1462Z" fill="black" fill-opacity="0.5"/>
<path d="M8.13672 49.1462C7.71676 49.1462 6.94247 48.0701 6.94247 46.3246C6.94247 44.5792 7.71676 43.4899 8.13672 43.4899C8.55667 43.4899 9.34408 44.5661 9.34408 46.3246C9.34408 48.0832 8.55667 49.1462 8.13672 49.1462Z" fill="black" fill-opacity="0.5"/>
<path d="M8.13672 54.8812C6.22068 54.8812 4.71147 57.0991 4.71147 59.9337C4.71147 62.7684 6.22068 64.9863 8.13672 64.9863C10.0528 64.9863 11.562 62.7684 11.562 59.9337C11.562 57.0991 10.0528 54.8812 8.13672 54.8812ZM8.13672 62.7553C7.71676 62.7553 6.94247 61.6792 6.94247 59.9337C6.94247 58.1883 7.71676 57.0991 8.13672 57.0991C8.55667 57.0991 9.34408 58.1752 9.34408 59.9337C9.34408 61.6923 8.55667 62.7553 8.13672 62.7553Z" fill="black" fill-opacity="0.5"/>
<path d="M8.13672 62.7553C7.71676 62.7553 6.94247 61.6792 6.94247 59.9337C6.94247 58.1883 7.71676 57.0991 8.13672 57.0991C8.55667 57.0991 9.34408 58.1752 9.34408 59.9337C9.34408 61.6923 8.55667 62.7553 8.13672 62.7553Z" fill="black" fill-opacity="0.5"/>
<path d="M22.1789 49.1462C20.2628 49.1462 18.7536 51.3641 18.7536 54.1988C18.7536 57.0335 20.2628 59.2513 22.1789 59.2513C24.0949 59.2513 25.6041 57.0335 25.6041 54.1988C25.6041 51.3641 24.108 49.1462 22.1789 49.1462ZM22.1789 57.0203C21.7589 57.0203 20.9715 55.9442 20.9715 54.1856C20.9715 52.4271 21.7458 51.351 22.1789 51.351C22.6119 51.351 23.3862 52.4271 23.3862 54.1856C23.3862 55.9442 22.5988 57.0203 22.1789 57.0203Z" fill="black" fill-opacity="0.5"/>
<path d="M22.1789 57.0203C21.7589 57.0203 20.9715 55.9442 20.9715 54.1856C20.9715 52.4271 21.7458 51.351 22.1789 51.351C22.6119 51.351 23.3862 52.4271 23.3862 54.1856C23.3862 55.9442 22.5988 57.0203 22.1789 57.0203Z" fill="black" fill-opacity="0.5"/>
<path d="M22.1789 62.7553C20.2628 62.7553 18.7536 64.9732 18.7536 67.8079C18.7536 70.6426 20.2628 72.8604 22.1789 72.8604C24.0949 72.8604 25.6041 70.6426 25.6041 67.8079C25.6041 64.9732 24.108 62.7553 22.1789 62.7553ZM22.1789 70.6426C21.7589 70.6426 20.9715 69.5664 20.9715 67.8079C20.9715 66.0493 21.7458 64.9732 22.1789 64.9732C22.6119 64.9732 23.3862 66.0493 23.3862 67.8079C23.3862 69.5664 22.5988 70.6426 22.1789 70.6426Z" fill="black" fill-opacity="0.5"/>
<path d="M22.1789 70.6426C21.7589 70.6426 20.9715 69.5664 20.9715 67.8079C20.9715 66.0493 21.7458 64.9732 22.1789 64.9732C22.6119 64.9732 23.3862 66.0493 23.3862 67.8079C23.3862 69.5664 22.5988 70.6426 22.1789 70.6426Z" fill="black" fill-opacity="0.5"/>
<path d="M36.4965 62.7553C34.5805 62.7553 33.0713 64.9732 33.0713 67.8079C33.0713 70.6426 34.5805 72.8604 36.4965 72.8604C38.4126 72.8604 39.9218 70.6426 39.9218 67.8079C39.9218 64.9732 38.4126 62.7553 36.4965 62.7553ZM36.4965 70.6426C36.0766 70.6426 35.3023 69.5664 35.3023 67.8079C35.3023 66.0493 36.0766 64.9732 36.4965 64.9732C36.9165 64.9732 37.7039 66.0493 37.7039 67.8079C37.7039 69.5664 36.9165 70.6426 36.4965 70.6426Z" fill="black" fill-opacity="0.5"/>
<path d="M36.4965 70.6426C36.0766 70.6426 35.3023 69.5664 35.3023 67.8079C35.3023 66.0493 36.0766 64.9732 36.4965 64.9732C36.9165 64.9732 37.7039 66.0493 37.7039 67.8079C37.7039 69.5664 36.9165 70.6426 36.4965 70.6426Z" fill="black" fill-opacity="0.5"/>
<path d="M47.0609 56.7972C47.0609 53.9625 45.5517 51.7446 43.6357 51.7446C41.7196 51.7446 40.2104 53.9625 40.2104 56.7972C40.2104 59.6319 41.7196 61.8498 43.6357 61.8498C45.5517 61.8498 47.0609 59.6319 47.0609 56.7972ZM42.4283 56.7972C42.4283 55.0386 43.2026 53.9756 43.6357 53.9756C44.0687 53.9756 44.843 55.0518 44.843 56.7972C44.843 58.5426 44.0687 59.6319 43.6357 59.6319C43.2026 59.6319 42.4283 58.5558 42.4283 56.7972Z" fill="black" fill-opacity="0.5"/>
<path d="M42.4283 56.7972C42.4283 55.0386 43.2026 53.9756 43.6357 53.9756C44.0687 53.9756 44.843 55.0518 44.843 56.7972C44.843 58.5426 44.0687 59.6319 43.6357 59.6319C43.2026 59.6319 42.4283 58.5558 42.4283 56.7972Z" fill="black" fill-opacity="0.5"/>
<path d="M81.6152 0.313565C81.6021 0.300442 81.589 0.300441 81.589 0.300441C81.4578 0.182329 81.3134 0.0773422 81.1297 0.024848C80.9591 -0.0145226 80.7753 -0.00139909 80.6179 0.024848C80.5916 0.024848 80.5785 0.024848 80.5522 0.024848L49.0688 8.46329C48.6882 8.56828 48.3864 8.87012 48.2814 9.2507L43.9204 25.5216L39.9235 40.4337L39.843 40.7341C39.843 40.7472 39.843 40.7735 39.843 40.7866C39.8036 40.9441 39.8036 41.1147 39.843 41.2853C39.8955 41.4821 39.9873 41.6528 40.1317 41.7971L40.8174 42.4829L56.5793 58.2448L63.1766 64.8421C63.3866 65.052 63.6753 65.1702 63.9641 65.1702C64.0559 65.1702 64.1609 65.157 64.2528 65.1308L95.7362 56.6923C95.7624 56.6923 95.7756 56.6661 95.8018 56.653C95.9462 56.6005 96.0905 56.5349 96.2086 56.4167C96.2217 56.4036 96.2349 56.4036 96.2349 56.3905C96.3661 56.2593 96.4448 56.1018 96.4973 55.9443C96.4973 55.9312 96.5236 55.9181 96.5236 55.9049L104.962 24.4215C105.067 24.0409 104.949 23.6341 104.673 23.3454L81.6152 0.313565ZM50.25 10.4449L79.2661 2.6758L71.497 31.6789L42.4939 39.448L50.25 10.4449ZM64.279 62.8342L43.0451 41.6003L72.0613 33.818L93.2952 55.0519L64.279 62.8342ZM94.87 53.4902L73.6361 32.2563L81.4053 3.25324L102.639 24.4871L94.87 53.4902Z" fill="black" fill-opacity="0.5"/>
<path d="M57.5861 17.9122C54.8301 20.6682 54.0821 24.2378 55.88 26.0488C56.5362 26.705 57.4417 27.0331 58.4522 27.0331C60.1977 27.0331 62.2581 26.0882 64.0035 24.3428C65.2502 23.096 66.1295 21.6262 66.5101 20.2088C66.93 18.5684 66.6544 17.1511 65.7096 16.2193C63.9116 14.4082 60.342 15.1563 57.5861 17.9122ZM64.371 19.6445C64.0954 20.6813 63.3998 21.823 62.4549 22.7679C60.5389 24.684 58.2423 25.2483 57.468 24.474C56.6937 23.6997 57.258 21.4031 59.174 19.487C60.5389 18.1222 62.0875 17.4529 63.1505 17.4529C63.5835 17.4529 63.9379 17.571 64.161 17.7941C64.5022 18.1353 64.5809 18.8046 64.371 19.6445Z" fill="black" fill-opacity="0.5"/>
<path d="M64.371 19.6445C64.0954 20.6813 63.3998 21.823 62.4549 22.7679C60.5389 24.684 58.2423 25.2483 57.468 24.474C56.6937 23.6997 57.258 21.4031 59.174 19.487C60.5389 18.1222 62.0875 17.4529 63.1505 17.4529C63.5835 17.4529 63.9379 17.571 64.161 17.7941C64.5022 18.1353 64.5809 18.8046 64.371 19.6445Z" fill="black" fill-opacity="0.5"/>
<path d="M63.5966 51.0229C62.796 51.0229 62.1005 51.2985 61.6018 51.7972C60.88 52.519 60.6569 53.6214 60.9719 54.8419C61.2343 55.8655 61.8643 56.9154 62.7567 57.7947C63.9903 59.0283 65.4864 59.6976 66.7594 59.6976C67.5337 59.6976 68.2292 59.4483 68.741 58.9364C70.0927 57.5847 69.5941 54.9469 67.5862 52.939C66.3919 51.7447 64.8958 51.0229 63.5966 51.0229ZM67.1662 57.3616C66.8644 57.6635 65.552 57.4535 64.3184 56.2067C63.7278 55.6162 63.2816 54.8944 63.1241 54.2645C63.0191 53.8576 63.0323 53.4902 63.1766 53.3589C63.2816 53.2539 63.4916 53.2408 63.5966 53.2408C64.1347 53.2408 65.0796 53.5689 66.0244 54.5138C67.2581 55.7605 67.468 57.0598 67.1662 57.3616Z" fill="black" fill-opacity="0.5"/>
<path d="M67.4681 37.8075C66.1164 39.1724 66.6151 41.7971 68.623 43.805C69.8697 45.0517 71.3527 45.721 72.6256 45.721C73.3999 45.721 74.0955 45.4717 74.6073 44.9599C75.106 44.4612 75.3816 43.7656 75.3816 42.9651C75.3816 41.6659 74.6598 40.1698 73.4656 38.9624C72.5863 38.0831 71.5364 37.4532 70.5128 37.1776C69.2923 36.8495 68.1899 37.0857 67.4681 37.8075ZM73.1637 42.952C73.1637 43.0701 73.1506 43.2669 73.0456 43.3719C72.7438 43.6738 71.4445 43.4638 70.1978 42.217C68.9511 40.9703 68.7411 39.6711 69.0429 39.3692C69.1217 39.2905 69.2792 39.2511 69.4629 39.2511C69.6072 39.2511 69.7647 39.2774 69.9484 39.3167C70.5784 39.4873 71.3002 39.9204 71.8907 40.511C72.8356 41.4559 73.1637 42.4139 73.1637 42.952Z" fill="black" fill-opacity="0.5"/>
<path d="M82.2584 55.3406C83.0327 55.3406 83.7283 55.0913 84.2401 54.5795C85.6181 53.2015 85.1194 50.6161 83.0852 48.582C81.0773 46.5741 78.4526 46.0754 77.0878 47.4271C75.7229 48.792 76.2347 51.4167 78.2426 53.4246C79.4894 54.6713 80.9855 55.3406 82.2584 55.3406ZM78.6757 49.0019C78.7544 48.9232 78.8988 48.8838 79.0957 48.8838C79.6468 48.8838 80.6049 49.2382 81.5235 50.1568C82.7571 51.3904 82.9671 52.7028 82.6784 53.0046C82.3765 53.3065 81.0642 53.0965 79.8306 51.8498C78.5838 50.6161 78.3739 49.3038 78.6757 49.0019Z" fill="black" fill-opacity="0.5"/>
<path d="M83.1115 18.1747C84.3057 19.3821 85.8018 20.0908 87.1142 20.0908C87.9147 20.0908 88.6102 19.8283 89.1089 19.3165C89.6208 18.8178 89.8832 18.1222 89.8832 17.3217C89.8832 16.0225 89.1614 14.5264 87.9672 13.319C85.9593 11.3111 83.3346 10.8124 81.9697 12.1642C80.5918 13.529 81.1036 16.1668 83.1115 18.1747ZM83.5314 13.7521C83.6102 13.6734 83.7545 13.634 83.9514 13.634C84.5026 13.634 85.4606 13.9883 86.3792 14.907C87.311 15.8387 87.6522 16.7968 87.6522 17.3348C87.6522 17.4529 87.6391 17.6498 87.5341 17.7548C87.4291 17.8598 87.2191 17.8729 87.1142 17.8729C86.5761 17.8729 85.6312 17.5448 84.6863 16.5999C83.4396 15.3532 83.2296 14.0539 83.5314 13.7521Z" fill="black" fill-opacity="0.5"/>
<path d="M87.2191 37.3088C85.8543 38.6605 86.3661 41.2984 88.374 43.3063C89.6207 44.553 91.1037 45.2223 92.3767 45.2223C93.1509 45.2223 93.8465 44.973 94.3583 44.4612C95.7232 43.1094 95.2113 40.4716 93.2034 38.4637C92.3242 37.5844 91.2743 36.9545 90.2506 36.6789C89.0564 36.3639 87.9409 36.587 87.2191 37.3088ZM92.7966 42.8732C92.4948 43.175 91.1824 42.9651 89.9488 41.7183C88.7021 40.4716 88.5052 39.1724 88.7939 38.8705C88.8727 38.7918 89.0302 38.7524 89.2139 38.7524C89.3582 38.7524 89.5288 38.7787 89.6995 38.818C90.3294 38.9886 91.0381 39.4217 91.6417 40.0123C92.8885 41.2721 93.0985 42.5845 92.7966 42.8732Z" fill="black" fill-opacity="0.5"/>
<path d="M84.4764 24.4739C83.0985 25.8519 83.5972 28.4372 85.6313 30.4714C86.8781 31.7181 88.361 32.3874 89.634 32.3874C90.4083 32.3874 91.1038 32.138 91.6157 31.6262C92.9805 30.2614 92.4687 27.6367 90.4608 25.6288C88.466 23.6209 85.8413 23.1222 84.4764 24.4739ZM88.8991 27.2036C90.1327 28.4372 90.3427 29.7496 90.054 30.0514C89.7521 30.3532 88.4398 30.1433 87.2061 28.8965C85.9725 27.6629 85.7626 26.3506 86.0513 26.0487C86.3531 25.7469 87.6655 25.9569 88.8991 27.2036Z" fill="black" fill-opacity="0.5"/>
<path fill-rule="evenodd" clip-rule="evenodd" d="M51.9694 42.1645C50.6046 43.5162 51.1164 46.154 53.1243 48.1619C54.3185 49.3693 55.8146 50.078 57.127 50.078C57.9275 50.078 58.6231 49.8155 59.1218 49.3037C59.6204 48.805 59.896 48.1094 59.896 47.3089C59.896 46.0097 59.1743 44.5136 57.98 43.3062C55.959 41.3114 53.3343 40.7996 51.9694 42.1645ZM57.127 47.847C57.232 47.847 57.4419 47.8338 57.5469 47.7289C57.6388 47.6239 57.665 47.427 57.665 47.3089C57.665 46.7708 57.3238 45.8128 56.3921 44.881C55.4734 43.9624 54.5285 43.6081 53.9642 43.6081C53.7673 43.6081 53.623 43.6474 53.5442 43.7262C53.2555 44.028 53.4524 45.3272 54.6991 46.574C55.644 47.5189 56.5889 47.847 57.127 47.847Z" fill="black" fill-opacity="0.5"/>
<path d="M57.5469 47.7289C57.4419 47.8338 57.232 47.847 57.127 47.847C56.5889 47.847 55.644 47.5189 54.6991 46.574C53.4524 45.3272 53.2555 44.028 53.5442 43.7262C53.623 43.6474 53.7673 43.6081 53.9642 43.6081C54.5285 43.6081 55.4734 43.9624 56.3921 44.881C57.3238 45.8128 57.665 46.7708 57.665 47.3089C57.665 47.427 57.6388 47.6239 57.5469 47.7289Z" fill="black" fill-opacity="0.5"/>
<path d="M67.1662 57.3616C66.8644 57.6635 65.552 57.4535 64.3184 56.2067C63.7278 55.6162 63.2816 54.8944 63.1241 54.2645C63.0191 53.8576 63.0323 53.4902 63.1766 53.3589C63.2816 53.2539 63.4916 53.2408 63.5966 53.2408C64.1347 53.2408 65.0796 53.5689 66.0244 54.5138C67.2581 55.7605 67.468 57.0598 67.1662 57.3616Z" fill="black" fill-opacity="0.5"/>
<path d="M73.1637 42.952C73.1637 43.0701 73.1506 43.2669 73.0456 43.3719C72.7438 43.6738 71.4445 43.4638 70.1978 42.217C68.9511 40.9703 68.7411 39.6711 69.0429 39.3692C69.1217 39.2905 69.2792 39.2511 69.4629 39.2511C69.6072 39.2511 69.7647 39.2774 69.9484 39.3167C70.5784 39.4873 71.3002 39.9204 71.8907 40.511C72.8356 41.4559 73.1637 42.4139 73.1637 42.952Z" fill="black" fill-opacity="0.5"/>
<path d="M78.6757 49.0019C78.7544 48.9232 78.8988 48.8838 79.0957 48.8838C79.6468 48.8838 80.6049 49.2382 81.5235 50.1568C82.7571 51.3904 82.9671 52.7028 82.6784 53.0046C82.3765 53.3065 81.0642 53.0965 79.8306 51.8498C78.5838 50.6161 78.3739 49.3038 78.6757 49.0019Z" fill="black" fill-opacity="0.5"/>
<path d="M92.7966 42.8732C92.4948 43.175 91.1824 42.9651 89.9488 41.7183C88.7021 40.4716 88.5052 39.1724 88.7939 38.8705C88.8727 38.7918 89.0302 38.7524 89.2139 38.7524C89.3582 38.7524 89.5288 38.7787 89.6995 38.818C90.3294 38.9886 91.0381 39.4217 91.6417 40.0123C92.8885 41.2721 93.0985 42.5845 92.7966 42.8732Z" fill="black" fill-opacity="0.5"/>
<path d="M88.8991 27.2036C90.1327 28.4372 90.3427 29.7496 90.054 30.0514C89.7521 30.3532 88.4398 30.1433 87.2061 28.8965C85.9725 27.6629 85.7626 26.3506 86.0513 26.0487C86.3531 25.7469 87.6655 25.9569 88.8991 27.2036Z" fill="black" fill-opacity="0.5"/>
<path d="M83.5314 13.7521C83.6102 13.6734 83.7545 13.634 83.9514 13.634C84.5026 13.634 85.4606 13.9883 86.3792 14.907C87.311 15.8387 87.6522 16.7968 87.6522 17.3348C87.6522 17.4529 87.6391 17.6498 87.5341 17.7548C87.4291 17.8598 87.2191 17.8729 87.1142 17.8729C86.5761 17.8729 85.6312 17.5448 84.6863 16.5999C83.4396 15.3532 83.2296 14.0539 83.5314 13.7521Z" fill="black" fill-opacity="0.5"/>
<path fill-rule="evenodd" clip-rule="evenodd" d="M56.4575 58.7527C56.4575 58.5697 56.5014 58.397 56.5793 58.2448L40.8174 42.4829L30.4598 49.5663V79.6192L56.4575 64.5796V58.7527ZM33.0713 67.8079C33.0713 64.9732 34.5805 62.7553 36.4965 62.7553C38.4126 62.7553 39.9218 64.9732 39.9218 67.8079C39.9218 70.6426 38.4126 72.8604 36.4965 72.8604C34.5805 72.8604 33.0713 70.6426 33.0713 67.8079ZM43.6357 51.7446C45.5517 51.7446 47.0609 53.9625 47.0609 56.7972C47.0609 59.6319 45.5517 61.8498 43.6357 61.8498C41.7196 61.8498 40.2104 59.6319 40.2104 56.7972C40.2104 53.9625 41.7196 51.7446 43.6357 51.7446Z" fill="white" fill-opacity="0.5"/>
<path fill-rule="evenodd" clip-rule="evenodd" d="M2.21788 34.5529L28.2288 49.5663V79.6061L2.21788 64.5796V34.5529ZM4.71147 46.3115C4.71147 43.4768 6.22068 41.2589 8.13672 41.2589C10.0528 41.2589 11.562 43.4768 11.562 46.3115C11.562 49.1462 10.0528 51.3641 8.13672 51.3641C6.22068 51.3641 4.71147 49.1462 4.71147 46.3115ZM4.71147 59.9337C4.71147 57.0991 6.22068 54.8812 8.13672 54.8812C10.0528 54.8812 11.562 57.0991 11.562 59.9337C11.562 62.7684 10.0528 64.9863 8.13672 64.9863C6.22068 64.9863 4.71147 62.7684 4.71147 59.9337ZM18.7536 54.1988C18.7536 51.3641 20.2628 49.1462 22.1789 49.1462C24.108 49.1462 25.6041 51.3641 25.6041 54.1988C25.6041 57.0335 24.0949 59.2513 22.1789 59.2513C20.2628 59.2513 18.7536 57.0335 18.7536 54.1988ZM18.7536 67.8079C18.7536 64.9732 20.2628 62.7553 22.1789 62.7553C24.108 62.7553 25.6041 64.9732 25.6041 67.8079C25.6041 70.6426 24.0949 72.8604 22.1789 72.8604C20.2628 72.8604 18.7536 70.6426 18.7536 67.8079Z" fill="white" fill-opacity="0.5"/>
<path fill-rule="evenodd" clip-rule="evenodd" d="M39.7644 40.511C39.8162 40.4807 39.8694 40.4549 39.9235 40.4337L43.9204 25.5216C43.6745 25.5642 43.4128 25.5253 43.1765 25.3927L29.3443 17.6235L3.33338 32.6369L29.3311 47.6371L39.7644 40.511ZM29.2524 37.1776C25.3547 37.1776 22.2969 35.1828 22.2969 32.6369C22.2969 30.0909 25.3547 28.0961 29.2524 28.0961C33.1501 28.0961 36.2079 30.0909 36.2079 32.6369C36.2079 35.1828 33.1501 37.1776 29.2524 37.1776Z" fill="white" fill-opacity="0.5"/>
<path fill-rule="evenodd" clip-rule="evenodd" d="M50.25 10.4449L79.2661 2.6758L71.497 31.6789L42.4939 39.448L50.25 10.4449ZM55.88 26.0488C54.0821 24.2378 54.8301 20.6682 57.5861 17.9122C60.342 15.1563 63.9116 14.4082 65.7096 16.2193C66.6544 17.1511 66.93 18.5684 66.5101 20.2088C66.1295 21.6262 65.2502 23.096 64.0035 24.3428C62.2581 26.0882 60.1977 27.0331 58.4522 27.0331C57.4417 27.0331 56.5362 26.705 55.88 26.0488Z" fill="white" fill-opacity="0.5"/>
<path fill-rule="evenodd" clip-rule="evenodd" d="M64.279 62.8342L43.0451 41.6003L72.0613 33.818L93.2952 55.0519L64.279 62.8342ZM53.1243 48.1619C51.1164 46.154 50.6046 43.5162 51.9694 42.1645C53.3343 40.7996 55.959 41.3114 57.98 43.3062C59.1743 44.5136 59.896 46.0097 59.896 47.3089C59.896 48.1094 59.6204 48.805 59.1218 49.3037C58.6231 49.8155 57.9275 50.078 57.127 50.078C55.8146 50.078 54.3185 49.3693 53.1243 48.1619ZM61.6018 51.7972C62.1005 51.2985 62.796 51.0229 63.5966 51.0229C64.8958 51.0229 66.3919 51.7447 67.5862 52.939C69.5941 54.9469 70.0927 57.5847 68.741 58.9364C68.2292 59.4483 67.5337 59.6976 66.7594 59.6976C65.4864 59.6976 63.9903 59.0283 62.7567 57.7947C61.8643 56.9154 61.2343 55.8655 60.9719 54.8419C60.6569 53.6214 60.88 52.519 61.6018 51.7972ZM68.623 43.805C66.6151 41.7971 66.1164 39.1724 67.4681 37.8075C68.1899 37.0857 69.2923 36.8495 70.5128 37.1776C71.5364 37.4532 72.5863 38.0831 73.4656 38.9624C74.6598 40.1698 75.3816 41.6659 75.3816 42.9651C75.3816 43.7656 75.106 44.4612 74.6073 44.9599C74.0955 45.4717 73.3999 45.721 72.6256 45.721C71.3527 45.721 69.8697 45.0517 68.623 43.805ZM84.2401 54.5795C83.7283 55.0913 83.0327 55.3406 82.2584 55.3406C80.9855 55.3406 79.4894 54.6713 78.2426 53.4246C76.2347 51.4167 75.7229 48.792 77.0878 47.4271C78.4526 46.0754 81.0773 46.5741 83.0852 48.582C85.1194 50.6161 85.6181 53.2015 84.2401 54.5795Z" fill="white" fill-opacity="0.5"/>
<path fill-rule="evenodd" clip-rule="evenodd" d="M94.87 53.4902L73.6361 32.2563L81.4053 3.25324L102.639 24.4871L94.87 53.4902ZM87.1142 20.0908C85.8018 20.0908 84.3057 19.3821 83.1115 18.1747C81.1036 16.1668 80.5918 13.529 81.9697 12.1642C83.3346 10.8124 85.9593 11.3111 87.9672 13.319C89.1614 14.5264 89.8832 16.0225 89.8832 17.3217C89.8832 18.1222 89.6208 18.8178 89.1089 19.3165C88.6102 19.8283 87.9147 20.0908 87.1142 20.0908ZM88.374 43.3063C86.3661 41.2984 85.8543 38.6605 87.2191 37.3088C87.9409 36.587 89.0564 36.3639 90.2506 36.6789C91.2743 36.9545 92.3242 37.5844 93.2034 38.4637C95.2113 40.4716 95.7232 43.1094 94.3583 44.4612C93.8465 44.973 93.1509 45.2223 92.3767 45.2223C91.1037 45.2223 89.6207 44.553 88.374 43.3063ZM85.6313 30.4714C83.5972 28.4372 83.0985 25.8519 84.4764 24.4739C85.8413 23.1222 88.466 23.6209 90.4608 25.6288C92.4687 27.6367 92.9805 30.2614 91.6157 31.6262C91.1038 32.138 90.4083 32.3874 89.634 32.3874C88.361 32.3874 86.8781 31.7181 85.6313 30.4714Z" fill="white" fill-opacity="0.5"/>
</svg>
