<svg width="188" height="188" viewBox="0 0 188 188" fill="none" xmlns="http://www.w3.org/2000/svg">
<path d="M17.4072 0.5H170.308C179.645 0.5 187.215 8.06937 187.215 17.4072V170.308C187.214 179.645 179.645 187.214 170.307 187.214H17.4072C8.06937 187.214 0.5 179.644 0.5 170.307V17.4072C0.5 8.06937 8.06937 0.5 17.4072 0.5Z" fill="white" stroke="black"/>
<path d="M94.9301 179.67C142.915 179.67 181.815 140.77 181.815 92.785C181.815 44.7998 142.915 5.90002 94.9301 5.90002C46.9448 5.90002 8.04504 44.7998 8.04504 92.785C8.04504 140.77 46.9448 179.67 94.9301 179.67Z" fill="white"/>
<path d="M66.208 66.744C75.6046 66.744 83.222 59.1266 83.222 49.73C83.222 40.3334 75.6046 32.7159 66.208 32.7159C56.8114 32.7159 49.194 40.3334 49.194 49.73C49.194 59.1266 56.8114 66.744 66.208 66.744Z" fill="black"/>
<path opacity="0.5" d="M80.696 45.1679C83.741 48.2129 81.946 54.9469 76.686 60.2069C71.426 65.4669 64.693 67.2629 61.647 64.2169C58.601 61.1719 60.397 54.4379 65.657 49.1779C70.917 43.9179 77.65 42.1229 80.696 45.1679Z" fill="black"/>
<path d="M121.506 66.7449C130.903 66.7449 138.521 59.1271 138.521 49.73C138.521 40.3329 130.903 32.715 121.506 32.715C112.109 32.715 104.491 40.3329 104.491 49.73C104.491 59.1271 112.109 66.7449 121.506 66.7449Z" fill="black"/>
<path opacity="0.5" d="M135.993 45.1679C139.039 48.2129 137.243 54.9469 131.983 60.2069C126.723 65.4669 119.99 67.2629 116.944 64.2169C113.898 61.1719 115.694 54.4379 120.954 49.1779C126.214 43.9179 132.947 42.1229 135.993 45.1679Z" fill="black"/>
<path d="M66.208 111.407C75.6046 111.407 83.222 103.79 83.222 94.393C83.222 84.9964 75.6046 77.379 66.208 77.379C56.8114 77.379 49.194 84.9964 49.194 94.393C49.194 103.79 56.8114 111.407 66.208 111.407Z" fill="black"/>
<path opacity="0.5" d="M80.696 89.8321C83.741 92.8771 81.946 99.6111 76.686 104.871C71.426 110.131 64.693 111.927 61.647 108.881C58.601 105.836 60.397 99.1021 65.657 93.8421C70.917 88.5821 77.65 86.7861 80.696 89.8321Z" fill="black"/>
<path d="M121.506 111.408C130.903 111.408 138.521 103.79 138.521 94.3931C138.521 84.9959 130.903 77.3781 121.506 77.3781C112.109 77.3781 104.491 84.9959 104.491 94.3931C104.491 103.79 112.109 111.408 121.506 111.408Z" fill="black"/>
<path opacity="0.5" d="M135.993 89.8322C139.039 92.8772 137.243 99.6112 131.983 104.871C126.723 110.131 119.99 111.927 116.944 108.881C113.898 105.836 115.694 99.1022 120.954 93.8422C126.214 88.5822 132.947 86.7862 135.993 89.8322Z" fill="black"/>
<path d="M66.208 156.071C75.6046 156.071 83.222 148.454 83.222 139.057C83.222 129.66 75.6046 122.043 66.208 122.043C56.8114 122.043 49.194 129.66 49.194 139.057C49.194 148.454 56.8114 156.071 66.208 156.071Z" fill="black"/>
<path opacity="0.5" d="M80.696 134.495C83.741 137.54 81.946 144.274 76.686 149.534C71.426 154.794 64.693 156.59 61.647 153.544C58.601 150.498 60.397 143.765 65.657 138.505C70.917 133.245 77.65 131.449 80.696 134.495Z" fill="black"/>
<path d="M121.506 156.071C130.903 156.071 138.52 148.454 138.52 139.057C138.52 129.66 130.903 122.043 121.506 122.043C112.109 122.043 104.492 129.66 104.492 139.057C104.492 148.454 112.109 156.071 121.506 156.071Z" fill="black"/>
<path opacity="0.5" d="M135.993 134.495C139.039 137.54 137.243 144.274 131.983 149.534C126.723 154.794 119.99 156.59 116.944 153.544C113.898 150.498 115.694 143.765 120.954 138.505C126.214 133.245 132.947 131.449 135.993 134.495Z" fill="black"/>
<path d="M174.856 92.627C171.458 91.083 167.899 95.284 165.788 98.362C163.677 101.439 162.26 104.985 159.858 107.841C155.653 112.84 149.101 115.026 143.122 117.657C140.542 118.793 137.592 120.773 137.942 123.57C138.127 125.048 139.222 126.216 140.154 127.378C147.912 137.049 145.327 153.217 134.942 159.987C127.131 165.079 116.95 164.847 108.55 168.896C107.168 169.562 105.723 170.489 105.323 171.97C104.819 173.837 106.311 175.78 108.128 176.442C109.944 177.104 111.957 176.807 113.853 176.431C130.506 173.131 145.903 164.236 157.559 151.892C169.215 139.548 175.012 123.856 178.698 107.284C178.698 107.284 181.681 95.728 174.856 92.627Z" fill="white"/>
</svg>
