<svg width="71" height="36" viewBox="0 0 71 36" fill="none" xmlns="http://www.w3.org/2000/svg">
<path d="M52.0916 13.0667C51.8402 16.1693 51.4196 19.2093 51.2011 19.9274C51.1421 20.121 51.005 20.3737 50.7876 20.6633C49.5608 22.2979 45.7722 25.1108 39.0126 25.1636C38.0547 25.1711 37.0368 25.1233 35.9587 25.0085C25.9224 23.9423 20.2147 19.7396 19.7128 16.7916C19.6245 16.274 19.6477 15.5476 19.7506 14.6922C19.9028 13.431 20.2299 11.8894 20.6328 10.3229C20.6517 10.2492 20.6713 10.1755 20.6902 10.1019C20.6906 10.1015 20.6906 10.1013 20.6906 10.1013C20.8384 9.53605 20.9956 8.96924 21.1575 8.4125C21.1575 8.4125 21.1575 8.41211 21.1579 8.41151C21.8173 6.14546 22.5558 4.05025 23.0631 2.93381C23.0635 2.93342 23.0635 2.93322 23.0635 2.93243C23.1708 2.69721 23.2673 2.50525 23.3507 2.36463L23.3633 2.34429C24.068 1.232 28.9832 -0.871313 38.6081 0.390676C48.8802 1.73719 51.0129 3.93293 51.9538 5.80419C52.4262 6.74367 52.345 9.93716 52.0916 13.0667Z" fill="white"/>
<path d="M51.8838 35.1733H51.8834C48.8125 35.6096 45.3355 35.8717 41.4276 35.9205C8.76637 36.3314 -2.31147 23.4067 0.390218 15.5331C0.394776 15.5196 0.398737 15.5081 0.401908 15.4985C0.405079 15.4888 0.408645 15.4794 0.412014 15.4699C0.41241 15.4685 0.413009 15.4675 0.413405 15.4663C0.484351 15.2663 0.564214 15.0697 0.652599 14.8765C1.29131 13.4848 2.3876 12.2817 3.89312 11.3805C15.2322 4.59422 34.274 5.05014 48.8444 8.05401C51.9503 8.69407 54.853 9.44992 57.4346 10.2761C58.1407 10.5021 58.823 10.7332 59.4785 10.969C59.4795 10.9694 59.4807 10.9696 59.4821 10.97C59.7233 11.0569 59.9611 11.1441 60.1947 11.2318C64.7483 12.9411 68.0616 15.5302 69.745 18.399C70.4717 19.6371 70.8944 20.9271 70.9826 22.2207V22.2211C71.3548 27.6782 65.7707 33.2027 51.8838 35.1733Z" fill="white"/>
<path opacity="0.4" d="M51.8838 35.1734H51.8834C48.8125 35.6096 45.3355 35.8717 41.4276 35.9206C8.76637 36.3315 -2.31147 23.4067 0.390218 15.5331C0.144682 16.3028 -1.9716 24.2416 13.9306 30.8269C30.8345 37.8271 56.2854 34.4702 61.2236 32.231C66.1619 29.9922 70.8017 26.5873 70.9826 22.2211C71.3548 27.6782 65.7707 33.2027 51.8838 35.1734Z" fill="white"/>
<path d="M51.4962 34.1869H51.4958C48.5382 34.6011 45.1896 34.85 41.4258 34.8963C9.96976 35.2865 -0.699322 23.0151 1.90267 15.5395C1.90706 15.5267 1.91088 15.5158 1.91393 15.5067C1.91699 15.4975 1.92042 15.4885 1.92367 15.4796C1.92405 15.4782 1.92462 15.4773 1.92501 15.4761C1.99333 15.2862 2.07025 15.0996 2.15537 14.9161C2.77052 13.5948 3.82636 12.4525 5.27632 11.5969C16.197 5.15363 34.5361 5.5865 48.569 8.43853C51.5603 9.04622 54.3558 9.76386 56.8422 10.5483C57.5222 10.7628 58.1793 10.9823 58.8107 11.2062C58.8117 11.2066 58.8128 11.2068 58.8141 11.2071C59.0464 11.2896 59.2754 11.3724 59.5005 11.4556C63.8861 13.0785 67.077 15.5368 68.6984 18.2606C69.3983 19.4361 69.8054 20.6608 69.8903 21.889V21.8894C70.2488 27.0707 64.8707 32.3159 51.4962 34.1869Z" fill="url(#paint0_linear_28_40096)"/>
<path d="M23.165 20.4971C23.0636 20.4637 17.3737 21.2668 12.7215 22.1706C8.7455 22.943 5.05694 24.0933 4.58838 24.7552L23.165 20.4971Z" fill="url(#paint1_linear_28_40096)"/>
<path d="M21.9574 29.6083C21.7682 29.7442 25.6341 25.153 29.354 22.8606C29.354 22.8606 25.0285 27.4023 21.9574 29.6083Z" fill="url(#paint2_linear_28_40096)"/>
<path d="M48.0264 24.6296C48.0264 24.6296 52.0373 26.2804 55.4632 27.8682C58.8892 29.4557 62.0645 31.4334 62.0645 31.322C62.0645 31.2105 57.5522 27.8403 56.2431 27.1996C54.934 26.5589 48.0264 24.6296 48.0264 24.6296Z" fill="url(#paint3_linear_28_40096)"/>
<path d="M56.9331 11.9747C44.8404 7.64711 21.313 4.52578 8.64638 12.0962C0.227916 17.1277 6.8853 32.5696 40.8374 32.1623C71.268 31.7978 71.2052 17.0825 56.9331 11.9747ZM40.5866 31.0218C8.30913 31.4 1.88916 16.4116 9.98736 11.8974C21.9421 5.2333 44.5705 8.08933 56.0667 12.1088C69.6352 16.8527 69.5169 30.6832 40.5866 31.0218Z" fill="url(#paint4_linear_28_40096)"/>
<path d="M50.3481 27.9779C50.3481 27.9779 55.4048 29.9117 57.6241 32.9599C57.6241 32.9599 51.7798 29.0983 50.3481 27.9779Z" fill="url(#paint5_linear_28_40096)"/>
<path d="M51.5844 13.3622C42.5157 10.1169 24.8716 7.77595 15.3723 13.4535C9.05885 17.2268 14.0518 28.8072 39.5136 28.5019C62.3346 28.2283 62.2877 17.1928 51.5844 13.3622ZM39.3255 27.6464C15.1192 27.93 10.3048 16.6897 16.3778 13.3042C25.343 8.30654 42.313 10.4484 50.9345 13.4628C61.1101 17.0205 61.0213 27.3924 39.3255 27.6464Z" fill="url(#paint6_linear_28_40096)"/>
<path d="M13.3267 30.4694C13.3267 30.4694 19.7514 25.1532 27.148 22.1254C27.148 22.1254 15.726 29.1244 13.3267 30.4694Z" fill="url(#paint7_linear_28_40096)"/>
<path d="M51.2995 13.4739C51.0565 16.4723 50.65 19.4102 50.4389 20.1042C50.3819 20.2912 50.2494 20.5356 50.0393 20.8154C48.8536 22.3951 45.1924 25.1135 38.6598 25.1645C37.7341 25.1717 36.7504 25.1255 35.7085 25.0147C26.0094 23.9842 20.4933 19.9227 20.0084 17.0737C19.923 16.5735 19.9454 15.8715 20.0448 15.0449C20.192 13.8261 20.508 12.3362 20.8974 10.8223C20.9157 10.7511 20.9346 10.6799 20.9529 10.6087C20.9533 10.6083 20.9533 10.6081 20.9533 10.6081C21.0961 10.0619 21.248 9.51414 21.4045 8.9761C21.4045 8.9761 21.4045 8.97572 21.4049 8.97515C22.0422 6.78522 22.7558 4.76038 23.2461 3.68145C23.2465 3.68107 23.2465 3.68088 23.2465 3.68011C23.3501 3.4528 23.4435 3.26728 23.524 3.13139L23.5362 3.11173C24.2172 2.03681 28.9673 0.00414753 38.2689 1.22374C48.1959 2.52503 50.257 4.64701 51.1663 6.45541C51.6228 7.36333 51.5444 10.4495 51.2995 13.4739Z" fill="url(#paint8_linear_28_40096)"/>
<path d="M39.6318 11.2004C39.6318 11.2004 38.5884 14.9186 38.4916 16.8755C38.3553 19.6302 38.1992 24.2142 38.1992 24.2142C38.1992 24.2142 39.6885 13.2801 39.6318 11.2004Z" fill="url(#paint9_linear_28_40096)"/>
<path d="M40.986 13.5123C40.986 13.5123 40.5487 16.9482 40.4518 18.9051C40.3155 21.6596 40.2256 25.2226 40.2256 25.2226C40.2256 25.2226 41.2335 18.9854 40.986 13.5123Z" fill="url(#paint10_linear_28_40096)"/>
<path opacity="0.6" d="M51.2994 13.4739C51.0565 16.4723 50.6499 19.4102 50.4388 20.1042C50.3818 20.2912 50.2493 20.5355 50.0392 20.8153L37.5584 23.6574L23.4915 19.8377L20.0449 15.0449C20.1921 13.826 20.5081 12.3362 20.8975 10.8223C20.7822 11.4756 20.8225 13.5226 25.0708 15.5399C30.2182 17.9839 39.0485 19.0075 43.8311 18.2177C48.6136 17.4283 50.6812 14.9029 51.2994 13.4748C51.2992 13.4743 51.2994 13.4743 51.2994 13.4739Z" fill="#891F0B"/>
<path d="M47.2864 3.83241C42.3405 1.90224 30.3594 -0.014571 25.1094 2.74622C22.2983 4.22463 27.2368 10.4133 40.2712 10.3949C52.0465 10.3783 52.232 5.76258 47.2864 3.83241ZM40.0219 10.0102C28.0985 10.027 23.5814 4.36567 26.1527 3.01362C30.9553 0.487964 41.8964 2.10512 46.4203 3.87077C50.9443 5.63623 50.7933 9.9949 40.0219 10.0102Z" fill="url(#paint11_linear_28_40096)"/>
<path d="M42.9119 4.36588C40.1429 3.28523 33.4351 2.21222 30.4959 3.7578C28.922 4.58556 31.6868 8.05025 38.9844 8.03994C45.5769 8.03078 45.6807 5.44653 42.9119 4.36588ZM38.8071 7.76625C32.3003 7.77541 29.8351 4.68596 31.2383 3.94809C33.8592 2.5697 39.8301 3.45223 42.2989 4.41589C44.7676 5.37935 44.6852 7.75785 38.8071 7.76625Z" fill="url(#paint12_linear_28_40096)"/>
<path d="M51.3411 20.8423C50.9426 21.6905 48.165 25.5052 38.7736 25.7161H38.7717C37.106 25.7535 35.232 25.6774 33.1262 25.4512C23.311 24.3973 20.2968 20.8526 19.4643 18.3331C19.4643 18.3331 19.4643 18.3331 19.4643 18.3327C19.1114 17.2644 19.1507 16.3804 19.2303 15.949C19.3745 15.1686 19.674 13.447 20.0941 12.233C20.3189 11.5825 20.5785 11.0775 20.8669 10.941C20.8669 10.941 18.8411 15.9849 34.0641 18.3296C49.3285 20.6804 51.2369 14.2025 51.2369 14.2025C51.2369 14.2025 51.5824 14.4132 51.69 14.8504C51.694 14.8657 51.6975 14.8813 51.7007 14.8972C51.7948 15.3665 51.8101 19.8435 51.3411 20.8423Z" fill="url(#paint13_linear_28_40096)"/>
<defs>
<linearGradient id="paint0_linear_28_40096" x1="42.7564" y1="6.54767" x2="20.2311" y2="49.9029" gradientUnits="userSpaceOnUse">
<stop offset="1e-08" stop-color="#DA915C"/>
<stop offset="0.3931" stop-color="#EEAD63"/>
<stop offset="0.7448" stop-color="#FBBF67"/>
<stop offset="1" stop-color="#FFC569"/>
</linearGradient>
<linearGradient id="paint1_linear_28_40096" x1="23.4311" y1="20.0663" x2="4.2614" y2="24.4517" gradientUnits="userSpaceOnUse">
<stop offset="1e-08" stop-color="#C9784B"/>
<stop offset="0.3693" stop-color="#DC914C"/>
<stop offset="0.7348" stop-color="#E9A34D"/>
<stop offset="1" stop-color="#EEA94D"/>
</linearGradient>
<linearGradient id="paint2_linear_28_40096" x1="27.2362" y1="23.4696" x2="21.354" y2="33.7371" gradientUnits="userSpaceOnUse">
<stop offset="1e-08" stop-color="#C9784B"/>
<stop offset="0.3693" stop-color="#DC914C"/>
<stop offset="0.7348" stop-color="#E9A34D"/>
<stop offset="1" stop-color="#EEA94D"/>
</linearGradient>
<linearGradient id="paint3_linear_28_40096" x1="59.4709" y1="24.2549" x2="47.6612" y2="34.1868" gradientUnits="userSpaceOnUse">
<stop offset="1e-08" stop-color="#C9784B"/>
<stop offset="0.3693" stop-color="#DC914C"/>
<stop offset="0.7348" stop-color="#E9A34D"/>
<stop offset="1" stop-color="#EEA94D"/>
</linearGradient>
<linearGradient id="paint4_linear_28_40096" x1="37.9014" y1="8.32149" x2="30.1169" y2="48.9641" gradientUnits="userSpaceOnUse">
<stop offset="1e-08" stop-color="#C9784B"/>
<stop offset="0.3693" stop-color="#DC914C"/>
<stop offset="0.7348" stop-color="#E9A34D"/>
<stop offset="1" stop-color="#EEA94D"/>
</linearGradient>
<linearGradient id="paint5_linear_28_40096" x1="57.9627" y1="27.1711" x2="48.5511" y2="34.9764" gradientUnits="userSpaceOnUse">
<stop offset="1e-08" stop-color="#C9784B"/>
<stop offset="0.3693" stop-color="#DC914C"/>
<stop offset="0.7348" stop-color="#E9A34D"/>
<stop offset="1" stop-color="#EEA94D"/>
</linearGradient>
<linearGradient id="paint6_linear_28_40096" x1="37.7578" y1="8.29399" x2="29.9733" y2="48.9366" gradientUnits="userSpaceOnUse">
<stop offset="1e-08" stop-color="#C9784B"/>
<stop offset="0.3693" stop-color="#DC914C"/>
<stop offset="0.7348" stop-color="#E9A34D"/>
<stop offset="1" stop-color="#EEA94D"/>
</linearGradient>
<linearGradient id="paint7_linear_28_40096" x1="25.7894" y1="21.3106" x2="12.8958" y2="32.8911" gradientUnits="userSpaceOnUse">
<stop offset="1e-08" stop-color="#C9784B"/>
<stop offset="0.3693" stop-color="#DC914C"/>
<stop offset="0.7348" stop-color="#E9A34D"/>
<stop offset="1" stop-color="#EEA94D"/>
</linearGradient>
<linearGradient id="paint8_linear_28_40096" x1="58.1455" y1="9.16492" x2="12.6106" y2="16.8348" gradientUnits="userSpaceOnUse">
<stop offset="1e-08" stop-color="#DA915C"/>
<stop offset="0.3931" stop-color="#EEAD63"/>
<stop offset="0.7448" stop-color="#FBBF67"/>
<stop offset="1" stop-color="#FFC569"/>
</linearGradient>
<linearGradient id="paint9_linear_28_40096" x1="54.2593" y1="4.98229" x2="17.891" y2="35.1434" gradientUnits="userSpaceOnUse">
<stop offset="1e-08" stop-color="#C9784B"/>
<stop offset="0.3693" stop-color="#DC914C"/>
<stop offset="0.7348" stop-color="#E9A34D"/>
<stop offset="1" stop-color="#EEA94D"/>
</linearGradient>
<linearGradient id="paint10_linear_28_40096" x1="40.6102" y1="21.2443" x2="40.8127" y2="11.6868" gradientUnits="userSpaceOnUse">
<stop offset="1e-08" stop-color="#C9784B"/>
<stop offset="0.3693" stop-color="#DC914C"/>
<stop offset="0.7348" stop-color="#E9A34D"/>
<stop offset="1" stop-color="#EEA94D"/>
</linearGradient>
<linearGradient id="paint11_linear_28_40096" x1="36.8298" y1="8.11628" x2="29.0453" y2="48.7589" gradientUnits="userSpaceOnUse">
<stop offset="1e-08" stop-color="#C9784B"/>
<stop offset="0.3693" stop-color="#DC914C"/>
<stop offset="0.7348" stop-color="#E9A34D"/>
<stop offset="1" stop-color="#EEA94D"/>
</linearGradient>
<linearGradient id="paint12_linear_28_40096" x1="36.7998" y1="8.11058" x2="29.0153" y2="48.7533" gradientUnits="userSpaceOnUse">
<stop offset="1e-08" stop-color="#C9784B"/>
<stop offset="0.3693" stop-color="#DC914C"/>
<stop offset="0.7348" stop-color="#E9A34D"/>
<stop offset="1" stop-color="#EEA94D"/>
</linearGradient>
<linearGradient id="paint13_linear_28_40096" x1="52.0826" y1="20.0897" x2="17.8657" y2="17.5253" gradientUnits="userSpaceOnUse">
<stop offset="0.0506" stop-color="#830E06"/>
<stop offset="0.8171" stop-color="#D62215"/>
<stop offset="1" stop-color="#DA291C"/>
</linearGradient>
</defs>
</svg>
