<svg width="76" height="56" viewBox="0 0 76 56" fill="none" xmlns="http://www.w3.org/2000/svg">
<path d="M1.04982 26.9599C2.34806 24.1672 4.58531 21.7845 6.58039 19.7702C8.96031 17.3679 11.8523 15.0236 15.4216 12.6034C23.5518 7.09086 32.6559 3.29156 42.4811 1.31074C46.8563 0.428741 50.5969 0 53.9167 0C59.9953 0 64.9599 1.46449 68.6724 4.35291C73.1037 7.80048 75.4082 12.5897 74.9949 17.4926C74.775 20.1009 73.9799 22.8552 72.6956 25.4576C71.569 27.7405 70.0925 29.8611 68.402 31.6303C68.423 32.0527 68.4138 32.4698 68.4022 32.8792C68.4508 32.9388 68.4975 32.9996 68.5424 33.0615C69.7104 34.6757 69.9881 36.7937 69.3699 39.3596C69.4624 39.827 69.4768 40.2891 69.4553 40.7172C70.1115 41.326 70.7392 41.9441 71.3346 42.5345C71.4337 42.6327 71.5434 42.7375 71.6594 42.8485C72.0119 43.1856 72.4336 43.5888 72.8276 44.0497C75.1421 45.1676 76.2502 47.0163 75.9525 49.2777C75.563 52.2391 72.9471 53.3722 72.0874 53.7446C69.1018 55.0375 65.4311 55.6397 60.5356 55.6397C58.5203 55.6397 56.5514 55.5427 54.8143 55.4569C46.4766 55.0461 38.5215 53.606 31.1633 51.1762C29.0927 51.304 27.0235 51.369 25.0124 51.369C22.1089 51.369 19.2708 51.2341 16.5769 50.9682C15.2953 50.8416 14.2113 50.5311 13.355 50.0453C11.9636 49.256 11.1962 47.9901 11.1944 46.4814C11.1937 45.9689 11.2877 45.473 11.4744 45.0007C11.4579 44.8893 11.4413 44.7792 11.425 44.6713C8.23164 43.401 5.03353 41.7725 2.69451 38.8921C1.30542 37.1815 0.413093 35.2081 0.11383 33.1851C-0.195426 31.0946 0.128354 28.942 1.04982 26.9599Z" fill="white"/>
<path d="M7.71383 20.893C10.3141 18.2681 13.2639 15.9939 16.3169 13.9239C24.376 8.45963 33.2676 4.79568 42.7964 2.87465C50.7611 1.26901 60.8251 0.269025 67.6927 5.6121C71.3313 8.44292 73.8023 12.6471 73.4052 17.3586C72.9834 22.3606 70.3287 27.5227 66.778 31.005C66.7647 31.018 66.7508 31.0272 66.7371 31.0377C66.8718 31.8084 66.8027 32.6555 66.7909 33.5117C66.9615 33.6553 67.1178 33.8143 67.25 33.9969C68.3654 35.5384 68.2085 37.5511 67.7387 39.3011C67.734 39.3183 67.7269 39.3327 67.7209 39.3483C67.9156 39.9351 67.8931 40.6223 67.788 41.3572C68.6218 42.1 69.4215 42.8845 70.2114 43.6676C70.6673 44.1196 71.3357 44.7054 71.8452 45.3701C71.8804 45.3763 71.9161 45.3858 71.9523 45.402C73.5234 46.1063 74.6081 47.2663 74.3707 49.0698C74.149 50.7559 72.934 51.6394 71.4534 52.2807C66.5092 54.4219 60.1541 54.1231 54.8928 53.8637C46.8122 53.4655 38.862 52.0819 31.2722 49.531C31.2213 49.5592 31.1618 49.578 31.0924 49.5822C26.3473 49.8767 21.4678 49.8479 16.7335 49.3806C15.079 49.2173 12.7922 48.5835 12.7896 46.4795C12.789 46.0145 12.9149 45.6089 13.122 45.2476C13.0402 44.6682 12.9506 44.0896 12.8586 43.5115C12.8419 43.5072 12.8256 43.5046 12.8081 43.4978C9.48102 42.2284 6.22449 40.7083 3.93291 37.8864C1.50228 34.8932 0.866389 31.1385 2.4963 27.6326C3.67362 25.1005 5.77349 22.8519 7.71383 20.893Z" fill="#2B3570"/>
<path d="M64.5162 33.4696C62.3801 32.9621 60.0404 32.8883 57.8517 32.8268C53.3611 32.701 48.8525 33.0049 44.3805 33.3862C36.074 34.0948 28.0863 35.7698 20.1592 38.3735C20.4592 38.8024 20.6578 39.3252 20.7433 39.8413C20.7467 39.8609 20.7463 39.8795 20.7471 39.8983C20.7508 39.9153 20.7559 39.9315 20.7578 39.9497C20.8137 40.4665 20.7673 40.9768 20.6289 41.4433C29.8006 38.5983 39.3427 37.2671 48.9077 36.688C53.2723 36.4239 57.7589 36.2463 62.1033 36.8572C63.5678 37.0633 65.0073 37.3536 66.3667 37.9508C66.6658 38.0823 66.9092 38.2382 67.1076 38.4141C67.5615 36.1532 67.1371 34.0923 64.5162 33.4696Z" fill="#2B3570"/>
<path d="M71.6598 46.7779C71.415 45.5263 69.7316 44.3319 68.8594 43.4804C67.8765 42.5208 66.8651 41.5304 65.7509 40.7206C65.0465 40.2086 63.8453 40.1108 63.0158 39.9705C59.3223 39.3448 55.4673 39.4691 51.7425 39.6361C44.1203 39.9774 36.4662 41.0236 28.9942 42.6329C26.7277 43.121 26.8256 43.2603 28.6512 44.0396C35.745 47.0684 43.0428 48.9743 50.7974 49.7264C54.9587 50.1301 59.163 50.2746 63.3392 50.0501C65.1441 49.953 66.9338 49.7393 68.698 49.3419C69.905 49.0702 72.0045 48.5391 71.6598 46.7779Z" fill="#2B3570"/>
<path d="M50.2655 52.6891C55.0925 53.195 59.9915 53.3577 64.8278 52.8868C67.3605 52.6401 70.2314 52.2601 72.4177 50.8557C73.1499 50.3854 73.4782 49.6586 73.5869 48.8323C73.7166 47.8467 73.2159 47.1525 72.5089 46.6482C72.5823 46.9471 72.5958 47.2534 72.519 47.5638C71.801 50.4654 67.0222 50.5587 64.6334 50.7734C51.1854 51.9814 37.515 49.2014 25.3761 43.4591C24.058 43.7812 22.7443 44.1327 21.4474 44.5354C30.5157 49.1556 40.1316 51.627 50.2655 52.6891Z" fill="#F8E66A"/>
<path d="M15.6124 48.3887C17.0444 48.7654 18.6761 48.7203 20.1462 48.7851C23.2033 48.9196 26.28 48.9724 29.3425 48.8528C26.2771 47.7319 23.2737 46.4187 20.3511 44.8897C19.7222 45.1015 19.0978 45.3267 18.4801 45.5685C17.5825 45.9199 14.9126 46.8224 14.9043 48.1096C15.1185 48.2247 15.3546 48.3208 15.6124 48.3887Z" fill="#2B3570"/>
<path d="M14.1817 47.5501C14.5567 46.5053 15.9638 45.8303 16.8388 45.401C19.4558 44.1168 22.3615 43.3733 25.1761 42.671C33.0695 40.7017 41.2281 39.5381 49.3377 38.9611C53.3816 38.6734 57.4772 38.5598 61.5177 38.9594C63.2297 39.1287 65.2551 39.2834 66.6469 40.3883C66.7823 40.4959 66.9123 40.6107 67.0455 40.7213C67.1116 39.6217 66.7329 38.9558 65.5395 38.4809C64.9493 38.2458 64.3256 38.0956 63.7076 37.9553C62.0489 37.5791 60.3331 37.4565 58.6387 37.3671C54.5683 37.1525 50.471 37.3725 46.4106 37.6702C37.5244 38.3216 28.6706 39.7246 20.1658 42.438C20.1511 42.4429 20.1376 42.444 20.1233 42.4471C19.6766 43.0276 19.0114 43.4233 18.1424 43.478C17.9335 43.491 17.7427 43.4693 17.5674 43.4203C17.5448 43.4339 17.5211 43.4465 17.4943 43.4567C16.535 43.8216 15.6397 44.2603 14.7642 44.7927C13.4778 45.5753 13.4566 46.7347 14.1817 47.5501Z" fill="#152065"/>
<path d="M19.9481 40.0046C19.804 39.1911 19.4216 38.2874 18.4804 38.2285C17.5426 38.1698 16.9983 39.1103 16.8265 39.8967C16.6225 40.8294 16.8467 42.35 17.9138 42.6445C18.5768 42.8276 19.292 42.3082 19.6285 41.7922C19.9691 41.27 20.007 40.607 19.9481 40.0046Z" fill="#2B3570"/>
<path d="M13.283 41.0327C13.4498 42.1631 13.6461 43.2888 13.8175 44.4183C14.6237 43.7147 15.7645 43.2459 16.7374 42.8757C16.1702 42.2175 15.9484 41.1538 15.9623 40.3571C15.9854 39.0515 16.7423 37.672 18.1177 37.4412C18.6823 37.3465 19.1648 37.4825 19.5585 37.7579C19.6009 37.7161 19.6544 37.6813 19.7224 37.6587C24.6468 36.0301 29.6949 34.6418 34.7968 33.6966C38.6602 32.9807 42.6342 32.6942 46.5463 32.3962C51.4625 32.0218 56.4712 31.7355 61.3893 32.2235C62.706 32.3542 64.5968 32.3702 65.9817 33.0079C66.0087 31.3487 66.0148 30.1968 64.2721 29.2672C62.1443 28.1321 59.4618 27.8509 57.1088 27.607C50.3101 26.9022 43.295 27.4265 36.5641 28.4883C30.2725 29.4809 23.8541 31.0625 18.0756 33.7935C16.3379 34.6146 14.2412 35.6542 13.1922 37.3431C12.5615 38.359 13.1278 39.98 13.283 41.0327Z" fill="#152065"/>
<path d="M13.0166 36.1398C12.5057 35.6086 12.2299 34.8411 12.1319 34.0916C11.785 34.5305 11.4815 35.0003 11.2674 35.5135C10.7925 36.6518 11.3274 37.5182 12.1201 38.2341C12.1296 38.0088 12.1542 37.7857 12.2093 37.5683C12.3428 37.0419 12.6368 36.5678 13.0166 36.1398Z" fill="#D9D9D9"/>
<path d="M3.57987 35.8755C3.65267 36.0113 3.72647 36.1469 3.80456 36.2806C5.71585 39.5603 9.30415 41.2719 12.7117 42.5905C12.6103 41.9611 12.5092 41.3316 12.416 40.7009C12.3534 40.2757 12.2628 39.8307 12.1966 39.383C11.1721 38.6292 10.2636 37.7186 10.2601 36.3747C10.2573 35.2606 10.9941 34.2393 11.6909 33.4145C10.5057 33.0517 9.30961 32.5637 8.54021 31.5483C7.4315 30.0851 6.89594 28.1555 6.5133 26.3547C5.45958 27.5513 4.49957 28.8365 3.7122 30.223C2.6856 32.0307 2.91879 33.9879 3.57987 35.8755Z" fill="#D9D9D9"/>
<path d="M2.37992 31.9491C2.6477 30.4662 3.37872 29.0787 4.46225 27.6016C6.81941 24.3878 9.89458 21.696 12.9831 19.2083C19.3621 14.0702 26.4588 10.3111 34.1768 7.5883C42.2537 4.73925 51.048 2.90966 59.596 4.42957C62.8292 5.00459 65.9824 6.22171 68.6182 8.19849C69.1947 8.63101 69.818 9.10477 70.4111 9.62445C69.5965 8.45737 68.6017 7.39836 67.4972 6.48437C59.8387 0.147028 47.7833 2.43482 39.0026 4.53143C29.5342 6.79211 20.4925 11.4685 12.8382 17.4531C10.1724 19.5373 7.68328 21.8763 5.55283 24.5094C4.66084 25.6121 3.86818 26.7929 3.20038 28.0437C2.52149 29.3153 2.28857 30.6389 2.37992 31.9491Z" fill="#D9D9D9"/>
<path d="M7.7925 24.9766C10.1638 22.5249 12.7831 20.3139 15.51 18.2696C22.1395 13.3 29.6036 9.75628 37.5232 7.34664C45.3637 4.96068 54.3367 3.37091 62.3493 5.94546C65.2846 6.88885 67.5405 8.3771 69.875 10.3358C73.6932 13.5394 72.2848 20.7422 70.2763 24.7664C69.2909 26.7413 68.0241 28.5702 66.4612 30.162C66.269 29.7679 65.9808 29.406 65.5413 29.0913C63.7005 27.7735 61.2375 27.3257 59.044 27.0255C51.5675 26.002 43.771 26.4792 36.347 27.7025C29.4783 28.8342 21.9814 30.4336 15.9083 34.0104C15.1246 34.4719 14.1271 35.0573 13.3528 35.7938C12.8146 35.238 12.5986 34.3227 12.5804 33.5647C12.8234 33.2969 13.076 33.0388 13.3289 32.7901C15.1939 30.9575 17.3505 29.6252 19.4082 28.0444C19.4519 28.0107 19.429 27.9337 19.3683 27.9502C17.7638 28.3854 16.278 29.3882 14.9679 30.3789C13.9333 31.1611 12.9255 32.0424 12.0519 33.0113C10.5339 32.5564 9.09602 31.919 8.37264 30.3839C7.89167 29.3636 7.52448 28.3118 7.23546 27.2331C6.9414 26.1346 7.0262 25.7679 7.7925 24.9766ZM41.7978 19.24C42.8916 19.6568 44.289 19.7755 45.2741 20.4187C46.1983 21.022 46.7485 21.9879 47.5527 22.7213C48.7606 23.8227 50.247 23.4618 51.6019 22.9054C51.6097 22.9022 51.6157 22.8975 51.6232 22.894C52.7914 23.6003 53.9455 24.332 55.0766 25.0972C56.0981 25.7889 56.3635 25.8342 57.0056 25.1743C57.7534 24.4057 58.4863 23.6213 59.2164 22.8365C60.1211 23.325 60.8437 23.2024 61.7897 22.6519C62.1689 22.4312 62.4029 21.9366 62.585 21.5663C63.0317 20.6566 63.6253 20.1986 64.5006 19.7375C66.6476 18.607 67.8397 16.2497 66.96 14.0057C66.6191 13.1356 65.9903 13.4034 65.6068 13.6675C63.4161 15.1763 58.8373 11.0234 57.734 14.7644C57.4245 14.555 57.0989 14.3675 56.7663 14.221C55.4669 13.6475 55.162 13.9694 54.2857 14.3076C53.6503 14.5529 52.9658 14.8726 52.3874 15.2539C52.464 13.4834 51.2518 11.9227 49.3472 11.5998C46.1891 11.0642 42.5345 14.6271 39.7782 12.1919C39.1462 11.6328 38.5758 11.8002 38.3661 12.6762C37.6726 15.5773 38.7676 18.0853 41.7978 19.24Z" fill="#EEEEEE"/>
<path d="M39.1375 12.9116C38.8184 14.1491 38.7896 15.3774 39.4838 16.5563C40.2572 17.8697 41.9348 18.4887 43.3086 18.8915C44.6615 19.2884 45.796 19.5834 46.7785 20.646C47.313 21.224 47.721 21.8454 48.3704 22.3153C49.2713 22.9672 50.2895 22.572 51.1831 22.2028C51.1196 21.0793 51.0367 19.9567 51.006 18.8317C51.0032 18.728 50.9982 18.6128 50.9928 18.4931C50.2517 18.7184 49.404 18.4913 48.9414 17.7946C48.5721 17.2388 48.4878 16.6656 48.3797 16.0156C48.1293 14.5122 47.0944 14.355 45.84 14.6204C43.5331 15.1082 40.4967 15.004 39.1375 12.9116Z" fill="#F8E66A"/>
<path d="M49.6466 12.4732C48.0004 11.9556 46.0607 12.9786 44.527 13.4764C43.0561 13.9536 41.4338 14.0121 40.103 13.3591C41.7217 14.8297 44.5899 14.2496 46.6504 13.9887C47.2434 13.9136 48.0105 14.0748 48.3543 14.6186C48.9849 15.6166 48.9719 18.9346 50.9748 17.9879C50.9624 17.4044 50.9928 16.7749 51.2323 16.3632C51.2774 16.2856 51.3298 16.2092 51.3872 16.1341C51.8981 14.6106 51.2785 12.9864 49.6466 12.4732Z" fill="#2B3570"/>
<path d="M58.4645 22.4482C58.5316 22.3764 58.5992 22.3049 58.666 22.233C58.719 21.2549 58.7853 20.2687 58.7811 19.2858C58.6653 19.2617 58.5488 19.2394 58.4308 19.2197C58.4562 20.2968 58.4992 21.3709 58.4645 22.4482Z" fill="#2B3570"/>
<path d="M57.5109 23.4664C57.6626 23.3055 57.813 23.1438 57.964 22.9824C57.963 22.9699 57.9581 22.9603 57.9589 22.9468C58.0341 21.678 57.9681 20.4163 57.9397 19.1494C57.7388 19.1254 57.536 19.1059 57.331 19.0922C57.4161 20.5475 57.4892 22.0085 57.5109 23.4664Z" fill="#2B3570"/>
<path d="M56.4558 24.5637C56.6522 24.3618 56.8487 24.1601 57.0432 23.9563C57.0386 23.9371 57.0311 23.9201 57.031 23.8978C57.0193 22.289 56.9361 20.6749 56.842 19.0681C56.6032 19.0609 56.3629 19.0606 56.1215 19.0647C56.3197 20.8879 56.4291 22.7295 56.4558 24.5637Z" fill="#2B3570"/>
<path d="M54.9686 24.048C55.3041 24.271 55.6375 24.4973 55.9692 24.7261C55.9469 22.8432 55.8365 20.9519 55.6337 19.0801C55.3441 19.0931 55.0547 19.113 54.7661 19.1386C54.8861 20.7733 54.9578 22.409 54.9686 24.048Z" fill="#2B3570"/>
<path d="M53.4178 23.0453C53.7719 23.2684 54.1243 23.4943 54.4749 23.7231C54.4576 22.209 54.3902 20.6978 54.2802 19.1874C53.9228 19.2272 53.5687 19.2743 53.2211 19.3277C53.2878 20.568 53.409 21.8019 53.4178 23.0453Z" fill="#2B3570"/>
<path d="M51.9948 22.1661C52.3049 22.3533 52.6143 22.5418 52.9224 22.7328C52.8976 21.6213 52.7986 20.516 52.7365 19.4059C52.4252 19.4588 52.12 19.5152 51.8238 19.5738C51.8633 20.4419 51.9424 21.3103 51.9948 22.1661Z" fill="#2B3570"/>
<path d="M55.6101 14.7206C54.6462 15.0009 52.0316 15.9965 51.8913 17.0875C51.8206 17.6367 51.8 18.1925 51.8033 18.7502C54.0011 18.3263 56.528 18.0362 58.7595 18.4498C58.7349 17.9931 58.6897 17.5378 58.6131 17.085C58.4268 15.9833 56.7226 14.823 55.6101 14.7206Z" fill="#F0CA26"/>
<path d="M63.9027 14.8053C62.1591 14.5398 59.0613 12.6923 58.4414 15.2988C58.6612 15.482 58.8675 15.6689 59.054 15.8503C59.4438 16.2296 59.4641 17.0548 59.5157 17.6269C60.3283 17.7945 60.1112 15.6906 60.3224 15.3765C60.5298 15.0682 60.8012 14.8122 61.2116 14.8824C62.0421 15.0242 62.7115 15.4766 63.5786 15.5054C64.4193 15.5333 65.3396 15.2337 65.7998 14.5559C65.2585 14.864 64.645 14.9182 63.9027 14.8053Z" fill="#2B3570"/>
<path d="M66.3025 14.6467C65.6651 15.817 64.0848 16.1433 62.7434 15.9075C62.2075 15.8132 60.808 14.7754 60.6725 16.0267C60.6176 16.534 60.7067 16.9147 60.517 17.4054C60.33 17.8885 59.9706 18.1358 59.5622 18.1178C59.6793 19.419 59.5679 20.7555 59.4915 22.0582C61.4165 23.172 62.0165 20.34 63.2862 19.4333C64.0096 18.9168 64.7834 18.7213 65.4557 18.0853C66.3787 17.2127 66.6199 15.8298 66.3025 14.6467Z" fill="#F8E66A"/>
<path d="M12.2098 37.5683C12.1547 37.7857 12.13 38.0088 12.1206 38.2341C11.9105 38.0444 11.7195 37.8438 11.5596 37.6306C11.564 37.5851 11.5675 37.5406 11.5754 37.4929C11.7073 36.7076 12.0658 36.0461 12.5459 35.4689C12.6733 35.7161 12.829 35.9441 13.0171 36.1398C12.6372 36.5678 12.3432 37.0419 12.2098 37.5683Z" fill="#152065"/>
<path d="M70.2765 24.7664C69.2911 26.7414 68.0243 28.5703 66.4614 30.1621C66.2692 29.7679 65.981 29.406 65.5415 29.0914C63.7007 27.7736 61.2377 27.3258 59.0442 27.0255C51.5677 26.002 43.7712 26.4793 36.3472 27.7026C29.4785 28.8343 21.9816 30.4336 15.9085 34.0104C15.1248 34.472 14.1273 35.0573 13.353 35.7938C13.161 35.5957 13.0118 35.3507 12.8961 35.0844C13.4584 34.5121 14.1134 33.9996 14.7866 33.5734C23.6204 27.9792 41.4052 25.5586 49.5871 25.678C52.2191 25.7165 58.7812 26.0194 62.9632 26.9676C66.8431 27.8475 68.8977 29.0713 72.0168 19.3978C71.6704 21.3792 71.0146 23.2875 70.2765 24.7664Z" fill="#152065"/>
<path d="M3.31627 27.8384C4.43692 26.0796 5.87521 24.5488 7.36699 23.1003C10.7207 19.8438 14.3537 17.0444 18.351 14.6211C31.6368 6.56599 52.5132 -1.76139 66.4368 6.79708C64.316 5.62891 61.9784 4.85329 59.5955 4.4295C51.0476 2.90959 42.2533 4.73918 34.1763 7.58822C26.4584 10.311 19.3615 14.0701 12.9826 19.2082C9.89419 21.6959 6.81901 24.3877 4.46177 27.6016C3.37824 29.0787 2.6473 30.4661 2.37944 31.949C2.28808 30.6389 2.52101 29.3154 3.1999 28.0437C3.23726 27.9743 3.27857 27.9075 3.31627 27.8384Z" fill="#D9D9D9"/>
<path d="M10.3978 40.8701C10.0091 39.7802 9.88899 38.2948 10.3764 37.1646C10.6517 38.0929 11.387 38.7873 12.1966 39.3831C12.2628 39.8308 12.3534 40.2759 12.416 40.7009C12.5091 41.3317 12.6102 41.9612 12.7117 42.5906C12.0785 42.3456 11.4392 42.0868 10.8055 41.8071C10.6522 41.5018 10.512 41.1901 10.3978 40.8701Z" fill="#152065"/>
<path d="M14.1815 47.5501C13.9184 47.2543 13.9612 46.6928 14.7987 46.05C17.3793 44.0684 29.4387 40.2809 43.4312 38.9179C51.9008 38.0928 63.3761 36.9457 66.6851 40.4203C66.6722 40.4098 66.6597 40.3987 66.6468 40.3883C65.255 39.2835 63.2296 39.1287 61.5176 38.9594C57.4771 38.5598 53.3814 38.6735 49.3375 38.9611C41.228 39.5381 33.0693 40.7017 25.176 42.671C22.3614 43.3732 19.4557 44.1168 16.8386 45.401C15.9637 45.8303 14.5565 46.5053 14.1815 47.5501Z" fill="#152065"/>
<path d="M15.1704 41.7077C15.3913 40.9027 15.2496 39.98 15.4413 39.1479C15.7934 37.6185 16.9217 36.671 18.4979 36.691C19.1572 36.6995 19.7536 36.8712 20.4197 36.7628C20.972 36.6729 21.5069 36.4957 22.0367 36.3211C23.2814 35.9111 24.5381 35.5339 25.7964 35.167C28.178 34.4726 30.6052 33.9682 33.0437 33.5195C40.1019 32.2202 47.257 31.517 54.4345 31.5575C57.0763 31.5724 59.7339 31.6773 62.3476 32.0843C63.1097 32.203 64.0825 32.3423 64.9475 32.658C63.7484 32.3594 62.4004 32.3239 61.3894 32.2236C56.4714 31.7355 51.4627 32.0219 46.5464 32.3963C42.6344 32.6943 38.6604 32.9808 34.7969 33.6967C29.695 34.6419 24.6468 36.0302 19.7225 37.6588C19.6545 37.6814 19.6011 37.7162 19.5587 37.758C19.165 37.4826 18.6824 37.3466 18.1179 37.4413C16.7425 37.6721 15.9856 39.0516 15.9625 40.3572C15.9486 41.1539 16.1704 42.2176 16.7375 42.8758C15.7646 43.246 14.6238 43.7148 13.8177 44.4184C13.7507 43.9766 13.6786 43.5354 13.6073 43.0941C14.3235 42.8576 14.9467 42.5225 15.1704 41.7077Z" fill="#152065"/>
<path d="M72.4178 50.8556C70.2315 52.2602 67.3606 52.6401 64.8279 52.8868C59.9917 53.3576 55.0927 53.195 50.2656 52.6891C40.1317 51.6271 30.5159 49.1556 21.4474 44.5354C22.1046 44.3315 22.7661 44.1409 23.4303 43.9601C25.7308 45.5772 28.5247 46.9268 31.4639 48.0391C36.2119 49.8358 42.0649 51.0336 47.7535 51.7554C55.0076 52.6757 68.894 53.8222 73.1677 50.0875C72.9856 50.3843 72.7435 50.6464 72.4178 50.8556Z" fill="#F0CA26"/>
<path d="M15.5102 18.2696C22.1397 13.3 29.6038 9.75628 37.5234 7.34664C45.3639 4.96068 54.3369 3.37091 62.3495 5.94546C65.2848 6.88885 67.5407 8.3771 69.8753 10.3358C71.2857 11.519 71.9813 13.2486 72.1985 15.1614C70.4107 9.62437 65.5647 7.72122 61.6541 6.53584C54.2155 4.28121 44.7834 6.13062 37.4755 8.27676C29.4075 10.646 23.5661 13.4928 7.30333 27.467C7.28142 27.3889 7.25682 27.3116 7.23583 27.2331C6.9416 26.1345 7.02641 25.7678 7.7927 24.9765C10.164 22.5249 12.7833 20.3139 15.5102 18.2696Z" fill="#A0A0A0"/>
<path d="M13.1921 37.3432C14.2412 35.6544 16.3378 34.6148 18.0755 33.7937C23.8539 31.0627 30.2724 29.4812 36.564 28.4885C43.2949 27.4267 50.31 26.9024 57.1087 27.6072C59.4616 27.8511 62.1442 28.1323 64.272 29.2673C64.9589 29.6339 65.3715 30.0357 65.6208 30.4887C62.5892 28.8193 58.9755 28.4097 55.548 28.2652C50.7599 28.0634 45.9411 28.3108 41.1866 28.8871C36.0454 29.5102 30.3963 30.1449 25.4134 31.556C23.0615 32.2219 13.3531 35.7939 12.9775 39.4219C12.8611 38.6767 12.8375 37.9143 13.1921 37.3432Z" fill="#2B3570"/>
<path d="M4.60528 37.4497C4.31433 37.0833 4.04605 36.6947 3.80481 36.2806C3.72671 36.1469 3.65291 36.0113 3.58011 35.8755C2.91903 33.9879 2.68585 32.0307 3.71244 30.2231C4.49981 28.8366 5.45991 27.5514 6.51354 26.3549C6.62438 26.8768 6.751 27.409 6.89795 27.9381C6.71775 28.1472 6.53286 28.3529 6.3577 28.5653C4.23809 31.1315 3.01282 34.0582 4.60528 37.4497Z" fill="#A0A0A0"/>
<path d="M26.4478 43.9558C38.3168 49.3603 51.58 51.9461 64.6341 50.7734C66.6939 50.5882 70.5286 50.4917 72.0068 48.6087C71.306 49.7646 69.6684 50.4901 68.275 50.8433C66.7419 51.232 65.1614 51.3417 63.5879 51.4201C60.9878 51.55 42.2031 52.9392 26.4478 43.9558Z" fill="#A0A0A0"/>
<path d="M16.8265 39.8967C16.8648 39.7213 16.9227 39.5385 16.9983 39.3604C16.6272 42.7856 19.7169 42.8702 19.8877 39.7198C19.9112 39.815 19.9314 39.9103 19.9481 40.0046C20.007 40.607 19.9691 41.27 19.6285 41.7921C19.292 42.3082 18.5769 42.8275 17.9138 42.6444C16.8467 42.35 16.6225 40.8294 16.8265 39.8967Z" fill="#2B3570"/>
<path d="M28.9943 42.633C31.3405 42.1276 33.7062 41.685 36.0819 41.2951C29.7059 42.682 30.8146 44.8455 42.8003 47.5501C47.9007 48.7008 54.5727 49.324 59.8069 49.2988C65.8061 49.2697 72.684 48.9193 70.2409 44.7329C70.9041 45.3598 71.5194 46.0591 71.6598 46.7778C72.0044 48.5391 69.905 49.0701 68.6982 49.3419C66.9339 49.7392 65.1443 49.9529 63.3394 50.0501C59.1632 50.2746 54.9588 50.13 50.7976 49.7264C43.0429 48.9743 35.7452 47.0684 28.6513 44.0396C26.8257 43.2604 26.7278 43.121 28.9943 42.633Z" fill="#2B3570"/>
<path d="M53.2206 19.3277C53.3388 19.3096 53.461 19.2968 53.5806 19.2802C53.7559 20.1923 53.7985 21.1587 53.8506 22.0356C53.8759 22.4644 53.9116 22.9174 53.9395 23.3801C53.7655 23.2686 53.5922 23.1557 53.4173 23.0454C53.4084 21.802 53.2873 20.568 53.2206 19.3277Z" fill="#2B3570"/>
<path d="M56.1209 19.0648C56.2397 19.0627 56.3572 19.066 56.4753 19.0665C56.5046 19.2413 56.5239 19.4205 56.5452 19.6001C56.647 20.4607 56.6869 21.3231 56.7078 22.189C56.7243 22.882 56.7386 23.5741 56.7424 24.2667C56.6465 24.3656 56.5512 24.4648 56.4552 24.5637C56.4285 22.7295 56.319 20.8879 56.1209 19.0648Z" fill="#2B3570"/>
<path d="M51.824 19.5738C51.9109 19.5565 52.0034 19.5413 52.0919 19.5246C52.2189 20.2495 52.2537 20.9796 52.2889 21.7691C52.2976 21.9653 52.3062 22.1629 52.314 22.3609C52.2075 22.2963 52.1017 22.2304 51.995 22.1661C51.9426 21.3103 51.8635 20.4419 51.824 19.5738Z" fill="#2B3570"/>
<path d="M54.7662 19.1386C54.8629 19.1299 54.9602 19.1263 55.0572 19.1191C55.0896 19.4057 55.1047 19.6963 55.137 19.975C55.2322 20.7926 55.3034 21.6149 55.356 22.4365C55.3963 23.0678 55.4356 23.7175 55.4404 24.3677C55.2832 24.2612 55.1269 24.153 54.9686 24.0479C54.9578 22.4089 54.8862 20.7733 54.7662 19.1386Z" fill="#2B3570"/>
<path d="M20.7721 40.5569C21.7466 40.3793 22.7551 39.9877 23.6855 39.7391C24.9885 39.3908 26.2913 39.0423 27.5972 38.7054C30.103 38.0591 32.6244 37.4704 35.1751 37.0292C40.3223 36.1385 45.6195 35.7339 50.834 35.5065C54.149 35.3618 57.5026 35.3294 60.816 35.5734C62.8816 35.7255 65.5682 35.8983 67.2542 37.2797C67.2346 37.6482 67.1851 38.0276 67.1075 38.414C66.9091 38.2381 66.6658 38.0823 66.3666 37.9507C65.0072 37.3535 63.5678 37.0632 62.1033 36.8571C57.7588 36.2463 53.2722 36.4238 48.9077 36.6879C39.3427 37.267 29.8006 38.5982 20.6288 41.4432C20.7124 41.1615 20.758 40.8627 20.7721 40.5569Z" fill="#2B3570"/>
<path d="M61.2117 14.8825C60.8013 14.8123 60.5299 15.0683 60.3225 15.3766C60.1112 15.6906 60.3284 17.7946 59.5158 17.627C59.4791 17.2207 59.4558 16.6893 59.3072 16.2781C59.4369 15.9831 59.4861 15.6058 59.5673 15.3417C59.6772 14.9843 59.9165 14.517 60.3182 14.4208C60.7936 14.307 61.2474 14.482 61.6834 14.6666C62.2475 14.9054 62.8129 15.1224 63.4035 15.2863C63.687 15.3649 63.9758 15.4049 64.2625 15.4543C64.0357 15.495 63.8046 15.5131 63.5788 15.5056C62.7116 15.4767 62.0422 15.0243 61.2117 14.8825Z" fill="#2B3570"/>
<path d="M48.3545 14.6186C48.0106 14.0748 47.2436 13.9136 46.6505 13.9887C45.2187 14.1699 43.398 14.5037 41.8763 14.1981C42.2 14.1876 42.5224 14.1714 42.84 14.1439C44.1873 14.0272 45.4422 13.5601 46.7717 13.3889C47.7873 13.2578 48.6767 13.427 49.3306 14.2599C49.8711 14.9485 50.2988 16.3014 51.1357 16.575C50.9861 16.9739 50.9645 17.4964 50.975 17.9879C48.9721 18.9346 48.985 15.6166 48.3545 14.6186Z" fill="#2B3570"/>
<path d="M57.3319 19.0923C57.4231 19.0983 57.5122 19.1095 57.6025 19.1177C57.7743 20.1216 57.6486 21.2731 57.6651 22.2355C57.6709 22.5838 57.6776 22.9363 57.6774 23.2895C57.6222 23.3486 57.5672 23.4077 57.5117 23.4664C57.49 22.0085 57.417 20.5476 57.3319 19.0923Z" fill="#2B3570"/>
<path d="M58.4647 22.4482C58.4994 21.3709 58.4564 20.2968 58.4312 19.2197C58.4713 19.2264 58.5104 19.235 58.5502 19.2422C58.673 19.9474 58.608 20.6918 58.6141 21.403C58.6163 21.6774 58.631 21.9691 58.6372 22.264C58.5799 22.3257 58.522 22.3868 58.4647 22.4482Z" fill="#2B3570"/>
<path d="M57.8524 47.1717C55.2984 47.0086 52.7449 46.898 50.2027 46.5861C48.1402 46.333 46.0886 45.9221 44.0514 45.5137C42.4855 45.2 40.6622 44.8766 39.2677 44.0426C38.4689 43.5651 38.9756 42.9724 39.6368 42.7477C40.4314 42.4775 41.3109 42.4042 42.1387 42.3002C43.4526 42.1348 44.7699 41.9922 46.0874 41.8564C50.5774 41.3935 55.1018 41.0678 59.6186 41.1525C63.5594 41.226 64.1035 40.9204 66.4497 43.3642C66.9272 43.8617 67.4101 44.3787 67.6677 45.0279C68.2818 46.5753 65.6132 46.9528 64.7135 47.1039C62.4473 47.4843 60.1314 47.3174 57.8524 47.1717Z" fill="#2B3570"/>
<path d="M57.8518 32.8268C60.0405 32.8883 62.3802 32.9621 64.5163 33.4696C65.4611 33.694 66.1169 34.1076 66.5525 34.6479C58.128 31.5751 34.1071 34.3027 21.2476 38.024C28.818 35.6207 36.4541 34.0623 44.3806 33.3862C48.8526 33.0049 53.3612 32.701 57.8518 32.8268Z" fill="#2B3570"/>
<path d="M23.7939 47.8837C22.186 47.7472 20.5765 47.5812 19.01 47.1793C18.3696 47.015 17.5603 46.6933 16.8185 46.2537C17.4668 45.9433 18.1176 45.7102 18.4799 45.5684C19.0976 45.3266 19.722 45.1014 20.3509 44.8896C22.5716 46.0514 24.8393 47.088 27.145 48.0111C26.024 48.0597 24.8877 47.9767 23.7939 47.8837Z" fill="#2B3570"/>
<path d="M60.5686 21.2316C61.2762 21.0901 61.2718 19.9248 61.3548 19.3878C61.4279 18.9146 61.632 18.5363 61.9536 18.1895C62.5641 17.5308 63.6237 17.4982 64.4442 17.3634C65.2453 17.2319 65.9017 16.9216 66.236 16.1275C66.3352 15.8918 66.3759 15.6409 66.4198 15.3917C66.4866 16.3744 66.1901 17.3911 65.4558 18.0853C64.7835 18.7212 64.0098 18.9167 63.2864 19.4333C62.0166 20.34 61.4166 23.1719 59.4917 22.0582C59.5128 21.6982 59.5362 21.3358 59.5571 20.9719C59.8972 21.1762 60.2463 21.296 60.5686 21.2316Z" fill="#F0CA26"/>
<path d="M39.4834 16.5563C38.8393 15.4623 38.8214 14.3255 39.0763 13.1786C39.1474 13.6778 39.1496 14.1947 39.2513 14.687C39.4208 15.5061 39.9801 16.239 40.6442 16.7217C41.9735 17.6888 43.5466 17.3172 45.0579 17.4263C46.3838 17.5218 47.1932 18.4986 47.8969 19.5116C48.3341 20.1406 48.8682 20.9247 49.7022 20.9836C50.2153 21.02 50.6716 20.746 51.0758 20.403C51.1098 21.0031 51.1488 21.6027 51.1826 22.2027C50.289 22.5719 49.2707 22.9671 48.3699 22.3153C47.7205 21.8453 47.3125 21.2239 46.778 20.646C45.7955 19.5834 44.6611 19.2884 43.3082 18.8914C41.9344 18.4887 40.2567 17.8697 39.4834 16.5563Z" fill="#F0CA26"/>
<path d="M51.8033 18.7502C51.8017 18.4966 51.8062 18.244 51.817 17.9916C52.9788 17.3652 54.3855 17.2161 55.6784 17.238C56.6635 17.2549 57.764 17.3435 58.7023 17.7396C58.7275 17.9758 58.7468 18.2127 58.7595 18.4499C56.5279 18.0362 54.0011 18.3263 51.8033 18.7502Z" fill="#F8E66A"/>
<path d="M17.4524 18.91C14.2193 21.2383 11.178 23.8405 8.23389 26.5227C8.17394 26.5774 8.09358 26.4951 8.14572 26.4345C10.72 23.4348 13.7921 20.9473 16.9859 18.6354C20.9074 15.7962 25.1754 13.0596 29.6983 11.2911C29.7299 11.2789 29.7486 11.3282 29.7209 11.3448C25.5786 13.813 21.3751 16.0853 17.4524 18.91Z" fill="#2B3570"/>
<path d="M43.8339 47.8846C41.3951 47.3756 38.9281 46.7984 36.6342 45.8123C36.5769 45.7877 36.62 45.706 36.6744 45.7169C39.0271 46.1872 41.3243 46.8966 43.6681 47.4119C45.8798 47.898 48.1172 48.2565 50.3581 48.573C50.3818 48.5762 50.3745 48.6119 50.3527 48.6129C48.1643 48.7142 45.9709 48.3304 43.8339 47.8846Z" fill="#2B3570"/>
<path d="M35.5488 45.498C35.3381 45.4134 35.2293 45.3196 35.1083 45.1332C35.0891 45.1042 35.1204 45.0767 35.1485 45.0808C35.2456 45.0952 35.3362 45.0919 35.4301 45.1222C35.5337 45.1558 35.632 45.2054 35.7308 45.2507C35.9097 45.3324 36.0553 45.4456 36.1904 45.5852C36.2052 45.6007 36.1958 45.6335 36.1715 45.6309C35.9555 45.6085 35.7527 45.5798 35.5488 45.498Z" fill="#2B3570"/>
</svg>
