<svg width="74" height="56" viewBox="0 0 74 56" fill="none" xmlns="http://www.w3.org/2000/svg">
<path d="M3.01934 31.082C3.01675 31.0467 3.01422 31.0113 3.01196 30.976C2.89558 29.0836 3.34792 27.1917 3.74712 25.5226C3.81157 25.252 3.87575 24.984 3.93691 24.7188C4.03407 24.296 4.1236 23.8731 4.21288 23.451C4.5239 21.9824 4.8456 20.4637 5.47681 18.9631C5.72029 18.3846 6.02512 17.8271 6.38565 17.3001C6.61261 13.4052 9.03341 9.91677 12.6721 8.31127C12.7242 8.28836 12.7768 8.26604 12.8294 8.24431C14.0106 6.8693 15.4858 5.71612 17.2242 4.8092C19.9595 1.61783 23.7288 0 28.4329 0C31.0291 0 33.8693 0.502165 36.8793 1.49299C36.881 1.49299 36.8828 1.49299 36.8841 1.49299C43.5776 1.6154 50.7206 4.97105 55.9911 10.4697C60.2481 14.9106 62.709 20.9612 63.3106 28.4628C65.5478 29.528 67.7757 31.0428 70.25 33.1744C71.5902 34.3289 74.7286 37.0322 73.8459 41.0772C73.1617 44.212 70.0824 46.3119 68.0449 47.7014C64.5763 50.067 60.8129 51.8982 57.589 53.3774C54.2317 54.918 51.4692 55.8731 48.0764 55.8731C47.9289 55.8731 47.7808 55.871 47.6311 55.8672C44.1598 55.7784 40.7849 54.8047 37.5212 53.863L36.4401 53.5525C28.4468 51.2756 20.5056 48.3065 13.7264 45.6639C13.36 45.7645 12.9917 45.814 12.6137 45.814C11.7141 45.814 10.9122 45.5278 10.1017 45.2088C9.96566 45.1555 9.82143 45.1034 9.67359 45.0499C8.58821 44.6563 6.9557 44.0644 6.39841 42.3679C6.31962 42.3314 6.24041 42.295 6.16129 42.2584C3.94354 41.2377 1.43021 40.0806 0.332069 37.3028C-0.136452 36.1178 -0.108757 34.8941 0.412369 33.7637C0.903542 32.6986 1.83764 31.7501 3.01934 31.082Z" fill="white"/>
<path d="M4.8539 32.0519C4.74969 31.6842 4.67786 31.2945 4.65202 30.875C4.53338 28.9475 5.11055 26.9452 5.53812 25.0872C5.96536 23.2305 6.24754 21.3683 6.99152 19.6002C7.26093 18.9599 7.60754 18.3808 8.01145 17.8569C8.02898 14.3797 10.1251 11.231 13.3359 9.81424C13.4957 9.74368 13.6591 9.68176 13.8223 9.62009C15.0024 8.14842 16.5493 6.972 18.2783 6.11626C18.2871 6.10368 18.2934 6.09067 18.3036 6.07851C22.8452 0.5604 30.1911 0.953238 36.6887 3.16142C36.7384 3.14523 36.7922 3.13449 36.8542 3.13549C43.5351 3.25757 50.2469 6.85101 54.8051 11.6065C59.3595 16.3574 61.2932 22.7561 61.717 29.1955C61.7569 29.3293 61.7947 29.4637 61.8334 29.598C64.5415 30.7528 66.9568 32.5056 69.1779 34.4192C71.1178 36.0903 72.832 38.0179 72.2409 40.7267C71.7006 43.2023 69.065 45.0171 67.1191 46.3441C63.9208 48.5254 60.4156 50.273 56.904 51.8842C53.8487 53.2861 51.0792 54.3122 47.6734 54.2248C44.0354 54.1316 40.3614 52.9609 36.8904 51.9723C29.0767 49.7465 21.3195 46.8674 13.7527 43.9103C12.6787 44.3993 11.8456 44.1292 10.7033 43.68C9.70253 43.2862 8.29488 42.9524 7.94776 41.818C7.89633 41.6505 7.88055 41.4548 7.8793 41.2496C5.57915 40.1296 2.86277 39.2353 1.85995 36.6986C0.976189 34.4634 2.96455 32.6999 4.8539 32.0519Z" fill="#68182B"/>
<path d="M9.07111 16.726C10.6294 15.3495 12.6875 14.5445 14.818 14.2893C19.682 13.7063 24.1389 15.7219 28.0341 18.4519C31.2587 20.7122 33.4744 23.7669 35.1764 27.292C36.0503 29.1014 38.7518 28.554 40.1296 27.769C42.4196 26.4648 39.2187 22.6321 38.2535 21.158C33.7036 14.2105 24.5139 8.86776 16.0193 10.0649C12.4456 10.5688 9.60566 13.2618 9.07111 16.726Z" fill="#FAC135"/>
<path d="M15.5474 9.13648C18.3938 8.58465 21.5319 9.0723 24.2003 9.89313C27.71 10.9729 31.0356 12.5787 33.9139 14.8695C37.4164 17.6571 39.8754 21.5417 41.8172 25.5163C42.9848 27.9052 39.7886 29.2189 37.9858 29.4322C36.8203 29.5701 35.6372 29.2306 34.7852 28.4267C34.1216 27.8003 33.818 26.7059 33.3942 25.9216C32.7037 24.6429 31.8697 23.4444 30.9377 22.3311C25.7416 16.1267 11.1036 10.4327 7.48266 21.0161C6.59772 23.6018 6.03708 26.601 5.69265 29.305C5.43817 31.3023 5.71724 32.9107 7.40446 34.1246C8.4916 34.9064 9.73657 35.5587 10.9935 36.0612C11.0478 34.8393 11.0226 33.4565 11.547 32.4041C12.0415 31.4126 13.4392 31.8534 14.2046 32.1235C15.3028 32.5114 17.0744 32.7934 17.7114 33.8889C17.9675 34.3293 17.88 34.9507 17.84 35.4266C17.7443 36.5733 17.6229 37.718 17.5152 38.8635C22.4317 40.97 27.8492 42.1133 33.2077 41.8316C37.7501 41.5927 42.096 39.9215 46.6789 40.763C46.9942 40.8209 47.2988 40.8958 47.6 40.9752C49.3029 41.4241 49.7558 41.2927 49.7145 39.4564C49.627 35.5654 49.3717 31.675 48.8356 27.8208C48.1599 22.963 46.8583 18.9685 43.6852 15.1536C40.0754 10.8135 35.1394 7.93422 29.819 6.20597C22.862 3.94577 17.4593 7.27507 15.5474 9.13648Z" fill="#FAC135"/>
<path d="M54.1221 12.2896C50.5402 8.40023 45.24 5.34798 39.8753 4.40741C41.4829 5.11883 42.9901 5.90804 44.3285 6.70135C51.3798 10.8818 56.8626 17.2598 60.1088 24.7627C60.1557 24.8706 60.198 24.9805 60.2438 25.0888C59.3735 20.3531 57.4819 15.9378 54.1221 12.2896Z" fill="#FAC135"/>
<path d="M68.4948 35.1023C67.0453 33.8053 65.4444 32.6116 63.7373 31.6303C62.215 30.7554 62.2218 30.9187 62.5761 32.5442C62.681 33.0257 62.7783 33.5091 62.8677 33.9939C63.1451 35.5017 62.9289 36.3882 61.703 37.3618C59.8179 38.8587 57.4778 39.9175 55.2692 40.836C53.6021 41.5293 51.9437 42.321 50.1211 42.4342C49.0488 42.5008 47.9915 42.1425 46.9862 41.8316C45.5115 41.3754 43.9041 41.4219 42.3829 41.5189C39.8897 41.6775 37.4488 42.2996 34.975 42.6122C32.3233 42.9474 29.6497 42.8729 27.0033 42.4982C24.0931 42.0862 21.289 41.3583 18.563 40.319C17.044 39.74 16.1998 39.3535 15.0225 40.376C14.9085 40.4749 14.8033 40.5868 14.7091 40.7135C14.0795 41.5601 15.1278 42.0631 16.1227 42.4248C20.5452 44.0325 24.989 45.5811 29.4496 47.0795C34.1371 48.6542 38.8638 50.3995 43.7587 51.1948C46.7039 51.6735 49.8398 51.7371 52.7374 50.9622C55.3935 50.2517 57.8171 48.6515 60.2768 47.4619C62.6354 46.321 64.8396 44.8763 66.9798 43.3731C71.4458 40.236 71.945 38.1884 68.4948 35.1023Z" fill="#FAC135"/>
<path d="M14.23 43.0625C20.4013 45.4665 26.6963 47.6975 32.9878 49.7606C39.0114 51.7358 46.3444 54.5403 52.6764 52.6417C55.9179 51.6699 59.1311 49.8309 62.0975 48.2298C64.7231 46.8125 67.4015 45.2557 69.5598 43.1738C70.5964 42.174 71.4078 40.9139 71.4127 39.4758C70.4819 42.2909 66.2036 44.6568 64.3117 45.8573C61.8614 47.4119 59.2138 48.6325 56.6369 49.9581C53.9738 51.3281 51.3223 52.037 48.3256 52.1126C42.5487 52.2578 36.9618 50.1735 31.5569 48.3912C25.7444 46.4748 19.9645 44.4558 14.2199 42.3441C14.2103 42.5863 14.2159 42.8278 14.23 43.0625Z" fill="#FBF199"/>
<path d="M10.3507 42.4941C11.2563 42.8928 12.2889 43.4454 13.2651 43.0743C13.2013 42.0073 13.3296 40.8483 14.0449 40.0011C14.6937 39.2326 15.5987 38.9012 16.5581 38.7607C16.6615 37.6491 16.7705 36.5381 16.8741 35.4267C16.9182 34.9557 17.0483 34.392 16.5929 34.0611C16.1816 33.7621 15.5213 33.6298 15.0467 33.4559C14.4489 33.2373 12.5822 32.2343 12.2783 33.1463C11.9168 34.2321 12.0239 35.6191 11.9152 36.7524C11.9139 36.7659 11.9098 36.7774 11.9078 36.7901C11.914 36.9413 11.8523 37.0855 11.7066 37.1651C11.6361 37.221 11.5475 37.2521 11.4439 37.2459C9.64032 37.6429 9.29238 39.2392 8.95139 40.8459C8.9409 40.8949 8.9352 40.94 8.92865 40.9855C8.92689 41.0078 8.92404 41.03 8.91901 41.0521C8.82445 41.9755 9.58478 42.1566 10.3507 42.4941Z" fill="#FF801D"/>
<path d="M8.57699 38.5134C8.92619 37.7346 9.41585 37.1375 10.0706 36.7446C8.04688 35.9133 6.12137 34.7831 5.20346 32.945C5.1866 32.9525 4.05784 33.4523 3.66072 33.8056C2.15918 35.1415 2.61763 35.7195 4.23756 36.943C5.44905 37.8579 7.11538 38.4094 8.37016 39.0212C8.44098 38.8349 8.51154 38.6593 8.57699 38.5134Z" fill="#FAC135"/>
<path d="M3.57753 37.7334C4.62239 38.9017 6.49009 39.5708 7.99826 40.2476C8.04911 40.0182 8.11035 39.7914 8.17932 39.5713C6.41541 38.6839 3.9702 37.956 2.77373 36.2766C2.88365 36.7544 3.14257 37.2473 3.57753 37.7334Z" fill="#FBF199"/>
<path d="M33.0698 3.11227C37.9768 4.08732 42.7172 6.49343 46.7371 9.45071C50.5928 12.2874 53.881 15.8023 56.4222 19.8078C57.9469 22.2111 60.8109 27.344 61.9362 34.2507C62.1958 35.8447 61.3237 36.5369 60.0451 37.325C57.7376 38.7474 55.276 39.8539 52.7434 40.812C52.0861 41.0606 51.4131 41.3328 50.7113 41.43C50.6673 36.0971 50.4094 30.6842 49.4228 25.4356C48.4758 20.3981 46.442 16.2973 42.7151 12.687C38.525 8.62836 32.5295 5.07604 26.6133 4.52664C24.6545 4.34457 22.582 4.57866 20.6183 5.18428C24.0478 2.5106 28.8175 2.26719 33.0698 3.11227ZM53.157 35.432C54.2404 37.3847 56.6417 38.1665 58.5453 36.8565C61.0232 35.1513 60.2419 31.2123 59.0828 28.9896C58.13 27.3618 55.5789 24.3321 53.5752 26.5201C51.6035 28.6737 51.8146 33.0128 53.157 35.432Z" fill="#FAC135"/>
<path d="M53.8393 27.7621C52.6063 29.7326 53.0891 32.9518 53.9911 34.9445C54.4518 35.9628 55.4519 36.5322 56.4677 36.5342C55.1247 35.3868 54.676 33.2174 54.5155 31.5836C54.3738 30.1367 54.2997 27.9959 55.3489 26.815C54.8248 26.7675 54.3032 27.0204 53.8393 27.7621Z" fill="#FF801D"/>
<path d="M58.2486 29.4772C58.025 29.095 57.721 28.6374 57.3673 28.21C56.2776 26.8923 55.3064 27.1554 55.0826 28.9627C54.9697 29.8745 55.0508 30.8681 55.0954 31.5836C55.1612 32.6404 55.4188 33.9729 56.0052 35.023C56.8355 36.5081 58.1187 36.6651 58.9061 34.9562C59.6661 33.3063 58.9864 30.8913 58.2486 29.4772Z" fill="#FF801D"/>
<path d="M5.47668 36.568C6.54696 37.1466 7.63478 37.692 8.73022 38.2213C8.67879 38.3183 8.62325 38.41 8.57685 38.5135C8.51149 38.6593 8.44084 38.8349 8.37002 39.0213C7.11524 38.4094 5.44891 37.858 4.23742 36.9431C2.92525 35.9519 2.37576 35.3843 3.01226 34.4943C3.15926 35.5641 4.62187 36.1062 5.47668 36.568Z" fill="#EE9E2B"/>
<path d="M38.2535 21.1582C39.2187 22.6323 42.4196 26.4649 40.1296 27.7692C38.7518 28.554 36.0503 29.1016 35.1764 27.2921C35.1705 27.28 35.1646 27.2684 35.1587 27.2562C35.4622 27.4471 35.786 27.6045 36.1559 27.6885C36.9645 27.8723 37.9438 27.7247 38.6836 27.3692C40.6578 26.421 39.2206 24.0313 38.4703 22.7367C36.5979 19.5063 33.9352 16.7534 30.9694 14.5073C25.7602 10.5624 18.8281 9.60032 12.6043 11.3446C13.6087 10.6916 14.7673 10.2414 16.0193 10.0651C24.5139 8.86784 33.7036 14.2107 38.2535 21.1582Z" fill="#EE9E2B"/>
<path d="M6.52401 26.703C6.38456 28.0265 6.29965 29.3723 6.58233 30.6827C6.87683 32.0478 7.83585 32.9592 8.96964 33.6829C9.32087 33.9071 9.68854 34.1039 10.0609 34.2924C10.1522 33.6532 10.3729 32.9915 10.5378 32.5125C10.8818 31.5131 11.779 31.2531 12.7483 31.3667C13.9207 31.5044 15.1712 32.0753 16.2674 32.5127C16.843 32.7421 17.5502 33.1543 17.6425 33.7868C16.9566 32.7774 15.2671 32.4989 14.2047 32.1237C13.4392 31.8535 12.0415 31.4127 11.5471 32.4043C11.0227 33.4567 11.0479 34.8394 10.9935 36.0613C9.73661 35.5589 8.49164 34.9066 7.4045 34.1248C5.71728 32.9108 5.43813 31.3024 5.6927 29.3051C5.9533 27.2602 6.33817 25.0469 6.8926 22.9707C6.77724 24.2163 6.65448 25.4612 6.52401 26.703Z" fill="#EE9E2B"/>
<path d="M29.4497 47.0795C24.989 45.5812 20.5452 44.0325 16.1227 42.4249C15.1798 42.082 14.1913 41.6117 14.6267 40.8426C19.3109 42.7575 24.1316 44.3373 28.9468 45.8858C33.8348 47.4574 38.786 48.9314 43.8448 49.8455C46.2908 50.2875 48.7971 50.6101 51.2715 50.2201C53.6149 49.8508 55.7584 48.7661 57.8026 47.6131C59.6289 46.5834 61.4129 45.4802 63.2412 44.4532C64.6363 43.6697 66.0006 42.8248 67.2506 41.8226C68.5122 40.8111 69.6931 39.5732 70.2616 38.0337C70.3366 37.8309 70.3876 37.629 70.4283 37.4272C71.3796 39.3795 70.2342 41.0873 66.9798 43.3731C64.8396 44.8762 62.6355 46.321 60.2768 47.4619C57.8171 48.6515 55.3935 50.2516 52.7375 50.9622C49.8398 51.737 46.7039 51.6735 43.7587 51.1948C38.8638 50.3995 34.1371 48.6542 29.4497 47.0795Z" fill="#EE9E2B"/>
<path d="M33.5981 40.3406C36.7029 40.1096 39.745 39.4344 42.8639 39.2832C44.1211 39.2224 45.4115 39.1857 46.6594 39.3719C47.4776 39.4942 48.2219 39.6006 48.5659 38.6498C48.8193 37.9488 48.8082 37.1503 48.8134 36.4147C48.8352 33.468 48.7159 30.5196 48.4941 27.5818C48.4304 26.7371 48.3997 25.8757 48.346 25.0171C48.5401 25.9214 48.701 26.8535 48.8356 27.821C49.3717 31.6752 49.627 35.5655 49.7145 39.4566C49.7558 41.2929 49.3029 41.4242 47.6 40.9754C47.2988 40.896 46.9942 40.821 46.6789 40.7631C42.096 39.9218 37.7501 41.593 33.2077 41.8318C27.8492 42.1135 22.4316 40.9701 17.5152 38.8637C17.5554 38.437 17.5976 38.0103 17.6396 37.5834C19.866 38.3407 22.1512 38.926 24.453 39.4001C27.4546 40.0182 30.5228 40.5692 33.5981 40.3406Z" fill="#EE9E2B"/>
<path d="M60.1088 24.7627C56.9908 17.5563 51.8054 11.3934 45.1526 7.213C46.9893 7.96193 48.6459 9.25539 50.171 10.4592C52.2271 12.0824 54.1463 13.8883 55.8597 15.8703C56.9459 17.1268 57.9271 18.4678 58.7945 19.8803C59.4395 21.5545 59.915 23.2986 60.2439 25.0888C60.1982 24.9804 60.1557 24.8707 60.1088 24.7627Z" fill="#EE9E2B"/>
<path d="M60.045 37.3249C57.7375 38.7474 55.2759 39.8538 52.7433 40.8119C52.086 41.0605 51.413 41.3328 50.7112 41.4299C50.6969 39.7046 50.656 37.9708 50.5796 36.2371C50.6828 36.8216 50.8025 37.4025 50.9618 37.9706C51.1826 38.7579 51.5426 39.733 52.4659 39.8295C53.2392 39.9103 54.0674 39.559 54.7884 39.3161C56.4267 38.764 57.9918 38.1519 59.4563 37.2187C60.3234 36.6661 61.1666 35.992 61.5402 35.0064C61.7106 34.5563 61.7645 34.0642 61.8132 33.5715C61.8545 33.7974 61.8986 34.0204 61.9363 34.2506C62.1957 35.8447 61.3235 36.5369 60.045 37.3249Z" fill="#EE9E2B"/>
<path d="M53.6806 36.1714C51.9401 34.9132 51.6565 31.6341 51.7889 29.8097C51.9642 27.3946 53.5548 23.9267 56.4637 25.5065C58.9179 26.8396 60.2819 30.1928 60.1715 33.0093C60.1207 31.5666 59.6483 30.074 59.0827 28.9897C58.13 27.3619 55.5789 24.3322 53.5752 26.5202C51.6034 28.6737 51.8145 33.0128 53.157 35.4321C53.3072 35.7026 53.4848 35.9482 53.6806 36.1714Z" fill="#EE9E2B"/>
<path d="M37.975 47.1635C36.8097 46.842 34.0917 45.8158 35.8224 44.375C37.5457 42.9401 40.5207 42.9444 42.6063 43.1624C43.902 43.2976 45.1705 43.6302 46.4132 44.0097C47.94 44.4757 49.5398 44.5695 51.1196 44.4069C53.1941 44.1933 55.2713 43.5157 57.2623 42.9131C59.2288 42.3178 61.162 41.556 62.8514 40.3695C63.9398 39.6052 64.7741 38.4874 64.7518 37.1092C64.7406 36.4258 64.4517 35.4593 65.0155 34.8956C65.9106 34.0007 67.1144 34.8867 67.7883 36.1249C68.7057 37.8106 67.454 39.6084 66.4109 40.4154C62.5713 43.3866 52.9519 49.2442 46.4533 48.7209C43.6068 48.4915 40.7153 47.9195 37.975 47.1635Z" fill="#FBE134"/>
<path d="M21.0913 4.84406C24.4783 2.49668 29.0087 2.30504 33.0698 3.1122C37.9768 4.08725 42.7172 6.49336 46.7371 9.45063C50.5928 12.2873 53.881 15.8022 56.4222 19.8077C57.3525 21.2741 58.7802 23.7611 60.0085 27.0426C55.5631 18.744 51.2318 13.3428 46.0315 9.80874C35.4176 2.59619 26.6536 2.60072 21.0913 4.84406Z" fill="#FBE134"/>
<path d="M29.8192 6.20606C35.1395 7.93432 40.0754 10.8136 43.6853 15.1537C45.1384 16.9004 46.1954 18.6862 46.9832 20.5738C42.5388 13.4281 37.0399 9.77726 31.7699 8.1351C26.8436 6.59966 22.9598 5.84041 16.7614 8.13426C19.2731 6.33402 24.0018 4.31613 29.8192 6.20606Z" fill="#FBE134"/>
<path d="M22.3844 19.0218C24.3025 20.0625 25.994 21.4874 27.4286 23.1238C35.3418 32.1476 29.1093 31.8895 23.826 31.2168C21.4683 30.9167 19.1643 30.2755 16.9032 29.5593C14.7738 28.8848 12.5866 28.0253 10.8184 26.629C9.1531 25.3146 8.93075 23.4794 10.3451 20.791C12.001 17.6433 15.1339 15.0884 22.3844 19.0218Z" fill="#FBE134"/>
<path d="M20.5796 13.9217C23.5282 14.6203 26.1905 16.0778 28.5226 17.9931C29.9011 19.1252 31.1566 20.4616 32.1779 21.9244C32.6372 22.5822 33.0138 23.2923 33.3425 24.0261C31.9318 21.872 30.214 19.98 28.0341 18.4519C24.1389 15.7218 19.682 13.7062 14.8181 14.2893C12.6875 14.5445 10.6294 15.3495 9.07115 16.726C9.07576 16.695 9.08407 16.6652 9.08919 16.6345C9.28997 16.364 9.50409 16.1013 9.74666 15.8539C10.5955 14.9885 11.6799 14.3967 12.8107 13.9887C15.2769 13.0993 18.0766 13.3284 20.5796 13.9217Z" fill="#FBE134"/>
<path d="M8.91904 41.052C8.92416 41.03 8.92693 41.0077 8.92869 40.9854C8.93524 40.9399 8.94094 40.8948 8.95143 40.8458C9.00127 40.6113 9.0517 40.3775 9.10632 40.1474C9.35954 40.969 10.2306 41.3442 11.0528 41.5933C12.7881 42.1191 12.6184 40.4794 13.0442 39.336C13.5317 38.0268 15.2049 37.9282 15.6783 36.6611C16.0103 35.7724 15.9702 34.6185 15.6621 33.6532C15.9993 33.7587 16.3424 33.8787 16.593 34.0609C17.0484 34.3918 16.9183 34.9556 16.8742 35.4265C16.7707 36.5379 16.6617 37.649 16.5582 38.7605C15.5988 38.9011 14.6938 39.2325 14.0451 40.001C13.3298 40.8481 13.2014 42.0071 13.2652 43.0742C12.289 43.4452 11.2564 42.8926 10.3509 42.4939C9.58482 42.1566 8.82448 41.9756 8.91904 41.052Z" fill="#EF6200"/>
<path d="M56.0051 35.023C55.4187 33.9729 55.1611 32.6405 55.0952 31.5836C55.0506 30.8682 54.9695 29.8746 55.0824 28.9628C55.2288 27.7808 55.696 27.2639 56.3058 27.4132C55.9439 27.6379 55.6616 28.0092 55.4963 28.622C55.1398 29.9419 55.304 31.4442 55.6388 32.7452C55.9425 33.9243 57.0425 35.1492 58.3523 34.9093C58.654 34.854 58.8803 34.7261 59.0566 34.5517C59.0138 34.6902 58.9659 34.8262 58.906 34.9562C58.1186 36.6652 56.8353 36.5082 56.0051 35.023Z" fill="#EF6200"/>
<path d="M53.8392 27.7621C53.8443 27.7537 53.8497 27.7473 53.8548 27.7393C53.5116 28.5769 53.4612 29.5192 53.5095 30.4117C53.5624 31.3843 53.8767 32.341 54.3336 33.1939C54.5165 33.5354 54.7562 33.8268 55.0063 34.1088C55.306 35.0484 55.7631 35.9322 56.4675 36.5343C55.4519 36.5323 54.4517 35.9629 53.991 34.9446C53.089 32.9518 52.6063 29.7326 53.8392 27.7621Z" fill="#EF6200"/>
<path d="M57.668 29.4839C58.0131 30.0662 58.3293 31.0418 58.4371 31.8545C58.6764 33.6525 57.7832 33.7015 57.1124 32.2982C56.7661 31.5749 56.5104 30.5801 56.488 29.8296C56.448 28.4846 56.8029 28.0252 57.668 29.4839Z" fill="#FACB1A"/>
<path d="M61.9179 48.3272C63.0322 47.392 64.1002 46.4005 65.1148 45.3582C67.2132 44.0629 70.5973 41.9417 71.4127 39.4758C71.4078 40.914 70.5964 42.174 69.5598 43.1738C67.4015 45.2557 64.7231 46.8125 62.0975 48.2298C62.0384 48.2618 61.9774 48.2951 61.9179 48.3272Z" fill="#F3AF79"/>
<path d="M6.29724 39.5007C5.26011 39.0278 4.24898 38.4842 3.57758 37.7335C3.14262 37.2472 2.88378 36.7545 2.77378 36.2767C3.38225 37.1309 4.31383 37.7384 5.31464 38.2463C5.61367 38.6846 5.94409 39.1017 6.29724 39.5007Z" fill="#F3AF79"/>
<path d="M9.23321 20.3815C8.58807 21.6857 8.38696 23.1442 7.68611 24.4189C7.65725 24.4716 7.56747 24.4495 7.57074 24.3876C7.74249 21.2775 9.36947 17.8105 12.5809 17.0081C12.6225 16.9978 12.6531 17.0617 12.6112 17.08C11.0896 17.7376 9.96082 18.9101 9.23321 20.3815Z" fill="#68182B"/>
<path d="M7.62499 24.9829C7.57876 25.1221 7.57373 25.283 7.54159 25.4264C7.52179 25.5154 7.51634 25.6057 7.50308 25.6953C7.48848 25.7951 7.45719 25.7998 7.41263 25.8909C7.39921 25.9189 7.35054 25.9202 7.33729 25.8909C7.3148 25.8411 7.26043 25.79 7.26027 25.731C7.2601 25.6283 7.2752 25.5285 7.29206 25.4272C7.32529 25.2271 7.41314 25.1024 7.51734 24.9374C7.55191 24.8829 7.64664 24.9173 7.62499 24.9829Z" fill="#68182B"/>
<path d="M44.2374 17.4791C45.8349 19.7847 46.7017 22.8587 47.3663 25.5504C48.0672 28.3898 48.5137 31.325 48.2837 34.2489C48.2781 34.32 48.1834 34.3175 48.175 34.2489C47.8279 31.3784 47.549 28.5024 46.895 25.6802C46.5805 24.3244 46.1931 22.9905 45.7569 21.669C45.2913 20.2592 44.6347 18.9114 44.2016 17.4941C44.1949 17.4717 44.2255 17.4615 44.2374 17.4791Z" fill="#68182B"/>
<path d="M43.257 15.9846C43.6038 16.2165 43.8155 16.5747 43.8288 16.9977C43.8295 17.018 43.8024 17.0233 43.7923 17.0074C43.5856 16.6853 43.3325 16.4135 43.1826 16.059C43.1637 16.0143 43.2064 15.9509 43.257 15.9846Z" fill="#68182B"/>
</svg>
